<?xml version="1.0" encoding="UTF-8" standalone="no"?>
<svg
   xmlns:dc="http://purl.org/dc/elements/1.1/"
   xmlns:cc="http://creativecommons.org/ns#"
   xmlns:rdf="http://www.w3.org/1999/02/22-rdf-syntax-ns#"
   xmlns:svg="http://www.w3.org/2000/svg"
   xmlns="http://www.w3.org/2000/svg"
   xmlns:xlink="http://www.w3.org/1999/xlink"
   version="1.1"
   id="svg2"
   viewBox="0 0 210 140"
   height="140"
   width="210">
  <defs
     id="defs4">
    <linearGradient
       id="linearGradient4188">
      <stop
         style="stop-color:#80b828;stop-opacity:1;"
         offset="0"
         id="stop4204" />
      <stop
         style="stop-color:#80b828;stop-opacity:0.80000001"
         offset="1"
         id="stop4206" />
    </linearGradient>
    <linearGradient
       id="linearGradient4208">
      <stop
         id="stop4190"
         offset="0"
         style="stop-color:#b4b4b4;stop-opacity:1" />
      <stop
         id="stop4192"
         offset="1"
         style="stop-color:#b4b4b4;stop-opacity:0.80000001" />
    </linearGradient>
    <linearGradient
       gradientUnits="userSpaceOnUse"
       y2="912.36218"
       x2="35"
       y1="982.36218"
       x1="35"
       id="linearGradient4194"
       xlink:href="#linearGradient4188" />
    <linearGradient
       gradientTransform="translate(0,69.999977)"
       y2="912.36218"
       x2="35"
       y1="982.36218"
       x1="35"
       gradientUnits="userSpaceOnUse"
       id="linearGradient4198"
       xlink:href="#linearGradient4208" />
    <linearGradient
       gradientTransform="translate(70,0)"
       y2="912.36218"
       x2="35"
       y1="982.36218"
       x1="35"
       gradientUnits="userSpaceOnUse"
       id="linearGradient4214"
       xlink:href="#linearGradient4188" />
    <linearGradient
       y2="912.36218"
       x2="35"
       y1="982.36218"
       x1="35"
       gradientTransform="translate(70,69.999977)"
       gradientUnits="userSpaceOnUse"
       id="linearGradient4216"
       xlink:href="#linearGradient4208" />
    <linearGradient
       y2="912.36218"
       x2="35"
       y1="982.36218"
       x1="35"
       gradientTransform="translate(140,0)"
       gradientUnits="userSpaceOnUse"
       id="linearGradient4222"
       xlink:href="#linearGradient4188" />
    <linearGradient
       y2="912.36218"
       x2="35"
       y1="982.36218"
       x1="35"
       gradientTransform="translate(140,69.999977)"
       gradientUnits="userSpaceOnUse"
       id="linearGradient4224"
       xlink:href="#linearGradient4208" />
  </defs>
  <metadata
     id="metadata7">
    <rdf:RDF>
      <cc:Work
         rdf:about="">
        <dc:format>image/svg+xml</dc:format>
        <dc:type
           rdf:resource="http://purl.org/dc/dcmitype/StillImage" />
        <dc:title></dc:title>
      </cc:Work>
    </rdf:RDF>
  </metadata>
  <g
     transform="translate(0,-912.36216)"
     id="layer1">
    <path
       d="M 38.302077,913.02057 A 34.5,34.5 0 0 1 69.410877,949.8404 34.5,34.5 0 0 1 33.347063,981.82256 34.5,34.5 0 0 1 0.5099064,946.53548 34.5,34.5 0 0 1 35.000001,912.86218"
       id="path3384"
       style="color:#000000;display:inline;overflow:visible;visibility:visible;opacity:1;fill:url(#linearGradient4194);fill-opacity:1;fill-rule:nonzero;stroke:none;stroke-width:1.04429197;stroke-linecap:round;stroke-linejoin:miter;stroke-miterlimit:4;stroke-dasharray:none;stroke-dashoffset:0;stroke-opacity:1;marker:none;enable-background:accumulate" />
    <path
       style="color:#000000;display:inline;overflow:visible;visibility:visible;opacity:1;fill:url(#linearGradient4198);fill-opacity:1.0;fill-rule:nonzero;stroke:none;stroke-width:1.04429197;stroke-linecap:round;stroke-linejoin:miter;stroke-miterlimit:4;stroke-dasharray:none;stroke-dashoffset:0;stroke-opacity:1;marker:none;enable-background:accumulate"
       id="path4196"
       d="m 38.302077,983.02057 a 34.5,34.5 0 0 1 31.1088,36.81983 34.5,34.5 0 0 1 -36.063814,31.9822 34.5,34.5 0 0 1 -32.8371566,-35.2871 34.5,34.5 0 0 1 34.4900946,-33.67332" />
    <path
       style="color:#000000;display:inline;overflow:visible;visibility:visible;opacity:1;fill:url(#linearGradient4214);fill-opacity:1;fill-rule:nonzero;stroke:none;stroke-width:1.04429197;stroke-linecap:round;stroke-linejoin:miter;stroke-miterlimit:4;stroke-dasharray:none;stroke-dashoffset:0;stroke-opacity:1;marker:none;enable-background:accumulate"
       id="path4210"
       d="m 108.30208,913.02057 a 34.5,34.5 0 0 1 31.1088,36.81983 34.5,34.5 0 0 1 -36.06382,31.98216 A 34.5,34.5 0 0 1 70.509906,946.53548 34.5,34.5 0 0 1 105,912.86218" />
    <path
       d="m 108.30208,983.02057 a 34.5,34.5 0 0 1 31.1088,36.81983 34.5,34.5 0 0 1 -36.06382,31.9822 A 34.5,34.5 0 0 1 70.509906,1016.5355 34.5,34.5 0 0 1 105,982.86218"
       id="path4212"
       style="color:#000000;display:inline;overflow:visible;visibility:visible;opacity:1;fill:url(#linearGradient4216);fill-opacity:1;fill-rule:nonzero;stroke:none;stroke-width:1.04429197;stroke-linecap:round;stroke-linejoin:miter;stroke-miterlimit:4;stroke-dasharray:none;stroke-dashoffset:0;stroke-opacity:1;marker:none;enable-background:accumulate" />
    <path
       d="m 178.30208,913.02057 a 34.5,34.5 0 0 1 31.1088,36.81983 34.5,34.5 0 0 1 -36.06382,31.98216 A 34.5,34.5 0 0 1 140.50991,946.53548 34.5,34.5 0 0 1 175,912.86218"
       id="path4218"
       style="color:#000000;display:inline;overflow:visible;visibility:visible;opacity:1;fill:url(#linearGradient4222);fill-opacity:1;fill-rule:nonzero;stroke:none;stroke-width:1.04429197;stroke-linecap:round;stroke-linejoin:miter;stroke-miterlimit:4;stroke-dasharray:none;stroke-dashoffset:0;stroke-opacity:1;marker:none;enable-background:accumulate" />
    <path
       style="color:#000000;display:inline;overflow:visible;visibility:visible;opacity:1;fill:url(#linearGradient4224);fill-opacity:1;fill-rule:nonzero;stroke:none;stroke-width:1.04429197;stroke-linecap:round;stroke-linejoin:miter;stroke-miterlimit:4;stroke-dasharray:none;stroke-dashoffset:0;stroke-opacity:1;marker:none;enable-background:accumulate"
       id="path4220"
       d="m 178.30208,983.02057 a 34.5,34.5 0 0 1 31.1088,36.81983 34.5,34.5 0 0 1 -36.06382,31.9822 34.5,34.5 0 0 1 -32.83715,-35.2871 A 34.5,34.5 0 0 1 175,982.86218" />
    <path
       style="fill:#ffffff;fill-opacity:1"
       d="m 45.0196,938.18906 c -0.236081,0.7874 -0.944831,3.189 -1.141663,4.0551 l -2.362247,8.7402 c -0.11808,0.433 -0.1575,0.8267 -0.1575,1.1811 0,0.6298 0.35433,0.9842 1.02367,0.9842 0.748079,0 1.692909,-0.3938 2.48024,-1.0237 1.929162,-1.4959 3.188907,-4.4094 3.188907,-7.4409 0,-3.622 -1.692912,-6.7718 -4.527488,-8.5433 -1.771579,-1.0631 -4.251909,-1.6535 -7.047229,-1.6535 -8.30698,0 -14.1338,5.5118 -14.1338,13.3071 0,7.5591 5.23624,12.5196 13.14955,12.5196 2.04733,0 4.21257,-0.3149 6.02357,-0.8661 1.535409,-0.4725 2.519657,-0.9449 4.409487,-2.0866 l 2.401663,3.4645 c -2.12608,1.2599 -3.07091,1.7324 -4.921408,2.2834 -2.677162,0.8269 -5.511732,1.2599 -8.346312,1.2599 -5.55124,0 -9.88206,-1.5748 -12.99222,-4.685 -2.95266,-2.9134 -4.56682,-7.0866 -4.56682,-11.6535 0,-4.8819 1.65367,-9.0946 4.80316,-12.2836 3.62207,-3.622 8.38589,-5.3937 14.48813,-5.3937 9.17331,0 15.70871,5.9056 15.70871,14.1339 0,3.7008 -1.33858,7.0866 -3.740158,9.4882 -2.04733,2.0473 -4.724405,3.2284 -7.362152,3.2284 -1.53541,0 -2.79524,-0.5906 -3.38582,-1.5354 -0.19683,-0.3149 -0.23625,-0.5119 -0.35433,-1.2205 -1.49608,1.7323 -3.07091,2.4802 -5.27549,2.4802 -3.89774,0 -6.37798,-2.9133 -6.37798,-7.4015 0,-6.6535 4.36998,-12.1653 9.60614,-12.1653 2.20474,0 3.30724,0.551 4.37007,2.2048 l 0.39375,-1.3781 4.64557,0 z m -8.11006,11.6928 c 0.94483,-1.8503 1.57466,-4.2519 1.57466,-6.063 0,-1.6141 -0.90533,-2.7164 -2.28333,-2.7164 -1.49608,0 -2.87407,0.9842 -3.85832,2.8346 -0.94492,1.7715 -1.57483,4.0944 -1.57483,5.9054 0,2.0866 0.78741,3.189 2.28358,3.189 1.45658,0 2.83457,-1.1417 3.85824,-3.1496 z"
       id="email-11-icon" />
    <path
       id="path4232"
       d="m 45.0196,1008.1891 c -0.236081,0.7874 -0.944831,3.189 -1.141663,4.0551 l -2.362247,8.7402 c -0.11808,0.433 -0.1575,0.8267 -0.1575,1.1811 0,0.6298 0.35433,0.9842 1.02367,0.9842 0.748079,0 1.692909,-0.3938 2.48024,-1.0237 1.929162,-1.4959 3.188907,-4.4094 3.188907,-7.4409 0,-3.622 -1.692912,-6.7718 -4.527488,-8.5433 -1.771579,-1.0631 -4.251909,-1.6535 -7.047229,-1.6535 -8.30698,0 -14.1338,5.5118 -14.1338,13.3071 0,7.5591 5.23624,12.5196 13.14955,12.5196 2.04733,0 4.21257,-0.3149 6.02357,-0.8661 1.535409,-0.4725 2.519657,-0.9449 4.409487,-2.0866 l 2.401663,3.4645 c -2.12608,1.2599 -3.07091,1.7324 -4.921408,2.2834 -2.677162,0.8269 -5.511732,1.2599 -8.346312,1.2599 -5.55124,0 -9.88206,-1.5748 -12.99222,-4.685 -2.95266,-2.9134 -4.56682,-7.0866 -4.56682,-11.6535 0,-4.8819 1.65367,-9.0946 4.80316,-12.2836 3.62207,-3.622 8.38589,-5.3937 14.48813,-5.3937 9.17331,0 15.70871,5.9056 15.70871,14.1339 0,3.7008 -1.33858,7.0866 -3.740158,9.4882 -2.04733,2.0473 -4.724405,3.2284 -7.362152,3.2284 -1.53541,0 -2.79524,-0.5906 -3.38582,-1.5354 -0.19683,-0.3149 -0.23625,-0.5119 -0.35433,-1.2205 -1.49608,1.7323 -3.07091,2.4802 -5.27549,2.4802 -3.89774,0 -6.37798,-2.9133 -6.37798,-7.4015 0,-6.6535 4.36998,-12.1653 9.60614,-12.1653 2.20474,0 3.30724,0.551 4.37007,2.2048 l 0.39375,-1.3781 4.64557,0 z m -8.11006,11.6928 c 0.94483,-1.8503 1.57466,-4.2519 1.57466,-6.063 0,-1.6141 -0.90533,-2.7164 -2.28333,-2.7164 -1.49608,0 -2.87407,0.9842 -3.85832,2.8346 -0.94492,1.7715 -1.57483,4.0944 -1.57483,5.9054 0,2.0866 0.78741,3.189 2.28358,3.189 1.45658,0 2.83457,-1.1417 3.85824,-3.1496 z"
       style="fill:#ffffff;fill-opacity:1" />
    <path
       style="fill:#ffffff;fill-opacity:1"
       d="m 104.99932,944.28232 -17.456844,16.3125 34.893984,0 -17.43714,-16.3125 z m 17.50068,-4.7998 0,17.0921 -10.02419,-9.3801 7.57495,-5.8337 -15.05067,-11.4904 -15.038452,11.4827 7.562634,5.7918 -10.024272,9.3936 0,-17.0764 17.5,-13.33262 17.5,13.35302 z"
       id="email-6-icon" />
    <path
       id="path4240"
       d="m 104.99932,1014.2823 -17.456844,16.3125 34.893984,0 -17.43714,-16.3125 z m 17.50068,-4.7998 0,17.0921 -10.02419,-9.3801 7.57495,-5.8337 -15.05067,-11.4904 -15.038452,11.4827 7.562634,5.7918 -10.024272,9.3936 0,-17.0764 17.5,-13.3326 17.5,13.353 z"
       style="fill:#ffffff;fill-opacity:1" />
    <path
       style="fill:#ffffff;fill-opacity:1"
       d="m 182.17628,948.36123 3.39156,-1.9011 c 0.63647,6.2686 -4.28033,11.6854 -10.55056,11.6854 -5.85677,0 -10.60484,-4.7477 -10.60484,-10.6049 0,-5.8567 4.74818,-10.605 10.60484,-10.605 2.36058,0 4.54071,0.7718 6.30291,2.0762 l -3.42839,1.9217 c -0.8812,-0.3848 -1.853,-0.5998 -2.87452,-0.5998 -3.97384,0 -7.20679,3.2331 -7.20679,7.2069 0,3.9738 3.23295,7.2068 7.20679,7.2068 3.69633,0 6.75023,-2.7976 7.159,-6.3862 z m 6.65005,-3.6977 c 0.94508,4.584 -0.39185,9.4032 -3.83759,12.8488 -2.66353,2.6635 -6.20476,4.1303 -9.97156,4.1303 -3.7667,0 -7.30792,-1.4668 -9.97156,-4.1303 -2.66354,-2.6635 -4.13034,-6.2049 -4.13034,-9.9717 0,-3.7665 1.4668,-7.3078 4.13044,-9.9714 2.66364,-2.6636 6.20487,-4.13056 9.97146,-4.13056 3.57157,0 6.93992,1.31966 9.55022,3.72736 0.96094,-0.6467 1.7209,-1.5403 2.20526,-2.5889 -3.10659,-2.81869 -7.23043,-4.5364 -11.75548,-4.5364 -9.66456,-1.1e-4 -17.49984,7.8353 -17.49984,17.4999 0,9.6653 7.83528,17.5001 17.49994,17.5001 10.97966,0 19.29792,-10.0231 17.1724,-20.8806 -1.1829,-0.1468 -2.3363,0.044 -3.36335,0.5034 z m 7.22979,-8.895 1.41102,-5.47455 -7.89128,4.42325 c -0.70727,2.1488 -2.18716,3.9363 -4.14024,5.0312 l -8.24757,4.623 c -0.6121,-0.4376 -1.36109,-0.696 -2.17098,-0.696 -2.06431,0 -3.73784,1.6734 -3.73784,3.7378 0,2.0642 1.67363,3.7379 3.73784,3.7379 2.10754,0 3.83003,-1.7513 3.73348,-3.9133 l 8.27004,-4.6356 c 1.96148,-1.0994 4.26414,-1.4228 6.45247,-0.9063 l 7.90246,-4.4295 -5.3194,-1.4979 z"
       id="target-3-icon" />
    <path
       id="path4254"
       d="m 182.17628,1018.3612 3.39156,-1.9011 c 0.63647,6.2686 -4.28033,11.6854 -10.55056,11.6854 -5.85677,0 -10.60484,-4.7477 -10.60484,-10.6049 0,-5.8567 4.74818,-10.605 10.60484,-10.605 2.36058,0 4.54071,0.7718 6.30291,2.0762 l -3.42839,1.9217 c -0.8812,-0.3848 -1.853,-0.5998 -2.87452,-0.5998 -3.97384,0 -7.20679,3.2331 -7.20679,7.2069 0,3.9738 3.23295,7.2068 7.20679,7.2068 3.69633,0 6.75023,-2.7976 7.159,-6.3862 z m 6.65005,-3.6977 c 0.94508,4.584 -0.39185,9.4032 -3.83759,12.8488 -2.66353,2.6635 -6.20476,4.1303 -9.97156,4.1303 -3.7667,0 -7.30792,-1.4668 -9.97156,-4.1303 -2.66354,-2.6635 -4.13034,-6.2049 -4.13034,-9.9717 0,-3.7665 1.4668,-7.3078 4.13044,-9.9714 2.66364,-2.6636 6.20487,-4.1305 9.97146,-4.1305 3.57157,0 6.93992,1.3196 9.55022,3.7273 0.96094,-0.6467 1.7209,-1.5403 2.20526,-2.5889 -3.10659,-2.8187 -7.23043,-4.5364 -11.75548,-4.5364 -9.66456,-10e-5 -17.49984,7.8353 -17.49984,17.4999 0,9.6653 7.83528,17.5001 17.49994,17.5001 10.97966,0 19.29792,-10.0231 17.1724,-20.8806 -1.1829,-0.1468 -2.3363,0.044 -3.36335,0.5034 z m 7.22979,-8.895 1.41102,-5.4745 -7.89128,4.4232 c -0.70727,2.1488 -2.18716,3.9363 -4.14024,5.0312 l -8.24757,4.623 c -0.6121,-0.4376 -1.36109,-0.696 -2.17098,-0.696 -2.06431,0 -3.73784,1.6734 -3.73784,3.7378 0,2.0642 1.67363,3.7379 3.73784,3.7379 2.10754,0 3.83003,-1.7513 3.73348,-3.9133 l 8.27004,-4.6356 c 1.96148,-1.0994 4.26414,-1.4228 6.45247,-0.9063 l 7.90246,-4.4295 -5.3194,-1.4979 z"
       style="fill:#ffffff;fill-opacity:1" />
  </g>
</svg>
