/* XPM */
static char * ooo_writer_xpm[] = {
"48 48 609 2",
"  	c None",
". 	c #5386C7",
"+ 	c #5989C8",
"@ 	c #5688C8",
"# 	c #5486C8",
"$ 	c #5184C7",
"% 	c #5789C7",
"& 	c #6291CC",
"* 	c #99B7DE",
"= 	c #BCD1EA",
"- 	c #CADCEF",
"; 	c #D1E2F4",
"> 	c #D2E3F5",
", 	c #D2E4F6",
"' 	c #5385C6",
") 	c #5888C9",
"! 	c #9FBBE0",
"~ 	c #CCDCF0",
"{ 	c #D1E3F5",
"] 	c #D3E1F0",
"^ 	c #D9E4F1",
"/ 	c #DEE7F2",
"( 	c #E4EBF4",
"_ 	c #E7EDF5",
": 	c #EAEFF6",
"< 	c #E6ECF5",
"[ 	c #E3EAF3",
"} 	c #E0E9F3",
"| 	c #D4E2F1",
"1 	c #A7C1E3",
"2 	c #DDE8F4",
"3 	c #ECEEF5",
"4 	c #F4F5F8",
"5 	c #F5F5F8",
"6 	c #F4F4F8",
"7 	c #F4F4F7",
"8 	c #D1E3F4",
"9 	c #78A0D3",
"0 	c #CEDFF2",
"a 	c #D3E1F2",
"b 	c #E8EDF5",
"c 	c #E7ECF5",
"d 	c #E6ECF4",
"e 	c #E5ECF4",
"f 	c #E5EBF4",
"g 	c #DDE6F1",
"h 	c #D0E1F1",
"i 	c #CADDF1",
"j 	c #5386C5",
"k 	c #A6C0E1",
"l 	c #D3E4F5",
"m 	c #E9ECF4",
"n 	c #F3F3F7",
"o 	c #D3E5F5",
"p 	c #5587C6",
"q 	c #BACFE8",
"r 	c #C8D9EE",
"s 	c #C8D5E8",
"t 	c #D3DDEB",
"u 	c #E4EBF3",
"v 	c #E4EAF3",
"w 	c #E0E6F1",
"x 	c #BCCDE2",
"y 	c #A3B9D6",
"z 	c #B9C9E0",
"A 	c #E2E8F3",
"B 	c #E2E9F3",
"C 	c #E1E9F3",
"D 	c #E1E8F3",
"E 	c #E1E8F2",
"F 	c #DAE3F0",
"G 	c #D1E1F3",
"H 	c #BAD0E9",
"I 	c #5384C6",
"J 	c #BCD1E9",
"K 	c #C8D7EA",
"L 	c #AABDD7",
"M 	c #819EC6",
"N 	c #4571AB",
"O 	c #3A69A6",
"P 	c #6287B8",
"Q 	c #9EB4D3",
"R 	c #E1E6EF",
"S 	c #EBEDF3",
"T 	c #ACBED8",
"U 	c #698CBB",
"V 	c #3C6BA8",
"W 	c #6B8EBC",
"X 	c #C5D1E3",
"Y 	c #F3F3F6",
"Z 	c #F2F2F6",
"` 	c #F0F0F5",
" .	c #D9E5F3",
"..	c #BDD1EA",
"+.	c #5384C5",
"@.	c #AEC5E3",
"#.	c #D3E2F2",
"$.	c #DFE7F1",
"%.	c #E2E8F2",
"&.	c #DCE3ED",
"*.	c #A7BAD5",
"=.	c #5F84B6",
"-.	c #3465A4",
";.	c #3667A5",
">.	c #688CBA",
",.	c #A7BCD8",
"'.	c #7D9DC5",
").	c #3E6DA8",
"!.	c #4D78AF",
"~.	c #AFC0D8",
"{.	c #E0E6F0",
"].	c #E0E7F2",
"^.	c #DFE6F1",
"/.	c #D2E0F2",
"(.	c #AFC5E4",
"_.	c #84A8D3",
":.	c #D9E6F4",
"<.	c #EFF0F4",
"[.	c #ECECF0",
"}.	c #A9B8CF",
"|.	c #4C76AC",
"1.	c #3767A5",
"2.	c #8AA2C3",
"3.	c #E2E3E8",
"4.	c #F1F1F5",
"5.	c #F1F1F6",
"6.	c #EDEEF4",
"7.	c #D7E5F4",
"8.	c #84A7D3",
"9.	c #5688C4",
"0.	c #D1E0F2",
"a.	c #D7E1EE",
"b.	c #E2E9F2",
"c.	c #D0D6E2",
"d.	c #6586B2",
"e.	c #4571A9",
"f.	c #A5B4C9",
"g.	c #DBE1EA",
"h.	c #E1E7F2",
"i.	c #E0E7F1",
"j.	c #DEE6F1",
"k.	c #DDE5F1",
"l.	c #DDE5F0",
"m.	c #DCE4F0",
"n.	c #D4E0EE",
"o.	c #CFDFF2",
"p.	c #5383C2",
"q.	c #B9CBE5",
"r.	c #E8E8EE",
"s.	c #91A3BE",
"t.	c #C7CAD2",
"u.	c #EEEEF3",
"v.	c #F0F0F6",
"w.	c #EFEFF5",
"x.	c #EFEFF4",
"y.	c #E2EAF3",
"z.	c #B8CBE7",
"A.	c #5B89C5",
"B.	c #DAE2EF",
"C.	c #E1E8F1",
"D.	c #DFE5F0",
"E.	c #E1E7F1",
"F.	c #D4DBE5",
"G.	c #C1C7D1",
"H.	c #BDC4CD",
"I.	c #E0E6F2",
"J.	c #DEE5F0",
"K.	c #DBE3EF",
"L.	c #DAE3EF",
"M.	c #D9E2EF",
"N.	c #D7E0EE",
"O.	c #D7E7F4",
"P.	c #2E3537",
"Q.	c #2E3435",
"R.	c #313941",
"S.	c #454D54",
"T.	c #646A6E",
"U.	c #8D9093",
"V.	c #BBBDC1",
"W.	c #ECECF1",
"X.	c #F0F0F4",
"Y.	c #ADAFB3",
"Z.	c #7B7E82",
"`.	c #494E51",
" +	c #32383A",
".+	c #75797C",
"++	c #C2C3C8",
"@+	c #EEEEF4",
"#+	c #EDEDF4",
"$+	c #EAEAF1",
"%+	c #E6E6EE",
"&+	c #E0E6F3",
"*+	c #B4C8E5",
"=+	c #4E80BF",
"-+	c #446998",
";+	c #747D84",
">+	c #3B4245",
",+	c #2E3436",
"'+	c #3C4245",
")+	c #787E84",
"!+	c #B9C0C9",
"~+	c #DFE6F0",
"{+	c #DEE4EF",
"]+	c #ACB3BB",
"^+	c #6A7074",
"/+	c #33393C",
"(+	c #303638",
"_+	c #71787D",
":+	c #C9CFD9",
"<+	c #DEE5F1",
"[+	c #DDE4F0",
"}+	c #D2DCEB",
"|+	c #C6D2E6",
"1+	c #BCCBE2",
"2+	c #BBCBE2",
"3+	c #BECFE5",
"4+	c #D9E5F4",
"5+	c #4D7EBE",
"6+	c #739BCC",
"7+	c #E1EAF6",
"8+	c #E3E3E7",
"9+	c #9B9EA2",
"0+	c #464B4D",
"a+	c #4F5456",
"b+	c #9DA0A3",
"c+	c #95989C",
"d+	c #515558",
"e+	c #B8BABF",
"f+	c #E6E6EB",
"g+	c #EEEEF5",
"h+	c #E9E9F1",
"i+	c #E3E3ED",
"j+	c #E1E1EC",
"k+	c #E0E0EB",
"l+	c #E0E0EA",
"m+	c #DFE9F5",
"n+	c #749ACC",
"o+	c #B0C5E2",
"p+	c #D9E3F1",
"q+	c #DCE3EF",
"r+	c #D2D9E4",
"s+	c #7B8187",
"t+	c #353B3C",
"u+	c #373D40",
"v+	c #83898F",
"w+	c #C7CDD6",
"x+	c #DCE1EB",
"y+	c #E1E6F1",
"z+	c #DFE5F1",
"A+	c #D5DDED",
"B+	c #C8D3E7",
"C+	c #C4D0E5",
"D+	c #C1CEE4",
"E+	c #C2CFE4",
"F+	c #C0CDE3",
"G+	c #BFCCE3",
"H+	c #BECCE2",
"I+	c #BCCBE3",
"J+	c #BBCAE2",
"K+	c #D1DEEF",
"L+	c #B1C6E2",
"M+	c #4E7EBD",
"N+	c #D1DDEE",
"O+	c #E9ECF3",
"P+	c #EDEDF2",
"Q+	c #EDEDF3",
"R+	c #CECED4",
"S+	c #5D6163",
"T+	c #54585B",
"U+	c #B9BABF",
"V+	c #E0E0E6",
"W+	c #C9C9CA",
"X+	c #AFB0AD",
"Y+	c #AEAFAC",
"Z+	c #B0B1AE",
"`+	c #B0B2AE",
" @	c #B1B2AF",
".@	c #B2B3B0",
"+@	c #B3B4B1",
"@@	c #B4B5B2",
"#@	c #B5B6B3",
"$@	c #C1C7CC",
"%@	c #4C7DBB",
"&@	c #D8E1EE",
"*@	c #DAE2EE",
"=@	c #DBE2EE",
"-@	c #DCE3EE",
";@	c #DDE4EF",
">@	c #D9E0EC",
",@	c #7C8187",
"'@	c #2F3537",
")@	c #7D8288",
"!@	c #C9CFD8",
"~@	c #DCE1EC",
"{@	c #ABACA9",
"]@	c #FFFFFF",
"^@	c #4678B8",
"/@	c #E8EFF8",
"(@	c #EBECF2",
"_@	c #ECECF2",
":@	c #ECECF3",
"<@	c #ACAEB2",
"[@	c #B4B5BA",
"}@	c #A7A8A4",
"|@	c #EEEEEC",
"1@	c #EDEDEB",
"2@	c #ECECEA",
"3@	c #4779B8",
"4@	c #4375B6",
"5@	c #E9F1F9",
"6@	c #D7E0EC",
"7@	c #D8E0ED",
"8@	c #D9E1ED",
"9@	c #DAE1EE",
"0@	c #DDE3EF",
"a@	c #DEE3EF",
"b@	c #E0E5F0",
"c@	c #DFE4F0",
"d@	c #E2E6F1",
"e@	c #A3A5A1",
"f@	c #EDEDEA",
"g@	c #ECECE9",
"h@	c #EBEBE9",
"i@	c #4274B5",
"j@	c #EBF3FB",
"k@	c #EAEBF1",
"l@	c #EBEBF1",
"m@	c #EBEBF2",
"n@	c #A0A29E",
"o@	c #92948F",
"p@	c #EBEBE8",
"q@	c #EAEAE8",
"r@	c #4575B5",
"s@	c #EAF2F9",
"t@	c #D7DFEC",
"u@	c #D9E0ED",
"v@	c #DAE1ED",
"w@	c #DBE1EE",
"x@	c #DFE4EF",
"y@	c #E0E5EF",
"z@	c #E1E5F1",
"A@	c #E1E6F0",
"B@	c #9D9F9B",
"C@	c #EAEAE7",
"D@	c #FEFEFE",
"E@	c #ADAEAA",
"F@	c #4575B6",
"G@	c #4978B7",
"H@	c #E8EFF7",
"I@	c #E9EAF1",
"J@	c #EAEAF0",
"K@	c #EAEAF2",
"L@	c #EBEBF3",
"M@	c #9A9C97",
"N@	c #B9BAB7",
"O@	c #B8B9B6",
"P@	c #B8B9B5",
"Q@	c #B7B8B5",
"R@	c #E9E9E7",
"S@	c #E9E9E6",
"T@	c #FEFEFD",
"U@	c #A9ABA7",
"V@	c #4979B6",
"W@	c #D9E3EF",
"X@	c #DCE3F0",
"Y@	c #D6DEEC",
"Z@	c #D8DFEC",
"`@	c #DCE1ED",
" #	c #DCE1EE",
".#	c #DCE2EE",
"+#	c #DEE3EE",
"@#	c #E0E4EF",
"##	c #E1E5F0",
"$#	c #E2E5F0",
"%#	c #E3E6F1",
"&#	c #979894",
"*#	c #E8E8E6",
"=#	c #E8E8E5",
"-#	c #FDFDFD",
";#	c #A6A8A4",
">#	c #4B7AB6",
",#	c #4274B3",
"'#	c #B9CAE2",
")#	c #EDEEF5",
"!#	c #E8E8EF",
"~#	c #E8E8F0",
"{#	c #E9E9F0",
"]#	c #EAEAF3",
"^#	c #939591",
"/#	c #B7B8B4",
"(#	c #E7E7E5",
"_#	c #E7E7E4",
":#	c #FCFCFC",
"<#	c #A3A4A1",
"[#	c #7699C7",
"}#	c #EFF2F8",
"|#	c #D4DCEA",
"1#	c #D6DDEB",
"2#	c #D7DEEC",
"3#	c #D9DFEC",
"4#	c #DBE1ED",
"5#	c #DDE2EE",
"6#	c #DEE2EF",
"7#	c #E1E4EF",
"8#	c #90928D",
"9#	c #9A9B99",
"0#	c #969895",
"a#	c #E6E6E4",
"b#	c #FBFBFB",
"c#	c #A0A19D",
"d#	c #4373B1",
"e#	c #F1F4F8",
"f#	c #E7E7EF",
"g#	c #E7E7F0",
"h#	c #E8E8F1",
"i#	c #E5E5F0",
"j#	c #E4E4EE",
"k#	c #8D8F8A",
"l#	c #CECECD",
"m#	c #CCCDCC",
"n#	c #375C93",
"o#	c #375C92",
"p#	c #4B6C9D",
"q#	c #B6B7B4",
"r#	c #B6B7B3",
"s#	c #E6E6E3",
"t#	c #FAFAFA",
"u#	c #9D9E9A",
"v#	c #4472B1",
"w#	c #C1CFE4",
"x#	c #E6EAF2",
"y#	c #D3DCEA",
"z#	c #D4DCEB",
"A#	c #D6DDEA",
"B#	c #D9DFEB",
"C#	c #D9DEEC",
"D#	c #DBDFEC",
"E#	c #DCE0ED",
"F#	c #DBDFED",
"G#	c #DADEEC",
"H#	c #DEE0EC",
"I#	c #8A8C87",
"J#	c #396297",
"K#	c #8C8271",
"L#	c #DCA24D",
"M#	c #91856F",
"N#	c #4D71A0",
"O#	c #E5E5E2",
"P#	c #FAFAF9",
"Q#	c #999B97",
"R#	c #527DB6",
"S#	c #F7F9FB",
"T#	c #E5E5EE",
"U#	c #E6E6EF",
"V#	c #E5E5EF",
"W#	c #E4E4ED",
"X#	c #E2E2ED",
"Y#	c #E6E6F0",
"Z#	c #888A85",
"`#	c #3D669D",
" $	c #F3AC42",
".$	c #FCAF3E",
"+$	c #F7AD41",
"@$	c #3D669C",
"#$	c #5175A5",
"$$	c #B5B6B2",
"%$	c #E4E4E1",
"&$	c #F9F9F8",
"*$	c #969894",
"=$	c #4573B1",
"-$	c #C9D5E6",
";$	c #E7EBF3",
">$	c #CCD5E6",
",$	c #CDD6E6",
"'$	c #CDD4E6",
")$	c #CDD5E6",
"!$	c #D0D6E7",
"~$	c #D3DAE9",
"{$	c #D5DBE9",
"]$	c #D8DCEA",
"^$	c #DEE1EE",
"/$	c #DFE3EE",
"($	c #53677A",
"_$	c #C3882C",
":$	c #F7AB3B",
"<$	c #C98B2C",
"[$	c #556575",
"}$	c #5379A9",
"|$	c #E3E3E0",
"1$	c #F8F8F7",
"2$	c #939590",
"3$	c #4A77B3",
"4$	c #F7F8FA",
"5$	c #DFDFE9",
"6$	c #DFDFEA",
"7$	c #E1E1EB",
"8$	c #E3E3EC",
"9$	c #E7E7F1",
"0$	c #E5E5E3",
"a$	c #875C15",
"b$	c #8F5902",
"c$	c #8A5B0E",
"d$	c #577DAD",
"e$	c #E2E2DF",
"f$	c #F7F7F6",
"g$	c #89A4CB",
"h$	c #F7F8FB",
"i$	c #CBD5E6",
"j$	c #C9D3E4",
"k$	c #CAD3E5",
"l$	c #CED5E6",
"m$	c #D1D7E7",
"n$	c #D4DAE9",
"o$	c #D7DCEA",
"p$	c #D8DDEA",
"q$	c #DADFEC",
"r$	c #E0E3EF",
"s$	c #999A97",
"t$	c #835D1F",
"u$	c #855C1A",
"v$	c #587FB1",
"w$	c #B4B5B1",
"x$	c #E1E1DE",
"y$	c #F6F6F5",
"z$	c #8D8E8A",
"A$	c #4270AC",
"B$	c #BFCDE1",
"C$	c #F7F7FA",
"D$	c #E2E2EC",
"E$	c #E2E2DE",
"F$	c #E1E1DD",
"G$	c #F4F4F3",
"H$	c #898B86",
"I$	c #3F6EAB",
"J$	c #D6DEEB",
"K$	c #F1F3F8",
"L$	c #CCD4E5",
"M$	c #CBD4E6",
"N$	c #D0D7E7",
"O$	c #D1D8E8",
"P$	c #D6DBEB",
"Q$	c #D9DEEB",
"R$	c #DADFEB",
"S$	c #E4E4E2",
"T$	c #E0E0DD",
"U$	c #F3F3F2",
"V$	c #3E6DAA",
"W$	c #F9F9FB",
"X$	c #B3B4B0",
"Y$	c #E0E0DC",
"Z$	c #DFDFDC",
"`$	c #F2F2F1",
" %	c #3C6BA7",
".%	c #B7C7DE",
"+%	c #FAFBFC",
"@%	c #DBE0ED",
"#%	c #CFD7E7",
"$%	c #D0D7E8",
"%%	c #D3D9E8",
"&%	c #D5DCEB",
"*%	c #D6DCEB",
"=%	c #DFDFDB",
"-%	c #DEDEDB",
";%	c #F1F1EF",
">%	c #3A66A1",
",%	c #7796C0",
"'%	c #F5F7FA",
")%	c #F6F6F9",
"!%	c #F9F9F9",
"~%	c #B2B3AF",
"{%	c #DEDEDA",
"]%	c #DDDDDA",
"^%	c #F0F0EE",
"/%	c #2C5486",
"(%	c #3E6BA8",
"_%	c #B8C6DE",
":%	c #F9FAFC",
"<%	c #EEF1F7",
"[%	c #CED6E7",
"}%	c #CFD6E7",
"|%	c #DDDDD9",
"1%	c #EEEEED",
"2%	c #355F94",
"3%	c #406DA9",
"4%	c #AEBFD8",
"5%	c #EFF2F7",
"6%	c #FCFCFD",
"7%	c #B1B2AE",
"8%	c #DCDCD8",
"9%	c #2D5384",
"0%	c #3C69A2",
"a%	c #567DB1",
"b%	c #A5BAD4",
"c%	c #B6B6B3",
"d%	c #DBDBD7",
"e%	c #254975",
"f%	c #F5F5F4",
"g%	c #DCDCD9",
"h%	c #DBDBD8",
"i%	c #DADAD7",
"j%	c #DADAD6",
"k%	c #F3F3F1",
"l%	c #F2F2F0",
"m%	c #F1F1F0",
"n%	c #F0F0EF",
"o%	c #EFEFEE",
"p%	c #EFEFED",
"q%	c #858883",
"r%	c #8F928C",
"                                                                                                ",
"                                                                                                ",
"                                        . + @ # $ # @ + .                                       ",
"                                  % & * = - ; > , > ; - = * & %                                 ",
"                            ' ) ! ~ { ] ^ / ( _ : < [ } ^ | > ~ ! ) '                           ",
"                          @ 1 ; 2 3 4 5 5 5 5 5 5 5 5 5 5 6 7 3 2 8 1 @                         ",
"                      # 9 0 a / b _ b b _ _ _ c c < d d e e e f f g h i 9 #                     ",
"                    j k l m 7 6 7 7 7 7 6 7 7 7 7 7 7 7 7 n n n n n n m o k j                   ",
"                  p q r s t [ e f f f ( u v v v w x y z A B B B B C D E F G H p                 ",
"                I J K L M N O P Q R n n n S T U V W X n Y Z Z Z Z Z Z Z Z `  ...I               ",
"              +.@.#.$.B %.&.*.=.-.;.>.,.'.).-.!.~.{.B B %.E E ].].^.$.^.^.g F /.(.+.            ",
"              _.:.<.Z Z Z Z Z [.}.|.-.-.-.1.2.3.4.Z 5.Z Z Z Z 5.5.5.5.5.5.` ` 6.7.8.            ",
"            9.0.a.E E E %.%.%.%.b.c.d.-.e.f.g.%.E E E h.h.].i.].$.^.j.k.l.m.m.m.n.o.9.          ",
"          p.q.%.4.4.4.4.4.4.5.5.4.5.r.s.t.u.5.5.5.5.5.5.5.v.v.` ` ` ` ` ` ` w.w.x.y.z.p.        ",
"          A.7.B.i.$.i.i.i.i.i.i.h.E C.D.E.E.F.G.H.F.h.i.w I.^.^.^.J.k.m.m.m.K.L.M.N.O.A.        ",
"    P.Q.R.S.T.U.V.W.X.X.` ` ` ` ` ` 3.Y.Z.`. +.+++v.` ` ` ` ` w.w.w.w.w.x.@+@+#+$+%+&+*+=+      ",
"        -+;+>+,+,+'+)+!+~+{.w {+]+^+/+,+(+_+:+i.i.w w w w i.w <+[+J.[+m.K.}+|+1+2+z 3+4+5+      ",
"        6+7+8+9+0+,+,+,+a+b+c+0+,+,+,+d+e+f+@+` w.w.w.w.w.w.w.w.w.w.g+h+i+j+j+k+k+k+l+m+n+      ",
"        o+p+q+q+r+s+t+,+,+,+,+,+,+u+v+w+x+y+E.E.y+y+y+y+w z+z+J.J.A+B+C+D+E+F+G+H+I+J+K+L+      ",
"      M+N+O+P+Q+Q+Q+R+S+,+,+,+,+T+U+V+@+W+X+Y+X+Z+`+ @.@.@+@@@@@@@@@@@@@@@@@@@@@@@@@@@#@$@M+    ",
"      %@m+&@*@=@-@-@;@>@,@'@(+)@!@~@{.y+{@]@]@]@]@]@]@]@]@]@]@]@]@]@]@]@]@]@]@]@]@]@]@]@#@%@    ",
"      ^@/@(@_@_@_@_@_@:@:@<@[@f+#+#+#+#+}@]@|@|@|@|@|@|@|@|@|@|@|@|@|@|@1@1@1@1@2@2@2@]@@@3@    ",
"      4@5@6@7@8@9@=@-@0@{+{+a@b@c@b@y+d@e@]@|@|@|@|@|@|@|@|@|@|@1@1@1@1@f@2@2@2@g@h@h@]@+@4@    ",
"      i@j@k@$+l@l@l@m@m@:@_@m@:@:@:@:@:@n@]@|@|@|@|@|@o@o@o@o@o@o@o@o@2@2@h@h@h@h@p@q@]@Z+i@    ",
"      r@s@t@6@7@u@v@w@w@0@0@{+x@y@z@A@d@B@]@|@|@|@1@1@1@1@2@2@2@2@g@h@h@h@p@q@q@q@C@C@D@E@F@    ",
"      G@H@I@J@J@h+$+$+$+K@K@m@m@L@L@L@:@M@]@1@1@1@1@2@N@N@N@O@O@O@O@O@O@O@O@P@Q@Q@R@S@T@U@G@    ",
"      V@W@X@Y@t@Z@>@u@`@ #.#+#a@@###$#%#&#]@2@2@2@2@g@O@O@O@O@O@O@O@P@P@Q@Q@Q@Q@Q@*#=#-#;#>#    ",
"      ,#'#)#!#~#{#{#{#{#h+h+$+$+K@K@]#L@^#]@2@q@q@h@p@O@O@O@O@P@Q@Q@Q@Q@Q@Q@/#/#/#(#_#:#<#,#    ",
"        [#}#|#1#1#2#Z@3#v@4#5#6#x@7#$#@#8#]@h@9#0#q@q@C@C@R@R@S@S@*#*#=#=#(#(#_#_#_#a#b#c#      ",
"        d#e#{#f#f#g#f#!#~#~#h+h#h+h#i#j#k#]@q@l#m#R@R@n#o#o#o#o#p#=#q#q#q#q#q#q#r#s#s#t#u#      ",
"        v#w#x#y#z#1#A#B#C#D#`@E#F#G#G#H#I#]@R@1@1@S@*#J#K#L#M#J#N#_#q#q#r#r#r##@#@O#O#P#Q#      ",
"          R#S#%+T#%+U#f#V#W#i+X#j#j#V#Y#Z#]@S@*#=#=#=#`# $.$+$@$#$s#r#r##@#@#@#@$$%$%$&$*$      ",
"          =$-$;$>$,$'$)$)$!$~${$]$D#^$/$Z#]@=#(#(#_#_#($_$:$<$[$}$O##@#@#@$$$$$$$$|$|$1$2$      ",
"            3$4$T#5$6$6$7$j+8$j#j#U#g#9$Z#D@_#s#0$s#s#a$b$b$b$c$d$%$$$$$$$@@@@@@@@e$e$f$8#      ",
"              g$h$i$j$k$l$m$n$o$p$q$^$r$Z#T@s#s$*$0$O#t$b$b$b$u$v$%$@@@@@@@@w$w$w$e$x$y$z$      ",
"              A$B$C$l+6$k+D$i+W#T#U#g#h#Z#-#O#l#m#O#%$%$%$%$|$|$|$|$e$e$e$e$E$x$x$x$F$G$H$      ",
"                I$J$K$L$M$N$O$n$P$Q$R$`@Z#:#S$S@R@%$%$|$|$|$|$e$e$e$e$x$x$x$F$F$T$T$T$U$Z#      ",
"                  V$|#W$8$k+D$i+i+T#V#U#Z#b#%$|$|$|$|$w$w$w$w$w$+@+@+@X$X$X$X$Y$Y$Z$Z$`$Z#      ",
"                     %.%+%@%,$#%$%%%&%*%Z#t#|$|$e$e$e$e$x$x$x$F$F$T$T$Y$Y$Z$Z$Z$=%=%-%;%Z#      ",
"                      >%,%'%)%%+j+D$X#j#Z#!%e$e$E$x$x$+@X$X$X$X$X$X$.@.@~%~%~%~%$${%]%^%Z#      ",
"                        /%(%_%:%<%u@[%}%Z#1$x$x$F$F$T$X$X$X$.@.@.@~%~%~%~%~%~% @w$|%|%1%Z#      ",
"                            2%3%4%5%6%6 Z#f$T$T$T$Y$Y$.@.@~%~%~%~%~%~% @ @7%7%7%w$8%8%1@Z#      ",
"                                9%0%a%b%Z#y$Y$Z$Z$=%=%$$$$$$$$$$@@w$w$w$w$w$w$w$c%d%d%2@Z#      ",
"                                      e%Z#f%=%=%-%-%{%{%]%]%|%|%|%g%8%8%8%h%d%d%d%i%j%q@Z#      ",
"                                        H$U$U$U$k%`$l%m%;%n%o%p%p%|@1@1@f@2@h@p@q@q@R@*#H$      ",
"                                        q%H$Z#Z#Z#Z#Z#Z#Z#Z#Z#Z#Z#Z#Z#Z#Z#Z#Z#Z#Z#Z#Z#H$r%      ",
"                                                                                                ",
"                                                                                                "};
