/* XPM */
static char * ooo_web_xpm[] = {
"48 48 821 2",
"  	c None",
". 	c #5386C7",
"+ 	c #5989C8",
"@ 	c #5688C8",
"# 	c #5486C8",
"$ 	c #5184C7",
"% 	c #5789C7",
"& 	c #6291CC",
"* 	c #99B7DE",
"= 	c #BCD1EA",
"- 	c #CADCEF",
"; 	c #D1E2F4",
"> 	c #D2E3F5",
", 	c #D2E4F6",
"' 	c #5385C6",
") 	c #5888C9",
"! 	c #9FBBE0",
"~ 	c #CCDCF0",
"{ 	c #D1E3F5",
"] 	c #D3E1F0",
"^ 	c #D9E4F1",
"/ 	c #DEE7F2",
"( 	c #E4EBF4",
"_ 	c #E7EDF5",
": 	c #E9EFF6",
"< 	c #E6ECF5",
"[ 	c #E3EAF3",
"} 	c #E0E9F3",
"| 	c #D4E2F1",
"1 	c #A7C1E3",
"2 	c #DDE8F4",
"3 	c #E1E8F2",
"4 	c #E1EAF3",
"5 	c #E8EDF5",
"6 	c #EDF1F6",
"7 	c #E4ECF4",
"8 	c #DCE7F2",
"9 	c #D8E4F1",
"0 	c #D6E3F1",
"a 	c #DEE8F3",
"b 	c #F0F2F7",
"c 	c #F5F5F8",
"d 	c #F4F4F8",
"e 	c #F4F4F7",
"f 	c #ECEEF5",
"g 	c #D1E3F4",
"h 	c #78A0D3",
"i 	c #CEDFF2",
"j 	c #D3E1F2",
"k 	c #E3EBF4",
"l 	c #E1EAF4",
"m 	c #D5E2F1",
"n 	c #D4E2F0",
"o 	c #D2E1F0",
"p 	c #E6ECF4",
"q 	c #E5ECF4",
"r 	c #E5EBF4",
"s 	c #DDE6F1",
"t 	c #D0E1F1",
"u 	c #CADDF1",
"v 	c #5386C5",
"w 	c #A6C0E1",
"x 	c #D3E4F5",
"y 	c #E1E7F2",
"z 	c #F1F2F6",
"A 	c #DBE6F2",
"B 	c #F3F3F7",
"C 	c #EBEFF6",
"D 	c #D1DFEF",
"E 	c #D0DFEF",
"F 	c #DAE5F1",
"G 	c #E9EDF4",
"H 	c #E9ECF4",
"I 	c #D3E5F5",
"J 	c #5587C6",
"K 	c #BACFE8",
"L 	c #C8D9EE",
"M 	c #C4D3E6",
"N 	c #C4D5E8",
"O 	c #D6E2F0",
"P 	c #E1E9F3",
"Q 	c #D7E3F1",
"R 	c #D6E3F0",
"S 	c #DCE6F1",
"T 	c #CEDDEE",
"U 	c #CEDEEE",
"V 	c #D5E2F0",
"W 	c #D9E3F0",
"X 	c #BCCCE2",
"Y 	c #A2B8D6",
"Z 	c #B9C9E0",
"` 	c #E2E8F3",
" .	c #E2E9F3",
"..	c #CADBED",
"+.	c #CBDBED",
"@.	c #CADAED",
"#.	c #D2E0EF",
"$.	c #D5E0EE",
"%.	c #D0E0F3",
"&.	c #BAD0E9",
"*.	c #5384C6",
"=.	c #BCD1E9",
"-.	c #C8D7EA",
";.	c #A3B8D6",
">.	c #7396C3",
",.	c #4370AB",
"'.	c #3968A6",
").	c #6186B8",
"!.	c #9BB2D1",
"~.	c #CDDAE9",
"{.	c #EEF1F6",
"].	c #C6D7EB",
"^.	c #A7BAD7",
"/.	c #698CBB",
"(.	c #3C6BA8",
"_.	c #688CBB",
":.	c #B6C8DF",
"<.	c #F3F3F6",
"[.	c #F2F2F6",
"}.	c #E3E9F3",
"|.	c #D5E1EF",
"1.	c #D7E3F0",
"2.	c #C6D8EC",
"3.	c #D8E2F0",
"4.	c #CCDCED",
"5.	c #D2DFEE",
"6.	c #D9E4F3",
"7.	c #BDD1EA",
"8.	c #5384C5",
"9.	c #AEC5E3",
"0.	c #D3E2F2",
"a.	c #CDDDEE",
"b.	c #DAE4F0",
"c.	c #DCE3ED",
"d.	c #A7BAD5",
"e.	c #5B82B5",
"f.	c #3465A4",
"g.	c #3667A5",
"h.	c #688CBA",
"i.	c #A7BCD8",
"j.	c #7D9DC5",
"k.	c #3E6CA8",
"l.	c #4D78AF",
"m.	c #AFC0D8",
"n.	c #E0E6F0",
"o.	c #DEE6F2",
"p.	c #CADAEC",
"q.	c #D4E0EF",
"r.	c #D3DFEE",
"s.	c #C3D6EA",
"t.	c #C2D6EA",
"u.	c #C8D8EB",
"v.	c #D2E0F2",
"w.	c #AFC5E4",
"x.	c #84A8D3",
"y.	c #D9E6F4",
"z.	c #E7EBF2",
"A.	c #CCDCEE",
"B.	c #C9DAED",
"C.	c #DEE6F1",
"D.	c #EFF0F5",
"E.	c #C3D4E6",
"F.	c #8EA8C8",
"G.	c #4873AB",
"H.	c #3767A5",
"I.	c #8AA2C3",
"J.	c #E2E3E8",
"K.	c #F1F1F5",
"L.	c #F1F1F6",
"M.	c #EEF0F5",
"N.	c #DBE4F0",
"O.	c #EBEDF4",
"P.	c #E4E9F3",
"Q.	c #E5EAF3",
"R.	c #C8D9EC",
"S.	c #C1D4EA",
"T.	c #C0D4EA",
"U.	c #BFD4E9",
"V.	c #BFD3E9",
"W.	c #BED3E9",
"X.	c #D5DFEE",
"Y.	c #D7E5F4",
"Z.	c #84A7D3",
"`.	c #5688C4",
" +	c #D1E0F2",
".+	c #D7E1EE",
"++	c #CCDBED",
"@+	c #C7D9EC",
"#+	c #CEDDED",
"$+	c #C5D7EB",
"%+	c #C4D7EB",
"&+	c #B4C7DB",
"*+	c #6184B1",
"=+	c #4571A9",
"-+	c #A5B4C9",
";+	c #DBE1EA",
">+	c #E2E8F2",
",+	c #D1DEEE",
"'+	c #C0D4E9",
")+	c #BDD2E9",
"!+	c #BDD2E8",
"~+	c #BCD1E8",
"{+	c #BCD2E8",
"]+	c #CBD9EC",
"^+	c #CFDFF2",
"/+	c #5383C2",
"(+	c #B9CBE5",
"_+	c #C3D6EB",
":+	c #DAE3F0",
"<+	c #DCE1EB",
"[+	c #91A3BE",
"}+	c #C7CAD2",
"|+	c #EEEEF3",
"1+	c #E0E7F1",
"2+	c #C7D8EB",
"3+	c #BBD1E8",
"4+	c #BAD0E8",
"5+	c #BAD0E7",
"6+	c #B9D0E7",
"7+	c #B9CFE7",
"8+	c #C1D4E9",
"9+	c #E0E8F2",
"0+	c #B8CBE7",
"a+	c #5B89C5",
"b+	c #D7E0EE",
"c+	c #C2D5EA",
"d+	c #C1D5EA",
"e+	c #CDDCEC",
"f+	c #DFE5F0",
"g+	c #E1E7F1",
"h+	c #D4DBE5",
"i+	c #C1C7D1",
"j+	c #BDC4CD",
"k+	c #B8CFE7",
"l+	c #B8CEE7",
"m+	c #B7CEE7",
"n+	c #B7CEE6",
"o+	c #B6CDE6",
"p+	c #B5CDE6",
"q+	c #C7D7EA",
"r+	c #D7E7F4",
"s+	c #2E3537",
"t+	c #2E3435",
"u+	c #313941",
"v+	c #454D54",
"w+	c #646A6E",
"x+	c #808890",
"y+	c #97A8B9",
"z+	c #BCD0E5",
"A+	c #EFEFF5",
"B+	c #F0F0F5",
"C+	c #ADAFB3",
"D+	c #7B7E82",
"E+	c #494E51",
"F+	c #32383A",
"G+	c #75797C",
"H+	c #C2C3C8",
"I+	c #F0F0F6",
"J+	c #CCDBEC",
"K+	c #C2D4E9",
"L+	c #E8EBF4",
"M+	c #DCE4F0",
"N+	c #CAD9EB",
"O+	c #B4CCE6",
"P+	c #B4CCE5",
"Q+	c #B3CBE5",
"R+	c #AFC9E4",
"S+	c #A0BEDF",
"T+	c #99B9DC",
"U+	c #DEE5F2",
"V+	c #B4C8E5",
"W+	c #4E80BF",
"X+	c #446998",
"Y+	c #747D84",
"Z+	c #3B4245",
"`+	c #2E3436",
" @	c #394145",
".@	c #6A7680",
"+@	c #9DB0C2",
"@@	c #CBDAEC",
"#@	c #E0E6F1",
"$@	c #DEE4EF",
"%@	c #ACB3BB",
"&@	c #6A7074",
"*@	c #33393C",
"=@	c #303638",
"-@	c #71787D",
";@	c #C9CFD9",
">@	c #C4D5E9",
",@	c #DEE5F1",
"'@	c #D2DDED",
")@	c #C8D8EA",
"!@	c #B5CCE6",
"~@	c #B0CAE4",
"{@	c #9EBDDE",
"]@	c #87ADD6",
"^@	c #74A1D0",
"/@	c #729FCF",
"(@	c #A6BFDE",
"_@	c #D9E5F4",
":@	c #4D7EBE",
"<@	c #739BCC",
"[@	c #E1EAF6",
"}@	c #D2DAE4",
"|@	c #7D8D9B",
"1@	c #40484B",
"2@	c #474F54",
"3@	c #9A9EA3",
"4@	c #95989C",
"5@	c #464B4D",
"6@	c #515558",
"7@	c #B8BABF",
"8@	c #E6E6EB",
"9@	c #EEEEF4",
"0@	c #EDEEF5",
"a@	c #C3D5E9",
"b@	c #CBD9EB",
"c@	c #EEEEF5",
"d@	c #E5E6F0",
"e@	c #C7D3E6",
"f@	c #94B3D7",
"g@	c #DFE9F5",
"h@	c #749ACC",
"i@	c #B0C5E2",
"j@	c #D9E3F1",
"k@	c #AEC4DB",
"l@	c #697783",
"m@	c #333A3C",
"n@	c #373D40",
"o@	c #83898F",
"p@	c #C7CDD6",
"q@	c #E1E6F1",
"r@	c #C1D3E8",
"s@	c #AFC8E4",
"t@	c #AEC8E4",
"u@	c #AEC8E3",
"v@	c #ADC7E3",
"w@	c #BCD1E7",
"x@	c #A7C2E0",
"y@	c #8FB1D7",
"z@	c #9DB8DA",
"A@	c #85AAD4",
"B@	c #75A1D0",
"C@	c #CEDCEE",
"D@	c #B1C6E2",
"E@	c #4E7EBD",
"F@	c #D1DDEE",
"G@	c #E9ECF3",
"H@	c #C6D6EA",
"I@	c #DAE3EE",
"J@	c #C5C9D1",
"K@	c #555C61",
"L@	c #54585B",
"M@	c #B9BABF",
"N@	c #E0E0E6",
"O@	c #CFDCEC",
"P@	c #ACC7E3",
"Q@	c #ACC6E3",
"R@	c #ABC6E2",
"S@	c #A4C1E0",
"T@	c #81AAD4",
"U@	c #80A7D3",
"V@	c #78A3D1",
"W@	c #9AB7D9",
"X@	c #7FA6D3",
"Y@	c #C8D5E8",
"Z@	c #D0DEEE",
"`@	c #4C7DBB",
" #	c #D3DDED",
".#	c #B2CAE5",
"+#	c #BED2E8",
"@#	c #DCE3EE",
"##	c #DDE4EF",
"$#	c #D9E0EC",
"%#	c #7C8187",
"&#	c #2F3537",
"*#	c #7D8288",
"=#	c #C9CFD8",
"-#	c #DCE1EC",
";#	c #E2E7F1",
">#	c #DAE2EF",
",#	c #AAC6E2",
"'#	c #A9C5E2",
")#	c #A9C4E2",
"!#	c #93B6DA",
"~#	c #7CA5D1",
"{#	c #ABC1DF",
"]#	c #90B1D7",
"^#	c #B0C3E0",
"/#	c #96B5D8",
"(#	c #B8CAE3",
"_#	c #DEE8F4",
":#	c #4678B8",
"<#	c #E8EFF8",
"[#	c #D9E1ED",
"}#	c #C9D8EA",
"|#	c #ECECF2",
"1#	c #DFE4EF",
"2#	c #ECECF3",
"3#	c #ACAEB2",
"4#	c #B4B5BA",
"5#	c #EDEDF4",
"6#	c #EDEDF5",
"7#	c #C9D7EB",
"8#	c #A7C3E1",
"9#	c #83ABD5",
"0#	c #8BAED6",
"a#	c #73A0CF",
"b#	c #C9D3E4",
"c#	c #E1E2ED",
"d#	c #E6EEF8",
"e#	c #4779B8",
"f#	c #4375B6",
"g#	c #E9F1F9",
"h#	c #D5DEEC",
"i#	c #B0C9E4",
"j#	c #BED1E7",
"k#	c #B9CEE5",
"l#	c #DDE3EF",
"m#	c #DEE3EF",
"n#	c #E0E5F0",
"o#	c #DFE4F0",
"p#	c #E2E6F1",
"q#	c #E3E6F1",
"r#	c #E2E7F2",
"s#	c #9BBBDD",
"t#	c #79A4D1",
"u#	c #78A3D0",
"v#	c #AEC3DF",
"w#	c #739FD0",
"x#	c #81A8D3",
"y#	c #BBCBE2",
"z#	c #BFCDE3",
"A#	c #E8F1F9",
"B#	c #4274B5",
"C#	c #EBF3FB",
"D#	c #EAEBF1",
"E#	c #E2E6EF",
"F#	c #C0D2E7",
"G#	c #B0C8E3",
"H#	c #EBEBF2",
"I#	c #90B4D9",
"J#	c #74A0D0",
"K#	c #BACAE3",
"L#	c #7EA6D2",
"M#	c #A1BBDC",
"N#	c #DEDFEB",
"O#	c #E1E1EC",
"P#	c #E1E2EC",
"Q#	c #EAF2FB",
"R#	c #4575B5",
"S#	c #EAF2F9",
"T#	c #D7DFEC",
"U#	c #D7E0EC",
"V#	c #D8E0ED",
"W#	c #D6DEED",
"X#	c #BED0E6",
"Y#	c #BBCEE6",
"Z#	c #DBE1EE",
"`#	c #B2C9E4",
" $	c #D3DCEC",
".$	c #D3DDEC",
"+$	c #E0E5EF",
"@$	c #E1E5F1",
"#$	c #E1E6F0",
"$$	c #E2E6F0",
"%$	c #E3E6F2",
"&$	c #E3E7F2",
"*$	c #E4E7F2",
"=$	c #B8CBE5",
"-$	c #84AAD4",
";$	c #9BB7DA",
">$	c #C4D0E5",
",$	c #C2CFE4",
"'$	c #C5D1E6",
")$	c #4575B6",
"!$	c #4978B7",
"~$	c #E8EFF7",
"{$	c #E9EAF1",
"]$	c #EAEAF0",
"^$	c #E9E9F1",
"/$	c #C9D7E9",
"($	c #C1D2E6",
"_$	c #A2BFDF",
":$	c #A0BFDF",
"<$	c #EBEBF3",
"[$	c #ECECF4",
"}$	c #EBEBF4",
"|$	c #E6E6F1",
"1$	c #E3E4EF",
"2$	c #95B4DA",
"3$	c #A2BCDB",
"4$	c #E2E2ED",
"5$	c #E4E5EF",
"6$	c #E8EEF7",
"7$	c #4979B6",
"8$	c #D9E3EF",
"9$	c #DCE3F0",
"0$	c #D6DEEC",
"a$	c #D8DFEC",
"b$	c #D9E0ED",
"c$	c #CED9EA",
"d$	c #9DBCDE",
"e$	c #AAC4E0",
"f$	c #C9D6E9",
"g$	c #E2E5F0",
"h$	c #E4E7F1",
"i$	c #E2E5F1",
"j$	c #DBDFED",
"k$	c #DCE0ED",
"l$	c #DBDFEE",
"m$	c #D6DCEE",
"n$	c #93B3D8",
"o$	c #ACC2E1",
"p$	c #BFCEE5",
"q$	c #B0C5E1",
"r$	c #87ACD5",
"s$	c #B9CAE2",
"t$	c #C6D2E5",
"u$	c #D5DEED",
"v$	c #D9E2F0",
"w$	c #4B7AB6",
"x$	c #4274B3",
"y$	c #E8E8EF",
"z$	c #E8E8F0",
"A$	c #E9E9F0",
"B$	c #BACDE5",
"C$	c #9ABADD",
"D$	c #9EBDDD",
"E$	c #DDE2EF",
"F$	c #EAEAF3",
"G$	c #E7E7F1",
"H$	c #E4E4EF",
"I$	c #E4E4F0",
"J$	c #E5E5F0",
"K$	c #E5E5F1",
"L$	c #E6E6F2",
"M$	c #ADC3E0",
"N$	c #A6BEDE",
"O$	c #EBEEF5",
"P$	c #B9C9E3",
"Q$	c #7699C7",
"R$	c #EFF2F8",
"S$	c #D4DCEA",
"T$	c #D6DDEB",
"U$	c #D7DEEC",
"V$	c #9BBADD",
"W$	c #98B9DC",
"X$	c #97B8DC",
"Y$	c #96B8DB",
"Z$	c #97B8DB",
"`$	c #ABC4E1",
" %	c #CED7E9",
".%	c #DEE0ED",
"+%	c #DEE0EF",
"@%	c #DFE1EF",
"#%	c #E0E2EF",
"$%	c #E0E2F0",
"%%	c #DFE1F0",
"&%	c #DEE1EF",
"*%	c #DCE0EF",
"=%	c #B6C9E2",
"-%	c #C8D2E7",
";%	c #C9D3E6",
">%	c #C8D2E6",
",%	c #C5D0E5",
"'%	c #ECF1F9",
")%	c #779AC6",
"!%	c #4373B1",
"~%	c #F1F4F8",
"{%	c #E7E7EF",
"]%	c #E7E7F0",
"^%	c #DBE0EC",
"/%	c #96B7DB",
"(%	c #95B7DB",
"_%	c #94B6DB",
":%	c #90B3D9",
"<%	c #81A9D4",
"[%	c #76A2D0",
"}%	c #79A4D2",
"|%	c #B8C9E3",
"1%	c #E7E7F3",
"2%	c #E7E7F2",
"3%	c #E5E6F1",
"4%	c #A5BEDD",
"5%	c #E2E2EE",
"6%	c #EFF3F9",
"7%	c #4373B2",
"8%	c #4472B1",
"9%	c #C1CFE4",
"0%	c #E6EAF2",
"a%	c #D3DCEA",
"b%	c #D4DCEB",
"c%	c #D5DDEA",
"d%	c #9FBCDD",
"e%	c #93B5DA",
"f%	c #92B5DA",
"g%	c #8DB2D8",
"h%	c #83AAD4",
"i%	c #79A3D1",
"j%	c #7AA4D2",
"k%	c #7CA6D2",
"l%	c #7DA7D3",
"m%	c #B6C8E3",
"n%	c #E4E5F0",
"o%	c #E6E7F1",
"p%	c #E4E6F1",
"q%	c #E2E4F1",
"r%	c #E0E3F0",
"s%	c #DEE2EF",
"t%	c #DBDEEE",
"u%	c #82A9D4",
"v%	c #9CB8DB",
"w%	c #CBD4E8",
"x%	c #C9D3E7",
"y%	c #C8D3E6",
"z%	c #527DB6",
"A%	c #F7F9FB",
"B%	c #E6E6EE",
"C%	c #E5E5EE",
"D%	c #E6E6EF",
"E%	c #CDD7E8",
"F%	c #8BB0D7",
"G%	c #83AAD5",
"H%	c #7BA5D2",
"I%	c #7FA8D4",
"J%	c #95B5D9",
"K%	c #E8E8F1",
"L%	c #E8E8F2",
"M%	c #E9E9F2",
"N%	c #E9E9F3",
"O%	c #E8E8F3",
"P%	c #9EBADB",
"Q%	c #739FCF",
"R%	c #A4BEDC",
"S%	c #E4E4EE",
"T%	c #F7F8FC",
"U%	c #537EB6",
"V%	c #4573B1",
"W%	c #C9D5E6",
"X%	c #E7EBF3",
"Y%	c #CCD5E6",
"Z%	c #CDD6E6",
"`%	c #CDD4E6",
" &	c #CDD5E6",
".&	c #9EB9DB",
"+&	c #7FA8D3",
"@&	c #84ABD5",
"#&	c #86ADD6",
"$&	c #A7C1DF",
"%&	c #E3E5F0",
"&&	c #E6E7F2",
"*&	c #E7E8F1",
"=&	c #E7E8F2",
"-&	c #E7E8F3",
";&	c #E5E6F2",
">&	c #E4E6F2",
",&	c #E1E4F0",
"'&	c #9BB7DB",
")&	c #CAD4E7",
"!&	c #E5EBF3",
"~&	c #CAD5E7",
"{&	c #4A77B3",
"]&	c #F7F8FA",
"^&	c #DFDFE9",
"/&	c #DFDFEA",
"(&	c #E1E1EB",
"_&	c #ADC2DE",
":&	c #82AAD4",
"<&	c #85ACD6",
"[&	c #88AED7",
"}&	c #ADC4E0",
"|&	c #EAEAF4",
"1&	c #88ADD6",
"2&	c #77A2D1",
"3&	c #B4C7E1",
"4&	c #E1E2EE",
"5&	c #F6F7FA",
"6&	c #89A4CB",
"7&	c #F7F8FB",
"8&	c #CBD5E6",
"9&	c #CAD3E5",
"0&	c #CED5E6",
"a&	c #C5D1E5",
"b&	c #80A9D4",
"c&	c #95B6DA",
"d&	c #CCD7EA",
"e&	c #E3E6F0",
"f&	c #E5E7F1",
"g&	c #E6E8F2",
"h&	c #E7E9F2",
"i&	c #E1E4F1",
"j&	c #DDE1EF",
"k&	c #9CBADC",
"l&	c #BCCBE3",
"m&	c #CBD5E7",
"n&	c #CDD7E9",
"o&	c #8AA5CC",
"p&	c #4270AC",
"q&	c #BFCDE1",
"r&	c #F7F7FA",
"s&	c #E0E0EA",
"t&	c #E0E0EB",
"u&	c #D1D8E7",
"v&	c #7EA7D3",
"w&	c #88AED6",
"x&	c #EAEAF2",
"y&	c #C3D1E7",
"z&	c #94B4D8",
"A&	c #E0E0EC",
"B&	c #E3E3EE",
"C&	c #F8F8FB",
"D&	c #C1CEE3",
"E&	c #4270AD",
"F&	c #3F6EAB",
"G&	c #D6DEEB",
"H&	c #F1F3F8",
"I&	c #CCD4E5",
"J&	c #CBD4E6",
"K&	c #CFD7E7",
"L&	c #88ADD5",
"M&	c #80A8D4",
"N&	c #A4BEDD",
"O&	c #DCE1ED",
"P&	c #DFE3EE",
"Q&	c #DFE3EF",
"R&	c #E0E4F0",
"S&	c #DFE3F0",
"T&	c #DBE0EE",
"U&	c #DADFED",
"V&	c #D1D9EB",
"W&	c #7DA6D3",
"X&	c #7AA4D1",
"Y&	c #AFC4DF",
"Z&	c #CDD6E8",
"`&	c #3E6DAA",
" *	c #F9F9FB",
".*	c #E3E3EC",
"+*	c #DFDFEB",
"@*	c #81A8D4",
"#*	c #C9D4E8",
"$*	c #E6E6F0",
"%*	c #87ACD6",
"&*	c #98B7DA",
"**	c #B7C8E1",
"=*	c #E5E5EF",
"-*	c #D4DDEA",
";*	c #3C6BA7",
">*	c #B7C7DE",
",*	c #FAFBFC",
"'*	c #D0DAEA",
")*	c #78A4D2",
"!*	c #7AA5D2",
"~*	c #7EA7D4",
"{*	c #BFCDE4",
"]*	c #D5DCEB",
"^*	c #D6DCEB",
"/*	c #D7DDEB",
"(*	c #D9DFEC",
"_*	c #DADEEC",
":*	c #DBE0ED",
"<*	c #DADFEE",
"[*	c #DADEED",
"}*	c #DAE0EC",
"|*	c #D8DEED",
"1*	c #D6DCEC",
"2*	c #D4DBEB",
"3*	c #D2D9EA",
"4*	c #C8D4E7",
"5*	c #CFD8E8",
"6*	c #FBFCFD",
"7*	c #B8C7DE",
"8*	c #3D6BA9",
"9*	c #3A66A1",
"0*	c #7796C0",
"a*	c #F5F7FA",
"b*	c #95B5D8",
"c*	c #ABC1DE",
"d*	c #E2E2EC",
"e*	c #7897C1",
"f*	c #3C68A1",
"g*	c #2C5486",
"h*	c #3E6BA8",
"i*	c #B8C6DE",
"j*	c #F9FAFC",
"k*	c #EDF1F7",
"l*	c #CED6E7",
"m*	c #CFD6E7",
"n*	c #D0D7E7",
"o*	c #D0D8E8",
"p*	c #D2D9E9",
"q*	c #D3DAEA",
"r*	c #D1D9E9",
"s*	c #D1D8E8",
"t*	c #D0D7E8",
"u*	c #CFD7E8",
"v*	c #DBE1ED",
"w*	c #EFF2F7",
"x*	c #FBFBFD",
"y*	c #B9C7DE",
"z*	c #355F94",
"A*	c #406DA9",
"B*	c #AEBFD8",
"C*	c #FCFCFD",
"D*	c #366094",
"E*	c #2D5384",
"F*	c #3C69A2",
"G*	c #567DB1",
"H*	c #A5BAD4",
"I*	c #EEF0F6",
"J*	c #FAFAFC",
"K*	c #FCFDFE",
"L*	c #FFFFFF",
"M*	c #FDFDFE",
"N*	c #3C69A3",
"O*	c #254975",
"P*	c #385F95",
"Q*	c #3E69A0",
"R*	c #3A68A5",
"S*	c #3867A5",
"T*	c #264976",
"                                                                                                ",
"                                                                                                ",
"                                        . + @ # $ # @ + .                                       ",
"                                  % & * = - ; > , > ; - = * & %                                 ",
"                            ' ) ! ~ { ] ^ / ( _ : < [ } ^ | > ~ ! ) '                           ",
"                          @ 1 ; 2 3 4 5 6 7 8 9 0 a b c c d e f 2 g 1 @                         ",
"                      # h i j / k } < l m n ] ] ] o k p q q q r r s t u h #                     ",
"                    v w x y z ( A r B e C D D D E F e e e B B B z G z H I w v                   ",
"                  J K L M N O 9 P Q R ( S T U V W X Y Z `  . .^ ..+.@.#.$.%.&.J                 ",
"                *.=.-.;.>.,.'.).!.~.{.B r ].^./.(._.:.B <.[.}.+.|.1.2.3.4.5.6.7.*.              ",
"              8.9.0.3.a.b.c.d.e.f.g.h.i.j.k.f.l.m.n. . .o.3 p.2.q.r.s.s.s.t.u.v.w.8.            ",
"              x.y.z.A.B.C.D.G E.F.G.f.f.f.H.I.J.K.[.L.M.N.O.G P.Q.R.S.T.U.V.W.X.Y.Z.            ",
"            `. +.+++@+@+2.#+2.$+%+&+*+f.=+-+;+>+3 3 3 W ,+p.$+'+S.W.W.)+!+~+~+{+]+^+`.          ",
"          /+(+>+N.%+%+_+_+s.s.R.:+H <+[+}+|+L.L.L.L.L.L.1+2+~+~+~+3+4+5+5+5+6+7+8+9+0+/+        ",
"          a+Y.b+_+c+c+d+S.T.U.T.e+3 1+f+g+g+h+i+j+h+y 1+5.5+6+6+5+k+l+m+m+n+o+p+p+q+r+a+        ",
"    s+t+u+v+w+x+y+z+W.W.W.)+2+A+B+B+J.C+D+E+F+G+H+I+B+J+m+K+L+M+N+~+n+p+O+P+Q+R+S+T+U+V+W+      ",
"        X+Y+Z+`+`+ @.@+@4+@@#@$@%@&@*@`+=@-@;@1+1+#@#@>@o+M+#@,@'@)@b+!@~@{@]@^@/@/@(@_@:@      ",
"        <@[@}@|@1@`+`+`+2@3@4@5@`+`+`+6@7@8@9@B+A+A+A+0@J+a@~+b@9@A+c@d@e@^@/@/@/@/@f@g@h@      ",
"        i@j@>@m+k@l@m@`+`+`+`+`+`+n@o@p@<+q@g+g+q@q@#@r@s@t@u@v@w@x@y@z@A@/@/@/@/@/@B@C@D@      ",
"      E@F@G@7+O+H@I@J@K@`+`+`+`+L@M@N@9@A+A+c@c@c@A+O@P@P@Q@R@S@T@/@/@/@U@V@/@/@W@X@/@Y@Z@E@    ",
"      `@g@ #.#+#@#@###$#%#&#=@*#=#-#n.q@q@;#q@q@q@>#,#'#)#)#!#B@/@/@/@/@~#{#/@/@]#^#/#(#_#`@    ",
"      :#<#[#s@}#|#1#|#2#2#3#4#8@5#5#5#5#5#6#c@c@9@7#8#8#S@9#/@/@/@/@/@/@/@{#0#/@/@a#b#c#d#e#    ",
"      f#g#h#i#i#j#k#@#l#$@$@m#n#o#n#q@p#;#p#q#r#r#r@S@s#t#/@/@/@/@/@/@/@/@u#v#w#/@x#y#z#A#f#    ",
"      B#C#D#E#F#'#G#h#H#2#|#H#2#2#2#2#2#5#5#6#6#5#G#I#J#/@/@/@/@/@/@/@/@/@/@K#L#M#N#O#P#Q#B#    ",
"      R#S#T#U#V#W#X#Y#Z#}#`# $.$+$@$#$p#$$%$&$*$&$=$/@/@/@/@/@/@/@/@/@/@/@/@x#-$;$>$,$'$g#)$    ",
"      !$~${$]$]$^${$/$($_$:$:$S+m#<$<$2#2#[$[$}$|$1$2$/@/@/@/@/@/@/@/@/@/@/@/@/@3$4$O#5$6$!$    ",
"      7$8$9$0$T#a$$#b$c${@{@{@d$e$f$g$q#*$h$i$j$k$l$m$n$o$p$q$r$/@/@/@/@/@/@/@/@s$t$>$u$v$w$    ",
"      x$s$0@y$z$A$A$A$B$s#s#C$C$C$D$E$<$F$G$H$I$J$K$K$L$L$L$L$M$/@/@/@/@/@/@/@N$4$4$O#O$P$x$    ",
"        Q$R$S$T$T$U$a$V$T+W$W$W$X$Y$Z$`$ %.%+%@%#%$%$%%%&%*%l$=%/@/@/@/@/@/@L#-%;%>%,%'%)%      ",
"        !%~%A${%{%]%^%/%/%(%(%(%_%:%<%[%}%|%K$K$|$L$L$1%2%2%L$3%/@/@/@/@/@/@4%5%4$4$5$6%7%      ",
"        8%9%0%a%b%T$c%d%e%e%f%g%h%i%j%k%l%m%n%3%G$o%3%p%q%r%s%t%u%a#/@/@/@/@v%w%x%y% .9%8%      ",
"          z%A%B%C%B%D%E%F%G%H%V@H%l%I%T@J%n%K%L%L%M%N%O%O%O%2%2%P%V@B@Q%/@/@R%5%4$S%T%U%        ",
"          V%W%X%Y%Z%`% &.&[%t#k%+&T@@&#&$&%&&&*&L%=&-&;&>&,&r%E$r$k%t#[%Q%/@'&)&;%!&~&V%        ",
"            {&]&C%^&/&/&(&_&H%+&:&<&[&F%}&M%N%F$F$|&F$F$F$F$L%L%1&+&H%V@2&3&4&4$K%5&{&          ",
"              6&7&8&b#9&0&a&l%b&@&]@F%c&d&e&f&g&h&h&g&h$i$i&r%j&k&b&l%j%V@l&m&n&A%o&            ",
"              p&q&r&s&/&t&u&v&<%@&w&d%G$^$M%<$<$[$}$<$<$F$x&M%K%y&<%v&j%z&A&B&C&D&E&            ",
"                F&G&H&I&J&K&L&M&9##&N&O&P&Q&R&$$q#$$@$R&S&E$T&U&V&M&W&X&Y&Z&H&U$F&              ",
"                  `&S$ *.*+*@*v&b&@&#*D%]%K%K%L%M%M%M%K%K%K%]%]%$*%*&***=* *-*`&                ",
"                    ;*>*,*'*)*!*~*{*]*^*/*(*_*:*:*<*[*}*(*|*1*2*3*4*5*l#6*7*8*                  ",
"                      9*0*a*s b*c*d*4$S%S%S%=*D%D%D%=*=*=*=*S%S%B&z$r&5&e*f*                    ",
"                        g*h*i*j*k*b$l*m*n*o*p*p*p*q*q*r*s*t*u*v*w*x*y*h*g*                      ",
"                            z*A*B*w*C*d 2#A$C%B&4$B&C%A$5#d C*w*m.A*D*                          ",
"                                E*F*G*H*a$I*J*K*L*M*J*{.a$H*G*N*E*                              ",
"                                      O*P*Q*R*S*f.S*R*Q*P*T*                                    ",
"                                                                                                ",
"                                                                                                ",
"                                                                                                ",
"                                                                                                "};
