/* XPM */
static char * ooo_impress_xpm[] = {
"48 48 726 2",
"  	c None",
". 	c #5386C7",
"+ 	c #5989C8",
"@ 	c #5688C8",
"# 	c #5486C8",
"$ 	c #5184C7",
"% 	c #5789C7",
"& 	c #6291CC",
"* 	c #99B7DE",
"= 	c #BCD1EA",
"- 	c #CADCEF",
"; 	c #D1E2F4",
"> 	c #D2E3F5",
", 	c #D2E4F6",
"' 	c #5385C6",
") 	c #5888C9",
"! 	c #9FBBE0",
"~ 	c #CCDCF0",
"{ 	c #D1E3F5",
"] 	c #D3E1F0",
"^ 	c #D9E4F1",
"/ 	c #DEE7F2",
"( 	c #E4EBF4",
"_ 	c #E7EDF5",
": 	c #EAEFF6",
"< 	c #E6ECF5",
"[ 	c #E3EAF3",
"} 	c #E0E9F3",
"| 	c #D4E2F1",
"1 	c #A7C1E3",
"2 	c #DDE8F4",
"3 	c #ECEEF5",
"4 	c #F4F5F8",
"5 	c #F5F5F8",
"6 	c #F4F4F8",
"7 	c #F4F4F7",
"8 	c #D1E3F4",
"9 	c #78A0D3",
"0 	c #CEDFF2",
"a 	c #D3E1F2",
"b 	c #E8EDF5",
"c 	c #E7ECF5",
"d 	c #E6ECF4",
"e 	c #E5ECF4",
"f 	c #E5EBF4",
"g 	c #DDE6F1",
"h 	c #D0E1F1",
"i 	c #CADDF1",
"j 	c #5386C5",
"k 	c #A6C0E1",
"l 	c #D3E4F5",
"m 	c #E9ECF4",
"n 	c #F3F3F7",
"o 	c #D3E5F5",
"p 	c #5587C6",
"q 	c #BACFE8",
"r 	c #C8D9EE",
"s 	c #C8D5E8",
"t 	c #D3DDEB",
"u 	c #E4EBF3",
"v 	c #E4EAF3",
"w 	c #E0E6F1",
"x 	c #BCCDE2",
"y 	c #A3B9D6",
"z 	c #B9C9E0",
"A 	c #E2E8F3",
"B 	c #E2E9F3",
"C 	c #E1E9F3",
"D 	c #E1E8F3",
"E 	c #E1E8F2",
"F 	c #DAE3F0",
"G 	c #D1E1F3",
"H 	c #BAD0E9",
"I 	c #5384C6",
"J 	c #BCD1E9",
"K 	c #C8D7EA",
"L 	c #AABDD7",
"M 	c #819EC6",
"N 	c #4571AB",
"O 	c #3A69A6",
"P 	c #6287B8",
"Q 	c #9EB4D3",
"R 	c #E1E6EF",
"S 	c #EBEDF3",
"T 	c #ACBED8",
"U 	c #698CBB",
"V 	c #3C6BA8",
"W 	c #6B8EBC",
"X 	c #C5D1E3",
"Y 	c #F3F3F6",
"Z 	c #F2F2F6",
"` 	c #F0F0F5",
" .	c #D9E5F3",
"..	c #BDD1EA",
"+.	c #5384C5",
"@.	c #AEC5E3",
"#.	c #D3E2F2",
"$.	c #DFE7F1",
"%.	c #E2E8F2",
"&.	c #DCE3ED",
"*.	c #A7BAD5",
"=.	c #5F84B6",
"-.	c #3465A4",
";.	c #3667A5",
">.	c #688CBA",
",.	c #A7BCD8",
"'.	c #7D9DC5",
").	c #3E6DA8",
"!.	c #4D78AF",
"~.	c #AFC0D8",
"{.	c #E0E6F0",
"].	c #E0E7F2",
"^.	c #DFE6F1",
"/.	c #D2E0F2",
"(.	c #AFC5E4",
"_.	c #84A8D3",
":.	c #D9E6F4",
"<.	c #EFF0F4",
"[.	c #ECECF0",
"}.	c #A9B8CF",
"|.	c #4C76AC",
"1.	c #3767A5",
"2.	c #8AA2C3",
"3.	c #E2E3E8",
"4.	c #F1F1F5",
"5.	c #F1F1F6",
"6.	c #EDEEF4",
"7.	c #D7E5F4",
"8.	c #84A7D3",
"9.	c #5688C4",
"0.	c #D1E0F2",
"a.	c #D7E1EE",
"b.	c #E2E9F2",
"c.	c #D0D6E2",
"d.	c #6586B2",
"e.	c #4571A9",
"f.	c #A5B4C9",
"g.	c #DBE1EA",
"h.	c #E1E7F2",
"i.	c #E0E7F1",
"j.	c #DEE6F1",
"k.	c #DDE5F1",
"l.	c #DDE5F0",
"m.	c #DCE4F0",
"n.	c #D4E0EE",
"o.	c #CFDFF2",
"p.	c #5383C2",
"q.	c #B9CBE5",
"r.	c #E8E8EE",
"s.	c #91A3BE",
"t.	c #C7CAD2",
"u.	c #EEEEF3",
"v.	c #F0F0F6",
"w.	c #EFEFF5",
"x.	c #EFEFF4",
"y.	c #E2EAF3",
"z.	c #B8CBE7",
"A.	c #5B89C5",
"B.	c #DAE2EF",
"C.	c #E1E8F1",
"D.	c #DFE5F0",
"E.	c #E1E7F1",
"F.	c #D4DBE5",
"G.	c #C1C7D1",
"H.	c #BDC4CD",
"I.	c #E0E6F2",
"J.	c #DEE5F0",
"K.	c #DBE3EF",
"L.	c #DAE3EF",
"M.	c #D9E2EF",
"N.	c #D7E0EE",
"O.	c #D7E7F4",
"P.	c #2E3537",
"Q.	c #2E3435",
"R.	c #313941",
"S.	c #454D54",
"T.	c #646A6E",
"U.	c #8D9093",
"V.	c #BBBDC1",
"W.	c #ECECF1",
"X.	c #F0F0F4",
"Y.	c #ADAFB3",
"Z.	c #7B7E82",
"`.	c #494E51",
" +	c #32383A",
".+	c #75797C",
"++	c #C2C3C8",
"@+	c #EEEEF4",
"#+	c #EDEDF4",
"$+	c #EAEAF1",
"%+	c #E6E6EE",
"&+	c #E0E6F3",
"*+	c #B4C8E5",
"=+	c #4E80BF",
"-+	c #446998",
";+	c #747D84",
">+	c #3B4245",
",+	c #2E3436",
"'+	c #3C4245",
")+	c #787E84",
"!+	c #B9C0C9",
"~+	c #DFE6F0",
"{+	c #DEE4EF",
"]+	c #ACB3BB",
"^+	c #6A7074",
"/+	c #33393C",
"(+	c #303638",
"_+	c #71787D",
":+	c #C9CFD9",
"<+	c #DEE5F1",
"[+	c #DDE4F0",
"}+	c #D2DCEB",
"|+	c #C6D2E6",
"1+	c #BCCBE2",
"2+	c #BBCBE2",
"3+	c #BECFE5",
"4+	c #D9E5F4",
"5+	c #4D7EBE",
"6+	c #739BCC",
"7+	c #E1EAF6",
"8+	c #E3E3E7",
"9+	c #9B9EA2",
"0+	c #464B4D",
"a+	c #4F5456",
"b+	c #9DA0A3",
"c+	c #95989C",
"d+	c #515558",
"e+	c #B8BABF",
"f+	c #E6E6EB",
"g+	c #969797",
"h+	c #555753",
"i+	c #8F9597",
"j+	c #749ACC",
"k+	c #B0C5E2",
"l+	c #D9E3F1",
"m+	c #DCE3EF",
"n+	c #D2D9E4",
"o+	c #7B8187",
"p+	c #353B3C",
"q+	c #373D40",
"r+	c #83898F",
"s+	c #C7CDD6",
"t+	c #DCE1EB",
"u+	c #E1E6F1",
"v+	c #585A57",
"w+	c #787977",
"x+	c #8A8A89",
"y+	c #757674",
"z+	c #B1C6E2",
"A+	c #4E7EBD",
"B+	c #D1DDEE",
"C+	c #E9ECF3",
"D+	c #EDEDF2",
"E+	c #EDEDF3",
"F+	c #CECED4",
"G+	c #5D6163",
"H+	c #54585B",
"I+	c #B9BABF",
"J+	c #E0E0E6",
"K+	c #60625F",
"L+	c #676866",
"M+	c #727272",
"N+	c #636462",
"O+	c #D0DEEE",
"P+	c #4C7DBB",
"Q+	c #DFE9F5",
"R+	c #D8E1EE",
"S+	c #DAE2EE",
"T+	c #DBE2EE",
"U+	c #DCE3EE",
"V+	c #DDE4EF",
"W+	c #D9E0EC",
"X+	c #7C8187",
"Y+	c #2F3537",
"Z+	c #7D8288",
"`+	c #C9CFD8",
" @	c #DCE1EC",
".@	c #E2E7F1",
"+@	c #8C8F92",
"@@	c #81878D",
"#@	c #DEE8F4",
"$@	c #4678B8",
"%@	c #E8EFF8",
"&@	c #EBECF2",
"*@	c #ECECF2",
"=@	c #ECECF3",
"-@	c #ACAEB2",
";@	c #B4B5BA",
">@	c #EDEDF5",
",@	c #E9E9F0",
"'@	c #7E807B",
")@	c #C0C0C0",
"!@	c #B5B5B4",
"~@	c #B4B4B3",
"{@	c #B7B7B7",
"]@	c #BCBCBB",
"^@	c #C0C0BF",
"/@	c #C4C4C3",
"(@	c #C7C7C6",
"_@	c #C9C9C8",
":@	c #CACAC9",
"<@	c #CCCCCB",
"[@	c #CDCDCC",
"}@	c #CFCFCE",
"|@	c #DCDCDC",
"1@	c #898A85",
"2@	c #DDDEE8",
"3@	c #E6EEF8",
"4@	c #4779B8",
"5@	c #4375B6",
"6@	c #E9F1F9",
"7@	c #D7E0EC",
"8@	c #D8E0ED",
"9@	c #D9E1ED",
"0@	c #DAE1EE",
"a@	c #DDE3EF",
"b@	c #DEE3EF",
"c@	c #E0E5F0",
"d@	c #DFE4F0",
"e@	c #E2E6F1",
"f@	c #E3E6F1",
"g@	c #888A85",
"h@	c #D5D5D5",
"i@	c #D7D7D5",
"j@	c #E3E3E1",
"k@	c #EAEAE8",
"l@	c #EEEEEC",
"m@	c #FEFEFE",
"n@	c #939692",
"o@	c #BFCDE3",
"p@	c #E8F1F9",
"q@	c #4274B5",
"r@	c #EBF3FB",
"s@	c #EAEBF1",
"t@	c #EBEBF1",
"u@	c #EBEBF2",
"v@	c #E6E6E6",
"w@	c #EDEDEB",
"x@	c #E8D9D7",
"y@	c #C56968",
"z@	c #B22C2B",
"A@	c #A70909",
"B@	c #AF2221",
"C@	c #BD5251",
"D@	c #DFBFBE",
"E@	c #E1E1DF",
"F@	c #C1C1C0",
"G@	c #959792",
"H@	c #E1E2EC",
"I@	c #EAF2FB",
"J@	c #4575B5",
"K@	c #EAF2F9",
"L@	c #D7DFEC",
"M@	c #D9E0ED",
"N@	c #DAE1ED",
"O@	c #DBE1EE",
"P@	c #DFE4EF",
"Q@	c #E0E5EF",
"R@	c #E1E5F1",
"S@	c #E1E6F0",
"T@	c #E2E6F0",
"U@	c #E3E6F2",
"V@	c #E3E7F2",
"W@	c #FDFDFD",
"X@	c #EFEFED",
"Y@	c #E2C8C6",
"Z@	c #AA1515",
"`@	c #C03D3B",
" #	c #E37875",
".#	c #EC807F",
"+#	c #E47A77",
"@#	c #CA534F",
"##	c #A80808",
"$#	c #D59C9B",
"%#	c #E2E2E0",
"&#	c #E7E7E6",
"*#	c #949692",
"=#	c #C5D1E6",
"-#	c #4575B6",
";#	c #4978B7",
">#	c #E8EFF7",
",#	c #E9EAF1",
"'#	c #EAEAF0",
")#	c #E9E9F1",
"!#	c #EAEAF2",
"~#	c #EBEBF3",
"{#	c #ECECF4",
"]#	c #B43333",
"^#	c #D0524F",
"/#	c #F47474",
"(#	c #F47676",
"_#	c #F57A7A",
":#	c #F57E7E",
"<#	c #E0716F",
"[#	c #A90D0D",
"}#	c #E7D9D8",
"|#	c #D9D9D8",
"1#	c #E4E5EF",
"2#	c #E8EEF7",
"3#	c #4979B6",
"4#	c #D9E3EF",
"5#	c #DCE3F0",
"6#	c #D6DEEC",
"7#	c #D8DFEC",
"8#	c #DCE1ED",
"9#	c #DCE1EE",
"0#	c #DCE2EE",
"a#	c #DEE3EE",
"b#	c #E0E4EF",
"c#	c #E1E5F0",
"d#	c #E2E5F0",
"e#	c #E4E7F2",
"f#	c #E4E7F1",
"g#	c #DDE0EB",
"h#	c #8D908B",
"i#	c #E8D9D8",
"j#	c #AA1110",
"k#	c #F37676",
"l#	c #F36060",
"m#	c #F36262",
"n#	c #D77769",
"o#	c #A589A6",
"p#	c #A68AA7",
"q#	c #B098B2",
"r#	c #AA535A",
"s#	c #D49998",
"t#	c #E4E4E2",
"u#	c #CBCBC9",
"v#	c #DBDBD9",
"w#	c #D5DEED",
"x#	c #D9E2F0",
"y#	c #4B7AB6",
"z#	c #4274B3",
"A#	c #B9CAE2",
"B#	c #EDEEF5",
"C#	c #E8E8EF",
"D#	c #E8E8F0",
"E#	c #EAEAF3",
"F#	c #E7E7F1",
"G#	c #DFDFE9",
"H#	c #8E908B",
"I#	c #E2C5C3",
"J#	c #AF201F",
"K#	c #F47979",
"L#	c #F25050",
"M#	c #F25353",
"N#	c #AB9A34",
"O#	c #7E9EB3",
"P#	c #729FCF",
"Q#	c #88ADD5",
"R#	c #956067",
"S#	c #D08C8B",
"T#	c #EBEEF5",
"U#	c #B9C9E3",
"V#	c #7699C7",
"W#	c #EFF2F8",
"X#	c #D4DCEA",
"Y#	c #D6DDEB",
"Z#	c #D7DEEC",
"`#	c #D9DFEC",
" $	c #DBE1ED",
".$	c #DDE2EE",
"+$	c #DEE2EF",
"@$	c #E1E4EF",
"#$	c #DDE0ED",
"$$	c #DEE0ED",
"%$	c #D9DBE9",
"&$	c #E9DCDA",
"*$	c #A40202",
"=$	c #E49A97",
"-$	c #F57D7D",
";$	c #F25757",
">$	c #92B828",
",$	c #9AA964",
"'$	c #94B6DA",
")$	c #B6B6C7",
"!$	c #93201E",
"~$	c #D49B9A",
"{$	c #C7C7C5",
"]$	c #ECF1F9",
"^$	c #779AC6",
"/$	c #4373B1",
"($	c #F1F4F8",
"_$	c #E7E7EF",
":$	c #E7E7F0",
"<$	c #E8E8F1",
"[$	c #E5E5F0",
"}$	c #E4E4EE",
"|$	c #E4E4F0",
"1$	c #E0E0EB",
"2$	c #B73C3B",
"3$	c #AB2D29",
"4$	c #D79892",
"5$	c #F0B6B3",
"6$	c #CEE9A9",
"7$	c #D3E0AD",
"8$	c #AEB1BD",
"9$	c #644C4E",
"0$	c #A80E0E",
"a$	c #E9DDDB",
"b$	c #E8E8E6",
"c$	c #DCDCDA",
"d$	c #E5E5E3",
"e$	c #EFF3F9",
"f$	c #4373B2",
"g$	c #4472B1",
"h$	c #C1CFE4",
"i$	c #E6EAF2",
"j$	c #D3DCEA",
"k$	c #D4DCEB",
"l$	c #D6DDEA",
"m$	c #D9DFEB",
"n$	c #D9DEEC",
"o$	c #DBDFEC",
"p$	c #DCE0ED",
"q$	c #DBDFED",
"r$	c #DADEEC",
"s$	c #DEE0EC",
"t$	c #E0E2ED",
"u$	c #E1E3F0",
"v$	c #DFE0EA",
"w$	c #E4CECD",
"x$	c #AD1D1D",
"y$	c #A3110E",
"z$	c #9A402E",
"A$	c #938948",
"B$	c #7F6632",
"C$	c #682424",
"D$	c #A60707",
"E$	c #D8A7A6",
"F$	c #E9E9E7",
"G$	c #DFDFDD",
"H$	c #E7E7E5",
"I$	c #8F918C",
"J$	c #527DB6",
"K$	c #F7F9FB",
"L$	c #E5E5EE",
"M$	c #E6E6EF",
"N$	c #E5E5EF",
"O$	c #E4E4ED",
"P$	c #E3E3ED",
"Q$	c #E2E2ED",
"R$	c #E6E6F0",
"S$	c #E2E2EB",
"T$	c #EAE0DE",
"U$	c #C97776",
"V$	c #AC1919",
"W$	c #B3302F",
"X$	c #C26160",
"Y$	c #E3CBC9",
"Z$	c #C4C4C2",
"`$	c #D8D8D6",
" %	c #537EB6",
".%	c #4573B1",
"+%	c #C9D5E6",
"@%	c #E7EBF3",
"#%	c #CCD5E6",
"$%	c #CDD6E6",
"%%	c #CDD4E6",
"&%	c #CDD5E6",
"*%	c #D0D6E7",
"=%	c #D3DAE9",
"-%	c #D5DBE9",
";%	c #D8DCEA",
">%	c #DEE1EE",
",%	c #DFE3EE",
"'%	c #E2E4EF",
")%	c #E3E5F0",
"!%	c #E0E1EC",
"~%	c #4A77B3",
"{%	c #F7F8FA",
"]%	c #DFDFEA",
"^%	c #E1E1EB",
"/%	c #E1E1EC",
"(%	c #E3E3EC",
"_%	c #E9E9F2",
":%	c #89A4CB",
"<%	c #F7F8FB",
"[%	c #CBD5E6",
"}%	c #C9D3E4",
"|%	c #CAD3E5",
"1%	c #CED5E6",
"2%	c #D1D7E7",
"3%	c #D4DAE9",
"4%	c #D7DCEA",
"5%	c #D8DDEA",
"6%	c #DADFEC",
"7%	c #E0E3EF",
"8%	c #E3E6F0",
"9%	c #E0E1EB",
"0%	c #F0F0EE",
"a%	c #DADAD9",
"b%	c #FFFFFF",
"c%	c #4270AC",
"d%	c #BFCDE1",
"e%	c #F7F7FA",
"f%	c #E0E0EA",
"g%	c #E2E2EC",
"h%	c #E5E5ED",
"i%	c #8F908C",
"j%	c #3F6EAB",
"k%	c #D6DEEB",
"l%	c #F1F3F8",
"m%	c #CCD4E5",
"n%	c #CBD4E6",
"o%	c #D0D7E7",
"p%	c #D1D8E8",
"q%	c #D6DBEB",
"r%	c #D9DEEB",
"s%	c #DADFEB",
"t%	c #DFE3EF",
"u%	c #DBDFEA",
"v%	c #80827D",
"w%	c #81837F",
"x%	c #8B8D88",
"y%	c #8E908C",
"z%	c #898D8A",
"A%	c #3E6DAA",
"B%	c #F9F9FB",
"C%	c #E8E8F2",
"D%	c #8E8F91",
"E%	c #727371",
"F%	c #5B5D5A",
"G%	c #9B9CA0",
"H%	c #E3E3EE",
"I%	c #D4DDEA",
"J%	c #3C6BA7",
"K%	c #B7C7DE",
"L%	c #FAFBFC",
"M%	c #DBE0ED",
"N%	c #CFD7E7",
"O%	c #D0D7E8",
"P%	c #D3D9E8",
"Q%	c #D5DCEB",
"R%	c #D6DCEB",
"S%	c #D7DDEB",
"T%	c #DADFEE",
"U%	c #DADEED",
"V%	c #DAE0EC",
"W%	c #D8DEED",
"X%	c #C4C9D7",
"Y%	c #656765",
"Z%	c #FCFCFC",
"`%	c #AEAEAE",
" &	c #5C5F5B",
".&	c #D5DBE6",
"+&	c #FBFCFD",
"@&	c #B8C7DE",
"#&	c #3D6BA9",
"$&	c #3A66A1",
"%&	c #7796C0",
"&&	c #F5F7FA",
"*&	c #F6F6F9",
"=&	c #BFBFC6",
"-&	c #5A5C58",
";&	c #999999",
">&	c #818181",
",&	c #595B57",
"'&	c #DFE0E2",
")&	c #7897C1",
"!&	c #3C68A1",
"~&	c #2C5486",
"{&	c #3E6BA8",
"]&	c #B8C6DE",
"^&	c #F9FAFC",
"/&	c #EEF1F7",
"(&	c #CED6E7",
"_&	c #CFD6E7",
":&	c #D0D8E8",
"<&	c #D2D9E9",
"[&	c #D3DAEA",
"}&	c #D1D9E9",
"|&	c #A6ACB5",
"1&	c #696C6A",
"2&	c #5B5D59",
"3&	c #616564",
"4&	c #53585C",
"5&	c #395577",
"6&	c #355F94",
"7&	c #406DA9",
"8&	c #AEBFD8",
"9&	c #EFF2F7",
"0&	c #FCFCFD",
"a&	c #E6E6ED",
"b&	c #98999A",
"c&	c #565854",
"d&	c #A8A9A8",
"e&	c #EEF1F6",
"f&	c #AABAD0",
"g&	c #416CA3",
"h&	c #386091",
"i&	c #4E5150",
"j&	c #545652",
"k&	c #2D5384",
"l&	c #3C69A2",
"m&	c #567DB1",
"n&	c #A5BAD4",
"o&	c #EEF0F6",
"p&	c #FAFAFC",
"q&	c #FCFDFE",
"r&	c #F9F9FA",
"s&	c #E2E2E4",
"t&	c #747674",
"u&	c #585B58",
"v&	c #8491A2",
"w&	c #4E72A1",
"x&	c #365E94",
"y&	c #254670",
"z&	c #424340",
"A&	c #4F514E",
"B&	c #464744",
"C&	c #254975",
"D&	c #385F95",
"E&	c #3E69A0",
"F&	c #3A68A5",
"G&	c #3765A2",
"H&	c #32619E",
"I&	c #396192",
"J&	c #4C5153",
"K&	c #495157",
"L&	c #365178",
"M&	c #1D395C",
"N&	c #4B4E49",
"O&	c #484A47",
"P&	c #3F413D",
"Q&	c #4A4C48",
"                                                                                                ",
"                                                                                                ",
"                                        . + @ # $ # @ + .                                       ",
"                                  % & * = - ; > , > ; - = * & %                                 ",
"                            ' ) ! ~ { ] ^ / ( _ : < [ } ^ | > ~ ! ) '                           ",
"                          @ 1 ; 2 3 4 5 5 5 5 5 5 5 5 5 5 6 7 3 2 8 1 @                         ",
"                      # 9 0 a / b _ b b _ _ _ c c < d d e e e f f g h i 9 #                     ",
"                    j k l m 7 6 7 7 7 7 6 7 7 7 7 7 7 7 7 n n n n n n m o k j                   ",
"                  p q r s t [ e f f f ( u v v v w x y z A B B B B C D E F G H p                 ",
"                I J K L M N O P Q R n n n S T U V W X n Y Z Z Z Z Z Z Z Z `  ...I               ",
"              +.@.#.$.B %.&.*.=.-.;.>.,.'.).-.!.~.{.B B %.E E ].].^.$.^.^.g F /.(.+.            ",
"              _.:.<.Z Z Z Z Z [.}.|.-.-.-.1.2.3.4.Z 5.Z Z Z Z 5.5.5.5.5.5.` ` 6.7.8.            ",
"            9.0.a.E E E %.%.%.%.b.c.d.-.e.f.g.%.E E E h.h.].i.].$.^.j.k.l.m.m.m.n.o.9.          ",
"          p.q.%.4.4.4.4.4.4.5.5.4.5.r.s.t.u.5.5.5.5.5.5.5.v.v.` ` ` ` ` ` ` w.w.x.y.z.p.        ",
"          A.7.B.i.$.i.i.i.i.i.i.h.E C.D.E.E.F.G.H.F.h.i.w I.^.^.^.J.k.m.m.m.K.L.M.N.O.A.        ",
"    P.Q.R.S.T.U.V.W.X.X.` ` ` ` ` ` 3.Y.Z.`. +.+++v.` ` ` ` ` w.w.w.w.w.x.@+@+#+$+%+&+*+=+      ",
"        -+;+>+,+,+'+)+!+~+{.w {+]+^+/+,+(+_+:+i.i.w w w w i.w <+[+J.[+m.K.}+|+1+2+z 3+4+5+      ",
"        6+7+8+9+0+,+,+,+a+b+c+0+,+,+,+d+e+f+g+h+h+h+h+h+h+h+h+h+h+h+h+h+h+h+h+h+h+h+h+i+j+      ",
"        k+l+m+m+n+o+p+,+,+,+,+,+,+q+r+s+t+u+v+w+x+x+x+x+x+x+x+x+x+x+x+x+x+x+x+x+x+x+y+h+z+      ",
"      A+B+C+D+E+E+E+F+G+,+,+,+,+H+I+J+@+w.w.K+L+M+M+M+M+M+M+M+M+M+M+M+M+M+M+M+M+M+M+N+h+O+A+    ",
"      P+Q+R+S+T+U+U+V+W+X+Y+(+Z+`+ @{.u+u+.@+@h+h+h+h+h+h+h+h+h+h+h+h+h+h+h+h+h+h+h+h+@@#@P+    ",
"      $@%@&@*@*@*@*@*@=@=@-@;@f+#+#+#+#+#+>@,@'@)@!@~@~@~@{@]@^@/@(@_@:@<@[@}@}@}@|@1@2@3@4@    ",
"      5@6@7@8@9@0@T+U+a@{+{+b@c@d@c@u+e@.@e@f@g@h@:@i@j@k@l@l@l@l@l@l@l@l@l@l@l@l@m@n@o@p@5@    ",
"      q@r@s@$+t@t@t@u@u@=@*@u@=@=@=@=@=@#+#+>@g@v@w@l@x@y@z@A@B@C@D@l@l@E@F@F@F@i@m@G@H@I@q@    ",
"      J@K@L@7@8@M@N@O@O@a@a@{+P@Q@R@S@e@T@U@V@g@W@X@Y@Z@`@ #.#+#@###$#l@k@%#%#%#&#m@*#=#6@-#    ",
"      ;#>#,#'#'#)#$+$+$+!#!#u@u@~#~#~#=@=@{#{#g@m@X@]#^#/#/#(#_#:#<#[#}#&#|#|#|#j@m@G@1#2#;#    ",
"      3#4#5#6#L@7#W+M@8#9#0#a#b@b#c#d#f@e#f#g#h#m@i#j#k#l#m#n#o#p#q#r#s#t#u#u#u#v#m@*#w#x#y#    ",
"      z#A#B#C#D#,@,@,@,@)#)#$+$+!#!#E#~#E#F#G#H#m@I#J#K#L#M#N#O#P#Q#R#S#l@l@l@l@l@m@G@T#U#z#    ",
"        V#W#X#Y#Y#Z#7#`#N@ $.$+$P@@$d#b##$$$%$H#m@&$*$=$-$;$>$,$'$)$!$~$j@{${${$|#m@*#]$^$      ",
"        /$($,@_$_$:$_$C#D#D#)#<$)#<$[$}$|$[$1$H#m@X@2$3$4$5$6$7$8$9$0$a$b$c$c$c$d$m@G@e$f$      ",
"        g$h$i$j$k$Y#l$m$n$o$8#p$q$r$r$s$t$u$v$H#m@X@w$x$y$z$A$B$C$D$E$l@F$G$G$G$H$m@I$h$g$      ",
"          J$K$%+L$%+M$_$N$O$P$Q$}$}$N$R$R$F#S$H#m@X@l@T$U$2$V$W$X$Y$l@l@%#Z$Z$Z$`$m@I$ %        ",
"          .%+%@%#%$%%%&%&%*%=%-%;%o$>%,%'%)%!%H#m@X@l@l@l@l@l@l@l@l@l@l@l@l@l@l@l@m@I$.%        ",
"            ~%{%L$G#]%]%^%/%(%}$}$M$:$F#<$_%P$H#m@X@v#u#u#u#u#u#u#u#u#u#u#u#u#u#v#m@I$          ",
"              :%<%[%}%|%1%2%3%4%5%6%>%7%@$8%9%H#m@0%t#a%a%a%a%a%a%a%a%a%a%a%a%a%t#b%I$          ",
"              c%d%e%f%]%1$g%P$O$L$M$:$<$)#_%h%H#b%m@m@m@m@m@m@m@m@m@m@m@m@W@W@W@W@b%i%          ",
"                j%k%l%m%n%o%p%3%q%r%s%8#,%t%u%g@g@g@g@g@g@g@g@g@v%w%g@g@x%y%I$y%z%x%g@          ",
"                  A%X#B%(%1$g%P$P$L$N$M$:$<$<$C%_%_%_%<$<$<$:$D%E%F%G%H%N$B%I%A%                ",
"                    J%K%L%M%$%N%O%P%Q%R%S%`#r$M%M%T%U%V%`#W%X%Y%Z%`% &.&+&@&#&                  ",
"                      $&%&&&*&%+/%g%Q$}$}$}$N$M$M$M$N$N$N$N$=&-&;&>&,&'&)&!&                    ",
"                        ~&{&]&^&/&M@(&_&o%:&<&<&<&[&[&}&p%|&F%1&2&2&3&4&5&                      ",
"                            6&7&8&9&0&6 =@,@L$H%Q$H%L$a&b&c&d&e&f&g&h&i&j&                      ",
"                                k&l&m&n&7#o&p&q&b%r&s&t&u&v&w&x&y&      z&A&B&                  ",
"                                      C&D&E&F&G&H&I&J&K&L&M&                N&O&                ",
"                                                    P&                        Q&                ",
"                                                                                                ",
"                                                                                                ",
"                                                                                                "};
