/* XPM */
static char * ooo_template_xpm[] = {
"48 48 660 2",
"  	c None",
". 	c #5386C7",
"+ 	c #5989C8",
"@ 	c #5688C8",
"# 	c #5486C8",
"$ 	c #5184C7",
"% 	c #5789C7",
"& 	c #6291CC",
"* 	c #99B7DE",
"= 	c #BCD1EA",
"- 	c #CADCEF",
"; 	c #D1E2F4",
"> 	c #D2E3F5",
", 	c #D2E4F6",
"' 	c #5385C6",
") 	c #5888C9",
"! 	c #9FBBE0",
"~ 	c #CCDCF0",
"{ 	c #D1E3F5",
"] 	c #D3E1F0",
"^ 	c #D9E4F1",
"/ 	c #DEE7F2",
"( 	c #E4EBF4",
"_ 	c #E7EDF5",
": 	c #EAEFF6",
"< 	c #E6ECF5",
"[ 	c #E3EAF3",
"} 	c #E0E9F3",
"| 	c #D4E2F1",
"1 	c #A7C1E3",
"2 	c #DDE8F4",
"3 	c #ECEEF5",
"4 	c #F4F5F8",
"5 	c #F5F5F8",
"6 	c #F4F4F8",
"7 	c #F4F4F7",
"8 	c #D1E3F4",
"9 	c #78A0D3",
"0 	c #CEDFF2",
"a 	c #D3E1F2",
"b 	c #E8EDF5",
"c 	c #E7ECF5",
"d 	c #E6ECF4",
"e 	c #E5ECF4",
"f 	c #E5EBF4",
"g 	c #DDE6F1",
"h 	c #D0E1F1",
"i 	c #CADDF1",
"j 	c #5386C5",
"k 	c #A6C0E1",
"l 	c #D3E4F5",
"m 	c #E9ECF4",
"n 	c #F3F3F7",
"o 	c #D3E5F5",
"p 	c #5587C6",
"q 	c #BACFE8",
"r 	c #C8D9EE",
"s 	c #C8D5E8",
"t 	c #D3DDEB",
"u 	c #E4EBF3",
"v 	c #E4EAF3",
"w 	c #E0E6F1",
"x 	c #BCCDE2",
"y 	c #A3B9D6",
"z 	c #B9C9E0",
"A 	c #E2E8F3",
"B 	c #E2E9F3",
"C 	c #E1E9F3",
"D 	c #E1E8F3",
"E 	c #E1E8F2",
"F 	c #DAE3F0",
"G 	c #D1E1F3",
"H 	c #BAD0E9",
"I 	c #5384C6",
"J 	c #BCD1E9",
"K 	c #C8D7EA",
"L 	c #AABDD7",
"M 	c #819EC6",
"N 	c #4571AB",
"O 	c #3A69A6",
"P 	c #6287B8",
"Q 	c #9EB4D3",
"R 	c #E1E6EF",
"S 	c #EBEDF3",
"T 	c #ACBED8",
"U 	c #698CBB",
"V 	c #3C6BA8",
"W 	c #6B8EBC",
"X 	c #C5D1E3",
"Y 	c #F3F3F6",
"Z 	c #F2F2F6",
"` 	c #F0F0F5",
" .	c #D9E5F3",
"..	c #BDD1EA",
"+.	c #5384C5",
"@.	c #AEC5E3",
"#.	c #D3E2F2",
"$.	c #DFE7F1",
"%.	c #E2E8F2",
"&.	c #DCE3ED",
"*.	c #A7BAD5",
"=.	c #5F84B6",
"-.	c #3465A4",
";.	c #3667A5",
">.	c #688CBA",
",.	c #A7BCD8",
"'.	c #7D9DC5",
").	c #3E6DA8",
"!.	c #4D78AF",
"~.	c #AFC0D8",
"{.	c #E0E6F0",
"].	c #E0E7F2",
"^.	c #DFE6F1",
"/.	c #D2E0F2",
"(.	c #AFC5E4",
"_.	c #84A8D3",
":.	c #D9E6F4",
"<.	c #EFF0F4",
"[.	c #ECECF0",
"}.	c #A9B8CF",
"|.	c #4C76AC",
"1.	c #3767A5",
"2.	c #8AA2C3",
"3.	c #E2E3E8",
"4.	c #F1F1F5",
"5.	c #F1F1F6",
"6.	c #EDEEF4",
"7.	c #D7E5F4",
"8.	c #84A7D3",
"9.	c #5688C4",
"0.	c #D1E0F2",
"a.	c #D7E1EE",
"b.	c #E2E9F2",
"c.	c #D0D6E2",
"d.	c #6586B2",
"e.	c #4571A9",
"f.	c #A5B4C9",
"g.	c #DBE1EA",
"h.	c #E1E7F2",
"i.	c #E0E7F1",
"j.	c #DEE6F1",
"k.	c #DDE5F1",
"l.	c #DDE5F0",
"m.	c #DCE4F0",
"n.	c #D4E0EE",
"o.	c #CFDFF2",
"p.	c #5383C2",
"q.	c #B9CBE5",
"r.	c #E8E8EE",
"s.	c #91A3BE",
"t.	c #C7CAD2",
"u.	c #EEEEF3",
"v.	c #F0F0F6",
"w.	c #EFEFF5",
"x.	c #EFEFF4",
"y.	c #E2EAF3",
"z.	c #B8CBE7",
"A.	c #5B89C5",
"B.	c #DAE2EF",
"C.	c #E1E8F1",
"D.	c #DFE5F0",
"E.	c #E1E7F1",
"F.	c #D4DBE5",
"G.	c #C1C7D1",
"H.	c #BDC4CD",
"I.	c #E0E6F2",
"J.	c #DEE5F0",
"K.	c #DBE3EF",
"L.	c #DAE3EF",
"M.	c #D9E2EF",
"N.	c #D7E0EE",
"O.	c #D7E7F4",
"P.	c #2E3537",
"Q.	c #2E3435",
"R.	c #313941",
"S.	c #454D54",
"T.	c #646A6E",
"U.	c #8D9093",
"V.	c #BBBDC1",
"W.	c #ECECF1",
"X.	c #F0F0F4",
"Y.	c #ADAFB3",
"Z.	c #7B7E82",
"`.	c #494E51",
" +	c #32383A",
".+	c #75797C",
"++	c #C2C3C8",
"@+	c #EEEEF4",
"#+	c #EDEDF4",
"$+	c #EAEAF1",
"%+	c #E6E6EE",
"&+	c #E0E6F3",
"*+	c #B4C8E5",
"=+	c #4E80BF",
"-+	c #446998",
";+	c #747D84",
">+	c #3B4245",
",+	c #2E3436",
"'+	c #3C4245",
")+	c #787E84",
"!+	c #B9C0C9",
"~+	c #DFE6F0",
"{+	c #DEE4EF",
"]+	c #ACB3BB",
"^+	c #6A7074",
"/+	c #33393C",
"(+	c #303638",
"_+	c #71787D",
":+	c #C9CFD9",
"<+	c #DEE5F1",
"[+	c #DDE4F0",
"}+	c #D2DCEB",
"|+	c #C6D2E6",
"1+	c #BCCBE2",
"2+	c #BBCBE2",
"3+	c #BECFE5",
"4+	c #D9E5F4",
"5+	c #4D7EBE",
"6+	c #739BCC",
"7+	c #E1EAF6",
"8+	c #E3E3E7",
"9+	c #9B9EA2",
"0+	c #464B4D",
"a+	c #4F5456",
"b+	c #9DA0A3",
"c+	c #95989C",
"d+	c #515558",
"e+	c #B8BABF",
"f+	c #E6E6EB",
"g+	c #EEEEF5",
"h+	c #E9E9F1",
"i+	c #E3E3ED",
"j+	c #E1E1EC",
"k+	c #E0E0EB",
"l+	c #E0E0EA",
"m+	c #DFE9F5",
"n+	c #749ACC",
"o+	c #B0C5E2",
"p+	c #D9E3F1",
"q+	c #DCE3EF",
"r+	c #D2D9E4",
"s+	c #7B8187",
"t+	c #353B3C",
"u+	c #373D40",
"v+	c #83898F",
"w+	c #C7CDD6",
"x+	c #DCE1EB",
"y+	c #E1E6F1",
"z+	c #DFE5F1",
"A+	c #D5DDED",
"B+	c #C8D3E7",
"C+	c #C4D0E5",
"D+	c #C1CEE4",
"E+	c #C2CFE4",
"F+	c #C0CDE3",
"G+	c #BFCCE3",
"H+	c #BECCE2",
"I+	c #BCCBE3",
"J+	c #BBCAE2",
"K+	c #D1DEEF",
"L+	c #B1C6E2",
"M+	c #4E7EBD",
"N+	c #D1DDEE",
"O+	c #E9ECF3",
"P+	c #EDEDF2",
"Q+	c #EDEDF3",
"R+	c #CECED4",
"S+	c #5D6163",
"T+	c #54585B",
"U+	c #B9BABF",
"V+	c #E0E0E6",
"W+	c #C9C9CA",
"X+	c #AFB0AD",
"Y+	c #AEAFAC",
"Z+	c #B0B1AE",
"`+	c #B0B2AE",
" @	c #B1B2AF",
".@	c #B2B3B0",
"+@	c #B3B4B1",
"@@	c #B4B5B2",
"#@	c #B5B6B3",
"$@	c #C1C7CC",
"%@	c #4C7DBB",
"&@	c #D8E1EE",
"*@	c #DAE2EE",
"=@	c #DBE2EE",
"-@	c #DCE3EE",
";@	c #DDE4EF",
">@	c #D9E0EC",
",@	c #7C8187",
"'@	c #2F3537",
")@	c #7D8288",
"!@	c #C9CFD8",
"~@	c #DCE1EC",
"{@	c #ABACA9",
"]@	c #FFFFFF",
"^@	c #FEFEFE",
"/@	c #FBFBFB",
"(@	c #FCFCFC",
"_@	c #FDFDFD",
":@	c #4678B8",
"<@	c #E8EFF8",
"[@	c #EBECF2",
"}@	c #ECECF2",
"|@	c #ECECF3",
"1@	c #ACAEB2",
"2@	c #B4B5BA",
"3@	c #A7A8A4",
"4@	c #C5C7C5",
"5@	c #B9BBB9",
"6@	c #BABCBB",
"7@	c #C2C3C1",
"8@	c #C9CAC9",
"9@	c #D2D3D1",
"0@	c #D9DAD8",
"a@	c #EAEAE8",
"b@	c #A0A29E",
"c@	c #F4F4F3",
"d@	c #FDFDFC",
"e@	c #4779B8",
"f@	c #4375B6",
"g@	c #E9F1F9",
"h@	c #D7E0EC",
"i@	c #D8E0ED",
"j@	c #D9E1ED",
"k@	c #DAE1EE",
"l@	c #DDE3EF",
"m@	c #DEE3EF",
"n@	c #E0E5F0",
"o@	c #DFE4F0",
"p@	c #E2E6F1",
"q@	c #A3A5A1",
"r@	c #BDBEBE",
"s@	c #C5C6C5",
"t@	c #CCCDCC",
"u@	c #D3D4D3",
"v@	c #DEDEDD",
"w@	c #EEEEEC",
"x@	c #FBFBFA",
"y@	c #4274B5",
"z@	c #EBF3FB",
"A@	c #EAEBF1",
"B@	c #EBEBF1",
"C@	c #EBEBF2",
"D@	c #C0C1C1",
"E@	c #C7C8C8",
"F@	c #CFD0CF",
"G@	c #D6D6D5",
"H@	c #E6E6E4",
"I@	c #EDEDEB",
"J@	c #ECECEA",
"K@	c #F5F5F4",
"L@	c #4575B5",
"M@	c #EAF2F9",
"N@	c #D7DFEC",
"O@	c #D9E0ED",
"P@	c #DAE1ED",
"Q@	c #DBE1EE",
"R@	c #DFE4EF",
"S@	c #E0E5EF",
"T@	c #E1E5F1",
"U@	c #E1E6F0",
"V@	c #9D9F9B",
"W@	c #BABCBA",
"X@	c #C1C3C2",
"Y@	c #C9CBCA",
"Z@	c #D8D9D7",
"`@	c #E9E9E7",
" #	c #EBEBE9",
".#	c #ECECE9",
"+#	c #FAFAF9",
"@#	c #ADAEAA",
"##	c #4575B6",
"$#	c #4978B7",
"%#	c #E8EFF7",
"&#	c #E9EAF1",
"*#	c #EAEAF0",
"=#	c #EAEAF2",
"-#	c #EBEBF3",
";#	c #9A9C97",
">#	c #C4C6C4",
",#	c #B8BAB8",
"'#	c #BEBFBE",
")#	c #C4C5C3",
"!#	c #CBCCCB",
"~#	c #DFE0DE",
"{#	c #9FA19D",
"]#	c #EBEBE8",
"^#	c #F6F6F5",
"/#	c #FAFAFA",
"(#	c #FEFEFD",
"_#	c #A9ABA7",
":#	c #4979B6",
"<#	c #D9E3EF",
"[#	c #DCE3F0",
"}#	c #D6DEEC",
"|#	c #D8DFEC",
"1#	c #DCE1ED",
"2#	c #DCE1EE",
"3#	c #DCE2EE",
"4#	c #DEE3EE",
"5#	c #E0E4EF",
"6#	c #E1E5F0",
"7#	c #E2E5F0",
"8#	c #E3E6F1",
"9#	c #979894",
"0#	c #C3C5C3",
"a#	c #B7B9B8",
"b#	c #BFC0C0",
"c#	c #C7C8C6",
"d#	c #CDCECC",
"e#	c #D4D5D4",
"f#	c #E6E6E5",
"g#	c #F3F3F1",
"h#	c #F2F2F1",
"i#	c #F2F2F0",
"j#	c #EFEFED",
"k#	c #F8F8F8",
"l#	c #A6A8A4",
"m#	c #4B7AB6",
"n#	c #4274B3",
"o#	c #B9CAE2",
"p#	c #EDEEF5",
"q#	c #E8E8EF",
"r#	c #E8E8F0",
"s#	c #E9E9F0",
"t#	c #EAEAF3",
"u#	c #939591",
"v#	c #B6B8B7",
"w#	c #BABBBB",
"x#	c #C1C2C2",
"y#	c #C9CAC8",
"z#	c #D0D1CF",
"A#	c #D9D9D7",
"B#	c #EAEAE7",
"C#	c #F9F9F8",
"D#	c #A3A4A1",
"E#	c #7699C7",
"F#	c #EFF2F8",
"G#	c #D4DCEA",
"H#	c #D6DDEB",
"I#	c #D7DEEC",
"J#	c #D9DFEC",
"K#	c #DBE1ED",
"L#	c #DDE2EE",
"M#	c #DEE2EF",
"N#	c #E1E4EF",
"O#	c #90928D",
"P#	c #C2C4C3",
"Q#	c #B6B8B6",
"R#	c #BBBDBC",
"S#	c #C3C4C3",
"T#	c #D3D4D1",
"U#	c #E1E1DF",
"V#	c #E9E9E6",
"W#	c #E8E8E5",
"X#	c #E8E8E6",
"Y#	c #F0F0EE",
"Z#	c #F7F7F6",
"`#	c #F9F9F9",
" $	c #FCFCFB",
".$	c #A0A19D",
"+$	c #4373B1",
"@$	c #F1F4F8",
"#$	c #E7E7EF",
"$$	c #E7E7F0",
"%$	c #E8E8F1",
"&$	c #E5E5F0",
"*$	c #E4E4EE",
"=$	c #8D8F8A",
"-$	c #B7B9B7",
";$	c #BFC0BE",
">$	c #E4E5E3",
",$	c #E7E7E5",
"'$	c #E7E7E4",
")$	c #9D9E9A",
"!$	c #4472B1",
"~$	c #C1CFE4",
"{$	c #E6EAF2",
"]$	c #D3DCEA",
"^$	c #D4DCEB",
"/$	c #D6DDEA",
"($	c #D9DFEB",
"_$	c #D9DEEC",
":$	c #DBDFEC",
"<$	c #DCE0ED",
"[$	c #DBDFED",
"}$	c #DADEEC",
"|$	c #DEE0EC",
"1$	c #8A8C87",
"2$	c #C1C3C1",
"3$	c #BABBBA",
"4$	c #C1C2C0",
"5$	c #C8C9C7",
"6$	c #CECFCD",
"7$	c #DBDBD9",
"8$	c #A0A19C",
"9$	c #F8F8F7",
"0$	c #999B97",
"a$	c #527DB6",
"b$	c #F7F9FB",
"c$	c #E5E5EE",
"d$	c #E6E6EF",
"e$	c #E5E5EF",
"f$	c #E4E4ED",
"g$	c #E2E2ED",
"h$	c #E6E6F0",
"i$	c #888A85",
"j$	c #C1C3C0",
"k$	c #BBBDBB",
"l$	c #C3C4C2",
"m$	c #CACBC9",
"n$	c #D2D2D0",
"o$	c #E6E6E3",
"p$	c #F3F3F2",
"q$	c #969894",
"r$	c #4573B1",
"s$	c #C9D5E6",
"t$	c #E7EBF3",
"u$	c #CCD5E6",
"v$	c #CDD6E6",
"w$	c #CDD4E6",
"x$	c #CDD5E6",
"y$	c #D0D6E7",
"z$	c #D3DAE9",
"A$	c #D5DBE9",
"B$	c #D8DCEA",
"C$	c #DEE1EE",
"D$	c #DFE3EE",
"E$	c #C2C4C1",
"F$	c #BCBEBD",
"G$	c #C5C6C4",
"H$	c #CCCDCA",
"I$	c #D5D6D4",
"J$	c #E4E4E2",
"K$	c #E5E5E2",
"L$	c #E4E4E1",
"M$	c #939590",
"N$	c #4A77B3",
"O$	c #F7F8FA",
"P$	c #DFDFE9",
"Q$	c #DFDFEA",
"R$	c #E1E1EB",
"S$	c #E3E3EC",
"T$	c #E7E7F1",
"U$	c #C0C1BF",
"V$	c #C6C7C6",
"W$	c #DBDCDA",
"X$	c #E5E5E3",
"Y$	c #9FA19C",
"Z$	c #E3E3E0",
"`$	c #F1F1EF",
" %	c #F4F4F2",
".%	c #89A4CB",
"+%	c #F7F8FB",
"@%	c #CBD5E6",
"#%	c #C9D3E4",
"$%	c #CAD3E5",
"%%	c #CED5E6",
"&%	c #D1D7E7",
"*%	c #D4DAE9",
"=%	c #D7DCEA",
"-%	c #D8DDEA",
";%	c #DADFEC",
">%	c #E0E3EF",
",%	c #C9CAC7",
"'%	c #CFD0CE",
")%	c #E1E1DE",
"!%	c #EEEEED",
"~%	c #E2E2E0",
"{%	c #F1F1F0",
"]%	c #8D8E8A",
"^%	c #4270AC",
"/%	c #BFCDE1",
"(%	c #F7F7FA",
"_%	c #E2E2EC",
":%	c #CBCCCA",
"<%	c #D6D6D4",
"[%	c #E2E2DF",
"}%	c #9FA09C",
"|%	c #F5F5F3",
"1%	c #898B86",
"2%	c #3F6EAB",
"3%	c #D6DEEB",
"4%	c #F1F3F8",
"5%	c #CCD4E5",
"6%	c #CBD4E6",
"7%	c #D0D7E7",
"8%	c #D1D8E8",
"9%	c #D6DBEB",
"0%	c #D9DEEB",
"a%	c #DADFEB",
"b%	c #C7C7C6",
"c%	c #C6C7C5",
"d%	c #DEDEDB",
"e%	c #E4E4E0",
"f%	c #3E6DAA",
"g%	c #F9F9FB",
"h%	c #CACBC8",
"i%	c #D0D1CE",
"j%	c #E2E2DE",
"k%	c #9EA09C",
"l%	c #E1E1DD",
"m%	c #E0E0DD",
"n%	c #E0E0DC",
"o%	c #EFEFEE",
"p%	c #3C6BA7",
"q%	c #B7C7DE",
"r%	c #FAFBFC",
"s%	c #DBE0ED",
"t%	c #CFD7E7",
"u%	c #D0D7E8",
"v%	c #D3D9E8",
"w%	c #D5DCEB",
"x%	c #D6DCEB",
"y%	c #D7D7D4",
"z%	c #EDEDEA",
"A%	c #DFDFDC",
"B%	c #ECECEB",
"C%	c #3A66A1",
"D%	c #7796C0",
"E%	c #F5F7FA",
"F%	c #F6F6F9",
"G%	c #CCCDCB",
"H%	c #CDCDCB",
"I%	c #DEDEDA",
"J%	c #DFDFDB",
"K%	c #2C5486",
"L%	c #3E6BA8",
"M%	c #B8C6DE",
"N%	c #F9FAFC",
"O%	c #EEF1F7",
"P%	c #CED6E7",
"Q%	c #CFD6E7",
"R%	c #D1D2CF",
"S%	c #DDDDDA",
"T%	c #9EA09B",
"U%	c #355F94",
"V%	c #406DA9",
"W%	c #AEBFD8",
"X%	c #EFF2F7",
"Y%	c #FCFCFD",
"Z%	c #CECECB",
"`%	c #D8D8D5",
" &	c #DDDDD9",
".&	c #E9E9E8",
"+&	c #2D5384",
"@&	c #3C69A2",
"#&	c #567DB1",
"$&	c #A5BAD4",
"%&	c #D1D1CD",
"&&	c #DCDCD9",
"*&	c #DCDCD8",
"=&	c #DBDBD8",
"-&	c #DBDBD7",
";&	c #254975",
">&	c #DADAD7",
",&	c #F0F0EF",
"'&	c #858883",
")&	c #8F928C",
"                                                                                                ",
"                                                                                                ",
"                                        . + @ # $ # @ + .                                       ",
"                                  % & * = - ; > , > ; - = * & %                                 ",
"                            ' ) ! ~ { ] ^ / ( _ : < [ } ^ | > ~ ! ) '                           ",
"                          @ 1 ; 2 3 4 5 5 5 5 5 5 5 5 5 5 6 7 3 2 8 1 @                         ",
"                      # 9 0 a / b _ b b _ _ _ c c < d d e e e f f g h i 9 #                     ",
"                    j k l m 7 6 7 7 7 7 6 7 7 7 7 7 7 7 7 n n n n n n m o k j                   ",
"                  p q r s t [ e f f f ( u v v v w x y z A B B B B C D E F G H p                 ",
"                I J K L M N O P Q R n n n S T U V W X n Y Z Z Z Z Z Z Z Z `  ...I               ",
"              +.@.#.$.B %.&.*.=.-.;.>.,.'.).-.!.~.{.B B %.E E ].].^.$.^.^.g F /.(.+.            ",
"              _.:.<.Z Z Z Z Z [.}.|.-.-.-.1.2.3.4.Z 5.Z Z Z Z 5.5.5.5.5.5.` ` 6.7.8.            ",
"            9.0.a.E E E %.%.%.%.b.c.d.-.e.f.g.%.E E E h.h.].i.].$.^.j.k.l.m.m.m.n.o.9.          ",
"          p.q.%.4.4.4.4.4.4.5.5.4.5.r.s.t.u.5.5.5.5.5.5.5.v.v.` ` ` ` ` ` ` w.w.x.y.z.p.        ",
"          A.7.B.i.$.i.i.i.i.i.i.h.E C.D.E.E.F.G.H.F.h.i.w I.^.^.^.J.k.m.m.m.K.L.M.N.O.A.        ",
"    P.Q.R.S.T.U.V.W.X.X.` ` ` ` ` ` 3.Y.Z.`. +.+++v.` ` ` ` ` w.w.w.w.w.x.@+@+#+$+%+&+*+=+      ",
"        -+;+>+,+,+'+)+!+~+{.w {+]+^+/+,+(+_+:+i.i.w w w w i.w <+[+J.[+m.K.}+|+1+2+z 3+4+5+      ",
"        6+7+8+9+0+,+,+,+a+b+c+0+,+,+,+d+e+f+@+` w.w.w.w.w.w.w.w.w.w.g+h+i+j+j+k+k+k+l+m+n+      ",
"        o+p+q+q+r+s+t+,+,+,+,+,+,+u+v+w+x+y+E.E.y+y+y+y+w z+z+J.J.A+B+C+D+E+F+G+H+I+J+K+L+      ",
"      M+N+O+P+Q+Q+Q+R+S+,+,+,+,+T+U+V+@+W+X+Y+X+Z+`+ @.@.@+@@@@@@@@@@@@@@@@@@@@@@@@@@@#@$@M+    ",
"      %@m+&@*@=@-@-@;@>@,@'@(+)@!@~@{.y+{@]@]@]@]@^@/@(@(@_@_@^@^@]@]@]@]@]@]@]@]@]@]@]@#@%@    ",
"      :@<@[@}@}@}@}@}@|@|@1@2@f+#+#+#+#+3@]@4@5@5@5@6@7@8@9@0@a@b@c@d@^@]@]@]@]@]@]@^@]@@@e@    ",
"      f@g@h@i@j@k@=@-@l@{+{+m@n@o@n@y+p@q@]@4@5@5@5@r@s@t@u@v@w@c@w@x@_@]@]@]@]@]@]@^@]@+@f@    ",
"      y@z@A@$+B@B@B@C@C@|@}@C@|@|@|@|@|@b@]@4@5@5@5@D@E@F@G@H@I@I@J@K@/@_@]@]@]@]@]@^@]@Z+y@    ",
"      L@M@N@h@i@O@P@Q@Q@l@l@{+R@S@T@U@p@V@]@4@5@5@W@X@Y@9@Z@`@J@ #.#I@+#(@^@]@]@]@]@]@^@@###    ",
"      $#%#&#*#*#h+$+$+$+=#=#C@C@-#-#-#|@;#]@>#,#,#'#)#!#u@~#{# #{#]#{#^#/#(@^@]@]@]@]@(#_#$#    ",
"      :#<#[#}#N@|#>@O@1#2#3#4#m@5#6#7#8#9#]@0#a#a#b#c#d#e#f#g#a@h#a@i#j#k#x@d@]@]@]@]@_@l#m#    ",
"      n#o#p#q#r#s#s#s#s#h+h+$+$+=#=#t#-#u#]@0#v#w#x#y#z#A#a@a@B#`@`@`@B#^#C#/@_@]@]@]@(@D#n#    ",
"        E#F#G#H#H#I#|#J#P@K#L#M#R@N#7#5#O#]@P#Q#R#S#!#T#U#`@`@V#W#X#X#W#Y#Z#`# $^@]@]@/@.$      ",
"        +$@$s##$#$$$#$q#r#r#h+%$h+%$&$*$=$]@X@-$;$s@t@e#>$V#X#W#{#W#,$'$,$K@Z#+#(@]@]@/#)$      ",
"        !$~${$]$^$H#/$($_$:$1#<$[$}$}$|$1$]@2$3$4$5$6$7$.$W#,$,$Y#'$'$H@8$Y#K@9$/#d@]@+#0$      ",
"          a$b$%+c$%+d$#$e$f$i+g$*$*$e$h$i$]@j$k$l$m$n$U#Y#'$'$H@o$o$o$o$w@`@p$^#9$x@_@C#q$      ",
"          r$s$t$u$v$w$x$x$y$z$A$B$:$C$D$i$]@E$F$G$H$I$o$H@o$o$o$J$K$K$K$J$L$Y#p$^#C#/@9$M$      ",
"            N$O$c$P$Q$Q$R$j+S$*$*$d$$$T$i$^@)#U$V$d#W$o$X$K$K$K$Y$L$L$L$L$Z$`@`$ %^#C#Z#O#      ",
"              .%+%@%#%$%%%&%*%=%-%;%C$>%i$(#G$7@,%'%)%K$K$J$L$L$!%L$Z$Z$Z$Z$~%!%{%c@Z#^#]%      ",
"              ^%/%(%l+Q$k+_%i+f$c$d$$$%$i$_@G$)#:%<%8$L$L$L$Z$Z$Z$Z$[%[%[%[%}%`@j#i#|%c@1%      ",
"                2%3%4%5%6%7%8%*%9%0%a%1#i$(@b%c%d#d%w@Z$Z$Z$Z$[%)%[%[%)%)%)%.#e%J@j#h#p$i$      ",
"                  f%G#g%S$k+_%i+i+c$e$d$i$/@h%c#i%[%Z$[%[%[%[%j%k%)%)%l%m%m%m%n%V#J@o%h#i$      ",
"                    p%q%r%s%v$t%u%v%w%x%i$/#:%h%y%[%[%[%)%)%)%l%z%m%m%n%n%A%A%A%Z$B#B%`$i$      ",
"                      C%D%E%F%%+j+_%g$*$i$`#G%H%I%)%)%)%l%m%m%m%n%n%A%A%J%J%d%d%I%'$`@Y#i$      ",
"                        K%L%M%N%O%O@P%Q%i$9$G%R%k%l%m%m%n%n%A%A%d%J%J%d%I%I%I%S%T%j%'$!%i$      ",
"                            U%V%W%X%Y%6 i$Z#Z%`%J@n%n%A%A%J%J%d%T%I%I%S%S% & & &.& &L$I@i$      ",
"                                +&@&#&$&i$^#%&S%A%J%J%J%d%I%I%I%a@ & & &&&*&*&*&=&-&n%J@i$      ",
"                                      ;&i$K@y%J%d%d%I%I%S%S% & & &&&*&*&*&=&-&-&-&>&=&a@i$      ",
"                                        1%p${%p$g#h#i#{%`$,&o%j#j#w@I@I@z%J@ #]#a@a@`@X#1%      ",
"                                        '&1%i$i$i$i$i$i$i$i$i$i$i$i$i$i$i$i$i$i$i$i$i$1%)&      ",
"                                                                                                ",
"                                                                                                "};
