/* XPM */
static char * ooo_draw_xpm[] = {
"48 48 826 2",
"  	c None",
". 	c #5386C7",
"+ 	c #5989C8",
"@ 	c #5688C8",
"# 	c #5486C8",
"$ 	c #5184C7",
"% 	c #5789C7",
"& 	c #6291CC",
"* 	c #99B7DE",
"= 	c #BCD1EA",
"- 	c #CADCEF",
"; 	c #D1E2F4",
"> 	c #D2E3F5",
", 	c #D2E4F6",
"' 	c #5385C6",
") 	c #5888C9",
"! 	c #9FBBE0",
"~ 	c #CCDCF0",
"{ 	c #D1E3F5",
"] 	c #D3E1F0",
"^ 	c #D9E4F1",
"/ 	c #DEE7F2",
"( 	c #E4EBF4",
"_ 	c #E7EDF5",
": 	c #EAEFF6",
"< 	c #E6ECF5",
"[ 	c #E3EAF3",
"} 	c #E0E9F3",
"| 	c #D4E2F1",
"1 	c #A7C1E3",
"2 	c #DDE8F4",
"3 	c #ECEEF5",
"4 	c #F4F5F8",
"5 	c #F5F5F8",
"6 	c #F4F4F8",
"7 	c #F4F4F7",
"8 	c #D1E3F4",
"9 	c #78A0D3",
"0 	c #CEDFF2",
"a 	c #D3E1F2",
"b 	c #E8EDF5",
"c 	c #E7ECF5",
"d 	c #E6ECF4",
"e 	c #E5ECF4",
"f 	c #E5EBF4",
"g 	c #DDE6F1",
"h 	c #D0E1F1",
"i 	c #CADDF1",
"j 	c #5386C5",
"k 	c #A6C0E1",
"l 	c #D3E4F5",
"m 	c #E9ECF4",
"n 	c #F3F3F7",
"o 	c #D3E5F5",
"p 	c #5587C6",
"q 	c #BACFE8",
"r 	c #C8D9EE",
"s 	c #C8D5E8",
"t 	c #D3DDEB",
"u 	c #E4EBF3",
"v 	c #E4EAF3",
"w 	c #E0E6F1",
"x 	c #BCCDE2",
"y 	c #A3B9D6",
"z 	c #B9C9E0",
"A 	c #E2E8F3",
"B 	c #E2E9F3",
"C 	c #E1E9F3",
"D 	c #E1E8F3",
"E 	c #E1E8F2",
"F 	c #DAE3F0",
"G 	c #D1E1F3",
"H 	c #BAD0E9",
"I 	c #5384C6",
"J 	c #BCD1E9",
"K 	c #C8D7EA",
"L 	c #AABDD7",
"M 	c #819EC6",
"N 	c #4571AB",
"O 	c #3A69A6",
"P 	c #6287B8",
"Q 	c #9EB4D3",
"R 	c #E1E6EF",
"S 	c #EBEDF3",
"T 	c #ACBED8",
"U 	c #698CBB",
"V 	c #3C6BA8",
"W 	c #6B8EBC",
"X 	c #C5D1E3",
"Y 	c #F3F3F6",
"Z 	c #F2F2F6",
"` 	c #F0F0F5",
" .	c #D9E5F3",
"..	c #BDD1EA",
"+.	c #5384C5",
"@.	c #AEC5E3",
"#.	c #D3E2F2",
"$.	c #DFE7F1",
"%.	c #E2E8F2",
"&.	c #DCE3ED",
"*.	c #A7BAD5",
"=.	c #5F84B6",
"-.	c #3465A4",
";.	c #3667A5",
">.	c #688CBA",
",.	c #A7BCD8",
"'.	c #7D9DC5",
").	c #3E6DA8",
"!.	c #4D78AF",
"~.	c #AFC0D8",
"{.	c #E0E6F0",
"].	c #E0E7F2",
"^.	c #DFE6F1",
"/.	c #D2E0F2",
"(.	c #AFC5E4",
"_.	c #84A8D3",
":.	c #D9E6F4",
"<.	c #EFF0F4",
"[.	c #ECECF0",
"}.	c #A9B8CF",
"|.	c #4C76AC",
"1.	c #3767A5",
"2.	c #8AA2C3",
"3.	c #E2E3E8",
"4.	c #F1F1F5",
"5.	c #F1F1F6",
"6.	c #EDEEF4",
"7.	c #D7E5F4",
"8.	c #84A7D3",
"9.	c #5688C4",
"0.	c #D1E0F2",
"a.	c #D7E1EE",
"b.	c #E2E9F2",
"c.	c #D0D6E2",
"d.	c #6586B2",
"e.	c #4571A9",
"f.	c #A5B4C9",
"g.	c #DBE1EA",
"h.	c #E1E7F2",
"i.	c #E0E7F1",
"j.	c #DEE6F1",
"k.	c #DDE5F1",
"l.	c #DDE5F0",
"m.	c #DCE4F0",
"n.	c #D4E0EE",
"o.	c #CFDFF2",
"p.	c #5383C2",
"q.	c #B9CBE5",
"r.	c #E8E8EE",
"s.	c #91A3BE",
"t.	c #C7CAD2",
"u.	c #EEEEF3",
"v.	c #F0F0F6",
"w.	c #EFEFF5",
"x.	c #EFEFF4",
"y.	c #E2EAF3",
"z.	c #B8CBE7",
"A.	c #5B89C5",
"B.	c #DAE2EF",
"C.	c #E1E8F1",
"D.	c #DFE5F0",
"E.	c #E1E7F1",
"F.	c #D4DBE5",
"G.	c #C1C7D1",
"H.	c #BDC4CD",
"I.	c #BFBAB8",
"J.	c #8B6640",
"K.	c #BDB4AC",
"L.	c #E0E6F2",
"M.	c #DEE5F0",
"N.	c #DBE3EF",
"O.	c #DAE3EF",
"P.	c #D9E2EF",
"Q.	c #D7E0EE",
"R.	c #D7E7F4",
"S.	c #2E3537",
"T.	c #2E3435",
"U.	c #313941",
"V.	c #454D54",
"W.	c #646A6E",
"X.	c #8D9093",
"Y.	c #BBBDC1",
"Z.	c #ECECF1",
"`.	c #F0F0F4",
" +	c #ADAFB3",
".+	c #7B7E82",
"++	c #494E51",
"@+	c #32383A",
"#+	c #75797C",
"$+	c #C2C3C8",
"%+	c #9A7959",
"&+	c #965815",
"*+	c #714311",
"=+	c #DED8D5",
"-+	c #EEEEF4",
";+	c #EDEDF4",
">+	c #EAEAF1",
",+	c #E6E6EE",
"'+	c #E0E6F3",
")+	c #B4C8E5",
"!+	c #4E80BF",
"~+	c #446998",
"{+	c #747D84",
"]+	c #3B4245",
"^+	c #2E3436",
"/+	c #3C4245",
"(+	c #787E84",
"_+	c #B9C0C9",
":+	c #DFE6F0",
"<+	c #DEE4EF",
"[+	c #ACB3BB",
"}+	c #6A7074",
"|+	c #33393C",
"1+	c #303638",
"2+	c #71787D",
"3+	c #C9CFD9",
"4+	c #B4A89D",
"5+	c #8A5216",
"6+	c #AA5F10",
"7+	c #815A31",
"8+	c #DEE5EE",
"9+	c #DEE5F1",
"0+	c #DDE4F0",
"a+	c #D2DCEB",
"b+	c #C6D2E6",
"c+	c #BCCBE2",
"d+	c #BBCBE2",
"e+	c #BECFE5",
"f+	c #D9E5F4",
"g+	c #4D7EBE",
"h+	c #739BCC",
"i+	c #E1EAF6",
"j+	c #E3E3E7",
"k+	c #9B9EA2",
"l+	c #464B4D",
"m+	c #4F5456",
"n+	c #9DA0A3",
"o+	c #95989C",
"p+	c #515558",
"q+	c #B8BABF",
"r+	c #E6E6EB",
"s+	c #E8E6E9",
"t+	c #6E400F",
"u+	c #E07B11",
"v+	c #864E13",
"w+	c #AA9179",
"x+	c #EEEEF5",
"y+	c #E9E9F1",
"z+	c #E3E3ED",
"A+	c #E1E1EC",
"B+	c #E0E0EB",
"C+	c #E0E0EA",
"D+	c #DFE9F5",
"E+	c #749ACC",
"F+	c #B0C5E2",
"G+	c #D9E3F1",
"H+	c #DCE3EF",
"I+	c #D2D9E4",
"J+	c #7B8187",
"K+	c #353B3C",
"L+	c #373D40",
"M+	c #83898F",
"N+	c #C7CDD6",
"O+	c #DCE1EB",
"P+	c #E1E6F1",
"Q+	c #8C6B48",
"R+	c #AC5F0E",
"S+	c #D57411",
"T+	c #714310",
"U+	c #C4BFBD",
"V+	c #D5DDED",
"W+	c #C8D3E7",
"X+	c #C4D0E5",
"Y+	c #C1CEE4",
"Z+	c #C2CFE4",
"`+	c #C0CDE3",
" @	c #BFCCE3",
".@	c #BECCE2",
"+@	c #BCCBE3",
"@@	c #BBCAE2",
"#@	c #D1DEEF",
"$@	c #B1C6E2",
"%@	c #4E7EBD",
"&@	c #D1DDEE",
"*@	c #E9ECF3",
"=@	c #EDEDF2",
"-@	c #EDEDF3",
";@	c #CECED4",
">@	c #5D6163",
",@	c #54585B",
"'@	c #B9BABF",
")@	c #E0E0E6",
"!@	c #C1B2A5",
"~@	c #834E15",
"{@	c #E57E12",
"]@	c #B4620E",
"^@	c #774B1D",
"/@	c #E6E4E8",
"(@	c #E6E6F0",
"_@	c #E2E2EE",
":@	c #E2E2ED",
"<@	c #E1E5F0",
"[@	c #D0DEEE",
"}@	c #4C7DBB",
"|@	c #D8E1EE",
"1@	c #DAE2EE",
"2@	c #DBE2EE",
"3@	c #DCE3EE",
"4@	c #DDE4EF",
"5@	c #D9E0EC",
"6@	c #7C8187",
"7@	c #2F3537",
"8@	c #7D8288",
"9@	c #C9CFD8",
"0@	c #DCE1EC",
"a@	c #E2E7F1",
"b@	c #DCDFE8",
"c@	c #6E4010",
"d@	c #CA6F11",
"e@	c #E27D12",
"f@	c #8F5212",
"g@	c #8C7053",
"h@	c #CAD5E8",
"i@	c #CAD4E7",
"j@	c #C8D3E6",
"k@	c #C8D2E7",
"l@	c #C6D1E6",
"m@	c #C1CEE3",
"n@	c #C0CDE4",
"o@	c #C4D1E6",
"p@	c #DEE8F4",
"q@	c #4678B8",
"r@	c #E8EFF8",
"s@	c #EBECF2",
"t@	c #ECECF2",
"u@	c #ECECF3",
"v@	c #ACAEB2",
"w@	c #B4B5BA",
"x@	c #EDEDF5",
"y@	c #937352",
"z@	c #9C560C",
"A@	c #E27C12",
"B@	c #D37410",
"C@	c #754512",
"D@	c #BFB2AD",
"E@	c #E3E3EF",
"F@	c #E3E3EE",
"G@	c #E1E1EB",
"H@	c #E1E2ED",
"I@	c #E6EEF8",
"J@	c #4779B8",
"K@	c #4375B6",
"L@	c #E9F1F9",
"M@	c #D7E0EC",
"N@	c #D8E0ED",
"O@	c #D9E1ED",
"P@	c #DAE1EE",
"Q@	c #DDE3EF",
"R@	c #DEE3EF",
"S@	c #E0E5F0",
"T@	c #DFE4F0",
"U@	c #E2E6F1",
"V@	c #E3E6F1",
"W@	c #E2E7F2",
"X@	c #E3E7F1",
"Y@	c #BBAFAA",
"Z@	c #7A4914",
"`@	c #CF7210",
" #	c #B3630E",
".#	c #714718",
"+#	c #C7CBDB",
"@#	c #CCD5E8",
"##	c #C6D2E5",
"$#	c #C5D1E5",
"%#	c #C3CFE4",
"&#	c #BFCDE3",
"*#	c #E8F1F9",
"=#	c #4274B5",
"-#	c #EBF3FB",
";#	c #EAEBF1",
">#	c #EBEBF1",
",#	c #EBEBF2",
"'#	c #EAEAF3",
")#	c #E2E1EC",
"!#	c #704516",
"~#	c #AF610E",
"{#	c #DE7A12",
"]#	c #DA7811",
"^#	c #967759",
"/#	c #E4E4EF",
"(#	c #E1E2EC",
"_#	c #EAF2FB",
":#	c #4575B5",
"<#	c #EAF2F9",
"[#	c #D7DFEC",
"}#	c #D9E0ED",
"|#	c #DAE1ED",
"1#	c #DBE1EE",
"2#	c #DFE4EF",
"3#	c #E0E5EF",
"4#	c #E1E5F1",
"5#	c #E1E6F0",
"6#	c #E2E6F0",
"7#	c #E3E6F2",
"8#	c #E3E7F2",
"9#	c #E4E7F2",
"0#	c #DCE1EF",
"a#	c #D7DDEC",
"b#	c #D7DCED",
"c#	c #9A8571",
"d#	c #874D10",
"e#	c #CC7010",
"f#	c #E77F12",
"g#	c #CA700F",
"h#	c #724311",
"i#	c #B3ADAB",
"j#	c #CDD6E9",
"k#	c #CAD4E8",
"l#	c #C9D3E7",
"m#	c #C7D2E6",
"n#	c #C5D1E6",
"o#	c #4575B6",
"p#	c #4978B7",
"q#	c #E8EFF7",
"r#	c #E9EAF1",
"s#	c #EAEAF0",
"t#	c #EAEAF2",
"u#	c #EBEBF3",
"v#	c #ECECF4",
"w#	c #EBEBF4",
"x#	c #E6E6F1",
"y#	c #E5E5F0",
"z#	c #E5E5F1",
"A#	c #D4CED3",
"B#	c #B8650F",
"C#	c #DB7911",
"D#	c #DC7911",
"E#	c #AA5E0D",
"F#	c #74481A",
"G#	c #DFDDE6",
"H#	c #E4E5EF",
"I#	c #E8EEF7",
"J#	c #4979B6",
"K#	c #D9E3EF",
"L#	c #DCE3F0",
"M#	c #D6DEEC",
"N#	c #D8DFEC",
"O#	c #DCE1ED",
"P#	c #DCE1EE",
"Q#	c #DCE2EE",
"R#	c #DEE3EE",
"S#	c #E0E4EF",
"T#	c #E2E5F0",
"U#	c #E4E7F1",
"V#	c #E2E5F1",
"W#	c #DBDFED",
"X#	c #DCE0ED",
"Y#	c #DBDFEE",
"Z#	c #DBDFEF",
"`#	c #DADEED",
" $	c #825E38",
".$	c #92500B",
"+$	c #C96F10",
"@$	c #EA8113",
"#$	c #D27310",
"$$	c #854D12",
"%$	c #9A8472",
"&$	c #CED6E9",
"*$	c #CDD5E8",
"=$	c #CBD5E8",
"-$	c #D5DEED",
";$	c #D9E2F0",
">$	c #4B7AB6",
",$	c #4274B3",
"'$	c #B9CAE2",
")$	c #EDEEF5",
"!$	c #E8E8EF",
"~$	c #E8E8F0",
"{$	c #E9E9F0",
"]$	c #E7E7F1",
"^$	c #E4E4F0",
"/$	c #E6E6F2",
"($	c #BBABA1",
"_$	c #784814",
":$	c #B7650E",
"<$	c #D87711",
"[$	c #DF7B12",
"}$	c #BD680F",
"|$	c #6E410F",
"1$	c #D5D0D4",
"2$	c #EBEEF5",
"3$	c #B9C9E3",
"4$	c #7699C7",
"5$	c #EFF2F8",
"6$	c #D4DCEA",
"7$	c #D6DDEB",
"8$	c #D7DEEC",
"9$	c #D9DFEC",
"0$	c #DBE1ED",
"a$	c #DDE2EE",
"b$	c #DEE2EF",
"c$	c #E1E4EF",
"d$	c #DDE0ED",
"e$	c #DEE0ED",
"f$	c #DEE0EF",
"g$	c #DFE1EF",
"h$	c #E0E2EF",
"i$	c #E0E2F0",
"j$	c #DFE1F0",
"k$	c #DEE1EF",
"l$	c #D9DCE9",
"m$	c #6F4415",
"n$	c #9B550C",
"o$	c #C66D10",
"p$	c #E67F12",
"q$	c #D47511",
"r$	c #92530E",
"s$	c #886A4B",
"t$	c #CDD5E9",
"u$	c #CDD6E7",
"v$	c #C9D3E8",
"w$	c #C9D3E6",
"x$	c #C8D2E6",
"y$	c #C5D0E5",
"z$	c #ECF1F9",
"A$	c #779AC6",
"B$	c #4373B1",
"C$	c #F1F4F8",
"D$	c #E7E7EF",
"E$	c #E7E7F0",
"F$	c #E8E8F1",
"G$	c #E4E4EE",
"H$	c #E7E7F3",
"I$	c #E7E7F2",
"J$	c #A7907B",
"K$	c #7C4812",
"L$	c #E17C12",
"M$	c #C66D0F",
"N$	c #C6BBB8",
"O$	c #EFF3F9",
"P$	c #4373B2",
"Q$	c #4472B1",
"R$	c #C1CFE4",
"S$	c #E6EAF2",
"T$	c #D3DCEA",
"U$	c #D4DCEB",
"V$	c #D6DDEA",
"W$	c #D9DFEB",
"X$	c #D9DEEC",
"Y$	c #DBDFEC",
"Z$	c #DADEEC",
"`$	c #DEE0EC",
" %	c #E0E2ED",
".%	c #E1E3F0",
"+%	c #E4E5F0",
"@%	c #E5E6F1",
"#%	c #E6E7F1",
"$%	c #E4E6F1",
"%%	c #E2E4F1",
"&%	c #E0E3F0",
"*%	c #D5D5DE",
"=%	c #6C4010",
"-%	c #9B560D",
";%	c #C26B0F",
">%	c #E37D12",
",%	c #CC781D",
"'%	c #826C52",
")%	c #888A85",
"!%	c #9FA3A6",
"~%	c #CBD4E8",
"{%	c #527DB6",
"]%	c #F7F9FB",
"^%	c #E5E5EE",
"/%	c #E6E6EF",
"(%	c #E5E5EF",
"_%	c #E4E4ED",
":%	c #E8E8F2",
"<%	c #E9E9F2",
"[%	c #E9E9F3",
"}%	c #E8E8F3",
"|%	c #9E836B",
"1%	c #7A470F",
"2%	c #AF6212",
"3%	c #A27C51",
"4%	c #898A83",
"5%	c #A0A09C",
"6%	c #9D9E9B",
"7%	c #8B8D89",
"8%	c #F7F8FC",
"9%	c #537EB6",
"0%	c #4573B1",
"a%	c #C9D5E6",
"b%	c #E7EBF3",
"c%	c #CCD5E6",
"d%	c #CDD6E6",
"e%	c #CDD4E6",
"f%	c #CDD5E6",
"g%	c #D0D6E7",
"h%	c #D3DAE9",
"i%	c #D5DBE9",
"j%	c #D8DCEA",
"k%	c #DEE1EE",
"l%	c #DFE3EE",
"m%	c #E2E4EF",
"n%	c #E3E5F0",
"o%	c #E6E7F2",
"p%	c #E7E8F1",
"q%	c #E7E8F2",
"r%	c #E7E8F3",
"s%	c #E5E6F2",
"t%	c #E4E6F2",
"u%	c #E1E4F0",
"v%	c #D4D4DD",
"w%	c #6E461B",
"x%	c #888377",
"y%	c #9F9F99",
"z%	c #C8C8C8",
"A%	c #BDBDBD",
"B%	c #ECECEC",
"C%	c #8F908D",
"D%	c #C0C8D7",
"E%	c #E5EBF3",
"F%	c #CAD5E7",
"G%	c #4A77B3",
"H%	c #F7F8FA",
"I%	c #DFDFE9",
"J%	c #DFDFEA",
"K%	c #E3E3EC",
"L%	c #EAEAF4",
"M%	c #8A8A85",
"N%	c #B5B5B5",
"O%	c #DDDDDD",
"P%	c #C1C1C1",
"Q%	c #F2F2F2",
"R%	c #A4A5A2",
"S%	c #B1B3B6",
"T%	c #F6F7FA",
"U%	c #89A4CB",
"V%	c #F7F8FB",
"W%	c #CBD5E6",
"X%	c #C9D3E4",
"Y%	c #CAD3E5",
"Z%	c #CED5E6",
"`%	c #D1D7E7",
" &	c #D4DAE9",
".&	c #D7DCEA",
"+&	c #D8DDEA",
"@&	c #DADFEC",
"#&	c #E0E3EF",
"$&	c #E3E6F0",
"%&	c #E5E7F1",
"&&	c #E6E8F2",
"*&	c #E7E9F2",
"=&	c #E1E4F1",
"-&	c #DDE1EF",
";&	c #D4D9E6",
">&	c #8B8D88",
",&	c #A1A1A0",
"'&	c #CDCDCD",
")&	c #D0D0D0",
"!&	c #D2D3D2",
"~&	c #8F928F",
"{&	c #F6F8FA",
"]&	c #8AA5CC",
"^&	c #4270AC",
"/&	c #BFCDE1",
"(&	c #F7F7FA",
"_&	c #E2E2EC",
":&	c #CDCED5",
"<&	c #90928D",
"[&	c #AFAFAF",
"}&	c #DFDFDF",
"|&	c #CFCFCF",
"1&	c #F7F7F7",
"2&	c #979996",
"3&	c #B2BDCB",
"4&	c #4270AD",
"5&	c #3F6EAB",
"6&	c #D6DEEB",
"7&	c #F1F3F8",
"8&	c #CCD4E5",
"9&	c #CBD4E6",
"0&	c #D0D7E7",
"a&	c #D1D8E8",
"b&	c #D6DBEB",
"c&	c #D9DEEB",
"d&	c #DADFEB",
"e&	c #DFE3EF",
"f&	c #E0E4F0",
"g&	c #DFE3F0",
"h&	c #DDE2EF",
"i&	c #DBE0EE",
"j&	c #DADFED",
"k&	c #D7DDED",
"l&	c #D6DCEC",
"m&	c #A9ACB1",
"n&	c #969896",
"o&	c #CACACA",
"p&	c #D2D2D2",
"q&	c #EDEDED",
"r&	c #CFCFCE",
"s&	c #738493",
"t&	c #3E6DAA",
"u&	c #F9F9FB",
"v&	c #949694",
"w&	c #A1A2A0",
"x&	c #E1E1E1",
"y&	c #CCCCCC",
"z&	c #C7C7C7",
"A&	c #868683",
"B&	c #3C6BA7",
"C&	c #B7C7DE",
"D&	c #FAFBFC",
"E&	c #DBE0ED",
"F&	c #CFD7E7",
"G&	c #D0D7E8",
"H&	c #D3D9E8",
"I&	c #D5DCEB",
"J&	c #D6DCEB",
"K&	c #D7DDEB",
"L&	c #DADFEE",
"M&	c #DAE0EC",
"N&	c #D8DEED",
"O&	c #D4DBEB",
"P&	c #D2D9EA",
"Q&	c #CFD8E8",
"R&	c #CBD0D8",
"S&	c #8E918C",
"T&	c #C0C0C0",
"U&	c #ADADAD",
"V&	c #5D5D5D",
"W&	c #585858",
"X&	c #4D4D4D",
"Y&	c #3A66A1",
"Z&	c #7796C0",
"`&	c #F5F7FA",
" *	c #F6F6F9",
".*	c #8291A2",
"+*	c #727370",
"@*	c #414141",
"#*	c #505050",
"$*	c #606060",
"%*	c #BEBEBE",
"&*	c #B8B8B8",
"**	c #424242",
"=*	c #2C5486",
"-*	c #3E6BA8",
";*	c #B8C6DE",
">*	c #F9FAFC",
",*	c #EEF1F7",
"'*	c #CED6E7",
")*	c #CFD6E7",
"!*	c #D0D8E8",
"~*	c #D2D9E9",
"{*	c #D3DAEA",
"]*	c #D1D9E9",
"^*	c #CFD7E8",
"/*	c #EFF2F7",
"(*	c #FBFBFD",
"_*	c #B9C7DE",
":*	c #3E6BA7",
"<*	c #2D507E",
"[*	c #3E3E3D",
"}*	c #3D3D3D",
"|*	c #4C4C4C",
"1*	c #BBBBBB",
"2*	c #404040",
"3*	c #313131",
"4*	c #355F94",
"5*	c #406DA9",
"6*	c #AEBFD8",
"7*	c #FCFCFD",
"8*	c #3F6DA8",
"9*	c #345B8C",
"0*	c #272727",
"a*	c #363636",
"b*	c #4A4A4A",
"c*	c #4B4B4B",
"d*	c #454545",
"e*	c #3B3B3B",
"f*	c #2B2B2B",
"g*	c #2D5384",
"h*	c #3C69A2",
"i*	c #567DB1",
"j*	c #A5BAD4",
"k*	c #EEF0F6",
"l*	c #FAFAFC",
"m*	c #FCFDFE",
"n*	c #FFFFFF",
"o*	c #FDFDFE",
"p*	c #EEF1F6",
"q*	c #557CB0",
"r*	c #3C68A2",
"s*	c #294B79",
"t*	c #1F1F1F",
"u*	c #2D2D2D",
"v*	c #3C3C3C",
"w*	c #595959",
"x*	c #545454",
"y*	c #242424",
"z*	c #254975",
"A*	c #385F95",
"B*	c #3E69A0",
"C*	c #3A68A5",
"D*	c #3867A5",
"E*	c #3967A4",
"F*	c #3D689E",
"G*	c #375D91",
"H*	c #23446D",
"I*	c #111111",
"J*	c #212121",
"K*	c #292929",
"L*	c #2E2E2E",
"M*	c #535353",
"N*	c #1D1D1D",
"O*	c #0E0E0E",
"P*	c #121212",
"Q*	c #1B1B1B",
"R*	c #1E1E1E",
"S*	c #1C1C1C",
"T*	c #040404",
"U*	c #101010",
"V*	c #090909",
"W*	c #070707",
"X*	c #020202",
"Y*	c #000000",
"                                                                                                ",
"                                                                                                ",
"                                        . + @ # $ # @ + .                                       ",
"                                  % & * = - ; > , > ; - = * & %                                 ",
"                            ' ) ! ~ { ] ^ / ( _ : < [ } ^ | > ~ ! ) '                           ",
"                          @ 1 ; 2 3 4 5 5 5 5 5 5 5 5 5 5 6 7 3 2 8 1 @                         ",
"                      # 9 0 a / b _ b b _ _ _ c c < d d e e e f f g h i 9 #                     ",
"                    j k l m 7 6 7 7 7 7 6 7 7 7 7 7 7 7 7 n n n n n n m o k j                   ",
"                  p q r s t [ e f f f ( u v v v w x y z A B B B B C D E F G H p                 ",
"                I J K L M N O P Q R n n n S T U V W X n Y Z Z Z Z Z Z Z Z `  ...I               ",
"              +.@.#.$.B %.&.*.=.-.;.>.,.'.).-.!.~.{.B B %.E E ].].^.$.^.^.g F /.(.+.            ",
"              _.:.<.Z Z Z Z Z [.}.|.-.-.-.1.2.3.4.Z 5.Z Z Z Z 5.5.5.5.5.5.` ` 6.7.8.            ",
"            9.0.a.E E E %.%.%.%.b.c.d.-.e.f.g.%.E E E h.h.].i.].$.^.j.k.l.m.m.m.n.o.9.          ",
"          p.q.%.4.4.4.4.4.4.5.5.4.5.r.s.t.u.5.5.5.5.5.5.5.v.v.` ` ` ` ` ` ` w.w.x.y.z.p.        ",
"          A.7.B.i.$.i.i.i.i.i.i.h.E C.D.E.E.F.G.H.I.J.K.w L.^.^.^.M.k.m.m.m.N.O.P.Q.R.A.        ",
"    S.T.U.V.W.X.Y.Z.`.`.` ` ` ` ` ` 3. +.+++@+#+$+%+&+*+=+` ` w.w.w.w.w.x.-+-+;+>+,+'+)+!+      ",
"        ~+{+]+^+^+/+(+_+:+{.w <+[+}+|+^+1+2+3+i.i.4+5+6+7+8+w 9+0+M.0+m.N.a+b+c+d+z e+f+g+      ",
"        h+i+j+k+l+^+^+^+m+n+o+l+^+^+^+p+q+r+-+` w.s+t+u+v+w+w.w.w.w.x+y+z+A+A+B+B+B+C+D+E+      ",
"        F+G+H+H+I+J+K+^+^+^+^+^+^+L+M+N+O+P+E.E.P+P+Q+R+S+T+U+M.M.V+W+X+Y+Z+`+ @.@+@@@#@$@      ",
"      %@&@*@=@-@-@-@;@>@^+^+^+^+,@'@)@-+w.w.x+x+x+w.!@~@{@]@^@/@(@_@:@:@:@:@A+A+A+B+B+<@[@%@    ",
"      }@D+|@1@2@3@3@4@5@6@7@1+8@9@0@{.P+P+a@P+P+P+P+b@c@d@e@f@g@h@i@j@k@l@X+X+m@Y+n@.@o@p@}@    ",
"      q@r@s@t@t@t@t@t@u@u@v@w@r+;+;+;+;+;+x@x+x+-+x+x+y@z@A@B@C@D@E@F@F@_@:@:@:@A+A+G@H@I@J@    ",
"      K@L@M@N@O@P@2@3@Q@<+<+R@S@T@S@P+U@a@U@V@W@W@X@V@Y@Z@`@{@ #.#+#@#h@i@W+##$#%#m@n@&#*#K@    ",
"      =#-#;#>+>#>#>#,#,#u@t@,#u@u@u@u@u@;+;+x@x@;+x@'#)#!#~#{#]#f@^#/#E@F@F@_@:@:@A+A+(#_#=#    ",
"      :#<#[#M@N@}#|#1#1#Q@Q@<+2#3#4#5#U@6#7#8#9#8#0#a#b#c#d#e#f#g#h#i#j#j#k#l#m#l@X+Z+n#L@o#    ",
"      p#q#r#s#s#y+>+>+>+t#t#,#,#u#u#u#u@u@v#v#w#x#y#z#z#A#t+B#C#D#E#F#G#E@F@F@:@:@:@A+H#I#p#    ",
"      J#K#L#M#[#N#5@}#O#P#Q#R#R@S#<@T#V@9#U#V#W#X#Y#Z#`#Y# $.$+$@$#$$$%$&$*$=$l#j@##X+-$;$>$    ",
"      ,$'$)$!$~${${${${$y+y+>+>+t#t#'#u#'#]$/#^$y#z#z#/$/$($_$:$<$[$}$|$1$E@F@_@:@:@A+2$3$,$    ",
"        4$5$6$7$7$8$N#9$|#0$a$b$2#c$T#S#d$e$f$g$h$i$i$j$k$l$m$n$o$p$q$r$s$t$u$v$w$x$y$z$A$      ",
"        B$C${$D$D$E$D$!$~$~$y+F$y+F$y#G$^$y#z#z#x#/$/$H$I$I$J$K$ #q$L$M$h#N$F@_@:@:@H#O$P$      ",
"        Q$R$S$T$U$7$V$W$X$Y$O#X#W#Z$Z$`$ %.%+%@%]$#%@%$%%%&%*%=%-%;%>%,%'%)%!%~%l#j@B R$Q$      ",
"          {%]%,+^%,+/%D$(%_%z+:@G$G$(%(@(@]$F$:%:%<%[%}%}%}%I$|%1%2%3%4%5%6%7%_@:@G$8%9%        ",
"          0%a%b%c%d%e%f%f%g%h%i%j%Y$k%l%m%n%o%p%:%q%r%s%t%u%&%v%w%x%y%z%A%B%C%D%w$E%F%0%        ",
"            G%H%^%I%J%J%G@A+K%G$G$/%E$]$F$<%[%'#'#L%'#'#'#'#:%:%M%)%N%O%P%Q%R%S%F$T%G%          ",
"              U%V%W%X%Y%Z%`% &.&+&@&k%#&c$$&%&&&*&*&&&U#V#=&&%-&;&>&,&'&)&B%!&~&{&]&            ",
"              ^&/&(&C+J%B+_&z+_%^%/%E$F$y+<%u#u#v#w#u#u#'#t#<%F$]$:&<&[&}&|&1&2&3&4&            ",
"                5&6&7&8&9&0&a& &b&c&d&O#l%e&f&6#V@6#4#f&g&h&i&j&k&l&m&n&o&p&q&r&s&              ",
"                  t&6$u&K%B+_&z+z+^%(%/%E$F$F$:%<%<%<%F$F$F$E$E$(@(%A+v&w&x&y&z&A&              ",
"                    B&C&D&E&d%F&G&H&I&J&K&9$Z$E&E&L&`#M&9$N&l&O&P&G&Q&R&S&T&U&V&W&W&X&          ",
"                      Y&Z&`& *,+A+_&:@G$G$G$(%/%/%/%(%(%(%(%G$G$F@~$(&T%.*+*@*#*$*%*&***        ",
"                        =*-*;*>*,*}#'*)*0&!*~*~*~*{*{*]*a&G&^*0$/*(*_*:*<*[*}*|*W&1*N%2*3*      ",
"                            4*5*6*/*7*6 u@{$^%F@:@F@^%{$;+6 7*/*6*8*9*    0*a***b*c*d*e*f*      ",
"                                g*h*i*j*N#k*l*m*n*o*l*p*N#j*q*r*s*        t*u*a*v*v*w*x*y*      ",
"                                      z*A*B*C*D*-.D*E*F*G*H*              I*J*K*u*u*L*M*N*O*    ",
"                                                                            P*Q*R*t*S*J*J*T*    ",
"                                                                                U*U*O*V*W*X*    ",
"                                                                                    Y*Y*Y*Y*Y*  ",
"                                                                                                "};
