<?xml version="1.0" encoding="UTF-8" standalone="no"?>
<!-- Created with Inkscape (http://www.inkscape.org/) -->

<svg
   xmlns:dc="http://purl.org/dc/elements/1.1/"
   xmlns:cc="http://creativecommons.org/ns#"
   xmlns:rdf="http://www.w3.org/1999/02/22-rdf-syntax-ns#"
   xmlns:svg="http://www.w3.org/2000/svg"
   xmlns="http://www.w3.org/2000/svg"
   version="1.1"
   width="65"
   height="65"
   id="svg4189">
  <defs
     id="defs4191" />
  <metadata
     id="metadata4194">
    <rdf:RDF>
      <cc:Work
         rdf:about="">
        <dc:format>image/svg+xml</dc:format>
        <dc:type
           rdf:resource="http://purl.org/dc/dcmitype/StillImage" />
        <dc:title></dc:title>
      </cc:Work>
    </rdf:RDF>
  </metadata>
  <g
     transform="translate(0,-987.36218)"
     id="layer1">
    <g
       transform="matrix(1,0,0,-1,-345.0003,1870.3623)"
       id="g4118">
      <g
         transform="translate(392.9332,860.4584)"
         id="g970">
        <path
           d="m 0,0 0,5.089 -2.75,0.978 c -1.048,0.372 -1.892,1.173 -2.318,2.201 0,0 0,10e-4 0,10e-4 -0.428,1.031 -0.398,2.194 0.081,3.201 l 1.253,2.635 -3.599,3.598 -2.634,-1.252 c -1.007,-0.478 -2.172,-0.509 -3.202,-0.082 0,0.001 -10e-4,0.001 -10e-4,0.001 -1.029,0.426 -1.828,1.269 -2.201,2.318 l -0.978,2.75 -5.089,0 -0.978,-2.75 c -0.373,-1.048 -1.173,-1.892 -2.201,-2.318 0,0 -10e-4,0 -10e-4,-0.001 -1.031,-0.427 -2.194,-0.397 -3.202,0.082 l -2.634,1.252 -3.598,-3.598 1.252,-2.634 c 0.479,-1.007 0.508,-2.172 0.081,-3.202 0,0 0,-10e-4 0,-10e-4 -0.427,-1.029 -1.269,-1.828 -2.318,-2.201 l -2.75,-0.978 0,-5.089 2.75,-0.978 c 1.048,-0.373 1.892,-1.173 2.318,-2.201 0,-0.001 0,-0.001 10e-4,-0.001 0.427,-1.031 0.397,-2.194 -0.082,-3.202 l -1.252,-2.634 3.598,-3.598 2.634,1.251 c 1.007,0.479 2.172,0.509 3.202,0.082 10e-4,0 10e-4,0 10e-4,0 1.029,-0.427 1.828,-1.269 2.201,-2.318 l 0.978,-2.75 5.089,0 0.972,2.732 c 0.376,1.058 1.184,1.91 2.221,2.341 0,0 0.001,0 0.001,10e-4 1.021,0.424 2.173,0.395 3.171,-0.079 l 2.651,-1.26 3.599,3.598 -1.253,2.636 c -0.479,1.006 -0.508,2.169 -0.081,3.198 0,10e-4 0,10e-4 0,0.002 0.427,1.029 1.27,1.829 2.32,2.203 L 0,0 z m -18.893,-4.384 c -3.827,0 -6.929,3.102 -6.929,6.928 0,3.827 3.102,6.929 6.929,6.929 3.826,0 6.928,-3.102 6.928,-6.929 0,-3.826 -3.102,-6.928 -6.928,-6.928 m 35.96,-10.578 0,2.705 -1.462,0.52 c -0.557,0.198 -1.006,0.624 -1.233,1.17 0,0 0,0 0,10e-4 -0.227,0.548 -0.211,1.166 0.044,1.702 l 0.665,1.4 -1.913,1.913 -1.4,-0.665 C 11.233,-6.471 10.614,-6.487 10.066,-6.26 l -0.001,0 c -0.546,0.227 -0.972,0.675 -1.17,1.233 l -0.52,1.462 -2.705,0 -0.52,-1.462 C 4.952,-5.585 4.526,-6.033 3.98,-6.26 l -10e-4,0 C 3.432,-6.487 2.813,-6.471 2.278,-6.216 l -1.401,0.665 -1.913,-1.913 0.666,-1.4 c 0.254,-0.536 0.27,-1.155 0.043,-1.702 0,-10e-4 0,-10e-4 0,-10e-4 -0.226,-0.547 -0.675,-0.972 -1.232,-1.17 l -1.462,-0.52 0,-2.705 1.462,-0.52 c 0.557,-0.198 1.006,-0.623 1.232,-1.17 0,0 0,0 0,-10e-4 0.228,-0.547 0.212,-1.166 -0.043,-1.701 l -0.666,-1.401 1.913,-1.913 1.401,0.666 c 0.535,0.254 1.154,0.27 1.702,0.043 0,0 0,0 0,0 0.547,-0.227 0.972,-0.674 1.17,-1.232 l 0.52,-1.462 2.705,0 0.517,1.453 c 0.2,0.562 0.629,1.015 1.18,1.244 0.001,0 0.001,0 0.001,0 0.543,0.226 1.155,0.21 1.686,-0.042 l 1.409,-0.67 1.913,1.913 -0.666,1.402 c -0.254,0.534 -0.27,1.153 -0.043,1.7 0,0 0,0 0,0 0.227,0.548 0.676,0.973 1.234,1.172 l 1.461,0.519 z M 7.023,-17.293 c -2.034,0 -3.683,1.65 -3.683,3.684 0,2.034 1.649,3.683 3.683,3.683 2.034,0 3.683,-1.649 3.683,-3.683 0,-2.034 -1.649,-3.684 -3.683,-3.684 m -9.49,-5.634 0,1.483 -1.032,0.258 c -0.214,0.054 -0.383,0.22 -0.439,0.433 -10e-4,0.001 -10e-4,0.002 -10e-4,0.003 -0.057,0.21 0.006,0.434 0.162,0.585 l 0.768,0.743 -0.742,1.285 -1.018,-0.292 c -0.215,-0.061 -0.448,-0.001 -0.607,0.157 0,0 0,0 0,0 -0.152,0.152 -0.209,0.374 -0.15,0.58 l 0.295,1.035 -1.284,0.741 -0.74,-0.764 c -0.153,-0.158 -0.38,-0.222 -0.593,-0.165 -0.001,0 -0.002,10e-4 -0.003,10e-4 -0.21,0.056 -0.374,0.222 -0.427,0.433 l -0.259,1.037 -1.483,0 -0.258,-1.032 c -0.054,-0.214 -0.219,-0.382 -0.432,-0.439 -0.002,-0.001 -0.003,-0.001 -0.004,-0.001 -0.21,-0.057 -0.434,0.006 -0.585,0.162 l -0.743,0.768 -1.284,-0.741 0.291,-1.018 c 0.061,-0.216 10e-4,-0.449 -0.157,-0.607 0,0 0,-0.001 0,-0.001 -0.152,-0.152 -0.374,-0.209 -0.58,-0.15 l -1.035,0.296 -0.741,-1.285 0.765,-0.739 c 0.158,-0.153 0.221,-0.381 0.164,-0.594 0,-0.001 -10e-4,-0.002 -10e-4,-0.003 -0.056,-0.21 -0.222,-0.374 -0.433,-0.426 l -1.037,-0.26 0,-1.483 1.032,-0.258 c 0.214,-0.054 0.383,-0.219 0.439,-0.432 10e-4,-10e-4 10e-4,-0.003 10e-4,-0.004 0.057,-0.21 -0.006,-0.434 -0.162,-0.585 l -0.768,-0.743 0.741,-1.284 1.018,0.291 c 0.216,0.061 0.449,0.002 0.607,-0.157 0.001,0 0.001,0 0.001,0 0.152,-0.152 0.209,-0.374 0.15,-0.58 l -0.295,-1.035 1.284,-0.741 0.74,0.765 c 0.153,0.158 0.38,0.221 0.593,0.164 10e-4,0 0.002,0 0.003,-0.001 0.21,-0.055 0.374,-0.222 0.426,-0.433 l 0.26,-1.037 1.483,0 0.258,1.032 c 0.054,0.214 0.219,0.383 0.433,0.44 0.001,0 0.002,0 0.003,10e-4 0.21,0.056 0.434,-0.006 0.585,-0.163 l 0.743,-0.768 1.284,0.741 -0.291,1.019 c -0.061,0.215 -10e-4,0.448 0.157,0.607 0,0 0,0 0,0 0.152,0.152 0.374,0.209 0.58,0.151 l 1.034,-0.296 0.742,1.284 -0.765,0.74 c -0.158,0.153 -0.221,0.38 -0.164,0.593 0,0.001 0.001,0.002 0.001,0.003 0.056,0.211 0.222,0.374 0.433,0.427 l 1.037,0.259 z m -6.812,-1.932 c -1.476,0 -2.673,1.197 -2.673,2.674 0,1.476 1.197,2.673 2.673,2.673 1.477,0 2.674,-1.197 2.674,-2.673 0,-1.477 -1.197,-2.674 -2.674,-2.674"
           id="path972"
           style="fill:#787878;fill-opacity:1;fill-rule:nonzero;stroke:none" />
      </g>
      <g
         transform="translate(376.3114,856.6788)"
         id="g974">
        <path
           d="m 0,0 -18.787,0 c -3.457,0 -6.257,-2.801 -6.262,-6.257 l -0.006,0 0,-0.007 c -3.457,-0.004 -6.256,-2.804 -6.256,-6.261 l 0,-18.787 c 0,-3.46 2.804,-6.263 6.262,-6.263 l 18.787,0 c 3.459,0 6.262,2.803 6.262,6.263 3.458,0 6.262,2.803 6.262,6.263 l 0,18.786 C 6.262,-2.804 3.458,0 0,0"
           id="path976"
           style="fill:#7ab51d;fill-opacity:1;fill-rule:nonzero;stroke:none" />
      </g>
      <g
         transform="translate(348.4544,845.8015)"
         id="g978">
        <path
           d="m 0,0 2.042,0 0,-10.253 c 0,-3.506 1.064,-4.394 2.996,-4.394 1.93,0 2.995,0.888 2.995,4.394 l 0,10.253 2.043,0 0,-10.164 c 0,-4.439 -1.642,-6.191 -5.038,-6.191 -3.395,0 -5.038,1.752 -5.038,6.191 L 0,0 z"
           id="path980"
           style="fill:#ffffff;fill-opacity:1;fill-rule:nonzero;stroke:none" />
      </g>
      <g
         transform="translate(366.7298,841.3853)"
         id="g982">
        <path
           d="M 0,0 C 0.022,0.91 -0.045,1.82 -0.466,2.33 -0.888,2.841 -1.842,3.018 -2.264,3.018 -3.951,3.018 -4.616,1.997 -4.683,1.776 -4.749,1.599 -5.15,1.199 -5.15,-1.553 l 0,-4.283 c 0,-3.93 1.288,-4.395 2.864,-4.395 0.621,0 2.508,0.222 2.53,3.35 l 2.108,0 c 0.088,-5.059 -3.483,-5.059 -4.527,-5.059 -1.998,0 -5.061,0.133 -5.061,6.347 l 0,4.528 c 0,4.527 1.997,5.814 5.15,5.814 C 1.087,4.749 2.307,3.106 2.108,0 L 0,0 z"
           id="path984"
           style="fill:#ffffff;fill-opacity:1;fill-rule:nonzero;stroke:none" />
      </g>
      <g
         transform="translate(371.618,834.5493)"
         id="g986">
        <path
           d="m 0,0 0,-0.465 c 0,-2.175 1.376,-2.863 2.685,-2.863 1.62,0 2.864,0.688 2.864,2.596 0,3.551 -7.192,3.151 -7.192,7.967 0,2.841 2.021,4.35 4.705,4.35 2.931,0 4.573,-1.421 4.439,-4.682 l -2.13,0 C 5.393,8.656 4.838,9.81 2.907,9.81 1.686,9.81 0.444,9.189 0.444,7.457 c 0,-3.528 7.191,-3.019 7.191,-8.1 0,-3.374 -2.331,-4.461 -4.972,-4.461 C -2.064,-5.148 -2.064,-1.531 -2.018,0 L 0,0 z"
           id="path988"
           style="fill:#ffffff;fill-opacity:1;fill-rule:nonzero;stroke:none" />
      </g>
    </g>
  </g>
</svg>
