/* XPM */
static char * ooo_template_xpm[] = {
"22 22 279 2",
"  	c None",
". 	c #91B3DC",
"+ 	c #AAC4E4",
"@ 	c #B2CAE7",
"# 	c #B3CBE8",
"$ 	c #AEC7E5",
"% 	c #A1BDE1",
"& 	c #9DBADF",
"* 	c #CBDAEE",
"= 	c #E2E9F4",
"- 	c #EAEEF5",
"; 	c #EDF0F6",
"> 	c #EEF1F7",
", 	c #EBEFF6",
"' 	c #E5EBF4",
") 	c #DAE4F1",
"! 	c #8DAFDA",
"~ 	c #7CA3D4",
"{ 	c #ADC5E3",
"] 	c #DCE5F1",
"^ 	c #EBEEF5",
"/ 	c #E0E6F0",
"( 	c #DBE3EE",
"_ 	c #E8ECF4",
": 	c #E9EDF4",
"< 	c #E4EAF3",
"[ 	c #C8D8EC",
"} 	c #97B7DD",
"| 	c #BFD1E8",
"1 	c #BACAE0",
"2 	c #92ABCC",
"3 	c #8DA7CA",
"4 	c #B0C1DA",
"5 	c #AFC1DA",
"6 	c #8BA5C9",
"7 	c #A3B8D5",
"8 	c #DCE3EE",
"9 	c #ECEFF5",
"0 	c #EBEEF4",
"a 	c #D7E1F0",
"b 	c #9BB8DE",
"c 	c #B3C8E4",
"d 	c #E3E9F2",
"e 	c #E1E6EF",
"f 	c #B5C4DA",
"g 	c #7292BC",
"h 	c #6D8EB9",
"i 	c #AFBFD7",
"j 	c #E5E9F2",
"k 	c #E9ECF4",
"l 	c #E8EBF3",
"m 	c #E7EBF3",
"n 	c #E5EAF2",
"o 	c #CCD9EC",
"p 	c #92B1D9",
"q 	c #7998BF",
"r 	c #C9D3E0",
"s 	c #DFE4EC",
"t 	c #E5E9F1",
"u 	c #E7EAF3",
"v 	c #E4E8F0",
"w 	c #C7D0DD",
"x 	c #BCC5D2",
"y 	c #CED2DB",
"z 	c #DBE0E8",
"A 	c #E6EAF2",
"B 	c #E6EAF3",
"C 	c #E6E9F3",
"D 	c #E4E8F2",
"E 	c #E2E7F1",
"F 	c #DEE5F0",
"G 	c #B1C7E3",
"H 	c #707C8A",
"I 	c #727679",
"J 	c #84888B",
"K 	c #B0B4B9",
"L 	c #CACED4",
"M 	c #A3A7AC",
"N 	c #787C80",
"O 	c #7B7E82",
"P 	c #A6AAB0",
"Q 	c #E2E5EC",
"R 	c #EBEDF4",
"S 	c #EAECF4",
"T 	c #E9EBF3",
"U 	c #E6E8F1",
"V 	c #DEE2EE",
"W 	c #D7DDEA",
"X 	c #CED8EA",
"Y 	c #7FA3D1",
"Z 	c #C7D2E2",
"` 	c #C4C8D0",
" .	c #7E8287",
"..	c #4F5557",
"+.	c #4C5255",
"@.	c #4E5357",
"#.	c #8A8E93",
"$.	c #C3C7CD",
"%.	c #D5D9DE",
"&.	c #D8DBE2",
"*.	c #D8DCE2",
"=.	c #D1D6DF",
"-.	c #CAD0DC",
";.	c #C6CDDA",
">.	c #C4CBD9",
",.	c #C4CEDB",
"'.	c #A7BCD6",
").	c #7CA0CE",
"!.	c #DBE3EF",
"~.	c #E3E7F0",
"{.	c #DDE2EA",
"].	c #A8ADB4",
"^.	c #73777C",
"/.	c #B5B9C0",
"(.	c #DDE0E8",
"_.	c #D0D1D2",
":.	c #DBDCDB",
"<.	c #D4D5D4",
"[.	c #D6D7D6",
"}.	c #DEDEDD",
"|.	c #DFE0DE",
"1.	c #EAEAE9",
"2.	c #EFEFEE",
"3.	c #EFEFEF",
"4.	c #EDEDEC",
"5.	c #A5B4C5",
"6.	c #7A9ECC",
"7.	c #DFE5F0",
"8.	c #E5E8F0",
"9.	c #E6E8F0",
"0.	c #E4E7EF",
"a.	c #DEE0E8",
"b.	c #E8E9F2",
"c.	c #E5E7EF",
"d.	c #CDCECE",
"e.	c #CCCDCC",
"f.	c #BABCBA",
"g.	c #C3C4C4",
"h.	c #D6D6D5",
"i.	c #E4E5E3",
"j.	c #F2F2F0",
"k.	c #FDFDFD",
"l.	c #FFFFFF",
"m.	c #FBFBFB",
"n.	c #A5B3C4",
"o.	c #7C9ECB",
"p.	c #DAE1EE",
"q.	c #DEE3EE",
"r.	c #E0E4EF",
"s.	c #E2E6F0",
"t.	c #E2E4ED",
"u.	c #C8CACA",
"v.	c #CBCDCB",
"w.	c #BCBDBC",
"x.	c #C9CAC9",
"y.	c #D9DAD8",
"z.	c #DBDBD9",
"A.	c #E4E4E2",
"B.	c #F3F3F2",
"C.	c #A2B0C0",
"D.	c #7297C6",
"E.	c #D5DDEC",
"F.	c #E0E4EE",
"G.	c #E2E4EF",
"H.	c #E3E5EF",
"I.	c #E4E6F0",
"J.	c #E5E7F1",
"K.	c #E3E4ED",
"L.	c #C6C7C7",
"M.	c #CACBCA",
"N.	c #BFC0BF",
"O.	c #CECFCD",
"P.	c #E2E2E0",
"Q.	c #E5E5E2",
"R.	c #E7E7E5",
"S.	c #F0F0EE",
"T.	c #FBFBFA",
"U.	c #FEFEFE",
"V.	c #FAFBFA",
"W.	c #A4B0BD",
"X.	c #BCCCE2",
"Y.	c #E1E4EE",
"Z.	c #E0E3EE",
"`.	c #E2E4EE",
" +	c #E4E5EF",
".+	c #E0E1EB",
"++	c #C2C3C3",
"@+	c #C4C5C3",
"#+	c #D2D3D1",
"$+	c #DCDCD9",
"%+	c #E6E6E4",
"&+	c #FCFCFC",
"*+	c #F9F9F9",
"=+	c #BABBBA",
"-+	c #8EA9CF",
";+	c #DDE2EE",
">+	c #D8DDEB",
",+	c #D9DDEB",
"'+	c #DADEEB",
")+	c #DCE0EC",
"!+	c #DCDEE9",
"~+	c #C0C1C1",
"{+	c #CCCDCB",
"]+	c #C9CAC7",
"^+	c #D8D8D6",
"/+	c #E6E6E3",
"(+	c #E0E0DE",
"_+	c #ECECEB",
":+	c #F8F8F7",
"<+	c #F7F7F6",
"[+	c #B7B8B5",
"}+	c #BECBE1",
"|+	c #D9DDEA",
"1+	c #D9DCE9",
"2+	c #DCDFEB",
"3+	c #E0E2ED",
"4+	c #DFE0EB",
"5+	c #C0C2C1",
"6+	c #CFD0CE",
"7+	c #DEDEDC",
"8+	c #DADAD7",
"9+	c #E2E2DF",
"0+	c #E4E4E1",
"a+	c #E3E3E0",
"b+	c #F2F2F1",
"c+	c #F3F3F1",
"d+	c #B2B3AF",
"e+	c #CBD4E6",
"f+	c #DADDEA",
"g+	c #DEE0EC",
"h+	c #DDDFEA",
"i+	c #D1D2D0",
"j+	c #D1D2CF",
"k+	c #DEDEDB",
"l+	c #DFDFDC",
"m+	c #ECECEA",
"n+	c #EEEEED",
"o+	c #ADAEAA",
"p+	c #8AA5CA",
"q+	c #C6D1E3",
"r+	c #D7DDE9",
"s+	c #D8DBE7",
"t+	c #BEC0C0",
"u+	c #D4D5D3",
"v+	c #DBDBD8",
"w+	c #E1E1DE",
"x+	c #E0E0DD",
"y+	c #E9E9E7",
"z+	c #ABACA9",
"A+	c #A2B5D0",
"B+	c #D0D8E7",
"C+	c #DEE1EA",
"D+	c #BFC0C0",
"E+	c #D8D8D4",
"F+	c #E0E0DC",
"G+	c #D8D8D5",
"H+	c #DDDDDA",
"I+	c #DDDDD9",
"J+	c #D9D9D6",
"K+	c #AAACA8",
"L+	c #708EB5",
"M+	c #88A0BF",
"N+	c #B0B4B7",
"O+	c #DFDFDB",
"P+	c #DEDEDA",
"Q+	c #DEDFDB",
"R+	c #A9AAA6",
"S+	c #A3A7A6",
"T+	c #D0D0CE",
"U+	c #CFD0CD",
"V+	c #CFCFCC",
"W+	c #CECECC",
"X+	c #CDCECB",
"Y+	c #CDCDCA",
"Z+	c #CCCCC9",
"`+	c #CBCCC8",
" @	c #CACBC7",
".@	c #C8C9C6",
"+@	c #A1A39E",
"                                            ",
"                . + @ # $ %                 ",
"            & * = - ; > , ' ) $ !           ",
"        ~ { ] - ^ - - / ( _ : < [ }         ",
"        | 1 2 3 4 5 6 7 8 9 ^ 0 : a b       ",
"      c d : e f g h i j : k _ l m n o p     ",
"    q r s t u v w x y z A B C j D E F G     ",
"    H I J K L M N O P Q R S T T U V W X Y   ",
"    Z `  ...+.@.#.$.%.&.*.*.*.=.-.;.>.,.'.  ",
"  ).!.~.{.].^./.(._.:.<.[.}.|.1.2.3.3.4.5.  ",
"  6.7.8.9.0.a.b.c.d.e.f.g.h.i.j.k.l.l.m.n.  ",
"  o.p.q.r.r.s.~.t.u.v.w.x.y.z.A.B.k.l.m.C.  ",
"  D.E.F.G.H.I.J.K.L.M.N.O.P.Q.R.S.T.U.V.W.  ",
"    X.Y.Z.`.H. +.+++M.@+#+A.$+Q.%+B.&+*+=+  ",
"    -+;+>+,+'+)+!+~+{+]+^+P.R./+(+_+:+<+[+  ",
"      }+|+1+2+3+4+5+6+{+7+Q.8+9+0+a+b+c+d+  ",
"        e+f+f+g+h+~+i+j+k+a+l+9+9+8+m+n+o+  ",
"        p+q+r+,+s+t+u+v+9+w+$+l+x+x+0+y+z+  ",
"            A+B+C+D+^+E+x+F+G+H+k+I+J+9+K+  ",
"              L+M+N+l+k+l+O+I+P+H+I+v+Q+R+  ",
"                  S+T+U+V+W+X+Y+Z+`+ @.@+@  ",
"                                            "};
