/* XPM */
static char * ooo_calc_xpm[] = {
"22 22 290 2",
"  	c None",
". 	c #91B3DC",
"+ 	c #AAC4E4",
"@ 	c #B2CAE7",
"# 	c #B3CBE8",
"$ 	c #AEC7E5",
"% 	c #A1BDE1",
"& 	c #9DBADF",
"* 	c #CBDAEE",
"= 	c #E2E9F4",
"- 	c #EAEEF5",
"; 	c #EDF0F6",
"> 	c #EEF1F7",
", 	c #EBEFF6",
"' 	c #E5EBF4",
") 	c #DAE4F1",
"! 	c #8DAFDA",
"~ 	c #7CA3D4",
"{ 	c #ADC5E3",
"] 	c #DCE5F1",
"^ 	c #EBEEF5",
"/ 	c #E0E6F0",
"( 	c #DBE3EE",
"_ 	c #E8ECF4",
": 	c #E9EDF4",
"< 	c #E4EAF3",
"[ 	c #C8D8EC",
"} 	c #97B7DD",
"| 	c #BFD1E8",
"1 	c #BACAE0",
"2 	c #92ABCC",
"3 	c #8DA7CA",
"4 	c #B0C1DA",
"5 	c #AFC1DA",
"6 	c #8BA5C9",
"7 	c #A3B8D5",
"8 	c #DCE3EE",
"9 	c #ECEFF5",
"0 	c #EBEEF4",
"a 	c #D7E1F0",
"b 	c #9BB8DE",
"c 	c #B3C8E4",
"d 	c #E3E9F2",
"e 	c #E1E6EF",
"f 	c #B5C4DA",
"g 	c #7292BC",
"h 	c #6D8EB9",
"i 	c #AFBFD7",
"j 	c #E5E9F2",
"k 	c #E9ECF4",
"l 	c #E8EBF3",
"m 	c #E7EBF3",
"n 	c #E5EAF2",
"o 	c #CCD9EC",
"p 	c #92B1D9",
"q 	c #7998BF",
"r 	c #C9D3E0",
"s 	c #DFE4EC",
"t 	c #E5E9F1",
"u 	c #E7EAF3",
"v 	c #E4E8F0",
"w 	c #C7D0DD",
"x 	c #BCC5D2",
"y 	c #CED2DB",
"z 	c #DBE0E8",
"A 	c #E6EAF2",
"B 	c #E6EAF3",
"C 	c #E6E9F3",
"D 	c #E4E8F2",
"E 	c #E2E7F1",
"F 	c #DEE5F0",
"G 	c #B1C7E3",
"H 	c #707C8A",
"I 	c #727679",
"J 	c #84888B",
"K 	c #B0B4B9",
"L 	c #CACED4",
"M 	c #A3A7AC",
"N 	c #787C80",
"O 	c #7B7E82",
"P 	c #A6AAB0",
"Q 	c #E2E5EC",
"R 	c #EBEDF4",
"S 	c #EAECF4",
"T 	c #E9EBF3",
"U 	c #E6E8F1",
"V 	c #DEE2EE",
"W 	c #D7DDEA",
"X 	c #CED8EA",
"Y 	c #7FA3D1",
"Z 	c #C7D2E2",
"` 	c #C4C8D0",
" .	c #7E8287",
"..	c #4F5557",
"+.	c #4C5255",
"@.	c #4E5357",
"#.	c #8A8F94",
"$.	c #CED1D9",
"%.	c #E4E7EF",
"&.	c #E3E7EF",
"*.	c #E3E6EE",
"=.	c #E2E5EE",
"-.	c #E1E4ED",
";.	c #D8DDE9",
">.	c #D0D7E6",
",.	c #CDD4E3",
"'.	c #CAD1E3",
").	c #CAD3E4",
"!.	c #AAC1DD",
"~.	c #7CA0CE",
"{.	c #DBE3EF",
"].	c #E3E7F0",
"^.	c #DDE2EA",
"/.	c #A8ADB4",
"(.	c #73777C",
"_.	c #B5B9C0",
":.	c #E0E3EB",
"<.	c #B6B7B7",
"[.	c #B7B9B7",
"}.	c #B6B6B5",
"|.	c #B5B6B5",
"1.	c #B3B4B4",
"2.	c #B3B4B3",
"3.	c #92A3B5",
"4.	c #7A9ECC",
"5.	c #DFE5F0",
"6.	c #E5E8F0",
"7.	c #E6E8F0",
"8.	c #DEE0E8",
"9.	c #E8E9F2",
"0.	c #E8EAF2",
"a.	c #E9EBF4",
"b.	c #ADAEAB",
"c.	c #9C9C9B",
"d.	c #8F8F8E",
"e.	c #A8A8A7",
"f.	c #8E9EAD",
"g.	c #7C9ECB",
"h.	c #DAE1EE",
"i.	c #DEE3EE",
"j.	c #E0E4EF",
"k.	c #E2E6F0",
"l.	c #E5E8F1",
"m.	c #E6E8F2",
"n.	c #E5E7F2",
"o.	c #B1B2AF",
"p.	c #9F9F9E",
"q.	c #AFAFAE",
"r.	c #B4B4B3",
"s.	c #B2B2B0",
"t.	c #B5B5B4",
"u.	c #B3B3B1",
"v.	c #C1C1BF",
"w.	c #8F9EAE",
"x.	c #7297C6",
"y.	c #D5DDEC",
"z.	c #E0E4EE",
"A.	c #E2E4EF",
"B.	c #E2E2EB",
"C.	c #DFD1D9",
"D.	c #DBC0C7",
"E.	c #DABCC3",
"F.	c #DCC1CA",
"G.	c #DDCDD8",
"H.	c #B7B7B4",
"I.	c #BFBFBD",
"J.	c #BBBBBA",
"K.	c #DEDEDC",
"L.	c #E9E9E7",
"M.	c #E4E4E2",
"N.	c #ECECEA",
"O.	c #E6E7E4",
"P.	c #94A1AD",
"Q.	c #BCCCE2",
"R.	c #DFDCE6",
"S.	c #D6B1B9",
"T.	c #CD757A",
"U.	c #D26163",
"V.	c #DA6365",
"W.	c #DD6565",
"X.	c #D96465",
"Y.	c #D26264",
"Z.	c #C16D6C",
"`.	c #C09B9A",
" +	c #BEB9B8",
".+	c #DFDFDD",
"++	c #E9EAE7",
"@+	c #E5E5E3",
"#+	c #E7E7E5",
"$+	c #ACAEAB",
"%+	c #8CA0C5",
"&+	c #CF9AA1",
"*+	c #D86062",
"=+	c #ED6C6C",
"-+	c #F47676",
";+	c #F47777",
">+	c #F47979",
",+	c #F57B7B",
"'+	c #F57E7E",
")+	c #ED7575",
"!+	c #CE5C5C",
"~+	c #B07978",
"{+	c #D7D6D4",
"]+	c #E7E7E4",
"^+	c #E0E0DD",
"/+	c #EBEBE9",
"(+	c #E3E3E1",
"_+	c #E1E1DE",
":+	c #AEB0AC",
"<+	c #CB565B",
"[+	c #F06262",
"}+	c #F36363",
"|+	c #F36565",
"1+	c #F36767",
"2+	c #F16A6A",
"3+	c #ED6E71",
"4+	c #EE7073",
"5+	c #EE7275",
"6+	c #EC7678",
"7+	c #D57172",
"8+	c #DDC2C0",
"9+	c #EAEAE8",
"0+	c #E6E6E4",
"a+	c #E8E8E6",
"b+	c #AFB0AC",
"c+	c #D95251",
"d+	c #F25656",
"e+	c #F25555",
"f+	c #F25757",
"g+	c #F35959",
"h+	c #CA7D57",
"i+	c #A58B99",
"j+	c #A28AA8",
"k+	c #A28BA9",
"l+	c #A48DAB",
"m+	c #B48797",
"n+	c #D8ABA9",
"o+	c #E8E9E6",
"p+	c #E4E5E3",
"q+	c #AFB0AD",
"r+	c #C95451",
"s+	c #ED6362",
"t+	c #F14E4E",
"u+	c #F14B4B",
"v+	c #EA5449",
"w+	c #97AB2C",
"x+	c #7CAD80",
"y+	c #74A0CD",
"z+	c #77A2D0",
"A+	c #83A6CB",
"B+	c #7E707D",
"C+	c #D8B1AF",
"D+	c #E0E1DE",
"E+	c #E4E4E1",
"F+	c #E3E3E0",
"G+	c #B0B1AE",
"H+	c #A62A25",
"I+	c #C56A63",
"J+	c #DD736F",
"K+	c #EB6765",
"L+	c #D9825B",
"M+	c #99CD47",
"N+	c #94CC5F",
"O+	c #90ABB1",
"P+	c #7492AB",
"Q+	c #5E626E",
"R+	c #946262",
"S+	c #DFD6D4",
"T+	c #E6E7E5",
"U+	c #EDEDEB",
"V+	c #A2211D",
"W+	c #A93E37",
"X+	c #AC5045",
"Y+	c #A67349",
"Z+	c #959547",
"`+	c #8B8843",
" @	c #6D614E",
".@	c #67474C",
"+@	c #A57374",
"@@	c #DFCECD",
"#@	c #ECEDEA",
"$@	c #EEEEEC",
"%@	c #ADAFAB",
"&@	c #9B1B0F",
"*@	c #9A2812",
"=@	c #922110",
"-@	c #82100A",
";@	c #976D6A",
">@	c #ABA5A2",
",@	c #AEAFAB",
"                                            ",
"                . + @ # $ %                 ",
"            & * = - ; > , ' ) $ !           ",
"        ~ { ] - ^ - - / ( _ : < [ }         ",
"        | 1 2 3 4 5 6 7 8 9 ^ 0 : a b       ",
"      c d : e f g h i j : k _ l m n o p     ",
"    q r s t u v w x y z A B C j D E F G     ",
"    H I J K L M N O P Q R S T T U V W X Y   ",
"    Z `  ...+.@.#.$.%.&.*.=.-.;.>.,.'.).!.  ",
"  ~.{.].^./.(._.:.u u <.[.}.|.1.1.2.2.<.3.  ",
"  4.5.6.7.%.8.9.0.T a.b.c.d.d.d.d.d.d.e.f.  ",
"  g.h.i.j.j.k.].l.m.n.o.e.p.q.r.s.t.u.v.w.  ",
"  x.y.z.A.B.C.D.E.F.G.H.I.J.K.L.M.N.O.M.P.  ",
"    Q.R.S.T.U.V.W.X.Y.Z.`. +.+++@+N.#+@+$+  ",
"    %+&+*+=+-+;+>+,+'+)+!+~+{+]+^+/+(+_+:+  ",
"      <+[+}+|+1+2+3+4+5+6+7+8+9+0+N.a+O.b+  ",
"      c+d+e+f+g+h+i+j+k+l+m+n+o+(+N.0+p+q+  ",
"      r+s+t+u+v+w+x+y+z+A+B+C+#+D+/+E+F+G+  ",
"      H+I+J+K+L+M+N+O+P+Q+R+S+9+T+U+o+a+G+  ",
"        V+W+X+Y+Z+`+ @.@+@@@/+U+#@$@U+/+%@  ",
"              &@*@=@-@;@>@G+G+G+G+G+G+,@    ",
"                                            "};
