/* XPM */
static char * ooo_writer_xpm[] = {
"22 22 282 2",
"  	c None",
". 	c #91B3DC",
"+ 	c #AAC4E4",
"@ 	c #B2CAE7",
"# 	c #B3CBE8",
"$ 	c #AEC7E5",
"% 	c #A1BDE1",
"& 	c #9DBADF",
"* 	c #CBDAEE",
"= 	c #E2E9F4",
"- 	c #EAEEF5",
"; 	c #EDF0F6",
"> 	c #EEF1F7",
", 	c #EBEFF6",
"' 	c #E5EBF4",
") 	c #DAE4F1",
"! 	c #8DAFDA",
"~ 	c #7CA3D4",
"{ 	c #ADC5E3",
"] 	c #DCE5F1",
"^ 	c #EBEEF5",
"/ 	c #E0E6F0",
"( 	c #DBE3EE",
"_ 	c #E8ECF4",
": 	c #E9EDF4",
"< 	c #E4EAF3",
"[ 	c #C8D8EC",
"} 	c #97B7DD",
"| 	c #BFD1E8",
"1 	c #BACAE0",
"2 	c #92ABCC",
"3 	c #8DA7CA",
"4 	c #B0C1DA",
"5 	c #AFC1DA",
"6 	c #8BA5C9",
"7 	c #A3B8D5",
"8 	c #DCE3EE",
"9 	c #ECEFF5",
"0 	c #EBEEF4",
"a 	c #D7E1F0",
"b 	c #9BB8DE",
"c 	c #B3C8E4",
"d 	c #E3E9F2",
"e 	c #E1E6EF",
"f 	c #B5C4DA",
"g 	c #7292BC",
"h 	c #6D8EB9",
"i 	c #AFBFD7",
"j 	c #E5E9F2",
"k 	c #E9ECF4",
"l 	c #E8EBF3",
"m 	c #E7EBF3",
"n 	c #E5EAF2",
"o 	c #CCD9EC",
"p 	c #92B1D9",
"q 	c #7998BF",
"r 	c #C9D3E0",
"s 	c #DFE4EC",
"t 	c #E5E9F1",
"u 	c #E7EAF3",
"v 	c #E4E8F0",
"w 	c #C7D0DD",
"x 	c #BCC5D2",
"y 	c #CED2DB",
"z 	c #DBE0E8",
"A 	c #E6EAF2",
"B 	c #E6EAF3",
"C 	c #E6E9F3",
"D 	c #E4E8F2",
"E 	c #E2E7F1",
"F 	c #DEE5F0",
"G 	c #B1C7E3",
"H 	c #707C8A",
"I 	c #727679",
"J 	c #84888B",
"K 	c #B0B4B9",
"L 	c #CACED4",
"M 	c #A3A7AC",
"N 	c #787C80",
"O 	c #7B7E82",
"P 	c #A6AAB0",
"Q 	c #E2E5EC",
"R 	c #EBEDF4",
"S 	c #EAECF4",
"T 	c #E9EBF3",
"U 	c #E6E8F1",
"V 	c #DEE2EE",
"W 	c #D7DDEA",
"X 	c #CED8EA",
"Y 	c #7FA3D1",
"Z 	c #C7D2E2",
"` 	c #C4C8D0",
" .	c #7E8287",
"..	c #4F5557",
"+.	c #4C5255",
"@.	c #4E5357",
"#.	c #8A8E93",
"$.	c #C3C7CD",
"%.	c #D5D9DE",
"&.	c #D8DBE2",
"*.	c #D8DCE2",
"=.	c #D8DCE3",
"-.	c #D1D6DF",
";.	c #CAD0DC",
">.	c #C6CDDA",
",.	c #C4CBD9",
"'.	c #C4CEDB",
").	c #A7BCD6",
"!.	c #7CA0CE",
"~.	c #DBE3EF",
"{.	c #E3E7F0",
"].	c #DDE2EA",
"^.	c #A8ADB4",
"/.	c #73777C",
"(.	c #B5B9C0",
"_.	c #DDE0E8",
":.	c #D1D3D4",
"<.	c #E9EAE9",
"[.	c #E8E8E7",
"}.	c #E8E9E7",
"|.	c #E9E9E8",
"1.	c #E9E9E7",
"2.	c #A5B4C5",
"3.	c #7A9ECC",
"4.	c #DFE5F0",
"5.	c #E5E8F0",
"6.	c #E6E8F0",
"7.	c #E4E7EF",
"8.	c #DEE0E8",
"9.	c #E8E9F2",
"0.	c #E5E7EF",
"a.	c #D2D3D3",
"b.	c #F1F1F0",
"c.	c #EEEEEC",
"d.	c #D4D4D1",
"e.	c #C4C5C1",
"f.	c #C9CAC7",
"g.	c #E6E6E4",
"h.	c #ECECEA",
"i.	c #EBEBE9",
"j.	c #EDEEEC",
"k.	c #A5B3C4",
"l.	c #7C9ECB",
"m.	c #DAE1EE",
"n.	c #DEE3EE",
"o.	c #E0E4EF",
"p.	c #E2E6F0",
"q.	c #E2E4ED",
"r.	c #CDCFCF",
"s.	c #EDEDEB",
"t.	c #DBDBD9",
"u.	c #D0D1CE",
"v.	c #D0D0CE",
"w.	c #CFD0CD",
"x.	c #CFCFCD",
"y.	c #D6D6D4",
"z.	c #A2B0C0",
"A.	c #7297C6",
"B.	c #D5DDEC",
"C.	c #E0E4EE",
"D.	c #E2E4EF",
"E.	c #E3E5EF",
"F.	c #E4E6F0",
"G.	c #E5E7F1",
"H.	c #E3E4ED",
"I.	c #CBCCCC",
"J.	c #E8E8E6",
"K.	c #E3E3E1",
"L.	c #D2D2CF",
"M.	c #C2C3C0",
"N.	c #C1C2BF",
"O.	c #CCCDCA",
"P.	c #E7E7E5",
"Q.	c #A4B0BD",
"R.	c #BCCCE2",
"S.	c #E1E4EE",
"T.	c #E0E3EE",
"U.	c #E2E4EE",
"V.	c #E4E5EF",
"W.	c #E0E1EB",
"X.	c #C7C8C8",
"Y.	c #E0E0DE",
"Z.	c #DADAD8",
"`.	c #A0ADBE",
" +	c #8A919B",
".+	c #788CA9",
"++	c #C9CCCE",
"@+	c #C3C3C0",
"#+	c #CDCDCA",
"$+	c #E5E5E3",
"%+	c #BABBBA",
"&+	c #8EA9CF",
"*+	c #DDE2EE",
"=+	c #D8DDEB",
"-+	c #D9DDEB",
";+	c #DADEEB",
">+	c #DCE0EC",
",+	c #DCDEE9",
"'+	c #C5C6C6",
")+	c #EEEEEB",
"!+	c #9C9FA0",
"~+	c #C9984D",
"{+	c #707981",
"]+	c #BEC4C7",
"^+	c #B5B6B3",
"/+	c #E2E2DF",
"(+	c #B7B8B5",
"_+	c #BECBE1",
":+	c #D9DDEA",
"<+	c #D9DCE9",
"[+	c #DCDFEB",
"}+	c #E0E2ED",
"|+	c #DFE0EB",
"1+	c #C5C6C5",
"2+	c #E0E0DD",
"3+	c #DADAD7",
"4+	c #B29C77",
"5+	c #A27327",
"6+	c #857961",
"7+	c #C5C7C5",
"8+	c #BABBB8",
"9+	c #BABBB7",
"0+	c #C6C6C3",
"a+	c #E0E1DE",
"b+	c #B2B3AF",
"c+	c #CBD4E6",
"d+	c #DADDEA",
"e+	c #DEE0EC",
"f+	c #DDDFEA",
"g+	c #C3C5C5",
"h+	c #E1E1DF",
"i+	c #DBDCD9",
"j+	c #D5D1C7",
"k+	c #CDC5B4",
"l+	c #C9C7BF",
"m+	c #D5D5D3",
"n+	c #D3D3CF",
"o+	c #D3D3D0",
"p+	c #DBDBD8",
"q+	c #E1E1DE",
"r+	c #ADAEAA",
"s+	c #8AA5CA",
"t+	c #C6D1E3",
"u+	c #D7DDE9",
"v+	c #D8DBE7",
"w+	c #C2C3C3",
"x+	c #E3E3E0",
"y+	c #D6D6D3",
"z+	c #CECFCB",
"A+	c #CECECB",
"B+	c #CDCECB",
"C+	c #DFDFDC",
"D+	c #ABACA9",
"E+	c #A2B5D0",
"F+	c #D0D8E7",
"G+	c #DEE1EA",
"H+	c #E6E6E3",
"I+	c #E1E1DD",
"J+	c #C4C4C1",
"K+	c #B3B4B0",
"L+	c #B2B3B0",
"M+	c #BFC0BC",
"N+	c #AAACA8",
"O+	c #708EB5",
"P+	c #88A0BF",
"Q+	c #B1B6B9",
"R+	c #E5E5E2",
"S+	c #E0E0DC",
"T+	c #CDCDC9",
"U+	c #C1C1BE",
"V+	c #C0C1BD",
"W+	c #C0C0BD",
"X+	c #C8C9C5",
"Y+	c #A9AAA6",
"Z+	c #A3A7A6",
"`+	c #D1D1CF",
" @	c #CFCFCC",
".@	c #CECECC",
"+@	c #CCCCC9",
"@@	c #CBCCC8",
"#@	c #CACBC7",
"$@	c #A1A39E",
"                                            ",
"                . + @ # $ %                 ",
"            & * = - ; > , ' ) $ !           ",
"        ~ { ] - ^ - - / ( _ : < [ }         ",
"        | 1 2 3 4 5 6 7 8 9 ^ 0 : a b       ",
"      c d : e f g h i j : k _ l m n o p     ",
"    q r s t u v w x y z A B C j D E F G     ",
"    H I J K L M N O P Q R S T T U V W X Y   ",
"    Z `  ...+.@.#.$.%.&.*.=.*.-.;.>.,.'.).  ",
"  !.~.{.].^./.(._.:.<.[.}.|.|.|.1.1.[.[.2.  ",
"  3.4.5.6.7.8.9.0.a.b.c.d.e.e.f.g.h.i.j.k.  ",
"  l.m.n.o.o.p.{.q.r.b.s.t.u.v.w.w.x.y.1.z.  ",
"  A.B.C.D.E.F.G.H.I.J.K.L.M.M.N.N.N.O.P.Q.  ",
"    R.S.T.U.E.V.W.X.Y.Z.`. +.+++@+M.#+$+%+  ",
"    &+*+=+-+;+>+,+'+)+J.!+~+{+]+^+^+@+/+(+  ",
"      _+:+<+[+}+|+1+2+3+4+5+6+7+8+9+0+a+b+  ",
"        c+d+d+e+f+g+h+i+j+k+l+m+n+o+p+q+r+  ",
"        s+t+u+-+v+w+J.x+y+z+A+B+#+z+p+C+D+  ",
"            E+F+G+w+H+I+J+K+K+L+b+b+M+3+N+  ",
"              O+P+Q+R+S+T+U+V+V+W+M+X+3+Y+  ",
"                  Z+`+w. @.@B+#++@@@#@X+$@  ",
"                                            "};
