<svg xmlns="http://www.w3.org/2000/svg" viewBox="0 0 150 150"><defs><style>.a{fill:#fff;}</style></defs><path class="a" d="M122.085,61.9375a13.06884,13.06884,0,0,0-13.01642,12.15332H88.01642a13.04707,13.04707,0,0,0-26.03284,0H40.93146A13.05505,13.05505,0,0,0,14.85254,75c0,.13281.016.2616.02.39343a1.20094,1.20094,0,0,0,.02813.55622,13.04649,13.04649,0,0,0,25.8935,1.14117H62.121a13.04485,13.04485,0,0,0,25.75812,0h21.32684A13.05558,13.05558,0,1,0,122.085,61.9375ZM34.73828,73.084l-7.665,7.666-.00995.00659a1.49569,1.49569,0,0,1-2.10528.093l-3.8125-3.4541a1.49959,1.49959,0,0,1,2.01367-2.22266l2.75391,2.495,6.7041-6.705A1.49984,1.49984,0,0,1,34.73828,73.084ZM75,85.0625A10.0625,10.0625,0,1,1,85.0625,75,10.07345,10.07345,0,0,1,75,85.0625Zm47.085,0A10.0625,10.0625,0,1,1,132.14746,75,10.07345,10.07345,0,0,1,122.085,85.0625Z"/></svg>