<?xml version="1.0" encoding="UTF-8" standalone="no"?>
<!-- Generator: Adobe Illustrator 23.0.2, SVG Export Plug-In . SVG Version: 6.00 Build 0)  -->

<svg
   xmlns:dc="http://purl.org/dc/elements/1.1/"
   xmlns:cc="http://creativecommons.org/ns#"
   xmlns:rdf="http://www.w3.org/1999/02/22-rdf-syntax-ns#"
   xmlns:svg="http://www.w3.org/2000/svg"
   xmlns="http://www.w3.org/2000/svg"
   xmlns:sodipodi="http://sodipodi.sourceforge.net/DTD/sodipodi-0.dtd"
   xmlns:inkscape="http://www.inkscape.org/namespaces/inkscape"
   version="1.1"
   id="Ebene_1"
   x="0px"
   y="0px"
   viewBox="0 0 320 320"
   style="enable-background:new 0 0 320 320;"
   xml:space="preserve"
   sodipodi:docname="domain-join.svg"
   inkscape:version="0.92.4 (unknown)"><metadata
   id="metadata17"><rdf:RDF><cc:Work
       rdf:about=""><dc:format>image/svg+xml</dc:format><dc:type
         rdf:resource="http://purl.org/dc/dcmitype/StillImage" /></cc:Work></rdf:RDF></metadata><defs
   id="defs15" /><sodipodi:namedview
   pagecolor="#ffffff"
   bordercolor="#666666"
   borderopacity="1"
   objecttolerance="10"
   gridtolerance="10"
   guidetolerance="10"
   inkscape:pageopacity="0"
   inkscape:pageshadow="2"
   inkscape:window-width="1916"
   inkscape:window-height="1005"
   id="namedview13"
   showgrid="false"
   inkscape:zoom="0.7375"
   inkscape:cx="-183.72881"
   inkscape:cy="160"
   inkscape:window-x="0"
   inkscape:window-y="73"
   inkscape:window-maximized="0"
   inkscape:current-layer="Ebene_1" />
<style
   type="text/css"
   id="style2">
	.st0{fill:#878783;}
</style>
<title
   id="title4">Desktop-Join</title>
<g
   id="g10"
   style="fill:#ffffff;fill-opacity:1">
	<path
   class="st0"
   d="M0,20v200h320V20H0z M300,200H20V40h280L300,200z M210,240H110l-10,40l-20,20h160l-20-20L210,240z"
   id="path6"
   style="fill:#ffffff;fill-opacity:1" />
	<path
   class="st0"
   d="M196.9,100.8c-20.1,20.1-20.1,52.8,0,72.9s52.8,20.1,72.9,0c20.1-20.1,20.1-52.8,0-72.9   C249.7,80.7,217,80.7,196.9,100.8C196.9,100.8,196.9,100.8,196.9,100.8z M263,130.5v13.7h-22.8v22.8h-13.7v-22.8h-22.8v-13.7h22.8   v-22.7h13.7v22.7H263z"
   id="path8"
   style="fill:#ffffff;fill-opacity:1" />
</g>
</svg>