<?xml version="1.0" encoding="utf-8"?>
<!-- Generator: Adobe Illustrator 23.0.2, SVG Export Plug-In . SVG Version: 6.00 Build 0)  -->
<svg version="1.1" id="Ebene_1" xmlns="http://www.w3.org/2000/svg" xmlns:xlink="http://www.w3.org/1999/xlink" x="0px" y="0px"
	 viewBox="0 0 320 320" style="enable-background:new 0 0 320 320;" xml:space="preserve">
<style type="text/css">
	.st0{fill:#878783;}
</style>
<title>Desktop-Join</title>
<g>
	<path class="st0" d="M0,20v200h320V20H0z M300,200H20V40h280L300,200z M210,240H110l-10,40l-20,20h160l-20-20L210,240z"/>
	<path class="st0" d="M196.9,100.8c-20.1,20.1-20.1,52.8,0,72.9s52.8,20.1,72.9,0c20.1-20.1,20.1-52.8,0-72.9
		C249.7,80.7,217,80.7,196.9,100.8C196.9,100.8,196.9,100.8,196.9,100.8z M263,130.5v13.7h-22.8v22.8h-13.7v-22.8h-22.8v-13.7h22.8
		v-22.7h13.7v22.7H263z"/>
</g>
</svg>
