<svg xmlns="http://www.w3.org/2000/svg" viewBox="0 0 150 150"><defs><style>.a{fill:#fff;}</style></defs><rect class="a" x="39.13304" y="51.49647" width="9.82649" height="9.82649" rx="3"/><rect class="a" x="51.47843" y="51.49647" width="9.82649" height="9.82649" rx="3"/><rect class="a" x="63.82388" y="51.49647" width="9.82649" height="9.82649" rx="3"/><rect class="a" x="76.16932" y="51.49647" width="9.82649" height="9.82649" rx="3"/><rect class="a" x="88.51476" y="51.49647" width="9.82649" height="9.82649" rx="3"/><rect class="a" x="39.13304" y="63.84187" width="9.82649" height="9.82649" rx="3"/><rect class="a" x="51.47843" y="63.84187" width="9.82649" height="9.82649" rx="3"/><rect class="a" x="63.82388" y="63.84187" width="9.82649" height="9.82649" rx="3"/><rect class="a" x="76.16932" y="63.84187" width="9.82649" height="9.82649" rx="3"/><rect class="a" x="88.51476" y="63.84187" width="9.82649" height="9.82649" rx="3"/><rect class="a" x="39.13304" y="76.18731" width="9.82649" height="9.82649" rx="3"/><rect class="a" x="51.47843" y="76.18731" width="9.82649" height="9.82649" rx="3"/><rect class="a" x="63.82388" y="76.18731" width="9.82649" height="9.82649" rx="3"/><rect class="a" x="101.04047" y="51.49647" width="9.82649" height="9.82649" rx="3"/><rect class="a" x="101.04047" y="63.84187" width="9.82649" height="9.82649" rx="3"/><path class="a" d="M120.40771,39.09552H29.59229a3.00871,3.00871,0,0,0-3,3v54.5097a3.0087,3.0087,0,0,0,3,3H59.72186L56.84711,112.854l-6.051,6.051H99.20392l-6.051-6.051L90.27814,99.60522h30.12957a3.0087,3.0087,0,0,0,3-3V42.09552A3.00871,3.00871,0,0,0,120.40771,39.09552Zm-3,54.5097H32.59229V45.09552h84.81542Z"/></svg>