/* XPM */
static char * ooo_impress_xpm[] = {
"22 22 274 2",
"  	c None",
". 	c #91B3DC",
"+ 	c #AAC4E4",
"@ 	c #B2CAE7",
"# 	c #B3CBE8",
"$ 	c #AEC7E5",
"% 	c #A1BDE1",
"& 	c #9DBADF",
"* 	c #CBDAEE",
"= 	c #E2E9F4",
"- 	c #EAEEF5",
"; 	c #EDF0F6",
"> 	c #EEF1F7",
", 	c #EBEFF6",
"' 	c #E5EBF4",
") 	c #DAE4F1",
"! 	c #8DAFDA",
"~ 	c #7CA3D4",
"{ 	c #ADC5E3",
"] 	c #DCE5F1",
"^ 	c #EBEEF5",
"/ 	c #E0E6F0",
"( 	c #DBE3EE",
"_ 	c #E8ECF4",
": 	c #E9EDF4",
"< 	c #E4EAF3",
"[ 	c #C8D8EC",
"} 	c #97B7DD",
"| 	c #BFD1E8",
"1 	c #BACAE0",
"2 	c #92ABCC",
"3 	c #8DA7CA",
"4 	c #B0C1DA",
"5 	c #AFC1DA",
"6 	c #8BA5C9",
"7 	c #A3B8D5",
"8 	c #DCE3EE",
"9 	c #ECEFF5",
"0 	c #EBEEF4",
"a 	c #D7E1F0",
"b 	c #9BB8DE",
"c 	c #B3C8E4",
"d 	c #E3E9F2",
"e 	c #E1E6EF",
"f 	c #B5C4DA",
"g 	c #7292BC",
"h 	c #6D8EB9",
"i 	c #AFBFD7",
"j 	c #E5E9F2",
"k 	c #E9ECF4",
"l 	c #E8EBF3",
"m 	c #E7EBF3",
"n 	c #E5EAF2",
"o 	c #CCD9EC",
"p 	c #92B1D9",
"q 	c #7998BF",
"r 	c #C9D3E0",
"s 	c #DFE4EC",
"t 	c #E5E9F1",
"u 	c #E7EAF3",
"v 	c #E4E8F0",
"w 	c #C7D0DD",
"x 	c #BCC5D2",
"y 	c #CED2DB",
"z 	c #DBE0E8",
"A 	c #E6EAF2",
"B 	c #E6EAF3",
"C 	c #E6E9F3",
"D 	c #E4E8F2",
"E 	c #E2E7F1",
"F 	c #DEE5F0",
"G 	c #B1C7E3",
"H 	c #707C8A",
"I 	c #727679",
"J 	c #84888B",
"K 	c #B0B4B9",
"L 	c #CACED4",
"M 	c #A3A7AC",
"N 	c #787C80",
"O 	c #777B7F",
"P 	c #888D91",
"Q 	c #B5B9BD",
"R 	c #BDC0C5",
"S 	c #BCBFC4",
"T 	c #BBBEC3",
"U 	c #B6BAC1",
"V 	c #AFB5BE",
"W 	c #ABB6C4",
"X 	c #789BC8",
"Y 	c #C7D2E2",
"Z 	c #C4C8D0",
"` 	c #7E8287",
" .	c #4F5557",
"..	c #4C5255",
"+.	c #4E5357",
"@.	c #8A8F94",
"#.	c #BFC2C9",
"$.	c #888B8B",
"%.	c #808180",
"&.	c #7E8080",
"*.	c #7D7F7F",
"=.	c #747879",
"-.	c #8DA1BA",
";.	c #7CA0CE",
">.	c #DBE3EF",
",.	c #E3E7F0",
"'.	c #DDE2EA",
").	c #A8ADB4",
"!.	c #73777C",
"~.	c #B5B9C0",
"{.	c #E0E3EB",
"].	c #DFE1EA",
"^.	c #97999B",
"/.	c #848583",
"(.	c #848582",
"_.	c #878785",
":.	c #898A87",
"<.	c #8B8C89",
"[.	c #8C8D8A",
"}.	c #8D8D8B",
"|.	c #8E8F8D",
"1.	c #858887",
"2.	c #A3B7D0",
"3.	c #7A9ECC",
"4.	c #DFE5F0",
"5.	c #E5E8F0",
"6.	c #E6E8F0",
"7.	c #E4E7EF",
"8.	c #DEE0E8",
"9.	c #E8E9F2",
"0.	c #E8EAF2",
"a.	c #E9EBF3",
"b.	c #BCBDC0",
"c.	c #D8D8D7",
"d.	c #D7CCCA",
"e.	c #C9918F",
"f.	c #C98C8B",
"g.	c #DFD2D1",
"h.	c #E1E1DF",
"i.	c #D5D5D4",
"j.	c #E1E1E0",
"k.	c #BDC0C1",
"l.	c #B5C8E2",
"m.	c #7C9ECB",
"n.	c #DAE1EE",
"o.	c #DEE3EE",
"p.	c #E0E4EF",
"q.	c #E2E6F0",
"r.	c #E5E8F1",
"s.	c #E5E8F2",
"t.	c #BBBDC1",
"u.	c #EDDAD9",
"v.	c #D06564",
"w.	c #E56C6B",
"x.	c #DC7679",
"y.	c #C56668",
"z.	c #DEC8C7",
"A.	c #DCDCDA",
"B.	c #E7E7E7",
"C.	c #C0C3C5",
"D.	c #B4C7E1",
"E.	c #7297C6",
"F.	c #D5DDEC",
"G.	c #E0E4EE",
"H.	c #E2E4EF",
"I.	c #E3E5EF",
"J.	c #E4E6F0",
"K.	c #E5E7F1",
"L.	c #E6E8F1",
"M.	c #E5E6F0",
"N.	c #BABCC0",
"O.	c #E5C0C0",
"P.	c #DD6867",
"Q.	c #E26D60",
"R.	c #A3978E",
"S.	c #A88595",
"T.	c #D3B1B1",
"U.	c #DDDDDB",
"V.	c #E8E8E7",
"W.	c #C3C5C6",
"X.	c #A9BEDC",
"Y.	c #BCCCE2",
"Z.	c #E1E4EE",
"`.	c #E0E3EE",
" +	c #E2E4EE",
".+	c #E4E5EF",
"++	c #E3E4EF",
"@+	c #E2E3EE",
"#+	c #BBBCC0",
"$+	c #EBD3D2",
"%+	c #CB6F6D",
"&+	c #CF8773",
"*+	c #A8A785",
"=+	c #A67173",
"-+	c #DAC0BE",
";+	c #D9D9D7",
">+	c #E5E5E4",
",+	c #BBC0C3",
"'+	c #84A3CC",
")+	c #8EA9CF",
"!+	c #DDE2EE",
"~+	c #D8DDEB",
"{+	c #D9DDEB",
"]+	c #DADEEB",
"^+	c #DCE0EC",
"/+	c #E0E2ED",
"(+	c #BBBDC0",
"_+	c #F5F4F2",
":+	c #DEBBB9",
"<+	c #C5857E",
"[+	c #BA877B",
"}+	c #DAB7B4",
"|+	c #E8E6E4",
"1+	c #DEDEDC",
"2+	c #E9E9E7",
"3+	c #A0ABB5",
"4+	c #BECBE1",
"5+	c #D9DDEA",
"6+	c #D9DCE9",
"7+	c #DCDFEB",
"8+	c #BCBEC1",
"9+	c #F4F4F3",
"0+	c #DFDEDD",
"a+	c #D8D3D2",
"b+	c #D8D3D1",
"c+	c #DAD9D7",
"d+	c #DADAD8",
"e+	c #E7E7E6",
"f+	c #AFB2B1",
"g+	c #CBD4E6",
"h+	c #DADDEA",
"i+	c #DEE0EC",
"j+	c #E1E3EE",
"k+	c #E4E6EF",
"l+	c #C1C3C8",
"m+	c #D2D3D2",
"n+	c #CECFCE",
"o+	c #CCCCCC",
"p+	c #C0C0BF",
"q+	c #BBBCBA",
"r+	c #CBCCCC",
"s+	c #CBCDCE",
"t+	c #C2C6C9",
"u+	c #A4A5A1",
"v+	c #8AA5CA",
"w+	c #C6D1E3",
"x+	c #D7DDE9",
"y+	c #DBDFEC",
"z+	c #DEE1ED",
"A+	c #DADDE8",
"B+	c #D5D8E2",
"C+	c #D4D7E1",
"D+	c #C8CBD4",
"E+	c #A4A5A7",
"F+	c #8E8F8F",
"G+	c #BDC2C9",
"H+	c #9CAFC8",
"I+	c #A2B5D0",
"J+	c #D0D8E7",
"K+	c #E1E4EF",
"L+	c #DFE1ED",
"M+	c #ACAEB4",
"N+	c #8D9193",
"O+	c #66717D",
"P+	c #667585",
"Q+	c #708EB5",
"R+	c #8AA3C4",
"S+	c #B0BFD5",
"T+	c #C0CDE0",
"U+	c #BEC8D7",
"V+	c #92979E",
"W+	c #667486",
"X+	c #5C7596",
"Y+	c #494B49",
"                                            ",
"                . + @ # $ %                 ",
"            & * = - ; > , ' ) $ !           ",
"        ~ { ] - ^ - - / ( _ : < [ }         ",
"        | 1 2 3 4 5 6 7 8 9 ^ 0 : a b       ",
"      c d : e f g h i j : k _ l m n o p     ",
"    q r s t u v w x y z A B C j D E F G     ",
"    H I J K L M N O P Q R R S S T U V W X   ",
"    Y Z `  ...+.@.#.$.%.%.%.%.%.%.&.*.=.-.  ",
"  ;.>.,.'.).!.~.{.].^./.(._.:.<.[.}.|.1.2.  ",
"  3.4.5.6.7.8.9.0.a.b.c.d.e.f.g.h.i.j.k.l.  ",
"  m.n.o.p.p.q.,.r.s.t.u.v.w.x.y.z.A.B.C.D.  ",
"  E.F.G.H.I.J.K.L.M.N.O.P.Q.R.S.T.U.V.W.X.  ",
"    Y.Z.`. +I..+++@+#+$+%+&+*+=+-+;+>+,+'+  ",
"    )+!+~+{+]+^+/+++(+_+:+<+[+}+|+1+2+3+    ",
"      4+5+6+7+/+++M.8+9+0+a+b+c+d+;+e+f+    ",
"        g+h+h+i+j+k+l+m+n+o+p+q+r+s+t+u+    ",
"        v+w+x+{+y+z+A+B+C+D+E+F+G+H+        ",
"            I+J+K+/+L+z+A+M+N+O+P+          ",
"              Q+R+S+T+U+V+W+X+    Y+        ",
"                                            ",
"                                            "};
