/* XPM */
static char * ooo_web_xpm[] = {
"22 22 263 2",
"  	c None",
". 	c #89ADD9",
"+ 	c #9FBCE0",
"@ 	c #A6C2E4",
"# 	c #A3BFE1",
"$ 	c #9AB8DE",
"% 	c #94B4DD",
"& 	c #C6D7EC",
"* 	c #DEE8F3",
"= 	c #E0E9F3",
"- 	c #DCE6F2",
"; 	c #DDE7F3",
"> 	c #EAEFF5",
", 	c #E7EDF5",
"' 	c #DBE5F2",
") 	c #AAC4E4",
"! 	c #AEC6E4",
"~ 	c #DBE5F1",
"{ 	c #DFE8F3",
"] 	c #E6ECF4",
"^ 	c #DDE6F2",
"/ 	c #D2E0EF",
"( 	c #D1DEED",
"_ 	c #DDE4EF",
": 	c #EBEEF5",
"< 	c #CDDCEE",
"[ 	c #8FB1DA",
"} 	c #BBCFE8",
"| 	c #B1C5DE",
"1 	c #83A0C7",
"2 	c #7A9AC3",
"3 	c #B3C5DD",
"4 	c #ADC1DB",
"5 	c #7697C2",
"6 	c #96AFD0",
"7 	c #DAE2EE",
"8 	c #E5EAF3",
"9 	c #D0DEEE",
"0 	c #CEDDED",
"a 	c #CCDBED",
"b 	c #CADAED",
"c 	c #92B1DB",
"d 	c #B1C8E4",
"e 	c #D2DFEF",
"f 	c #D6E1EE",
"g 	c #A7BED9",
"h 	c #577FB1",
"i 	c #547CAF",
"j 	c #BFCBDD",
"k 	c #E8ECF3",
"l 	c #E4E9F3",
"m 	c #D8E2EF",
"n 	c #D2DFEE",
"o 	c #C4D6EB",
"p 	c #BED3E9",
"q 	c #BFD3E9",
"r 	c #C5D6EB",
"s 	c #7695BD",
"t 	c #C9D5E3",
"u 	c #C3D5EA",
"v 	c #C1D5EA",
"w 	c #C2D6EA",
"x 	c #D5E1EF",
"y 	c #D5DCE7",
"z 	c #CACFD9",
"A 	c #CCD0D7",
"B 	c #DDE0E7",
"C 	c #E4E9F2",
"D 	c #C6D7EB",
"E 	c #BED3E8",
"F 	c #BAD0E7",
"G 	c #B8CFE7",
"H 	c #B7CEE6",
"I 	c #BBD0E7",
"J 	c #ADC5E2",
"K 	c #677584",
"L 	c #5B646A",
"M 	c #6A7781",
"N 	c #9AACBD",
"O 	c #C3CDDB",
"P 	c #ABAFB5",
"Q 	c #707478",
"R 	c #6D7175",
"S 	c #ABAFB6",
"T 	c #E1E5EC",
"U 	c #D5E0EE",
"V 	c #CCDAEC",
"W 	c #D8E1EF",
"X 	c #CFDCEC",
"Y 	c #BACFE6",
"Z 	c #95B7DB",
"` 	c #83ABD5",
" .	c #AFC6E3",
"..	c #769CCE",
"+.	c #C9D8EA",
"@.	c #A9BCD0",
"#.	c #727C83",
"$.	c #393F42",
"%.	c #464B4E",
"&.	c #3E4446",
"*.	c #8A8E93",
"=.	c #D8DBE2",
"-.	c #E8EBF3",
";.	c #E8EAF3",
">.	c #B3CBE5",
",.	c #B3CBE4",
"'.	c #A7C1DF",
").	c #9AB7DA",
"!.	c #73A0CF",
"~.	c #78A3D1",
"{.	c #93B4D9",
"].	c #A6BEDE",
"^.	c #7299CA",
"/.	c #D1DEEE",
"(.	c #C7D7EA",
"_.	c #DEE3ED",
":.	c #B0B4BB",
"<.	c #666B6E",
"[.	c #BABDC4",
"}.	c #E4E6EF",
"|.	c #DCE3F0",
"1.	c #ABC6E2",
"2.	c #9BBBDD",
"3.	c #7CA6D2",
"4.	c #729FCF",
"5.	c #77A2D0",
"6.	c #8BAED6",
"7.	c #82A8D3",
"8.	c #AAC1DE",
"9.	c #A4BCDC",
"0.	c #6F96C8",
"a.	c #DCE5F0",
"b.	c #BCD0E6",
"c.	c #C6D6E9",
"d.	c #E4E7F1",
"e.	c #E1E4EC",
"f.	c #E6E8F1",
"g.	c #E7E9F2",
"h.	c #CCDAEB",
"i.	c #8EB2D8",
"j.	c #75A1D0",
"k.	c #93B3D8",
"l.	c #8AADD5",
"m.	c #C6D1E5",
"n.	c #A7BEDD",
"o.	c #7297C7",
"p.	c #E2E8F1",
"q.	c #E0E4EE",
"r.	c #CFDAEA",
"s.	c #C0D1E7",
"t.	c #B1C8E3",
"u.	c #D1DBEC",
"v.	c #E5E8F2",
"w.	c #E7E9F3",
"x.	c #D3DBEC",
"y.	c #7DA6D2",
"z.	c #78A2D1",
"A.	c #74A0D0",
"B.	c #76A2D0",
"C.	c #9EB9DB",
"D.	c #D2D9E9",
"E.	c #A8BEDD",
"F.	c #6990C2",
"G.	c #D8DFED",
"H.	c #DFE3EE",
"I.	c #AEC6E2",
"J.	c #A1BEDE",
"K.	c #CDD8EA",
"L.	c #E3E5F0",
"M.	c #E1E3EF",
"N.	c #E0E2EF",
"O.	c #D1D9EB",
"P.	c #D2DAEC",
"Q.	c #9BB8DB",
"R.	c #BDCCE3",
"S.	c #D7DDEB",
"T.	c #9BB4D6",
"U.	c #B9C9E1",
"V.	c #DEE2ED",
"W.	c #DCE1ED",
"X.	c #9BBADC",
"Y.	c #91B4D9",
"Z.	c #88ADD6",
"`.	c #A3BDDD",
" +	c #E4E5F1",
".+	c #E2E4F1",
"++	c #B8CAE4",
"@+	c #739FCF",
"#+	c #8FB1D7",
"$+	c #D4DAEA",
"%+	c #DBE1EE",
"&+	c #799BC8",
"*+	c #8CA8CE",
"=+	c #DADEEB",
"-+	c #ABC2DF",
";+	c #80A9D4",
">+	c #7EA7D3",
",+	c #80A8D4",
"'+	c #ACC3E0",
")+	c #E6E7F1",
"!+	c #E8E8F2",
"~+	c #E7E7F2",
"{+	c #E4E6F1",
"]+	c #C7D3E8",
"^+	c #7AA4D1",
"/+	c #D7DCEB",
"(+	c #BDCCE2",
"_+	c #C7D2E5",
":+	c #D7DBE9",
"<+	c #D1D7E7",
"[+	c #92B3D8",
"}+	c #82AAD4",
"|+	c #8AAFD7",
"1+	c #C3D2E7",
"2+	c #E7E8F2",
"3+	c #E8E9F3",
"4+	c #E5E7F2",
"5+	c #C7D4E8",
"6+	c #7AA4D2",
"7+	c #C3D0E5",
"8+	c #DCE2EE",
"9+	c #8FAACF",
"0+	c #6B8FBE",
"a+	c #D7DEEB",
"b+	c #A3BDDC",
"c+	c #ADC4E0",
"d+	c #E6E8F2",
"e+	c #E3E6F1",
"f+	c #D9DFED",
"g+	c #89AED6",
"h+	c #92B2D8",
"i+	c #E0E3EF",
"j+	c #A0B6D5",
"k+	c #6C8FBD",
"l+	c #CFD8E7",
"m+	c #AAC2DF",
"n+	c #8BAFD7",
"o+	c #CCD6E8",
"p+	c #E0E2EE",
"q+	c #E1E4EF",
"r+	c #E2E4F0",
"s+	c #DEE1ED",
"t+	c #BBCDE4",
"u+	c #D7DFEC",
"v+	c #9FB5D3",
"w+	c #4B70A2",
"x+	c #C6D4E6",
"y+	c #DFE2EE",
"z+	c #DCE0EC",
"A+	c #DCDFEC",
"B+	c #DDE0ED",
"C+	c #DEE2EE",
"D+	c #E0E4EF",
"E+	c #C4D0E2",
"F+	c #6F8DB6",
"G+	c #5F80AB",
"H+	c #8DA5C5",
"I+	c #AEBDD4",
"J+	c #BCCADF",
"K+	c #BDCBE0",
"L+	c #B9C7DC",
"M+	c #9CAFCA",
"N+	c #7592B9",
"                                            ",
"                . + @ @ # $                 ",
"            % & * = - ; > , ' )             ",
"          ! ~ { ] ^ / ( _ : ] ^ < [         ",
"        } | 1 2 3 4 5 6 7 8 9 0 a b c       ",
"      d e < f g h i j k l m n o p q r       ",
"    s t u v w x y z A B C D E F G H I J     ",
"    K L M N O P Q R S T U V W X Y Z `  ...  ",
"    +.@.#.$.%.&.*.=.-.;.V >.,.'.).!.~.{.].  ",
"  ^./.(._.:.<.[.}.;.;.|.1.2.3.4.5.6.7.8.9.  ",
"  0.a.b.c.d.e.f.g.;.;.h.i.j.4.4.4.k.l.m.n.  ",
"  o.p.q.r.s.t.u.v.g.w.x.y.z.A.4.4.B.C.D.E.  ",
"  F.G.H.q.I.2.J.K.L.M.N.O.P.Q.4.4.z.R.S.T.  ",
"    U.V.W.X.Z Y.Z.`.N. + +.+++@+4.#+$+%+&+  ",
"    *+q.=+-+;+>+,+'+)+!+~+{+]+^+!.k./+(+    ",
"      _+:+<+[+}+|+1+2+3+2+4+5+,+6+7+8+9+    ",
"      0+a+:+b+` c+L.f.g.d+e+f+g+h+i+j+      ",
"        k+l+m+n+o+p+q+r+q+i+s+t+u+v+        ",
"          w+v+x+y+z+A+z+B+C+D+E+F+          ",
"              G+H+I+J+K+L+M+N+              ",
"                                            ",
"                                            "};
