/* XPM */
static char * ooo_math_xpm[] = {
"22 22 240 2",
"  	c None",
". 	c #89ADD9",
"+ 	c #9FBCE0",
"@ 	c #A6C2E4",
"# 	c #A3BFE1",
"$ 	c #9AB8DE",
"% 	c #94B4DD",
"& 	c #C8D8ED",
"* 	c #E6ECF5",
"= 	c #EAEEF5",
"- 	c #EDF0F6",
"; 	c #EBEFF5",
"> 	c #E7EDF5",
", 	c #DBE5F2",
"' 	c #AAC4E4",
") 	c #AFC7E5",
"! 	c #E3E9F3",
"~ 	c #ECEFF6",
"{ 	c #ECF0F6",
"] 	c #ECEFF5",
"^ 	c #E3E9F2",
"/ 	c #DDE4EF",
"( 	c #EBEEF5",
"_ 	c #E8EDF4",
": 	c #D0DEEF",
"< 	c #8FB1DA",
"[ 	c #BCD0E8",
"} 	c #BBCBE1",
"| 	c #86A2C7",
"1 	c #7E9CC5",
"2 	c #B8C8DE",
"3 	c #7A9AC3",
"4 	c #98B0D0",
"5 	c #E9EDF4",
"6 	c #E9ECF4",
"7 	c #E8ECF4",
"8 	c #E7EBF3",
"9 	c #D8E3F1",
"0 	c #92B1DB",
"a 	c #B2C9E4",
"b 	c #E6EBF3",
"c 	c #EAEDF4",
"d 	c #E8EBF3",
"e 	c #C2CDDF",
"f 	c #5C81B3",
"g 	c #547CAF",
"h 	c #BFCBDD",
"i 	c #E8ECF3",
"j 	c #E6EAF2",
"k 	c #D1DEEE",
"l 	c #7695BD",
"m 	c #D4DBE6",
"n 	c #E8EBF2",
"o 	c #E9ECF3",
"p 	c #D9DEE8",
"q 	c #CACFD9",
"r 	c #CCD0D7",
"s 	c #DDE0E7",
"t 	c #E7EAF3",
"u 	c #E3E8F1",
"v 	c #B1C7E4",
"w 	c #687684",
"x 	c #656A6D",
"y 	c #7E8285",
"z 	c #BABEC4",
"A 	c #D4D8DF",
"B 	c #ABB0B5",
"C 	c #707478",
"D 	c #6D7175",
"E 	c #ABAFB6",
"F 	c #E1E5EC",
"G 	c #E4E8F1",
"H 	c #DBE0ED",
"I 	c #D2DAE9",
"J 	c #D0DAEB",
"K 	c #769CCE",
"L 	c #D1DCEC",
"M 	c #CCD0D8",
"N 	c #7E8286",
"O 	c #3B4143",
"P 	c #464B4E",
"Q 	c #3E4446",
"R 	c #8A8E93",
"S 	c #D8DBE2",
"T 	c #E9EBF3",
"U 	c #E8EAF3",
"V 	c #E6E9F2",
"W 	c #DDE2EE",
"X 	c #D5DAEA",
"Y 	c #D2D8E8",
"Z 	c #D1D7E7",
"` 	c #D2DAEA",
" .	c #A7BFDF",
"..	c #7299CA",
"+.	c #E2E8F2",
"@.	c #E4E8F0",
"#.	c #E3E6EE",
"$.	c #B1B4BB",
"%.	c #666B6E",
"&.	c #BABDC4",
"*.	c #E4E6EF",
"=.	c #E5E7F1",
"-.	c #DBDFED",
";.	c #D7DCEB",
">.	c #D6DBEA",
",.	c #D4DAE9",
"'.	c #A5BDDD",
").	c #6F96C8",
"!.	c #E4E9F2",
"~.	c #E3E6EF",
"{.	c #E4E7F0",
"].	c #E5E8F1",
"^.	c #E1E4EC",
"/.	c #E6E8F1",
"(.	c #E7E9F2",
"_.	c #E3E5F1",
":.	c #DCDFEE",
"<.	c #DADEED",
"[.	c #D9DDEC",
"}.	c #D8DCEB",
"|.	c #D4D9E9",
"1.	c #A7BEDD",
"2.	c #7297C7",
"3.	c #E2E8F1",
"4.	c #E0E4EE",
"5.	c #E1E5EF",
"6.	c #E2E6F0",
"7.	c #E6E8F2",
"8.	c #E7E9F3",
"9.	c #D3DCED",
"0.	c #B4C9E4",
"a.	c #C4D3E6",
"b.	c #C1D1E5",
"c.	c #C0D1E6",
"d.	c #BFD1E5",
"e.	c #B8CBE4",
"f.	c #A2BBDC",
"g.	c #6990C2",
"h.	c #D8DFED",
"i.	c #DFE3EE",
"j.	c #E1E4EF",
"k.	c #E6E7F1",
"l.	c #E1E3EF",
"m.	c #E0E2EF",
"n.	c #CAD5EA",
"o.	c #C4D3E5",
"p.	c #BCCDE7",
"q.	c #CAD5E9",
"r.	c #C9D4E9",
"s.	c #C7D3E8",
"t.	c #C6D2E7",
"u.	c #99B3D6",
"v.	c #B9C9E1",
"w.	c #DEE2ED",
"x.	c #E0E3EE",
"y.	c #E2E4EF",
"z.	c #E2E5EF",
"A.	c #E2E3EF",
"B.	c #E3E4F0",
"C.	c #E4E5F1",
"D.	c #E1E3F1",
"E.	c #C5D3E7",
"F.	c #BFCFE4",
"G.	c #D4DAEB",
"H.	c #DADEEC",
"I.	c #DBE1EE",
"J.	c #799BC8",
"K.	c #8CA8CE",
"L.	c #DADEEB",
"M.	c #DBDFEB",
"N.	c #DCDFEB",
"O.	c #DEE0EC",
"P.	c #E0E2EE",
"Q.	c #E4E5EF",
"R.	c #E7E7F1",
"S.	c #E8E8F2",
"T.	c #E7E7F2",
"U.	c #D8DEEE",
"V.	c #BCCCE1",
"W.	c #B5C6DF",
"X.	c #D8DCEC",
"Y.	c #BDCCE2",
"Z.	c #C7D2E5",
"`.	c #D7DBE9",
" +	c #D5DAE8",
".+	c #DADDEA",
"++	c #E5E6F0",
"@+	c #E7E8F2",
"#+	c #E8E9F3",
"$+	c #E5E7F2",
"%+	c #C4D0E5",
"&+	c #B7C8DD",
"*+	c #B5C5DE",
"=+	c #D6DCEB",
"-+	c #DCE2EE",
";+	c #8FAACF",
">+	c #6B8FBE",
",+	c #D7DEEB",
"'+	c #DDE0EC",
")+	c #E1E3EE",
"!+	c #E4E6F0",
"~+	c #E3E6F1",
"{+	c #BDCBE2",
"]+	c #B1C3D9",
"^+	c #B1C2DC",
"/+	c #E0E4EF",
"(+	c #A0B6D5",
"_+	c #6C8FBD",
":+	c #CFD8E7",
"<+	c #DBDEEB",
"[+	c #E2E4F0",
"}+	c #CFD7E8",
"|+	c #A4B9D4",
"1+	c #A1B7D4",
"2+	c #9FB5D3",
"3+	c #4B70A2",
"4+	c #A7BAD5",
"5+	c #D8DEEB",
"6+	c #DFE2EE",
"7+	c #DCE0EC",
"8+	c #DCDFEC",
"9+	c #D7DCEA",
"0+	c #9FB4D3",
"a+	c #9AB1CF",
"b+	c #B2C3DA",
"c+	c #6F8DB6",
"d+	c #5F80AB",
"e+	c #8DA5C5",
"f+	c #AEBDD4",
"g+	c #BCCADF",
"h+	c #BDCBE0",
"i+	c #A4B8D5",
"j+	c #92ABCA",
"k+	c #4F76AA",
"l+	c #3D69A2",
"m+	c #6689B7",
"n+	c #96ADCA",
"o+	c #8AA4C5",
"p+	c #89A4C5",
"q+	c #6D8FBA",
"                                            ",
"                . + @ @ # $                 ",
"            % & * = - - ; > , '             ",
"          ) ! ~ { ~ ] ^ / ( = _ : <         ",
"        [ } | 1 2 2 3 4 / 5 6 7 8 9 0       ",
"      a b c d e f g h i 5 6 7 i 8 j k       ",
"    l m n o o 6 p q r s 6 6 d 8 t j u v     ",
"    w x y z A B C D E F d d t t G H I J K   ",
"    L M N O P Q R S d d T U V W X Y Z `  .  ",
"  ..+.@.#.$.%.&.*.U U U U =.-.;.>.,.Y Y '.  ",
"  ).!.~.{.].^./.(.U U U _.:.<.[.}.>.|.Y 1.  ",
"  2.3.4.5.6.{.].7.(.8.9.0.a.b.c.c.d.d.e.f.  ",
"  g.h.i.4.j.~.{.k.=.l.m.n.o.p.q.r.s.t.q.u.  ",
"    v.w.w.x.y.z.A.l.B.C.D.E.F.G.H.;.X I.J.  ",
"    K.4.L.M.N.O.P.Q.R.S.T.U.V.W.X.;.;.Y.    ",
"      Z.`. +.+O.y.++@+#+@+$+%+&+*+=+-+;+    ",
"      >+,+`..+'+)+!+/.(.7.~+{+]+^+/+(+      ",
"        _+:+'+<+'+P.j.[+j.}+|+1+i.2+        ",
"          3+4+5+6+7+8+7+9+0+a+b+c+          ",
"              d+e+f+g+h+i+j+k+l+            ",
"                        m+n+o+p+p+p+p+q+    ",
"                                            "};
