/* XPM */
static char * ooo_base_xpm[] = {
"22 22 240 2",
"  	c None",
". 	c #89ADD9",
"+ 	c #9FBCE0",
"@ 	c #A6C2E4",
"# 	c #A3BFE1",
"$ 	c #9AB8DE",
"% 	c #94B4DD",
"& 	c #C8D8ED",
"* 	c #E6ECF5",
"= 	c #EAEEF5",
"- 	c #EDF0F6",
"; 	c #EBEFF5",
"> 	c #E7EDF5",
", 	c #DBE5F2",
"' 	c #AAC4E4",
") 	c #AFC7E5",
"! 	c #E3E9F3",
"~ 	c #ECEFF6",
"{ 	c #ECF0F6",
"] 	c #ECEFF5",
"^ 	c #E3E9F2",
"/ 	c #DDE4EF",
"( 	c #EBEEF5",
"_ 	c #E8EDF4",
": 	c #D0DEEF",
"< 	c #8FB1DA",
"[ 	c #BCD0E8",
"} 	c #BBCBE1",
"| 	c #86A2C7",
"1 	c #7E9CC5",
"2 	c #B8C8DE",
"3 	c #7A9AC3",
"4 	c #98B0D0",
"5 	c #E9EDF4",
"6 	c #E9ECF4",
"7 	c #E8ECF4",
"8 	c #E7EBF3",
"9 	c #D8E3F1",
"0 	c #92B1DB",
"a 	c #B2C9E4",
"b 	c #E6EBF3",
"c 	c #EAEDF4",
"d 	c #E8EBF3",
"e 	c #C2CDDF",
"f 	c #5C81B3",
"g 	c #547CAF",
"h 	c #BFCBDD",
"i 	c #E8ECF3",
"j 	c #E6EAF2",
"k 	c #D1DEEE",
"l 	c #7695BD",
"m 	c #D4DBE6",
"n 	c #E8EBF2",
"o 	c #E9ECF3",
"p 	c #D9DEE8",
"q 	c #CACFD9",
"r 	c #CCD0D7",
"s 	c #DDE0E7",
"t 	c #E7EAF3",
"u 	c #E3E8F1",
"v 	c #B1C7E4",
"w 	c #687684",
"x 	c #656A6D",
"y 	c #7E8285",
"z 	c #BABEC4",
"A 	c #D4D8DF",
"B 	c #ABB0B5",
"C 	c #707478",
"D 	c #6D7175",
"E 	c #ABAFB6",
"F 	c #E1E5EC",
"G 	c #E4E8F1",
"H 	c #DBE0ED",
"I 	c #D2DAE9",
"J 	c #D0DAEB",
"K 	c #769CCE",
"L 	c #D1DCEC",
"M 	c #CCD0D8",
"N 	c #7E8286",
"O 	c #3B4143",
"P 	c #464B4E",
"Q 	c #3E4446",
"R 	c #8A8E93",
"S 	c #D8DBE2",
"T 	c #E9EBF3",
"U 	c #E8EAF3",
"V 	c #E6E9F2",
"W 	c #DDE2EE",
"X 	c #D5DAEA",
"Y 	c #D2D8E8",
"Z 	c #D1D7E7",
"` 	c #D2DAEA",
" .	c #A7BFDF",
"..	c #7299CA",
"+.	c #E2E8F2",
"@.	c #E4E8F0",
"#.	c #E3E6EE",
"$.	c #B1B4BB",
"%.	c #666B6E",
"&.	c #BABDC4",
"*.	c #E4E6EF",
"=.	c #E7EAF2",
"-.	c #C8CBD2",
";.	c #A5A7AC",
">.	c #98999C",
",.	c #8F8F92",
"'.	c #8E8F91",
").	c #95989D",
"!.	c #A1A7B2",
"~.	c #C8CFDE",
"{.	c #A5BDDD",
"].	c #6F96C8",
"^.	c #E4E9F2",
"/.	c #E3E6EF",
"(.	c #E4E7F0",
"_.	c #E5E8F1",
":.	c #E1E4EC",
"<.	c #E6E8F1",
"[.	c #E7E9F2",
"}.	c #9A9B9F",
"|.	c #909090",
"1.	c #AAAAAA",
"2.	c #ABABAB",
"3.	c #A8A8A8",
"4.	c #A3A3A3",
"5.	c #9C9C9C",
"6.	c #8E8E8E",
"7.	c #77787B",
"8.	c #8AA1BD",
"9.	c #7297C7",
"0.	c #E2E8F1",
"a.	c #E0E4EE",
"b.	c #E1E5EF",
"c.	c #E2E6F0",
"d.	c #E6E8F2",
"e.	c #B7B8BF",
"f.	c #828282",
"g.	c #A5A5A5",
"h.	c #A0A0A0",
"i.	c #9B9B9B",
"j.	c #959595",
"k.	c #8B8B8B",
"l.	c #7F7F7F",
"m.	c #767676",
"n.	c #58616E",
"o.	c #6990C2",
"p.	c #D8DFED",
"q.	c #DFE3EE",
"r.	c #E1E4EF",
"s.	c #E6E7F1",
"t.	c #E5E7F1",
"u.	c #9C9DA3",
"v.	c #888888",
"w.	c #989898",
"x.	c #929292",
"y.	c #7C7C7C",
"z.	c #7A7A7A",
"A.	c #5E5E60",
"B.	c #B9C9E1",
"C.	c #DEE2ED",
"D.	c #E0E3EE",
"E.	c #E2E4EF",
"F.	c #E2E5EF",
"G.	c #E2E3EF",
"H.	c #E1E3EF",
"I.	c #9D9D9D",
"J.	c #ADADAD",
"K.	c #A1A1A1",
"L.	c #979797",
"M.	c #939393",
"N.	c #969696",
"O.	c #787878",
"P.	c #5E5E5F",
"Q.	c #8CA8CE",
"R.	c #DADEEB",
"S.	c #DBDFEB",
"T.	c #DCDFEB",
"U.	c #DEE0EC",
"V.	c #E0E2EE",
"W.	c #E4E5EF",
"X.	c #A0A0A6",
"Y.	c #818181",
"Z.	c #9A9A9A",
"`.	c #A6A6A6",
" +	c #8C8C8C",
".+	c #6C6C6C",
"++	c #626262",
"@+	c #C7D2E5",
"#+	c #D7DBE9",
"$+	c #D5DAE8",
"%+	c #DADDEA",
"&+	c #E5E6F0",
"*+	c #A1A2A8",
"=+	c #858585",
"-+	c #8F8F8F",
";+	c #7E7E7E",
">+	c #707070",
",+	c #666666",
"'+	c #6B8FBE",
")+	c #D7DEEB",
"!+	c #DDE0EC",
"~+	c #E1E3EE",
"{+	c #E4E6F0",
"]+	c #A1A2A7",
"^+	c #898989",
"/+	c #B0B0B0",
"(+	c #B3B3B3",
"_+	c #6D6D6D",
":+	c #6A6A6A",
"<+	c #6C8FBD",
"[+	c #CFD8E7",
"}+	c #DBDEEB",
"|+	c #9B9CA2",
"1+	c #999999",
"2+	c #919191",
"3+	c #868686",
"4+	c #7D7D7D",
"5+	c #777777",
"6+	c #4B70A2",
"7+	c #A7BAD5",
"8+	c #D8DEEB",
"9+	c #DFE2EE",
"0+	c #DCE0EC",
"a+	c #9D9EA6",
"b+	c #9F9F9F",
"c+	c #A7A7A7",
"d+	c #808080",
"e+	c #747474",
"f+	c #5F80AB",
"g+	c #8DA5C5",
"h+	c #AEBDD4",
"i+	c #A8B6CA",
"j+	c #6D747E",
"k+	c #949495",
"l+	c #A4A4A4",
"m+	c #878787",
"n+	c #7B7B7B",
"o+	c #525252",
"p+	c #727272",
"q+	c #8D8D8D",
"                                            ",
"                . + @ @ # $                 ",
"            % & * = - - ; > , '             ",
"          ) ! ~ { ~ ] ^ / ( = _ : <         ",
"        [ } | 1 2 2 3 4 / 5 6 7 8 9 0       ",
"      a b c d e f g h i 5 6 7 i 8 j k       ",
"    l m n o o 6 p q r s 6 6 d 8 t j u v     ",
"    w x y z A B C D E F d d t t G H I J K   ",
"    L M N O P Q R S d d T U V W X Y Z `  .  ",
"  ..+.@.#.$.%.&.*.U U =.-.;.>.,.'.).!.~.{.  ",
"  ].^./.(._.:.<.[.U U }.|.1.2.3.4.5.6.7.8.  ",
"  9.0.a.b.c.(._.d.[.e.f.1.g.h.i.j.k.l.m.n.  ",
"  o.p.q.a.r./.(.s.t.u.v.g.w.x.k.f.y.z.l.A.  ",
"    B.C.C.D.E.F.G.H.u.l.I.J.K.L.M.N.L.O.P.  ",
"    Q.a.R.S.T.U.V.W.X.Y.v.Z.2.`.5. +O..+++  ",
"      @+#+$+%+U.E.&+*+=+-+j.-+l.O.y.;+>+,+  ",
"      '+)+#+%+!+~+{+]+v.^+5./+(+`.-+z._+:+  ",
"        <+[+!+}+!+V.|+ + +x.1+2+3+4+5+>+_+  ",
"          6+7+8+9+0+a+6. +b+c+K.w.6.d+e+_+  ",
"              f+g+h+i+j+k+b+l+Z.-+v.m+n+    ",
"                        o+p+q+|.^+n+_+      ",
"                                            "};
