/* XPM */
static char * ooo_draw_xpm[] = {
"22 22 252 2",
"  	c None",
". 	c #89ADD9",
"+ 	c #9FBCE0",
"@ 	c #A6C2E4",
"# 	c #A3BFE1",
"$ 	c #9AB8DE",
"% 	c #94B4DD",
"& 	c #C8D8ED",
"* 	c #E6ECF5",
"= 	c #EAEEF5",
"- 	c #EDF0F6",
"; 	c #EBEFF5",
"> 	c #E7EDF5",
", 	c #DBE5F2",
"' 	c #AAC4E4",
") 	c #AFC7E5",
"! 	c #E3E9F3",
"~ 	c #ECEFF6",
"{ 	c #ECF0F6",
"] 	c #ECEFF5",
"^ 	c #E3E9F2",
"/ 	c #DDE4EF",
"( 	c #EBEEF5",
"_ 	c #E8EDF4",
": 	c #D0DEEF",
"< 	c #8FB1DA",
"[ 	c #BCD0E8",
"} 	c #BBCBE1",
"| 	c #86A2C7",
"1 	c #7E9CC5",
"2 	c #B8C8DE",
"3 	c #7A9AC3",
"4 	c #98B0D0",
"5 	c #E9EDF4",
"6 	c #E9ECF4",
"7 	c #E8ECF4",
"8 	c #E7EBF3",
"9 	c #D8E3F1",
"0 	c #92B1DB",
"a 	c #B2C9E4",
"b 	c #E6EBF3",
"c 	c #EAEDF4",
"d 	c #E8EBF3",
"e 	c #C2CDDF",
"f 	c #5C81B3",
"g 	c #547CAF",
"h 	c #BFCBDD",
"i 	c #E8ECF3",
"j 	c #E6EAF2",
"k 	c #D1DEEE",
"l 	c #7695BD",
"m 	c #D4DBE6",
"n 	c #E8EBF2",
"o 	c #E9ECF3",
"p 	c #D9DEE8",
"q 	c #CACFD9",
"r 	c #CCD0D7",
"s 	c #CFCCCB",
"t 	c #C7BAAE",
"u 	c #E7EAF3",
"v 	c #E3E8F1",
"w 	c #B1C7E4",
"x 	c #687684",
"y 	c #656A6D",
"z 	c #7E8285",
"A 	c #BABEC4",
"B 	c #D4D8DF",
"C 	c #ABB0B5",
"D 	c #707478",
"E 	c #6D7175",
"F 	c #ABAFB6",
"G 	c #C2B8AF",
"H 	c #985E1F",
"I 	c #CDC3BC",
"J 	c #E4E8F1",
"K 	c #DBE0ED",
"L 	c #D2DAE9",
"M 	c #D0DAEB",
"N 	c #769CCE",
"O 	c #D1DCEC",
"P 	c #CCD0D8",
"Q 	c #7E8286",
"R 	c #3B4143",
"S 	c #464B4E",
"T 	c #3E4446",
"U 	c #8A8E93",
"V 	c #D8DBE2",
"W 	c #E1E0E5",
"X 	c #A86B2A",
"Y 	c #AB763F",
"Z 	c #DBDADE",
"` 	c #DDE2EE",
" .	c #D5DAEA",
"..	c #D2D8E8",
"+.	c #D1D7E7",
"@.	c #D2DAEA",
"#.	c #A7BFDF",
"$.	c #7299CA",
"%.	c #E2E8F2",
"&.	c #E4E8F0",
"*.	c #E3E6EE",
"=.	c #B1B4BB",
"-.	c #666B6E",
";.	c #BABDC4",
">.	c #E4E6EF",
",.	c #E8EAF3",
"'.	c #E7E9F2",
").	c #AD8B6A",
"!.	c #C46D11",
"~.	c #A98C71",
"{.	c #D5DAE8",
"].	c #D6DBEA",
"^.	c #D4DAE9",
"/.	c #A5BDDD",
"(.	c #6F96C8",
"_.	c #E4E9F2",
":.	c #E3E6EF",
"<.	c #E4E7F0",
"[.	c #E5E8F1",
"}.	c #E1E4EC",
"|.	c #E6E8F1",
"1.	c #C7BCB7",
"2.	c #B46511",
"3.	c #B36716",
"4.	c #BDB3B0",
"5.	c #D8DCEB",
"6.	c #D4D9E9",
"7.	c #A7BEDD",
"8.	c #7297C7",
"9.	c #E2E8F1",
"0.	c #E0E4EE",
"a.	c #E1E5EF",
"b.	c #E2E6F0",
"c.	c #E6E8F2",
"d.	c #E7E9F3",
"e.	c #E2E4F0",
"f.	c #D8D8E3",
"g.	c #9E6E3E",
"h.	c #D57511",
"i.	c #9B662F",
"j.	c #D1D3DF",
"k.	c #D5DBEA",
"l.	c #D3D9E9",
"m.	c #D2D9E9",
"n.	c #A8BEDD",
"o.	c #6990C2",
"p.	c #D8DFED",
"q.	c #DFE3EE",
"r.	c #E1E4EF",
"s.	c #E6E7F1",
"t.	c #E5E7F1",
"u.	c #E1E3EF",
"v.	c #E1E2EF",
"w.	c #E0E2F0",
"x.	c #B09A87",
"y.	c #B96710",
"z.	c #C86E11",
"A.	c #A7907D",
"B.	c #D6DBEB",
"C.	c #D4DAEA",
"D.	c #D7DDEB",
"E.	c #9BB4D6",
"F.	c #B9C9E1",
"G.	c #DEE2ED",
"H.	c #E0E3EE",
"I.	c #E2E4EF",
"J.	c #E2E5EF",
"K.	c #E2E3EF",
"L.	c #E3E4F0",
"M.	c #E4E5F1",
"N.	c #D2CDD1",
"O.	c #986025",
"P.	c #D47511",
"Q.	c #9E6528",
"R.	c #C5C6CF",
"S.	c #DBE1EE",
"T.	c #799BC8",
"U.	c #8CA8CE",
"V.	c #DADEEB",
"W.	c #DBDFEB",
"X.	c #DCDFEB",
"Y.	c #DEE0EC",
"Z.	c #E0E2EE",
"`.	c #E4E5EF",
" +	c #E7E7F1",
".+	c #E8E8F2",
"++	c #E7E7F2",
"@+	c #A48A71",
"#+	c #A47540",
"$+	c #A89D8E",
"%+	c #A7A9A9",
"&+	c #D6DBE9",
"*+	c #BDCCE2",
"=+	c #C7D2E5",
"-+	c #D7DBE9",
";+	c #DADDEA",
">+	c #E5E6F0",
",+	c #E7E8F2",
"'+	c #E8E9F3",
")+	c #E5E7F2",
"!+	c #CECED5",
"~+	c #9A9B97",
"{+	c #CDCDCD",
"]+	c #CBCCCB",
"^+	c #8FAACF",
"/+	c #6B8FBE",
"(+	c #D7DEEB",
"_+	c #DDE0EC",
":+	c #E1E3EE",
"<+	c #E4E6F0",
"[+	c #E3E6F1",
"}+	c #BDC0C7",
"|+	c #BBBBBB",
"1+	c #DCDCDB",
"2+	c #98A4B1",
"3+	c #6C8FBD",
"4+	c #CFD8E7",
"5+	c #DBDEEB",
"6+	c #E0E3EF",
"7+	c #DEE1ED",
"8+	c #DCDFEC",
"9+	c #AAAEAF",
"0+	c #B2B2B2",
"a+	c #767676",
"b+	c #4B70A2",
"c+	c #A7BAD5",
"d+	c #D8DEEB",
"e+	c #DFE2EE",
"f+	c #DCE0EC",
"g+	c #DDE0ED",
"h+	c #DEE2EE",
"i+	c #E0E4EF",
"j+	c #C4CFE1",
"k+	c #7088A9",
"l+	c #444544",
"m+	c #646464",
"n+	c #848484",
"o+	c #5F80AB",
"p+	c #8DA5C5",
"q+	c #AEBDD4",
"r+	c #BCCADF",
"s+	c #BDCBE0",
"t+	c #B9C6DB",
"u+	c #9BAEC8",
"v+	c #7490B6",
"w+	c #272727",
"x+	c #393939",
"y+	c #464646",
"z+	c #2A2A2A",
"A+	c #1C1C1C",
"B+	c #121212",
"C+	c #010101",
"                                            ",
"                . + @ @ # $                 ",
"            % & * = - - ; > , '             ",
"          ) ! ~ { ~ ] ^ / ( = _ : <         ",
"        [ } | 1 2 2 3 4 / 5 6 7 8 9 0       ",
"      a b c d e f g h i 5 6 7 i 8 j k       ",
"    l m n o o 6 p q r s t d d 8 u j v w     ",
"    x y z A B C D E F G H I u u J K L M N   ",
"    O P Q R S T U V d W X Y Z `  ...+.@.#.  ",
"  $.%.&.*.=.-.;.>.,.,.'.).!.~.{.].^...../.  ",
"  (._.:.<.[.}.|.'.,.,.,.1.2.3.4.5.].6...7.  ",
"  8.9.0.a.b.<.[.c.'.d.e.f.g.h.i.j.k.l.m.n.  ",
"  o.p.q.0.r.:.<.s.t.u.v.w.x.y.z.A.B.C.D.E.  ",
"    F.G.G.H.I.J.K.u.L.M.M.N.O.P.Q.R. .S.T.  ",
"    U.0.V.W.X.Y.Z.`. +.+++M.@+#+$+%+&+*+    ",
"      =+-+{.;+Y.I.>+,+'+,+)+!+~+{+]+P ^+    ",
"      /+(+-+;+_+:+<+|.'.c.[+u.}+|+1+2+      ",
"        3+4+_+5+_+Z.r.e.r.6+7+8+9+0+a+      ",
"          b+c+d+e+f+8+f+g+h+i+j+k+l+m+n+    ",
"              o+p+q+r+s+t+u+v+    w+x+y+z+  ",
"                                    A+A+B+  ",
"                                        C+  "};
