<?xml version="1.0" encoding="UTF-8" standalone="no"?>
<!-- Created with Inkscape (http://www.inkscape.org/) -->

<svg
   xmlns:dc="http://purl.org/dc/elements/1.1/"
   xmlns:cc="http://creativecommons.org/ns#"
   xmlns:rdf="http://www.w3.org/1999/02/22-rdf-syntax-ns#"
   xmlns:svg="http://www.w3.org/2000/svg"
   xmlns="http://www.w3.org/2000/svg"
   version="1.1"
   width="110"
   height="126.122"
   id="svg3447">
  <defs
     id="defs3449">
    <clipPath
       id="clipPath328">
      <path
         d="m 0,0 1600,0 0,1200 L 0,1200 0,0 z"
         id="path330" />
    </clipPath>
    <mask
       id="mask346">
      <g
         id="g348">
        <g
           clip-path="url(#clipPath336)"
           id="g350">
          <g
             id="g352">
            <g
               id="g354">
              <path
                 d="m -32387,32767 65154,0 0,-64705 -65154,0 0,64705 z"
                 id="path356"
                 style="fill:url(#linearGradient340);stroke:none" />
            </g>
          </g>
        </g>
      </g>
    </mask>
    <clipPath
       id="clipPath336">
      <path
         d="m -32387,32767 65154,0 0,-64705 -65154,0 0,64705 z"
         id="path338" />
    </clipPath>
    <linearGradient
       x1="0"
       y1="0"
       x2="1"
       y2="0"
       id="linearGradient340"
       gradientUnits="userSpaceOnUse"
       gradientTransform="matrix(0,126.12222,126.12222,0,551.04176,540.43893)"
       spreadMethod="pad">
      <stop
         id="stop342"
         style="stop-color:#ffffff;stop-opacity:1"
         offset="0" />
      <stop
         id="stop344"
         style="stop-color:#ffffff;stop-opacity:0.80000001"
         offset="1" />
    </linearGradient>
    <clipPath
       id="clipPath362">
      <path
         d="m 550.042,667.561 112,0 0,-128.122 -112,0 0,128.122 z"
         id="path364" />
    </clipPath>
    <mask
       id="mask388">
      <g
         id="g390">
        <g
           clip-path="url(#clipPath378)"
           id="g392">
          <g
             id="g394">
            <g
               id="g396">
              <path
                 d="m -32387,32767 65154,0 0,-64705 -65154,0 0,64705 z"
                 id="path398"
                 style="fill:url(#linearGradient382);stroke:none" />
            </g>
          </g>
        </g>
      </g>
    </mask>
    <clipPath
       id="clipPath378">
      <path
         d="m -32387,32767 65154,0 0,-64705 -65154,0 0,64705 z"
         id="path380" />
    </clipPath>
    <linearGradient
       x1="0"
       y1="0"
       x2="1"
       y2="0"
       id="linearGradient382"
       gradientUnits="userSpaceOnUse"
       gradientTransform="matrix(0,126.12222,126.12222,0,551.04176,540.43893)"
       spreadMethod="pad">
      <stop
         id="stop384"
         style="stop-color:#ffffff;stop-opacity:1"
         offset="0" />
      <stop
         id="stop386"
         style="stop-color:#ffffff;stop-opacity:0.80000001"
         offset="1" />
    </linearGradient>
    <clipPath
       id="clipPath404">
      <path
         d="m 590.475,638.261 33.231,0 0,-66.141 -33.231,0 0,66.141 z"
         id="path406" />
    </clipPath>
  </defs>
  <metadata
     id="metadata3452">
    <rdf:RDF>
      <cc:Work
         rdf:about="">
        <dc:format>image/svg+xml</dc:format>
        <dc:type
           rdf:resource="http://purl.org/dc/dcmitype/StillImage" />
        <dc:title></dc:title>
      </cc:Work>
    </rdf:RDF>
  </metadata>
  <g
     transform="translate(-351.25,-448.1274)"
     id="layer1">
    <g
       transform="matrix(1,0,0,-1,-199.7916,1114.6882)"
       id="g324">
      <g
         clip-path="url(#clipPath328)"
         id="g326">
        <g
           id="g332">
          <g
             id="g334" />
          <g
             mask="url(#mask346)"
             id="g358">
            <g
               id="g360" />
            <g
               id="g366">
              <g
                 clip-path="url(#clipPath362)"
                 id="g368">
                <g
                   transform="translate(563.2866,552.6838)"
                   id="g370">
                  <path
                     d="m 0,0 0,101.632 85.51,0 0,-66.757 C 85.51,15.552 61.655,23.293 61.655,23.293 61.655,23.293 68.958,0 50.941,0 L 0,0 z m 97.755,33.818 0,80.059 -110,0 0,-126.122 63.372,0 c 20.867,0 46.628,27.266 46.628,46.063"
                     id="path372"
                     style="fill:#787878;fill-opacity:1;fill-rule:nonzero;stroke:none" />
                </g>
              </g>
            </g>
          </g>
        </g>
        <g
           id="g374">
          <g
             id="g376" />
          <g
             mask="url(#mask388)"
             id="g400">
            <g
               id="g402" />
            <g
               id="g408">
              <g
                 clip-path="url(#clipPath404)"
                 id="g410">
                <g
                   transform="translate(604.1566,574.0663)"
                   id="g412">
                  <path
                     d="m 0,0 c -7.548,-2.653 -13.77,0.389 -12.521,7.637 1.248,7.251 8.41,22.772 9.432,25.706 1.021,2.935 -0.937,3.74 -3.036,2.546 -1.21,-0.699 -3.009,-2.098 -4.554,-3.458 -0.427,0.861 -1.03,1.847 -1.482,2.791 2.52,2.525 6.732,5.911 11.72,7.138 C 5.517,43.831 15.475,41.48 11.195,30.091 8.139,21.973 5.977,16.372 4.615,12.2 3.254,8.027 4.871,7.152 7.254,8.778 c 1.862,1.271 3.846,3 5.299,4.341 0.673,-1.093 0.888,-1.442 1.553,-2.698 C 11.582,7.834 4.98,1.781 0,0 M 15.638,50.214 C 12.215,47.3 7.14,47.363 4.302,50.357 1.464,53.348 1.938,58.135 5.36,61.05 c 3.423,2.914 8.498,2.851 11.336,-0.141 2.838,-2.992 2.364,-7.78 -1.058,-10.695"
                     id="path414"
                     style="fill:#db062e;fill-opacity:1;fill-rule:nonzero;stroke:none" />
                </g>
              </g>
            </g>
          </g>
        </g>
      </g>
    </g>
  </g>
</svg>
