<?xml version="1.0" encoding="UTF-8" standalone="no"?>
<!-- Created with Inkscape (http://www.inkscape.org/) -->

<svg
   xmlns:dc="http://purl.org/dc/elements/1.1/"
   xmlns:cc="http://creativecommons.org/ns#"
   xmlns:rdf="http://www.w3.org/1999/02/22-rdf-syntax-ns#"
   xmlns:svg="http://www.w3.org/2000/svg"
   xmlns="http://www.w3.org/2000/svg"
   version="1.1"
   width="124.74"
   height="117.7353"
   id="svg3759">
  <defs
     id="defs3761">
    <clipPath
       id="clipPath640">
      <path
         d="m 0,0 1600,0 0,1200 L 0,1200 0,0 z"
         id="path642" />
    </clipPath>
    <mask
       id="mask658">
      <g
         id="g660">
        <g
           clip-path="url(#clipPath648)"
           id="g662">
          <g
             id="g664">
            <g
               id="g666">
              <path
                 d="m -32351,32767 65118,0 0,-64741.1 -65118,0 0,64741.1 z"
                 id="path668"
                 style="fill:url(#linearGradient652);stroke:none" />
            </g>
          </g>
        </g>
      </g>
    </mask>
    <clipPath
       id="clipPath648">
      <path
         d="m -32351,32767 65118,0 0,-64741.1 -65118,0 0,64741.1 z"
         id="path650" />
    </clipPath>
    <linearGradient
       x1="0"
       y1="0"
       x2="1"
       y2="0"
       id="linearGradient652"
       gradientUnits="userSpaceOnUse"
       gradientTransform="matrix(0,117.7357,117.7357,0,543.67163,544.63216)"
       spreadMethod="pad">
      <stop
         id="stop654"
         style="stop-color:#ffffff;stop-opacity:1"
         offset="0" />
      <stop
         id="stop656"
         style="stop-color:#ffffff;stop-opacity:0.80000001"
         offset="1" />
    </linearGradient>
    <clipPath
       id="clipPath674">
      <path
         d="m 599.908,663.368 69.504,0 0,-69.503 -69.504,0 0,69.503 z"
         id="path676" />
    </clipPath>
    <mask
       id="mask700">
      <g
         id="g702">
        <g
           clip-path="url(#clipPath690)"
           id="g704">
          <g
             id="g706">
            <g
               id="g708">
              <path
                 d="m -32351,32767 65118,0 0,-64741.1 -65118,0 0,64741.1 z"
                 id="path710"
                 style="fill:url(#linearGradient694);stroke:none" />
            </g>
          </g>
        </g>
      </g>
    </mask>
    <clipPath
       id="clipPath690">
      <path
         d="m -32351,32767 65118,0 0,-64741.1 -65118,0 0,64741.1 z"
         id="path692" />
    </clipPath>
    <linearGradient
       x1="0"
       y1="0"
       x2="1"
       y2="0"
       id="linearGradient694"
       gradientUnits="userSpaceOnUse"
       gradientTransform="matrix(0,117.7357,117.7357,0,543.67163,544.63216)"
       spreadMethod="pad">
      <stop
         id="stop696"
         style="stop-color:#ffffff;stop-opacity:1"
         offset="0" />
      <stop
         id="stop698"
         style="stop-color:#ffffff;stop-opacity:0.80000001"
         offset="1" />
    </linearGradient>
    <clipPath
       id="clipPath716">
      <path
         d="m 542.672,645.079 66.905,0 0,-101.447 -66.905,0 0,101.447 z"
         id="path718" />
    </clipPath>
  </defs>
  <metadata
     id="metadata3764">
    <rdf:RDF>
      <cc:Work
         rdf:about="">
        <dc:format>image/svg+xml</dc:format>
        <dc:type
           rdf:resource="http://purl.org/dc/dcmitype/StillImage" />
        <dc:title></dc:title>
      </cc:Work>
    </rdf:RDF>
  </metadata>
  <g
     transform="translate(-297.0375,-488.2115)"
     id="layer1">
    <g
       transform="matrix(1,0,0,-1,-246.6341,1150.5794)"
       id="g636">
      <g
         clip-path="url(#clipPath640)"
         id="g638">
        <g
           id="g644">
          <g
             id="g646" />
          <g
             mask="url(#mask658)"
             id="g670">
            <g
               id="g672" />
            <g
               id="g678">
              <g
                 clip-path="url(#clipPath674)"
                 id="g680">
                <g
                   transform="translate(634.6596,662.3679)"
                   id="g682">
                  <path
                     d="m 0,0 c -18.64,0 -33.751,-15.111 -33.751,-33.752 0,-18.64 15.11,-33.751 33.751,-33.751 18.641,0 33.752,15.111 33.752,33.751 C 33.752,-15.111 18.641,0 0,0 m 0.369,-56.182 c -2.648,0 -4.795,2.148 -4.795,4.797 0,2.648 2.147,4.794 4.795,4.794 2.649,0 4.796,-2.146 4.796,-4.794 0,-2.649 -2.147,-4.797 -4.796,-4.797 m 3.77,14.175 0,-0.863 -7.904,0 0,0.863 c 0,2.441 0.356,5.572 3.19,8.295 2.833,2.723 6.375,4.972 6.375,8.373 0,3.761 -2.609,5.75 -5.899,5.75 -5.482,0 -5.841,-5.686 -5.976,-6.939 l -7.689,0 c 0.205,5.929 2.71,14.223 13.711,14.223 9.533,0 13.818,-6.384 13.818,-12.371 0,-9.529 -9.626,-11.185 -9.626,-17.331"
                     id="path684"
                     style="fill:#7ab51d;fill-opacity:1;fill-rule:nonzero;stroke:none" />
                </g>
              </g>
            </g>
          </g>
        </g>
        <g
           id="g686">
          <g
             id="g688" />
          <g
             mask="url(#mask700)"
             id="g712">
            <g
               id="g714" />
            <g
               id="g720">
              <g
                 clip-path="url(#clipPath716)"
                 id="g722">
                <g
                   transform="translate(543.6716,644.0786)"
                   id="g724">
                  <path
                     d="M 0,0 64.905,-50.878 37.176,-55.595 54.81,-91.544 38.641,-99.446 20.904,-63.155 0,-82.136 0,0 z"
                     id="path726"
                     style="fill:#787878;fill-opacity:1;fill-rule:nonzero;stroke:none" />
                </g>
              </g>
            </g>
          </g>
        </g>
      </g>
    </g>
  </g>
</svg>
