<?xml version="1.0" encoding="UTF-8" standalone="no"?>
<svg
   xmlns:dc="http://purl.org/dc/elements/1.1/"
   xmlns:cc="http://creativecommons.org/ns#"
   xmlns:rdf="http://www.w3.org/1999/02/22-rdf-syntax-ns#"
   xmlns:svg="http://www.w3.org/2000/svg"
   xmlns="http://www.w3.org/2000/svg"
   version="1.1"
   width="70"
   height="70"
   id="svg5028">
  <defs
     id="defs4745" />
  <metadata
     id="metadata5033">
    <rdf:RDF>
      <cc:Work
         rdf:about="">
        <dc:format>image/svg+xml</dc:format>
        <dc:type
           rdf:resource="http://purl.org/dc/dcmitype/StillImage" />
        <dc:title></dc:title>
      </cc:Work>
    </rdf:RDF>
  </metadata>
  <path
     id="path4"
     d="m 40.450633,22.444752 c -2.38751,0 -4.316246,1.928848 -4.316246,4.316251 0,0.984115 0.327699,1.889865 0.880197,2.615196 1.198555,-1.387248 2.967552,-2.268153 4.942593,-2.268153 0.966304,0 1.882631,0.215178 2.708222,0.592434 0.06685,-0.302321 0.101562,-0.616731 0.101562,-0.939435 0.0022,-2.387297 -1.928529,-4.316251 -4.315825,-4.316251 z m -5.634783,1.997342 c -1.243327,0 -2.242872,1.007929 -2.242872,2.251152 0,0.40255 0.103859,0.782928 0.287752,1.108691 0.750279,-0.423234 1.61767,-0.668611 2.538944,-0.668611 0.08892,0 0.174557,0.0035 0.262369,0.0085 -0.0099,-0.126042 -0.01692,-0.25228 -0.01692,-0.380841 0,-0.692501 0.150406,-1.351394 0.414697,-1.946579 -0.355845,-0.238626 -0.782201,-0.372393 -1.244117,-0.372393 z m 10.64683,1.548793 c -0.09185,0 -0.180392,0.0113 -0.270822,0.01691 0.03912,0.246653 0.06771,0.495699 0.06771,0.753228 0,0.400803 -0.05097,0.787551 -0.143875,1.159475 1.089234,0.602798 1.993796,1.504743 2.589706,2.598202 0.618169,-0.32182 1.307766,-0.526459 2.039672,-0.575502 -0.188625,-2.212071 -2.021257,-3.952418 -4.282479,-3.952418 z m -3.503847,1.608045 c -3.340724,0 -6.042789,2.701849 -6.042789,6.04279 0,3.34073 2.701853,6.042775 6.042789,6.042775 3.340941,0 6.042795,-2.702255 6.042795,-6.042775 0,-3.340941 -2.702065,-6.042789 -6.042795,-6.042789 z m -6.559115,0.0254 c -2.591832,0 -4.688785,2.09689 -4.688785,4.688785 0,1.525744 0.726957,2.876436 1.853467,3.732377 0.474908,-0.915987 1.428768,-1.540331 2.53045,-1.540331 0.133158,0 0.260965,0.01614 0.389313,0.03382 -0.04029,-0.293123 -0.05924,-0.592996 -0.05924,-0.897127 0,-1.454037 0.473295,-2.798702 1.277969,-3.88466 -0.481663,-0.602713 -0.826359,-1.326907 -0.973292,-2.115842 -0.108891,-0.0076 -0.219252,-0.01691 -0.330078,-0.01691 z m 14.693342,2.792752 c -0.787001,0 -1.524195,0.200921 -2.175117,0.541663 0.369585,0.81867 0.575501,1.727009 0.575501,2.682947 0,1.78979 -0.719611,3.415068 -1.887325,4.595551 0.857856,0.952388 2.102501,1.548779 3.486857,1.548779 2.591828,0 4.688785,-2.096883 4.688785,-4.688778 0,-2.591895 -2.096891,-4.680288 -4.688785,-4.680288 z m -19.838137,0.617833 c -2.38751,0 -4.324746,1.920302 -4.324746,4.307747 0,2.387452 1.937236,4.324713 4.324746,4.324713 0.908725,0 1.75052,-0.28311 2.445918,-0.761697 -0.287346,-0.446521 -0.457027,-0.980291 -0.457027,-1.548764 0,-0.295053 0.04353,-0.578514 0.126948,-0.846343 -1.30184,-0.940817 -2.149629,-2.471829 -2.149629,-4.19773 0,-0.43855 0.05779,-0.862599 0.160806,-1.26952 -0.04276,-0.0014 -0.08389,-0.0085 -0.126951,-0.0085 z m 25.380955,3.706887 c -0.127368,0 -0.250603,0.01452 -0.372389,0.03382 0.0067,0.107659 0.0085,0.212266 0.0085,0.321609 0,1.376646 -0.543172,2.626022 -1.421843,3.554666 0.432284,0.502653 1.067232,0.820915 1.78578,0.820915 1.308827,0 2.369666,-1.052455 2.369666,-2.361211 0,-1.308826 -1.060921,-2.369658 -2.369666,-2.369658 z m -20.540519,0.253894 c -1.308768,0 -2.361386,1.052518 -2.361386,2.361176 0,1.308776 1.052513,2.369651 2.361386,2.369651 1.003175,0 1.85468,-0.62593 2.20039,-1.50647 -0.843754,-0.859337 -1.450135,-1.955644 -1.718067,-3.173783 -0.156792,-0.03242 -0.315936,-0.0508 -0.482409,-0.0508 z m 25.956537,1.988894 0,4.680274 -2.479686,0 c -1.621025,0 -2.936757,1.324199 -2.936757,2.94526 0,1.620781 1.315773,2.93677 2.936757,2.93677 l 0.964816,0 c 0.475548,0 0.950416,-0.230978 1.32875,-0.583972 0.378336,-0.353063 0.667106,-0.842034 0.677067,-1.387977 0.017,-0.937176 0,-3.664648 0,-3.664648 l 0,-4.925602 -0.490882,0 z m -22.672943,2.115863 0,6.474351 c 0,1.088098 0.892283,1.97195 1.980437,1.97195 l 0,-0.490865 c -0.823364,0 -1.489552,-0.657714 -1.489552,-1.481085 l 0,-6.171104 c -0.170897,-0.09184 -0.329508,-0.198493 -0.490885,-0.304651 z m -4.908827,0.600881 c -0.86943,0.829545 -1.41339,1.99763 -1.41339,3.29229 0,2.511999 2.041481,4.55327 4.553282,4.55327 l 0,-0.490865 c -2.246905,0 -4.062441,-1.815274 -4.062441,-4.062476 0,-1.208568 0.527562,-2.294842 1.362607,-3.038226 -0.156077,-0.07192 -0.300642,-0.156115 -0.440099,-0.253923 z m -5.780485,1.946551 c -1.621028,0 -2.936759,1.315779 -2.936759,2.93677 l 0,2.716737 0.490883,0 0,-2.716737 c 0,-1.356194 1.089768,-2.454395 2.445916,-2.454395 1.35643,0 2.454416,1.098202 2.454416,2.454395 l 0,2.716737 0.490881,0 0,-2.716737 c 0,-1.62099 -1.324015,-2.93677 -2.94525,-2.93677 z m 16.47808,0.01684 c -1.621109,0 -2.936755,1.324199 -2.936755,2.94526 0,1.621131 1.315665,2.94526 2.936755,2.94526 1.621108,0 2.945254,-1.324129 2.945254,-2.94526 0,-1.621061 -1.324146,-2.94526 -2.945254,-2.94526 z m -32.770105,0.0084 c -1.6237448,0 -2.9480144,1.315779 -2.9480144,2.936349 0,1.620992 1.3242696,2.936771 2.9452524,2.936771 1.620983,0 2.936758,-1.315849 2.936758,-2.936771 0,-1.620991 -1.315817,-2.93677 -2.936758,-2.93677 z m 4.409489,0.220033 0,3.681627 c 0,1.088169 0.884021,1.97195 1.971962,1.97195 0.741506,0 1.395761,-0.409965 1.734995,-1.015549 0.336792,0.605584 0.985164,1.015549 1.726521,1.015549 1.088152,0 1.980415,-0.883781 1.980415,-1.97195 l 0,-3.682679 -0.49375,0 0,3.681627 c 0,0.8233 -0.666191,1.481085 -1.489553,1.481085 -0.823363,0 -1.48108,-0.657785 -1.48108,-1.481085 l 0,-3.68268 -0.490925,0 0,3.681627 c 0,0.823371 -0.665894,1.481085 -1.489555,1.481085 -0.823086,0 -1.481079,-0.657784 -1.481079,-1.481085 l 0,-3.682679 -0.490883,0 z m 32.591697,0 0,2.716738 c 0,1.62078 1.315772,2.93677 2.936756,2.93677 1.621025,0 2.945254,-1.31599 2.945254,-2.93677 l 0,-2.716316 -0.490884,0 0,2.716737 c 0,1.355842 -1.098218,2.445905 -2.454413,2.445905 -1.356151,0 -2.445915,-1.090063 -2.445915,-2.445905 l 0,-2.716316 -0.490885,0 z m -4.231717,0.262412 c 1.356253,0 2.454412,1.098061 2.454412,2.454395 0,1.356263 -1.098115,2.454395 -2.454412,2.454395 -1.356257,0 -2.445919,-1.098132 -2.445919,-2.454395 0,-1.356264 1.089662,-2.454395 2.445919,-2.454395 z m 14.4047,0 2.479689,0 c 0.0019,0.324296 0.01546,2.558448 0,3.410796 -0.0069,0.379305 -0.214965,0.759872 -0.516267,1.041018 -0.301299,0.281076 -0.691211,0.448556 -0.998668,0.448556 l -0.964819,0 c -1.356148,0 -2.445916,-1.090062 -2.445916,-2.445905 0,-1.356193 1.089768,-2.454465 2.445916,-2.454465 z m -47.174594,0.0084 c 1.356129,0 2.445917,1.089782 2.445917,2.445977 0,1.356122 -1.089788,2.445905 -2.445917,2.445905 -1.356129,0 -2.4544132,-1.089782 -2.4544132,-2.445905 0,-1.356195 1.0982412,-2.445977 2.4544132,-2.445977 z"
     style="color:#000000;text-indent:0;text-transform:none;block-progression:tb;fill:#ffffff;enable-background:accumulate" />
</svg>
