<?xml version="1.0" encoding="UTF-8" standalone="no"?>
<!-- Created with Inkscape (http://www.inkscape.org/) -->
<svg id="svg2" xmlns:rdf="http://www.w3.org/1999/02/22-rdf-syntax-ns#" xmlns="http://www.w3.org/2000/svg" xml:space="preserve" height="110" width="160" version="1.1" xmlns:cc="http://creativecommons.org/ns#" xmlns:xlink="http://www.w3.org/1999/xlink" viewBox="0 0 160 110" xmlns:dc="http://purl.org/dc/elements/1.1/"><metadata id="metadata9"><rdf:RDF><cc:Work rdf:about=""><dc:format>image/svg+xml</dc:format><dc:type rdf:resource="http://purl.org/dc/dcmitype/StillImage"/><dc:title/></cc:Work></rdf:RDF></metadata><defs id="defs7"><filter id="filter4118" color-interpolation-filters="sRGB"><feGaussianBlur id="feGaussianBlur4120" stdDeviation="7.9897496"/></filter></defs><path id="path4114" opacity=".25" style="color:#000000" d="m420.36 112.23c-12.2-64.403-68.74-112.23-135.67-112.23-41.13 0-79.25 17.911-105.31 48.727-43.53-11.607-89.145 13.805-101.86 57.163-45.226 13.28-77.52 55.13-77.52 103.65 0 59.59 48.476 108.07 109.24 108.07h264.07c59.585 0 108.06-48.475 108.06-108.06-0.001-42.083-23.975-79.5-61.006-97.315z" transform="matrix(.30786 0 0 .30786 5.9033 6.3185)" filter="url(#filter4118)" fill="#282828"/><path id="cloud-3-icon-9" style="color:#000000" d="m135.32 38.914c-3.76-19.827-21.17-34.551-41.772-34.551-12.661 0-24.397 5.5139-32.42 15.001-13.401-3.573-27.445 4.25-31.36 17.597-13.923 4.089-23.865 16.974-23.865 31.912 0 18.344 14.924 33.268 33.629 33.268h81.296c18.344 0 33.268-14.924 33.268-33.268-0.00031-12.956-7.3808-24.475-18.781-29.959z" fill="#7ab51d"/><path id="key-icon-1" style="color:#000000" d="m86.486 64.553-7.0997 7.0994h-6.8741l0.00016 6.8738-7.1672-0.000262v6.478h-15.918v-11.039l22.834-22.833c2.5753 6.1377 7.6736 11.106 14.225 13.422zm21.794-36.529c7.5946 7.5947 7.5943 19.908-0.00015 27.502-7.5949 7.595-19.908 7.595-27.503 0.00016-7.5946-7.5944-7.5949-19.907 0-27.502 7.5945-7.5945 19.908-7.5945 27.503 0zm-3.9034 3.8898c-1.8839-1.8834-4.938-1.8835-6.8214 0-1.8836 1.8837-1.8836 4.9378 0 6.8213 1.8834 1.8835 4.9374 1.8834 6.8211-0.00016 1.8839-1.8837 1.8836-4.9376 0.00026-6.8212z" fill="#fff"/></svg>
