<?xml version="1.0" encoding="utf-8"?>
<!-- Generator: Adobe Illustrator 13.0.0, SVG Export Plug-In  -->
<!DOCTYPE svg PUBLIC "-//W3C//DTD SVG 1.1//EN" "http://www.w3.org/Graphics/SVG/1.1/DTD/svg11.dtd" [
	<!ENTITY ns_flows "http://ns.adobe.com/Flows/1.0/">
]>
<svg version="1.1"
	 xmlns="http://www.w3.org/2000/svg" xmlns:xlink="http://www.w3.org/1999/xlink" xmlns:a="http://ns.adobe.com/AdobeSVGViewerExtensions/3.0/"
	 x="0px" y="0px" width="128px" height="128px" viewBox="1.5 20.39 128 128" enable-background="new 1.5 20.39 128 128"
	 xml:space="preserve">
<defs>
</defs>
<linearGradient id="path35_3_" gradientUnits="userSpaceOnUse" x1="-1543.624" y1="1642.71" x2="-1415.624" y2="1642.71" gradientTransform="matrix(-1 0 0 1 -1415.624 -1578.71)">
	<stop  offset="0" style="stop-color:#2D7800"/>
	<stop  offset="0.0105" style="stop-color:#2D5200"/>
	<stop  offset="0.0533" style="stop-color:#348C00"/>
	<stop  offset="0.099" style="stop-color:#3BA000"/>
	<stop  offset="0.1477" style="stop-color:#42B400"/>
	<stop  offset="0.201" style="stop-color:#4AC900"/>
	<stop  offset="0.2622" style="stop-color:#4AC900"/>
	<stop  offset="0.3491" style="stop-color:#4AC900"/>
	<stop  offset="0.5858" style="stop-color:#4AC900"/>
	<stop  offset="1" style="stop-color:#2D4500"/>
</linearGradient>
<path id="path35_2_" fill="url(#path35_3_)" d="M0,17.067C0,7.68,7.68,0,17.067,0h93.867C120.318,0,128,7.68,128,17.067v93.867
	c0,9.386-7.682,17.066-17.066,17.066H17.067C7.68,128,0,120.319,0,110.934V17.067z"/>
<radialGradient id="path53_3_" cx="883.4258" cy="-2012.4243" r="85.0251" gradientTransform="matrix(1.048 0 0 -1.048 -861.8292 -2045.021)" gradientUnits="userSpaceOnUse">
	<stop  offset="0.1758" style="stop-color:#4AC900"/>
	<stop  offset="0.7811" style="stop-color:#2D7800"/>
	<stop  offset="1" style="stop-color:#4AC900"/>
</radialGradient>
<path id="path53_2_" fill="url(#path53_3_)" d="M17.89,4.267c-7.513,0-13.624,6.111-13.624,13.623v92.221
	c0,7.513,6.111,13.623,13.624,13.623h92.222c7.511,0,13.622-6.11,13.622-13.623V17.89c0-7.51-6.111-13.623-13.622-13.623
	L17.89,4.267L17.89,4.267z"/>
<radialGradient id="SVGID_1_" cx="862.5742" cy="-2057.1733" r="140.9992" gradientTransform="matrix(1.0667 0 0 -1.0667 -856.0792 -2048.1819)" gradientUnits="userSpaceOnUse">
	<stop  offset="0" style="stop-color:#245247"/>
	<stop  offset="0.5" style="stop-color:#58C61A"/>
	<stop  offset="1" style="stop-color:#245C1D"/>
</radialGradient>
<path fill="url(#SVGID_1_)" d="M64.027,3.216h-0.057C39.416,2.899,13.756,7.623,13.501,7.67c-2.619,0.487-5.344,3.213-5.832,5.832
	c-0.048,0.256-4.771,25.915-4.454,50.471c-0.317,24.608,4.406,50.271,4.454,50.523c0.487,2.617,3.214,5.348,5.833,5.837
	c0.255,0.048,25.914,4.77,50.469,4.452c24.611,0.317,50.271-4.404,50.526-4.452c2.616-0.487,5.347-3.22,5.836-5.838
	c0.046-0.251,4.771-25.913,4.452-50.466c0.319-24.613-4.406-50.271-4.452-50.527c-0.489-2.619-3.22-5.344-5.836-5.832
	C114.244,7.623,88.584,2.898,64.027,3.216z"/>
<radialGradient id="path5692_3_" cx="-1356.7197" cy="3006.8389" r="62.8166" gradientTransform="matrix(0.4413 -0.5959 0.5323 0.394 -947.8365 -1943.1724)" gradientUnits="userSpaceOnUse">
	<stop  offset="0" style="stop-color:#FFFFFF"/>
	<stop  offset="0.3278" style="stop-color:#FDFDFC"/>
	<stop  offset="0.6774" style="stop-color:#F4F5F4"/>
	<stop  offset="1" style="stop-color:#CACFD0"/>
</radialGradient>
<path id="path5692_1_" fill="url(#path5692_3_)" d="M59.602,18.678l-12.054,1.158v49.662l11.926-1.804V46.522l16.046,23.492
	l12.57-3.994L71.658,43.431L88.22,22.13l-12.828-2.937L59.474,40.495L59.602,18.678z M32.273,30.784
	c-0.136,0.014-0.283,0.052-0.386,0.155l-4.739,4.739c-0.2,0.201-0.224,0.506-0.078,0.747l5.538,9.145
	c-0.983,1.652-1.781,3.426-2.344,5.307l-10.175,2.11c-0.284,0.06-0.489,0.329-0.489,0.619v6.696c0,0.285,0.215,0.527,0.489,0.594
	l9.866,2.395c0.528,2.177,1.343,4.26,2.421,6.156l-5.718,8.706c-0.159,0.243-0.129,0.565,0.077,0.772l4.739,4.74
	c0.199,0.199,0.506,0.223,0.747,0.075l8.963-5.435c1.758,1.013,3.662,1.829,5.667,2.37l2.086,10.047
	c0.059,0.286,0.303,0.49,0.593,0.49h6.696c0.282,0,0.527-0.191,0.594-0.465l2.472-10.098c2.067-0.559,4.019-1.388,5.82-2.45
	l8.838,5.798c0.242,0.158,0.565,0.128,0.772-0.075l4.716-4.739c0.2-0.201,0.249-0.507,0.103-0.747l-3.221-5.308l-1.055,0.334
	c-0.153,0.048-0.322-0.023-0.412-0.156c0,0-2.034-2.992-4.69-6.878c-3.175,6.211-9.645,10.459-17.101,10.459
	c-10.595,0-19.189-8.596-19.189-19.188c0-7.794,4.66-14.487,11.333-17.49v-4.945c-1.214,0.424-2.388,0.938-3.502,1.546
	c-0.001-0.001,0.001-0.024,0-0.026l-9.041-5.925C32.537,30.781,32.411,30.771,32.273,30.784z"/>
<linearGradient id="path99_3_" gradientUnits="userSpaceOnUse" x1="857.2236" y1="-1906.416" x2="857.2236" y2="-1992.8683" gradientTransform="matrix(1 0 0 -1 -793.2246 -1910.8887)">
	<stop  offset="0.1302" style="stop-color:#FFFFFF"/>
	<stop  offset="0.5" style="stop-color:#FFFFFF"/>
</linearGradient>
<path id="path99_2_" opacity="0.3" fill="url(#path99_3_)" enable-background="new    " d="M121.601,44.175
	c-1.273-14.38-3.278-24.319-3.311-24.485c-0.476-2.57-4.228-6.291-6.776-6.771c-0.247-0.046-24.113-4.682-48.008-4.371h-0.055
	c-23.893-0.311-47.761,4.325-48.01,4.371c-2.548,0.479-6.296,4.2-6.771,6.771c-0.023,0.125-1.165,5.339-2.272,14.555
	c0,6.171,0,12.339,0,18.511c0,3.847,2.556,8.299,5.684,9.91C12.081,62.554,17.027,76.8,59.026,76.8
	c42,0,57.215-22.053,57.211-21.808c2.95-1.981,5.36-6.727,5.36-10.575C121.601,44.335,121.601,44.255,121.601,44.175z"/>
<path fill="#CC0033" d="M110.358,80.985H91.694c-3.438,0-6.223,2.789-6.223,6.224c-3.438,0-6.224,2.789-6.224,6.225v18.662
	c0,3.439,2.787,6.223,6.224,6.223h18.664c3.438,0,6.223-2.782,6.223-6.223c3.438,0,6.223-2.781,6.223-6.217V87.21
	C116.579,83.775,113.797,80.985,110.358,80.985z"/>
<linearGradient id="path59_3_" gradientUnits="userSpaceOnUse" x1="-179.7778" y1="-67.7676" x2="-179.7778" y2="-92.6594" gradientTransform="matrix(4.4921 0 0 -4.4921 905.5009 -217.2087)">
	<stop  offset="0.6813" style="stop-color:#FFFFFF"/>
	<stop  offset="0.7989" style="stop-color:#FBFBFC"/>
	<stop  offset="0.9122" style="stop-color:#F0F1F3"/>
	<stop  offset="1" style="stop-color:#E1E3E8"/>
</linearGradient>
<path id="path59_2_" fill="url(#path59_3_)" d="M110.335,92.89v-0.013l0,0c-0.024-0.246-0.06-0.469-0.112-0.678
	c-0.75-3.876-4.741-4.907-5.452-4.97v18.241c-0.808,1.91-4.014,3.186-7.415,2.973c-4.159-0.265-6.169-1.775-6.287-3.156V87.21
	h-5.596v18.664c0.092,3.512,2.452,6.032,6.219,6.224h9.186c1.386-0.269,2.983-1.456,3.886-2.708v2.708h0.811h4.762h0.023V93.432
	C110.358,93.24,110.346,93.062,110.335,92.89z"/>
</svg>
