<?xml version="1.0" encoding="utf-8"?>
<!-- Generator: Adobe Illustrator 13.0.0, SVG Export Plug-In . SVG Version: 6.00 Build 14948)  -->
<!DOCTYPE svg PUBLIC "-//W3C//DTD SVG 1.0//EN" "http://www.w3.org/TR/2001/REC-SVG-20010904/DTD/svg10.dtd" [
	<!ENTITY ns_flows "http://ns.adobe.com/Flows/1.0/">
	<!ENTITY ns_extend "http://ns.adobe.com/Extensibility/1.0/">
	<!ENTITY ns_ai "http://ns.adobe.com/AdobeIllustrator/10.0/">
	<!ENTITY ns_graphs "http://ns.adobe.com/Graphs/1.0/">
]>
<svg version="1.0"
	 id="svg2250" xmlns:x="&ns_extend;" xmlns:i="&ns_ai;" xmlns:graph="&ns_graphs;" xmlns:svg="http://www.w3.org/2000/svg" inkscape:version="0.44.1" xmlns:dc="http://purl.org/dc/elements/1.1/" sodipodi:docbase="/home/Administrator" xmlns:cc="http://web.resource.org/cc/" xmlns:sodipodi="http://sodipodi.sourceforge.net/DTD/sodipodi-0.dtd" xmlns:rdf="http://www.w3.org/1999/02/22-rdf-syntax-ns#" xmlns:inkscape="http://www.inkscape.org/namespaces/inkscape" sodipodi:version="0.32" sodipodi:docname="start-here-green.svg"
	 xmlns="http://www.w3.org/2000/svg" xmlns:xlink="http://www.w3.org/1999/xlink" xmlns:a="http://ns.adobe.com/AdobeSVGViewerExtensions/3.0/"
	 x="0px" y="0px" width="128px" height="128px" viewBox="0 0 128 128" enable-background="new 0 0 128 128" xml:space="preserve">
<filter  x="-0.29221493" y="-0.057434313" width="1.5844299" height="1.1148686" id="filter4442">
	<feGaussianBlur  id="feGaussianBlur4444" stdDeviation="2.4087233" inkscape:collect="always"></feGaussianBlur>
</filter>
<sodipodi:namedview  id="base" pagecolor="#ffffff" inkscape:window-y="54" inkscape:pageopacity="0.0" inkscape:window-width="866" bordercolor="#666666" gridtolerance="10.0" objecttolerance="10.0" inkscape:current-layer="svg2250" inkscape:cy="67.396439" inkscape:cx="109.70578" inkscape:zoom="2.8284271" inkscape:window-x="108" inkscape:window-height="602" borderopacity="1.0" guidetolerance="10.0" inkscape:pageshadow="2">
	</sodipodi:namedview>
<linearGradient id="path35_1_" gradientUnits="userSpaceOnUse" x1="-331.8994" y1="-653.0996" x2="-211.8994" y2="-653.0996" gradientTransform="matrix(-1 0 0 -1 -210.3994 -586.5996)">
	<stop  offset="0" style="stop-color:#2D7800"/>
	<stop  offset="0.0105" style="stop-color:#0F491D"/>
	<stop  offset="0.0533" style="stop-color:#07240F"/>
	<stop  offset="0.099" style="stop-color:#166D2C"/>
	<stop  offset="0.1477" style="stop-color:#1D923A"/>
	<stop  offset="0.201" style="stop-color:#1D923A"/>
	<stop  offset="0.2622" style="stop-color:#1D923A"/>
	<stop  offset="0.3491" style="stop-color:#1D923A"/>
	<stop  offset="0.5858" style="stop-color:#166D2C"/>
	<stop  offset="1" style="stop-color:#07240F"/>
	<a:midPointStop  offset="0" style="stop-color:#2D7800"/>
	<a:midPointStop  offset="0.5" style="stop-color:#2D7800"/>
	<a:midPointStop  offset="0.0105" style="stop-color:#0F491D"/>
	<a:midPointStop  offset="0.5" style="stop-color:#0F491D"/>
	<a:midPointStop  offset="0.0533" style="stop-color:#07240F"/>
	<a:midPointStop  offset="0.5" style="stop-color:#07240F"/>
	<a:midPointStop  offset="0.099" style="stop-color:#166D2C"/>
	<a:midPointStop  offset="0.5" style="stop-color:#166D2C"/>
	<a:midPointStop  offset="0.1477" style="stop-color:#1D923A"/>
	<a:midPointStop  offset="0.5" style="stop-color:#1D923A"/>
	<a:midPointStop  offset="0.201" style="stop-color:#1D923A"/>
	<a:midPointStop  offset="0.5" style="stop-color:#1D923A"/>
	<a:midPointStop  offset="0.2622" style="stop-color:#1D923A"/>
	<a:midPointStop  offset="0.5" style="stop-color:#1D923A"/>
	<a:midPointStop  offset="0.3491" style="stop-color:#1D923A"/>
	<a:midPointStop  offset="0.5" style="stop-color:#1D923A"/>
	<a:midPointStop  offset="0.5858" style="stop-color:#166D2C"/>
	<a:midPointStop  offset="0.5" style="stop-color:#166D2C"/>
	<a:midPointStop  offset="1" style="stop-color:#07240F"/>
</linearGradient>
<path id="path35" fill="url(#path35_1_)" d="M1.5,22.5c0-8.8,7.2-16,16-16h88c8.8,0,16,7.2,16,16v88c0,8.8-7.2,16-16,16h-88
	c-8.8,0-16-7.2-16-16V22.5z"/>
<radialGradient id="path53_1_" cx="665.3672" cy="802.752" r="85.0255" gradientTransform="matrix(0.9825 0 0 0.9825 -592.2231 -722.2039)" gradientUnits="userSpaceOnUse">
	<stop  offset="0.5" style="stop-color:#166D2C"/>
	<stop  offset="0.7811" style="stop-color:#07240F"/>
	<stop  offset="1" style="stop-color:#4AC900"/>
	<a:midPointStop  offset="0.5" style="stop-color:#166D2C"/>
	<a:midPointStop  offset="0.5" style="stop-color:#166D2C"/>
	<a:midPointStop  offset="0.7811" style="stop-color:#07240F"/>
	<a:midPointStop  offset="0.5" style="stop-color:#07240F"/>
	<a:midPointStop  offset="1" style="stop-color:#4AC900"/>
</radialGradient>
<path id="path53" fill="url(#path53_1_)" d="M18.271,10.5C11.229,10.5,5.5,16.229,5.5,23.272v86.457
	c0,7.041,5.729,12.771,12.771,12.771h86.457c7.043,0,12.771-5.73,12.771-12.771V23.272c0-7.042-5.729-12.771-12.771-12.771H18.271
	L18.271,10.5z"/>
<g id="g66_1_" transform="translate(-5.5999858,-4.4)" opacity="0.6">
	<g>
		<g>
			<defs>
				<path id="SVGID_1_" d="M-8.417,26.22h-0.051c-22.728-0.292-46.473,4.077-46.709,4.122c-2.425,0.451-4.947,2.974-5.397,5.397
					c-0.044,0.237-4.414,23.983-4.122,46.71c-0.292,22.775,4.078,46.521,4.122,46.76c0.45,2.424,2.974,4.945,5.397,5.397
					c0.237,0.044,23.982,4.413,46.709,4.121c22.779,0.292,46.524-4.077,46.762-4.121c2.423-0.45,4.945-2.976,5.396-5.397
					c0.045-0.236,4.413-23.981,4.121-46.709c0.292-22.777-4.076-46.523-4.121-46.761c-0.451-2.423-2.976-4.946-5.396-5.397
					C38.056,30.297,14.31,25.928-8.417,26.22z"/>
			</defs>
			<clipPath id="SVGID_2_">
				<use xlink:href="#SVGID_1_"  overflow="visible"/>
			</clipPath>
			<g id="g4450_1_" clip-path="url(#SVGID_2_)">
				<g id="path83_1_" opacity="0.8" filter="url(#filter4442)" enable-background="new    ">
					
						<linearGradient id="SVGID_3_" gradientUnits="userSpaceOnUse" x1="639.5883" y1="803.1598" x2="647.5607" y2="832.9135" gradientTransform="matrix(1 0 0 1 -601.1992 -719)">
						<stop  offset="0" style="stop-color:#2DC900"/>
						<stop  offset="1" style="stop-color:#2D7800"/>
						<a:midPointStop  offset="0" style="stop-color:#2DC900"/>
						<a:midPointStop  offset="0.5" style="stop-color:#2DC900"/>
						<a:midPointStop  offset="1" style="stop-color:#2D7800"/>
					</linearGradient>
					<path fill="url(#SVGID_3_)" d="M41.302,35.74c-0.377-1.278-1.676-2.576-3.367-3.591c-1.693,1.015-2.988,2.312-3.365,3.591
						c-0.07,0.237-6.965,23.983-6.504,46.709c-0.461,22.776,6.434,46.522,6.504,46.762c0.377,1.277,1.674,2.576,3.365,3.591
						c1.693-1.017,2.991-2.312,3.367-3.593c0.068-0.235,6.963-23.98,6.503-46.709C48.265,59.723,41.372,35.977,41.302,35.74z"/>
				</g>
			</g>
		</g>
	</g>
</g>
<radialGradient id="path5692_2_" cx="-201.188" cy="-1152.1904" r="65.6277" gradientTransform="matrix(0.4137 -0.5587 -0.499 -0.3694 -438.23 -483.2028)" gradientUnits="userSpaceOnUse">
	<stop  offset="0" style="stop-color:#FFFFFF"/>
	<stop  offset="0.3278" style="stop-color:#FDFDFC"/>
	<stop  offset="0.6774" style="stop-color:#F4F5F4"/>
	<stop  offset="1" style="stop-color:#CACFD0"/>
	<a:midPointStop  offset="0" style="stop-color:#FFFFFF"/>
	<a:midPointStop  offset="0.5" style="stop-color:#FFFFFF"/>
	<a:midPointStop  offset="0.3278" style="stop-color:#FDFDFC"/>
	<a:midPointStop  offset="0.5" style="stop-color:#FDFDFC"/>
	<a:midPointStop  offset="0.6774" style="stop-color:#F4F5F4"/>
	<a:midPointStop  offset="0.5" style="stop-color:#F4F5F4"/>
	<a:midPointStop  offset="1" style="stop-color:#CACFD0"/>
</radialGradient>
<path id="path5692_1_" fill="url(#path5692_2_)" d="M59.054,24.01l-11.807,1.135v48.64l11.681-1.766V51.282l15.717,23.009
	l12.312-3.911L70.861,48.255l16.222-20.864L74.52,24.515L58.928,45.378L59.054,24.01z M32.287,35.868
	c-0.134,0.014-0.277,0.05-0.378,0.151l-4.642,4.642c-0.195,0.196-0.219,0.495-0.076,0.732l5.424,8.956
	c-0.963,1.619-1.746,3.356-2.296,5.198l-9.966,2.068c-0.278,0.058-0.479,0.322-0.479,0.605v6.559c0,0.278,0.21,0.517,0.479,0.581
	l9.663,2.346c0.517,2.133,1.315,4.173,2.372,6.03l-5.601,8.526c-0.156,0.238-0.126,0.556,0.076,0.758l4.642,4.642
	c0.196,0.195,0.495,0.219,0.732,0.076l8.779-5.323c1.722,0.994,3.585,1.791,5.55,2.321l2.042,9.839
	c0.058,0.278,0.296,0.479,0.581,0.479h6.56c0.274,0,0.515-0.185,0.58-0.454l2.422-9.89c2.025-0.546,3.936-1.356,5.701-2.397
	l8.654,5.677c0.238,0.156,0.555,0.126,0.757-0.075l4.617-4.643c0.196-0.195,0.244-0.495,0.101-0.731l-3.153-5.197l-1.034,0.328
	c-0.15,0.047-0.315-0.021-0.403-0.152c0,0-1.992-2.93-4.592-6.735c-3.109,6.084-9.45,10.242-16.752,10.242
	c-10.377,0-18.795-8.418-18.795-18.794c0-7.633,4.565-14.189,11.101-17.13v-4.844c-1.189,0.416-2.338,0.918-3.431,1.514
	c-0.001-0.001,0.002-0.024,0-0.025l-8.855-5.803C32.546,35.865,32.421,35.854,32.287,35.868z"/>
<linearGradient id="path99_1_" gradientUnits="userSpaceOnUse" x1="651.5" y1="719.3066" x2="651.5" y2="800.3522" gradientTransform="matrix(1 0 0 1 -590 -717)">
	<stop  offset="0.1302" style="stop-color:#FFFFFF"/>
	<stop  offset="0.5" style="stop-color:#FFFFFF"/>
	<a:midPointStop  offset="0.1302" style="stop-color:#FFFFFF"/>
	<a:midPointStop  offset="0.5" style="stop-color:#FFFFFF"/>
	<a:midPointStop  offset="0.5" style="stop-color:#FFFFFF"/>
</linearGradient>
<path id="path99" opacity="0.7" fill="url(#path99_1_)" enable-background="new    " d="M115.5,47.914
	c-1.195-13.482-3.073-22.799-3.104-22.955c-0.446-2.409-3.963-5.898-6.351-6.347c-0.233-0.044-22.608-4.389-45.009-4.098h-0.051
	c-22.399-0.291-44.775,4.054-45.01,4.098c-2.388,0.449-5.902,3.938-6.347,6.347c-0.022,0.117-1.092,5.005-2.13,13.644
	c0,5.785,0,11.569,0,17.355c0,3.607,2.396,7.78,5.328,9.29C12.826,65.145,17.463,78.5,56.837,78.5
	c39.375,0,53.638-20.675,53.634-20.445c2.766-1.858,5.028-6.306,5.028-9.914C115.5,48.065,115.5,47.989,115.5,47.914z"/>
<g id="layer1_2_" inkscape:groupmode="layer" inkscape:label="Layer 1">
	<g id="g3762_2_" transform="matrix(1.65,0,0,1.65,2.258112,0.227915)">
		<path fill="#CC0033" d="M63.088,50.267H52.484c-1.954,0-3.536,1.584-3.536,3.536c-1.952,0-3.536,1.584-3.536,3.536v10.604
			c0,1.954,1.584,3.537,3.536,3.537h10.604c1.954,0,3.536-1.58,3.536-3.537c1.954,0,3.536-1.579,3.536-3.531V53.804
			C66.623,51.852,65.042,50.267,63.088,50.267z"/>
		
			<linearGradient id="path59_1_" gradientUnits="userSpaceOnUse" x1="182.1998" y1="194.7518" x2="182.1998" y2="218.0846" gradientTransform="matrix(2.7225 0 0 2.7225 -440.022 -476.4094)">
			<stop  offset="0.6813" style="stop-color:#FFFFFF"/>
			<stop  offset="0.7989" style="stop-color:#FBFBFC"/>
			<stop  offset="0.9122" style="stop-color:#F0F1F3"/>
			<stop  offset="1" style="stop-color:#E1E3E8"/>
			<a:midPointStop  offset="0.6813" style="stop-color:#FFFFFF"/>
			<a:midPointStop  offset="0.5" style="stop-color:#FFFFFF"/>
			<a:midPointStop  offset="0.7989" style="stop-color:#FBFBFC"/>
			<a:midPointStop  offset="0.5" style="stop-color:#FBFBFC"/>
			<a:midPointStop  offset="0.9122" style="stop-color:#F0F1F3"/>
			<a:midPointStop  offset="0.5" style="stop-color:#F0F1F3"/>
			<a:midPointStop  offset="1" style="stop-color:#E1E3E8"/>
		</linearGradient>
		<path id="path59_2_" fill="url(#path59_1_)" d="M63.075,57.03v-0.007l0,0c-0.014-0.138-0.034-0.266-0.064-0.385
			c-0.426-2.202-2.694-2.789-3.098-2.824v10.365c-0.459,1.085-2.279,1.81-4.213,1.689c-2.363-0.149-3.505-1.009-3.572-1.792V53.804
			h-3.179v10.604c0.052,1.995,1.393,3.427,3.533,3.536H57.7c0.787-0.152,1.695-0.826,2.208-1.539v1.539h0.46h2.706h0.013V57.338
			C63.088,57.23,63.08,57.129,63.075,57.03z"/>
	</g>
</g>
</svg>
