<?xml version="1.0" encoding="utf-8"?>
<!-- Generator: Adobe Illustrator 13.0.0, SVG Export Plug-In  -->
<!DOCTYPE svg PUBLIC "-//W3C//DTD SVG 1.1//EN" "http://www.w3.org/Graphics/SVG/1.1/DTD/svg11.dtd" [
	<!ENTITY ns_flows "http://ns.adobe.com/Flows/1.0/">
]>
<svg version="1.1"
	 xmlns="http://www.w3.org/2000/svg" xmlns:xlink="http://www.w3.org/1999/xlink" xmlns:a="http://ns.adobe.com/AdobeSVGViewerExtensions/3.0/"
	 x="0px" y="0px" width="128px" height="128px" viewBox="10.46 29.349 128 128" enable-background="new 10.46 29.349 128 128"
	 xml:space="preserve">
<defs>
</defs>
<filter  id="AI_Sfocatura_4">
	<feGaussianBlur  id="feGaussianBlur6" stdDeviation="4"></feGaussianBlur>
</filter>
<linearGradient id="path35_2_" gradientUnits="userSpaceOnUse" x1="-1362.6636" y1="-1250.5293" x2="-1234.6636" y2="-1250.5293" gradientTransform="matrix(-1 0 0 -1 -1225.7031 -1177.5703)">
	<stop  offset="0" style="stop-color:#2D7800"/>
	<stop  offset="0.0105" style="stop-color:#2D5200"/>
	<stop  offset="0.0533" style="stop-color:#348C00"/>
	<stop  offset="0.099" style="stop-color:#3BA000"/>
	<stop  offset="0.1477" style="stop-color:#42B400"/>
	<stop  offset="0.201" style="stop-color:#4AC900"/>
	<stop  offset="0.2622" style="stop-color:#4AC900"/>
	<stop  offset="0.3491" style="stop-color:#4AC900"/>
	<stop  offset="0.5858" style="stop-color:#4AC900"/>
	<stop  offset="1" style="stop-color:#2D4500"/>
</linearGradient>
<path id="path35_1_" fill="url(#path35_2_)" d="M8.96,26.025c0-9.386,7.68-17.066,17.066-17.066h93.867
	c9.385,0,17.066,7.68,17.066,17.066v93.867c0,9.386-7.682,17.066-17.066,17.066H26.027c-9.386,0-17.066-7.681-17.066-17.066V26.025z
	"/>
<radialGradient id="path53_2_" cx="593.4819" cy="1684.376" r="85.024" gradientTransform="matrix(1.048 0 0 1.048 -549.0073 -1692.2676)" gradientUnits="userSpaceOnUse">
	<stop  offset="0.1758" style="stop-color:#4AC900"/>
	<stop  offset="0.7811" style="stop-color:#2D7800"/>
	<stop  offset="1" style="stop-color:#4AC900"/>
</radialGradient>
<path id="path53_1_" fill="url(#path53_2_)" d="M26.851,13.226c-7.513,0-13.624,6.111-13.624,13.623v92.221
	c0,7.513,6.111,13.623,13.624,13.623h92.221c7.511,0,13.623-6.11,13.623-13.623v-92.22c0-7.51-6.11-13.623-13.623-13.623
	L26.851,13.226L26.851,13.226z"/>
<g id="path64_1_" filter="url(#AI_Sfocatura_4)">
	
		<radialGradient id="SVGID_1_" cx="576.7847" cy="1735.4668" r="141" gradientTransform="matrix(1.0667 0 0 1.0667 -542.2771 -1696.0757)" gradientUnits="userSpaceOnUse">
		<stop  offset="0" style="stop-color:#245247"/>
		<stop  offset="0.5" style="stop-color:#58C61A"/>
		<stop  offset="1" style="stop-color:#245C1D"/>
	</radialGradient>
	<path fill="url(#SVGID_1_)" d="M72.989,12.175h-0.057c-24.556-0.317-50.215,4.406-50.471,4.454
		c-2.619,0.487-5.344,3.213-5.832,5.831c-0.048,0.256-4.771,25.915-4.455,50.47c-0.317,24.611,4.406,50.272,4.455,50.526
		c0.487,2.617,3.214,5.346,5.833,5.835c0.255,0.048,25.914,4.771,50.47,4.452c24.61,0.318,50.271-4.404,50.525-4.452
		c2.616-0.487,5.348-3.218,5.837-5.836c0.046-0.253,4.77-25.913,4.452-50.469c0.317-24.612-4.406-50.271-4.452-50.526
		c-0.489-2.619-3.221-5.344-5.837-5.832C123.206,16.582,97.544,11.857,72.989,12.175z"/>
</g>
<radialGradient id="path5692_3_" cx="-1198.7896" cy="-2349.1992" r="81.2918" gradientTransform="matrix(0.4413 -0.5959 -0.5323 -0.394 -648.4325 -1571.7175)" gradientUnits="userSpaceOnUse">
	<stop  offset="0" style="stop-color:#FFFFFF"/>
	<stop  offset="0.3278" style="stop-color:#FDFDFC"/>
	<stop  offset="0.6774" style="stop-color:#F4F5F4"/>
	<stop  offset="1" style="stop-color:#CACFD0"/>
</radialGradient>
<path id="path5692_2_" fill="url(#path5692_3_)" d="M80.329,27.637l-15.601,1.5v64.266l15.434-2.333V63.671l20.767,30.399
	l16.267-5.168L95.928,59.671l21.434-27.568l-16.601-3.799l-20.6,27.566L80.329,27.637z M44.96,43.303
	c-0.177,0.018-0.367,0.067-0.5,0.201l-6.133,6.133c-0.258,0.258-0.289,0.653-0.1,0.966l7.167,11.834
	c-1.272,2.14-2.306,4.434-3.033,6.866l-13.167,2.733c-0.367,0.076-0.633,0.425-0.633,0.8v8.668c0,0.366,0.278,0.682,0.633,0.767
	l12.767,3.1c0.683,2.817,1.737,5.513,3.134,7.967l-7.4,11.267c-0.206,0.314-0.167,0.733,0.1,1l6.133,6.134
	c0.258,0.258,0.655,0.289,0.966,0.102l11.6-7.035c2.275,1.313,4.738,2.369,7.333,3.066l2.699,13.001
	c0.076,0.37,0.392,0.635,0.768,0.635h8.666c0.364,0,0.683-0.244,0.77-0.599l3.2-13.067c2.675-0.724,5.2-1.794,7.531-3.169
	l11.437,7.5c0.314,0.206,0.733,0.166,1-0.101l6.102-6.133c0.257-0.259,0.323-0.654,0.134-0.967l-4.167-6.867l-1.366,0.434
	c-0.198,0.062-0.417-0.027-0.533-0.201c0,0-2.632-3.871-6.067-8.9c-4.11,8.039-12.485,13.535-22.133,13.535
	c-13.711,0-24.833-11.125-24.833-24.834c0-10.086,6.031-18.746,14.667-22.632v-6.4c-1.572,0.55-3.09,1.214-4.533,2
	c-0.002-0.001,0.002-0.031,0-0.034l-11.7-7.667C45.303,43.3,45.139,43.287,44.96,43.303z"/>
<linearGradient id="path99_2_" gradientUnits="userSpaceOnUse" x1="571.1851" y1="1583.5947" x2="571.1851" y2="1670.0464" gradientTransform="matrix(1 0 0 1 -498.2246 -1579.1104)">
	<stop  offset="0.1302" style="stop-color:#FFFFFF"/>
	<stop  offset="0.5" style="stop-color:#FFFFFF"/>
</linearGradient>
<path id="path99_1_" opacity="0.3" fill="url(#path99_2_)" enable-background="new    " d="M130.561,53.134
	c-1.274-14.38-3.278-24.319-3.31-24.485c-0.478-2.57-4.228-6.291-6.777-6.771c-0.246-0.045-24.112-4.681-48.009-4.371h-0.055
	c-23.892-0.311-47.76,4.325-48.009,4.371c-2.547,0.479-6.297,4.201-6.77,6.771c-0.023,0.125-1.165,5.339-2.272,14.555
	c0,6.171,0,12.339,0,18.511c0,3.846,2.556,8.298,5.683,9.91c-0.002-0.112,4.944,14.135,46.943,14.135
	c42,0,57.215-22.053,57.211-21.807c2.95-1.981,5.36-6.728,5.36-10.575C130.561,53.293,130.561,53.214,130.561,53.134z"/>
</svg>
