<svg xmlns="http://www.w3.org/2000/svg" viewBox="0 0 150 150"><defs><style>.a{fill:#fff;}</style></defs><path class="a" d="M119.67761,30.28955h-87.355a2.00587,2.00587,0,0,0-2,2V50.655a2.00587,2.00587,0,0,0,2,2h87.355a2.00591,2.00591,0,0,0,2-2V32.28955A2.00591,2.00591,0,0,0,119.67761,30.28955ZM109.4021,46.886a5.41373,5.41373,0,1,1,5.4137-5.4137A5.41371,5.41371,0,0,1,109.4021,46.886Z"/><path class="a" d="M119.67761,60.0733h-87.355a2.00587,2.00587,0,0,0-2,2V80.43872a2.00587,2.00587,0,0,0,2,2h87.355a2.00591,2.00591,0,0,0,2-2V62.0733A2.00591,2.00591,0,0,0,119.67761,60.0733ZM109.4021,76.66974a5.4137,5.4137,0,1,1,5.4137-5.4137A5.41371,5.41371,0,0,1,109.4021,76.66974Z"/><path class="a" d="M90.648,106.27551A23.63562,23.63562,0,0,1,97.86151,89.269H32.32257a2.00587,2.00587,0,0,0-2,2V109.6344a2.00587,2.00587,0,0,0,2,2H91.26624A23.67481,23.67481,0,0,1,90.648,106.27551Z"/><path class="a" d="M114.35742,102.80371a2.99983,2.99983,0,0,0-3,3V116.1709a3,3,0,0,0,6,0V105.80371A2.99983,2.99983,0,0,0,114.35742,102.80371Z"/><path class="a" d="M114.35986,99.37988a2.85458,2.85458,0,0,0,.58008-.06054,2.80815,2.80815,0,0,0,.56983-.16993,3.20078,3.20078,0,0,0,.51025-.27929,2.37544,2.37544,0,0,0,.46-.37012,3.01538,3.01538,0,0,0,.87988-2.12012,2.94892,2.94892,0,0,0-.06006-.58984,3.65383,3.65383,0,0,0-.16992-.56055,3.71912,3.71912,0,0,0-.28027-.51953,3.14443,3.14443,0,0,0-.36963-.45019,3.09528,3.09528,0,0,0-4.24023,0,3,3,0,0,0,2.12011,5.12011Z"/><path class="a" d="M114.35742,85.56543a20.71,20.71,0,1,0,20.71,20.71A20.73279,20.73279,0,0,0,114.35742,85.56543Zm0,38.41992a17.71,17.71,0,1,1,17.71-17.71A17.7295,17.7295,0,0,1,114.35742,123.98535Z"/></svg>