<?xml version="1.0" encoding="UTF-8" standalone="no"?>
<svg
   xmlns:dc="http://purl.org/dc/elements/1.1/"
   xmlns:cc="http://creativecommons.org/ns#"
   xmlns:rdf="http://www.w3.org/1999/02/22-rdf-syntax-ns#"
   xmlns:svg="http://www.w3.org/2000/svg"
   xmlns="http://www.w3.org/2000/svg"
   xmlns:sodipodi="http://sodipodi.sourceforge.net/DTD/sodipodi-0.dtd"
   xmlns:inkscape="http://www.inkscape.org/namespaces/inkscape"
   id="Ebene_1"
   data-name="Ebene 1"
   viewBox="0 0 400 273.93"
   version="1.1"
   sodipodi:docname="hardware-information.svg"
   inkscape:version="0.92.4 (unknown)">
  <metadata
     id="metadata15">
    <rdf:RDF>
      <cc:Work
         rdf:about="">
        <dc:format>image/svg+xml</dc:format>
        <dc:type
           rdf:resource="http://purl.org/dc/dcmitype/StillImage" />
      </cc:Work>
    </rdf:RDF>
  </metadata>
  <sodipodi:namedview
     pagecolor="#ffffff"
     bordercolor="#666666"
     borderopacity="1"
     objecttolerance="10"
     gridtolerance="10"
     guidetolerance="10"
     inkscape:pageopacity="0"
     inkscape:pageshadow="2"
     inkscape:window-width="1916"
     inkscape:window-height="1005"
     id="namedview13"
     showgrid="false"
     inkscape:zoom="0.86153399"
     inkscape:cx="-94.242598"
     inkscape:cy="136.965"
     inkscape:window-x="0"
     inkscape:window-y="73"
     inkscape:window-maximized="0"
     inkscape:current-layer="Ebene_1" />
  <defs
     id="defs4">
    <style
       id="style2">.cls-1{fill:#868681;}</style>
  </defs>
  <title
     id="title6">desktop-terminal</title>
  <path
     class="cls-1"
     d="M0,100.26V242.74H228V100.26ZM213.73,228.5H14.24v-114H213.73ZM149.62,257H78.38L71.24,285.5,57,299.74H171L156.73,285.5Zm0,0"
     transform="translate(0 -63.04)"
     id="path8"
     style="fill:#ffffff;fill-opacity:1" />
  <path
     class="cls-1"
     d="M378.55,63H285.38a21.44,21.44,0,0,0-21.45,21.44v231A21.44,21.44,0,0,0,285.38,337h93.17A21.44,21.44,0,0,0,400,315.52v-231A21.44,21.44,0,0,0,378.55,63Zm4.93,184h-14V233h14Zm0-26h-22V199h22Zm0-84h-102v-2h102Zm0-14h-102V101h102Z"
     transform="translate(0 -63.04)"
     id="path10"
     style="fill:#ffffff;fill-opacity:1" />
</svg>
