<svg id="Ebene_1" data-name="Ebene 1" xmlns="http://www.w3.org/2000/svg" viewBox="0 0 400 273.93"><defs><style>.cls-1{fill:#868681;}</style></defs><title>desktop-terminal</title><path class="cls-1" d="M0,100.26V242.74H228V100.26ZM213.73,228.5H14.24v-114H213.73ZM149.62,257H78.38L71.24,285.5,57,299.74H171L156.73,285.5Zm0,0" transform="translate(0 -63.04)"/><path class="cls-1" d="M378.55,63H285.38a21.44,21.44,0,0,0-21.45,21.44v231A21.44,21.44,0,0,0,285.38,337h93.17A21.44,21.44,0,0,0,400,315.52v-231A21.44,21.44,0,0,0,378.55,63Zm4.93,184h-14V233h14Zm0-26h-22V199h22Zm0-84h-102v-2h102Zm0-14h-102V101h102Z" transform="translate(0 -63.04)"/></svg>