<?xml version="1.0" encoding="UTF-8" standalone="no"?>
<svg
   xmlns:dc="http://purl.org/dc/elements/1.1/"
   xmlns:cc="http://creativecommons.org/ns#"
   xmlns:rdf="http://www.w3.org/1999/02/22-rdf-syntax-ns#"
   xmlns:svg="http://www.w3.org/2000/svg"
   xmlns="http://www.w3.org/2000/svg"
   xmlns:sodipodi="http://sodipodi.sourceforge.net/DTD/sodipodi-0.dtd"
   xmlns:inkscape="http://www.inkscape.org/namespaces/inkscape"
   version="1.1"
   id="svg4379"
   viewBox="0 0 155 165"
   height="165"
   width="155"
   inkscape:version="0.91 r13725"
   sodipodi:docname="app-vignette.svg">
  <sodipodi:namedview
     pagecolor="#ffffff"
     bordercolor="#666666"
     borderopacity="1"
     objecttolerance="10"
     gridtolerance="10"
     guidetolerance="10"
     inkscape:pageopacity="0"
     inkscape:pageshadow="2"
     inkscape:window-width="1680"
     inkscape:window-height="1013"
     id="namedview9"
     showgrid="true"
     inkscape:zoom="2.022754"
     inkscape:cx="2.4896582"
     inkscape:cy="52.871392"
     inkscape:window-x="-6"
     inkscape:window-y="0"
     inkscape:window-maximized="1"
     inkscape:current-layer="layer1">
    <inkscape:grid
       type="xygrid"
       id="grid4137" />
  </sodipodi:namedview>
  <defs
     id="defs4381">
    <clipPath
       id="clipPath2418-0">
      <path
         d="M 0,144 432,144 432,0 0,0 0,144 Z"
         id="path2420-4" />
    </clipPath>
  </defs>
  <metadata
     id="metadata4384">
    <rdf:RDF>
      <cc:Work
         rdf:about="">
        <dc:format>image/svg+xml</dc:format>
        <dc:type
           rdf:resource="http://purl.org/dc/dcmitype/StillImage" />
        <dc:title />
      </cc:Work>
    </rdf:RDF>
  </metadata>
  <g
     transform="translate(-327.17383,-237.44336)"
     id="layer1">
    <path
       style="color:#000000;clip-rule:nonzero;display:inline;overflow:visible;visibility:visible;opacity:1;isolation:auto;mix-blend-mode:normal;color-interpolation:sRGB;color-interpolation-filters:linearRGB;solid-color:#000000;solid-opacity:1;fill:#ffffff;fill-opacity:1;fill-rule:nonzero;stroke:none;stroke-width:11.77667427;stroke-linecap:butt;stroke-linejoin:miter;stroke-miterlimit:4;stroke-dasharray:none;stroke-dashoffset:0;stroke-opacity:1;marker:none;color-rendering:auto;image-rendering:auto;shape-rendering:auto;text-rendering:auto;enable-background:accumulate"
       d="m 0,0 0,20.759766 c 1.75809,-4.59914 6.11378,-8.031171 11.0625,-8.431641 0.55587,-0.045 1.085084,-0.139941 1.177734,-0.212891 0.0926,-0.073 0.167969,-0.391501 0.167969,-0.707031 0,-0.8993 0.39048,-2.724728 0.818359,-3.830078 0.611511,-1.57972 1.535302,-3.0245312 2.732422,-4.2695312 C 17.445844,1.7621937 18.997532,0.70853 20.826172,0 Z M 147.39453,0 C 150.87537,1.36304 153.61358,4.1091463 155,7.6289062 L 155,0 Z"
       transform="translate(327.17383,237.44336)"
       id="rect4973"
       inkscape:connector-curvature="0"
       sodipodi:nodetypes="ccccssccccccc" />
    <path
       style="color:#000000;clip-rule:nonzero;display:inline;overflow:visible;visibility:visible;opacity:1;isolation:auto;mix-blend-mode:normal;color-interpolation:sRGB;color-interpolation-filters:linearRGB;solid-color:#000000;solid-opacity:1;fill:#ffffff;fill-opacity:1;fill-rule:nonzero;stroke:none;stroke-width:11.77667427;stroke-linecap:butt;stroke-linejoin:miter;stroke-miterlimit:4;stroke-dasharray:none;stroke-dashoffset:0;stroke-opacity:1;marker:none;color-rendering:auto;image-rendering:auto;shape-rendering:auto;text-rendering:auto;enable-background:accumulate"
       d="m 482.17383,380.68359 c -1.75809,4.59914 -6.11378,8.03117 -11.0625,8.43165 -0.55587,0.045 -1.08508,0.13994 -1.17773,0.21289 -0.0926,0.073 -0.16797,0.3915 -0.16797,0.70703 0,0.8993 -0.39048,2.72473 -0.81836,3.83008 -0.61151,1.57972 -1.5353,3.02453 -2.73242,4.26953 -1.48686,1.5464 -3.03855,2.60006 -4.86719,3.30859 l -126.56836,0 c -3.48084,-1.36304 -6.21905,-4.10915 -7.60547,-7.62891 l 0,7.62891 0,5 155,0 0,-5 0,-20.75977 z"
       id="path4156"
       inkscape:connector-curvature="0" />
  </g>
</svg>
