<?xml version="1.0" encoding="utf-8"?>
<!-- Generator: Adobe Illustrator 23.0.3, SVG Export Plug-In . SVG Version: 6.00 Build 0)  -->
<svg version="1.1" id="Ebene_1" xmlns="http://www.w3.org/2000/svg" xmlns:xlink="http://www.w3.org/1999/xlink" x="0px" y="0px"
	 viewBox="0 0 48 46" style="enable-background:new 0 0 48 46;" xml:space="preserve">
<style type="text/css">
	.st0{clip-path:url(#SVGID_2_);fill:#878783;}
	.st1{clip-path:url(#SVGID_2_);fill:#FFFFFF;}
</style>
<g>
	<defs>
		<rect id="SVGID_1_" x="2.7" y="2.5" width="41.1" height="41.1"/>
	</defs>
	<clipPath id="SVGID_2_">
		<use xlink:href="#SVGID_1_"  style="overflow:visible;"/>
	</clipPath>
	<path class="st0" d="M23.3,43.6c11.3,0,20.6-9.2,20.6-20.6S34.6,2.5,23.3,2.5S2.7,11.7,2.7,23.1S11.9,43.6,23.3,43.6"/>
	<path class="st1" d="M27,22.6c-1.8,0-3.2-1.4-3.2-3.2s1.4-3.2,3.2-3.2c1.8,0,3.2,1.4,3.2,3.2S28.7,22.6,27,22.6 M35.1,20.1v-1.5
		l-1.6-0.3c0-0.2-0.1-0.4-0.1-0.6l1.3-0.9l-0.6-1.4l-1.5,0.3c-0.1-0.2-0.2-0.3-0.3-0.5l0.9-1.3l-1-1L30.9,14
		c-0.1-0.1-0.3-0.2-0.5-0.3l0.3-1.5l-1.4-0.6l-0.9,1.3c-0.2,0-0.4-0.1-0.5-0.1l-0.3-1.6h-1.5l-0.3,1.6c-0.2,0-0.4,0.1-0.5,0.1
		l-0.9-1.3l-1.4,0.6l0.3,1.5c-0.2,0.1-0.3,0.2-0.5,0.3l-1.3-0.9l-1,1l0.9,1.3c-0.1,0.1-0.2,0.3-0.3,0.5l-1.5-0.3l-0.6,1.4l1.3,0.9
		c0,0.2-0.1,0.4-0.1,0.6l-1.6,0.3v1.5l1.6,0.3c0,0.2,0.1,0.4,0.1,0.5l-1.3,0.9l0.6,1.4l1.5-0.3c0.1,0.2,0.2,0.3,0.3,0.5l-0.9,1.3
		l1,1l1.3-0.9c0.1,0.1,0.3,0.2,0.5,0.3l-0.3,1.5l1.4,0.6l0.9-1.3c0.2,0,0.4,0.1,0.5,0.1l0.3,1.6h1.5l0.3-1.6c0.2,0,0.4-0.1,0.5-0.1
		l0.9,1.3l1.4-0.6L30.4,25c0.2-0.1,0.3-0.2,0.5-0.3l1.3,0.9l1-1l-0.9-1.3c0.1-0.1,0.2-0.3,0.3-0.5l1.5,0.3l0.6-1.4l-1.3-0.9
		c0-0.2,0.1-0.4,0.1-0.5L35.1,20.1L35.1,20.1z M16.6,31.2c-0.8,0-1.5-0.7-1.5-1.5c0-0.8,0.7-1.5,1.5-1.5c0.8,0,1.5,0.7,1.5,1.5
		C18.1,30.5,17.4,31.2,16.6,31.2 M19.8,27.9l1-1.3l-1-1l-1.3,1c-0.2-0.1-0.5-0.2-0.8-0.3l-0.3-1.6h-1.5l-0.3,1.6
		c-0.3,0.1-0.5,0.2-0.8,0.3l-1.3-1l-1,1l1,1.3c-0.1,0.2-0.2,0.5-0.3,0.8L11.4,29v1.5l1.6,0.3c0.1,0.3,0.2,0.5,0.3,0.8l-1,1.3l1,1
		l1.3-1c0.2,0.1,0.5,0.2,0.8,0.3l0.3,1.6h1.5l0.3-1.6c0.3-0.1,0.5-0.2,0.8-0.3l1.3,1l1-1l-1-1.3c0.1-0.2,0.2-0.5,0.3-0.8l1.6-0.3V29
		l-1.6-0.3C20.1,28.4,20,28.2,19.8,27.9"/>
</g>
</svg>
