<?xml version="1.0" encoding="UTF-8" standalone="no"?>
<!-- Generator: Adobe Illustrator 23.0.3, SVG Export Plug-In . SVG Version: 6.00 Build 0)  -->

<svg
   xmlns:dc="http://purl.org/dc/elements/1.1/"
   xmlns:cc="http://creativecommons.org/ns#"
   xmlns:rdf="http://www.w3.org/1999/02/22-rdf-syntax-ns#"
   xmlns:svg="http://www.w3.org/2000/svg"
   xmlns="http://www.w3.org/2000/svg"
   xmlns:xlink="http://www.w3.org/1999/xlink"
   xmlns:sodipodi="http://sodipodi.sourceforge.net/DTD/sodipodi-0.dtd"
   xmlns:inkscape="http://www.inkscape.org/namespaces/inkscape"
   version="1.1"
   id="Ebene_1"
   x="0px"
   y="0px"
   viewBox="0 0 48 46"
   style="enable-background:new 0 0 48 46;"
   xml:space="preserve"
   sodipodi:docname="system-services.svg"
   inkscape:version="0.92.4 (unknown)"><metadata
   id="metadata893"><rdf:RDF><cc:Work
       rdf:about=""><dc:format>image/svg+xml</dc:format><dc:type
         rdf:resource="http://purl.org/dc/dcmitype/StillImage" /><dc:title></dc:title></cc:Work></rdf:RDF></metadata><defs
   id="defs891">
	<defs
   id="defs877">
		<rect
   height="41.1"
   width="41.1"
   y="2.5"
   x="2.7"
   id="SVGID_1_" />
	</defs>
	<clipPath
   id="SVGID_2_">
		<use
   id="use879"
   style="overflow:visible;"
   xlink:href="#SVGID_1_" />
	</clipPath>
	
	
</defs><sodipodi:namedview
   pagecolor="#ffffff"
   bordercolor="#666666"
   borderopacity="1"
   objecttolerance="10"
   gridtolerance="10"
   guidetolerance="10"
   inkscape:pageopacity="0"
   inkscape:pageshadow="2"
   inkscape:window-width="1916"
   inkscape:window-height="1005"
   id="namedview889"
   showgrid="false"
   inkscape:zoom="8.7717391"
   inkscape:cx="18.02969"
   inkscape:cy="24.725641"
   inkscape:window-x="0"
   inkscape:window-y="73"
   inkscape:window-maximized="0"
   inkscape:current-layer="Ebene_1" />
<style
   type="text/css"
   id="style874">
	.st0{clip-path:url(#SVGID_2_);fill:#878783;}
	.st1{clip-path:url(#SVGID_2_);fill:#FFFFFF;}
</style>
<path
   style="fill:#ffffff"
   inkscape:connector-curvature="0"
   id="path884"
   clip-path="url(#SVGID_2_)"
   d="m 27,22.6 c -1.8,0 -3.2,-1.4 -3.2,-3.2 0,-1.8 1.4,-3.2 3.2,-3.2 1.8,0 3.2,1.4 3.2,3.2 0,1.8 -1.5,3.2 -3.2,3.2 m 8.1,-2.5 v -1.5 l -1.6,-0.3 c 0,-0.2 -0.1,-0.4 -0.1,-0.6 l 1.3,-0.9 -0.6,-1.4 -1.5,0.3 c -0.1,-0.2 -0.2,-0.3 -0.3,-0.5 l 0.9,-1.3 -1,-1 -1.3,1.1 c -0.1,-0.1 -0.3,-0.2 -0.5,-0.3 l 0.3,-1.5 -1.4,-0.6 -0.9,1.3 c -0.2,0 -0.4,-0.1 -0.5,-0.1 l -0.3,-1.6 h -1.5 l -0.3,1.6 c -0.2,0 -0.4,0.1 -0.5,0.1 l -0.9,-1.3 -1.4,0.6 0.3,1.5 C 23.1,13.8 23,13.9 22.8,14 l -1.3,-0.9 -1,1 0.9,1.3 c -0.1,0.1 -0.2,0.3 -0.3,0.5 L 19.6,15.6 19,17 l 1.3,0.9 c 0,0.2 -0.1,0.4 -0.1,0.6 l -1.6,0.3 v 1.5 l 1.6,0.3 c 0,0.2 0.1,0.4 0.1,0.5 L 19,22 l 0.6,1.4 1.5,-0.3 c 0.1,0.2 0.2,0.3 0.3,0.5 l -0.9,1.3 1,1 1.3,-0.9 c 0.1,0.1 0.3,0.2 0.5,0.3 l -0.3,1.5 1.4,0.6 0.9,-1.3 c 0.2,0 0.4,0.1 0.5,0.1 l 0.3,1.6 h 1.5 l 0.3,-1.6 c 0.2,0 0.4,-0.1 0.5,-0.1 l 0.9,1.3 1.4,-0.6 -0.3,-1.8 c 0.2,-0.1 0.3,-0.2 0.5,-0.3 l 1.3,0.9 1,-1 -0.9,-1.3 c 0.1,-0.1 0.2,-0.3 0.3,-0.5 l 1.5,0.3 0.6,-1.4 -1.3,-0.9 c 0,-0.2 0.1,-0.4 0.1,-0.5 z M 16.6,31.2 c -0.8,0 -1.5,-0.7 -1.5,-1.5 0,-0.8 0.7,-1.5 1.5,-1.5 0.8,0 1.5,0.7 1.5,1.5 0,0.8 -0.7,1.5 -1.5,1.5 m 3.2,-3.3 1,-1.3 -1,-1 -1.3,1 C 18.3,26.5 18,26.4 17.7,26.3 l -0.3,-1.6 h -1.5 l -0.3,1.6 c -0.3,0.1 -0.5,0.2 -0.8,0.3 l -1.3,-1 -1,1 1,1.3 c -0.1,0.2 -0.2,0.5 -0.3,0.8 L 11.4,29 v 1.5 l 1.6,0.3 c 0.1,0.3 0.2,0.5 0.3,0.8 l -1,1.3 1,1 1.3,-1 c 0.2,0.1 0.5,0.2 0.8,0.3 l 0.3,1.6 h 1.5 l 0.3,-1.6 C 17.8,33.1 18,33 18.3,32.9 l 1.3,1 1,-1 -1,-1.3 c 0.1,-0.2 0.2,-0.5 0.3,-0.8 l 1.6,-0.3 V 29 l -1.6,-0.3 c 0.2,-0.3 0.1,-0.5 -0.1,-0.8"
   class="st1"
   transform="matrix(1.9491525,0,0,1.9491525,-21.317796,-21.830507)" />
</svg>