<svg xmlns="http://www.w3.org/2000/svg" viewBox="0 0 150 150"><defs><style>.a{fill:#fff;}</style></defs><path class="a" d="M114.03033,49.31842a22.28908,22.28908,0,0,0-1.98822-4.84509l5.83924-8.17487-6.399-6.399-8.17486,5.83917a22.29221,22.29221,0,0,0-4.82581-2.00751L96.812,23.82379H87.76361l-1.65039,9.90735a22.39464,22.39464,0,0,0-4.82581,2.00751l-8.17486-5.83917-6.41828,6.399,5.83918,8.17487a22.29068,22.29068,0,0,0-2.00751,4.8258l-4.9671.8371c.05206.6073.09289,1.218.09289,1.83875a22.25956,22.25956,0,0,1-.46948,4.3598L70.513,61.66547l.01294.00213.005.01581L86.08069,77.233l.00836.00263.00116.00689,9.91986,9.91968H96.812l1.65045-9.90729a22.49185,22.49185,0,0,0,4.82575-2.0075l8.17492,5.83917,6.399-6.399-5.83923-8.17486a22.52969,22.52969,0,0,0,2.0075-4.82581l9.90735-1.65039V50.96881ZM92.29022,64.54376a9.04834,9.04834,0,1,1,9.04834-9.04834A9.04835,9.04835,0,0,1,92.29022,64.54376Z"/><path class="a" d="M119.79211,115.18719a19.27329,19.27329,0,0,0,.793-5.30548,18.29472,18.29472,0,0,0-18.29492-18.29455q-.08935-.00091-.17871-.001a16.94887,16.94887,0,0,0-5.12646.79376L61.85925,57.25433a19.27265,19.27265,0,0,0,.79273-5.30542A18.29447,18.29447,0,0,0,44.35754,33.65436c-.05957-.00061-.11938-.001-.179-.001a16.95014,16.95014,0,0,0-5.12647.79376L50.45569,45.85077,38.25916,58.04712,26.85559,46.64349a17.2,17.2,0,0,0-.79272,5.30542A18.29457,18.29457,0,0,0,44.35754,70.24353c.05957.00061.11939.00092.17871.00092a16.95434,16.95434,0,0,0,5.12671-.79371L84.7887,104.57629a16.943,16.943,0,0,0-.793,5.30542,18.29468,18.29468,0,0,0,18.29443,18.29462,19.27325,19.27325,0,0,0,5.30567-.79279L96.192,115.97992l12.19629-12.19635Z"/><path class="a" d="M78.70264,105.22144l.37646-2.11188L57.39429,81.42462l-.66767,1.87866a15.08782,15.08782,0,0,0-3.43792.76093L48.55731,79.225l-5.01324,3.48517,2.90619,6.11206a15.01246,15.01246,0,0,0-1.902,2.96319l-6.76819-.0639-1.06976,6.001L43.086,99.98853a15.01533,15.01533,0,0,0,.76086,3.43786l-4.83917,4.73145,3.48425,4.99987,6.11206-2.90618a15.11193,15.11193,0,0,0,2.96326,1.902l-.063,6.78156,6.001,1.0697,2.26587-6.37561a15.15221,15.15221,0,0,0,3.43793-.76086l4.73138,4.83911L72.941,114.22l-2.90619-6.11212a15.18022,15.18022,0,0,0,1.902-2.9632Zm-14.45136-5.6836A6.09566,6.09566,0,1,1,59.32,92.467,6.09565,6.09565,0,0,1,64.25128,99.53784Z"/></svg>