<?xml version="1.0" encoding="UTF-8" standalone="no"?>
<!-- Created with Inkscape (http://www.inkscape.org/) -->

<svg
   xmlns:dc="http://purl.org/dc/elements/1.1/"
   xmlns:cc="http://creativecommons.org/ns#"
   xmlns:rdf="http://www.w3.org/1999/02/22-rdf-syntax-ns#"
   xmlns:svg="http://www.w3.org/2000/svg"
   xmlns="http://www.w3.org/2000/svg"
   version="1.1"
   width="70"
   height="70"
   id="svg5028">
  <defs
     id="defs8" />
  <metadata
     id="metadata5033">
    <rdf:RDF>
      <cc:Work
         rdf:about="">
        <dc:format>image/svg+xml</dc:format>
        <dc:type
           rdf:resource="http://purl.org/dc/dcmitype/StillImage" />
        <dc:title></dc:title>
      </cc:Work>
    </rdf:RDF>
  </metadata>
  <g
     transform="matrix(1,0,0,-1,35,17.5)"
     id="g868">
    <path
       d="m 0,0 c -9.665,0 -17.5,-7.835 -17.5,-17.5 0,-9.665 7.835,-17.5 17.5,-17.5 9.665,0 17.5,7.835 17.5,17.5 C 17.5,-7.835 9.665,0 0,0 m 12.636,-11.531 -3.703,0 c -0.486,2.267 -1.256,4.427 -2.314,6.339 2.621,-1.413 4.739,-3.638 6.017,-6.339 m 1.028,-8.898 -4.247,0 c 0.186,1.874 0.195,3.812 0.002,5.768 l 4.264,0 c 0.39,-1.89 0.387,-3.863 -0.019,-5.768 m -15.229,16.669 0,-7.771 -4.106,0 c 0.748,3.037 2.098,5.821 4.106,7.771 m -4.659,-10.901 4.659,0 0,-5.768 -4.656,0 c -0.209,1.863 -0.222,3.792 -0.003,5.768 m 4.659,-8.897 0,-7.746 c -2.003,1.945 -3.35,4.718 -4.1,7.746 l 4.1,0 z m 3.13,-7.792 0,7.792 4.147,0 C 4.957,-26.61 3.594,-29.403 1.565,-31.35 m 4.703,10.921 -4.703,0 0,5.768 4.706,0 c 0.207,-1.862 0.219,-3.792 -0.003,-5.768 m -4.703,8.898 0,7.817 c 2.034,-1.953 3.399,-4.756 4.153,-7.817 l -4.153,0 z m -8.117,6.374 C -7.62,-7.078 -8.397,-9.25 -8.886,-11.531 l -3.75,0 c 1.289,2.724 3.432,4.963 6.084,6.374 m -7.131,-9.504 4.311,0 c -0.182,-1.851 -0.194,-3.788 0.003,-5.768 l -4.295,0 c -0.406,1.903 -0.41,3.876 -0.019,5.768 m 1.089,-8.897 3.714,0 c 0.482,-2.236 1.24,-4.367 2.278,-6.259 -2.6,1.397 -4.707,3.592 -5.992,6.259 m 19.263,-6.223 c 1.028,1.883 1.78,4.001 2.259,6.223 l 3.666,0 c -1.274,-2.644 -3.356,-4.825 -5.925,-6.223"
       id="path870"
       style="fill:#ffffff;fill-opacity:1;fill-rule:nonzero;stroke:none" />
  </g>
</svg>
