<?xml version="1.0" encoding="UTF-8" standalone="no"?>
<!-- Created with Inkscape (http://www.inkscape.org/) -->

<svg
   xmlns:dc="http://purl.org/dc/elements/1.1/"
   xmlns:cc="http://creativecommons.org/ns#"
   xmlns:rdf="http://www.w3.org/1999/02/22-rdf-syntax-ns#"
   xmlns:svg="http://www.w3.org/2000/svg"
   xmlns="http://www.w3.org/2000/svg"
   version="1.1"
   width="70"
   height="70"
   id="svg5028">
  <defs
     id="defs8" />
  <metadata
     id="metadata5033">
    <rdf:RDF>
      <cc:Work
         rdf:about="">
        <dc:format>image/svg+xml</dc:format>
        <dc:type
           rdf:resource="http://purl.org/dc/dcmitype/StillImage" />
        <dc:title></dc:title>
      </cc:Work>
    </rdf:RDF>
  </metadata>
  <g
     transform="matrix(1,0,0,-1,44.922792,38.404306)"
     id="g864">
    <path
       d="m 0,0 0,0 c -0.999,0 -1.957,0.397 -2.663,1.103 l -7.929,7.928 c -0.818,0.819 -1.245,1.953 -1.169,3.108 0.134,2.037 -0.577,4.119 -2.133,5.676 -2.054,2.053 -5.022,2.635 -7.594,1.745 l 4.67,-4.669 c 0.107,-1.822 -2.71,-4.639 -4.532,-4.532 l -4.669,4.67 c -0.89,-2.572 -0.308,-5.54 1.746,-7.594 1.556,-1.557 3.638,-2.267 5.675,-2.133 1.156,0.076 2.288,-0.35 3.108,-1.169 l 7.736,-7.737 c 0.766,-0.766 1.191,-1.809 1.177,-2.892 0,-0.027 0,-0.054 0,-0.082 0,-3.632 2.945,-6.577 6.577,-6.577 3.632,0 6.577,2.945 6.577,6.577 C 6.577,-2.945 3.632,0 0,0 m 0.964,-10.19 -3.596,0.963 -0.964,3.596 2.633,2.632 3.595,-0.964 0.963,-3.595 -2.631,-2.632 z"
       id="path866"
       style="fill:#ffffff;fill-opacity:1;fill-rule:nonzero;stroke:none" />
  </g>
</svg>
