<?xml version="1.0" encoding="UTF-8"?>
<svg id="Grafik" xmlns="http://www.w3.org/2000/svg" viewBox="0 0 65 65">
  <defs>
    <style>
      .cls-1 {
        fill: #787878;
      }

      .cls-1, .cls-2, .cls-3, .cls-4 {
        stroke-width: 0px;
      }

      .cls-2 {
        fill: #dd042d;
      }

      .cls-3 {
        fill: #dd042d;
      }

      .cls-4 {
        fill: #fff;
      }
    </style>
  </defs>
  <g id="g4118">
    <g id="g970">
      <path id="path972" class="cls-1" d="M47.93,22.5v-5.1l-2.8-1c-1-.4-1.9-1.2-2.3-2.2h0c-.4-1-.4-2.2.1-3.2l1.3-2.6-3.6-3.6-2.6,1.3c-1,.5-2.2.5-3.2.1h0c-1-.4-1.8-1.3-2.2-2.3l-1-2.8h-5.1l-1,2.8c-.4,1-1.2,1.9-2.2,2.3h0c-1,.4-2.2.4-3.2-.1l-2.6-1.3-3.6,3.6,1.3,2.6c.5,1,.5,2.2.1,3.2h0c-.4,1-1.3,1.8-2.3,2.2l-2.8,1v5.1l2.8,1c1,.4,1.9,1.2,2.3,2.2h0c.4,1,.4,2.2-.1,3.2l-1.3,2.6,3.6,3.6,2.6-1.3c1-.5,2.2-.5,3.2-.1h0c1,.4,1.8,1.3,2.2,2.3l1,2.8h5.1l1-2.7c.4-1.1,1.2-1.9,2.2-2.3h0c1-.4,2.2-.4,3.2.1l2.7,1.3,3.6-3.6-1.4-2.7c-.5-1-.5-2.2-.1-3.2h0c.4-1,1.3-1.8,2.3-2.2l2.8-1ZM29.03,26.9c-3.8,0-6.9-3.1-6.9-6.9s3.1-6.9,6.9-6.9,6.9,3.1,6.9,6.9-3.1,6.9-6.9,6.9M65.03,37.5v-2.7l-1.5-.5c-.6-.2-1-.6-1.2-1.2h0c-.2-.5-.2-1.2,0-1.7l.7-1.4-1.9-1.9-1.4.7c-.5.3-1.2.3-1.7,0h0c-.5-.2-1-.7-1.2-1.2l-.5-1.5h-2.7l-.5,1.5c-.2.6-.6,1-1.2,1.2h0c-.5.2-1.2.2-1.7,0l-1.4-.7-1.9,1.9.7,1.4c.3.5.3,1.2,0,1.7h0c-.2.5-.7,1-1.2,1.2l-1.5.5v2.7l1.5.5c.6.2,1,.6,1.2,1.2h0c.2.5.2,1.2,0,1.7l-.7,1.4,1.9,1.9,1.4-.7c.5-.3,1.2-.3,1.7,0h0c.5.2,1,.7,1.2,1.2l.5,1.5h2.7l.5-1.5c.2-.6.6-1,1.2-1.2h0c.5-.2,1.2-.2,1.7,0l1.4.7,1.9-1.9-.7-1.4c-.3-.5-.3-1.2,0-1.7h0c.2-.5.7-1,1.2-1.2l1.5-.5ZM54.93,39.8c-2,0-3.7-1.6-3.7-3.7s1.6-3.7,3.7-3.7,3.7,1.6,3.7,3.7-1.6,3.7-3.7,3.7M45.43,45.5v-1.5l-1-.3c-.2-.1-.4-.2-.4-.4h0c-.1-.2,0-.4.2-.6l.8-.7-.7-1.3-1,.3c-.2.1-.4,0-.6-.2h0c-.2-.2-.2-.4-.2-.6l.3-1-1.3-.7-.7.8c-.2.2-.4.2-.6.2h0c-.2-.1-.4-.2-.4-.4l-.3-1h-1.6l-.3,1c-.1.2-.2.4-.4.4h0c-.2.1-.4,0-.6-.2l-.7-.8-1.3.7.3,1c.1.2,0,.4-.2.6h0c-.2.2-.4.2-.6.1l-1-.3-.7,1.3.8.7c.2.2.2.4.2.6h0c-.1.2-.2.4-.4.4l-1,.3v1.5l1,.3c.2.1.4.2.4.4h0c.1.2,0,.4-.2.6l-.8.7.7,1.3,1-.3c.2-.1.4,0,.6.2h0c.2.2.2.4.1.6l-.3,1,1.3.7.7-.8c.2-.2.4-.2.6-.2h0c.2.1.4.2.4.4l.3,1h1.5l.3-1c.1-.2.2-.4.4-.4h0c.2-.1.4,0,.6.2l.7.8,1.3-.7-.3-1c-.1-.2,0-.4.2-.6h0c.2-.2.4-.2.6-.2l1,.3.7-1.3-.8-.7c-.2-.2-.2-.4-.2-.6h0c.1-.2.2-.4.4-.4.2,0,1.2-.2,1.2-.2ZM38.63,47.4c-1.5,0-2.7-1.2-2.7-2.7s1.2-2.7,2.7-2.7,2.7,1.2,2.7,2.7c0,1.5-1.2,2.7-2.7,2.7"/>
    </g>
  </g>
  <g>
    <rect class="cls-3" x="10.61" y="33.91" width="15.5" height="10.86"/>
    <rect class="cls-3" x="22.51" y="47.26" width="7.98" height="7.98"/>
    <rect class="cls-3" x="4.46" y="46.83" width="11.23" height="8.41"/>
    <path id="BILDMARKE" class="cls-2" d="M28.84,40.02c2.22-1.18,2.2-4.37-.05-5.51l-9.7-4.92-9.66,4.93c-2.24,1.14-2.26,4.33-.05,5.5l8.25,4.39c.46.24.96.36,1.46.36s1-.12,1.45-.36l8.29-4.39h0ZM19.09,42.26c-.1,0-.19-.02-.28-.07l-8.25-4.39c-.26-.14-.31-.36-.31-.53s.06-.39.32-.52l8.52-4.35,8.56,4.34c.27.14.32.36.32.52s-.05.39-.31.53l-8.29,4.39c-.09.05-.18.07-.28.07h0ZM34.74,43.83c0-1.8-1.49-3.09-3.11-3.09-.48,0-.97.11-1.44.36l-8.6,4.52c-1.02.54-1.66,1.59-1.66,2.75v9.62c0,1.81,1.48,3.11,3.11,3.11.49,0,1-.12,1.48-.38l10.27-5.61-.05-11.27h0ZM23.29,58.44c-.09.05-.17.07-.25.07-.17,0-.53-.13-.53-.53v-9.62c0-.2.11-.38.28-.47l8.6-4.52c.08-.04.16-.07.24-.07.21,0,.53.17.53.53l.05,9.73-8.92,4.87h0ZM18.07,48.66v9.5c0,1.05-.54,2.01-1.45,2.54-.47.28-.99.42-1.51.42-.48,0-.97-.12-1.42-.36l-10.54-5.75.02-3.43c0-.71.58-1.28,1.29-1.28h0c.71,0,1.28.59,1.28,1.3v1.88s9.17,5.01,9.17,5.01c.16.09.31.03.37,0,.07-.04.19-.14.19-.33v-9.5c0-.48-.26-.92-.69-1.14l-7.14-3.75-1.43-.76c-.14-.07-.25-.03-.32.02-.07.04-.16.13-.16.28v2.24c0,.71-.58,1.29-1.29,1.29s-1.29-.58-1.29-1.29v-2.24c0-1.02.52-1.95,1.4-2.49.87-.53,1.94-.57,2.85-.1h.02s1.44.78,1.44.78l7.13,3.75c1.27.67,2.07,1.98,2.07,3.42h0Z"/>
    <path class="cls-3" d="M15.11,63.96c-.96,0-1.91-.24-2.77-.71l-10.55-5.76c-.92-.5-1.48-1.46-1.48-2.51l.02-3.43c0-1.18.52-2.24,1.32-2.99-.82-.75-1.33-1.83-1.33-3.03v-2.24c0-2.02,1.03-3.85,2.75-4.91.57-.35,1.18-.59,1.82-.72,0-.15-.01-.3-.01-.45.02-2.22,1.26-4.23,3.24-5.24l9.66-4.93c.4-.21.85-.31,1.29-.31s.88.1,1.28.31l9.7,4.92c1.99,1.01,3.23,3.02,3.25,5.25,0,.31-.02.61-.06.9,2.47.71,4.3,2.99,4.31,5.69l.05,11.27c0,1.04-.56,2-1.48,2.5l-10.27,5.61c-.88.48-1.86.73-2.84.73-1.53,0-2.92-.58-3.97-1.53-.3.28-.64.53-1,.75-.9.53-1.92.81-2.95.81ZM25.34,54.09l4.02-2.2-.02-4.24-4,2.1v4.33ZM12.65,54.02v-4.43l-4.44-2.33c-.23.5-.55.94-.95,1.3.82.76,1.34,1.85,1.33,3.05v.19s4.06,2.22,4.06,2.22ZM19.09,39.13l3.42-1.81-3.42-1.74-3.4,1.74,3.4,1.81Z"/>
  </g>
  <path id="BILDMARKE-2" data-name="BILDMARKE" class="cls-4" d="M28.84,40.02c2.22-1.18,2.2-4.37-.05-5.51l-9.7-4.92-9.66,4.93c-2.24,1.14-2.26,4.33-.05,5.5l8.25,4.39c.46.24.96.36,1.46.36s1-.12,1.45-.36l8.29-4.39h0ZM19.09,42.26c-.1,0-.19-.02-.28-.07l-8.25-4.39c-.26-.14-.31-.36-.31-.53s.06-.39.32-.52l8.52-4.35,8.56,4.34c.27.14.32.36.32.52s-.05.39-.31.53l-8.29,4.39c-.09.05-.18.07-.28.07h0ZM34.74,43.83c0-1.8-1.49-3.09-3.11-3.09-.48,0-.97.11-1.44.36l-8.6,4.52c-1.02.54-1.66,1.59-1.66,2.75v9.62c0,1.81,1.48,3.11,3.11,3.11.49,0,1-.12,1.48-.38l10.27-5.61-.05-11.27h0ZM23.29,58.44c-.09.05-.17.07-.25.07-.17,0-.53-.13-.53-.53v-9.62c0-.2.11-.38.28-.47l8.6-4.52c.08-.04.16-.07.24-.07.21,0,.53.17.53.53l.05,9.73-8.92,4.87h0ZM18.07,48.66v9.5c0,1.05-.54,2.01-1.45,2.54-.47.28-.99.42-1.51.42-.48,0-.97-.12-1.42-.36l-10.54-5.75.02-3.43c0-.71.58-1.28,1.29-1.28h0c.71,0,1.28.59,1.28,1.3v1.88s9.17,5.01,9.17,5.01c.16.09.31.03.37,0,.07-.04.19-.14.19-.33v-9.5c0-.48-.26-.92-.69-1.14l-7.14-3.75-1.43-.76c-.14-.07-.25-.03-.32.02-.07.04-.16.13-.16.28v2.24c0,.71-.58,1.29-1.29,1.29s-1.29-.58-1.29-1.29v-2.24c0-1.02.52-1.95,1.4-2.49.87-.53,1.94-.57,2.85-.1h.02s1.44.78,1.44.78l7.13,3.75c1.27.67,2.07,1.98,2.07,3.42h0Z"/>
</svg>