<svg id="Ebene_1" data-name="Ebene 1" xmlns="http://www.w3.org/2000/svg" viewBox="0 0 1109.48 785.82"><defs><style>.cls-1{fill:#d8d8d6;}.cls-2{fill:#78b42a;}.cls-3,.cls-9{fill:#fff;}.cls-3{stroke:#78b42a;}.cls-3,.cls-4,.cls-6,.cls-7,.cls-8{stroke-miterlimit:10;}.cls-3,.cls-4{stroke-width:2px;}.cls-4,.cls-8{fill:none;}.cls-4{stroke:#868681;}.cls-5,.cls-6{fill:#848380;}.cls-6{stroke:#838380;}.cls-6,.cls-7,.cls-8{stroke-width:4px;}.cls-7{fill:#858480;}.cls-7,.cls-8{stroke:#838480;}</style></defs><title>190214-Listner-en</title><rect class="cls-1" x="629.48" y="84.65" width="480" height="510.26" rx="14.17"/><rect class="cls-1" y="168.77" width="480" height="617.05" rx="14.17"/><rect class="cls-1" x="629.48" y="620.91" width="480" height="164.91" rx="14.17"/><rect class="cls-2" x="0.15" width="480" height="60" rx="6.47"/><rect class="cls-2" x="679.48" y="161.45" width="380" height="60" rx="6.47"/><rect class="cls-3" x="22.5" y="380" width="435" height="332" rx="14.17"/><rect class="cls-2" x="679.48" y="699.96" width="380" height="60" rx="6.47"/><rect class="cls-2" x="50.1" y="453" width="380" height="60" rx="6.47"/><rect class="cls-2" x="50.1" y="539" width="380" height="60" rx="6.47"/><rect class="cls-3" x="22.5" y="199.48" width="435" height="153.52" rx="14.17"/><rect class="cls-3" x="651.98" y="247.45" width="435" height="321.55" rx="14.17"/><rect class="cls-4" x="679.1" y="398.83" width="380" height="144.17" rx="14.17"/><rect class="cls-4" x="50.1" y="626" width="380" height="60" rx="14.17"/><polygon class="cls-5" points="223.04 178.61 240.41 188.56 257.25 178.83 223.04 178.61"/><polygon class="cls-5" points="257.25 80.19 239.88 70 223.04 79.97 257.25 80.19"/><polygon class="cls-5" points="659.41 207.43 669.6 190.06 659.64 173.22 659.41 207.43"/><polygon class="cls-5" points="659.41 747.07 669.6 729.7 659.64 712.86 659.41 747.07"/><polygon class="cls-5" points="449.8 465.89 439.6 483.26 449.57 500.11 449.8 465.89"/><line class="cls-6" x1="240.15" y1="142.96" x2="240.15" y2="183.58"/><line class="cls-6" x1="240.15" y1="75.1" x2="240.15" y2="104.68"/><line class="cls-7" x1="554.82" y1="483" x2="445.9" y2="483"/><polyline class="cls-8" points="666.48 729.73 554.53 729.73 556.38 190.32 664.9 190.32"/><path class="cls-9" d="M150.94,53.45V63.61a5.53,5.53,0,0,1-1.62,4.22,6.24,6.24,0,0,1-4.46,1.54,5.93,5.93,0,0,1-4.38-1.55,5.73,5.73,0,0,1-1.56-4.26V53.45h1.83V63.69a4.06,4.06,0,0,0,1.07,3A4.35,4.35,0,0,0,145,67.76,4.18,4.18,0,0,0,148,66.71a4.07,4.07,0,0,0,1.08-3V53.45Z" transform="translate(-51.4 -32.71)"/><path class="cls-9" d="M162.89,69.15V61.53a3,3,0,0,0-.66-2.14,2.63,2.63,0,0,0-2-.71,3.39,3.39,0,0,0-2.71,1,5,5,0,0,0-.85,3.29v6.18h-1.79V57.38h1.45l.29,1.61h.09a3.66,3.66,0,0,1,1.53-1.35,5,5,0,0,1,2.21-.48,4.46,4.46,0,0,1,3.2,1,4.39,4.39,0,0,1,1.07,3.28v7.68Z" transform="translate(-51.4 -32.71)"/><path class="cls-9" d="M168.18,54.19a1.16,1.16,0,0,1,.31-.9,1.12,1.12,0,0,1,1.49,0,1.43,1.43,0,0,1,0,1.78,1,1,0,0,1-.74.3,1,1,0,0,1-.75-.3A1.15,1.15,0,0,1,168.18,54.19Zm1.94,15h-1.79V57.38h1.79Z" transform="translate(-51.4 -32.71)"/><path class="cls-9" d="M176.48,69.15,172,57.38h1.91l2.54,7a33.35,33.35,0,0,1,1,3.18h.08a24.16,24.16,0,0,1,.75-2.36q.63-1.79,2.82-7.8H183l-4.47,11.77Z" transform="translate(-51.4 -32.71)"/><path class="cls-9" d="M189.89,69.37a5.42,5.42,0,0,1-4.12-1.59,6.2,6.2,0,0,1-1.5-4.42,6.79,6.79,0,0,1,1.4-4.52,4.64,4.64,0,0,1,3.76-1.68,4.42,4.42,0,0,1,3.5,1.46,5.57,5.57,0,0,1,1.29,3.84v1.13h-8.11a4.67,4.67,0,0,0,1,3.14,3.62,3.62,0,0,0,2.8,1.08,9.49,9.49,0,0,0,3.76-.8V68.6a9.11,9.11,0,0,1-1.79.59A9.9,9.9,0,0,1,189.89,69.37Zm-.48-10.71a2.9,2.9,0,0,0-2.26.92,4.29,4.29,0,0,0-1,2.56h6.15a3.94,3.94,0,0,0-.75-2.59A2.64,2.64,0,0,0,189.41,58.66Z" transform="translate(-51.4 -32.71)"/><path class="cls-9" d="M205.32,69.15V61.53a3.08,3.08,0,0,0-.65-2.14,2.67,2.67,0,0,0-2.06-.71,3.35,3.35,0,0,0-2.7,1,5,5,0,0,0-.86,3.29v6.18h-1.79V57.38h1.45L199,59h.09a3.69,3.69,0,0,1,1.54-1.35,4.94,4.94,0,0,1,2.2-.48,4.45,4.45,0,0,1,3.2,1,4.35,4.35,0,0,1,1.07,3.28v7.68Z" transform="translate(-51.4 -32.71)"/><path class="cls-9" d="M214.57,67.89a5.41,5.41,0,0,0,.91-.07,4.74,4.74,0,0,0,.7-.14V69a3,3,0,0,1-.85.23,6.73,6.73,0,0,1-1,.1c-2.28,0-3.41-1.2-3.41-3.6v-7h-1.69V57.9l1.69-.74.75-2.51h1v2.73h3.41v1.38h-3.41v6.93a2.39,2.39,0,0,0,.5,1.63A1.77,1.77,0,0,0,214.57,67.89Z" transform="translate(-51.4 -32.71)"/><path class="cls-9" d="M218.38,54.19a1.19,1.19,0,0,1,.3-.9,1.05,1.05,0,0,1,.76-.28,1,1,0,0,1,.74.29,1.43,1.43,0,0,1,0,1.78,1,1,0,0,1-.74.3,1,1,0,0,1-.76-.3A1.18,1.18,0,0,1,218.38,54.19Zm1.94,15h-1.79V57.38h1.79Z" transform="translate(-51.4 -32.71)"/><path class="cls-9" d="M234.26,63.25a6.49,6.49,0,0,1-1.45,4.5,5.11,5.11,0,0,1-4,1.62,5.26,5.26,0,0,1-2.8-.75,4.82,4.82,0,0,1-1.89-2.12,7.37,7.37,0,0,1-.67-3.25,6.47,6.47,0,0,1,1.44-4.48,5.1,5.1,0,0,1,4-1.61,5,5,0,0,1,3.92,1.65A6.44,6.44,0,0,1,234.26,63.25Zm-9,0a5.6,5.6,0,0,0,.9,3.44,3.59,3.59,0,0,0,5.31,0,5.56,5.56,0,0,0,.91-3.45,5.46,5.46,0,0,0-.91-3.41,3.19,3.19,0,0,0-2.68-1.16,3.14,3.14,0,0,0-2.64,1.15A5.54,5.54,0,0,0,225.29,63.25Z" transform="translate(-51.4 -32.71)"/><path class="cls-9" d="M245.44,69.15V61.53a3.08,3.08,0,0,0-.65-2.14,2.64,2.64,0,0,0-2-.71,3.36,3.36,0,0,0-2.71,1,5,5,0,0,0-.86,3.29v6.18h-1.78V57.38h1.45l.29,1.61h.08a3.69,3.69,0,0,1,1.54-1.35,5,5,0,0,1,2.2-.48,4.43,4.43,0,0,1,3.2,1,4.35,4.35,0,0,1,1.08,3.28v7.68Z" transform="translate(-51.4 -32.71)"/><path class="cls-9" d="M269.41,61.15a7.94,7.94,0,0,1-2.11,5.94,8.32,8.32,0,0,1-6.08,2.06h-4.35V53.45h4.81a7,7,0,0,1,7.73,7.7Zm-1.94.06a6.31,6.31,0,0,0-1.54-4.63A6.15,6.15,0,0,0,261.35,55H258.7V67.57h2.22a6.75,6.75,0,0,0,4.91-1.6A6.35,6.35,0,0,0,267.47,61.21Z" transform="translate(-51.4 -32.71)"/><path class="cls-9" d="M272.49,54.19a1.19,1.19,0,0,1,.3-.9,1.13,1.13,0,0,1,1.5,0,1.43,1.43,0,0,1,0,1.78,1.05,1.05,0,0,1-.75.3,1,1,0,0,1-.75-.3A1.18,1.18,0,0,1,272.49,54.19Zm1.93,15h-1.78V57.38h1.78Z" transform="translate(-51.4 -32.71)"/><path class="cls-9" d="M283.58,57.16a7.33,7.33,0,0,1,1.4.13L284.74,59a6,6,0,0,0-1.29-.17A3.17,3.17,0,0,0,281,59.94a4.28,4.28,0,0,0-1,2.89v6.32h-1.78V57.38h1.47l.2,2.18H280a5,5,0,0,1,1.58-1.77A3.51,3.51,0,0,1,283.58,57.16Z" transform="translate(-51.4 -32.71)"/><path class="cls-9" d="M292.16,69.37A5.42,5.42,0,0,1,288,67.78a6.16,6.16,0,0,1-1.51-4.42,6.84,6.84,0,0,1,1.4-4.52,4.66,4.66,0,0,1,3.77-1.68,4.45,4.45,0,0,1,3.5,1.46,5.57,5.57,0,0,1,1.29,3.84v1.13h-8.11a4.57,4.57,0,0,0,1.05,3.14,3.59,3.59,0,0,0,2.79,1.08A9.45,9.45,0,0,0,296,67V68.6a9,9,0,0,1-1.78.59A10,10,0,0,1,292.16,69.37Zm-.48-10.71a2.88,2.88,0,0,0-2.26.92,4.23,4.23,0,0,0-1,2.56h6.16a3.94,3.94,0,0,0-.75-2.59A2.65,2.65,0,0,0,291.68,58.66Z" transform="translate(-51.4 -32.71)"/><path class="cls-9" d="M304.23,69.37a5,5,0,0,1-4-1.58,6.44,6.44,0,0,1-1.41-4.45,6.69,6.69,0,0,1,1.43-4.57,5.13,5.13,0,0,1,4.05-1.61,8.19,8.19,0,0,1,1.7.18,6.1,6.1,0,0,1,1.33.43l-.55,1.52a7.52,7.52,0,0,0-1.29-.39,5.33,5.33,0,0,0-1.23-.16q-3.58,0-3.59,4.58a5.43,5.43,0,0,0,.88,3.33,3,3,0,0,0,2.59,1.16,7.81,7.81,0,0,0,3-.64v1.58A6.42,6.42,0,0,1,304.23,69.37Z" transform="translate(-51.4 -32.71)"/><path class="cls-9" d="M313.81,67.89a5.49,5.49,0,0,0,.91-.07,5,5,0,0,0,.7-.14V69a3.06,3.06,0,0,1-.86.23,6.49,6.49,0,0,1-1,.1q-3.42,0-3.42-3.6v-7h-1.68V57.9l1.68-.74.75-2.51h1v2.73h3.41v1.38h-3.41v6.93a2.34,2.34,0,0,0,.5,1.63A1.77,1.77,0,0,0,313.81,67.89Z" transform="translate(-51.4 -32.71)"/><path class="cls-9" d="M327.93,63.25a6.49,6.49,0,0,1-1.45,4.5,5.11,5.11,0,0,1-4,1.62,5.26,5.26,0,0,1-2.8-.75,4.82,4.82,0,0,1-1.89-2.12,7.51,7.51,0,0,1-.67-3.25,6.47,6.47,0,0,1,1.44-4.48,5.11,5.11,0,0,1,4-1.61,5,5,0,0,1,3.93,1.65A6.44,6.44,0,0,1,327.93,63.25Zm-9,0a5.6,5.6,0,0,0,.9,3.44,3.15,3.15,0,0,0,2.66,1.18,3.18,3.18,0,0,0,2.66-1.17,5.63,5.63,0,0,0,.9-3.45,5.52,5.52,0,0,0-.9-3.41,3.21,3.21,0,0,0-2.68-1.16,3.15,3.15,0,0,0-2.65,1.15A5.54,5.54,0,0,0,319,63.25Z" transform="translate(-51.4 -32.71)"/><path class="cls-9" d="M336.43,57.16a7.52,7.52,0,0,1,1.41.13L337.59,59a6,6,0,0,0-1.29-.17,3.13,3.13,0,0,0-2.44,1.16,4.24,4.24,0,0,0-1,2.89v6.32h-1.78V57.38h1.47l.2,2.18h.09a5.08,5.08,0,0,1,1.58-1.77A3.51,3.51,0,0,1,336.43,57.16Z" transform="translate(-51.4 -32.71)"/><path class="cls-9" d="M338.17,57.38h1.91l2.58,6.71a25.25,25.25,0,0,1,1,3.32h.09c.09-.36.29-1,.58-1.87s1.27-3.61,2.92-8.16h1.91l-5.06,13.4a6.6,6.6,0,0,1-1.75,2.82,3.73,3.73,0,0,1-2.47.84,7.3,7.3,0,0,1-1.61-.19V72.82a5.9,5.9,0,0,0,1.32.13,2.71,2.71,0,0,0,2.62-2.06l.66-1.67Z" transform="translate(-51.4 -32.71)"/><path class="cls-9" d="M364.06,69.15l-5.33-13.92h-.09q.15,1.65.15,3.93v10h-1.68V53.45h2.75l5,13h.09l5-13h2.73v15.7h-1.82V59q0-1.74.15-3.78h-.09l-5.37,13.9Z" transform="translate(-51.4 -32.71)"/><path class="cls-9" d="M383.94,69.15l-.35-1.68h-.09a4.9,4.9,0,0,1-1.76,1.5,5.34,5.34,0,0,1-2.18.4,4,4,0,0,1-2.75-.91,3.28,3.28,0,0,1-1-2.56q0-3.57,5.7-3.74l2-.07v-.73a3,3,0,0,0-.59-2,2.47,2.47,0,0,0-1.91-.66,7.79,7.79,0,0,0-3.33.9l-.55-1.37a8.72,8.72,0,0,1,1.91-.74,8.19,8.19,0,0,1,2.08-.27,4.51,4.51,0,0,1,3.12.94,3.92,3.92,0,0,1,1,3v8Zm-4-1.26a3.62,3.62,0,0,0,2.62-.91,3.4,3.4,0,0,0,1-2.56V63.36l-1.78.08a6.51,6.51,0,0,0-3.07.66,2,2,0,0,0-.94,1.82,1.84,1.84,0,0,0,.58,1.47A2.44,2.44,0,0,0,379.91,67.89Z" transform="translate(-51.4 -32.71)"/><path class="cls-9" d="M397,69.15V61.53a3.08,3.08,0,0,0-.65-2.14,2.64,2.64,0,0,0-2-.71,3.36,3.36,0,0,0-2.71,1,5,5,0,0,0-.86,3.29v6.18h-1.78V57.38h1.45l.29,1.61h.08a3.69,3.69,0,0,1,1.54-1.35,5,5,0,0,1,2.2-.48,4.43,4.43,0,0,1,3.2,1,4.35,4.35,0,0,1,1.08,3.28v7.68Z" transform="translate(-51.4 -32.71)"/><path class="cls-9" d="M409.68,69.15l-.35-1.68h-.09a4.9,4.9,0,0,1-1.76,1.5,5.34,5.34,0,0,1-2.18.4,4,4,0,0,1-2.75-.91,3.28,3.28,0,0,1-1-2.56q0-3.57,5.7-3.74l2-.07v-.73a3,3,0,0,0-.6-2,2.43,2.43,0,0,0-1.9-.66,7.79,7.79,0,0,0-3.33.9l-.55-1.37a8.72,8.72,0,0,1,1.91-.74,8.19,8.19,0,0,1,2.08-.27,4.51,4.51,0,0,1,3.12.94,3.92,3.92,0,0,1,1,3v8Zm-4-1.26a3.63,3.63,0,0,0,2.62-.91,3.4,3.4,0,0,0,1-2.56V63.36l-1.79.08a6.46,6.46,0,0,0-3.06.66,2,2,0,0,0-.94,1.82,1.84,1.84,0,0,0,.58,1.47A2.42,2.42,0,0,0,405.65,67.89Z" transform="translate(-51.4 -32.71)"/><path class="cls-9" d="M424.31,57.38v1.13l-2.18.25a3.79,3.79,0,0,1,.54,1,3.9,3.9,0,0,1,.23,1.37,3.48,3.48,0,0,1-1.18,2.76,4.81,4.81,0,0,1-3.24,1,5.21,5.21,0,0,1-1-.09,1.76,1.76,0,0,0-1.14,1.52.75.75,0,0,0,.4.71,2.94,2.94,0,0,0,1.36.23h2.09a4.63,4.63,0,0,1,2.93.81,2.77,2.77,0,0,1,1,2.34,3.33,3.33,0,0,1-1.57,3,8.4,8.4,0,0,1-4.57,1,6.32,6.32,0,0,1-3.57-.86,2.8,2.8,0,0,1-1.25-2.43,2.71,2.71,0,0,1,.69-1.86,3.47,3.47,0,0,1,1.93-1.06,1.84,1.84,0,0,1-.75-.64,1.63,1.63,0,0,1-.31-1,1.93,1.93,0,0,1,.34-1.12,3.59,3.59,0,0,1,1.09-.94,3.17,3.17,0,0,1-1.49-1.28,4.24,4.24,0,0,1,.59-5,4.72,4.72,0,0,1,3.28-1.05,5.73,5.73,0,0,1,1.67.22Zm-9.39,13.75a1.6,1.6,0,0,0,.81,1.45,4.41,4.41,0,0,0,2.31.49,6.42,6.42,0,0,0,3.32-.67,2.05,2.05,0,0,0,1.08-1.82,1.46,1.46,0,0,0-.59-1.33,4.65,4.65,0,0,0-2.22-.37h-2.14a2.85,2.85,0,0,0-1.89.58A2.08,2.08,0,0,0,414.92,71.13Zm1-10a2.4,2.4,0,0,0,.7,1.87,2.78,2.78,0,0,0,1.94.63c1.74,0,2.61-.84,2.61-2.53a2.34,2.34,0,0,0-2.64-2.66,2.61,2.61,0,0,0-1.93.68A2.69,2.69,0,0,0,415.89,61.15Z" transform="translate(-51.4 -32.71)"/><path class="cls-9" d="M431.7,69.37a5.42,5.42,0,0,1-4.12-1.59,6.2,6.2,0,0,1-1.51-4.42,6.84,6.84,0,0,1,1.4-4.52,4.66,4.66,0,0,1,3.77-1.68,4.45,4.45,0,0,1,3.5,1.46A5.57,5.57,0,0,1,436,62.46v1.13h-8.11A4.62,4.62,0,0,0,429,66.73a3.6,3.6,0,0,0,2.8,1.08,9.52,9.52,0,0,0,3.76-.8V68.6a9.11,9.11,0,0,1-1.79.59A10,10,0,0,1,431.7,69.37Zm-.48-10.71a2.88,2.88,0,0,0-2.26.92,4.23,4.23,0,0,0-1,2.56h6.16a3.94,3.94,0,0,0-.75-2.59A2.65,2.65,0,0,0,431.22,58.66Z" transform="translate(-51.4 -32.71)"/><path class="cls-9" d="M444.44,57.16a7.52,7.52,0,0,1,1.41.13L445.6,59a6,6,0,0,0-1.29-.17,3.15,3.15,0,0,0-2.44,1.16,4.24,4.24,0,0,0-1,2.89v6.32h-1.78V57.38h1.47l.21,2.18h.08a5.08,5.08,0,0,1,1.58-1.77A3.53,3.53,0,0,1,444.44,57.16Z" transform="translate(-51.4 -32.71)"/><path class="cls-9" d="M881.83,230.6V214.9h1.83v14h6.93v1.65Z" transform="translate(-51.4 -32.71)"/><path class="cls-9" d="M892.83,215.64a1.19,1.19,0,0,1,.3-.9,1.13,1.13,0,0,1,1.5,0,1.18,1.18,0,0,1,.31.89,1.23,1.23,0,0,1-.31.9,1.08,1.08,0,0,1-.75.29,1.05,1.05,0,0,1-.75-.29A1.22,1.22,0,0,1,892.83,215.64Zm1.93,15H893V218.83h1.78Z" transform="translate(-51.4 -32.71)"/><path class="cls-9" d="M906.14,227.39a3,3,0,0,1-1.22,2.54,5.81,5.81,0,0,1-3.44.89,7.51,7.51,0,0,1-3.65-.74v-1.66a8.77,8.77,0,0,0,1.82.68,7.76,7.76,0,0,0,1.87.25,4.22,4.22,0,0,0,2.15-.45,1.54,1.54,0,0,0,.16-2.53,9.21,9.21,0,0,0-2.33-1.16,12.52,12.52,0,0,1-2.34-1.07,3.26,3.26,0,0,1-1-1,2.78,2.78,0,0,1-.34-1.39,2.63,2.63,0,0,1,1.17-2.27,5.47,5.47,0,0,1,3.22-.84,9.32,9.32,0,0,1,3.71.78l-.63,1.45a8.46,8.46,0,0,0-3.21-.73,3.62,3.62,0,0,0-1.91.4,1.23,1.23,0,0,0-.65,1.09,1.34,1.34,0,0,0,.24.81,2.37,2.37,0,0,0,.78.63,18.2,18.2,0,0,0,2.06.87,7.62,7.62,0,0,1,2.83,1.54A2.7,2.7,0,0,1,906.14,227.39Z" transform="translate(-51.4 -32.71)"/><path class="cls-9" d="M912.84,229.35a6.86,6.86,0,0,0,.92-.07c.29-.05.52-.1.7-.15v1.37a3.45,3.45,0,0,1-.86.23,6.49,6.49,0,0,1-1,.09q-3.42,0-3.42-3.6v-7h-1.69v-.86l1.69-.75.75-2.51h1v2.73h3.42v1.39H911v6.92a2.39,2.39,0,0,0,.51,1.64A1.74,1.74,0,0,0,912.84,229.35Z" transform="translate(-51.4 -32.71)"/><path class="cls-9" d="M921.78,230.82a5.42,5.42,0,0,1-4.12-1.59,6.18,6.18,0,0,1-1.51-4.42,6.86,6.86,0,0,1,1.4-4.52,4.66,4.66,0,0,1,3.77-1.68,4.45,4.45,0,0,1,3.5,1.46,5.57,5.57,0,0,1,1.29,3.84V225H918a4.67,4.67,0,0,0,1,3.15,3.63,3.63,0,0,0,2.8,1.07,9.51,9.51,0,0,0,3.76-.79v1.59a8.74,8.74,0,0,1-3.83.76Zm-.48-10.71A2.92,2.92,0,0,0,919,221a4.23,4.23,0,0,0-1,2.56h6.16a3.89,3.89,0,0,0-.75-2.58A2.66,2.66,0,0,0,921.3,220.11Z" transform="translate(-51.4 -32.71)"/><path class="cls-9" d="M937.21,230.6V223a3.06,3.06,0,0,0-.66-2.15,2.68,2.68,0,0,0-2-.71,3.39,3.39,0,0,0-2.71,1,5,5,0,0,0-.86,3.3v6.17h-1.78V218.83h1.45l.29,1.61H931a3.6,3.6,0,0,1,1.53-1.35,5,5,0,0,1,2.2-.48,4.52,4.52,0,0,1,3.21,1,4.39,4.39,0,0,1,1.07,3.28v7.68Z" transform="translate(-51.4 -32.71)"/><path class="cls-9" d="M947.63,230.82a5.4,5.4,0,0,1-4.12-1.59,6.14,6.14,0,0,1-1.51-4.42,6.81,6.81,0,0,1,1.4-4.52,4.65,4.65,0,0,1,3.77-1.68,4.45,4.45,0,0,1,3.5,1.46,5.57,5.57,0,0,1,1.29,3.84V225h-8.11a4.67,4.67,0,0,0,1,3.15,3.65,3.65,0,0,0,2.8,1.07,9.47,9.47,0,0,0,3.76-.79v1.59a9.75,9.75,0,0,1-1.79.58A9.86,9.86,0,0,1,947.63,230.82Zm-.49-10.71a2.93,2.93,0,0,0-2.26.92,4.29,4.29,0,0,0-1,2.56H950a3.89,3.89,0,0,0-.75-2.58A2.65,2.65,0,0,0,947.14,220.11Z" transform="translate(-51.4 -32.71)"/><path class="cls-9" d="M960.37,218.61a7.33,7.33,0,0,1,1.4.13l-.24,1.66a6,6,0,0,0-1.29-.16,3.14,3.14,0,0,0-2.45,1.16,4.24,4.24,0,0,0-1,2.89v6.31H955V218.83h1.47l.2,2.18h.09a5,5,0,0,1,1.58-1.77A3.51,3.51,0,0,1,960.37,218.61Z" transform="translate(-51.4 -32.71)"/><path class="cls-9" d="M881.83,769.11v-15.7h1.83v14.05h6.93v1.65Z" transform="translate(-51.4 -32.71)"/><path class="cls-9" d="M892.83,754.15a1.19,1.19,0,0,1,.3-.9,1.13,1.13,0,0,1,1.5,0,1.18,1.18,0,0,1,.31.89,1.23,1.23,0,0,1-.31.9,1.08,1.08,0,0,1-.75.29,1.05,1.05,0,0,1-.75-.29A1.22,1.22,0,0,1,892.83,754.15Zm1.93,15H893V757.34h1.78Z" transform="translate(-51.4 -32.71)"/><path class="cls-9" d="M906.14,765.9a3,3,0,0,1-1.22,2.54,5.81,5.81,0,0,1-3.44.89,7.51,7.51,0,0,1-3.65-.74v-1.66a8.77,8.77,0,0,0,1.82.68,7.76,7.76,0,0,0,1.87.25,4.22,4.22,0,0,0,2.15-.45,1.54,1.54,0,0,0,.16-2.53,9.21,9.21,0,0,0-2.33-1.16,12.52,12.52,0,0,1-2.34-1.07,3.18,3.18,0,0,1-1-1,2.71,2.71,0,0,1-.34-1.38A2.63,2.63,0,0,1,899,758a5.47,5.47,0,0,1,3.22-.84,9.32,9.32,0,0,1,3.71.78l-.63,1.45a8.46,8.46,0,0,0-3.21-.73,3.73,3.73,0,0,0-1.91.39,1.25,1.25,0,0,0-.65,1.1,1.36,1.36,0,0,0,.24.81,2.37,2.37,0,0,0,.78.63,18.2,18.2,0,0,0,2.06.87A7.62,7.62,0,0,1,905.4,764,2.7,2.7,0,0,1,906.14,765.9Z" transform="translate(-51.4 -32.71)"/><path class="cls-9" d="M912.84,767.86a6.86,6.86,0,0,0,.92-.07c.29,0,.52-.1.7-.15V769a3.94,3.94,0,0,1-.86.23,6.49,6.49,0,0,1-1,.09q-3.42,0-3.42-3.6v-7h-1.69v-.85l1.69-.75.75-2.51h1v2.73h3.42v1.38H911v6.93a2.39,2.39,0,0,0,.51,1.64A1.74,1.74,0,0,0,912.84,767.86Z" transform="translate(-51.4 -32.71)"/><path class="cls-9" d="M921.78,769.33a5.42,5.42,0,0,1-4.12-1.59,6.18,6.18,0,0,1-1.51-4.42,6.84,6.84,0,0,1,1.4-4.52,4.66,4.66,0,0,1,3.77-1.68,4.45,4.45,0,0,1,3.5,1.46,5.57,5.57,0,0,1,1.29,3.84v1.13H918a4.67,4.67,0,0,0,1,3.15,3.63,3.63,0,0,0,2.8,1.07,9.35,9.35,0,0,0,3.76-.8v1.59a9.33,9.33,0,0,1-1.79.59A10,10,0,0,1,921.78,769.33Zm-.48-10.71a2.92,2.92,0,0,0-2.26.92,4.23,4.23,0,0,0-1,2.56h6.16a3.94,3.94,0,0,0-.75-2.59A2.68,2.68,0,0,0,921.3,758.62Z" transform="translate(-51.4 -32.71)"/><path class="cls-9" d="M937.21,769.11V761.5a3.06,3.06,0,0,0-.66-2.15,2.68,2.68,0,0,0-2-.71,3.39,3.39,0,0,0-2.71,1,5,5,0,0,0-.86,3.3v6.17h-1.78V757.34h1.45l.29,1.61H931a3.6,3.6,0,0,1,1.53-1.35,5,5,0,0,1,2.2-.48,4.52,4.52,0,0,1,3.21,1,4.39,4.39,0,0,1,1.07,3.28v7.68Z" transform="translate(-51.4 -32.71)"/><path class="cls-9" d="M947.63,769.33a5.4,5.4,0,0,1-4.12-1.59,6.14,6.14,0,0,1-1.51-4.42,6.79,6.79,0,0,1,1.4-4.52,4.65,4.65,0,0,1,3.77-1.68,4.45,4.45,0,0,1,3.5,1.46,5.57,5.57,0,0,1,1.29,3.84v1.13h-8.11a4.67,4.67,0,0,0,1,3.15,3.65,3.65,0,0,0,2.8,1.07,9.32,9.32,0,0,0,3.76-.8v1.59a9.11,9.11,0,0,1-1.79.59A9.86,9.86,0,0,1,947.63,769.33Zm-.49-10.71a2.93,2.93,0,0,0-2.26.92,4.29,4.29,0,0,0-1,2.56H950a3.94,3.94,0,0,0-.75-2.59A2.67,2.67,0,0,0,947.14,758.62Z" transform="translate(-51.4 -32.71)"/><path class="cls-9" d="M960.37,757.12a7.33,7.33,0,0,1,1.4.13l-.24,1.66a6,6,0,0,0-1.29-.16,3.14,3.14,0,0,0-2.45,1.16,4.24,4.24,0,0,0-1,2.89v6.31H955V757.34h1.47l.2,2.18h.09a5,5,0,0,1,1.58-1.77A3.51,3.51,0,0,1,960.37,757.12Z" transform="translate(-51.4 -32.71)"/><path class="cls-9" d="M267.15,522.15h-2.08L256.49,509h-.09c.11,1.55.17,3,.17,4.25v8.93h-1.68v-15.7H257l8.56,13.12h.09c0-.19-.05-.81-.1-1.86s-.07-1.8-.06-2.25v-9h1.71Z" transform="translate(-51.4 -32.71)"/><path class="cls-9" d="M281.36,516.25a6.49,6.49,0,0,1-1.45,4.5,5.08,5.08,0,0,1-4,1.62,5.27,5.27,0,0,1-2.81-.75,5,5,0,0,1-1.89-2.12,7.51,7.51,0,0,1-.66-3.25,6.47,6.47,0,0,1,1.44-4.48,5.09,5.09,0,0,1,4-1.61,5,5,0,0,1,3.93,1.65A6.44,6.44,0,0,1,281.36,516.25Zm-9,0a5.6,5.6,0,0,0,.9,3.44,3.11,3.11,0,0,0,2.65,1.18,3.17,3.17,0,0,0,2.66-1.17,5.63,5.63,0,0,0,.91-3.45,5.52,5.52,0,0,0-.91-3.41,3.21,3.21,0,0,0-2.68-1.16,3.11,3.11,0,0,0-2.64,1.15A5.48,5.48,0,0,0,272.4,516.25Z" transform="translate(-51.4 -32.71)"/><path class="cls-9" d="M288.29,520.89a5.53,5.53,0,0,0,.92-.07,4.84,4.84,0,0,0,.69-.14V522a2.88,2.88,0,0,1-.85.23,6.61,6.61,0,0,1-1,.1q-3.42,0-3.42-3.6v-7h-1.69v-.86l1.69-.74.75-2.51h1v2.73h3.42v1.38H286.4v6.93a2.34,2.34,0,0,0,.51,1.63A1.74,1.74,0,0,0,288.29,520.89Z" transform="translate(-51.4 -32.71)"/><path class="cls-9" d="M292.11,507.19a1.19,1.19,0,0,1,.3-.9,1,1,0,0,1,.75-.28,1,1,0,0,1,.74.29,1.43,1.43,0,0,1,0,1.78,1.08,1.08,0,0,1-1.49,0A1.18,1.18,0,0,1,292.11,507.19Zm1.93,15h-1.78V510.38H294Z" transform="translate(-51.4 -32.71)"/><path class="cls-9" d="M303.13,511.76h-3v10.39h-1.78V511.76h-2.11V511l2.11-.65v-.65c0-2.9,1.26-4.34,3.79-4.34a7.82,7.82,0,0,1,2.19.37l-.46,1.43a6,6,0,0,0-1.76-.33,1.72,1.72,0,0,0-1.5.67,3.78,3.78,0,0,0-.48,2.15v.77h3Zm2-4.57a1.19,1.19,0,0,1,.3-.9,1,1,0,0,1,.75-.28,1,1,0,0,1,.74.29,1.43,1.43,0,0,1,0,1.78,1.08,1.08,0,0,1-1.49,0A1.18,1.18,0,0,1,305.13,507.19Zm1.93,15h-1.78V510.38h1.78Z" transform="translate(-51.4 -32.71)"/><path class="cls-9" d="M315.81,522.37a5.38,5.38,0,0,1-4.11-1.59,6.16,6.16,0,0,1-1.51-4.42,6.79,6.79,0,0,1,1.4-4.52,4.64,4.64,0,0,1,3.76-1.68,4.42,4.42,0,0,1,3.5,1.46,5.57,5.57,0,0,1,1.29,3.84v1.13H312a4.67,4.67,0,0,0,1.05,3.14,3.62,3.62,0,0,0,2.8,1.08,9.49,9.49,0,0,0,3.76-.8v1.59a9.11,9.11,0,0,1-1.79.59A9.9,9.9,0,0,1,315.81,522.37Zm-.48-10.71a2.9,2.9,0,0,0-2.26.92,4.29,4.29,0,0,0-1,2.56h6.15a3.94,3.94,0,0,0-.75-2.59A2.64,2.64,0,0,0,315.33,511.66Z" transform="translate(-51.4 -32.71)"/><path class="cls-9" d="M328.56,510.16a7.33,7.33,0,0,1,1.4.13l-.24,1.66a6,6,0,0,0-1.29-.17,3.15,3.15,0,0,0-2.45,1.16,4.28,4.28,0,0,0-1,2.89v6.32h-1.79V510.38h1.48l.2,2.18H325a5.05,5.05,0,0,1,1.57-1.77A3.56,3.56,0,0,1,328.56,510.16Z" transform="translate(-51.4 -32.71)"/><path class="cls-9" d="M252.45,608.15v-15.7h1.83v14h6.93v1.65Z" transform="translate(-51.4 -32.71)"/><path class="cls-9" d="M263.45,593.19a1.19,1.19,0,0,1,.3-.9,1.13,1.13,0,0,1,1.5,0,1.43,1.43,0,0,1,0,1.78,1.05,1.05,0,0,1-.75.3,1,1,0,0,1-.75-.3A1.18,1.18,0,0,1,263.45,593.19Zm1.94,15H263.6V596.38h1.79Z" transform="translate(-51.4 -32.71)"/><path class="cls-9" d="M276.76,604.94a3,3,0,0,1-1.22,2.53,5.74,5.74,0,0,1-3.44.9,7.38,7.38,0,0,1-3.65-.75V606a8.77,8.77,0,0,0,1.82.68,7.8,7.8,0,0,0,1.87.24,4.23,4.23,0,0,0,2.15-.44,1.48,1.48,0,0,0,.75-1.36,1.5,1.5,0,0,0-.59-1.18,9.64,9.64,0,0,0-2.33-1.15,13.58,13.58,0,0,1-2.34-1.07,3.28,3.28,0,0,1-1-1,2.74,2.74,0,0,1-.33-1.38,2.66,2.66,0,0,1,1.17-2.28,5.49,5.49,0,0,1,3.21-.83,9.29,9.29,0,0,1,3.71.78l-.63,1.45a8.46,8.46,0,0,0-3.21-.73,3.73,3.73,0,0,0-1.91.39,1.24,1.24,0,0,0-.65,1.1,1.33,1.33,0,0,0,.24.8,2.37,2.37,0,0,0,.78.64,17.78,17.78,0,0,0,2.07.87A7.87,7.87,0,0,1,276,603,2.73,2.73,0,0,1,276.76,604.94Z" transform="translate(-51.4 -32.71)"/><path class="cls-9" d="M283.46,606.89a5.53,5.53,0,0,0,.92-.07,5.35,5.35,0,0,0,.7-.14V608a3.06,3.06,0,0,1-.86.23,6.49,6.49,0,0,1-1,.1q-3.42,0-3.42-3.6v-7H278.1v-.86l1.69-.74.75-2.51h1v2.73H285v1.38h-3.42v6.93a2.34,2.34,0,0,0,.51,1.63A1.76,1.76,0,0,0,283.46,606.89Z" transform="translate(-51.4 -32.71)"/><path class="cls-9" d="M292.4,608.37a5.42,5.42,0,0,1-4.12-1.59,6.2,6.2,0,0,1-1.51-4.42,6.79,6.79,0,0,1,1.41-4.52,4.63,4.63,0,0,1,3.76-1.68,4.43,4.43,0,0,1,3.5,1.46,5.57,5.57,0,0,1,1.29,3.84v1.13h-8.11a4.67,4.67,0,0,0,1.05,3.14,3.6,3.6,0,0,0,2.8,1.08,9.52,9.52,0,0,0,3.76-.8v1.59a9.11,9.11,0,0,1-1.79.59A9.9,9.9,0,0,1,292.4,608.37Zm-.48-10.71a2.88,2.88,0,0,0-2.26.92,4.29,4.29,0,0,0-1,2.56h6.16a3.94,3.94,0,0,0-.75-2.59A2.64,2.64,0,0,0,291.92,597.66Z" transform="translate(-51.4 -32.71)"/><path class="cls-9" d="M307.83,608.15v-7.62a3,3,0,0,0-.66-2.14,2.63,2.63,0,0,0-2.05-.71,3.39,3.39,0,0,0-2.71,1,5,5,0,0,0-.86,3.29v6.18h-1.78V596.38h1.45l.29,1.61h.09a3.6,3.6,0,0,1,1.53-1.35,5,5,0,0,1,2.21-.48,4.46,4.46,0,0,1,3.2,1,4.39,4.39,0,0,1,1.07,3.28v7.68Z" transform="translate(-51.4 -32.71)"/><path class="cls-9" d="M318.25,608.37a5.4,5.4,0,0,1-4.12-1.59,6.16,6.16,0,0,1-1.51-4.42,6.84,6.84,0,0,1,1.4-4.52,4.66,4.66,0,0,1,3.77-1.68,4.45,4.45,0,0,1,3.5,1.46,5.57,5.57,0,0,1,1.29,3.84v1.13h-8.11a4.62,4.62,0,0,0,1,3.14,3.63,3.63,0,0,0,2.8,1.08,9.49,9.49,0,0,0,3.76-.8v1.59a8.9,8.9,0,0,1-1.79.59A9.86,9.86,0,0,1,318.25,608.37Zm-.49-10.71a2.91,2.91,0,0,0-2.26.92,4.29,4.29,0,0,0-1,2.56h6.16a3.94,3.94,0,0,0-.76-2.59A2.63,2.63,0,0,0,317.76,597.66Z" transform="translate(-51.4 -32.71)"/><path class="cls-9" d="M331,596.16a7.52,7.52,0,0,1,1.41.13l-.25,1.66a6,6,0,0,0-1.29-.17,3.13,3.13,0,0,0-2.44,1.16,4.24,4.24,0,0,0-1,2.89v6.32h-1.78V596.38h1.47l.2,2.18h.09a5.08,5.08,0,0,1,1.58-1.77A3.51,3.51,0,0,1,331,596.16Z" transform="translate(-51.4 -32.71)"/><path class="cls-5" d="M854.24,145v13.86a8.18,8.18,0,0,1-1,4.15,6.76,6.76,0,0,1-3,2.74,10.21,10.21,0,0,1-4.6,1,8.6,8.6,0,0,1-6.2-2.11,7.64,7.64,0,0,1-2.21-5.8V145h3.51v13.55a5.41,5.41,0,0,0,1.23,3.91,5.07,5.07,0,0,0,3.78,1.26q5,0,5-5.2V145Z" transform="translate(-51.4 -32.71)"/><path class="cls-5" d="M868.83,147.68a5.75,5.75,0,0,0-4.75,2.14,9.13,9.13,0,0,0-1.73,5.9,9.25,9.25,0,0,0,1.66,6,5.88,5.88,0,0,0,4.82,2,12.68,12.68,0,0,0,2.63-.27c.85-.18,1.74-.41,2.65-.69v3a16.16,16.16,0,0,1-5.71.95q-4.7,0-7.22-2.85c-1.68-1.9-2.52-4.61-2.52-8.15a13.22,13.22,0,0,1,1.22-5.84,8.79,8.79,0,0,1,3.54-3.84,10.66,10.66,0,0,1,5.43-1.34,13.49,13.49,0,0,1,6.07,1.38L873.66,149a17.87,17.87,0,0,0-2.29-.9A8.28,8.28,0,0,0,868.83,147.68Z" transform="translate(-51.4 -32.71)"/><path class="cls-5" d="M891.08,160.58a5.4,5.4,0,0,1-2.07,4.49,9,9,0,0,1-5.7,1.62,13.44,13.44,0,0,1-5.94-1.13v-3.31a16.32,16.32,0,0,0,3.11,1.09,13.37,13.37,0,0,0,3.07.39,4.88,4.88,0,0,0,3.07-.79,2.56,2.56,0,0,0,1-2.12,2.69,2.69,0,0,0-.9-2,14,14,0,0,0-3.75-2,9.81,9.81,0,0,1-4.13-2.71,5.66,5.66,0,0,1-1.21-3.66,5.14,5.14,0,0,1,1.91-4.22,7.92,7.92,0,0,1,5.11-1.54,15,15,0,0,1,6.12,1.35l-1.11,2.86a13.36,13.36,0,0,0-5.1-1.2,3.89,3.89,0,0,0-2.58.74,2.43,2.43,0,0,0-.87,2,2.68,2.68,0,0,0,.35,1.43,3.53,3.53,0,0,0,1.15,1.12,19.35,19.35,0,0,0,2.91,1.39,16.33,16.33,0,0,1,3.45,1.83,5.45,5.45,0,0,1,1.61,1.92A5.7,5.7,0,0,1,891.08,160.58Z" transform="translate(-51.4 -32.71)"/><path class="cls-5" d="M903,145h6.36q4.43,0,6.4,1.29a4.52,4.52,0,0,1,2,4.07,5,5,0,0,1-1,3.12A4.29,4.29,0,0,1,914,155v.15a5.45,5.45,0,0,1,3.31,1.68,5,5,0,0,1,1.07,3.39,5.49,5.49,0,0,1-2,4.52,8.71,8.71,0,0,1-5.6,1.63H903Zm3.51,8.85h3.36a5.7,5.7,0,0,0,3.21-.7,2.64,2.64,0,0,0,1-2.36,2.36,2.36,0,0,0-1.09-2.18,6.77,6.77,0,0,0-3.46-.68h-3Zm0,2.84v6.78h3.72a5.46,5.46,0,0,0,3.31-.84,3.1,3.1,0,0,0,1.12-2.66,2.81,2.81,0,0,0-1.14-2.47,6,6,0,0,0-3.47-.81Z" transform="translate(-51.4 -32.71)"/><path class="cls-5" d="M932.59,166.4l-.69-2.26h-.12a6.64,6.64,0,0,1-2.35,2,7.62,7.62,0,0,1-3,.53,5.16,5.16,0,0,1-3.73-1.29,4.82,4.82,0,0,1-1.34-3.64,4.28,4.28,0,0,1,1.86-3.78,10.74,10.74,0,0,1,5.67-1.4l2.8-.08v-.87a3.25,3.25,0,0,0-.73-2.32,3,3,0,0,0-2.25-.77,7.55,7.55,0,0,0-2.38.37,17,17,0,0,0-2.2.86L923,151.31a11.87,11.87,0,0,1,2.88-1.05,13.27,13.27,0,0,1,3-.36,7,7,0,0,1,4.67,1.35,5.28,5.28,0,0,1,1.57,4.24V166.4Zm-5.13-2.35a4.24,4.24,0,0,0,3-1,3.8,3.8,0,0,0,1.14-2.94v-1.41l-2.08.09a7.07,7.07,0,0,0-3.54.82,2.45,2.45,0,0,0-1.11,2.21,2.15,2.15,0,0,0,.65,1.68A2.74,2.74,0,0,0,927.46,164.05Z" transform="translate(-51.4 -32.71)"/><path class="cls-5" d="M946.39,166.69a7.11,7.11,0,0,1-5.59-2.14,10.89,10.89,0,0,1,.09-12.45,7.43,7.43,0,0,1,5.78-2.2,10.74,10.74,0,0,1,4.61,1l-1,2.77a10.34,10.34,0,0,0-3.6-.85q-4.21,0-4.21,5.58a6.66,6.66,0,0,0,1.05,4.09,3.64,3.64,0,0,0,3.07,1.37,8.83,8.83,0,0,0,4.35-1.14v3a6.87,6.87,0,0,1-2,.78A12.3,12.3,0,0,1,946.39,166.69Z" transform="translate(-51.4 -32.71)"/><path class="cls-5" d="M958,157.84l2-2.43,4.9-5.21h4l-6.51,7,6.92,9.24h-4l-5.2-7.11-1.89,1.56v5.55h-3.41V143.61h3.41v11.11l-.17,3.12Z" transform="translate(-51.4 -32.71)"/><path class="cls-5" d="M983.29,166.4l-.49-2.13h-.17a4.87,4.87,0,0,1-2,1.78,6.88,6.88,0,0,1-3,.64,6,6,0,0,1-4.39-1.46,6.07,6.07,0,0,1-1.45-4.44V150.2h3.47v10A4.32,4.32,0,0,0,976,163a2.91,2.91,0,0,0,2.39.93,3.78,3.78,0,0,0,3.18-1.3,7.12,7.12,0,0,0,1-4.34V150.2H986v16.2Z" transform="translate(-51.4 -32.71)"/><path class="cls-5" d="M999.12,166.69a5.67,5.67,0,0,1-4.77-2.21h-.21q.21,2.06.21,2.49v6.64h-3.44V150.2h2.78c.08.3.24,1,.48,2.17h.18a5.37,5.37,0,0,1,4.83-2.47,5.65,5.65,0,0,1,4.73,2.2,12.07,12.07,0,0,1,0,12.37A5.7,5.7,0,0,1,999.12,166.69Zm-.83-14a3.59,3.59,0,0,0-3,1.2,6.23,6.23,0,0,0-.94,3.84v.51a7.51,7.51,0,0,0,.94,4.28,3.46,3.46,0,0,0,3.06,1.33,3.1,3.1,0,0,0,2.75-1.47,7.48,7.48,0,0,0,1-4.17,7.27,7.27,0,0,0-1-4.12A3.19,3.19,0,0,0,998.29,152.72Z" transform="translate(-51.4 -32.71)"/><path class="cls-5" d="M227.38,771.11V785a8.21,8.21,0,0,1-1,4.15,6.76,6.76,0,0,1-3,2.74,10.21,10.21,0,0,1-4.6,1,8.64,8.64,0,0,1-6.2-2.11,7.62,7.62,0,0,1-2.21-5.8v-13.8h3.51v13.55a5.41,5.41,0,0,0,1.23,3.91,5.07,5.07,0,0,0,3.78,1.26q5,0,5-5.2V771.11Z" transform="translate(-51.4 -32.71)"/><path class="cls-5" d="M242,773.8a5.78,5.78,0,0,0-4.74,2.14,9.18,9.18,0,0,0-1.73,5.91q0,3.93,1.66,6a5.88,5.88,0,0,0,4.81,2,12.71,12.71,0,0,0,2.64-.27c.85-.18,1.73-.41,2.65-.7v3a16.16,16.16,0,0,1-5.71,1q-4.69,0-7.22-2.85t-2.52-8.15A13.26,13.26,0,0,1,233,776a8.79,8.79,0,0,1,3.54-3.84A10.76,10.76,0,0,1,242,770.8a13.49,13.49,0,0,1,6.07,1.38l-1.26,2.91a19.47,19.47,0,0,0-2.29-.9A8.29,8.29,0,0,0,242,773.8Z" transform="translate(-51.4 -32.71)"/><path class="cls-5" d="M264.22,786.71a5.38,5.38,0,0,1-2.07,4.48,9,9,0,0,1-5.7,1.63,13.66,13.66,0,0,1-5.95-1.13v-3.31a16,16,0,0,0,3.12,1.08,12.89,12.89,0,0,0,3.07.4,5,5,0,0,0,3.07-.79,2.61,2.61,0,0,0,1-2.13,2.65,2.65,0,0,0-.9-2,13.66,13.66,0,0,0-3.75-2,9.81,9.81,0,0,1-4.13-2.71,5.7,5.7,0,0,1-1.21-3.66,5.12,5.12,0,0,1,1.91-4.22,7.87,7.87,0,0,1,5.11-1.54,15,15,0,0,1,6.12,1.35L262.78,775a13.2,13.2,0,0,0-5.1-1.21,4,4,0,0,0-2.58.74,2.46,2.46,0,0,0-.87,2,2.71,2.71,0,0,0,.35,1.43,3.63,3.63,0,0,0,1.15,1.12,20.7,20.7,0,0,0,2.9,1.39,15.34,15.34,0,0,1,3.46,1.83,5.45,5.45,0,0,1,1.61,1.92A5.78,5.78,0,0,1,264.22,786.71Z" transform="translate(-51.4 -32.71)"/><path class="cls-5" d="M285.41,792.52l-6.21-17.88h-.12q.26,4,.25,7.47v10.41h-3.18V771.11h4.94l6,17h.09l6.12-17h4.95v21.41h-3.37V781.93c0-1.06,0-2.45.08-4.16s.1-2.74.14-3.1h-.12l-6.43,17.85Z" transform="translate(-51.4 -32.71)"/><path class="cls-5" d="M313.61,792.52l-.69-2.25h-.12a6.5,6.5,0,0,1-2.35,2,7.41,7.41,0,0,1-3.05.54,5.16,5.16,0,0,1-3.73-1.29,4.85,4.85,0,0,1-1.34-3.65,4.28,4.28,0,0,1,1.86-3.78,10.74,10.74,0,0,1,5.67-1.39l2.8-.09v-.86a3.23,3.23,0,0,0-.73-2.32,2.92,2.92,0,0,0-2.25-.77,7.84,7.84,0,0,0-2.38.36,19.36,19.36,0,0,0-2.2.87L304,777.44a12,12,0,0,1,2.88-1.05,13.27,13.27,0,0,1,3-.36,7,7,0,0,1,4.67,1.35,5.27,5.27,0,0,1,1.57,4.23v10.91Zm-5.13-2.34a4.25,4.25,0,0,0,3-1,3.76,3.76,0,0,0,1.14-2.93v-1.41l-2.08.09a7.2,7.2,0,0,0-3.54.81,2.45,2.45,0,0,0-1.1,2.22,2.18,2.18,0,0,0,.64,1.68A2.79,2.79,0,0,0,308.48,790.18Z" transform="translate(-51.4 -32.71)"/><path class="cls-5" d="M331.76,787.91a4.24,4.24,0,0,1-1.73,3.64,8.23,8.23,0,0,1-4.95,1.27,11.75,11.75,0,0,1-5.2-1v-3a12.75,12.75,0,0,0,5.32,1.32q3.18,0,3.18-1.92a1.48,1.48,0,0,0-.36-1,4,4,0,0,0-1.15-.85,19.16,19.16,0,0,0-2.24-1,10.21,10.21,0,0,1-3.79-2.17,4,4,0,0,1-1-2.81,3.69,3.69,0,0,1,1.68-3.23,7.93,7.93,0,0,1,4.56-1.15,13,13,0,0,1,5.41,1.16l-1.12,2.59A12,12,0,0,0,326,778.7c-1.81,0-2.72.51-2.72,1.55a1.57,1.57,0,0,0,.71,1.29,16,16,0,0,0,3.1,1.45,14,14,0,0,1,2.91,1.42,4.21,4.21,0,0,1,1.35,1.49A4.32,4.32,0,0,1,331.76,787.91Z" transform="translate(-51.4 -32.71)"/><path class="cls-5" d="M341.52,790a8.48,8.48,0,0,0,2.52-.39v2.59a6.82,6.82,0,0,1-1.48.42,10.29,10.29,0,0,1-1.86.17q-4.9,0-4.9-5.16v-8.73h-2.21v-1.52l2.37-1.26,1.18-3.43h2.12v3.6h4.61v2.61h-4.61v8.67a2.45,2.45,0,0,0,.62,1.84A2.26,2.26,0,0,0,341.52,790Z" transform="translate(-51.4 -32.71)"/><path class="cls-5" d="M354.35,792.82a7.84,7.84,0,0,1-5.91-2.21,8.37,8.37,0,0,1-2.13-6.07,9.16,9.16,0,0,1,2-6.24,6.85,6.85,0,0,1,5.44-2.27,6.67,6.67,0,0,1,5.07,2,7.44,7.44,0,0,1,1.86,5.36v1.86h-10.8a5.31,5.31,0,0,0,1.28,3.63,4.44,4.44,0,0,0,3.38,1.26,12.45,12.45,0,0,0,2.67-.27,13.92,13.92,0,0,0,2.66-.9v2.8a10.77,10.77,0,0,1-2.55.85A16.12,16.12,0,0,1,354.35,792.82Zm-.63-14.18a3.43,3.43,0,0,0-2.63,1,5,5,0,0,0-1.18,3h7.35a4.51,4.51,0,0,0-1-3A3.32,3.32,0,0,0,353.72,778.64Z" transform="translate(-51.4 -32.71)"/><path class="cls-5" d="M372.78,776a8.09,8.09,0,0,1,1.71.15l-.34,3.2a6.87,6.87,0,0,0-1.52-.17,4.41,4.41,0,0,0-3.35,1.35,4.88,4.88,0,0,0-1.28,3.5v8.46h-3.44v-16.2h2.69l.46,2.86h.17a6.48,6.48,0,0,1,2.1-2.3A5,5,0,0,1,372.78,776Z" transform="translate(-51.4 -32.71)"/><path class="cls-5" d="M255.18,168.55V147.13h3.5v18.41h9.07v3Z" transform="translate(-51.4 -32.71)"/><path class="cls-5" d="M288.86,157.63q0,5.31-2.95,8.11t-8.48,2.81h-6V147.13h6.62q5.12,0,7.95,2.75T288.86,157.63Zm-3.69.12q0-7.69-7.2-7.69h-3V165.6h2.49Q285.17,165.6,285.17,157.75Z" transform="translate(-51.4 -32.71)"/><path class="cls-5" d="M306.74,168.55l-2.14-6h-8.18l-2.1,6h-3.69l8-21.51h3.81l8,21.51Zm-3.06-9-2-5.83c-.14-.39-.35-1-.6-1.84s-.44-1.46-.54-1.85a32.1,32.1,0,0,1-1.16,3.94l-1.93,5.58Z" transform="translate(-51.4 -32.71)"/><path class="cls-5" d="M327.47,153.6a6.25,6.25,0,0,1-2.2,5.15,9.67,9.67,0,0,1-6.25,1.78h-2.23v8h-3.5V147.13h6.17c2.67,0,4.68.55,6,1.64A5.9,5.9,0,0,1,327.47,153.6Zm-10.68,4h1.86a6.64,6.64,0,0,0,4-.94,3.4,3.4,0,0,0,1.26-2.93,3.32,3.32,0,0,0-1.13-2.75,5.56,5.56,0,0,0-3.52-.91h-2.43Z" transform="translate(-51.4 -32.71)"/><path class="cls-2" d="M105.45,459.53V438.11H109v18.41H118v3Z" transform="translate(-51.4 -32.71)"/><path class="cls-2" d="M139.13,448.61q0,5.31-2.94,8.11c-2,1.87-4.79,2.81-8.49,2.81h-6V438.11h6.62q5.11,0,8,2.75T139.13,448.61Zm-3.69.12q0-7.69-7.19-7.69h-3v15.54h2.49Q135.44,456.58,135.44,448.73Z" transform="translate(-51.4 -32.71)"/><path class="cls-2" d="M157,459.53l-2.14-5.95h-8.19l-2.1,5.95H140.9l8-21.51h3.81l8,21.51Zm-3.07-9-2-5.83c-.15-.39-.35-1-.61-1.85s-.44-1.45-.54-1.84a33.78,33.78,0,0,1-1.15,3.94l-1.94,5.58Z" transform="translate(-51.4 -32.71)"/><path class="cls-2" d="M177.74,444.58a6.28,6.28,0,0,1-2.19,5.15,9.7,9.7,0,0,1-6.26,1.78h-2.23v8h-3.5V438.11h6.17q4,0,6,1.64A5.85,5.85,0,0,1,177.74,444.58Zm-10.68,4h1.86a6.64,6.64,0,0,0,4-.94,3.4,3.4,0,0,0,1.26-2.93A3.32,3.32,0,0,0,173,442a5.52,5.52,0,0,0-3.51-.91h-2.44Z" transform="translate(-51.4 -32.71)"/><path class="cls-2" d="M207.65,459.53h-4.29l-10.53-17.07h-.12l.08,1c.13,1.82.2,3.48.2,5v11.14h-3.18V438.11h4.25l10.5,17h.09q0-.34-.12-2.46c-.05-1.41-.08-2.51-.08-3.3V438.11h3.2Z" transform="translate(-51.4 -32.71)"/><path class="cls-2" d="M227.31,451.4a8.86,8.86,0,0,1-2,6.19,7.29,7.29,0,0,1-5.67,2.23,7.74,7.74,0,0,1-4-1,6.78,6.78,0,0,1-2.68-2.94,10.11,10.11,0,0,1-.93-4.45,8.8,8.8,0,0,1,2-6.16,7.34,7.34,0,0,1,5.7-2.21,7.15,7.15,0,0,1,5.56,2.26A8.75,8.75,0,0,1,227.31,451.4Zm-11.79,0q0,5.61,4.15,5.61t4.1-5.61q0-5.56-4.13-5.56a3.5,3.5,0,0,0-3.14,1.44A7.31,7.31,0,0,0,215.52,451.4Z" transform="translate(-51.4 -32.71)"/><path class="cls-2" d="M237.3,457a8.48,8.48,0,0,0,2.52-.39v2.59a6.56,6.56,0,0,1-1.47.42,10.32,10.32,0,0,1-1.87.17q-4.89,0-4.89-5.16v-8.73h-2.21v-1.52l2.37-1.26,1.17-3.43h2.13v3.6h4.61v2.61h-4.61v8.67a2.41,2.41,0,0,0,.62,1.84A2.24,2.24,0,0,0,237.3,457Z" transform="translate(-51.4 -32.71)"/><path class="cls-2" d="M242.85,439a1.9,1.9,0,0,1,.51-1.42,2,2,0,0,1,1.44-.5,1.74,1.74,0,0,1,1.92,1.92,1.91,1.91,0,0,1-.5,1.39,2,2,0,0,1-1.42.5,2,2,0,0,1-1.44-.5A1.87,1.87,0,0,1,242.85,439Zm3.65,20.5h-3.44V443.32h3.44Z" transform="translate(-51.4 -32.71)"/><path class="cls-2" d="M259.55,445.93h-4v13.6h-3.46v-13.6h-2.66v-1.61l2.66-1.05v-1.06a5.88,5.88,0,0,1,1.35-4.25,5.49,5.49,0,0,1,4.12-1.39,11,11,0,0,1,3.57.6l-.91,2.61a8,8,0,0,0-2.43-.41,2,2,0,0,0-1.71.72,3.73,3.73,0,0,0-.53,2.18v1.05h4Zm2.55-6.9a1.9,1.9,0,0,1,.51-1.42,2,2,0,0,1,1.44-.5A1.75,1.75,0,0,1,266,439a1.87,1.87,0,0,1-.51,1.39,1.91,1.91,0,0,1-1.41.5,2,2,0,0,1-1.44-.5A1.87,1.87,0,0,1,262.1,439Zm3.65,20.5h-3.44V443.32h3.44Z" transform="translate(-51.4 -32.71)"/><path class="cls-2" d="M277.22,459.82a7.11,7.11,0,0,1-5.59-2.15,10.87,10.87,0,0,1,.09-12.44,7.4,7.4,0,0,1,5.78-2.2,10.86,10.86,0,0,1,4.61,1l-1,2.77a10.52,10.52,0,0,0-3.6-.85q-4.2,0-4.2,5.58a6.7,6.7,0,0,0,1,4.1,3.64,3.64,0,0,0,3.07,1.37,8.74,8.74,0,0,0,4.35-1.15v3a6.57,6.57,0,0,1-2,.77A11.53,11.53,0,0,1,277.22,459.82Z" transform="translate(-51.4 -32.71)"/><path class="cls-2" d="M295.68,459.53l-.69-2.26h-.12a6.52,6.52,0,0,1-2.36,2,7.36,7.36,0,0,1-3,.54,5.14,5.14,0,0,1-3.73-1.29,4.81,4.81,0,0,1-1.34-3.65,4.28,4.28,0,0,1,1.86-3.78,10.74,10.74,0,0,1,5.67-1.39l2.8-.09v-.86a3.27,3.27,0,0,0-.73-2.32,2.92,2.92,0,0,0-2.25-.77,8,8,0,0,0-2.39.36,19.2,19.2,0,0,0-2.19.87l-1.12-2.46a11.94,11.94,0,0,1,2.89-1.05,13.2,13.2,0,0,1,3-.36,7,7,0,0,1,4.66,1.35,5.28,5.28,0,0,1,1.58,4.23v10.92Zm-5.13-2.35a4.26,4.26,0,0,0,3-1.05,3.76,3.76,0,0,0,1.14-2.93v-1.41l-2.08.09a7.17,7.17,0,0,0-3.54.81,2.46,2.46,0,0,0-1.11,2.22,2.18,2.18,0,0,0,.65,1.68A2.79,2.79,0,0,0,290.55,457.18Z" transform="translate(-51.4 -32.71)"/><path class="cls-2" d="M309,457a8.48,8.48,0,0,0,2.52-.39v2.59a6.56,6.56,0,0,1-1.47.42,10.49,10.49,0,0,1-1.87.17q-4.89,0-4.89-5.16v-8.73h-2.22v-1.52l2.38-1.26,1.17-3.43h2.12v3.6h4.62v2.61h-4.62v8.67a2.45,2.45,0,0,0,.62,1.84A2.26,2.26,0,0,0,309,457Z" transform="translate(-51.4 -32.71)"/><path class="cls-2" d="M314.53,439a1.9,1.9,0,0,1,.51-1.42,2.28,2.28,0,0,1,2.85,0,1.9,1.9,0,0,1,.51,1.42,1.87,1.87,0,0,1-.51,1.39,2.28,2.28,0,0,1-2.85,0A1.87,1.87,0,0,1,314.53,439Zm3.65,20.5h-3.45V443.32h3.45Z" transform="translate(-51.4 -32.71)"/><path class="cls-2" d="M337.47,451.4a8.82,8.82,0,0,1-2,6.19,7.26,7.26,0,0,1-5.67,2.23,7.7,7.7,0,0,1-4-1,6.72,6.72,0,0,1-2.68-2.94,10,10,0,0,1-.94-4.45,8.84,8.84,0,0,1,2-6.16,7.35,7.35,0,0,1,5.7-2.21,7.17,7.17,0,0,1,5.57,2.26A8.75,8.75,0,0,1,337.47,451.4Zm-11.79,0q0,5.61,4.14,5.61c2.74,0,4.1-1.87,4.1-5.61s-1.37-5.56-4.13-5.56a3.52,3.52,0,0,0-3.14,1.44A7.32,7.32,0,0,0,325.68,451.4Z" transform="translate(-51.4 -32.71)"/><path class="cls-2" d="M355.68,459.53h-3.46v-10a4.34,4.34,0,0,0-.75-2.79,2.93,2.93,0,0,0-2.4-.93,3.8,3.8,0,0,0-3.19,1.29,7.07,7.07,0,0,0-1,4.32v8.08h-3.45V443.32h2.7l.48,2.13h.18a4.81,4.81,0,0,1,2.08-1.79,7,7,0,0,1,3-.63c3.88,0,5.83,2,5.83,5.93Z" transform="translate(-51.4 -32.71)"/><path class="cls-5" d="M796,681.07v13.86a8.21,8.21,0,0,1-1,4.15,6.76,6.76,0,0,1-2.95,2.74,10.21,10.21,0,0,1-4.6,1,8.61,8.61,0,0,1-6.2-2.11,7.66,7.66,0,0,1-2.21-5.8v-13.8h3.52v13.55a5.41,5.41,0,0,0,1.23,3.91,5.06,5.06,0,0,0,3.77,1.26q5,0,5-5.2V681.07Z" transform="translate(-51.4 -32.71)"/><path class="cls-5" d="M810.63,683.77a5.79,5.79,0,0,0-4.75,2.13,11.24,11.24,0,0,0-.07,11.87,5.88,5.88,0,0,0,4.82,2,12.61,12.61,0,0,0,2.63-.27c.85-.18,1.74-.41,2.66-.69v3a16.22,16.22,0,0,1-5.72.95q-4.69,0-7.22-2.85t-2.52-8.15a13.26,13.26,0,0,1,1.22-5.85,8.77,8.77,0,0,1,3.54-3.83,10.7,10.7,0,0,1,5.44-1.34,13.45,13.45,0,0,1,6.06,1.38l-1.26,2.92a17.9,17.9,0,0,0-2.29-.91A8.53,8.53,0,0,0,810.63,683.77Z" transform="translate(-51.4 -32.71)"/><path class="cls-5" d="M832.88,696.67a5.37,5.37,0,0,1-2.07,4.48,8.93,8.93,0,0,1-5.7,1.63,13.58,13.58,0,0,1-5.94-1.13v-3.31a16.32,16.32,0,0,0,3.11,1.09,13.37,13.37,0,0,0,3.07.39,4.86,4.86,0,0,0,3.07-.79,2.57,2.57,0,0,0,1-2.12,2.7,2.7,0,0,0-.91-2,13.66,13.66,0,0,0-3.75-2,9.81,9.81,0,0,1-4.13-2.71,5.71,5.71,0,0,1-1.2-3.66,5.13,5.13,0,0,1,1.9-4.22,7.92,7.92,0,0,1,5.11-1.54,15.06,15.06,0,0,1,6.13,1.35L831.44,685a13.36,13.36,0,0,0-5.1-1.2,3.84,3.84,0,0,0-2.57.74,2.4,2.4,0,0,0-.88,2,2.71,2.71,0,0,0,.35,1.43A3.47,3.47,0,0,0,824.4,689a18.63,18.63,0,0,0,2.9,1.39,16.33,16.33,0,0,1,3.45,1.83,5.48,5.48,0,0,1,1.62,1.92A5.84,5.84,0,0,1,832.88,696.67Z" transform="translate(-51.4 -32.71)"/><path class="cls-5" d="M854.07,702.49l-6.21-17.89h-.11c.16,2.66.25,5.15.25,7.47v10.42h-3.18V681.07h4.93l6,17h.09l6.12-17h5v21.42h-3.37V691.9c0-1.07,0-2.45.08-4.16s.1-2.75.14-3.11h-.11l-6.43,17.86Z" transform="translate(-51.4 -32.71)"/><path class="cls-5" d="M879.21,702.78a7.83,7.83,0,0,1-5.91-2.2,8.39,8.39,0,0,1-2.13-6.08,9.2,9.2,0,0,1,2-6.24,6.83,6.83,0,0,1,5.43-2.27,6.67,6.67,0,0,1,5.07,2,7.45,7.45,0,0,1,1.86,5.36v1.86h-10.8a5.34,5.34,0,0,0,1.28,3.63,4.46,4.46,0,0,0,3.38,1.27,11.83,11.83,0,0,0,2.67-.28,13.69,13.69,0,0,0,2.66-.9v2.8a10.4,10.4,0,0,1-2.54.85A15.39,15.39,0,0,1,879.21,702.78Zm-.63-14.18a3.48,3.48,0,0,0-2.63,1,5,5,0,0,0-1.18,3h7.36a4.53,4.53,0,0,0-1-3A3.32,3.32,0,0,0,878.58,688.6Z" transform="translate(-51.4 -32.71)"/><path class="cls-5" d="M903.07,702.49h-3.45v-10a4.53,4.53,0,0,0-.71-2.78,2.59,2.59,0,0,0-2.19-.91,3.37,3.37,0,0,0-2.93,1.29,7.62,7.62,0,0,0-.93,4.32v8.07h-3.44v-16.2h2.7l.48,2.12h.18a4.46,4.46,0,0,1,2-1.79,6.31,6.31,0,0,1,2.82-.63q3.74,0,5,2.55h.24a4.88,4.88,0,0,1,2-1.87,6.4,6.4,0,0,1,3-.68,5.42,5.42,0,0,1,4.22,1.47,6.44,6.44,0,0,1,1.33,4.47v10.56h-3.44v-10a4.46,4.46,0,0,0-.72-2.78,2.6,2.6,0,0,0-2.2-.91,3.41,3.41,0,0,0-2.94,1.25,6.43,6.43,0,0,0-.93,3.84Z" transform="translate(-51.4 -32.71)"/><path class="cls-5" d="M926.38,686a5.63,5.63,0,0,1,4.72,2.2,12.1,12.1,0,0,1,0,12.37,6.24,6.24,0,0,1-9.54,0h-.23l-.63,1.92H918.1v-22.8h3.44v5.42c0,.4,0,1,0,1.79s-.07,1.3-.09,1.51h.14A5.49,5.49,0,0,1,926.38,686Zm-.89,2.82a3.49,3.49,0,0,0-3,1.22,7.1,7.1,0,0,0-1,4.09v.24a7.6,7.6,0,0,0,.94,4.28,3.48,3.48,0,0,0,3.06,1.33,3.13,3.13,0,0,0,2.78-1.45,7.72,7.72,0,0,0,.94-4.19Q929.26,688.81,925.49,688.81Z" transform="translate(-51.4 -32.71)"/><path class="cls-5" d="M943.87,702.78a7.83,7.83,0,0,1-5.91-2.2,8.39,8.39,0,0,1-2.13-6.08,9.24,9.24,0,0,1,2-6.24,6.85,6.85,0,0,1,5.44-2.27,6.67,6.67,0,0,1,5.07,2,7.45,7.45,0,0,1,1.86,5.36v1.86h-10.8a5.34,5.34,0,0,0,1.28,3.63,4.46,4.46,0,0,0,3.38,1.27,11.83,11.83,0,0,0,2.67-.28,13.69,13.69,0,0,0,2.66-.9v2.8a10.33,10.33,0,0,1-2.55.85A15.28,15.28,0,0,1,943.87,702.78Zm-.63-14.18a3.48,3.48,0,0,0-2.63,1,5,5,0,0,0-1.18,3h7.35a4.53,4.53,0,0,0-1-3A3.32,3.32,0,0,0,943.24,688.6Z" transform="translate(-51.4 -32.71)"/><path class="cls-5" d="M962.3,686a8.09,8.09,0,0,1,1.71.15l-.34,3.21a6.27,6.27,0,0,0-1.52-.18,4.41,4.41,0,0,0-3.35,1.35,4.9,4.9,0,0,0-1.28,3.5v8.47h-3.44v-16.2h2.69l.46,2.85h.17a6.5,6.5,0,0,1,2.11-2.3A5,5,0,0,1,962.3,686Z" transform="translate(-51.4 -32.71)"/><path class="cls-5" d="M987.52,696.67a5.39,5.39,0,0,1-2.06,4.48,9,9,0,0,1-5.7,1.63,13.63,13.63,0,0,1-6-1.13v-3.31a16.57,16.57,0,0,0,3.11,1.09,13.37,13.37,0,0,0,3.07.39,4.86,4.86,0,0,0,3.07-.79,2.57,2.57,0,0,0,1-2.12,2.66,2.66,0,0,0-.91-2,13.35,13.35,0,0,0-3.75-2,9.88,9.88,0,0,1-4.13-2.71,5.71,5.71,0,0,1-1.2-3.66,5.13,5.13,0,0,1,1.9-4.22,8,8,0,0,1,5.12-1.54,15,15,0,0,1,6.12,1.35L986.09,685a13.44,13.44,0,0,0-5.1-1.2,3.89,3.89,0,0,0-2.58.74,2.4,2.4,0,0,0-.88,2,2.81,2.81,0,0,0,.35,1.43A3.57,3.57,0,0,0,979,689a19.1,19.1,0,0,0,2.9,1.39,16.46,16.46,0,0,1,3.46,1.83,5.45,5.45,0,0,1,1.61,1.92A5.84,5.84,0,0,1,987.52,696.67Z" transform="translate(-51.4 -32.71)"/><path class="cls-5" d="M998.38,702.78a7.87,7.87,0,0,1-5.92-2.2,8.39,8.39,0,0,1-2.13-6.08,9.2,9.2,0,0,1,2-6.24,6.85,6.85,0,0,1,5.44-2.27,6.67,6.67,0,0,1,5.06,2,7.45,7.45,0,0,1,1.86,5.36v1.86H993.88a5.34,5.34,0,0,0,1.27,3.63,4.46,4.46,0,0,0,3.39,1.27,12,12,0,0,0,2.67-.28,13.92,13.92,0,0,0,2.66-.9v2.8a10.33,10.33,0,0,1-2.55.85A15.28,15.28,0,0,1,998.38,702.78Zm-.63-14.18a3.46,3.46,0,0,0-2.63,1,4.89,4.89,0,0,0-1.18,3h7.35a4.48,4.48,0,0,0-1-3A3.28,3.28,0,0,0,997.75,688.6Z" transform="translate(-51.4 -32.71)"/><path class="cls-5" d="M1016.8,686a8.12,8.12,0,0,1,1.72.15l-.34,3.21a6.39,6.39,0,0,0-1.52-.18,4.4,4.4,0,0,0-3.35,1.35A4.9,4.9,0,0,0,1012,694v8.47h-3.44v-16.2h2.69l.46,2.85h.17a6.57,6.57,0,0,1,2.1-2.3A5.08,5.08,0,0,1,1016.8,686Z" transform="translate(-51.4 -32.71)"/><path class="cls-5" d="M1025.21,702.49l-6.15-16.2h3.63l3.3,9.42a18.56,18.56,0,0,1,1,3.83h.12a25.6,25.6,0,0,1,1-3.83l3.29-9.42h3.66l-6.18,16.2Z" transform="translate(-51.4 -32.71)"/><path class="cls-5" d="M1044.65,702.78a7.83,7.83,0,0,1-5.91-2.2,8.39,8.39,0,0,1-2.13-6.08,9.2,9.2,0,0,1,2-6.24A6.83,6.83,0,0,1,1044,686a6.67,6.67,0,0,1,5.07,2,7.45,7.45,0,0,1,1.86,5.36v1.86h-10.8a5.34,5.34,0,0,0,1.28,3.63,4.46,4.46,0,0,0,3.38,1.27,11.83,11.83,0,0,0,2.67-.28,13.69,13.69,0,0,0,2.66-.9v2.8a10.33,10.33,0,0,1-2.55.85A15.21,15.21,0,0,1,1044.65,702.78ZM1044,688.6a3.48,3.48,0,0,0-2.63,1,5,5,0,0,0-1.18,3h7.36a4.53,4.53,0,0,0-1-3A3.32,3.32,0,0,0,1044,688.6Z" transform="translate(-51.4 -32.71)"/><path class="cls-5" d="M1063.08,686a8.09,8.09,0,0,1,1.71.15l-.33,3.21a6.41,6.41,0,0,0-1.53-.18,4.41,4.41,0,0,0-3.35,1.35,4.9,4.9,0,0,0-1.28,3.5v8.47h-3.44v-16.2h2.7l.45,2.85h.18a6.39,6.39,0,0,1,2.1-2.3A5,5,0,0,1,1063.08,686Z" transform="translate(-51.4 -32.71)"/><path class="cls-5" d="M757.93,475.24l3.77-17.85h2.08l-3.37,16h6.89l-.4,1.88Z" transform="translate(-51.4 -32.71)"/><path class="cls-5" d="M771.5,475.24h-2l2.86-13.38h2.05Zm1.38-16.8a1.6,1.6,0,0,1,.39-1.11,1.31,1.31,0,0,1,1-.44,1,1,0,0,1,1.07,1.1,1.68,1.68,0,0,1-.41,1.14,1.23,1.23,0,0,1-1,.46,1.07,1.07,0,0,1-1.12-1.15Z" transform="translate(-51.4 -32.71)"/><path class="cls-5" d="M784.05,471.45a3.58,3.58,0,0,1-1.35,3,6,6,0,0,1-3.8,1.07,8.09,8.09,0,0,1-3.72-.85v-1.93a7.38,7.38,0,0,0,1.84.8,6.63,6.63,0,0,0,1.83.28,3.69,3.69,0,0,0,2.32-.61,1.9,1.9,0,0,0,.78-1.56,1.68,1.68,0,0,0-.43-1.18,8.45,8.45,0,0,0-1.84-1.3,7.52,7.52,0,0,1-2.25-1.75,3.26,3.26,0,0,1-.65-2,3.37,3.37,0,0,1,1.23-2.72,4.87,4.87,0,0,1,3.25-1,9.43,9.43,0,0,1,4,.9l-.65,1.67-.69-.3a6.78,6.78,0,0,0-2.68-.53,2.77,2.77,0,0,0-1.79.53,1.81,1.81,0,0,0-.21,2.55,7.61,7.61,0,0,0,1.79,1.26,11.15,11.15,0,0,1,1.87,1.25,3.69,3.69,0,0,1,.85,1.13A3.2,3.2,0,0,1,784.05,471.45Z" transform="translate(-51.4 -32.71)"/><path class="cls-5" d="M790.61,473.81a6.58,6.58,0,0,0,1.75-.31v1.57a7.07,7.07,0,0,1-2,.42,3.43,3.43,0,0,1-2.34-.73,2.76,2.76,0,0,1-.81-2.17,9.42,9.42,0,0,1,.22-1.83l1.55-7.35h-2.1l.17-.89,2.26-.95,1.53-2.78H792l-.67,3.07h3.35l-.32,1.55h-3.33l-1.58,7.38a9.14,9.14,0,0,0-.22,1.61,1.45,1.45,0,0,0,.36,1.05A1.31,1.31,0,0,0,790.61,473.81Z" transform="translate(-51.4 -32.71)"/><path class="cls-5" d="M802.79,475.24l1.81-8.45a11.24,11.24,0,0,0,.24-1.75,1.73,1.73,0,0,0-.43-1.24,1.82,1.82,0,0,0-1.39-.46,3.62,3.62,0,0,0-2.12.73,6.62,6.62,0,0,0-1.82,2.09,11.16,11.16,0,0,0-1.19,3.28l-1.23,5.8h-2l2.86-13.38h1.69l-.27,2.48H799a8.31,8.31,0,0,1,2.26-2.11,4.55,4.55,0,0,1,2.27-.61,3.39,3.39,0,0,1,2.44.85,3.08,3.08,0,0,1,.9,2.37,9.88,9.88,0,0,1-.28,2.2l-1.75,8.2Z" transform="translate(-51.4 -32.71)"/><path class="cls-5" d="M814.32,475.49a4.65,4.65,0,0,1-3.52-1.34,5,5,0,0,1-1.29-3.68,11.08,11.08,0,0,1,.91-4.4,8.14,8.14,0,0,1,2.41-3.28,5.29,5.29,0,0,1,3.31-1.17,4.21,4.21,0,0,1,2.81.81,2.82,2.82,0,0,1,.94,2.26,3.87,3.87,0,0,1-2,3.45,11,11,0,0,1-5.79,1.25h-.41l0,1a3.73,3.73,0,0,0,.76,2.5,2.84,2.84,0,0,0,2.32.89,5.9,5.9,0,0,0,1.58-.22,11.38,11.38,0,0,0,2-.8v1.78a10.73,10.73,0,0,1-2,.75A8.43,8.43,0,0,1,814.32,475.49Zm1.7-12.13a3.28,3.28,0,0,0-2.36,1.15A7.49,7.49,0,0,0,812,467.7h.15a9.86,9.86,0,0,0,4.26-.73,2.26,2.26,0,0,0,1.48-2.1,1.42,1.42,0,0,0-.44-1.08A2,2,0,0,0,816,463.36Z" transform="translate(-51.4 -32.71)"/><path class="cls-5" d="M829.83,461.62a5.68,5.68,0,0,1,1.46.17l-.44,1.83a5.16,5.16,0,0,0-1.28-.16,3.44,3.44,0,0,0-2.08.73,6.47,6.47,0,0,0-1.7,2,10.52,10.52,0,0,0-1.07,2.88l-1.3,6.13h-2l2.85-13.38h1.7l-.27,2.48h.12a12.12,12.12,0,0,1,1.46-1.67,4.93,4.93,0,0,1,1.2-.78A3.5,3.5,0,0,1,829.83,461.62Z" transform="translate(-51.4 -32.71)"/><path class="cls-5" d="M845.29,475.24l-2-15.82h-.1c-.06.59-.17,1.39-.35,2.41s-.33,1.84-.46,2.44l-2.32,11h-2l3.77-17.85h3l1.82,14.7h.11l8-14.7H858l-3.7,17.85h-2.13q1.54-7.2,2.36-11.05c.55-2.57.93-4.17,1.15-4.79h-.07l-8.76,15.84Z" transform="translate(-51.4 -32.71)"/><path class="cls-5" d="M865.81,461.69a4.93,4.93,0,0,1,3.67,1.37,5.21,5.21,0,0,1,1.34,3.78,10.79,10.79,0,0,1-.88,4.34,7.53,7.53,0,0,1-2.38,3.15,5.56,5.56,0,0,1-3.39,1.11,4.87,4.87,0,0,1-3.68-1.38,5.2,5.2,0,0,1-1.33-3.77,10.88,10.88,0,0,1,.89-4.37,7.48,7.48,0,0,1,2.41-3.14A5.64,5.64,0,0,1,865.81,461.69Zm2.88,4.87a3.31,3.31,0,0,0-.76-2.27,2.59,2.59,0,0,0-2.07-.88,3.53,3.53,0,0,0-2.38.91,5.75,5.75,0,0,0-1.64,2.5,10.42,10.42,0,0,0-.58,3.58,3.59,3.59,0,0,0,.78,2.47,2.8,2.8,0,0,0,2.22.87,3.4,3.4,0,0,0,2.29-.89,5.88,5.88,0,0,0,1.58-2.53A11.48,11.48,0,0,0,868.69,466.56Z" transform="translate(-51.4 -32.71)"/><path class="cls-5" d="M879.79,461.64a3.57,3.57,0,0,1,3.43,2.32h.12a28,28,0,0,1,.55-3.34l1-4.37h2l-4,19h-1.69l.26-2.55h-.09a9.13,9.13,0,0,1-2.31,2.16,4.37,4.37,0,0,1-2.22.64,3.19,3.19,0,0,1-2.65-1.2,5.18,5.18,0,0,1-.95-3.32,12.61,12.61,0,0,1,.88-4.79,7.93,7.93,0,0,1,2.37-3.35A5.26,5.26,0,0,1,879.79,461.64Zm-2.32,12.15a3.54,3.54,0,0,0,2.37-1.14,8,8,0,0,0,1.93-2.92,9.54,9.54,0,0,0,.72-3.62,2.91,2.91,0,0,0-.66-2.06,2.51,2.51,0,0,0-1.92-.71,3.25,3.25,0,0,0-2.29,1,7,7,0,0,0-1.69,2.83,11.42,11.42,0,0,0-.64,3.84C875.29,472.87,876,473.79,877.47,473.79Z" transform="translate(-51.4 -32.71)"/><path class="cls-5" d="M891.92,461.86l-1.83,8.49a9.73,9.73,0,0,0-.22,1.69,1.57,1.57,0,0,0,1.8,1.75,3.69,3.69,0,0,0,2.11-.73,6.58,6.58,0,0,0,1.83-2.1,11.3,11.3,0,0,0,1.21-3.3l1.22-5.8h2l-2.82,13.38h-1.7l.27-2.48h-.15a8.11,8.11,0,0,1-2.28,2.13,4.57,4.57,0,0,1-2.25.6,3.43,3.43,0,0,1-2.45-.85,3.22,3.22,0,0,1-.89-2.43,11.48,11.48,0,0,1,.27-2.1l1.78-8.25Z" transform="translate(-51.4 -32.71)"/><path class="cls-5" d="M903.59,475.24h-2.05l4.06-19h2Z" transform="translate(-51.4 -32.71)"/><path class="cls-5" d="M764.76,503.85a5.15,5.15,0,0,0-4.09,1.73,7,7,0,0,0-1.49,4.72,7.11,7.11,0,0,0,1.44,4.76,5.14,5.14,0,0,0,4.12,1.68,13.78,13.78,0,0,0,3.75-.59v1.6a11.49,11.49,0,0,1-4,.62,6.81,6.81,0,0,1-5.35-2.11,8.65,8.65,0,0,1-1.89-6,9.41,9.41,0,0,1,.91-4.26,6.53,6.53,0,0,1,2.62-2.81,7.92,7.92,0,0,1,4-1,9.75,9.75,0,0,1,4.32.9l-.77,1.57A8.32,8.32,0,0,0,764.76,503.85Z" transform="translate(-51.4 -32.71)"/><path class="cls-5" d="M783.78,502.45v10.16a5.54,5.54,0,0,1-1.63,4.22,6.22,6.22,0,0,1-4.45,1.54,5.94,5.94,0,0,1-4.39-1.55,5.73,5.73,0,0,1-1.56-4.26V502.45h1.83v10.24a4,4,0,0,0,1.08,3,4.31,4.31,0,0,0,3.15,1,4.22,4.22,0,0,0,3.07-1,4.11,4.11,0,0,0,1.07-3V502.45Z" transform="translate(-51.4 -32.71)"/><path class="cls-5" d="M797.89,507a4.39,4.39,0,0,1-1.63,3.67,7.32,7.32,0,0,1-4.65,1.28h-1.85v6.18h-1.83v-15.7H792Q797.9,502.45,797.89,507Zm-8.13,3.39h1.64a6.16,6.16,0,0,0,3.52-.79,2.89,2.89,0,0,0,1.08-2.51,2.71,2.71,0,0,0-1-2.32,5.32,5.32,0,0,0-3.18-.77h-2Z" transform="translate(-51.4 -32.71)"/><path class="cls-5" d="M810,514a3.88,3.88,0,0,1-1.5,3.24,6.58,6.58,0,0,1-4.09,1.16,10.18,10.18,0,0,1-4.29-.72v-1.77a10.75,10.75,0,0,0,2.1.65,10.9,10.9,0,0,0,2.26.23,4.57,4.57,0,0,0,2.75-.69,2.28,2.28,0,0,0,.92-1.93,2.52,2.52,0,0,0-.32-1.33,3.14,3.14,0,0,0-1.1-1,15.38,15.38,0,0,0-2.34-1A7.62,7.62,0,0,1,801.3,509a4.1,4.1,0,0,1-.94-2.81,3.5,3.5,0,0,1,1.37-2.89,5.67,5.67,0,0,1,3.6-1.07,10.67,10.67,0,0,1,4.31.86l-.57,1.59a9.77,9.77,0,0,0-3.78-.82,3.61,3.61,0,0,0-2.26.63,2,2,0,0,0-.82,1.73,2.62,2.62,0,0,0,.3,1.33,2.8,2.8,0,0,0,1,1,12.29,12.29,0,0,0,2.18,1,8.71,8.71,0,0,1,3.4,1.89A3.72,3.72,0,0,1,810,514Z" transform="translate(-51.4 -32.71)"/><path class="cls-5" d="M828.92,507a4.42,4.42,0,0,1-1.62,3.67,7.37,7.37,0,0,1-4.66,1.28h-1.85v6.18H819v-15.7H823Q828.92,502.45,828.92,507Zm-8.13,3.39h1.65a6.13,6.13,0,0,0,3.51-.79,2.89,2.89,0,0,0,1.08-2.51,2.71,2.71,0,0,0-1-2.32,5.32,5.32,0,0,0-3.18-.77h-2Z" transform="translate(-51.4 -32.71)"/><path class="cls-5" d="M837.31,506.16a7.36,7.36,0,0,1,1.41.13l-.25,1.66a5.87,5.87,0,0,0-1.28-.17,3.15,3.15,0,0,0-2.45,1.16,4.28,4.28,0,0,0-1,2.89v6.32h-1.79V506.38h1.48l.2,2.18h.09a5.05,5.05,0,0,1,1.57-1.77A3.55,3.55,0,0,1,837.31,506.16Z" transform="translate(-51.4 -32.71)"/><path class="cls-5" d="M840.77,503.19a1.19,1.19,0,0,1,.3-.9,1.07,1.07,0,0,1,.76-.28,1,1,0,0,1,.74.29,1.43,1.43,0,0,1,0,1.78,1.09,1.09,0,0,1-1.5,0A1.18,1.18,0,0,1,840.77,503.19Zm1.94,15h-1.79V506.38h1.79Z" transform="translate(-51.4 -32.71)"/><path class="cls-5" d="M854.54,518.15v-7.62a3,3,0,0,0-.65-2.14,2.64,2.64,0,0,0-2-.71,3.38,3.38,0,0,0-2.71,1,5,5,0,0,0-.86,3.29v6.18h-1.78V506.38h1.45l.29,1.61h.08a3.69,3.69,0,0,1,1.54-1.35,5,5,0,0,1,2.2-.48,4.43,4.43,0,0,1,3.2,1,4.35,4.35,0,0,1,1.08,3.28v7.68Z" transform="translate(-51.4 -32.71)"/><path class="cls-5" d="M863.79,516.89a5.53,5.53,0,0,0,.92-.07,5.35,5.35,0,0,0,.7-.14V518a3.06,3.06,0,0,1-.86.23,6.49,6.49,0,0,1-1,.1q-3.42,0-3.42-3.6v-7h-1.69v-.86l1.69-.74.75-2.51h1v2.73h3.42v1.38H861.9v6.93a2.34,2.34,0,0,0,.51,1.63A1.76,1.76,0,0,0,863.79,516.89Z" transform="translate(-51.4 -32.71)"/><path class="cls-5" d="M872.73,518.37a5.42,5.42,0,0,1-4.12-1.59,6.2,6.2,0,0,1-1.51-4.42,6.84,6.84,0,0,1,1.4-4.52,4.66,4.66,0,0,1,3.77-1.68,4.43,4.43,0,0,1,3.5,1.46,5.57,5.57,0,0,1,1.29,3.84v1.13H869a4.62,4.62,0,0,0,1,3.14,3.6,3.6,0,0,0,2.8,1.08,9.52,9.52,0,0,0,3.76-.8v1.59a9.11,9.11,0,0,1-1.79.59A9.9,9.9,0,0,1,872.73,518.37Zm-.48-10.71a2.88,2.88,0,0,0-2.26.92,4.23,4.23,0,0,0-1,2.56h6.16a3.94,3.94,0,0,0-.75-2.59A2.64,2.64,0,0,0,872.25,507.66Z" transform="translate(-51.4 -32.71)"/><path class="cls-5" d="M885.47,506.16a7.52,7.52,0,0,1,1.41.13l-.25,1.66a6,6,0,0,0-1.29-.17,3.15,3.15,0,0,0-2.44,1.16,4.24,4.24,0,0,0-1,2.89v6.32H880.1V506.38h1.47l.21,2.18h.08a5.18,5.18,0,0,1,1.58-1.77A3.53,3.53,0,0,1,885.47,506.16Z" transform="translate(-51.4 -32.71)"/><path class="cls-5" d="M891,515.59l.16.25c-.19.72-.45,1.55-.8,2.5s-.72,1.83-1.1,2.65h-1.34c.19-.75.4-1.67.64-2.76s.39-2,.49-2.64Z" transform="translate(-51.4 -32.71)"/><path class="cls-5" d="M909.32,514a3.88,3.88,0,0,1-1.5,3.24,6.58,6.58,0,0,1-4.09,1.16,10.18,10.18,0,0,1-4.29-.72v-1.77a10.75,10.75,0,0,0,2.1.65,10.9,10.9,0,0,0,2.26.23,4.57,4.57,0,0,0,2.75-.69,2.28,2.28,0,0,0,.92-1.93,2.43,2.43,0,0,0-.33-1.33,3,3,0,0,0-1.09-1,15.38,15.38,0,0,0-2.34-1,7.62,7.62,0,0,1-3.13-1.86,4.1,4.1,0,0,1-.94-2.81,3.52,3.52,0,0,1,1.36-2.89,5.72,5.72,0,0,1,3.61-1.07,10.67,10.67,0,0,1,4.31.86l-.57,1.59a9.77,9.77,0,0,0-3.78-.82,3.65,3.65,0,0,0-2.27.63,2.05,2.05,0,0,0-.81,1.73,2.62,2.62,0,0,0,.3,1.33,2.84,2.84,0,0,0,1,1,12.8,12.8,0,0,0,2.19,1,8.71,8.71,0,0,1,3.4,1.89A3.72,3.72,0,0,1,909.32,514Z" transform="translate(-51.4 -32.71)"/><path class="cls-5" d="M919.5,518.15l-.35-1.68h-.09a4.88,4.88,0,0,1-1.75,1.5,5.42,5.42,0,0,1-2.19.4,3.92,3.92,0,0,1-2.74-.91,3.25,3.25,0,0,1-1-2.56q0-3.57,5.71-3.74l2-.07v-.73a3,3,0,0,0-.59-2,2.46,2.46,0,0,0-1.91-.66,7.79,7.79,0,0,0-3.33.9l-.55-1.37a8.72,8.72,0,0,1,1.91-.74,8.19,8.19,0,0,1,2.08-.27,4.51,4.51,0,0,1,3.12.94,3.88,3.88,0,0,1,1,3v8Zm-4-1.26a3.62,3.62,0,0,0,2.62-.91,3.4,3.4,0,0,0,.95-2.56v-1.06l-1.78.08a6.51,6.51,0,0,0-3.07.66,2,2,0,0,0-.94,1.82,1.85,1.85,0,0,0,.59,1.47A2.39,2.39,0,0,0,915.47,516.89Z" transform="translate(-51.4 -32.71)"/><path class="cls-5" d="M939.5,518.15v-7.66a3.18,3.18,0,0,0-.6-2.11,2.32,2.32,0,0,0-1.87-.7,3,3,0,0,0-2.46.95,4.56,4.56,0,0,0-.79,2.95v6.57H932v-7.66a3.13,3.13,0,0,0-.61-2.11,2.32,2.32,0,0,0-1.88-.7,2.91,2.91,0,0,0-2.45,1,5.43,5.43,0,0,0-.78,3.29v6.18H924.5V506.38H926l.29,1.61h.08a3.56,3.56,0,0,1,1.43-1.34,4.25,4.25,0,0,1,2-.49c1.85,0,3.05.67,3.61,2h.09A3.72,3.72,0,0,1,935,506.7a4.67,4.67,0,0,1,2.27-.54,4,4,0,0,1,3,1,4.55,4.55,0,0,1,1,3.28v7.68Z" transform="translate(-51.4 -32.71)"/><path class="cls-5" d="M950.44,506.18a4.35,4.35,0,0,1,3.6,1.59,8.45,8.45,0,0,1,0,9,4.36,4.36,0,0,1-3.59,1.61,5.12,5.12,0,0,1-2.1-.43,3.92,3.92,0,0,1-1.59-1.3h-.13l-.38,1.51H945V501.44h1.79v4.06c0,.91,0,1.72-.09,2.45h.09A4.22,4.22,0,0,1,950.44,506.18Zm-.26,1.5a3.13,3.13,0,0,0-2.63,1,8.14,8.14,0,0,0,0,7.08,3.13,3.13,0,0,0,2.66,1.07,2.73,2.73,0,0,0,2.44-1.2,6.09,6.09,0,0,0,.81-3.44,5.93,5.93,0,0,0-.81-3.43A2.84,2.84,0,0,0,950.18,507.68Z" transform="translate(-51.4 -32.71)"/><path class="cls-5" d="M965.68,518.15l-.35-1.68h-.09a4.88,4.88,0,0,1-1.75,1.5,5.42,5.42,0,0,1-2.19.4,3.92,3.92,0,0,1-2.74-.91,3.25,3.25,0,0,1-1-2.56q0-3.57,5.71-3.74l2-.07v-.73a3,3,0,0,0-.59-2,2.46,2.46,0,0,0-1.91-.66,7.79,7.79,0,0,0-3.33.9l-.55-1.37a8.72,8.72,0,0,1,1.91-.74,8.19,8.19,0,0,1,2.08-.27,4.51,4.51,0,0,1,3.12.94,3.88,3.88,0,0,1,1,3v8Zm-4-1.26a3.59,3.59,0,0,0,2.61-.91,3.36,3.36,0,0,0,1-2.56v-1.06l-1.78.08a6.51,6.51,0,0,0-3.07.66,2,2,0,0,0-.94,1.82,1.85,1.85,0,0,0,.59,1.47A2.4,2.4,0,0,0,961.66,516.89Z" transform="translate(-51.4 -32.71)"/><path class="cls-5" d="M983.39,503.85a5.14,5.14,0,0,0-4.09,1.73,6.94,6.94,0,0,0-1.5,4.72,7.05,7.05,0,0,0,1.45,4.76,5.12,5.12,0,0,0,4.12,1.68,13.77,13.77,0,0,0,3.74-.59v1.6a11.44,11.44,0,0,1-4,.62,6.84,6.84,0,0,1-5.36-2.11,8.65,8.65,0,0,1-1.88-6,9.54,9.54,0,0,1,.9-4.26,6.56,6.56,0,0,1,2.63-2.81,7.89,7.89,0,0,1,4-1,9.75,9.75,0,0,1,4.32.9l-.78,1.57A8.28,8.28,0,0,0,983.39,503.85Z" transform="translate(-51.4 -32.71)"/><path class="cls-5" d="M1000.43,512.25a6.49,6.49,0,0,1-1.45,4.5,5.08,5.08,0,0,1-4,1.62,5.27,5.27,0,0,1-2.81-.75,5,5,0,0,1-1.89-2.12,7.51,7.51,0,0,1-.66-3.25,6.47,6.47,0,0,1,1.44-4.48,5.09,5.09,0,0,1,4-1.61,5,5,0,0,1,3.93,1.65A6.44,6.44,0,0,1,1000.43,512.25Zm-9,0a5.6,5.6,0,0,0,.91,3.44,3.11,3.11,0,0,0,2.65,1.18,3.17,3.17,0,0,0,2.66-1.17,5.63,5.63,0,0,0,.91-3.45,5.52,5.52,0,0,0-.91-3.41,3.21,3.21,0,0,0-2.68-1.16,3.11,3.11,0,0,0-2.64,1.15A5.48,5.48,0,0,0,991.46,512.25Z" transform="translate(-51.4 -32.71)"/><path class="cls-5" d="M1011.62,518.15v-7.62a3,3,0,0,0-.66-2.14,2.63,2.63,0,0,0-2.05-.71,3.39,3.39,0,0,0-2.71,1,5,5,0,0,0-.86,3.29v6.18h-1.78V506.38H1005l.29,1.61h.09a3.6,3.6,0,0,1,1.53-1.35,5,5,0,0,1,2.21-.48,4.46,4.46,0,0,1,3.2,1,4.39,4.39,0,0,1,1.07,3.28v7.68Z" transform="translate(-51.4 -32.71)"/><path class="cls-5" d="M1022.37,507.76h-3v10.39h-1.78V507.76h-2.11V507l2.11-.65v-.65c0-2.9,1.26-4.34,3.79-4.34a7.76,7.76,0,0,1,2.19.37l-.46,1.43a5.93,5.93,0,0,0-1.76-.33,1.7,1.7,0,0,0-1.49.67,3.69,3.69,0,0,0-.49,2.15v.77h3Zm2-4.57a1.19,1.19,0,0,1,.3-.9,1,1,0,0,1,.75-.28,1,1,0,0,1,.74.29,1.43,1.43,0,0,1,0,1.78,1.08,1.08,0,0,1-1.49,0A1.18,1.18,0,0,1,1024.37,503.19Zm1.93,15h-1.78V506.38h1.78Z" transform="translate(-51.4 -32.71)"/><path class="cls-5" d="M1039.72,506.38v1.13l-2.18.25a3.79,3.79,0,0,1,.54,1,3.9,3.9,0,0,1,.23,1.37,3.48,3.48,0,0,1-1.18,2.76,4.81,4.81,0,0,1-3.24,1,5.21,5.21,0,0,1-1-.09,1.76,1.76,0,0,0-1.14,1.52.75.75,0,0,0,.4.71,2.94,2.94,0,0,0,1.36.23h2.08a4.64,4.64,0,0,1,2.94.81,2.77,2.77,0,0,1,1,2.34,3.33,3.33,0,0,1-1.57,3,8.44,8.44,0,0,1-4.58,1,6.28,6.28,0,0,1-3.56-.86,2.8,2.8,0,0,1-1.25-2.43,2.71,2.71,0,0,1,.69-1.86,3.47,3.47,0,0,1,1.93-1.06,1.84,1.84,0,0,1-.75-.64,1.63,1.63,0,0,1-.31-1,1.86,1.86,0,0,1,.34-1.12,3.48,3.48,0,0,1,1.09-.94,3.17,3.17,0,0,1-1.49-1.28,4.24,4.24,0,0,1,.59-5,4.7,4.7,0,0,1,3.28-1,5.77,5.77,0,0,1,1.67.22Zm-9.39,13.75a1.6,1.6,0,0,0,.81,1.45,4.41,4.41,0,0,0,2.31.49,6.42,6.42,0,0,0,3.32-.67,2.05,2.05,0,0,0,1.08-1.82,1.46,1.46,0,0,0-.59-1.33,4.67,4.67,0,0,0-2.22-.37h-2.14a2.85,2.85,0,0,0-1.89.58A2.08,2.08,0,0,0,1030.33,520.13Zm1-10a2.4,2.4,0,0,0,.7,1.87,2.78,2.78,0,0,0,1.94.63c1.74,0,2.61-.84,2.61-2.53a2.34,2.34,0,0,0-2.64-2.66,2.63,2.63,0,0,0-1.94.68A2.73,2.73,0,0,0,1031.3,510.15Z" transform="translate(-51.4 -32.71)"/><path class="cls-5" d="M1044,515.59l.17.25c-.19.72-.46,1.55-.81,2.5s-.72,1.83-1.1,2.65h-1.34c.2-.75.41-1.67.64-2.76s.4-2,.49-2.64Z" transform="translate(-51.4 -32.71)"/><path class="cls-5" d="M764.76,530.25a5.15,5.15,0,0,0-4.09,1.73,7,7,0,0,0-1.49,4.72,7.11,7.11,0,0,0,1.44,4.76,5.14,5.14,0,0,0,4.12,1.68,13.78,13.78,0,0,0,3.75-.59v1.6a11.49,11.49,0,0,1-4,.62,6.81,6.81,0,0,1-5.35-2.11,8.65,8.65,0,0,1-1.89-6,9.41,9.41,0,0,1,.91-4.26,6.53,6.53,0,0,1,2.62-2.81,7.92,7.92,0,0,1,4-1,9.75,9.75,0,0,1,4.32.9l-.77,1.57A8.32,8.32,0,0,0,764.76,530.25Z" transform="translate(-51.4 -32.71)"/><path class="cls-5" d="M769.78,532.78h1.91l2.58,6.71a25.25,25.25,0,0,1,1.05,3.32h.09c.09-.36.29-1,.58-1.87s1.27-3.61,2.92-8.16h1.91l-5.06,13.4A6.7,6.7,0,0,1,774,549a3.73,3.73,0,0,1-2.47.84,7.3,7.3,0,0,1-1.61-.19v-1.43a5.9,5.9,0,0,0,1.32.13,2.72,2.72,0,0,0,2.62-2.06l.66-1.68Z" transform="translate(-51.4 -32.71)"/><path class="cls-5" d="M788.1,532.56a7.36,7.36,0,0,1,1.41.13l-.25,1.66a5.87,5.87,0,0,0-1.28-.17,3.15,3.15,0,0,0-2.45,1.16,4.28,4.28,0,0,0-1,2.89v6.32h-1.79V532.78h1.48l.2,2.18h.09a5.05,5.05,0,0,1,1.57-1.77A3.55,3.55,0,0,1,788.1,532.56Z" transform="translate(-51.4 -32.71)"/><path class="cls-5" d="M793.39,532.78v7.63a3.11,3.11,0,0,0,.65,2.15,2.67,2.67,0,0,0,2.06.71,3.33,3.33,0,0,0,2.7-1,5.08,5.08,0,0,0,.85-3.3v-6.18h1.79v11.77H800l-.25-1.58h-.1a3.52,3.52,0,0,1-1.52,1.33,5.1,5.1,0,0,1-2.22.47,4.48,4.48,0,0,1-3.22-1,4.33,4.33,0,0,1-1.07-3.26v-7.7Z" transform="translate(-51.4 -32.71)"/><path class="cls-5" d="M812.81,541.34a3,3,0,0,1-1.22,2.53,5.72,5.72,0,0,1-3.44.9,7.38,7.38,0,0,1-3.65-.75v-1.65a8.77,8.77,0,0,0,1.82.68,7.8,7.8,0,0,0,1.87.24,4.23,4.23,0,0,0,2.15-.44,1.48,1.48,0,0,0,.75-1.36,1.5,1.5,0,0,0-.59-1.18,9.64,9.64,0,0,0-2.33-1.15,13.58,13.58,0,0,1-2.34-1.07,3.28,3.28,0,0,1-1-1,2.74,2.74,0,0,1-.34-1.38,2.67,2.67,0,0,1,1.18-2.28,5.49,5.49,0,0,1,3.21-.83,9.29,9.29,0,0,1,3.71.78l-.63,1.45a8.46,8.46,0,0,0-3.21-.73,3.73,3.73,0,0,0-1.91.39,1.24,1.24,0,0,0-.65,1.1,1.33,1.33,0,0,0,.24.8,2.37,2.37,0,0,0,.78.64,17.78,17.78,0,0,0,2.07.87,8,8,0,0,1,2.83,1.53A2.73,2.73,0,0,1,812.81,541.34Z" transform="translate(-51.4 -32.71)"/><path class="cls-5" d="M817.58,542l.16.25a24.88,24.88,0,0,1-.8,2.5c-.35,1-.72,1.83-1.1,2.65H814.5c.19-.75.4-1.67.64-2.76s.39-2,.49-2.64Z" transform="translate(-51.4 -32.71)"/><path class="cls-5" d="M826.56,543.41a1.6,1.6,0,0,1,.33-1.09,1.18,1.18,0,0,1,.94-.37,1.26,1.26,0,0,1,1,.37,1.86,1.86,0,0,1,0,2.17,1.27,1.27,0,0,1-1,.37,1.25,1.25,0,0,1-.91-.34A1.45,1.45,0,0,1,826.56,543.41Z" transform="translate(-51.4 -32.71)"/><path class="cls-5" d="M832.42,543.41a1.65,1.65,0,0,1,.32-1.09,1.19,1.19,0,0,1,.94-.37,1.28,1.28,0,0,1,1,.37,1.55,1.55,0,0,1,.34,1.09,1.5,1.5,0,0,1-.35,1.08,1.27,1.27,0,0,1-1,.37,1.25,1.25,0,0,1-.9-.34A1.45,1.45,0,0,1,832.42,543.41Z" transform="translate(-51.4 -32.71)"/><path class="cls-5" d="M838.27,543.41a1.6,1.6,0,0,1,.33-1.09,1.18,1.18,0,0,1,.94-.37,1.26,1.26,0,0,1,1,.37,1.55,1.55,0,0,1,.35,1.09,1.5,1.5,0,0,1-.36,1.08,1.24,1.24,0,0,1-1,.37,1.25,1.25,0,0,1-.91-.34A1.45,1.45,0,0,1,838.27,543.41Z" transform="translate(-51.4 -32.71)"/><path class="cls-2" d="M750.12,317.75q0,5.24-2.62,8.13c-1.74,1.94-4.21,2.9-7.4,2.9s-5.72-1-7.45-2.87-2.6-4.65-2.6-8.19.87-6.25,2.62-8.14,4.23-2.84,7.46-2.84a9.45,9.45,0,0,1,7.38,2.88Q750.12,312.52,750.12,317.75Zm-16.35,0q0,4,1.6,6a6.48,6.48,0,0,0,9.44,0q1.59-2,1.59-6a9.62,9.62,0,0,0-1.58-6,5.55,5.55,0,0,0-4.69-2,5.67,5.67,0,0,0-4.75,2A9.48,9.48,0,0,0,733.77,317.75Z" transform="translate(-51.4 -32.71)"/><path class="cls-2" d="M762.57,328.78a5.68,5.68,0,0,1-4.78-2.21h-.2c.14,1.37.2,2.2.2,2.49v6.64h-3.44V312.29h2.79c.07.3.24,1,.48,2.17h.17a5.41,5.41,0,0,1,4.84-2.46,5.61,5.61,0,0,1,4.72,2.19,12.07,12.07,0,0,1,0,12.37A5.67,5.67,0,0,1,762.57,328.78Zm-.83-14a3.59,3.59,0,0,0-3,1.2,6.22,6.22,0,0,0-1,3.84v.51a7.66,7.66,0,0,0,.94,4.29,3.5,3.5,0,0,0,3.06,1.32,3.12,3.12,0,0,0,2.76-1.46,7.63,7.63,0,0,0,1-4.18,7.3,7.3,0,0,0-1-4.12A3.21,3.21,0,0,0,761.74,314.81Z" transform="translate(-51.4 -32.71)"/><path class="cls-2" d="M780.12,328.78a7.83,7.83,0,0,1-5.91-2.2,8.37,8.37,0,0,1-2.13-6.07,9.21,9.21,0,0,1,2-6.24,6.82,6.82,0,0,1,5.44-2.27,6.67,6.67,0,0,1,5.07,1.95,7.42,7.42,0,0,1,1.86,5.36v1.86h-10.8a5.31,5.31,0,0,0,1.28,3.62,4.42,4.42,0,0,0,3.38,1.27,12.45,12.45,0,0,0,2.67-.27,13.69,13.69,0,0,0,2.66-.9v2.8a10.3,10.3,0,0,1-2.55.84A15.28,15.28,0,0,1,780.12,328.78Zm-.63-14.18a3.48,3.48,0,0,0-2.63,1,5,5,0,0,0-1.18,3H783a4.51,4.51,0,0,0-1-3A3.32,3.32,0,0,0,779.49,314.6Z" transform="translate(-51.4 -32.71)"/><path class="cls-2" d="M804.58,328.49h-3.45v-10a4.39,4.39,0,0,0-.76-2.8,2.92,2.92,0,0,0-2.39-.92,3.82,3.82,0,0,0-3.2,1.29,7.14,7.14,0,0,0-1,4.32v8.07h-3.44v-16.2H793l.49,2.12h.17a4.85,4.85,0,0,1,2.08-1.78,7,7,0,0,1,3-.63c3.89,0,5.83,2,5.83,5.93Z" transform="translate(-51.4 -32.71)"/><path class="cls-2" d="M809.74,328.49V307.07h3.5v18.42h9.07v3Z" transform="translate(-51.4 -32.71)"/><path class="cls-2" d="M843.42,317.58c0,3.53-1,6.24-2.95,8.11s-4.79,2.8-8.48,2.8h-6V307.07h6.62q5.11,0,8,2.76C842.47,311.66,843.42,314.25,843.42,317.58Zm-3.7.12q0-7.69-7.19-7.7h-3v15.55H832Q839.73,325.55,839.72,317.7Z" transform="translate(-51.4 -32.71)"/><path class="cls-2" d="M861.3,328.49l-2.14-5.95H851l-2.09,5.95h-3.69l8-21.5H857l8,21.5Zm-3.06-9-2-5.83c-.14-.39-.35-1-.6-1.85s-.44-1.45-.54-1.85a31.71,31.71,0,0,1-1.16,3.95L852,319.53Z" transform="translate(-51.4 -32.71)"/><path class="cls-2" d="M882,313.55a6.22,6.22,0,0,1-2.2,5.14,9.67,9.67,0,0,1-6.25,1.79h-2.23v8h-3.5V307.07H874c2.67,0,4.68.55,6,1.65A5.88,5.88,0,0,1,882,313.55Zm-10.68,4h1.86a6.72,6.72,0,0,0,4-.93,3.45,3.45,0,0,0,1.25-2.93,3.35,3.35,0,0,0-1.12-2.76,5.64,5.64,0,0,0-3.52-.91h-2.43Z" transform="translate(-51.4 -32.71)"/><path class="cls-2" d="M741.9,360.61v10.16a5.53,5.53,0,0,1-1.62,4.22,6.26,6.26,0,0,1-4.46,1.54,6,6,0,0,1-4.39-1.55,5.71,5.71,0,0,1-1.55-4.25V360.61h1.82v10.24a4,4,0,0,0,1.08,3,4.3,4.3,0,0,0,3.16,1.06,4.21,4.21,0,0,0,3.06-1.06,4.11,4.11,0,0,0,1.07-3V360.61Z" transform="translate(-51.4 -32.71)"/><path class="cls-2" d="M753.38,373.1a2.94,2.94,0,0,1-1.22,2.53,5.74,5.74,0,0,1-3.44.9,7.51,7.51,0,0,1-3.65-.74v-1.66a8.77,8.77,0,0,0,1.82.68,7.8,7.8,0,0,0,1.87.24,4.23,4.23,0,0,0,2.15-.44,1.48,1.48,0,0,0,.75-1.36,1.5,1.5,0,0,0-.59-1.18,9.64,9.64,0,0,0-2.33-1.15,13.22,13.22,0,0,1-2.34-1.07,3.18,3.18,0,0,1-1-1,2.71,2.71,0,0,1-.34-1.38,2.62,2.62,0,0,1,1.18-2.27,5.41,5.41,0,0,1,3.21-.84,9.32,9.32,0,0,1,3.71.78l-.63,1.45a8.46,8.46,0,0,0-3.21-.73,3.73,3.73,0,0,0-1.91.39,1.24,1.24,0,0,0-.65,1.1,1.36,1.36,0,0,0,.24.81,2.37,2.37,0,0,0,.78.63,18.2,18.2,0,0,0,2.06.87,7.62,7.62,0,0,1,2.83,1.54A2.7,2.7,0,0,1,753.38,373.1Z" transform="translate(-51.4 -32.71)"/><path class="cls-2" d="M761.25,376.53a5.42,5.42,0,0,1-4.12-1.59,6.18,6.18,0,0,1-1.5-4.42A6.79,6.79,0,0,1,757,366a4.64,4.64,0,0,1,3.76-1.68,4.42,4.42,0,0,1,3.5,1.46,5.57,5.57,0,0,1,1.29,3.84v1.13h-8.11a4.67,4.67,0,0,0,1,3.14,3.62,3.62,0,0,0,2.8,1.08,9.49,9.49,0,0,0,3.76-.8v1.59a9.11,9.11,0,0,1-1.79.59A9.9,9.9,0,0,1,761.25,376.53Zm-.48-10.71a2.9,2.9,0,0,0-2.26.92,4.29,4.29,0,0,0-1,2.56h6.15a3.94,3.94,0,0,0-.75-2.59A2.67,2.67,0,0,0,760.77,365.82Z" transform="translate(-51.4 -32.71)"/><path class="cls-2" d="M774,364.32a7.33,7.33,0,0,1,1.4.13l-.24,1.66a6,6,0,0,0-1.29-.16,3.12,3.12,0,0,0-2.45,1.16,4.24,4.24,0,0,0-1,2.89v6.31h-1.79V364.54h1.48l.2,2.18h.09A5.05,5.05,0,0,1,772,365,3.56,3.56,0,0,1,774,364.32Z" transform="translate(-51.4 -32.71)"/><path class="cls-2" d="M785.2,373.1a2.92,2.92,0,0,1-1.23,2.53,5.69,5.69,0,0,1-3.43.9,7.58,7.58,0,0,1-3.66-.74v-1.66a9.08,9.08,0,0,0,1.83.68,7.74,7.74,0,0,0,1.87.24,4.23,4.23,0,0,0,2.15-.44,1.54,1.54,0,0,0,.15-2.54,9.32,9.32,0,0,0-2.32-1.15,12.87,12.87,0,0,1-2.34-1.07,3.18,3.18,0,0,1-1-1,2.85,2.85,0,0,1,.83-3.65,5.43,5.43,0,0,1,3.22-.84,9.32,9.32,0,0,1,3.71.78l-.63,1.45a8.46,8.46,0,0,0-3.21-.73,3.78,3.78,0,0,0-1.92.39,1.23,1.23,0,0,0-.64,1.1,1.36,1.36,0,0,0,.24.81,2.37,2.37,0,0,0,.78.63,18.2,18.2,0,0,0,2.06.87,7.62,7.62,0,0,1,2.83,1.54A2.7,2.7,0,0,1,785.2,373.1Z" transform="translate(-51.4 -32.71)"/><path class="cls-2" d="M790,373.76l.16.24c-.19.72-.46,1.55-.81,2.5s-.71,1.83-1.09,2.65h-1.34q.29-1.12.63-2.76c.24-1.1.4-2,.49-2.63Z" transform="translate(-51.4 -32.71)"/><path class="cls-2" d="M807.22,374.73h-.1a4.17,4.17,0,0,1-3.69,1.8,4.4,4.4,0,0,1-3.6-1.58,7,7,0,0,1-1.28-4.49,7.1,7.1,0,0,1,1.29-4.53,4.36,4.36,0,0,1,3.59-1.61,4.27,4.27,0,0,1,3.67,1.74h.14l-.07-.84,0-.83V359.6h1.79v16.71h-1.45Zm-3.57.3a3.26,3.26,0,0,0,2.65-1,5,5,0,0,0,.82-3.21v-.37a5.86,5.86,0,0,0-.83-3.57,3.13,3.13,0,0,0-2.66-1.07,2.72,2.72,0,0,0-2.4,1.22,6.09,6.09,0,0,0-.83,3.44,5.72,5.72,0,0,0,.83,3.4A2.79,2.79,0,0,0,803.65,375Z" transform="translate(-51.4 -32.71)"/><path class="cls-2" d="M817.66,376.53a5.42,5.42,0,0,1-4.12-1.59,6.18,6.18,0,0,1-1.51-4.42,6.84,6.84,0,0,1,1.4-4.52,4.66,4.66,0,0,1,3.77-1.68,4.45,4.45,0,0,1,3.5,1.46,5.57,5.57,0,0,1,1.29,3.84v1.13h-8.11a4.67,4.67,0,0,0,1,3.14,3.6,3.6,0,0,0,2.8,1.08,9.52,9.52,0,0,0,3.76-.8v1.59a9.11,9.11,0,0,1-1.79.59A10,10,0,0,1,817.66,376.53Zm-.48-10.71a2.88,2.88,0,0,0-2.26.92,4.23,4.23,0,0,0-1,2.56h6.16a3.94,3.94,0,0,0-.75-2.59A2.67,2.67,0,0,0,817.18,365.82Z" transform="translate(-51.4 -32.71)"/><path class="cls-2" d="M826.79,370.29a21.21,21.21,0,0,1,1.41-1.72l3.8-4h2.12l-4.77,5,5.1,6.76h-2.16l-4.15-5.56-1.35,1.16v4.4H825V359.6h1.76v8.86c0,.39,0,1-.08,1.83Z" transform="translate(-51.4 -32.71)"/><path class="cls-2" d="M840.38,375.05a6.62,6.62,0,0,0,.91-.06,6.17,6.17,0,0,0,.7-.15v1.36a3.29,3.29,0,0,1-.85.24,6.61,6.61,0,0,1-1,.09q-3.4,0-3.41-3.6v-7H835v-.86l1.69-.74.75-2.51h1v2.73h3.42v1.38h-3.42v6.93a2.39,2.39,0,0,0,.51,1.64A1.72,1.72,0,0,0,840.38,375.05Z" transform="translate(-51.4 -32.71)"/><path class="cls-2" d="M854.51,370.41a6.54,6.54,0,0,1-1.45,4.5,5.12,5.12,0,0,1-4,1.62,5.32,5.32,0,0,1-2.8-.74,4.91,4.91,0,0,1-1.89-2.13,7.37,7.37,0,0,1-.67-3.25,6.48,6.48,0,0,1,1.44-4.48,5.1,5.1,0,0,1,4-1.61,5,5,0,0,1,3.92,1.65A6.46,6.46,0,0,1,854.51,370.41Zm-9,0a5.6,5.6,0,0,0,.9,3.44,3.59,3.59,0,0,0,5.31,0,5.54,5.54,0,0,0,.91-3.45,5.46,5.46,0,0,0-.91-3.41,3.2,3.2,0,0,0-2.68-1.16,3.11,3.11,0,0,0-2.64,1.15A5.48,5.48,0,0,0,845.54,370.41Z" transform="translate(-51.4 -32.71)"/><path class="cls-2" d="M863.11,376.53a5.19,5.19,0,0,1-2.1-.43,4,4,0,0,1-1.59-1.3h-.13a16.94,16.94,0,0,1,.13,1.95v4.85h-1.79V364.54h1.45l.25,1.61h.09a4.22,4.22,0,0,1,1.6-1.4,4.94,4.94,0,0,1,2.09-.43,4.38,4.38,0,0,1,3.62,1.6,8.55,8.55,0,0,1,0,9A4.39,4.39,0,0,1,863.11,376.53Zm-.26-10.69a3.16,3.16,0,0,0-2.61,1,5.14,5.14,0,0,0-.82,3.18v.39a5.89,5.89,0,0,0,.82,3.55A3.13,3.13,0,0,0,862.9,375a2.77,2.77,0,0,0,2.39-1.23,5.93,5.93,0,0,0,.86-3.41,5.7,5.7,0,0,0-.86-3.38A2.86,2.86,0,0,0,862.85,365.84Z" transform="translate(-51.4 -32.71)"/><path class="cls-2" d="M878.71,373.1a2.94,2.94,0,0,1-1.22,2.53,5.74,5.74,0,0,1-3.44.9,7.51,7.51,0,0,1-3.65-.74v-1.66a8.77,8.77,0,0,0,1.82.68,7.74,7.74,0,0,0,1.87.24,4.23,4.23,0,0,0,2.15-.44,1.54,1.54,0,0,0,.15-2.54,9.32,9.32,0,0,0-2.32-1.15,12.87,12.87,0,0,1-2.34-1.07,3.18,3.18,0,0,1-1-1,2.71,2.71,0,0,1-.34-1.38,2.63,2.63,0,0,1,1.17-2.27,5.43,5.43,0,0,1,3.22-.84,9.32,9.32,0,0,1,3.71.78l-.63,1.45a8.46,8.46,0,0,0-3.21-.73,3.71,3.71,0,0,0-1.91.39,1.24,1.24,0,0,0-.65,1.1,1.36,1.36,0,0,0,.24.81,2.37,2.37,0,0,0,.78.63,18.2,18.2,0,0,0,2.06.87,7.62,7.62,0,0,1,2.83,1.54A2.7,2.7,0,0,1,878.71,373.1Z" transform="translate(-51.4 -32.71)"/><path class="cls-2" d="M883.48,373.76l.16.24a25.21,25.21,0,0,1-.81,2.5c-.35.95-.71,1.83-1.09,2.65H880.4c.19-.75.4-1.67.64-2.76s.39-2,.48-2.63Z" transform="translate(-51.4 -32.71)"/><path class="cls-2" d="M737.36,399.5a2.92,2.92,0,0,1-1.22,2.53,5.72,5.72,0,0,1-3.44.9,7.51,7.51,0,0,1-3.65-.74v-1.66a9,9,0,0,0,1.82.68,7.82,7.82,0,0,0,1.88.24,4.19,4.19,0,0,0,2.14-.44,1.53,1.53,0,0,0,.16-2.54,9.44,9.44,0,0,0-2.33-1.15,13,13,0,0,1-2.33-1.07,3,3,0,0,1-1-1,2.85,2.85,0,0,1,.83-3.65,5.41,5.41,0,0,1,3.21-.84,9.34,9.34,0,0,1,3.72.78l-.64,1.45a8.46,8.46,0,0,0-3.21-.73,3.76,3.76,0,0,0-1.91.39,1.24,1.24,0,0,0-.65,1.1,1.3,1.3,0,0,0,.25.81,2.37,2.37,0,0,0,.78.63,16.66,16.66,0,0,0,2.06.87,7.71,7.71,0,0,1,2.83,1.54A2.69,2.69,0,0,1,737.36,399.5Z" transform="translate(-51.4 -32.71)"/><path class="cls-2" d="M748.32,402.71V395.1a3.11,3.11,0,0,0-.65-2.15,2.67,2.67,0,0,0-2.06-.71,3.35,3.35,0,0,0-2.71,1,5.1,5.1,0,0,0-.85,3.31v6.15h-1.79V386h1.79v5.06a10.44,10.44,0,0,1-.09,1.51h.11a3.7,3.7,0,0,1,1.5-1.34,5,5,0,0,1,2.22-.49,4.54,4.54,0,0,1,3.23,1A4.31,4.31,0,0,1,750.1,395v7.68Z" transform="translate(-51.4 -32.71)"/><path class="cls-2" d="M761,402.71l-.36-1.67h-.08a5,5,0,0,1-1.76,1.49,5.18,5.18,0,0,1-2.18.4,3.9,3.9,0,0,1-2.75-.91,3.28,3.28,0,0,1-1-2.56q0-3.57,5.7-3.74l2-.07v-.73a3,3,0,0,0-.6-2,2.45,2.45,0,0,0-1.9-.66,7.72,7.72,0,0,0-3.33.9l-.55-1.37a8.63,8.63,0,0,1,1.9-.74,8.31,8.31,0,0,1,2.08-.27,4.48,4.48,0,0,1,3.12.94,3.89,3.89,0,0,1,1,3v8Zm-4-1.26a3.59,3.59,0,0,0,2.61-.91,3.35,3.35,0,0,0,1-2.55v-1.07l-1.79.08a6.43,6.43,0,0,0-3.06.66,2,2,0,0,0-.94,1.82,1.84,1.84,0,0,0,.58,1.47A2.42,2.42,0,0,0,757,401.45Z" transform="translate(-51.4 -32.71)"/><path class="cls-2" d="M771.37,390.72a7.36,7.36,0,0,1,1.41.13l-.25,1.66a5.8,5.8,0,0,0-1.28-.16,3.12,3.12,0,0,0-2.45,1.16,4.19,4.19,0,0,0-1,2.89v6.31H766V390.94h1.47l.21,2.18h.08a5.18,5.18,0,0,1,1.58-1.77A3.55,3.55,0,0,1,771.37,390.72Z" transform="translate(-51.4 -32.71)"/><path class="cls-2" d="M780,402.93a5.4,5.4,0,0,1-4.12-1.59,6.14,6.14,0,0,1-1.51-4.42,6.79,6.79,0,0,1,1.4-4.52,4.65,4.65,0,0,1,3.77-1.68,4.45,4.45,0,0,1,3.5,1.46,5.57,5.57,0,0,1,1.29,3.84v1.13h-8.11a4.62,4.62,0,0,0,1,3.14,3.62,3.62,0,0,0,2.8,1.08,9.49,9.49,0,0,0,3.76-.8v1.59a9.11,9.11,0,0,1-1.79.59A9.86,9.86,0,0,1,780,402.93Zm-.49-10.71a2.9,2.9,0,0,0-2.26.92,4.29,4.29,0,0,0-1,2.56h6.15a3.94,3.94,0,0,0-.75-2.59A2.67,2.67,0,0,0,779.47,392.22Z" transform="translate(-51.4 -32.71)"/><path class="cls-2" d="M794.92,399.5A2.94,2.94,0,0,1,793.7,402a5.74,5.74,0,0,1-3.44.9,7.51,7.51,0,0,1-3.65-.74v-1.66a8.77,8.77,0,0,0,1.82.68,7.8,7.8,0,0,0,1.87.24,4.23,4.23,0,0,0,2.15-.44,1.48,1.48,0,0,0,.75-1.36,1.5,1.5,0,0,0-.59-1.18,9.64,9.64,0,0,0-2.33-1.15,13.22,13.22,0,0,1-2.34-1.07,3.18,3.18,0,0,1-1-1,2.74,2.74,0,0,1-.34-1.38,2.62,2.62,0,0,1,1.18-2.27,5.41,5.41,0,0,1,3.21-.84,9.32,9.32,0,0,1,3.71.78L794,393a8.46,8.46,0,0,0-3.21-.73,3.73,3.73,0,0,0-1.91.39,1.24,1.24,0,0,0-.65,1.1,1.36,1.36,0,0,0,.24.81,2.37,2.37,0,0,0,.78.63,18.2,18.2,0,0,0,2.06.87,7.62,7.62,0,0,1,2.83,1.54A2.7,2.7,0,0,1,794.92,399.5Z" transform="translate(-51.4 -32.71)"/><path class="cls-2" d="M799.69,400.15l.16.25a24.88,24.88,0,0,1-.8,2.5c-.36,1-.72,1.83-1.1,2.65h-1.34c.19-.75.4-1.67.64-2.76s.39-2,.49-2.64Z" transform="translate(-51.4 -32.71)"/><path class="cls-2" d="M814.41,402.93a5.12,5.12,0,0,1-2.1-.43,4,4,0,0,1-1.6-1.3h-.13a15,15,0,0,1,.13,1.95V408h-1.78V390.94h1.45l.25,1.61h.08a4.14,4.14,0,0,1,1.6-1.4,5,5,0,0,1,2.1-.43,4.36,4.36,0,0,1,3.61,1.6,8.55,8.55,0,0,1,0,9A4.36,4.36,0,0,1,814.41,402.93Zm-.26-10.69a3.16,3.16,0,0,0-2.61,1,5.13,5.13,0,0,0-.83,3.18v.39a5.88,5.88,0,0,0,.83,3.55,3.11,3.11,0,0,0,2.65,1.07,2.75,2.75,0,0,0,2.39-1.23,5.85,5.85,0,0,0,.87-3.41,5.63,5.63,0,0,0-.87-3.38A2.84,2.84,0,0,0,814.15,392.24Z" transform="translate(-51.4 -32.71)"/><path class="cls-2" d="M827.78,390.72a7.52,7.52,0,0,1,1.41.13l-.25,1.66a6,6,0,0,0-1.29-.16,3.1,3.1,0,0,0-2.44,1.16,4.2,4.2,0,0,0-1,2.89v6.31h-1.78V390.94h1.47l.21,2.18h.08a5.08,5.08,0,0,1,1.58-1.77A3.53,3.53,0,0,1,827.78,390.72Z" transform="translate(-51.4 -32.71)"/><path class="cls-2" d="M831.24,387.75a1.19,1.19,0,0,1,.3-.9,1,1,0,0,1,.75-.28,1,1,0,0,1,.74.29,1.4,1.4,0,0,1,0,1.78,1.08,1.08,0,0,1-1.49,0A1.18,1.18,0,0,1,831.24,387.75Zm1.93,15h-1.78V390.94h1.78Z" transform="translate(-51.4 -32.71)"/><path class="cls-2" d="M845,402.71V395.1a3.11,3.11,0,0,0-.65-2.15,2.65,2.65,0,0,0-2.06-.71,3.35,3.35,0,0,0-2.7,1,5,5,0,0,0-.86,3.29v6.18H837V390.94h1.45l.29,1.61h.08a3.69,3.69,0,0,1,1.54-1.35,5,5,0,0,1,2.2-.48,4.49,4.49,0,0,1,3.2,1,4.35,4.35,0,0,1,1.07,3.28v7.68Z" transform="translate(-51.4 -32.71)"/><path class="cls-2" d="M854.26,401.45a5.33,5.33,0,0,0,.91-.07,4.74,4.74,0,0,0,.7-.14v1.36a3.29,3.29,0,0,1-.85.24,6.61,6.61,0,0,1-1,.09q-3.4,0-3.41-3.6v-7H848.9v-.86l1.69-.74.75-2.51h1v2.73h3.42v1.38h-3.42v6.93a2.39,2.39,0,0,0,.51,1.64A1.72,1.72,0,0,0,854.26,401.45Z" transform="translate(-51.4 -32.71)"/><path class="cls-2" d="M863.2,402.93a5.4,5.4,0,0,1-4.12-1.59,6.14,6.14,0,0,1-1.51-4.42,6.84,6.84,0,0,1,1.4-4.52,4.66,4.66,0,0,1,3.77-1.68,4.45,4.45,0,0,1,3.5,1.46,5.57,5.57,0,0,1,1.29,3.84v1.13h-8.11a4.62,4.62,0,0,0,1,3.14,3.63,3.63,0,0,0,2.8,1.08,9.49,9.49,0,0,0,3.76-.8v1.59a8.9,8.9,0,0,1-1.79.59A9.86,9.86,0,0,1,863.2,402.93Zm-.49-10.71a2.91,2.91,0,0,0-2.26.92,4.29,4.29,0,0,0-1,2.56h6.16a3.94,3.94,0,0,0-.76-2.59A2.66,2.66,0,0,0,862.71,392.22Z" transform="translate(-51.4 -32.71)"/><path class="cls-2" d="M875.94,390.72a7.52,7.52,0,0,1,1.41.13l-.25,1.66a6,6,0,0,0-1.29-.16,3.1,3.1,0,0,0-2.44,1.16,4.2,4.2,0,0,0-1,2.89v6.31h-1.78V390.94H872l.2,2.18h.09a5.08,5.08,0,0,1,1.58-1.77A3.51,3.51,0,0,1,875.94,390.72Z" transform="translate(-51.4 -32.71)"/><path class="cls-2" d="M887.14,399.5a2.94,2.94,0,0,1-1.22,2.53,5.72,5.72,0,0,1-3.44.9,7.51,7.51,0,0,1-3.65-.74v-1.66a8.77,8.77,0,0,0,1.82.68,7.8,7.8,0,0,0,1.87.24,4.23,4.23,0,0,0,2.15-.44,1.48,1.48,0,0,0,.75-1.36,1.5,1.5,0,0,0-.59-1.18,9.64,9.64,0,0,0-2.33-1.15,13,13,0,0,1-2.33-1.07,3.13,3.13,0,0,1-1-1,2.74,2.74,0,0,1-.33-1.38,2.63,2.63,0,0,1,1.17-2.27,5.41,5.41,0,0,1,3.21-.84,9.37,9.37,0,0,1,3.72.78l-.64,1.45a8.46,8.46,0,0,0-3.21-.73,3.73,3.73,0,0,0-1.91.39,1.24,1.24,0,0,0-.65,1.1,1.36,1.36,0,0,0,.24.81,2.61,2.61,0,0,0,.78.63,17.78,17.78,0,0,0,2.07.87,7.71,7.71,0,0,1,2.83,1.54A2.69,2.69,0,0,1,887.14,399.5Z" transform="translate(-51.4 -32.71)"/><path class="cls-2" d="M891.91,400.15l.16.25a24.88,24.88,0,0,1-.8,2.5c-.35,1-.72,1.83-1.1,2.65h-1.34c.19-.75.41-1.67.64-2.76s.39-2,.49-2.64Z" transform="translate(-51.4 -32.71)"/><path class="cls-2" d="M900.89,401.57a1.6,1.6,0,0,1,.33-1.09,1.21,1.21,0,0,1,.94-.37,1.28,1.28,0,0,1,1,.37,1.86,1.86,0,0,1,0,2.17,1.27,1.27,0,0,1-1,.37,1.25,1.25,0,0,1-.91-.34A1.45,1.45,0,0,1,900.89,401.57Z" transform="translate(-51.4 -32.71)"/><path class="cls-2" d="M906.75,401.57a1.65,1.65,0,0,1,.32-1.09,1.23,1.23,0,0,1,.94-.37,1.32,1.32,0,0,1,1,.37,1.55,1.55,0,0,1,.35,1.09,1.5,1.5,0,0,1-.36,1.08,1.26,1.26,0,0,1-1,.37,1.25,1.25,0,0,1-.9-.34A1.45,1.45,0,0,1,906.75,401.57Z" transform="translate(-51.4 -32.71)"/><path class="cls-2" d="M912.6,401.57a1.6,1.6,0,0,1,.33-1.09,1.21,1.21,0,0,1,.94-.37,1.3,1.3,0,0,1,1,.37,1.86,1.86,0,0,1,0,2.17,1.27,1.27,0,0,1-1,.37,1.25,1.25,0,0,1-.91-.34A1.45,1.45,0,0,1,912.6,401.57Z" transform="translate(-51.4 -32.71)"/><path class="cls-2" d="M121.12,269.33q0,5.24-2.62,8.13c-1.74,1.94-4.21,2.9-7.4,2.9s-5.72-1-7.45-2.88-2.6-4.64-2.6-8.18.87-6.25,2.62-8.14,4.23-2.84,7.46-2.84a9.45,9.45,0,0,1,7.38,2.88Q121.12,264.1,121.12,269.33Zm-16.35,0q0,4,1.6,6a6.5,6.5,0,0,0,9.44,0q1.59-2,1.59-6a9.62,9.62,0,0,0-1.58-6,5.55,5.55,0,0,0-4.69-2,5.67,5.67,0,0,0-4.75,2A9.48,9.48,0,0,0,104.77,269.33Z" transform="translate(-51.4 -32.71)"/><path class="cls-2" d="M133.57,280.36a5.68,5.68,0,0,1-4.78-2.21h-.2c.14,1.37.2,2.2.2,2.49v6.64h-3.44V263.87h2.79c.07.3.24,1,.48,2.17h.17a5.41,5.41,0,0,1,4.84-2.46,5.61,5.61,0,0,1,4.72,2.19,12.07,12.07,0,0,1,0,12.37A5.67,5.67,0,0,1,133.57,280.36Zm-.83-14a3.59,3.59,0,0,0-3,1.2,6.22,6.22,0,0,0-1,3.84v.51a7.6,7.6,0,0,0,.94,4.28,3.48,3.48,0,0,0,3.06,1.33,3.12,3.12,0,0,0,2.76-1.46,7.63,7.63,0,0,0,1-4.18,7.28,7.28,0,0,0-.95-4.12A3.19,3.19,0,0,0,132.74,266.39Z" transform="translate(-51.4 -32.71)"/><path class="cls-2" d="M151.12,280.36a7.83,7.83,0,0,1-5.91-2.2,8.38,8.38,0,0,1-2.13-6.07,9.21,9.21,0,0,1,2-6.24,6.82,6.82,0,0,1,5.44-2.27,6.67,6.67,0,0,1,5.07,1.94,7.45,7.45,0,0,1,1.86,5.36v1.87h-10.8a5.31,5.31,0,0,0,1.28,3.62,4.42,4.42,0,0,0,3.38,1.27,12.45,12.45,0,0,0,2.67-.27,13.69,13.69,0,0,0,2.66-.9v2.79a10.33,10.33,0,0,1-2.55.85A15.28,15.28,0,0,1,151.12,280.36Zm-.63-14.18a3.48,3.48,0,0,0-2.63,1,5,5,0,0,0-1.18,3H154a4.49,4.49,0,0,0-1-3A3.32,3.32,0,0,0,150.49,266.18Z" transform="translate(-51.4 -32.71)"/><path class="cls-2" d="M175.58,280.07h-3.45v-10a4.39,4.39,0,0,0-.76-2.8,2.92,2.92,0,0,0-2.39-.92,3.82,3.82,0,0,0-3.2,1.29,7.14,7.14,0,0,0-1,4.32v8.07h-3.44v-16.2H164l.49,2.12h.17a4.85,4.85,0,0,1,2.08-1.78,7,7,0,0,1,3-.63c3.89,0,5.83,2,5.83,5.93Z" transform="translate(-51.4 -32.71)"/><path class="cls-2" d="M180.74,280.07V258.65h3.5v18.42h9.07v3Z" transform="translate(-51.4 -32.71)"/><path class="cls-2" d="M214.42,269.16c0,3.53-1,6.23-2.95,8.1s-4.79,2.81-8.48,2.81h-6V258.65h6.62q5.12,0,7.95,2.76C213.47,263.24,214.42,265.83,214.42,269.16Zm-3.7.11q0-7.68-7.19-7.69h-3v15.55H203Q210.73,277.13,210.72,269.27Z" transform="translate(-51.4 -32.71)"/><path class="cls-2" d="M232.3,280.07l-2.14-5.95H222l-2.09,5.95h-3.69l8-21.5H228l8,21.5Zm-3.06-9-2-5.83c-.14-.39-.35-1-.6-1.84s-.44-1.46-.54-1.85a31.6,31.6,0,0,1-1.16,3.94L223,271.1Z" transform="translate(-51.4 -32.71)"/><path class="cls-2" d="M253,265.13a6.23,6.23,0,0,1-2.2,5.14,9.67,9.67,0,0,1-6.25,1.79h-2.23v8h-3.5V258.65H245c2.67,0,4.68.55,6,1.64A5.92,5.92,0,0,1,253,265.13Zm-10.68,4h1.86a6.64,6.64,0,0,0,4-.94,3.42,3.42,0,0,0,1.25-2.92,3.33,3.33,0,0,0-1.12-2.76,5.64,5.64,0,0,0-3.52-.91h-2.43Z" transform="translate(-51.4 -32.71)"/><path class="cls-2" d="M114.9,313.36v10.17a5.54,5.54,0,0,1-1.62,4.22,6.26,6.26,0,0,1-4.46,1.53,6,6,0,0,1-4.39-1.54,5.72,5.72,0,0,1-1.55-4.26V313.36h1.82v10.25a4,4,0,0,0,1.08,3,4.34,4.34,0,0,0,3.16,1.05,4.21,4.21,0,0,0,3.06-1.05,4.11,4.11,0,0,0,1.07-3V313.36Z" transform="translate(-51.4 -32.71)"/><path class="cls-2" d="M126.38,325.86a3,3,0,0,1-1.22,2.53,5.74,5.74,0,0,1-3.44.89,7.39,7.39,0,0,1-3.65-.74v-1.65a8.77,8.77,0,0,0,1.82.68,7.8,7.8,0,0,0,1.87.24,4.34,4.34,0,0,0,2.15-.44,1.48,1.48,0,0,0,.75-1.36,1.5,1.5,0,0,0-.59-1.18,9.64,9.64,0,0,0-2.33-1.15,13.22,13.22,0,0,1-2.34-1.07,3.28,3.28,0,0,1-1-1,2.77,2.77,0,0,1-.34-1.38,2.65,2.65,0,0,1,1.18-2.28,5.49,5.49,0,0,1,3.21-.83,9.49,9.49,0,0,1,3.71.77l-.63,1.45a8.65,8.65,0,0,0-3.21-.73,3.72,3.72,0,0,0-1.91.4,1.24,1.24,0,0,0-.65,1.1,1.33,1.33,0,0,0,.24.8,2.27,2.27,0,0,0,.78.64,18.2,18.2,0,0,0,2.06.87,7.78,7.78,0,0,1,2.83,1.53A2.74,2.74,0,0,1,126.38,325.86Z" transform="translate(-51.4 -32.71)"/><path class="cls-2" d="M134.25,329.28a5.42,5.42,0,0,1-4.12-1.59,6.17,6.17,0,0,1-1.5-4.41,6.77,6.77,0,0,1,1.4-4.52,4.64,4.64,0,0,1,3.76-1.68,4.42,4.42,0,0,1,3.5,1.46,5.57,5.57,0,0,1,1.29,3.84v1.13h-8.11a4.67,4.67,0,0,0,1.05,3.14,3.62,3.62,0,0,0,2.8,1.08,9.49,9.49,0,0,0,3.76-.8v1.59a9.83,9.83,0,0,1-1.79.59A10,10,0,0,1,134.25,329.28Zm-.48-10.71a2.9,2.9,0,0,0-2.26.93,4.25,4.25,0,0,0-1,2.55h6.15a3.93,3.93,0,0,0-.75-2.58A2.65,2.65,0,0,0,133.77,318.57Z" transform="translate(-51.4 -32.71)"/><path class="cls-2" d="M147,317.08a6.6,6.6,0,0,1,1.4.13l-.24,1.65a6.65,6.65,0,0,0-1.29-.16,3.15,3.15,0,0,0-2.45,1.16,4.28,4.28,0,0,0-1,2.89v6.32h-1.79V317.3h1.48l.2,2.18h.09A5.18,5.18,0,0,1,145,317.7,3.63,3.63,0,0,1,147,317.08Z" transform="translate(-51.4 -32.71)"/><path class="cls-2" d="M158.2,325.86a2.94,2.94,0,0,1-1.23,2.53,5.69,5.69,0,0,1-3.43.89,7.46,7.46,0,0,1-3.66-.74v-1.65a9.08,9.08,0,0,0,1.83.68,7.74,7.74,0,0,0,1.87.24,4.34,4.34,0,0,0,2.15-.44,1.54,1.54,0,0,0,.15-2.54,9.32,9.32,0,0,0-2.32-1.15,12.87,12.87,0,0,1-2.34-1.07,3.28,3.28,0,0,1-1-1,2.86,2.86,0,0,1,.83-3.66,5.5,5.5,0,0,1,3.22-.83,9.49,9.49,0,0,1,3.71.77l-.63,1.45a8.65,8.65,0,0,0-3.21-.73,3.76,3.76,0,0,0-1.92.4,1.23,1.23,0,0,0-.64,1.1,1.33,1.33,0,0,0,.24.8,2.27,2.27,0,0,0,.78.64,18.2,18.2,0,0,0,2.06.87,7.78,7.78,0,0,1,2.83,1.53A2.74,2.74,0,0,1,158.2,325.86Z" transform="translate(-51.4 -32.71)"/><path class="cls-2" d="M163,326.51l.16.25c-.19.72-.46,1.55-.81,2.5s-.71,1.83-1.09,2.65h-1.34c.19-.75.4-1.67.63-2.77s.4-2,.49-2.63Z" transform="translate(-51.4 -32.71)"/><path class="cls-2" d="M180.22,327.49h-.1a4.16,4.16,0,0,1-3.69,1.79,4.39,4.39,0,0,1-3.6-1.57,7,7,0,0,1-1.28-4.49,7.08,7.08,0,0,1,1.29-4.53,4.36,4.36,0,0,1,3.59-1.61,4.27,4.27,0,0,1,3.67,1.74h.14l-.07-.85,0-.82v-4.8h1.79v16.72h-1.45Zm-3.57.3a3.26,3.26,0,0,0,2.65-1,5,5,0,0,0,.82-3.21v-.37a5.92,5.92,0,0,0-.83-3.58,3.16,3.16,0,0,0-2.66-1.07,2.75,2.75,0,0,0-2.4,1.22,6.13,6.13,0,0,0-.83,3.45,5.72,5.72,0,0,0,.83,3.4A2.79,2.79,0,0,0,176.65,327.79Z" transform="translate(-51.4 -32.71)"/><path class="cls-2" d="M190.66,329.28a5.42,5.42,0,0,1-4.12-1.59,6.18,6.18,0,0,1-1.51-4.41,6.83,6.83,0,0,1,1.4-4.52,4.66,4.66,0,0,1,3.77-1.68,4.45,4.45,0,0,1,3.5,1.46,5.57,5.57,0,0,1,1.29,3.84v1.13h-8.11a4.67,4.67,0,0,0,1.05,3.14,3.6,3.6,0,0,0,2.8,1.08,9.52,9.52,0,0,0,3.76-.8v1.59a9.83,9.83,0,0,1-1.79.59A10,10,0,0,1,190.66,329.28Zm-.48-10.71a2.89,2.89,0,0,0-2.26.93,4.2,4.2,0,0,0-1,2.55h6.16a3.93,3.93,0,0,0-.75-2.58A2.65,2.65,0,0,0,190.18,318.57Z" transform="translate(-51.4 -32.71)"/><path class="cls-2" d="M199.79,323c.31-.43.78-1,1.41-1.72l3.8-4h2.12l-4.77,5,5.1,6.76h-2.16l-4.15-5.56-1.35,1.16v4.4H198V312.35h1.76v8.87c0,.39,0,1-.08,1.82Z" transform="translate(-51.4 -32.71)"/><path class="cls-2" d="M213.38,327.81a5.33,5.33,0,0,0,.91-.07,4.74,4.74,0,0,0,.7-.14V329a3,3,0,0,1-.85.23,6.61,6.61,0,0,1-1,.09c-2.27,0-3.41-1.19-3.41-3.59v-7H208v-.86l1.69-.74.75-2.51h1v2.73h3.42v1.38h-3.42v6.93a2.36,2.36,0,0,0,.51,1.63A1.73,1.73,0,0,0,213.38,327.81Z" transform="translate(-51.4 -32.71)"/><path class="cls-2" d="M227.51,323.17a6.54,6.54,0,0,1-1.45,4.5,5.11,5.11,0,0,1-4,1.61,5.23,5.23,0,0,1-2.8-.74,4.82,4.82,0,0,1-1.89-2.12,7.37,7.37,0,0,1-.67-3.25,6.47,6.47,0,0,1,1.44-4.48,5.1,5.1,0,0,1,4-1.61,5,5,0,0,1,3.92,1.64A6.48,6.48,0,0,1,227.51,323.17Zm-9,0a5.6,5.6,0,0,0,.9,3.44,3.58,3.58,0,0,0,5.31,0,5.51,5.51,0,0,0,.91-3.44,5.46,5.46,0,0,0-.91-3.41,3.17,3.17,0,0,0-2.68-1.16,3.11,3.11,0,0,0-2.64,1.15A5.46,5.46,0,0,0,218.54,323.17Z" transform="translate(-51.4 -32.71)"/><path class="cls-2" d="M236.11,329.28a5.18,5.18,0,0,1-2.1-.42,3.93,3.93,0,0,1-1.59-1.31h-.13a17.11,17.11,0,0,1,.13,2v4.84h-1.79V317.3h1.45l.25,1.61h.09a4.14,4.14,0,0,1,1.6-1.4,4.79,4.79,0,0,1,2.09-.43,4.36,4.36,0,0,1,3.62,1.6,8.55,8.55,0,0,1,0,9A4.38,4.38,0,0,1,236.11,329.28Zm-.26-10.68a3.18,3.18,0,0,0-2.61,1,5.18,5.18,0,0,0-.82,3.18v.4a5.89,5.89,0,0,0,.82,3.55,3.13,3.13,0,0,0,2.66,1.07,2.77,2.77,0,0,0,2.39-1.23,5.93,5.93,0,0,0,.86-3.41,5.7,5.7,0,0,0-.86-3.38A2.86,2.86,0,0,0,235.85,318.6Z" transform="translate(-51.4 -32.71)"/><path class="cls-2" d="M251.71,325.86a3,3,0,0,1-1.22,2.53,5.74,5.74,0,0,1-3.44.89,7.39,7.39,0,0,1-3.65-.74v-1.65a8.77,8.77,0,0,0,1.82.68,7.74,7.74,0,0,0,1.87.24,4.34,4.34,0,0,0,2.15-.44,1.54,1.54,0,0,0,.15-2.54,9.32,9.32,0,0,0-2.32-1.15,12.87,12.87,0,0,1-2.34-1.07,3.28,3.28,0,0,1-1-1,2.77,2.77,0,0,1-.34-1.38,2.66,2.66,0,0,1,1.17-2.28,5.5,5.5,0,0,1,3.22-.83,9.49,9.49,0,0,1,3.71.77l-.63,1.45a8.65,8.65,0,0,0-3.21-.73,3.7,3.7,0,0,0-1.91.4,1.24,1.24,0,0,0-.65,1.1,1.33,1.33,0,0,0,.24.8,2.27,2.27,0,0,0,.78.64,18.2,18.2,0,0,0,2.06.87,7.78,7.78,0,0,1,2.83,1.53A2.74,2.74,0,0,1,251.71,325.86Z" transform="translate(-51.4 -32.71)"/><path class="cls-2" d="M256.48,326.51l.16.25a25.21,25.21,0,0,1-.81,2.5c-.35.95-.71,1.83-1.09,2.65H253.4c.19-.75.4-1.67.64-2.77s.39-2,.48-2.63Z" transform="translate(-51.4 -32.71)"/><path class="cls-2" d="M110.36,352.26a2.93,2.93,0,0,1-1.22,2.53,5.72,5.72,0,0,1-3.44.89,7.39,7.39,0,0,1-3.65-.74v-1.65a9,9,0,0,0,1.82.68,7.82,7.82,0,0,0,1.88.24,4.3,4.3,0,0,0,2.14-.44,1.53,1.53,0,0,0,.16-2.54,9.44,9.44,0,0,0-2.33-1.15,13,13,0,0,1-2.33-1.07,3.09,3.09,0,0,1-1-1,2.86,2.86,0,0,1,.83-3.66,5.49,5.49,0,0,1,3.21-.83,9.5,9.5,0,0,1,3.72.77l-.64,1.45a8.65,8.65,0,0,0-3.21-.73,3.75,3.75,0,0,0-1.91.4,1.24,1.24,0,0,0-.65,1.1,1.27,1.27,0,0,0,.25.8,2.27,2.27,0,0,0,.78.64,16.66,16.66,0,0,0,2.06.87,7.87,7.87,0,0,1,2.83,1.53A2.73,2.73,0,0,1,110.36,352.26Z" transform="translate(-51.4 -32.71)"/><path class="cls-2" d="M121.32,355.47v-7.62a3.12,3.12,0,0,0-.65-2.15,2.7,2.7,0,0,0-2.06-.7,3.35,3.35,0,0,0-2.71,1,5.08,5.08,0,0,0-.85,3.3v6.16h-1.79V338.75h1.79v5.06a10.59,10.59,0,0,1-.09,1.52h.11a3.63,3.63,0,0,1,1.5-1.34,5,5,0,0,1,2.22-.49,4.49,4.49,0,0,1,3.23,1,4.31,4.31,0,0,1,1.08,3.26v7.68Z" transform="translate(-51.4 -32.71)"/><path class="cls-2" d="M134,355.47l-.36-1.68h-.08a5,5,0,0,1-1.76,1.5,5.35,5.35,0,0,1-2.18.39,3.94,3.94,0,0,1-2.75-.9,3.3,3.3,0,0,1-1-2.57c0-2.37,1.9-3.62,5.7-3.73l2-.07v-.73a3,3,0,0,0-.6-2.05,2.45,2.45,0,0,0-1.9-.66,7.75,7.75,0,0,0-3.33.91l-.55-1.37a8.63,8.63,0,0,1,1.9-.74,8.31,8.31,0,0,1,2.08-.27,4.43,4.43,0,0,1,3.12.94,3.88,3.88,0,0,1,1,3v8Zm-4-1.26a3.59,3.59,0,0,0,2.61-.91,3.36,3.36,0,0,0,1-2.56v-1.06l-1.79.07a6.41,6.41,0,0,0-3.06.67,2,2,0,0,0-.94,1.82,1.84,1.84,0,0,0,.58,1.47A2.47,2.47,0,0,0,130,354.21Z" transform="translate(-51.4 -32.71)"/><path class="cls-2" d="M144.37,343.48a6.64,6.64,0,0,1,1.41.13l-.25,1.65a6.46,6.46,0,0,0-1.28-.16,3.15,3.15,0,0,0-2.45,1.16,4.23,4.23,0,0,0-1,2.89v6.32H139V343.7h1.47l.21,2.18h.08a5.31,5.31,0,0,1,1.58-1.78A3.62,3.62,0,0,1,144.37,343.48Z" transform="translate(-51.4 -32.71)"/><path class="cls-2" d="M153,355.68a5.4,5.4,0,0,1-4.12-1.59,6.13,6.13,0,0,1-1.51-4.41,6.77,6.77,0,0,1,1.4-4.52,4.65,4.65,0,0,1,3.77-1.68,4.45,4.45,0,0,1,3.5,1.46,5.57,5.57,0,0,1,1.29,3.84v1.12h-8.11a4.63,4.63,0,0,0,1,3.15,3.62,3.62,0,0,0,2.8,1.08,9.49,9.49,0,0,0,3.76-.8v1.59a9.83,9.83,0,0,1-1.79.59A9.93,9.93,0,0,1,153,355.68ZM152.47,345a2.9,2.9,0,0,0-2.26.93,4.25,4.25,0,0,0-1,2.55h6.15a3.93,3.93,0,0,0-.75-2.58A2.65,2.65,0,0,0,152.47,345Z" transform="translate(-51.4 -32.71)"/><path class="cls-2" d="M167.92,352.26a3,3,0,0,1-1.22,2.53,5.74,5.74,0,0,1-3.44.89,7.39,7.39,0,0,1-3.65-.74v-1.65a8.77,8.77,0,0,0,1.82.68,7.8,7.8,0,0,0,1.87.24,4.34,4.34,0,0,0,2.15-.44,1.48,1.48,0,0,0,.75-1.36,1.5,1.5,0,0,0-.59-1.18,9.64,9.64,0,0,0-2.33-1.15,13.22,13.22,0,0,1-2.34-1.07,3.28,3.28,0,0,1-1-1,2.77,2.77,0,0,1-.34-1.38,2.65,2.65,0,0,1,1.18-2.28,5.49,5.49,0,0,1,3.21-.83,9.49,9.49,0,0,1,3.71.77L167,345.7a8.65,8.65,0,0,0-3.21-.73,3.72,3.72,0,0,0-1.91.4,1.24,1.24,0,0,0-.65,1.1,1.33,1.33,0,0,0,.24.8,2.27,2.27,0,0,0,.78.64,18.2,18.2,0,0,0,2.06.87,7.78,7.78,0,0,1,2.83,1.53A2.74,2.74,0,0,1,167.92,352.26Z" transform="translate(-51.4 -32.71)"/><path class="cls-2" d="M172.69,352.91l.16.25a24.88,24.88,0,0,1-.8,2.5c-.36.95-.72,1.83-1.1,2.65h-1.34c.19-.75.4-1.67.64-2.77s.39-2,.49-2.63Z" transform="translate(-51.4 -32.71)"/><path class="cls-2" d="M187.41,355.68a5.11,5.11,0,0,1-2.1-.42,3.89,3.89,0,0,1-1.6-1.31h-.13a15.1,15.1,0,0,1,.13,2v4.84h-1.78V343.7h1.45l.25,1.61h.08a4.14,4.14,0,0,1,1.6-1.4,4.84,4.84,0,0,1,2.1-.43,4.34,4.34,0,0,1,3.61,1.6,8.55,8.55,0,0,1,0,9A4.35,4.35,0,0,1,187.41,355.68ZM187.15,345a3.18,3.18,0,0,0-2.61,1,5.18,5.18,0,0,0-.83,3.18v.4a5.88,5.88,0,0,0,.83,3.55,3.11,3.11,0,0,0,2.65,1.07,2.75,2.75,0,0,0,2.39-1.23,5.85,5.85,0,0,0,.87-3.41,5.63,5.63,0,0,0-.87-3.38A2.84,2.84,0,0,0,187.15,345Z" transform="translate(-51.4 -32.71)"/><path class="cls-2" d="M200.78,343.48a6.77,6.77,0,0,1,1.41.13l-.25,1.65a6.65,6.65,0,0,0-1.29-.16,3.13,3.13,0,0,0-2.44,1.16,4.24,4.24,0,0,0-1,2.89v6.32h-1.78V343.7h1.47l.21,2.18h.08a5.2,5.2,0,0,1,1.58-1.78A3.6,3.6,0,0,1,200.78,343.48Z" transform="translate(-51.4 -32.71)"/><path class="cls-2" d="M204.24,340.51a1.19,1.19,0,0,1,.3-.9,1.1,1.1,0,0,1,1.49,0,1.17,1.17,0,0,1,.32.9,1.15,1.15,0,0,1-.32.89,1.08,1.08,0,0,1-1.49,0A1.18,1.18,0,0,1,204.24,340.51Zm1.93,15h-1.78V343.7h1.78Z" transform="translate(-51.4 -32.71)"/><path class="cls-2" d="M218,355.47v-7.62a3.12,3.12,0,0,0-.65-2.15,2.69,2.69,0,0,0-2.06-.7,3.38,3.38,0,0,0-2.7,1,5,5,0,0,0-.86,3.3v6.18H210V343.7h1.45l.29,1.61h.08a3.69,3.69,0,0,1,1.54-1.35,5,5,0,0,1,2.2-.48,4.45,4.45,0,0,1,3.2,1,4.33,4.33,0,0,1,1.07,3.28v7.68Z" transform="translate(-51.4 -32.71)"/><path class="cls-2" d="M227.26,354.21a5.33,5.33,0,0,0,.91-.07,4.74,4.74,0,0,0,.7-.14v1.36a3,3,0,0,1-.85.23,6.61,6.61,0,0,1-1,.09c-2.27,0-3.41-1.19-3.41-3.59v-7H221.9v-.86l1.69-.74.75-2.51h1v2.73h3.42v1.38h-3.42V352a2.36,2.36,0,0,0,.51,1.63A1.73,1.73,0,0,0,227.26,354.21Z" transform="translate(-51.4 -32.71)"/><path class="cls-2" d="M236.2,355.68a5.4,5.4,0,0,1-4.12-1.59,6.13,6.13,0,0,1-1.51-4.41,6.83,6.83,0,0,1,1.4-4.52,4.66,4.66,0,0,1,3.77-1.68,4.45,4.45,0,0,1,3.5,1.46,5.57,5.57,0,0,1,1.29,3.84v1.12h-8.11a4.63,4.63,0,0,0,1,3.15,3.63,3.63,0,0,0,2.8,1.08,9.49,9.49,0,0,0,3.76-.8v1.59a9.58,9.58,0,0,1-1.79.59A9.93,9.93,0,0,1,236.2,355.68ZM235.71,345a2.92,2.92,0,0,0-2.26.93,4.25,4.25,0,0,0-1,2.55h6.16a3.93,3.93,0,0,0-.76-2.58A2.63,2.63,0,0,0,235.71,345Z" transform="translate(-51.4 -32.71)"/><path class="cls-2" d="M248.94,343.48a6.77,6.77,0,0,1,1.41.13l-.25,1.65a6.65,6.65,0,0,0-1.29-.16,3.13,3.13,0,0,0-2.44,1.16,4.24,4.24,0,0,0-1,2.89v6.32h-1.78V343.7H245l.2,2.18h.09a5.2,5.2,0,0,1,1.58-1.78A3.57,3.57,0,0,1,248.94,343.48Z" transform="translate(-51.4 -32.71)"/><path class="cls-2" d="M260.14,352.26a3,3,0,0,1-1.22,2.53,5.72,5.72,0,0,1-3.44.89,7.39,7.39,0,0,1-3.65-.74v-1.65a8.77,8.77,0,0,0,1.82.68,7.8,7.8,0,0,0,1.87.24,4.34,4.34,0,0,0,2.15-.44,1.48,1.48,0,0,0,.75-1.36,1.5,1.5,0,0,0-.59-1.18,9.64,9.64,0,0,0-2.33-1.15,13,13,0,0,1-2.33-1.07,3.22,3.22,0,0,1-1-1,2.76,2.76,0,0,1-.33-1.38,2.66,2.66,0,0,1,1.17-2.28,5.49,5.49,0,0,1,3.21-.83,9.54,9.54,0,0,1,3.72.77l-.64,1.45a8.65,8.65,0,0,0-3.21-.73,3.72,3.72,0,0,0-1.91.4,1.24,1.24,0,0,0-.65,1.1,1.33,1.33,0,0,0,.24.8,2.48,2.48,0,0,0,.78.64,17.78,17.78,0,0,0,2.07.87,7.87,7.87,0,0,1,2.83,1.53A2.73,2.73,0,0,1,260.14,352.26Z" transform="translate(-51.4 -32.71)"/><path class="cls-2" d="M264.91,352.91l.16.25a24.88,24.88,0,0,1-.8,2.5c-.35.95-.72,1.83-1.1,2.65h-1.34c.19-.75.41-1.67.64-2.77s.39-2,.49-2.63Z" transform="translate(-51.4 -32.71)"/><path class="cls-2" d="M273.89,354.33a1.6,1.6,0,0,1,.33-1.09,1.18,1.18,0,0,1,.94-.37,1.24,1.24,0,0,1,1,.37,1.55,1.55,0,0,1,.35,1.09,1.51,1.51,0,0,1-.35,1.07,1.41,1.41,0,0,1-1.88,0A1.45,1.45,0,0,1,273.89,354.33Z" transform="translate(-51.4 -32.71)"/><path class="cls-2" d="M279.75,354.33a1.65,1.65,0,0,1,.32-1.09,1.19,1.19,0,0,1,.94-.37,1.28,1.28,0,0,1,1,.37,1.55,1.55,0,0,1,.35,1.09,1.47,1.47,0,0,1-.36,1.07,1.23,1.23,0,0,1-1,.38,1.25,1.25,0,0,1-.9-.34A1.45,1.45,0,0,1,279.75,354.33Z" transform="translate(-51.4 -32.71)"/><path class="cls-2" d="M285.6,354.33a1.6,1.6,0,0,1,.33-1.09,1.18,1.18,0,0,1,.94-.37,1.26,1.26,0,0,1,1,.37,1.55,1.55,0,0,1,.35,1.09,1.51,1.51,0,0,1-.35,1.07,1.41,1.41,0,0,1-1.88,0A1.45,1.45,0,0,1,285.6,354.33Z" transform="translate(-51.4 -32.71)"/><path class="cls-5" d="M210.57,696.07l3.78-17.85h2.07l-3.37,16H220l-.4,1.88Z" transform="translate(-51.4 -32.71)"/><path class="cls-5" d="M224.15,696.07H222.1L225,682.69H227Zm1.38-16.8a1.61,1.61,0,0,1,.39-1.12,1.29,1.29,0,0,1,1-.43,1,1,0,0,1,1.07,1.1,1.65,1.65,0,0,1-.4,1.13,1.25,1.25,0,0,1-.95.47,1.14,1.14,0,0,1-.81-.3A1.11,1.11,0,0,1,225.53,679.27Z" transform="translate(-51.4 -32.71)"/><path class="cls-5" d="M236.7,692.27a3.57,3.57,0,0,1-1.35,3,6,6,0,0,1-3.81,1.07,8.14,8.14,0,0,1-3.72-.84v-1.93a7.43,7.43,0,0,0,1.85.79,6.52,6.52,0,0,0,1.83.28,3.73,3.73,0,0,0,2.32-.61,1.88,1.88,0,0,0,.78-1.56,1.72,1.72,0,0,0-.43-1.17,9,9,0,0,0-1.84-1.31,7.36,7.36,0,0,1-2.25-1.74,3.23,3.23,0,0,1-.66-2,3.39,3.39,0,0,1,1.23-2.72,5,5,0,0,1,3.25-1,9.34,9.34,0,0,1,4,.91l-.66,1.67-.68-.31a6.83,6.83,0,0,0-2.69-.52,2.74,2.74,0,0,0-1.78.53,1.69,1.69,0,0,0-.65,1.37,1.72,1.72,0,0,0,.43,1.17,7.54,7.54,0,0,0,1.79,1.26,10.66,10.66,0,0,1,1.88,1.26,3.69,3.69,0,0,1,.85,1.13A3.27,3.27,0,0,1,236.7,692.27Z" transform="translate(-51.4 -32.71)"/><path class="cls-5" d="M243.25,694.64a6.73,6.73,0,0,0,1.76-.32v1.57a5.11,5.11,0,0,1-1,.3,5.25,5.25,0,0,1-1,.12,3.37,3.37,0,0,1-2.34-.73,2.74,2.74,0,0,1-.81-2.16,8.56,8.56,0,0,1,.22-1.83l1.55-7.35h-2.1l.17-.89,2.26-1,1.52-2.78h1.2l-.67,3.08h3.34l-.31,1.55H243.7l-1.57,7.37a8.46,8.46,0,0,0-.22,1.61,1.46,1.46,0,0,0,.35,1A1.3,1.3,0,0,0,243.25,694.64Z" transform="translate(-51.4 -32.71)"/><path class="cls-5" d="M255.43,696.07l1.81-8.45a11.32,11.32,0,0,0,.24-1.76,1.72,1.72,0,0,0-.43-1.23,1.81,1.81,0,0,0-1.38-.47,3.62,3.62,0,0,0-2.12.74,6.35,6.35,0,0,0-1.82,2.08,11,11,0,0,0-1.19,3.29l-1.23,5.8h-2.05l2.85-13.38h1.7l-.27,2.48h.12a8,8,0,0,1,2.27-2.11,4.53,4.53,0,0,1,2.26-.62,3.46,3.46,0,0,1,2.45.85,3.12,3.12,0,0,1,.9,2.38,9.86,9.86,0,0,1-.29,2.19l-1.74,8.21Z" transform="translate(-51.4 -32.71)"/><path class="cls-5" d="M267,696.31a4.67,4.67,0,0,1-3.53-1.33,5.13,5.13,0,0,1-1.28-3.69,10.94,10.94,0,0,1,.91-4.4,8.28,8.28,0,0,1,2.41-3.28,5.25,5.25,0,0,1,3.31-1.17,4.22,4.22,0,0,1,2.81.81,2.88,2.88,0,0,1,.94,2.27,3.89,3.89,0,0,1-2,3.45,11.13,11.13,0,0,1-5.8,1.25h-.4l-.05,1a3.78,3.78,0,0,0,.75,2.49,2.87,2.87,0,0,0,2.33.9,5.9,5.9,0,0,0,1.58-.22,12.76,12.76,0,0,0,2-.81v1.79a12.41,12.41,0,0,1-2,.75A8.36,8.36,0,0,1,267,696.31Zm1.7-12.12a3.27,3.27,0,0,0-2.37,1.15,7.5,7.5,0,0,0-1.69,3.18h.15a10.05,10.05,0,0,0,4.27-.72,2.29,2.29,0,0,0,1.48-2.11,1.4,1.4,0,0,0-.45-1.07A1.91,1.91,0,0,0,268.67,684.19Z" transform="translate(-51.4 -32.71)"/><path class="cls-5" d="M282.47,682.44a5.82,5.82,0,0,1,1.47.17l-.44,1.84a5.16,5.16,0,0,0-1.28-.16,3.41,3.41,0,0,0-2.09.73,6.4,6.4,0,0,0-1.69,2,10.27,10.27,0,0,0-1.07,2.89l-1.31,6.13H274l2.86-13.38h1.7l-.27,2.48h.12a12.26,12.26,0,0,1,1.45-1.67,4.45,4.45,0,0,1,1.21-.78A3.29,3.29,0,0,1,282.47,682.44Z" transform="translate(-51.4 -32.71)"/><path class="cls-5" d="M297.94,696.07l-2-15.82h-.1c-.05.58-.17,1.39-.34,2.41s-.33,1.83-.46,2.43l-2.32,11h-2l3.77-17.85h3l1.82,14.7h.11l8.05-14.7h3.24L307,696.07h-2.12q1.54-7.22,2.36-11.06c.54-2.56.92-4.16,1.14-4.79h-.07l-8.75,15.85Z" transform="translate(-51.4 -32.71)"/><path class="cls-5" d="M318.46,682.52a4.86,4.86,0,0,1,3.66,1.37,5.15,5.15,0,0,1,1.34,3.78,10.75,10.75,0,0,1-.88,4.33,7.37,7.37,0,0,1-2.38,3.15,5.56,5.56,0,0,1-3.39,1.11,4.85,4.85,0,0,1-3.67-1.38,5.18,5.18,0,0,1-1.33-3.77,10.66,10.66,0,0,1,.89-4.36,7.33,7.33,0,0,1,2.4-3.14A5.6,5.6,0,0,1,318.46,682.52Zm2.88,4.87a3.32,3.32,0,0,0-.76-2.28,2.62,2.62,0,0,0-2.07-.87,3.6,3.6,0,0,0-2.39.9,5.78,5.78,0,0,0-1.63,2.51,10.36,10.36,0,0,0-.58,3.57,3.57,3.57,0,0,0,.77,2.47,2.83,2.83,0,0,0,2.23.87,3.33,3.33,0,0,0,2.28-.89,5.78,5.78,0,0,0,1.58-2.53A11.37,11.37,0,0,0,321.34,687.39Z" transform="translate(-51.4 -32.71)"/><path class="cls-5" d="M332.44,682.47a3.57,3.57,0,0,1,3.43,2.32H336a28.21,28.21,0,0,1,.55-3.35l.95-4.37h2l-4,19h-1.7l.27-2.56H334a9,9,0,0,1-2.31,2.16,4.22,4.22,0,0,1-2.22.64,3.2,3.2,0,0,1-2.65-1.2,5.21,5.21,0,0,1-.95-3.32,12.75,12.75,0,0,1,.88-4.78,8.08,8.08,0,0,1,2.37-3.36A5.28,5.28,0,0,1,332.44,682.47Zm-2.32,12.14a3.54,3.54,0,0,0,2.36-1.14,8,8,0,0,0,1.94-2.92,9.51,9.51,0,0,0,.71-3.61,2.92,2.92,0,0,0-.66-2.07,2.47,2.47,0,0,0-1.91-.71,3.27,3.27,0,0,0-2.29,1,7.19,7.19,0,0,0-1.7,2.83,11.72,11.72,0,0,0-.64,3.84C327.93,693.69,328.66,694.61,330.12,694.61Z" transform="translate(-51.4 -32.71)"/><path class="cls-5" d="M344.57,682.69l-1.83,8.48a8.92,8.92,0,0,0-.22,1.7,1.56,1.56,0,0,0,1.79,1.74,3.65,3.65,0,0,0,2.12-.73,6.58,6.58,0,0,0,1.83-2.1,11.05,11.05,0,0,0,1.2-3.29l1.23-5.8h2l-2.82,13.38H348.2l.26-2.48h-.14a7.94,7.94,0,0,1-2.29,2.12,4.56,4.56,0,0,1-2.24.6,3.42,3.42,0,0,1-2.46-.85,3.19,3.19,0,0,1-.89-2.42,11.28,11.28,0,0,1,.27-2.1l1.78-8.25Z" transform="translate(-51.4 -32.71)"/><path class="cls-5" d="M356.24,696.07h-2.05l4.05-19h2.05Z" transform="translate(-51.4 -32.71)"/></svg>