<svg id="Ebene_1" data-name="Ebene 1" xmlns="http://www.w3.org/2000/svg" viewBox="0 0 849 724.44"><defs><style>.cls-1,.cls-2,.cls-5{fill:#fff;}.cls-1,.cls-6,.cls-7{stroke:#838380;}.cls-1,.cls-2,.cls-6,.cls-7{stroke-miterlimit:10;}.cls-1,.cls-2{stroke-width:2px;}.cls-2{stroke:#78b42a;}.cls-3,.cls-6{fill:#848380;}.cls-4{fill:#78b42a;}.cls-6,.cls-7{stroke-width:4px;}.cls-7{fill:none;}</style></defs><title>190214-bacula-server</title><rect class="cls-1" x="1" y="1" width="847" height="574.94" rx="14.17"/><rect class="cls-2" x="434" y="164.98" width="352" height="216.96" rx="14.17"/><path class="cls-3" d="M203.14,84.4h6.36q4.42,0,6.39,1.29a4.51,4.51,0,0,1,2,4.08,5,5,0,0,1-1,3.12,4.3,4.3,0,0,1-2.79,1.56v.15a5.48,5.48,0,0,1,3.32,1.68,5,5,0,0,1,1.06,3.39,5.51,5.51,0,0,1-2,4.52,8.65,8.65,0,0,1-5.6,1.63h-7.74Zm3.5,8.85H210a5.79,5.79,0,0,0,3.21-.69,2.67,2.67,0,0,0,1-2.37A2.36,2.36,0,0,0,213.14,88a6.79,6.79,0,0,0-3.46-.68h-3Zm0,2.84v6.79h3.72a5.47,5.47,0,0,0,3.32-.85,3.09,3.09,0,0,0,1.12-2.66,2.82,2.82,0,0,0-1.14-2.47,6,6,0,0,0-3.47-.81Z" transform="translate(-175.5 -56.78)"/><path class="cls-3" d="M232.72,105.82l-.69-2.26h-.12a6.58,6.58,0,0,1-2.36,2,7.54,7.54,0,0,1-3,.53,5.16,5.16,0,0,1-3.73-1.29,4.82,4.82,0,0,1-1.34-3.64,4.28,4.28,0,0,1,1.86-3.78A10.65,10.65,0,0,1,229,96l2.8-.09v-.87a3.29,3.29,0,0,0-.73-2.32,3,3,0,0,0-2.25-.77,7.66,7.66,0,0,0-2.39.37,17.48,17.48,0,0,0-2.19.86l-1.12-2.46a12.1,12.1,0,0,1,2.89-1,13.77,13.77,0,0,1,3-.35,7,7,0,0,1,4.66,1.34,5.29,5.29,0,0,1,1.58,4.24v10.91Zm-5.13-2.34a4.26,4.26,0,0,0,3-1,3.8,3.8,0,0,0,1.14-2.94v-1.4l-2.08.08a7.07,7.07,0,0,0-3.54.82,2.46,2.46,0,0,0-1.11,2.22,2.15,2.15,0,0,0,.65,1.67A2.74,2.74,0,0,0,227.59,103.48Z" transform="translate(-175.5 -56.78)"/><path class="cls-3" d="M246.52,106.11a7.09,7.09,0,0,1-5.59-2.14A9,9,0,0,1,239,97.81a9,9,0,0,1,2-6.29,7.43,7.43,0,0,1,5.78-2.19,10.77,10.77,0,0,1,4.61,1l-1,2.77a10.39,10.39,0,0,0-3.6-.85q-4.22,0-4.21,5.58a6.66,6.66,0,0,0,1.05,4.09,3.61,3.61,0,0,0,3.07,1.37A8.83,8.83,0,0,0,251,102.1v3a7,7,0,0,1-2,.78A12.3,12.3,0,0,1,246.52,106.11Z" transform="translate(-175.5 -56.78)"/><path class="cls-3" d="M266.26,105.82l-.48-2.12h-.18a4.86,4.86,0,0,1-2,1.77,6.8,6.8,0,0,1-3,.64,6,6,0,0,1-4.4-1.46,6.07,6.07,0,0,1-1.45-4.44V89.62h3.47v10a4.38,4.38,0,0,0,.76,2.79,2.92,2.92,0,0,0,2.39.93,3.79,3.79,0,0,0,3.19-1.3,7.12,7.12,0,0,0,1-4.34V89.62H269v16.2Z" transform="translate(-175.5 -56.78)"/><path class="cls-3" d="M277.32,105.82h-3.44V83h3.44Z" transform="translate(-175.5 -56.78)"/><path class="cls-3" d="M292.38,105.82l-.69-2.26h-.11a6.75,6.75,0,0,1-2.36,2,7.59,7.59,0,0,1-3.05.53,5.17,5.17,0,0,1-3.73-1.29,4.82,4.82,0,0,1-1.34-3.64A4.28,4.28,0,0,1,283,97.4,10.65,10.65,0,0,1,288.63,96l2.8-.09v-.87a3.25,3.25,0,0,0-.73-2.32,3,3,0,0,0-2.24-.77,7.61,7.61,0,0,0-2.39.37,17.62,17.62,0,0,0-2.2.86l-1.11-2.46a12,12,0,0,1,2.88-1,13.84,13.84,0,0,1,3-.35,7,7,0,0,1,4.67,1.34,5.28,5.28,0,0,1,1.57,4.24v10.91Zm-5.13-2.34a4.25,4.25,0,0,0,3-1,3.8,3.8,0,0,0,1.14-2.94v-1.4l-2.08.08a7.07,7.07,0,0,0-3.54.82,2.45,2.45,0,0,0-1.1,2.22,2.14,2.14,0,0,0,.64,1.67A2.76,2.76,0,0,0,287.25,103.48Z" transform="translate(-175.5 -56.78)"/><path class="cls-3" d="M320.15,100a5.39,5.39,0,0,1-2.06,4.49,9,9,0,0,1-5.7,1.62,13.52,13.52,0,0,1-5.95-1.13v-3.31a16.67,16.67,0,0,0,3.12,1.09,13.37,13.37,0,0,0,3.07.39,4.83,4.83,0,0,0,3.06-.79,2.56,2.56,0,0,0,1-2.12,2.66,2.66,0,0,0-.91-2,13.67,13.67,0,0,0-3.75-2,10.08,10.08,0,0,1-4.13-2.71,5.76,5.76,0,0,1-1.2-3.67,5.15,5.15,0,0,1,1.91-4.22,7.92,7.92,0,0,1,5.11-1.53,15.13,15.13,0,0,1,6.12,1.34l-1.11,2.86a13.4,13.4,0,0,0-5.1-1.2,4,4,0,0,0-2.58.74,2.43,2.43,0,0,0-.88,2,2.69,2.69,0,0,0,.36,1.43,3.53,3.53,0,0,0,1.15,1.12,19.61,19.61,0,0,0,2.9,1.39A15.71,15.71,0,0,1,318,95.57a5.33,5.33,0,0,1,1.61,1.91A5.84,5.84,0,0,1,320.15,100Z" transform="translate(-175.5 -56.78)"/><path class="cls-3" d="M331,106.11a7.83,7.83,0,0,1-5.91-2.2A8.38,8.38,0,0,1,323,97.84a9.21,9.21,0,0,1,2-6.24,6.82,6.82,0,0,1,5.44-2.27,6.71,6.71,0,0,1,5.07,1.94,7.46,7.46,0,0,1,1.86,5.37V98.5h-10.8a5.31,5.31,0,0,0,1.28,3.62,4.42,4.42,0,0,0,3.38,1.27,12.45,12.45,0,0,0,2.67-.27,13.69,13.69,0,0,0,2.66-.9V105a10.33,10.33,0,0,1-2.55.85A15.28,15.28,0,0,1,331,106.11Zm-.63-14.18a3.48,3.48,0,0,0-2.63,1,5,5,0,0,0-1.18,3h7.35a4.49,4.49,0,0,0-1-3A3.32,3.32,0,0,0,330.38,91.93Z" transform="translate(-175.5 -56.78)"/><path class="cls-3" d="M349.44,89.33a8.17,8.17,0,0,1,1.71.14l-.34,3.21a6.27,6.27,0,0,0-1.52-.18,4.41,4.41,0,0,0-3.35,1.35,4.9,4.9,0,0,0-1.28,3.5v8.47h-3.44V89.62h2.69l.46,2.86h.17a6.34,6.34,0,0,1,2.11-2.3A5,5,0,0,1,349.44,89.33Z" transform="translate(-175.5 -56.78)"/><path class="cls-3" d="M357.85,105.82l-6.16-16.2h3.64L358.62,99a18.6,18.6,0,0,1,1,3.84h.11a25.31,25.31,0,0,1,1-3.84l3.3-9.42h3.66l-6.18,16.2Z" transform="translate(-175.5 -56.78)"/><path class="cls-3" d="M377.28,106.11a7.83,7.83,0,0,1-5.91-2.2,8.38,8.38,0,0,1-2.13-6.07,9.16,9.16,0,0,1,2-6.24,6.81,6.81,0,0,1,5.43-2.27,6.71,6.71,0,0,1,5.07,1.94,7.46,7.46,0,0,1,1.86,5.37V98.5H372.79a5.31,5.31,0,0,0,1.27,3.62,4.42,4.42,0,0,0,3.38,1.27,12.61,12.61,0,0,0,2.68-.27,14.15,14.15,0,0,0,2.66-.9V105a10.33,10.33,0,0,1-2.55.85A15.32,15.32,0,0,1,377.28,106.11Zm-.63-14.18A3.48,3.48,0,0,0,374,93a5,5,0,0,0-1.17,3h7.35a4.44,4.44,0,0,0-1-3A3.29,3.29,0,0,0,376.65,91.93Z" transform="translate(-175.5 -56.78)"/><path class="cls-3" d="M395.71,89.33a8.27,8.27,0,0,1,1.72.14l-.34,3.21a6.41,6.41,0,0,0-1.53-.18,4.39,4.39,0,0,0-3.34,1.35,4.86,4.86,0,0,0-1.28,3.5v8.47h-3.45V89.62h2.7l.45,2.86h.18a6.4,6.4,0,0,1,2.1-2.3A5,5,0,0,1,395.71,89.33Z" transform="translate(-175.5 -56.78)"/><path class="cls-4" d="M636.14,248.4h6.36q4.43,0,6.39,1.29a4.52,4.52,0,0,1,2,4.08,5,5,0,0,1-1,3.12,4.3,4.3,0,0,1-2.78,1.56v.15a5.48,5.48,0,0,1,3.31,1.68,5,5,0,0,1,1.06,3.39,5.51,5.51,0,0,1-2,4.52,8.65,8.65,0,0,1-5.6,1.63h-7.74Zm3.5,8.85H643a5.79,5.79,0,0,0,3.21-.69,2.69,2.69,0,0,0,1-2.37,2.36,2.36,0,0,0-1.09-2.18,6.79,6.79,0,0,0-3.46-.68h-3Zm0,2.84v6.79h3.73a5.45,5.45,0,0,0,3.31-.85,3.09,3.09,0,0,0,1.12-2.66,2.82,2.82,0,0,0-1.14-2.47,6,6,0,0,0-3.47-.81Z" transform="translate(-175.5 -56.78)"/><path class="cls-4" d="M665.72,269.82l-.69-2.26h-.12a6.58,6.58,0,0,1-2.36,2,7.54,7.54,0,0,1-3,.53,5.16,5.16,0,0,1-3.73-1.29,4.82,4.82,0,0,1-1.34-3.64,4.28,4.28,0,0,1,1.86-3.78A10.65,10.65,0,0,1,662,260l2.8-.09v-.87a3.29,3.29,0,0,0-.73-2.32,3,3,0,0,0-2.25-.77,7.66,7.66,0,0,0-2.39.37,17.48,17.48,0,0,0-2.19.86l-1.12-2.46a12.1,12.1,0,0,1,2.89-1,13.84,13.84,0,0,1,3-.35,7,7,0,0,1,4.66,1.34,5.29,5.29,0,0,1,1.58,4.24v10.91Zm-5.13-2.34a4.26,4.26,0,0,0,3-1.05,3.8,3.8,0,0,0,1.14-2.94v-1.4l-2.08.08a7.07,7.07,0,0,0-3.54.82,2.46,2.46,0,0,0-1.11,2.22,2.15,2.15,0,0,0,.65,1.67A2.74,2.74,0,0,0,660.59,267.48Z" transform="translate(-175.5 -56.78)"/><path class="cls-4" d="M679.52,270.11a7.09,7.09,0,0,1-5.59-2.14,10.89,10.89,0,0,1,.09-12.45,7.42,7.42,0,0,1,5.77-2.19,10.78,10.78,0,0,1,4.62.95l-1,2.77a10.39,10.39,0,0,0-3.6-.85q-4.21,0-4.21,5.58a6.66,6.66,0,0,0,1.05,4.09,3.61,3.61,0,0,0,3.07,1.37A8.83,8.83,0,0,0,684,266.1v3a7,7,0,0,1-2,.78A12.3,12.3,0,0,1,679.52,270.11Z" transform="translate(-175.5 -56.78)"/><path class="cls-4" d="M699.26,269.82l-.48-2.12h-.18a4.86,4.86,0,0,1-2,1.77,6.8,6.8,0,0,1-3,.64,6,6,0,0,1-4.4-1.46,6.07,6.07,0,0,1-1.45-4.44V253.62h3.47v10a4.38,4.38,0,0,0,.76,2.79,2.92,2.92,0,0,0,2.39.93,3.79,3.79,0,0,0,3.19-1.3,7.12,7.12,0,0,0,1-4.34v-8.07H702v16.2Z" transform="translate(-175.5 -56.78)"/><path class="cls-4" d="M710.32,269.82h-3.44V247h3.44Z" transform="translate(-175.5 -56.78)"/><path class="cls-4" d="M725.38,269.82l-.69-2.26h-.11a6.75,6.75,0,0,1-2.36,2,7.59,7.59,0,0,1-3.05.53,5.17,5.17,0,0,1-3.73-1.29,4.82,4.82,0,0,1-1.34-3.64A4.28,4.28,0,0,1,716,261.4a10.65,10.65,0,0,1,5.67-1.39l2.8-.09v-.87a3.25,3.25,0,0,0-.73-2.32,3,3,0,0,0-2.24-.77,7.61,7.61,0,0,0-2.39.37,17.62,17.62,0,0,0-2.2.86l-1.11-2.46a12,12,0,0,1,2.88-1,13.84,13.84,0,0,1,3-.35,7,7,0,0,1,4.67,1.34,5.28,5.28,0,0,1,1.57,4.24v10.91Zm-5.13-2.34a4.25,4.25,0,0,0,3-1.05,3.8,3.8,0,0,0,1.14-2.94v-1.4l-2.08.08a7.07,7.07,0,0,0-3.54.82,2.45,2.45,0,0,0-1.1,2.22,2.14,2.14,0,0,0,.64,1.67A2.74,2.74,0,0,0,720.25,267.48Z" transform="translate(-175.5 -56.78)"/><path class="cls-4" d="M749.92,251.1a5.77,5.77,0,0,0-4.75,2.14,9.13,9.13,0,0,0-1.73,5.9q0,3.94,1.67,6a5.85,5.85,0,0,0,4.81,2,12.54,12.54,0,0,0,2.63-.27c.85-.18,1.74-.41,2.66-.69v3a16,16,0,0,1-5.72.95q-4.69,0-7.22-2.85c-1.68-1.9-2.52-4.61-2.52-8.15a13.25,13.25,0,0,1,1.22-5.84,8.79,8.79,0,0,1,3.54-3.84A10.7,10.7,0,0,1,750,248.1a13.58,13.58,0,0,1,6.06,1.37l-1.26,2.92a19.47,19.47,0,0,0-2.29-.9A8.23,8.23,0,0,0,749.92,251.1Z" transform="translate(-175.5 -56.78)"/><path class="cls-4" d="M762.9,269.82h-3.45V247h3.45Z" transform="translate(-175.5 -56.78)"/><path class="cls-4" d="M767.61,249.33a1.88,1.88,0,0,1,.51-1.42,1.94,1.94,0,0,1,1.44-.5,1.91,1.91,0,1,1,0,3.81,2,2,0,0,1-1.44-.51A1.86,1.86,0,0,1,767.61,249.33Zm3.65,20.49h-3.44v-16.2h3.44Z" transform="translate(-175.5 -56.78)"/><path class="cls-4" d="M783.26,270.11a7.83,7.83,0,0,1-5.91-2.2,8.39,8.39,0,0,1-2.14-6.07,9.21,9.21,0,0,1,2-6.24,6.82,6.82,0,0,1,5.44-2.27,6.71,6.71,0,0,1,5.07,1.94,7.46,7.46,0,0,1,1.86,5.37v1.86h-10.8a5.27,5.27,0,0,0,1.28,3.62,4.4,4.4,0,0,0,3.38,1.27,12.45,12.45,0,0,0,2.67-.27,13.92,13.92,0,0,0,2.66-.9V269a10.33,10.33,0,0,1-2.55.85A15.28,15.28,0,0,1,783.26,270.11Zm-.63-14.18a3.46,3.46,0,0,0-2.63,1,5,5,0,0,0-1.18,3h7.35a4.49,4.49,0,0,0-1-3A3.32,3.32,0,0,0,782.63,255.93Z" transform="translate(-175.5 -56.78)"/><path class="cls-4" d="M807.72,269.82h-3.46v-10a4.39,4.39,0,0,0-.75-2.8,2.93,2.93,0,0,0-2.4-.92,3.8,3.8,0,0,0-3.19,1.29,7.14,7.14,0,0,0-1,4.32v8.07h-3.44v-16.2h2.69l.49,2.12h.17A4.79,4.79,0,0,1,798.9,254a7,7,0,0,1,3-.63c3.89,0,5.83,2,5.83,5.93Z" transform="translate(-175.5 -56.78)"/><path class="cls-4" d="M818.54,267.33a8.19,8.19,0,0,0,2.52-.4v2.6a7.19,7.19,0,0,1-1.47.41,9.5,9.5,0,0,1-1.87.17q-4.89,0-4.89-5.15v-8.73h-2.21V254.7l2.37-1.26,1.18-3.42h2.12v3.6h4.61v2.61h-4.61v8.67a2.46,2.46,0,0,0,.62,1.84A2.3,2.3,0,0,0,818.54,267.33Z" transform="translate(-175.5 -56.78)"/><rect class="cls-4" x="62.15" y="91.65" width="222" height="80" rx="6.47"/><path class="cls-5" d="M309.8,182.91a4.36,4.36,0,0,1,3.6,1.59,6.91,6.91,0,0,1,1.29,4.48,7,7,0,0,1-1.3,4.51,4.35,4.35,0,0,1-3.59,1.6,5.11,5.11,0,0,1-2.1-.42,3.89,3.89,0,0,1-1.6-1.31H306l-.37,1.52h-1.28V178.16h1.78v4.06c0,.91,0,1.73-.08,2.45h.08A4.24,4.24,0,0,1,309.8,182.91Zm-.26,1.49a3.09,3.09,0,0,0-2.63,1,8.05,8.05,0,0,0,0,7.08,3.14,3.14,0,0,0,2.65,1.07,2.75,2.75,0,0,0,2.45-1.2,6.12,6.12,0,0,0,.81-3.44,5.9,5.9,0,0,0-.81-3.43A2.87,2.87,0,0,0,309.54,184.4Z" transform="translate(-175.5 -56.78)"/><path class="cls-5" d="M322.51,195.09a5,5,0,0,1-4-1.57,6.44,6.44,0,0,1-1.4-4.45,6.69,6.69,0,0,1,1.42-4.57,5.13,5.13,0,0,1,4.05-1.61,8.19,8.19,0,0,1,1.7.18,5.6,5.6,0,0,1,1.33.43L325.1,185a7.68,7.68,0,0,0-1.28-.39,5.47,5.47,0,0,0-1.24-.16c-2.39,0-3.59,1.52-3.59,4.58a5.43,5.43,0,0,0,.88,3.33,3,3,0,0,0,2.59,1.16,8,8,0,0,0,3-.64v1.58A6.41,6.41,0,0,1,322.51,195.09Z" transform="translate(-175.5 -56.78)"/><path class="cls-5" d="M338.44,189a6.54,6.54,0,0,1-1.45,4.5,5.15,5.15,0,0,1-4,1.61,5.23,5.23,0,0,1-2.8-.74,4.91,4.91,0,0,1-1.9-2.12,7.51,7.51,0,0,1-.66-3.25,6.47,6.47,0,0,1,1.44-4.48,5.09,5.09,0,0,1,4-1.61,5,5,0,0,1,3.93,1.64A6.48,6.48,0,0,1,338.44,189Zm-9,0a5.62,5.62,0,0,0,.9,3.44,3.58,3.58,0,0,0,5.31,0,5.51,5.51,0,0,0,.91-3.44,5.44,5.44,0,0,0-.91-3.41A3.18,3.18,0,0,0,333,184.4a3.14,3.14,0,0,0-2.64,1.15A5.51,5.51,0,0,0,329.47,189Z" transform="translate(-175.5 -56.78)"/><path class="cls-5" d="M349.62,194.88v-7.62a3.07,3.07,0,0,0-.66-2.15,2.67,2.67,0,0,0-2-.71,3.42,3.42,0,0,0-2.71,1,5.08,5.08,0,0,0-.85,3.3v6.18h-1.79V183.1H343l.29,1.62h.09a3.66,3.66,0,0,1,1.53-1.35,5,5,0,0,1,2.21-.48,4.46,4.46,0,0,1,3.2,1,4.37,4.37,0,0,1,1.07,3.28v7.68Z" transform="translate(-175.5 -56.78)"/><path class="cls-5" d="M362.66,191.67a3,3,0,0,1-1.22,2.53,5.74,5.74,0,0,1-3.44.89,7.39,7.39,0,0,1-3.65-.74V192.7a8.75,8.75,0,0,0,1.82.67,7.3,7.3,0,0,0,1.87.25,4.34,4.34,0,0,0,2.15-.44,1.54,1.54,0,0,0,.15-2.54,9,9,0,0,0-2.32-1.15,12.87,12.87,0,0,1-2.34-1.07,3.28,3.28,0,0,1-1-1,2.78,2.78,0,0,1-.34-1.39,2.66,2.66,0,0,1,1.17-2.27,5.5,5.5,0,0,1,3.22-.83,9.49,9.49,0,0,1,3.71.77l-.63,1.45a8.65,8.65,0,0,0-3.21-.73,3.76,3.76,0,0,0-1.92.4,1.25,1.25,0,0,0-.64,1.1,1.33,1.33,0,0,0,.24.8,2.38,2.38,0,0,0,.78.64,18.2,18.2,0,0,0,2.06.87,7.63,7.63,0,0,1,2.83,1.53A2.74,2.74,0,0,1,362.66,191.67Z" transform="translate(-175.5 -56.78)"/><path class="cls-5" d="M375.72,189a6.49,6.49,0,0,1-1.45,4.5,5.11,5.11,0,0,1-4,1.61,5.27,5.27,0,0,1-2.81-.74,4.89,4.89,0,0,1-1.89-2.12,7.51,7.51,0,0,1-.67-3.25,6.47,6.47,0,0,1,1.44-4.48,5.11,5.11,0,0,1,4-1.61,5,5,0,0,1,3.93,1.64A6.48,6.48,0,0,1,375.72,189Zm-9,0a5.62,5.62,0,0,0,.9,3.44,3.59,3.59,0,0,0,5.32,0,5.58,5.58,0,0,0,.9-3.44,5.5,5.5,0,0,0-.9-3.41,3.64,3.64,0,0,0-5.33,0A5.58,5.58,0,0,0,366.75,189Z" transform="translate(-175.5 -56.78)"/><path class="cls-5" d="M380.63,194.88h-1.78V178.16h1.78Z" transform="translate(-175.5 -56.78)"/><path class="cls-5" d="M389.39,195.09a5.4,5.4,0,0,1-4.12-1.59,6.13,6.13,0,0,1-1.51-4.41,6.77,6.77,0,0,1,1.4-4.52,4.64,4.64,0,0,1,3.76-1.68,4.46,4.46,0,0,1,3.51,1.46,5.57,5.57,0,0,1,1.29,3.84v1.12H385.6a4.68,4.68,0,0,0,1,3.15,3.62,3.62,0,0,0,2.8,1.08,9.49,9.49,0,0,0,3.76-.8v1.59a9.83,9.83,0,0,1-1.79.59A10.69,10.69,0,0,1,389.39,195.09Zm-.49-10.71a2.9,2.9,0,0,0-2.26.93,4.25,4.25,0,0,0-1,2.55h6.15a3.93,3.93,0,0,0-.75-2.58A2.65,2.65,0,0,0,388.9,184.38Z" transform="translate(-175.5 -56.78)"/><rect class="cls-4" x="62.5" y="260.44" width="222" height="80" rx="6.47"/><path class="cls-5" d="M322,342.46a8,8,0,0,1-2.11,6,8.36,8.36,0,0,1-6.08,2h-4.35v-15.7h4.81a7,7,0,0,1,7.73,7.7Zm-1.94.07a6.31,6.31,0,0,0-1.54-4.63,6.15,6.15,0,0,0-4.58-1.56h-2.65v12.55h2.22a6.75,6.75,0,0,0,4.91-1.61A6.33,6.33,0,0,0,320,342.53Z" transform="translate(-175.5 -56.78)"/><path class="cls-5" d="M325.06,335.5a1.19,1.19,0,0,1,.3-.9,1.12,1.12,0,0,1,1.49,0,1.15,1.15,0,0,1,.32.89,1.19,1.19,0,0,1-.32.9,1.1,1.1,0,0,1-1.49,0A1.22,1.22,0,0,1,325.06,335.5Zm1.93,15h-1.78V338.69H327Z" transform="translate(-175.5 -56.78)"/><path class="cls-5" d="M336.15,338.48a6.6,6.6,0,0,1,1.4.13l-.24,1.65a6,6,0,0,0-1.29-.16,3.17,3.17,0,0,0-2.45,1.16,4.26,4.26,0,0,0-1,2.89v6.31h-1.78V338.69h1.47l.2,2.18h.09a5.16,5.16,0,0,1,1.58-1.77A3.5,3.5,0,0,1,336.15,338.48Z" transform="translate(-175.5 -56.78)"/><path class="cls-5" d="M344.73,350.68a5.42,5.42,0,0,1-4.12-1.59,6.14,6.14,0,0,1-1.51-4.42,6.86,6.86,0,0,1,1.4-4.52,4.68,4.68,0,0,1,3.77-1.67,4.44,4.44,0,0,1,3.5,1.45,5.57,5.57,0,0,1,1.29,3.84v1.13H341a4.62,4.62,0,0,0,1.05,3.15,3.62,3.62,0,0,0,2.79,1.07,9.47,9.47,0,0,0,3.76-.79v1.59a9.66,9.66,0,0,1-1.78.58A10,10,0,0,1,344.73,350.68ZM344.25,340a2.92,2.92,0,0,0-2.26.92,4.23,4.23,0,0,0-1,2.56h6.16a3.91,3.91,0,0,0-.75-2.58A2.66,2.66,0,0,0,344.25,340Z" transform="translate(-175.5 -56.78)"/><path class="cls-5" d="M356.8,350.68a5,5,0,0,1-3.95-1.57,6.47,6.47,0,0,1-1.41-4.46,6.65,6.65,0,0,1,1.43-4.56,5.1,5.1,0,0,1,4.05-1.61,8.19,8.19,0,0,1,1.7.18,5.18,5.18,0,0,1,1.33.43l-.55,1.51a9.85,9.85,0,0,0-1.29-.39,5.86,5.86,0,0,0-1.23-.15q-3.58,0-3.59,4.57a5.39,5.39,0,0,0,.88,3.33,3,3,0,0,0,2.59,1.16,8,8,0,0,0,3-.63v1.58A6.43,6.43,0,0,1,356.8,350.68Z" transform="translate(-175.5 -56.78)"/><path class="cls-5" d="M366.38,349.21a5.49,5.49,0,0,0,.91-.07c.29-.05.52-.1.7-.15v1.37a3.45,3.45,0,0,1-.86.23,6.39,6.39,0,0,1-1,.09q-3.42,0-3.42-3.6v-7H361v-.86l1.68-.74.75-2.52h1v2.73h3.42v1.39h-3.42V347a2.38,2.38,0,0,0,.51,1.63A1.77,1.77,0,0,0,366.38,349.21Z" transform="translate(-175.5 -56.78)"/><path class="cls-5" d="M380.5,344.57a6.45,6.45,0,0,1-1.45,4.49,5.11,5.11,0,0,1-4,1.62,5.35,5.35,0,0,1-2.8-.74,4.85,4.85,0,0,1-1.89-2.13,7.44,7.44,0,0,1-.67-3.24,6.49,6.49,0,0,1,1.44-4.49,5.1,5.1,0,0,1,4-1.6,5,5,0,0,1,3.93,1.64A6.48,6.48,0,0,1,380.5,344.57Zm-9,0a5.57,5.57,0,0,0,.9,3.43,3.15,3.15,0,0,0,2.66,1.19,3.18,3.18,0,0,0,2.66-1.18,5.58,5.58,0,0,0,.9-3.44,5.48,5.48,0,0,0-.9-3.41,3.19,3.19,0,0,0-2.68-1.17,3.15,3.15,0,0,0-2.65,1.15A5.58,5.58,0,0,0,371.53,344.57Z" transform="translate(-175.5 -56.78)"/><path class="cls-5" d="M389,338.48a6.77,6.77,0,0,1,1.41.13l-.25,1.65a6,6,0,0,0-1.29-.16,3.13,3.13,0,0,0-2.44,1.16,4.22,4.22,0,0,0-1,2.89v6.31h-1.78V338.69h1.47l.2,2.18h.09A5.26,5.26,0,0,1,387,339.1,3.5,3.5,0,0,1,389,338.48Z" transform="translate(-175.5 -56.78)"/><path class="cls-5" d="M319.76,368.86a7.93,7.93,0,0,1-2.11,5.95,8.36,8.36,0,0,1-6.08,2.05h-4.35v-15.7H312a7,7,0,0,1,7.72,7.7Zm-1.93.07a6.3,6.3,0,0,0-1.55-4.63,6.15,6.15,0,0,0-4.58-1.56h-2.65v12.55h2.22a6.75,6.75,0,0,0,4.91-1.61A6.35,6.35,0,0,0,317.83,368.93Z" transform="translate(-175.5 -56.78)"/><path class="cls-5" d="M330.23,376.86l-.35-1.67h-.09a4.88,4.88,0,0,1-1.75,1.5,5.43,5.43,0,0,1-2.19.39,3.92,3.92,0,0,1-2.74-.9,3.27,3.27,0,0,1-1-2.57c0-2.38,1.9-3.62,5.71-3.74l2-.06v-.73a3,3,0,0,0-.59-2.05,2.46,2.46,0,0,0-1.91-.66,7.79,7.79,0,0,0-3.33.9l-.55-1.36a8.64,8.64,0,0,1,4-1,4.51,4.51,0,0,1,3.12.93,3.9,3.9,0,0,1,1,3v8Zm-4-1.25a3.61,3.61,0,0,0,2.61-.92,3.37,3.37,0,0,0,.95-2.55v-1.07l-1.78.08a6.51,6.51,0,0,0-3.07.66,2,2,0,0,0-.94,1.82,1.82,1.82,0,0,0,.59,1.47A2.4,2.4,0,0,0,326.21,375.61Z" transform="translate(-175.5 -56.78)"/><path class="cls-5" d="M340.2,377.08a5.42,5.42,0,0,1-4.12-1.59,6.18,6.18,0,0,1-1.51-4.42,6.81,6.81,0,0,1,1.41-4.52,4.65,4.65,0,0,1,3.76-1.67,4.43,4.43,0,0,1,3.5,1.45,5.57,5.57,0,0,1,1.29,3.84v1.13h-8.11a4.72,4.72,0,0,0,1.05,3.15,3.63,3.63,0,0,0,2.8,1.07,9.51,9.51,0,0,0,3.76-.79v1.59a9.75,9.75,0,0,1-1.79.58A9.9,9.9,0,0,1,340.2,377.08Zm-.48-10.71a2.92,2.92,0,0,0-2.26.92,4.29,4.29,0,0,0-1,2.56h6.16a3.91,3.91,0,0,0-.75-2.58A2.65,2.65,0,0,0,339.72,366.37Z" transform="translate(-175.5 -56.78)"/><path class="cls-5" d="M362.58,376.86v-7.65a3.21,3.21,0,0,0-.6-2.12,2.36,2.36,0,0,0-1.87-.7,3,3,0,0,0-2.46,1,4.53,4.53,0,0,0-.8,2.94v6.57h-1.78v-7.65a3.21,3.21,0,0,0-.6-2.12,2.37,2.37,0,0,0-1.88-.7,2.92,2.92,0,0,0-2.46,1,5.41,5.41,0,0,0-.78,3.29v6.17h-1.78V365.09H349l.29,1.61h.09a3.47,3.47,0,0,1,1.42-1.34,4.38,4.38,0,0,1,2.06-.48c1.84,0,3,.66,3.61,2h.08a3.78,3.78,0,0,1,1.53-1.46,4.8,4.8,0,0,1,2.28-.53,4,4,0,0,1,3,1,4.61,4.61,0,0,1,1,3.28v7.68Z" transform="translate(-175.5 -56.78)"/><path class="cls-5" d="M378.2,371a6.5,6.5,0,0,1-1.45,4.49,5.12,5.12,0,0,1-4,1.62,5.32,5.32,0,0,1-2.8-.74,4.85,4.85,0,0,1-1.89-2.13,7.3,7.3,0,0,1-.67-3.24,6.49,6.49,0,0,1,1.44-4.49,5.09,5.09,0,0,1,4-1.6,5,5,0,0,1,3.92,1.64A6.48,6.48,0,0,1,378.2,371Zm-9,0a5.57,5.57,0,0,0,.9,3.43,3.57,3.57,0,0,0,5.31,0,5.51,5.51,0,0,0,.91-3.44,5.42,5.42,0,0,0-.91-3.41,3.18,3.18,0,0,0-2.68-1.17,3.11,3.11,0,0,0-2.64,1.15A5.51,5.51,0,0,0,369.23,371Z" transform="translate(-175.5 -56.78)"/><path class="cls-5" d="M389.38,376.86v-7.61a3.06,3.06,0,0,0-.66-2.15,2.67,2.67,0,0,0-2.05-.71,3.35,3.35,0,0,0-2.7,1,5,5,0,0,0-.86,3.3v6.17h-1.79V365.09h1.45l.29,1.61h.09a3.63,3.63,0,0,1,1.54-1.35,5.07,5.07,0,0,1,2.2-.47,4.49,4.49,0,0,1,3.2,1,4.4,4.4,0,0,1,1.07,3.28v7.68Z" transform="translate(-175.5 -56.78)"/><rect class="cls-4" x="62.5" y="429.44" width="222" height="80" rx="6.47"/><path class="cls-5" d="M319.37,518.37a5.11,5.11,0,0,0-4.08,1.72,6.94,6.94,0,0,0-1.5,4.72,7.12,7.12,0,0,0,1.44,4.77,5.14,5.14,0,0,0,4.12,1.68,14.18,14.18,0,0,0,3.75-.59v1.6a11.51,11.51,0,0,1-4,.61,6.78,6.78,0,0,1-5.35-2.11,8.63,8.63,0,0,1-1.89-6,9.34,9.34,0,0,1,.91-4.25,6.5,6.5,0,0,1,2.62-2.82,7.92,7.92,0,0,1,4-1,9.75,9.75,0,0,1,4.32.91l-.77,1.57A8.32,8.32,0,0,0,319.37,518.37Z" transform="translate(-175.5 -56.78)"/><path class="cls-5" d="M333.5,532.67l-.36-1.68h-.08a4.9,4.9,0,0,1-1.76,1.5,5.35,5.35,0,0,1-2.18.39,3.94,3.94,0,0,1-2.75-.9,3.3,3.3,0,0,1-1-2.57c0-2.38,1.9-3.62,5.7-3.74l2-.06v-.73a3,3,0,0,0-.6-2,2.43,2.43,0,0,0-1.9-.66,7.79,7.79,0,0,0-3.33.9l-.55-1.36a8.07,8.07,0,0,1,1.91-.74,8.17,8.17,0,0,1,2.07-.27,4.52,4.52,0,0,1,3.13.93,3.94,3.94,0,0,1,1,3v8Zm-4-1.26a3.68,3.68,0,0,0,2.62-.91,3.41,3.41,0,0,0,1-2.56v-1.06l-1.79.07a6.46,6.46,0,0,0-3.06.66,2,2,0,0,0-.94,1.82,1.82,1.82,0,0,0,.58,1.47A2.42,2.42,0,0,0,329.47,531.41Z" transform="translate(-175.5 -56.78)"/><path class="cls-5" d="M342.3,531.41a5.41,5.41,0,0,0,.91-.07,6.7,6.7,0,0,0,.7-.15v1.37a3.45,3.45,0,0,1-.86.23,6.39,6.39,0,0,1-1,.09q-3.42,0-3.42-3.6v-7h-1.68v-.86l1.68-.74.76-2.52h1v2.73h3.41v1.39h-3.41v6.93a2.36,2.36,0,0,0,.5,1.63A1.77,1.77,0,0,0,342.3,531.41Z" transform="translate(-175.5 -56.78)"/><path class="cls-5" d="M353.5,532.67l-.35-1.68h-.09a4.9,4.9,0,0,1-1.76,1.5,5.35,5.35,0,0,1-2.18.39,4,4,0,0,1-2.75-.9,3.3,3.3,0,0,1-1-2.57c0-2.38,1.9-3.62,5.7-3.74l2-.06v-.73a3,3,0,0,0-.59-2,2.47,2.47,0,0,0-1.91-.66,7.79,7.79,0,0,0-3.33.9l-.55-1.36a8.64,8.64,0,0,1,4-1,4.51,4.51,0,0,1,3.12.93,3.94,3.94,0,0,1,1,3v8Zm-4-1.26a3.68,3.68,0,0,0,2.62-.91,3.41,3.41,0,0,0,1-2.56v-1.06l-1.78.07a6.51,6.51,0,0,0-3.07.66,2,2,0,0,0-.94,1.82,1.82,1.82,0,0,0,.58,1.47A2.42,2.42,0,0,0,349.47,531.41Z" transform="translate(-175.5 -56.78)"/><path class="cls-5" d="M360.28,532.67H358.5V516h1.78Z" transform="translate(-175.5 -56.78)"/><path class="cls-5" d="M374.22,526.77a6.45,6.45,0,0,1-1.45,4.49,5.08,5.08,0,0,1-4,1.62,5.36,5.36,0,0,1-2.81-.74,5,5,0,0,1-1.89-2.13,7.44,7.44,0,0,1-.66-3.24,6.49,6.49,0,0,1,1.43-4.49,5.1,5.1,0,0,1,4-1.6,5,5,0,0,1,3.93,1.64A6.48,6.48,0,0,1,374.22,526.77Zm-9,0a5.55,5.55,0,0,0,.91,3.44,3.14,3.14,0,0,0,2.65,1.18,3.17,3.17,0,0,0,2.66-1.18,5.58,5.58,0,0,0,.91-3.44,5.48,5.48,0,0,0-.91-3.41,3.19,3.19,0,0,0-2.68-1.17,3.15,3.15,0,0,0-2.65,1.15A5.58,5.58,0,0,0,365.25,526.77Z" transform="translate(-175.5 -56.78)"/><path class="cls-5" d="M387,520.89V522l-2.18.26a3.88,3.88,0,0,1,.54,1,3.72,3.72,0,0,1,.24,1.37,3.51,3.51,0,0,1-1.18,2.76,4.77,4.77,0,0,1-3.25,1,6.2,6.2,0,0,1-1-.08,1.75,1.75,0,0,0-1.14,1.51.77.77,0,0,0,.4.71,2.83,2.83,0,0,0,1.37.24h2.08a4.68,4.68,0,0,1,2.94.8,2.81,2.81,0,0,1,1,2.34,3.33,3.33,0,0,1-1.56,3,8.37,8.37,0,0,1-4.58,1,6.26,6.26,0,0,1-3.56-.86,2.76,2.76,0,0,1-1.25-2.43,2.79,2.79,0,0,1,.68-1.86,3.57,3.57,0,0,1,1.94-1.06,1.84,1.84,0,0,1-.76-.63,1.72,1.72,0,0,1-.31-1,1.9,1.9,0,0,1,.35-1.13,3.66,3.66,0,0,1,1.08-.93,3.15,3.15,0,0,1-1.48-1.28,3.7,3.7,0,0,1-.58-2.06,3.84,3.84,0,0,1,1.16-3,4.77,4.77,0,0,1,3.29-1,6.08,6.08,0,0,1,1.66.21Zm-9.38,13.75a1.59,1.59,0,0,0,.8,1.45,4.45,4.45,0,0,0,2.31.5,6.42,6.42,0,0,0,3.33-.68,2,2,0,0,0,1.08-1.82,1.42,1.42,0,0,0-.6-1.32,4.52,4.52,0,0,0-2.22-.37h-2.14a2.79,2.79,0,0,0-1.89.58A2.06,2.06,0,0,0,377.6,534.64Zm1-10a2.37,2.37,0,0,0,.7,1.87,2.81,2.81,0,0,0,1.95.64,2.28,2.28,0,0,0,2.61-2.54,2.34,2.34,0,0,0-2.65-2.65,2.6,2.6,0,0,0-1.93.67A2.73,2.73,0,0,0,378.56,524.66Z" transform="translate(-175.5 -56.78)"/><rect class="cls-4" x="62.5" y="644.44" width="222" height="80" rx="6.47"/><path class="cls-5" d="M332.58,739.66a7.93,7.93,0,0,1-2.11,6,8.36,8.36,0,0,1-6.07,2.06H320V732h4.82a7,7,0,0,1,7.72,7.7Zm-1.93.07a6.34,6.34,0,0,0-1.54-4.63,6.19,6.19,0,0,0-4.59-1.56h-2.65v12.55h2.22a6.75,6.75,0,0,0,4.91-1.61A6.33,6.33,0,0,0,330.65,739.73Z" transform="translate(-175.5 -56.78)"/><path class="cls-5" d="M336.08,732h4.44a8.4,8.4,0,0,1,4.52.93,3.32,3.32,0,0,1,1.4,3,3.39,3.39,0,0,1-.78,2.3,3.74,3.74,0,0,1-2.27,1.18v.11c2.38.4,3.57,1.66,3.57,3.76a4,4,0,0,1-1.42,3.28,6,6,0,0,1-4,1.19h-5.48Zm1.83,6.72h3a4.94,4.94,0,0,0,2.78-.6,2.37,2.37,0,0,0,.85-2.05,2.08,2.08,0,0,0-.95-1.91,5.91,5.91,0,0,0-3-.58h-2.68Zm0,1.55v5.88h3.28a4.67,4.67,0,0,0,2.86-.74,2.72,2.72,0,0,0,1-2.3,2.45,2.45,0,0,0-1-2.15,5.28,5.28,0,0,0-3-.69Z" transform="translate(-175.5 -56.78)"/><path class="cls-5" d="M357.29,747.67,352,733.74h-.09q.15,1.66.15,3.93v10h-1.68V732h2.75l5,13h.09l5-13h2.73v15.71h-1.82V737.55c0-1.16.05-2.42.15-3.79h-.09l-5.37,13.91Z" transform="translate(-175.5 -56.78)"/><path class="cls-5" d="M379.06,743.49a3.85,3.85,0,0,1-1.5,3.23,6.55,6.55,0,0,1-4.08,1.16,10.2,10.2,0,0,1-4.3-.72V745.4a11.77,11.77,0,0,0,4.36.88,4.57,4.57,0,0,0,2.75-.69,2.28,2.28,0,0,0,.92-1.93,2.56,2.56,0,0,0-.32-1.34,3,3,0,0,0-1.1-1,15.22,15.22,0,0,0-2.34-1,7.41,7.41,0,0,1-3.13-1.86,4.12,4.12,0,0,1-.94-2.8,3.48,3.48,0,0,1,1.37-2.89,5.64,5.64,0,0,1,3.61-1.08,10.65,10.65,0,0,1,4.3.86l-.56,1.59a9.84,9.84,0,0,0-3.79-.81,3.68,3.68,0,0,0-2.26.62,2,2,0,0,0-.82,1.73,2.68,2.68,0,0,0,.3,1.34,2.87,2.87,0,0,0,1,1,12.29,12.29,0,0,0,2.18,1,8.58,8.58,0,0,1,3.4,1.9A3.7,3.7,0,0,1,379.06,743.49Z" transform="translate(-175.5 -56.78)"/><rect class="cls-4" x="499.5" y="260.44" width="222" height="80" rx="6.47"/><path class="cls-5" d="M725.78,363.67H724V348h8.76v1.62h-6.93v5.75h6.51V357h-6.51Z" transform="translate(-175.5 -56.78)"/><path class="cls-5" d="M734.89,348.7a1.19,1.19,0,0,1,.3-.9,1,1,0,0,1,.75-.28,1.06,1.06,0,0,1,.74.29,1.15,1.15,0,0,1,.31.89,1.19,1.19,0,0,1-.31.9,1.1,1.1,0,0,1-1.49,0A1.22,1.22,0,0,1,734.89,348.7Zm1.93,15H735V351.89h1.78Z" transform="translate(-175.5 -56.78)"/><path class="cls-5" d="M742.39,363.67H740.6V347h1.79Z" transform="translate(-175.5 -56.78)"/><path class="cls-5" d="M751.14,363.88a5.42,5.42,0,0,1-4.12-1.59,6.18,6.18,0,0,1-1.51-4.41,6.87,6.87,0,0,1,1.4-4.53,4.68,4.68,0,0,1,3.77-1.67,4.44,4.44,0,0,1,3.5,1.45,5.57,5.57,0,0,1,1.29,3.84v1.13h-8.11a4.72,4.72,0,0,0,1,3.15,3.63,3.63,0,0,0,2.8,1.07,9.51,9.51,0,0,0,3.76-.79v1.59a9.75,9.75,0,0,1-1.79.58A9.9,9.9,0,0,1,751.14,363.88Zm-.48-10.71a2.92,2.92,0,0,0-2.26.92,4.23,4.23,0,0,0-1,2.56h6.16a3.93,3.93,0,0,0-.75-2.58A2.66,2.66,0,0,0,750.66,353.17Z" transform="translate(-175.5 -56.78)"/><path class="cls-5" d="M777,355.66a7.93,7.93,0,0,1-2.11,5.95,8.36,8.36,0,0,1-6.08,2.06h-4.35V348h4.82a7,7,0,0,1,7.72,7.7Zm-1.93.07a6.32,6.32,0,0,0-1.55-4.63,6.15,6.15,0,0,0-4.58-1.56h-2.65v12.55h2.22a6.75,6.75,0,0,0,4.91-1.61A6.33,6.33,0,0,0,775.1,355.73Z" transform="translate(-175.5 -56.78)"/><path class="cls-5" d="M787.5,363.67l-.35-1.68h-.09a4.88,4.88,0,0,1-1.75,1.5,5.43,5.43,0,0,1-2.19.39,3.92,3.92,0,0,1-2.74-.9,3.27,3.27,0,0,1-1-2.57c0-2.38,1.9-3.62,5.71-3.74l2-.06v-.73a3,3,0,0,0-.59-2.05,2.46,2.46,0,0,0-1.91-.66,7.79,7.79,0,0,0-3.33.9l-.55-1.36a8.64,8.64,0,0,1,4-1,4.51,4.51,0,0,1,3.12.93,3.9,3.9,0,0,1,1,3v8Zm-4-1.26a3.63,3.63,0,0,0,2.61-.91,3.41,3.41,0,0,0,.95-2.56v-1.06l-1.78.07a6.51,6.51,0,0,0-3.07.66,2,2,0,0,0-.94,1.82,1.82,1.82,0,0,0,.59,1.47A2.4,2.4,0,0,0,783.48,362.41Z" transform="translate(-175.5 -56.78)"/><path class="cls-5" d="M797.47,363.88a5.42,5.42,0,0,1-4.12-1.59,6.18,6.18,0,0,1-1.51-4.41,6.82,6.82,0,0,1,1.41-4.53,4.66,4.66,0,0,1,3.76-1.67,4.43,4.43,0,0,1,3.5,1.45A5.57,5.57,0,0,1,801.8,357v1.13h-8.11a4.72,4.72,0,0,0,1,3.15,3.63,3.63,0,0,0,2.8,1.07,9.51,9.51,0,0,0,3.76-.79v1.59a9.75,9.75,0,0,1-1.79.58A9.9,9.9,0,0,1,797.47,363.88ZM797,353.17a2.92,2.92,0,0,0-2.26.92,4.29,4.29,0,0,0-1,2.56h6.16a3.93,3.93,0,0,0-.75-2.58A2.65,2.65,0,0,0,797,353.17Z" transform="translate(-175.5 -56.78)"/><path class="cls-5" d="M819.85,363.67V356a3.16,3.16,0,0,0-.6-2.11,2.33,2.33,0,0,0-1.87-.71,3,3,0,0,0-2.46,1,4.55,4.55,0,0,0-.8,2.94v6.58h-1.78V356a3.16,3.16,0,0,0-.6-2.11,2.34,2.34,0,0,0-1.88-.71,2.92,2.92,0,0,0-2.46,1,5.42,5.42,0,0,0-.77,3.29v6.18h-1.79V351.89h1.45l.29,1.61h.09a3.47,3.47,0,0,1,1.42-1.34,4.38,4.38,0,0,1,2.06-.48c1.84,0,3,.66,3.61,2h.08a3.78,3.78,0,0,1,1.53-1.46,4.82,4.82,0,0,1,2.28-.53,4,4,0,0,1,3,1,4.61,4.61,0,0,1,1,3.28v7.69Z" transform="translate(-175.5 -56.78)"/><path class="cls-5" d="M835.47,357.77a6.5,6.5,0,0,1-1.45,4.49,5.12,5.12,0,0,1-4,1.62,5.32,5.32,0,0,1-2.8-.74,4.85,4.85,0,0,1-1.89-2.13,7.3,7.3,0,0,1-.67-3.24,6.49,6.49,0,0,1,1.44-4.49,5.09,5.09,0,0,1,4-1.6,5,5,0,0,1,3.92,1.64A6.48,6.48,0,0,1,835.47,357.77Zm-9,0a5.62,5.62,0,0,0,.9,3.44,3.58,3.58,0,0,0,5.31,0,5.51,5.51,0,0,0,.91-3.44,5.42,5.42,0,0,0-.91-3.41,3.18,3.18,0,0,0-2.68-1.17,3.13,3.13,0,0,0-2.64,1.15A5.51,5.51,0,0,0,826.5,357.77Z" transform="translate(-175.5 -56.78)"/><path class="cls-5" d="M846.65,363.67v-7.62a3.11,3.11,0,0,0-.65-2.15,2.71,2.71,0,0,0-2.06-.71,3.35,3.35,0,0,0-2.7,1,5,5,0,0,0-.86,3.3v6.18h-1.79V351.89H840l.29,1.61h.09a3.69,3.69,0,0,1,1.54-1.35,5.1,5.1,0,0,1,2.2-.47,4.49,4.49,0,0,1,3.2,1,4.36,4.36,0,0,1,1.07,3.28v7.69Z" transform="translate(-175.5 -56.78)"/><rect class="cls-4" x="499.5" y="429.44" width="222" height="80" rx="6.47"/><path class="cls-5" d="M757.65,515.29a3.85,3.85,0,0,1-1.5,3.23,6.57,6.57,0,0,1-4.08,1.16,10.2,10.2,0,0,1-4.3-.72V517.2a11.77,11.77,0,0,0,4.36.88,4.57,4.57,0,0,0,2.75-.69,2.28,2.28,0,0,0,.92-1.93,2.56,2.56,0,0,0-.32-1.34,3,3,0,0,0-1.1-1,15.22,15.22,0,0,0-2.34-1,7.41,7.41,0,0,1-3.13-1.86,4.12,4.12,0,0,1-.94-2.8,3.48,3.48,0,0,1,1.37-2.89,5.64,5.64,0,0,1,3.61-1.08,10.65,10.65,0,0,1,4.3.86l-.57,1.59a9.75,9.75,0,0,0-3.78-.81,3.68,3.68,0,0,0-2.26.62,2,2,0,0,0-.82,1.73,2.68,2.68,0,0,0,.3,1.34,2.87,2.87,0,0,0,1,.95,12.29,12.29,0,0,0,2.18,1,8.58,8.58,0,0,1,3.4,1.9A3.7,3.7,0,0,1,757.65,515.29Z" transform="translate(-175.5 -56.78)"/><path class="cls-5" d="M764.4,518.21a5.41,5.41,0,0,0,.91-.07,6.7,6.7,0,0,0,.7-.15v1.37a3.32,3.32,0,0,1-.86.23,6.39,6.39,0,0,1-1,.09q-3.42,0-3.42-3.6v-7H759v-.86l1.68-.74.76-2.52h1v2.73h3.41v1.39h-3.41V516a2.37,2.37,0,0,0,.5,1.63A1.77,1.77,0,0,0,764.4,518.21Z" transform="translate(-175.5 -56.78)"/><path class="cls-5" d="M778.52,513.57a6.45,6.45,0,0,1-1.45,4.49,5.08,5.08,0,0,1-4,1.62,5.36,5.36,0,0,1-2.81-.74,5,5,0,0,1-1.89-2.13,7.44,7.44,0,0,1-.66-3.24,6.49,6.49,0,0,1,1.44-4.49,5.08,5.08,0,0,1,4-1.6,5,5,0,0,1,3.93,1.64A6.48,6.48,0,0,1,778.52,513.57Zm-9,0a5.5,5.5,0,0,0,.91,3.43,3.12,3.12,0,0,0,2.65,1.19,3.17,3.17,0,0,0,2.66-1.18,5.58,5.58,0,0,0,.91-3.44,5.48,5.48,0,0,0-.91-3.41,3.19,3.19,0,0,0-2.68-1.17,3.11,3.11,0,0,0-2.64,1.15A5.51,5.51,0,0,0,769.55,513.57Z" transform="translate(-175.5 -56.78)"/><path class="cls-5" d="M787,507.48a6.77,6.77,0,0,1,1.41.13l-.25,1.65a6,6,0,0,0-1.29-.16,3.15,3.15,0,0,0-2.44,1.16,4.22,4.22,0,0,0-1,2.89v6.31h-1.78V507.69h1.47l.21,2.18h.08A5.26,5.26,0,0,1,785,508.1,3.52,3.52,0,0,1,787,507.48Z" transform="translate(-175.5 -56.78)"/><path class="cls-5" d="M797.87,519.46l-.35-1.67h-.09a4.9,4.9,0,0,1-1.76,1.5,5.35,5.35,0,0,1-2.18.39,3.94,3.94,0,0,1-2.75-.9,3.3,3.3,0,0,1-1-2.57c0-2.38,1.9-3.62,5.7-3.74l2-.06v-.73a3,3,0,0,0-.59-2.05A2.47,2.47,0,0,0,795,509a7.79,7.79,0,0,0-3.33.9l-.55-1.36a8.64,8.64,0,0,1,4-1,4.51,4.51,0,0,1,3.12.93,3.94,3.94,0,0,1,1,3v8Zm-4-1.25a3.64,3.64,0,0,0,2.62-.92,3.37,3.37,0,0,0,.95-2.55v-1.07l-1.78.08a6.48,6.48,0,0,0-3.07.66,2,2,0,0,0-.94,1.82,1.82,1.82,0,0,0,.58,1.47A2.42,2.42,0,0,0,793.84,518.21Z" transform="translate(-175.5 -56.78)"/><path class="cls-5" d="M812.5,507.69v1.13l-2.18.26a3.74,3.74,0,0,1,.77,2.35,3.48,3.48,0,0,1-1.18,2.76,4.76,4.76,0,0,1-3.24,1,6.2,6.2,0,0,1-1-.08,1.75,1.75,0,0,0-1.14,1.51.75.75,0,0,0,.4.71,2.79,2.79,0,0,0,1.36.24h2.09a4.63,4.63,0,0,1,2.93.8,2.79,2.79,0,0,1,1,2.34,3.32,3.32,0,0,1-1.57,3,8.31,8.31,0,0,1-4.57,1,6.32,6.32,0,0,1-3.57-.86,2.78,2.78,0,0,1-1.25-2.43,2.75,2.75,0,0,1,.69-1.86,3.54,3.54,0,0,1,1.93-1.06,1.82,1.82,0,0,1-.75-.63,1.65,1.65,0,0,1-.31-1,2,2,0,0,1,.34-1.13,3.72,3.72,0,0,1,1.09-.93,3.22,3.22,0,0,1-1.49-1.28,4.26,4.26,0,0,1,.59-5.05,4.76,4.76,0,0,1,3.28-1,6.1,6.1,0,0,1,1.67.21Zm-9.39,13.75a1.59,1.59,0,0,0,.81,1.45,4.43,4.43,0,0,0,2.31.5,6.41,6.41,0,0,0,3.32-.68,2,2,0,0,0,1.08-1.82,1.44,1.44,0,0,0-.59-1.32,4.52,4.52,0,0,0-2.22-.37h-2.14a2.79,2.79,0,0,0-1.89.58A2.06,2.06,0,0,0,803.11,521.44Zm1-10a2.37,2.37,0,0,0,.7,1.87,2.78,2.78,0,0,0,1.94.63c1.74,0,2.61-.84,2.61-2.53a2.34,2.34,0,0,0-2.64-2.65,2.6,2.6,0,0,0-1.93.67A2.69,2.69,0,0,0,804.08,511.46Z" transform="translate(-175.5 -56.78)"/><path class="cls-5" d="M819.89,519.68a5.42,5.42,0,0,1-4.12-1.59,6.18,6.18,0,0,1-1.51-4.42,6.86,6.86,0,0,1,1.4-4.52,4.68,4.68,0,0,1,3.77-1.67,4.44,4.44,0,0,1,3.5,1.45,5.57,5.57,0,0,1,1.29,3.84v1.13h-8.11a4.72,4.72,0,0,0,1,3.15,3.63,3.63,0,0,0,2.8,1.07,9.51,9.51,0,0,0,3.76-.79v1.59a9.75,9.75,0,0,1-1.79.58A9.9,9.9,0,0,1,819.89,519.68ZM819.41,509a2.92,2.92,0,0,0-2.26.92,4.23,4.23,0,0,0-1,2.56h6.16a3.91,3.91,0,0,0-.75-2.58A2.66,2.66,0,0,0,819.41,509Z" transform="translate(-175.5 -56.78)"/><path class="cls-5" d="M756.76,537.86a7.93,7.93,0,0,1-2.11,5.95,8.36,8.36,0,0,1-6.08,2.05h-4.35v-15.7H749a7,7,0,0,1,7.72,7.7Zm-1.93.07a6.34,6.34,0,0,0-1.54-4.63,6.19,6.19,0,0,0-4.59-1.56h-2.65v12.55h2.22a6.75,6.75,0,0,0,4.91-1.61A6.35,6.35,0,0,0,754.83,537.93Z" transform="translate(-175.5 -56.78)"/><path class="cls-5" d="M767.23,545.86l-.35-1.67h-.09a4.88,4.88,0,0,1-1.75,1.5,5.43,5.43,0,0,1-2.19.39,3.92,3.92,0,0,1-2.74-.9,3.27,3.27,0,0,1-1-2.57c0-2.38,1.9-3.62,5.71-3.74l2-.06v-.73a3,3,0,0,0-.59-2.05,2.46,2.46,0,0,0-1.91-.66,7.79,7.79,0,0,0-3.33.9l-.55-1.36a8.64,8.64,0,0,1,4-1,4.51,4.51,0,0,1,3.12.93,3.9,3.9,0,0,1,1,3v8Zm-4-1.25a3.61,3.61,0,0,0,2.61-.92,3.33,3.33,0,0,0,.95-2.55v-1.07l-1.78.08a6.51,6.51,0,0,0-3.07.66,2,2,0,0,0-.94,1.82,1.82,1.82,0,0,0,.59,1.47A2.4,2.4,0,0,0,763.21,544.61Z" transform="translate(-175.5 -56.78)"/><path class="cls-5" d="M777.2,546.08a5.42,5.42,0,0,1-4.12-1.59,6.18,6.18,0,0,1-1.51-4.42,6.86,6.86,0,0,1,1.4-4.52,4.68,4.68,0,0,1,3.77-1.67,4.44,4.44,0,0,1,3.5,1.45,5.57,5.57,0,0,1,1.29,3.84v1.13h-8.11a4.72,4.72,0,0,0,1.05,3.15,3.63,3.63,0,0,0,2.8,1.07,9.51,9.51,0,0,0,3.76-.79v1.59a9.75,9.75,0,0,1-1.79.58A9.9,9.9,0,0,1,777.2,546.08Zm-.48-10.71a2.92,2.92,0,0,0-2.26.92,4.23,4.23,0,0,0-1,2.56h6.16a3.91,3.91,0,0,0-.75-2.58A2.65,2.65,0,0,0,776.72,535.37Z" transform="translate(-175.5 -56.78)"/><path class="cls-5" d="M799.58,545.86v-7.65a3.21,3.21,0,0,0-.6-2.12,2.36,2.36,0,0,0-1.87-.7,3,3,0,0,0-2.46,1,4.53,4.53,0,0,0-.8,2.94v6.57h-1.78v-7.65a3.21,3.21,0,0,0-.6-2.12,2.37,2.37,0,0,0-1.88-.7,2.92,2.92,0,0,0-2.46,1,5.41,5.41,0,0,0-.78,3.29v6.17h-1.78V534.09H786l.29,1.61h.09a3.47,3.47,0,0,1,1.42-1.34,4.38,4.38,0,0,1,2.06-.48c1.84,0,3,.66,3.61,2h.08a3.78,3.78,0,0,1,1.53-1.46,4.8,4.8,0,0,1,2.28-.53,4,4,0,0,1,3,1,4.61,4.61,0,0,1,1,3.28v7.68Z" transform="translate(-175.5 -56.78)"/><path class="cls-5" d="M815.2,540a6.5,6.5,0,0,1-1.45,4.49,5.12,5.12,0,0,1-4,1.62,5.32,5.32,0,0,1-2.8-.74,4.85,4.85,0,0,1-1.89-2.13,7.3,7.3,0,0,1-.67-3.24,6.49,6.49,0,0,1,1.44-4.49,5.09,5.09,0,0,1,4-1.6,5,5,0,0,1,3.92,1.64A6.48,6.48,0,0,1,815.2,540Zm-9,0a5.57,5.57,0,0,0,.9,3.43,3.57,3.57,0,0,0,5.31,0,5.51,5.51,0,0,0,.91-3.44,5.42,5.42,0,0,0-.91-3.41,3.18,3.18,0,0,0-2.68-1.17,3.11,3.11,0,0,0-2.64,1.15A5.51,5.51,0,0,0,806.23,540Z" transform="translate(-175.5 -56.78)"/><path class="cls-5" d="M826.38,545.86v-7.61a3.06,3.06,0,0,0-.66-2.15,2.67,2.67,0,0,0-2.05-.71,3.35,3.35,0,0,0-2.7,1,5,5,0,0,0-.86,3.3v6.17h-1.79V534.09h1.45l.29,1.61h.09a3.63,3.63,0,0,1,1.54-1.35,5.07,5.07,0,0,1,2.2-.47,4.49,4.49,0,0,1,3.2,1,4.4,4.4,0,0,1,1.07,3.28v7.68Z" transform="translate(-175.5 -56.78)"/><rect class="cls-4" x="499.5" y="644.44" width="222" height="80" rx="6.47"/><path class="cls-5" d="M725.06,723.34a4.36,4.36,0,0,1-1.63,3.66,7.33,7.33,0,0,1-4.65,1.29h-1.85v6.17H715.1v-15.7h4.07Q725.07,718.76,725.06,723.34Zm-8.13,3.38h1.64a6.11,6.11,0,0,0,3.51-.78,2.89,2.89,0,0,0,1.09-2.52,2.71,2.71,0,0,0-1-2.32,5.32,5.32,0,0,0-3.18-.76h-2Z" transform="translate(-175.5 -56.78)"/><path class="cls-5" d="M736.13,734.46v-7.61a3.06,3.06,0,0,0-.65-2.15,2.68,2.68,0,0,0-2.05-.71,3.4,3.4,0,0,0-2.72,1,5.18,5.18,0,0,0-.85,3.31v6.15h-1.78V717.75h1.78v5.06a12.37,12.37,0,0,1-.08,1.51h.1a3.61,3.61,0,0,1,1.5-1.33,4.83,4.83,0,0,1,2.22-.49,4.56,4.56,0,0,1,3.24,1,4.33,4.33,0,0,1,1.08,3.26v7.68Z" transform="translate(-175.5 -56.78)"/><path class="cls-5" d="M739.71,722.69h1.91l2.58,6.72a23.76,23.76,0,0,1,1,3.31h.09c.09-.36.29-1,.59-1.87s1.27-3.6,2.91-8.16h1.91l-5,13.41a6.84,6.84,0,0,1-1.76,2.82,3.76,3.76,0,0,1-2.47.83,7.29,7.29,0,0,1-1.61-.18v-1.43a6.71,6.71,0,0,0,1.32.13,2.72,2.72,0,0,0,2.62-2.06l.66-1.68Z" transform="translate(-175.5 -56.78)"/><path class="cls-5" d="M760.26,731.25a3,3,0,0,1-1.22,2.54,5.81,5.81,0,0,1-3.44.89,7.51,7.51,0,0,1-3.65-.74v-1.66a8.24,8.24,0,0,0,1.82.68,7.35,7.35,0,0,0,1.87.25,4.22,4.22,0,0,0,2.15-.45,1.54,1.54,0,0,0,.16-2.53,9.57,9.57,0,0,0-2.33-1.16,12.36,12.36,0,0,1-2.33-1.07,3.2,3.2,0,0,1-1-1,2.78,2.78,0,0,1-.33-1.39,2.61,2.61,0,0,1,1.17-2.27,5.41,5.41,0,0,1,3.21-.83,9.28,9.28,0,0,1,3.71.77l-.63,1.45a8.46,8.46,0,0,0-3.21-.73,3.62,3.62,0,0,0-1.91.4,1.23,1.23,0,0,0-.65,1.09,1.34,1.34,0,0,0,.24.81,2.48,2.48,0,0,0,.78.63,17.78,17.78,0,0,0,2.07.87,7.71,7.71,0,0,1,2.83,1.54A2.69,2.69,0,0,1,760.26,731.25Z" transform="translate(-175.5 -56.78)"/><path class="cls-5" d="M763,719.5a1.19,1.19,0,0,1,.3-.9,1.13,1.13,0,0,1,1.5,0,1.18,1.18,0,0,1,.31.89,1.23,1.23,0,0,1-.31.9,1,1,0,0,1-.75.29,1,1,0,0,1-.75-.29A1.22,1.22,0,0,1,763,719.5Zm1.94,15h-1.79V722.69H765Z" transform="translate(-175.5 -56.78)"/><path class="cls-5" d="M770.49,728.44a21.21,21.21,0,0,1,1.41-1.72l3.8-4h2.11l-4.77,5,5.11,6.75H776l-4.16-5.56-1.34,1.16v4.4h-1.76V717.75h1.76v8.86q0,.6-.09,1.83Z" transform="translate(-175.5 -56.78)"/><path class="cls-5" d="M787.51,734.46l-.35-1.67h-.09a4.88,4.88,0,0,1-1.75,1.5,5.4,5.4,0,0,1-2.19.39,3.92,3.92,0,0,1-2.74-.9,3.27,3.27,0,0,1-1-2.57c0-2.38,1.9-3.62,5.71-3.74l2-.06v-.73a3,3,0,0,0-.6-2,2.46,2.46,0,0,0-1.91-.66,7.79,7.79,0,0,0-3.33.9l-.55-1.36a8.64,8.64,0,0,1,4-1,4.51,4.51,0,0,1,3.12.93,3.9,3.9,0,0,1,1,3v8Zm-4-1.25a3.6,3.6,0,0,0,2.61-.92,3.33,3.33,0,0,0,.95-2.55v-1.07l-1.78.08a6.51,6.51,0,0,0-3.07.66,2,2,0,0,0-.94,1.82,1.82,1.82,0,0,0,.59,1.47A2.4,2.4,0,0,0,783.49,733.21Z" transform="translate(-175.5 -56.78)"/><path class="cls-5" d="M794.29,734.46h-1.78V717.75h1.78Z" transform="translate(-175.5 -56.78)"/><path class="cls-5" d="M797.92,719.5a1.19,1.19,0,0,1,.3-.9,1.11,1.11,0,0,1,.76-.28,1.08,1.08,0,0,1,.74.29,1.15,1.15,0,0,1,.31.89,1.19,1.19,0,0,1-.31.9,1.11,1.11,0,0,1-1.5,0A1.22,1.22,0,0,1,797.92,719.5Zm1.94,15h-1.79V722.69h1.79Z" transform="translate(-175.5 -56.78)"/><path class="cls-5" d="M811.23,731.25a3,3,0,0,1-1.22,2.54,5.79,5.79,0,0,1-3.44.89,7.51,7.51,0,0,1-3.65-.74v-1.66a8.24,8.24,0,0,0,1.82.68,7.35,7.35,0,0,0,1.87.25,4.22,4.22,0,0,0,2.15-.45,1.47,1.47,0,0,0,.75-1.36,1.45,1.45,0,0,0-.59-1.17,9.37,9.37,0,0,0-2.33-1.16,12.36,12.36,0,0,1-2.33-1.07,3.2,3.2,0,0,1-1-1,2.78,2.78,0,0,1-.33-1.39,2.63,2.63,0,0,1,1.17-2.27,5.41,5.41,0,0,1,3.21-.83,9.32,9.32,0,0,1,3.72.77l-.64,1.45a8.46,8.46,0,0,0-3.21-.73,3.62,3.62,0,0,0-1.91.4,1.23,1.23,0,0,0-.65,1.09,1.28,1.28,0,0,0,.25.81,2.43,2.43,0,0,0,.77.63,17.78,17.78,0,0,0,2.07.87,7.71,7.71,0,0,1,2.83,1.54A2.69,2.69,0,0,1,811.23,731.25Z" transform="translate(-175.5 -56.78)"/><path class="cls-5" d="M818.84,734.68a5,5,0,0,1-4-1.57,6.51,6.51,0,0,1-1.4-4.46,6.64,6.64,0,0,1,1.42-4.56,5.11,5.11,0,0,1,4.06-1.61,8.09,8.09,0,0,1,1.69.18,5.41,5.41,0,0,1,1.34.43l-.55,1.51a10.34,10.34,0,0,0-1.29-.39,6,6,0,0,0-1.24-.15q-3.58,0-3.58,4.57a5.46,5.46,0,0,0,.87,3.33,3,3,0,0,0,2.6,1.16,7.93,7.93,0,0,0,3-.63v1.58A6.35,6.35,0,0,1,818.84,734.68Z" transform="translate(-175.5 -56.78)"/><path class="cls-5" d="M832.66,734.46v-7.61a3.06,3.06,0,0,0-.65-2.15,2.68,2.68,0,0,0-2-.71,3.39,3.39,0,0,0-2.72,1,5.18,5.18,0,0,0-.85,3.31v6.15h-1.78V717.75h1.78v5.06a10.44,10.44,0,0,1-.09,1.51h.11a3.61,3.61,0,0,1,1.5-1.33,4.83,4.83,0,0,1,2.22-.49,4.56,4.56,0,0,1,3.24,1,4.33,4.33,0,0,1,1.08,3.26v7.68Z" transform="translate(-175.5 -56.78)"/><path class="cls-5" d="M843.08,734.68a5.42,5.42,0,0,1-4.12-1.59,6.18,6.18,0,0,1-1.5-4.42,6.81,6.81,0,0,1,1.4-4.52,4.66,4.66,0,0,1,3.76-1.67,4.43,4.43,0,0,1,3.5,1.45,5.57,5.57,0,0,1,1.29,3.84v1.13H839.3a4.72,4.72,0,0,0,1.05,3.15,3.65,3.65,0,0,0,2.8,1.07,9.47,9.47,0,0,0,3.76-.79v1.59a9.75,9.75,0,0,1-1.79.58A9.9,9.9,0,0,1,843.08,734.68ZM842.6,724a2.93,2.93,0,0,0-2.26.92,4.29,4.29,0,0,0-1,2.56h6.15a3.91,3.91,0,0,0-.75-2.58A2.65,2.65,0,0,0,842.6,724Z" transform="translate(-175.5 -56.78)"/><path class="cls-5" d="M858.05,731.25a3,3,0,0,1-1.23,2.54,5.76,5.76,0,0,1-3.43.89,7.55,7.55,0,0,1-3.66-.74v-1.66a8.63,8.63,0,0,0,1.82.68,7.43,7.43,0,0,0,1.88.25,4.22,4.22,0,0,0,2.15-.45,1.53,1.53,0,0,0,.15-2.53,9.26,9.26,0,0,0-2.32-1.16,12.21,12.21,0,0,1-2.34-1.07,3.26,3.26,0,0,1-1-1,2.68,2.68,0,0,1-.34-1.39,2.63,2.63,0,0,1,1.17-2.27,5.41,5.41,0,0,1,3.21-.83,9.32,9.32,0,0,1,3.72.77l-.63,1.45A8.5,8.5,0,0,0,854,724a3.66,3.66,0,0,0-1.92.4,1.22,1.22,0,0,0-.64,1.09,1.34,1.34,0,0,0,.24.81,2.37,2.37,0,0,0,.78.63,17.4,17.4,0,0,0,2.06.87,7.62,7.62,0,0,1,2.83,1.54A2.7,2.7,0,0,1,858.05,731.25Z" transform="translate(-175.5 -56.78)"/><path class="cls-5" d="M757.65,756.69a3.85,3.85,0,0,1-1.5,3.23,6.57,6.57,0,0,1-4.08,1.16,10.2,10.2,0,0,1-4.3-.72V758.6a11.77,11.77,0,0,0,4.36.88,4.57,4.57,0,0,0,2.75-.69,2.28,2.28,0,0,0,.92-1.93,2.56,2.56,0,0,0-.32-1.34,3,3,0,0,0-1.1-1,15.22,15.22,0,0,0-2.34-1,7.41,7.41,0,0,1-3.13-1.86,4.12,4.12,0,0,1-.94-2.8,3.48,3.48,0,0,1,1.37-2.89,5.64,5.64,0,0,1,3.61-1.08,10.65,10.65,0,0,1,4.3.86l-.57,1.59a9.75,9.75,0,0,0-3.78-.81,3.68,3.68,0,0,0-2.26.62,2,2,0,0,0-.82,1.73,2.68,2.68,0,0,0,.3,1.34,2.87,2.87,0,0,0,1,1,12.29,12.29,0,0,0,2.18,1,8.58,8.58,0,0,1,3.4,1.9A3.7,3.7,0,0,1,757.65,756.69Z" transform="translate(-175.5 -56.78)"/><path class="cls-5" d="M764.4,759.61a6.07,6.07,0,0,0,1.61-.22v1.37a3.32,3.32,0,0,1-.86.23,6.39,6.39,0,0,1-1,.09q-3.42,0-3.42-3.6v-7H759v-.86l1.68-.74.76-2.52h1v2.73h3.41v1.39h-3.41v6.93A2.36,2.36,0,0,0,763,759,1.77,1.77,0,0,0,764.4,759.61Z" transform="translate(-175.5 -56.78)"/><path class="cls-5" d="M778.52,755a6.45,6.45,0,0,1-1.45,4.49,5.08,5.08,0,0,1-4,1.62,5.36,5.36,0,0,1-2.81-.74,5,5,0,0,1-1.89-2.13,7.44,7.44,0,0,1-.66-3.24,6.49,6.49,0,0,1,1.44-4.49,5.08,5.08,0,0,1,4-1.6,5,5,0,0,1,3.93,1.64A6.48,6.48,0,0,1,778.52,755Zm-9,0a5.55,5.55,0,0,0,.91,3.44,3.14,3.14,0,0,0,2.65,1.18,3.17,3.17,0,0,0,2.66-1.18,5.58,5.58,0,0,0,.91-3.44,5.48,5.48,0,0,0-.91-3.41,3.19,3.19,0,0,0-2.68-1.17,3.11,3.11,0,0,0-2.64,1.15A5.51,5.51,0,0,0,769.55,755Z" transform="translate(-175.5 -56.78)"/><path class="cls-5" d="M787,748.88a6.77,6.77,0,0,1,1.41.13l-.25,1.65a6,6,0,0,0-1.29-.16,3.15,3.15,0,0,0-2.44,1.16,4.22,4.22,0,0,0-1,2.89v6.32h-1.78V749.09h1.47l.21,2.18h.08A5.26,5.26,0,0,1,785,749.5,3.52,3.52,0,0,1,787,748.88Z" transform="translate(-175.5 -56.78)"/><path class="cls-5" d="M797.87,760.87l-.35-1.68h-.09a4.9,4.9,0,0,1-1.76,1.5,5.35,5.35,0,0,1-2.18.39,3.94,3.94,0,0,1-2.75-.9,3.3,3.3,0,0,1-1-2.57c0-2.38,1.9-3.62,5.7-3.74l2-.06v-.73a3,3,0,0,0-.59-2.05,2.47,2.47,0,0,0-1.91-.66,7.79,7.79,0,0,0-3.33.9l-.55-1.36a8.64,8.64,0,0,1,4-1,4.51,4.51,0,0,1,3.12.93,4,4,0,0,1,1,3v8Zm-4-1.26a3.68,3.68,0,0,0,2.62-.91,3.41,3.41,0,0,0,.95-2.56v-1.06l-1.78.07a6.48,6.48,0,0,0-3.07.66,2,2,0,0,0-.94,1.82,1.82,1.82,0,0,0,.58,1.47A2.42,2.42,0,0,0,793.84,759.61Z" transform="translate(-175.5 -56.78)"/><path class="cls-5" d="M812.5,749.09v1.13l-2.18.26a3.88,3.88,0,0,1,.54,1,3.94,3.94,0,0,1,.23,1.37,3.48,3.48,0,0,1-1.18,2.76,4.76,4.76,0,0,1-3.24,1,6.2,6.2,0,0,1-1-.08,1.75,1.75,0,0,0-1.14,1.51.75.75,0,0,0,.4.71,2.79,2.79,0,0,0,1.36.24h2.09a4.63,4.63,0,0,1,2.93.8,2.79,2.79,0,0,1,1,2.34,3.32,3.32,0,0,1-1.57,3,8.31,8.31,0,0,1-4.57,1,6.32,6.32,0,0,1-3.57-.86,2.78,2.78,0,0,1-1.25-2.43,2.75,2.75,0,0,1,.69-1.86,3.54,3.54,0,0,1,1.93-1.06,1.82,1.82,0,0,1-.75-.63,1.65,1.65,0,0,1-.31-1,2,2,0,0,1,.34-1.13,3.72,3.72,0,0,1,1.09-.93,3.22,3.22,0,0,1-1.49-1.28,4.26,4.26,0,0,1,.59-5.05,4.76,4.76,0,0,1,3.28-1,6.1,6.1,0,0,1,1.67.21Zm-9.39,13.75a1.59,1.59,0,0,0,.81,1.45,4.43,4.43,0,0,0,2.31.5,6.41,6.41,0,0,0,3.32-.68,2,2,0,0,0,1.08-1.82A1.44,1.44,0,0,0,810,761a4.52,4.52,0,0,0-2.22-.37h-2.14a2.79,2.79,0,0,0-1.89.58A2.06,2.06,0,0,0,803.11,762.84Zm1-10a2.37,2.37,0,0,0,.7,1.87,2.78,2.78,0,0,0,1.94.64,2.28,2.28,0,0,0,2.61-2.54,2.34,2.34,0,0,0-2.64-2.65,2.6,2.6,0,0,0-1.93.67A2.69,2.69,0,0,0,804.08,752.86Z" transform="translate(-175.5 -56.78)"/><path class="cls-5" d="M819.89,761.08a5.42,5.42,0,0,1-4.12-1.59,6.18,6.18,0,0,1-1.51-4.41,6.87,6.87,0,0,1,1.4-4.53,4.68,4.68,0,0,1,3.77-1.67,4.44,4.44,0,0,1,3.5,1.45,5.57,5.57,0,0,1,1.29,3.84v1.13h-8.11a4.72,4.72,0,0,0,1,3.15,3.63,3.63,0,0,0,2.8,1.07,9.51,9.51,0,0,0,3.76-.79v1.59a9.75,9.75,0,0,1-1.79.58A9.9,9.9,0,0,1,819.89,761.08Zm-.48-10.71a2.92,2.92,0,0,0-2.26.92,4.23,4.23,0,0,0-1,2.56h6.16a3.93,3.93,0,0,0-.75-2.58A2.66,2.66,0,0,0,819.41,750.37Z" transform="translate(-175.5 -56.78)"/><polygon class="cls-3" points="156.01 245.6 173.38 255.79 190.22 245.83 156.01 245.6"/><line class="cls-6" x1="173.24" y1="175.92" x2="173.24" y2="245.95"/><polygon class="cls-3" points="488.1 307.05 498.32 289.68 488.32 272.83 488.1 307.05"/><line class="cls-6" x1="292.95" y1="289.94" x2="494.63" y2="289.94"/><polygon class="cls-3" points="488.14 487.05 498.36 469.68 488.37 452.83 488.14 487.05"/><polyline class="cls-7" points="292.95 314.94 376.6 314.94 376.6 469.94 494.63 469.94"/><polygon class="cls-3" points="593.13 630.23 610.5 640.43 627.35 630.46 593.13 630.23"/><line class="cls-6" x1="610.24" y1="515.14" x2="610.24" y2="634.34"/><polygon class="cls-3" points="593.13 414.52 610.5 424.72 627.35 414.75 593.13 414.52"/><line class="cls-6" x1="610.24" y1="345.37" x2="610.24" y2="424.27"/><polygon class="cls-3" points="155.83 414.62 173.2 424.81 190.04 414.84 155.83 414.62"/><line class="cls-6" x1="173.06" y1="344.94" x2="173.06" y2="414.97"/><polygon class="cls-3" points="155.78 629.83 173.15 640.03 189.99 630.06 155.78 629.83"/><line class="cls-6" x1="173.01" y1="514.76" x2="173.01" y2="630.18"/></svg>