<svg id="Ebene_1" data-name="Ebene 1" xmlns="http://www.w3.org/2000/svg" xmlns:xlink="http://www.w3.org/1999/xlink" viewBox="0 0 791.44 725.14">
  <defs>
    <style>
      .cls-1, .cls-12, .cls-15, .cls-18, .cls-19, .cls-25, .cls-26, .cls-27, .cls-28, .cls-29, .cls-31, .cls-33, .cls-34, .cls-35, .cls-36, .cls-38 {
        fill: none;
      }

      .cls-2 {
        clip-path: url(#clip-path);
      }

      .cls-3 {
        fill: #fff;
      }

      .cls-4 {
        clip-path: url(#clip-path-2);
      }

      .cls-5 {
        clip-path: url(#clip-path-3);
      }

      .cls-6 {
        clip-path: url(#clip-path-4);
      }

      .cls-7 {
        clip-path: url(#clip-path-5);
      }

      .cls-8 {
        clip-path: url(#clip-path-6);
      }

      .cls-9 {
        clip-path: url(#clip-path-7);
      }

      .cls-10 {
        clip-path: url(#clip-path-8);
      }

      .cls-11 {
        clip-path: url(#clip-path-9);
      }

      .cls-12, .cls-15, .cls-18, .cls-19, .cls-25 {
        stroke: #fff;
      }

      .cls-12, .cls-18, .cls-19, .cls-25, .cls-26, .cls-27, .cls-28, .cls-29, .cls-31, .cls-33, .cls-34, .cls-35, .cls-36, .cls-38 {
        stroke-miterlimit: 10;
      }

      .cls-12 {
        stroke-width: 0.5px;
      }

      .cls-13 {
        clip-path: url(#clip-path-10);
      }

      .cls-14 {
        clip-path: url(#clip-path-11);
      }

      .cls-15, .cls-19, .cls-29, .cls-34, .cls-35 {
        stroke-linecap: round;
      }

      .cls-15 {
        stroke-linejoin: round;
        stroke-width: 4px;
      }

      .cls-16 {
        fill: #f9b24d;
      }

      .cls-17 {
        fill: #805475;
      }

      .cls-18 {
        stroke-width: 0.75px;
      }

      .cls-19 {
        stroke-width: 1.58px;
      }

      .cls-20 {
        fill: #dc0c15;
      }

      .cls-21 {
        fill: #00adba;
      }

      .cls-22 {
        clip-path: url(#clip-path-12);
      }

      .cls-23 {
        clip-path: url(#clip-path-13);
      }

      .cls-24 {
        fill: #76b82a;
      }

      .cls-25 {
        stroke-width: 0.95px;
      }

      .cls-26, .cls-38 {
        stroke: #ea4d7f;
      }

      .cls-26, .cls-27, .cls-28, .cls-35 {
        stroke-width: 1.97px;
      }

      .cls-27, .cls-31 {
        stroke: #76b82a;
      }

      .cls-28, .cls-35 {
        stroke: #dd0b2f;
      }

      .cls-29, .cls-36 {
        stroke: #00adba;
      }

      .cls-29 {
        stroke-width: 1.91px;
      }

      .cls-30 {
        fill: #ea4d7f;
      }

      .cls-31 {
        stroke-width: 0.72px;
      }

      .cls-32 {
        fill: #dd0b2f;
      }

      .cls-33, .cls-34 {
        stroke: #f9b24d;
        stroke-width: 1.81px;
      }

      .cls-36 {
        stroke-width: 2.52px;
      }

      .cls-37 {
        clip-path: url(#clip-path-14);
      }

      .cls-38 {
        stroke-width: 1.1px;
      }

      .cls-39 {
        fill: #00b4ce;
      }

      .cls-40 {
        fill: #00aab4;
      }
    </style>
    <clipPath id="clip-path" transform="translate(0 -44.67)">
      <rect class="cls-1" x="464.28" y="102.65" width="180.13" height="62.7"/>
    </clipPath>
    <clipPath id="clip-path-2" transform="translate(0 -44.67)">
      <rect class="cls-1" x="59.49" y="85.4" width="225.93" height="138.99"/>
    </clipPath>
    <clipPath id="clip-path-3" transform="translate(0 -44.67)">
      <rect class="cls-1" x="94.07" y="451.15" width="171.46" height="249.73"/>
    </clipPath>
    <clipPath id="clip-path-4" transform="translate(0 -44.67)">
      <rect class="cls-1" x="35.34" y="193.2" width="121.63" height="98.06"/>
    </clipPath>
    <clipPath id="clip-path-5" transform="translate(0 -44.67)">
      <rect class="cls-1" x="566.18" y="117.91" width="78.43" height="155.95"/>
    </clipPath>
    <clipPath id="clip-path-6" transform="translate(0 -44.67)">
      <rect class="cls-1" x="569.06" y="234.5" width="219.24" height="175.58"/>
    </clipPath>
    <clipPath id="clip-path-7" transform="translate(0 -44.67)">
      <rect class="cls-1" x="313.48" y="43.67" width="83.09" height="126.79"/>
    </clipPath>
    <clipPath id="clip-path-8" transform="translate(0 -44.67)">
      <rect class="cls-1" x="34.85" y="183.46" width="214.06" height="208.89"/>
    </clipPath>
    <clipPath id="clip-path-9" transform="translate(0 -44.67)">
      <rect class="cls-1" x="35.06" y="256.09" width="140.69" height="164.04"/>
    </clipPath>
    <clipPath id="clip-path-10" transform="translate(0 -44.67)">
      <rect class="cls-1" x="650.49" y="537.67" width="20.68" height="46.4"/>
    </clipPath>
    <clipPath id="clip-path-11" transform="translate(0 -44.67)">
      <rect class="cls-1" x="161.07" y="541.05" width="241.8" height="111.42"/>
    </clipPath>
    <clipPath id="clip-path-12" transform="translate(0 -44.67)">
      <rect class="cls-1" x="75.04" y="432.72" width="140.62" height="51.69"/>
    </clipPath>
    <clipPath id="clip-path-13" transform="translate(0 -44.67)">
      <rect class="cls-1" x="-2.87" y="435.38" width="82.7" height="14.8"/>
    </clipPath>
    <clipPath id="clip-path-14" transform="translate(0 -44.67)">
      <rect class="cls-1" x="529.79" y="373.55" width="32.57" height="56.12"/>
    </clipPath>
  </defs>
  <title>181217_Keyvisual_Logo_slogan</title>
  <g class="cls-2">
    <polygon class="cls-3" points="643.38 70.46 507.51 119.68 465.27 59.87 466.49 58.98 507.88 118.61 643.4 70.36 643.38 70.46"/>
  </g>
  <polygon class="cls-3" points="710.15 131.9 592.75 175.74 592.95 174.25 710.35 130.41 710.15 131.9"/>
  <polygon class="cls-3" points="567.62 228.98 567.14 227.56 701.64 129.55 702.12 130.98 567.62 228.98"/>
  <polygon class="cls-3" points="389.82 113.46 388.13 113.4 465.85 59.81 467.55 59.87 389.82 113.46"/>
  <g class="cls-4">
    <polygon class="cls-3" points="283.29 178.72 184.81 66.04 96.48 66.9 60.48 42.01 60.48 41.73 96.63 65.79 185.5 64.97 284.43 177.93 283.29 178.72"/>
  </g>
  <path class="cls-3" d="M605.13,405.24l-.61-.8,88-120.77a1.94,1.94,0,0,0,.84-1.28,2.52,2.52,0,0,0-.51-1.57L589.27,224.56a9.47,9.47,0,0,0-3.95-2.61l-78.09-56.47-114.1-1.7.29-1,114.24,1.76L585.57,221a10.28,10.28,0,0,1,4.42,2.91L693.57,280.1a3.39,3.39,0,0,1,.74,2.33,2.87,2.87,0,0,1-1.23,2Z" transform="translate(0 -44.67)"/>
  <polygon class="cls-3" points="246.66 241.48 245.74 240.29 285.21 177.99 391.55 118.66 392.55 119.77 286.18 179.15 246.66 241.48"/>
  <path class="cls-3" d="M468.5,231.42l-1.84-127.14q-.09-1.31.54-1.68c.69-.4,1.69.24,1.8.31l238.81,72-.26.38-238.81-72c-.24-.16-.93-.52-1.31-.3s-.34.78-.31,1.24L469,231.38Z" transform="translate(0 -44.67)"/>
  <g class="cls-5">
    <polyline class="cls-3" points="95.06 654.86 144.4 505.76 213.03 430.82 213.87 431.92 145.43 506.54 95.25 655.21"/>
  </g>
  <path class="cls-3" d="M329.66,299.57l-44.37-73.84c-1.64-1.54-2.7-.23-2.72-.22L168.88,192.39c-.41,0-1.67.08-2.08-.83s.45-1.9.73-2.18l103.36-46.9,1.07,1L168.6,190.38a1.89,1.89,0,0,0-.34.46,2.53,2.53,0,0,0,.55,0l113.71,32.91c.12,0,1.7-1.15,3.82.83l44.37,73.85Z" transform="translate(0 -44.67)"/>
  <polygon class="cls-3" points="452.21 253.57 451.75 253.52 467.86 190.26 468.31 190.31 452.21 253.57"/>
  <g class="cls-6">
    <polygon class="cls-3" points="36.53 245.59 36.34 245.57 154.82 149.53 155.97 150.5 36.53 245.59"/>
  </g>
  <g class="cls-7">
    <polygon class="cls-3" points="567.17 228.19 643.59 74.24 643.61 74.24 567.59 227.99 567.17 228.19"/>
  </g>
  <polygon class="cls-3" points="567.27 228.5 469.24 192.03 469.52 191.68 567.57 228.14 567.27 228.5"/>
  <polygon class="cls-3" points="176.84 341.51 176.71 341.06 210.75 351.69 210.75 352.15 176.84 341.51"/>
  <g class="cls-8">
    <path class="cls-3" d="M605,404.33l-.8-1.27,65.65-9.25a2.27,2.27,0,0,0,.87-2.83l24.19-107.52,92.41-47.93-91.56,48.33L672.07,390.34a3.75,3.75,0,0,1-1.45,4.72Z" transform="translate(0 -44.67)"/>
  </g>
  <polygon class="cls-3" points="591.61 267.94 591.59 266.94 691.16 237.3 691.17 238.3 591.61 267.94"/>
  <polygon class="cls-3" points="543.01 259.29 542.64 259.03 567.2 228.14 567.57 228.41 543.01 259.29"/>
  <polygon class="cls-3" points="538.13 280.65 537.67 280.55 542.41 259.03 542.87 259.13 538.13 280.65"/>
  <polygon class="cls-3" points="54.63 363.09 53.77 361.86 170.25 339.59 171.1 340.82 54.63 363.09"/>
  <polygon class="cls-3" points="477.98 198.05 478.12 197.61 544.32 259.58 544.18 260.02 477.98 198.05"/>
  <polygon class="cls-3" points="542.43 259.44 542.64 259.03 591.6 266.79 591.38 267.2 542.43 259.44"/>
  <path class="cls-3" d="M142.18,556.22c-.93-.48-.91-1.84-.9-2.11L171.13,383.4l1.38.07-29.8,170.7a1.4,1.4,0,0,0,.17.83" transform="translate(0 -44.67)"/>
  <polyline class="cls-3" points="677.45 361.29 709.83 462.96 709.4 463.14 677.02 361.47"/>
  <polyline class="cls-3" points="708.12 461.82 652.08 398.75 650.88 398.04 706.92 461.11"/>
  <polyline class="cls-3" points="691.76 240.16 753.99 171.84 754.51 173.11 692.03 241.52"/>
  <path class="cls-3" d="M750.05,218.67a4.89,4.89,0,1,0,3.45-6,4.89,4.89,0,0,0-3.45,6v0h0" transform="translate(0 -44.67)"/>
  <g class="cls-9">
    <polyline class="cls-3" points="390.13 118.65 314.48 0.06 314.64 0 391.5 118.75"/>
  </g>
  <g class="cls-10">
    <polygon class="cls-3" points="36.27 245.56 36.26 245.54 246.34 240.04 246.72 241.94 36.27 245.56"/>
  </g>
  <g class="cls-11">
    <polygon class="cls-3" points="36.88 246.5 36.34 245.99 174.03 339.67 173.53 341.22 36.88 246.5"/>
  </g>
  <path class="cls-3" d="M709.2,510.83a4.13,4.13,0,1,0-4.07-4.19h0a4.13,4.13,0,0,0,4.12,4.13" transform="translate(0 -44.67)"/>
  <path class="cls-3" d="M171.43,390.34a7.09,7.09,0,1,0-7.08-7.1h0a7.1,7.1,0,0,0,7.08,7.09" transform="translate(0 -44.67)"/>
  <path class="cls-3" d="M567.13,277.54a4.89,4.89,0,1,0-4.89-4.89,4.89,4.89,0,0,0,4.89,4.89h0" transform="translate(0 -44.67)"/>
  <path class="cls-3" d="M466.94,108.67a5.67,5.67,0,1,0-5.67-5.67h0a5.67,5.67,0,0,0,5.67,5.67h0" transform="translate(0 -44.67)"/>
  <path class="cls-3" d="M508.93,172a7.09,7.09,0,1,0-7.08-7.1h0a7.08,7.08,0,0,0,7,7.09h0" transform="translate(0 -44.67)"/>
  <path class="cls-3" d="M171.43,390.34a7.09,7.09,0,1,0-7.08-7.1h0a7.1,7.1,0,0,0,7.08,7.09" transform="translate(0 -44.67)"/>
  <path class="cls-3" d="M591.59,315.17a3.26,3.26,0,1,0-3.26-3.26,3.26,3.26,0,0,0,3.26,3.26h0" transform="translate(0 -44.67)"/>
  <path class="cls-3" d="M271,148a4.9,4.9,0,1,0-4.91-4.89v0h0a4.87,4.87,0,0,0,4.86,4.9h0" transform="translate(0 -44.67)"/>
  <path class="cls-3" d="M54.13,413.09a4.89,4.89,0,1,0-4.89-4.89,4.89,4.89,0,0,0,4.89,4.89h0" transform="translate(0 -44.67)"/>
  <path class="cls-3" d="M36.49,293.54a3.42,3.42,0,1,0-3.36-3.48v.07a3.41,3.41,0,0,0,3.41,3.41h0" transform="translate(0 -44.67)"/>
  <path class="cls-3" d="M542.65,306.4a2.61,2.61,0,1,0-2.61-2.61h0a2.59,2.59,0,0,0,2.57,2.61h0" transform="translate(0 -44.67)"/>
  <path class="cls-3" d="M283.93,229.17a4.89,4.89,0,1,0-4.89-4.89,4.89,4.89,0,0,0,4.89,4.89h0" transform="translate(0 -44.67)"/>
  <path class="cls-3" d="M246.23,287.48a2.45,2.45,0,1,0-2.45-2.45h0a2.45,2.45,0,0,0,2.45,2.45h0" transform="translate(0 -44.67)"/>
  <path class="cls-3" d="M458.66,232c-.36,1-1.71,1.15-2,1.17l-173.11-7.26-.12-1.38,173.14,7.26a1.62,1.62,0,0,0,.79-.27" transform="translate(0 -44.67)"/>
  <line class="cls-12" x1="668.38" y1="511.29" x2="746.04" y2="527.73"/>
  <g class="cls-13">
    <polyline class="cls-12" points="656.11 494.71 668.67 511.34 653.63 538.22"/>
  </g>
  <polyline class="cls-3" points="744.39 524.95 704.16 438.74 706.03 438.72 745.76 524.36"/>
  <path class="cls-3" d="M746.55,576.93a4.89,4.89,0,1,0-4.9-4.89,4.89,4.89,0,0,0,4.9,4.89h0" transform="translate(0 -44.67)"/>
  <g class="cls-14">
    <polygon class="cls-3" points="229.04 574.87 228.63 574.65 401.77 505.66 401.79 507.16 229.04 574.87"/>
  </g>
  <path class="cls-15" d="M410.13,291.32s20.87-12.07,44,7.68c14.54-7.45,39.88-8.2,54.41,12.3,5.11,7.2,4.73,18.26,1,28.29" transform="translate(0 -44.67)"/>
  <path class="cls-15" d="M512.35,318.94s30.46-5,36.25,21.05c7.82,0,21,8.76,19.93,21.25" transform="translate(0 -44.67)"/>
  <path class="cls-15" d="M542.69,372.91s12.8-20.62,34.42-7.39c13.31,8.15,9.68,21.62,9.68,21.62S621.63,401.86,611,455" transform="translate(0 -44.67)"/>
  <path class="cls-15" d="M316.79,341.86s2.63,7.84,15.09,9.5c13.22,1.76,22.58-4.91,23.16-18.73.93-22.36.66-34.66,24-43.55,31.11-11.84,51.23,25,51.23,25" transform="translate(0 -44.67)"/>
  <path class="cls-15" d="M359.46,300.86a35.6,35.6,0,0,0-29.81-3c-16.77,6-18.08,18.64-18.08,18.64s-40.39-6.83-43.24,32.89" transform="translate(0 -44.67)"/>
  <path class="cls-15" d="M268.53,347.07s-24-3.57-30.39,18.79c-4.26,15-1.49,33,39.13,32.23" transform="translate(0 -44.67)"/>
  <path class="cls-15" d="M237,382.67c-16-1.87-61.29,30-22.53,93-12.25,21.58,13.84,52.63,52.35,40.21" transform="translate(0 -44.67)"/>
  <path class="cls-15" d="M296.29,382.39s-14.16-1.5-17.16,10.43-1.12,29.44-22,27.21" transform="translate(0 -44.67)"/>
  <path class="cls-15" d="M253.62,486.08s-5.9,34.1,38.06,36.3c37.27,1.87,66.34-15.62,85.67-30.33a68.29,68.29,0,0,1,31.57-13.21" transform="translate(0 -44.67)"/>
  <path class="cls-15" d="M376.63,450.17s26.31-12,32.44,10.28c4.3,15.59-13,55.22,32.13,54.15,14.89-.36,32.18-9.54,61.22-15.23,22.41-4.4,45.14,32,67.6,34.45,27.23,3,31.5-20.5,31.5-20.5s16-11.18,16-35.22c0-27.83-25.9-37.83-25.9-37.83" transform="translate(0 -44.67)"/>
  <path class="cls-15" d="M496.74,417.31A13.15,13.15,0,0,0,513,401.67" transform="translate(0 -44.67)"/>
  <path class="cls-15" d="M233.3,476.11c2.49,3.72,9.78,8.1,19.85,8.2s18.35-9.64,20.44-13.64" transform="translate(0 -44.67)"/>
  <path class="cls-15" d="M430.55,514c0-21,0-36.66.09-39.81.29-16.28-6.8-60.22,71.16-29.9,31.18,12.13,88.72,19.55,78.09-46.73" transform="translate(0 -44.67)"/>
  <path class="cls-15" d="M457.36,510.46c1-3.12,2.31-11.15.68-21.09-3.4-20.81-37.25-11.65-50.29-10.23" transform="translate(0 -44.67)"/>
  <polyline class="cls-3" points="383.14 120.41 380.77 207.75 379.42 208 381.75 120.38"/>
  <polyline class="cls-1" points="383.14 120.41 380.77 207.75 379.42 208 381.75 120.38"/>
  <polygon class="cls-3" points="409.44 243.98 380.94 209.87 381.38 209.4 409.88 243.51 409.44 243.98"/>
  <path class="cls-3" d="M376.38,248.93a8.11,8.11,0,0,1,3.21,4.31l-21.73,44.48-1-.43,21.36-43.68a6.91,6.91,0,0,0-2.62-3.51" transform="translate(0 -44.67)"/>
  <path class="cls-1" d="M376.38,248.93a8.11,8.11,0,0,1,3.21,4.31l-21.73,44.48-1-.43,21.36-43.68a6.91,6.91,0,0,0-2.62-3.51" transform="translate(0 -44.67)"/>
  <path class="cls-16" d="M382.44,173.67A18.43,18.43,0,1,0,364,155.23h0a18.42,18.42,0,0,0,18.42,18.42h0" transform="translate(0 -44.67)"/>
  <path class="cls-3" d="M383.8,166.09h2.72v-5.42h4.08v5.44h2.71V153.86H383.8Zm0-15h9.51v1.36H383.8Zm-10.87,6.8h2.72v2.78h-2.72Zm0-5.44h2.72v2.72h-2.72Zm0-5.43h2.72v2.72h-2.72Zm5.44,10.87h2.76v2.78h-2.71Zm0-5.44h2.76v2.72h-2.71Zm0-5.43h2.76v2.72h-2.71Zm-6.8,19h10.87V144.35H371.57Z" transform="translate(0 -44.67)"/>
  <path class="cls-3" d="M380.26,260.73a7.09,7.09,0,1,0-7.13-7.06,7.08,7.08,0,0,0,7.13,7.06h0" transform="translate(0 -44.67)"/>
  <path class="cls-3" d="M410.29,291.73a4.44,4.44,0,1,0-4.44-4.44,4.44,4.44,0,0,0,4.44,4.44h0" transform="translate(0 -44.67)"/>
  <polygon class="cls-3" points="254.96 304.34 238.75 236.45 239.69 236.14 255.91 304.03 254.96 304.34"/>
  <path class="cls-17" d="M237.13,290.67A22.68,22.68,0,1,0,214.45,268h0a22.67,22.67,0,0,0,22.68,22.68" transform="translate(0 -44.67)"/>
  <path class="cls-3" d="M235.29,255.54l.4.8H224.51l.8-1.6h4.39l.4.8Zm-11.57,1.63h12.77l-.8,8H224.51Z" transform="translate(0 -44.67)"/>
  <path class="cls-3" d="M249.3,271.59l.4.8H238.53l.8-1.6h4.39l.4.8Zm-11.57,1.58H250.5l-.8,8H238.53Z" transform="translate(0 -44.67)"/>
  <path class="cls-3" d="M235.55,268a.67.67,0,1,1-1.34,0h0a.67.67,0,0,1,.64-.68h0a.68.68,0,0,1,.66.66" transform="translate(0 -44.67)"/>
  <path class="cls-3" d="M237.79,268a.67.67,0,0,1-1.34,0h0a.67.67,0,0,1,.64-.68h0a.68.68,0,0,1,.66.66" transform="translate(0 -44.67)"/>
  <path class="cls-3" d="M240,268a.67.67,0,0,1-1.34,0h0a.67.67,0,0,1,.64-.68h0a.67.67,0,0,1,.67.66" transform="translate(0 -44.67)"/>
  <path class="cls-3" d="M235.88,276a6.37,6.37,0,0,1-6.28-6.37h2.62l-3.37-3.41-3.4,3.37h2.68a7.92,7.92,0,0,0,7.9,7.88h.75l-.13-1.48Z" transform="translate(0 -44.67)"/>
  <path class="cls-3" d="M238.33,260a6.43,6.43,0,0,1,6.41,6.37h-2.61l3.37,3.41,3.41-3.37h-2.65a7.9,7.9,0,0,0-7.9-7.87h-.54l-.17,1.49Z" transform="translate(0 -44.67)"/>
  <polygon class="cls-3" points="562.75 548.62 562.49 549 525.61 462.55 525.96 462.25 562.75 548.62"/>
  <polyline class="cls-18" points="525.61 462.55 525.96 462.25 562.75 548.62 562.49 549"/>
  <path class="cls-16" d="M559.07,606.17a18.43,18.43,0,1,0-18.43-18.43h0a18.42,18.42,0,0,0,18.41,18.43h0" transform="translate(0 -44.67)"/>
  <path class="cls-19" d="M562.25,594h4.55a7.45,7.45,0,0,0,3.81-.94l.09-.06c1-.76,4-3.08,1.89-7.76h0a5,5,0,0,0-3-2.42,6.35,6.35,0,0,0-1.49-4,7.78,7.78,0,0,0-5.52-2.73,7.09,7.09,0,0,0-6.6,3.41,6.51,6.51,0,0,0-1.92.1,8.57,8.57,0,0,0-9.22,9.71,5.55,5.55,0,0,0,3.82,4.47,12.6,12.6,0,0,0,2.74.26h.93" transform="translate(0 -44.67)"/>
  <path class="cls-19" d="M561.13,588.06c0-.07-.11-.13-.16-.19h0c-1-1-1.91-2-2.87-2.92h0l-.15-.14a.64.64,0,0,0-.86,0l-.11.11-1.48,1.5h0l-1.45,1.47h0a.32.32,0,0,0-.1.13.63.63,0,0,0,.29.84l.13,0h1.33v9.26a1.93,1.93,0,0,0,0,.34,1,1,0,0,0,.83.82h2.22a1,1,0,0,0,.91-.92v-9.53H561a.42.42,0,0,0,.17-.82Z" transform="translate(0 -44.67)"/>
  <path class="cls-3" d="M555.49,589.17h0l-1-.24s-1-.23-.26-.92l2.63-2.55a1,1,0,0,1,1.41,0l3,3.11-.9.29s-.88.29-1,3.12l-.38,7.48h-1.76s-1.74,0-1.74-2.83Z" transform="translate(0 -44.67)"/>
  <path class="cls-15" d="M510.2,415.24a29.59,29.59,0,0,1,0,20.49c-4.1,11.18-16.78,18.27-39.51,14S442.61,453,440.8,465.57l-1,48.42c0,5.65-.84,22.34-7.52,28.93-7.5,7.41-18,7.41-32.88,7.41" transform="translate(0 -44.67)"/>
  <polygon class="cls-3" points="402.13 504.63 404.96 575.82 403.86 576.83 401.02 505.64 402.13 504.63"/>
  <polygon class="cls-3" points="375.13 549.71 374.69 549.56 399.2 503.87 399.58 504.13 375.13 549.71"/>
  <path class="cls-20" d="M398.13,566A16.12,16.12,0,1,0,382,549.85h0A16.12,16.12,0,0,0,398.13,566h0" transform="translate(0 -44.67)"/>
  <path class="cls-3" d="M409.43,547.11a16.17,16.17,0,0,0-22.84-.92c-.32.3-.62.6-.91.92a.58.58,0,0,0,0,.82.57.57,0,0,0,.81,0h0a15,15,0,0,1,21.19-.92c.32.29.62.6.92.92a.58.58,0,0,0,.41.17h0a.59.59,0,0,0,.41-1" transform="translate(0 -44.67)"/>
  <path class="cls-3" d="M397.53,546a14,14,0,0,0-9.42,3.93.57.57,0,0,0,0,.81h0a.57.57,0,0,0,.82,0,12.1,12.1,0,0,1,17.11-.14l0,0,.13.12a.57.57,0,0,0,.82,0h0a.59.59,0,0,0,0-.82,14,14,0,0,0-9.43-3.93" transform="translate(0 -44.67)"/>
  <path class="cls-3" d="M401.61,551l-.84-.36a9.19,9.19,0,0,0-3.24-.62,10.66,10.66,0,0,0-6.8,2.8.52.52,0,0,0-.2.4.5.5,0,0,0,.15.42.6.6,0,0,0,.82.06,9.57,9.57,0,0,1,6-2.51,7.77,7.77,0,0,1,2.82.54,6.26,6.26,0,0,1,.75.32,11.1,11.1,0,0,1,2.47,1.65.59.59,0,0,0,.38.14h0a.56.56,0,0,0,.4-.2.71.71,0,0,0,.14-.42.57.57,0,0,0-.2-.4,12.09,12.09,0,0,0-2.72-1.82" transform="translate(0 -44.67)"/>
  <path class="cls-3" d="M397.53,553.8a2.62,2.62,0,1,0,2.62,2.62h0a2.61,2.61,0,0,0-2.61-2.61h0" transform="translate(0 -44.67)"/>
  <path class="cls-3" d="M374.48,599.94a4.9,4.9,0,1,0-4.89-4.91h0a4.87,4.87,0,0,0,4.86,4.9h0" transform="translate(0 -44.67)"/>
  <path class="cls-3" d="M405.27,628.43a7.58,7.58,0,1,0-7.58-7.58,7.58,7.58,0,0,0,7.58,7.58h0" transform="translate(0 -44.67)"/>
  <polyline class="cls-3" points="609.62 459.19 712.29 453.67 712.5 454.04 609.83 459.56"/>
  <path class="cls-21" d="M712.57,517a18.43,18.43,0,1,0-18.44-18.43A18.43,18.43,0,0,0,712.57,517" transform="translate(0 -44.67)"/>
  <path class="cls-3" d="M722.59,491.86a2,2,0,0,1,2,2v8a2,2,0,0,1-2,2h-3.34v5.31l-6.41-5.34h-4.27v-2.66h5.24l4.1,3.65v-3.65h4V494.5h-1.35v-2.67Zm-5.34-4a2,2,0,0,1,2,2v6.67a2,2,0,0,1-2,2h-7.61l-6.41,5.34v-5.34h-.67a2,2,0,0,1-2-2v-6.67a2,2,0,0,1,2-2Z" transform="translate(0 -44.67)"/>
  <g class="cls-22">
    <g>
      <polyline class="cls-3" points="76.69 395.87 212.25 431.16 213.87 431.92 76.58 396.57"/>
      <polyline class="cls-1" points="76.69 395.87 212.25 431.16 213.87 431.92 76.58 396.57"/>
    </g>
  </g>
  <g class="cls-23">
    <polyline class="cls-3" points="78.38 391.65 0 404.52 0.67 404.52 78.83 392.35"/>
  </g>
  <path class="cls-24" d="M72,450.08a12.76,12.76,0,1,0-12.76-12.76A12.76,12.76,0,0,0,72,450.08h0" transform="translate(0 -44.67)"/>
  <path class="cls-3" d="M70,435.88a2.07,2.07,0,0,0,2,1.7h0a2.15,2.15,0,0,0,2-1.74c.26-.07.47-.5.58-.92a1,1,0,0,0-.13-1c.1-.25.2-2.3-.86-3a3,3,0,0,0-2.88-.33c-1.32.51-1.43,2.47-1.22,3.38a.82.82,0,0,0-.18.62,1.92,1.92,0,0,0,.64,1.32" transform="translate(0 -44.67)"/>
  <path class="cls-25" d="M70,435.88a2.07,2.07,0,0,0,2,1.7h0a2.15,2.15,0,0,0,2-1.74c.26-.07.47-.5.58-.92a1,1,0,0,0-.13-1c.1-.25.2-2.3-.86-3a3,3,0,0,0-2.88-.33c-1.32.51-1.43,2.47-1.22,3.38a.82.82,0,0,0-.18.62A2,2,0,0,0,70,435.88Z" transform="translate(0 -44.67)"/>
  <path class="cls-3" d="M78.46,441.45c-.38-1-1-1.25-1.92-1.59l-.23-.08a13.49,13.49,0,0,1-1.72-.81l-.64-.34a.13.13,0,0,0-.18.05h0a2.8,2.8,0,0,1-1.73.52,2.3,2.3,0,0,1-1.61-.54.14.14,0,0,0-.19,0h0c-.34.27-3.54,1.25-4,1.83a5.11,5.11,0,0,0-1.11,2.68.84.84,0,0,0,.33.74,3.77,3.77,0,0,0,1.79.24h9.06a7.59,7.59,0,0,0,2.37-.28c.45-.43.07-1.7-.2-2.42" transform="translate(0 -44.67)"/>
  <path class="cls-25" d="M78.46,441.45c-.38-1-1-1.25-1.92-1.59l-.23-.08a13.49,13.49,0,0,1-1.72-.81l-.64-.34a.13.13,0,0,0-.18.05h0a2.8,2.8,0,0,1-1.73.52,2.3,2.3,0,0,1-1.61-.54.14.14,0,0,0-.19,0h0c-.34.27-3.54,1.25-4,1.83a5.11,5.11,0,0,0-1.11,2.68.84.84,0,0,0,.33.74,3.77,3.77,0,0,0,1.79.24h9.06a7.59,7.59,0,0,0,2.37-.28C79.13,443.44,78.73,442.17,78.46,441.45Z" transform="translate(0 -44.67)"/>
  <path class="cls-26" d="M348.57,382.31A6,6,0,0,0,354.4,387h0a6.19,6.19,0,0,0,5.93-4.85c.76-.2,1.39-1.38,1.7-2.53.35-1.34.21-2.33-.37-2.75.29-.7.57-6.36-2.52-8.43a9.25,9.25,0,0,0-8.39-.92c-3.87,1.42-4.19,6.85-3.56,9.38a2.14,2.14,0,0,0-.53,1.71A5.35,5.35,0,0,0,348.57,382.31Z" transform="translate(0 -44.67)"/>
  <path class="cls-26" d="M372.65,396.73c-1.09-2.9-2.83-3.51-5.46-4.45l-.66-.23a37.86,37.86,0,0,1-4.88-2.26c-.59-.31-1.19-.63-1.82-.94a.4.4,0,0,0-.52.15,7.92,7.92,0,0,1-4.91,1.47,6.73,6.73,0,0,1-4.58-1.61.4.4,0,0,0-.54,0c-.95.76-10,3.49-11.4,5.1-1.05,1.25-3.27,4.92-3.17,7.55a2.4,2.4,0,0,0,.94,2.06c.93.66,3,.69,5.1.67h25.71c2,0,6.12-.18,6.75-.78C374.48,402.28,373.4,398.74,372.65,396.73Z" transform="translate(0 -44.67)"/>
  <path class="cls-27" d="M312.29,408.67a2.24,2.24,0,0,1-.16-.5,19.61,19.61,0,0,1-.13-4.9c.12-2.36.24-4.8-.7-7v-.1c-1.44-3.93-5.09-4-7.18-3.61-2.09-.35-5.74-.32-7.18,3.61a.17.17,0,0,0,0,.1c-1,2.18-.82,4.62-.7,7a20.6,20.6,0,0,1-.11,4.9c-.05.16-.11.32-.17.48-.18.44-.36.85-.13,1.16.1.14.38.49,2,.06a4,4,0,0,0,2-1.26,5.46,5.46,0,0,0,4,1.82,6.06,6.06,0,0,0,4.53-2,4,4,0,0,0,2.16,1.45,5.36,5.36,0,0,0,1.26.21c.51,0,.65-.18.72-.27C312.65,409.54,312.47,409.17,312.29,408.67Z" transform="translate(0 -44.67)"/>
  <path class="cls-27" d="M319.13,419.86c-.9-2.61-2.36-3.16-4.55-4l-.55-.22a29.63,29.63,0,0,1-4.08-2l-1.52-.85a.32.32,0,0,0-.43.14,6.2,6.2,0,0,1-4.1,1.33,5.47,5.47,0,0,1-3.83-1.45.31.31,0,0,0-.44,0h0c-.79.68-8.38,3.14-9.51,4.59-.89,1.13-2.73,4.43-2.65,6.8a2.24,2.24,0,0,0,.78,1.86c.78.59,2.53.62,4.25.6H314c1.7,0,5.1-.16,5.64-.7C320.67,424.86,319.77,421.67,319.13,419.86Z" transform="translate(0 -44.67)"/>
  <path class="cls-28" d="M522.13,473.67a4.45,4.45,0,1,1-4.46-4.44h0A4.45,4.45,0,0,1,522.13,473.67Zm8.7-.75a1.74,1.74,0,0,0-1.37-1.65h-.33L527.3,471l-.56-1.47.14-.18.22-.28c.23-.29.46-.59.71-.86a1.86,1.86,0,0,0,.18-2.62,1.36,1.36,0,0,0-.24-.24l-.28-.31-.19-.23a1.82,1.82,0,0,0-2.49-.6,1.05,1.05,0,0,0-.27.2l-1.24.77-.24.16a11.15,11.15,0,0,0-2.58-1.18,3.55,3.55,0,0,1-.09-.47l-.12-.71h0a5.62,5.62,0,0,0-.14-.82,1.71,1.71,0,0,0-1.59-1.48,8.15,8.15,0,0,0-1.71,0,1.7,1.7,0,0,0-1.47,1l-.4,2.43-2.14.89-.23-.16-.49-.35-.9-.63a1.72,1.72,0,0,0-2.3.18c-.34.31-.68.65-1,1a1.69,1.69,0,0,0-.17,2.29l.52.74.41.57a.92.92,0,0,0,.19.25h0l-.86,2.07h-.06l-.61.1h0c-.44.07-.9.14-1.35.23a1.68,1.68,0,0,0-1.45,1.62,11.5,11.5,0,0,0,0,1.66,1.64,1.64,0,0,0,1.24,1.55l.43.08h.17c.29.06.58.11.86.14a5.76,5.76,0,0,1,.81.15l.59,1.56-.46.58-.26.31.33.27-.35-.24c-.19.23-.39.47-.58.73a1.74,1.74,0,0,0,0,2.16,15,15,0,0,0,1.06,1.19,1.65,1.65,0,0,0,2.12.3,5.09,5.09,0,0,0,.5-.3l1.35-.84.13.07h0c.37.19.72.38,1.1.54s.75.31,1.11.44h.08a.08.08,0,0,1,.08.07v.21c0,.2.07.4.09.6.08.41.15.83.23,1.24a1.61,1.61,0,0,0,1.63,1.4h1.65a1.57,1.57,0,0,0,1.5-1.17A2.62,2.62,0,0,0,520,485a.53.53,0,0,1,0-.25,5.62,5.62,0,0,0,.14-.82,4.13,4.13,0,0,1,.11-.69l1-.42a5.93,5.93,0,0,1,1.1-.37l.38.26.44.31c.26.19.53.39.81.57a1.68,1.68,0,0,0,2.29-.16c.35-.32.68-.65,1-1a1.72,1.72,0,0,0,.17-2.3c-.21-.32-.43-.63-.65-.93l-.42-.59-.11-.17.42-1a5.29,5.29,0,0,1,.54-1.06l.59-.1.46-.08.81-.13a1.71,1.71,0,0,0,1.5-1.75,4.13,4.13,0,0,0,.14-1.44Z" transform="translate(0 -44.67)"/>
  <path class="cls-29" d="M334.53,474.67h4.19c1,0,4.58-.12,6.89-1.69l.16-.12c1.8-1.38,7.26-5.58,3.41-14.06h0a9,9,0,0,0-5.37-4.4,11.51,11.51,0,0,0-2.7-7.29,14,14,0,0,0-10-4.94,12.81,12.81,0,0,0-11.92,6.19,12.61,12.61,0,0,0-3.47.16c-4,.77-6.08,4.23-6.86,5.67a10.72,10.72,0,0,0-7.38,3.59,11,11,0,0,0-2.4,8.34c.59,5.19,5.18,7.61,6.91,8.1a22.14,22.14,0,0,0,4.94.48h9.6" transform="translate(0 -44.67)"/>
  <path class="cls-29" d="M334.38,479.67l-.3.33-.07.07-5.27,5.29-.07.07a3.07,3.07,0,0,1-.26.25,1.19,1.19,0,0,1-1.58,0,1.29,1.29,0,0,1-.21-.19l-2.71-2.72-.06-.08L321.19,480h-.06l-.08-.09H321a1.3,1.3,0,0,1-.18-.23,1,1,0,0,1,.12-1.41,1.37,1.37,0,0,1,.2-.13.93.93,0,0,1,.39-.15,1.7,1.7,0,0,1,.45,0h2v-9.85a3.21,3.21,0,0,1,0-.62,1.72,1.72,0,0,1,1.52-1.48h4.08a1.76,1.76,0,0,1,1.67,1.66v10.42h1.95a1.48,1.48,0,0,1,.42,0,1.08,1.08,0,0,1,.87.63A1.15,1.15,0,0,1,334.38,479.67Z" transform="translate(0 -44.67)"/>
  <path class="cls-30" d="M238.93,470.94h27v-23.7l-13.48-10.41-13.52,10.41Zm27.88,1.82H238a.91.91,0,0,1-.91-.91h0V446.79a.86.86,0,0,1,.35-.72L251.86,435a.92.92,0,0,1,1.11,0l14.4,11.11a.91.91,0,0,1,.35.72v25.06a.91.91,0,0,1-.91.91h0" transform="translate(0 -44.67)"/>
  <path class="cls-30" d="M242.27,466.17h9.24v-9.24h-9.24ZM252.42,468H241.36a.91.91,0,0,1-.91-.91h0V456a.89.89,0,0,1,.87-.91h11.1a.91.91,0,0,1,.91.91h0v11.06a.91.91,0,0,1-.91.91h0" transform="translate(0 -44.67)"/>
  <path class="cls-30" d="M246.89,468a.91.91,0,0,1-.91-.91h0V456a.91.91,0,1,1,1.82,0v11.06a.91.91,0,0,1-.91.91h0" transform="translate(0 -44.67)"/>
  <path class="cls-30" d="M252.42,462.45H241.36a.91.91,0,1,1,0-1.82h11.06a.91.91,0,1,1,0,1.82h0" transform="translate(0 -44.67)"/>
  <path class="cls-17" d="M279,371.78h30.59V347.57H279Zm31.45,1.7H278.13a.85.85,0,0,1-.85-.85h0V346.72a.85.85,0,0,1,.85-.85h32.3a.86.86,0,0,1,.85.85h0v25.95a.86.86,0,0,1-.85.85h0" transform="translate(0 -44.67)"/>
  <path class="cls-17" d="M306.71,350.6a.85.85,0,0,1-.85-.85h0v-6.08a.85.85,0,0,1,1.7,0v6.06a.86.86,0,0,1-.85.85h0" transform="translate(0 -44.67)"/>
  <path class="cls-17" d="M300.49,350.6a.85.85,0,0,1-.85-.85h0v-6.08a.85.85,0,0,1,1.7,0v6.06a.86.86,0,0,1-.85.85h0" transform="translate(0 -44.67)"/>
  <path class="cls-17" d="M294.27,350.6a.85.85,0,0,1-.86-.84h0v-6.08a.86.86,0,0,1,.95-.76.85.85,0,0,1,.76.76h0v6.06a.86.86,0,0,1-.85.85h0" transform="translate(0 -44.67)"/>
  <path class="cls-17" d="M288.05,350.6a.85.85,0,0,1-.86-.84h0v-6.08a.86.86,0,0,1,.95-.76.85.85,0,0,1,.76.76h0v6.06a.86.86,0,0,1-.85.85h0" transform="translate(0 -44.67)"/>
  <path class="cls-17" d="M281.82,350.6a.85.85,0,0,1-.85-.85h0v-6.08a.84.84,0,0,1,.93-.76h0a.87.87,0,0,1,.77.76v6.06a.86.86,0,0,1-.85.85h0" transform="translate(0 -44.67)"/>
  <path class="cls-17" d="M292.5,359.17h3.81v-3.81H292.5Zm4.67,1.71h-5.52a.85.85,0,0,1-.86-.84h0v-5.52a.85.85,0,0,1,.85-.85h5.49a.86.86,0,0,1,.85.85h0V360a.86.86,0,0,1-.85.85h0" transform="translate(0 -44.67)"/>
  <path class="cls-17" d="M301.22,359.17H305v-3.81h-3.81Zm4.66,1.71h-5.52a.85.85,0,0,1-.85-.85h0v-5.52a.85.85,0,0,1,.85-.85h5.52a.86.86,0,0,1,.85.85h0V360a.86.86,0,0,1-.85.85h0" transform="translate(0 -44.67)"/>
  <path class="cls-17" d="M283.79,367.91h3.81v-3.82h-3.81Zm4.66,1.7h-5.52a.85.85,0,0,1-.85-.85h0v-5.52a.85.85,0,0,1,.85-.85h5.52a.86.86,0,0,1,.86.85v5.52a.86.86,0,0,1-.86.85" transform="translate(0 -44.67)"/>
  <path class="cls-17" d="M292.5,367.91h3.81v-3.82H292.5Zm4.67,1.7h-5.52a.85.85,0,0,1-.86-.84h0v-5.52a.85.85,0,0,1,.85-.85h5.49a.86.86,0,0,1,.85.85h0v5.52a.86.86,0,0,1-.85.85h0" transform="translate(0 -44.67)"/>
  <path class="cls-17" d="M301.22,367.91H305v-3.82h-3.81Zm4.66,1.7h-5.52a.85.85,0,0,1-.85-.85h0v-5.52a.85.85,0,0,1,.85-.85h5.52a.86.86,0,0,1,.85.85h0v5.52a.86.86,0,0,1-.85.85h0" transform="translate(0 -44.67)"/>
  <path class="cls-16" d="M481.57,473.28h-8.35a.79.79,0,0,1,0-1.58h8.36a.79.79,0,1,1,0,1.58" transform="translate(0 -44.67)"/>
  <path class="cls-16" d="M481.57,469h-8.35a.79.79,0,0,1,0-1.57h8.35a.79.79,0,0,1,.17,1.57h-.17" transform="translate(0 -44.67)"/>
  <path class="cls-16" d="M481.57,464.67h-8.35a.79.79,0,0,1,0-1.58h8.36a.79.79,0,0,1,0,1.58h0" transform="translate(0 -44.67)"/>
  <path class="cls-16" d="M481.57,473.28a.79.79,0,1,1,0-1.58,1.36,1.36,0,1,0,0-2.72.79.79,0,1,1-.18-1.57h.18a2.94,2.94,0,0,1,0,5.87" transform="translate(0 -44.67)"/>
  <path class="cls-16" d="M473.22,469a2.93,2.93,0,1,1,0-5.86h0a.79.79,0,0,1,.17,1.57h-.17a1.36,1.36,0,0,0,0,2.72.79.79,0,0,1,.17,1.57h-.17" transform="translate(0 -44.67)"/>
  <path class="cls-16" d="M484.62,492.67a.79.79,0,0,1,0-1.58h0a5.61,5.61,0,0,0,0-11.22h0a.79.79,0,0,1,0-1.58h0a7.19,7.19,0,0,1,0,14.38" transform="translate(0 -44.67)"/>
  <path class="cls-16" d="M470.89,493.36h12.94V477.5H470.89Zm13,1.58H470.78a1.46,1.46,0,0,1-1.46-1.46h0V477.39a1.45,1.45,0,0,1,1.43-1.47h13.19a1.46,1.46,0,0,1,1.46,1.46h0v16.09a1.47,1.47,0,0,1-1.45,1.47h0" transform="translate(0 -44.67)"/>
  <path class="cls-24" d="M488.94,377.74a15.91,15.91,0,1,0,15.91,15.93,15.91,15.91,0,0,0-15.91-15.93h0m0,33.52a17.62,17.62,0,1,1,17.61-17.63h0a17.64,17.64,0,0,1-17.61,17.61" transform="translate(0 -44.67)"/>
  <path class="cls-31" d="M488.94,377.74a15.91,15.91,0,1,0,15.91,15.93,15.91,15.91,0,0,0-15.91-15.93Zm0,33.52a17.62,17.62,0,1,1,17.61-17.63h0A17.64,17.64,0,0,1,488.94,411.26Z" transform="translate(0 -44.67)"/>
  <path class="cls-24" d="M496.38,394.5H489a.85.85,0,0,1-.86-.84h0V381.94a.86.86,0,0,1,.76-.95h0a.88.88,0,0,1,1,.72v11h6.49a.85.85,0,0,1,.94.75h0a.86.86,0,0,1-.76.95h-.18" transform="translate(0 -44.67)"/>
  <path class="cls-31" d="M496.38,394.5H489a.85.85,0,0,1-.86-.84h0V381.94a.86.86,0,0,1,.76-.95h0a.88.88,0,0,1,1,.72v11h6.49a.85.85,0,0,1,.94.75h0a.86.86,0,0,1-.76.95h0Z" transform="translate(0 -44.67)"/>
  <rect class="cls-28" x="322.48" y="275.86" width="22.07" height="17.35" rx="2.44" ry="2.44"/>
  <path class="cls-32" d="M340,319.87v-1.56a6.5,6.5,0,1,0-13,0,.71.71,0,0,0,1.42,0,5.08,5.08,0,0,1,10.15,0v1.56" transform="translate(0 -44.67)"/>
  <path class="cls-32" d="M334.23,329.53h0V332a.71.71,0,1,1-1.42,0v-1.25s0-1.25-.38-1.4a1.94,1.94,0,0,1-.91-1.72,2,2,0,1,1,2.71,1.87" transform="translate(0 -44.67)"/>
  <path class="cls-33" d="M275.45,487.17a3.35,3.35,0,0,0-3.43,3.27v0a.33.33,0,0,0,0,.14v13.69a3.36,3.36,0,0,0,3.28,3.43h23a3.36,3.36,0,0,0,3.42-3.28V490.56a3.37,3.37,0,0,0-3.29-3.43h-23Z" transform="translate(0 -44.67)"/>
  <line class="cls-34" x1="277.2" y1="446.14" x2="286.71" y2="455.65"/>
  <line class="cls-34" x1="296.49" y1="446.14" x2="286.98" y2="455.65"/>
  <line class="cls-34" x1="277.2" y1="459.39" x2="283.58" y2="453.02"/>
  <line class="cls-34" x1="296.49" y1="459.39" x2="290.24" y2="453.14"/>
  <path class="cls-28" d="M221.79,409a1.47,1.47,0,0,0-1.66,1.17,1.71,1.71,0,0,0,0,.32v11.38a1.67,1.67,0,0,0,1.62,1.72h19.61a1.68,1.68,0,0,0,1.71-1.65h0v-8.72a1.93,1.93,0,0,0-1.7-1.92Z" transform="translate(0 -44.67)"/>
  <path class="cls-28" d="M222.13,424.24v1.43s0,1.41,1.71,1.41h15.6" transform="translate(0 -44.67)"/>
  <circle class="cls-28" cx="225.13" cy="386.95" r="1.52"/>
  <path class="cls-28" d="M236.65,433.17a1.52,1.52,0,1,0-1.53-1.52v.05A1.53,1.53,0,0,0,236.65,433.17Z" transform="translate(0 -44.67)"/>
  <line class="cls-35" x1="220.1" y1="363.92" x2="216.84" y2="360.1"/>
  <path class="cls-24" d="M375.83,340.31V320.17a.63.63,0,0,1,.63-.63h37.87a.64.64,0,0,1,.62.63v20.17Zm.63,6.15a.64.64,0,0,1-.63-.62v-3.58H415v3.58a.62.62,0,0,1-.62.62Zm14.91,3v-1h8v1a4.34,4.34,0,0,0,1.11,2.78l1.12,1.28H389.13l1.11-1.28a4.4,4.4,0,0,0,1.11-2.8m23-31.87H376.46a2.59,2.59,0,0,0-2.58,2.58v25.7a2.57,2.57,0,0,0,2.57,2.57h13v1a2.41,2.41,0,0,1-.63,1.51l-1.7,2a.82.82,0,0,0-.16.25,1.65,1.65,0,0,0,1.51,2.31h13.9a1.64,1.64,0,0,0,1.38-.75,1.71,1.71,0,0,0,.13-1.57,1.43,1.43,0,0,0-.16-.24l-1.7-2a2.46,2.46,0,0,1-.63-1.52v-1h13a2.58,2.58,0,0,0,2.57-2.57h0V320.17a2.58,2.58,0,0,0-2.57-2.58" transform="translate(0 -44.67)"/>
  <path class="cls-24" d="M395.39,343a1.16,1.16,0,1,0,1.16,1.16,1.16,1.16,0,0,0-1.16-1.16h0" transform="translate(0 -44.67)"/>
  <path class="cls-21" d="M491.79,331.29a40.78,40.78,0,0,0-7.54-7.54c-.4-.29-.76-.53-1.08-.73v9.36h9.36c-.2-.32-.44-.69-.74-1.09" transform="translate(0 -44.67)"/>
  <path class="cls-36" d="M491.93,336.45H480.26a1.29,1.29,0,0,1-1.29-1.29h0V323.49h-20.1a3.24,3.24,0,0,0-3.24,3.24v35a3.24,3.24,0,0,0,3.24,3.24h29.82a3.25,3.25,0,0,0,3.24-3.24Z" transform="translate(0 -44.67)"/>
  <path class="cls-21" d="M474.2,318.17c-2.48-1.82-3.68-2-4.37-2h-17.7a3.85,3.85,0,0,0-3.85,3.85h0v35.35a3.84,3.84,0,0,0,3.08,3.77V320a.76.76,0,0,1,.77-.77h23.4c-.46-.38-.91-.73-1.34-1.05" transform="translate(0 -44.67)"/>
  <path class="cls-21" d="M483.94,347H465.86a1.29,1.29,0,0,1,0-2.58H484a1.29,1.29,0,0,1,0,2.58h0" transform="translate(0 -44.67)"/>
  <path class="cls-21" d="M483.94,352.17H465.86a1.29,1.29,0,0,1,0-2.58h18.09a1.29,1.29,0,1,1,0,2.58" transform="translate(0 -44.67)"/>
  <path class="cls-21" d="M483.94,357.31H465.86a1.29,1.29,0,0,1,0-2.58h18.09a1.29,1.29,0,1,1,0,2.58" transform="translate(0 -44.67)"/>
  <path class="cls-16" d="M404.23,401.31a2.68,2.68,0,0,1,2.69-2.69h35.56a2.68,2.68,0,0,1,2.69,2.69h0v5.86a2.7,2.7,0,0,1-2.68,2.7H406.93a2.7,2.7,0,0,1-2.7-2.7h0Zm2.7,10.77h35.55a5,5,0,0,0,4.94-4.94v-5.83a5,5,0,0,0-4.94-4.93H406.93A4.93,4.93,0,0,0,402,401.3h0v5.86a5,5,0,0,0,4.94,4.94" transform="translate(0 -44.67)"/>
  <path class="cls-16" d="M445.31,425.3a2.71,2.71,0,0,1-2.69,2.69H407.06a2.68,2.68,0,0,1-2.69-2.69h0v-5.83a2.68,2.68,0,0,1,2.69-2.69h35.56a2.71,2.71,0,0,1,2.69,2.69Zm-2.69-10.76H407.06a4.93,4.93,0,0,0-4.93,4.93v5.83a5,5,0,0,0,4.93,4.94h35.56a5,5,0,0,0,4.93-4.94v-5.83a4.93,4.93,0,0,0-4.93-4.93" transform="translate(0 -44.67)"/>
  <path class="cls-16" d="M430.42,405.17a.55.55,0,0,0,1.1,0,.49.49,0,0,0,0-.12.56.56,0,0,0-.5-.51.58.58,0,0,0-.59.57v0" transform="translate(0 -44.67)"/>
  <path class="cls-16" d="M430.13,403.31a.58.58,0,0,0,.58-.58h0a.59.59,0,0,0-.51-.66.58.58,0,0,0-.66.49v0a.38.38,0,0,0,0,.15.58.58,0,0,0,.56.58h0" transform="translate(0 -44.67)"/>
  <path class="cls-16" d="M428.75,405.17h0m-.59,0a.58.58,0,0,0,.59.59h0a.61.61,0,0,0,.59-.59.58.58,0,0,0-.59-.59h0a.58.58,0,0,0-.59.55v0h0" transform="translate(0 -44.67)"/>
  <path class="cls-16" d="M439.21,403.31a.58.58,0,0,0,.58-.56h0a.59.59,0,0,0-.51-.66.58.58,0,0,0-.66.49v0a.38.38,0,0,0,0,.15.58.58,0,0,0,.56.58h0" transform="translate(0 -44.67)"/>
  <path class="cls-16" d="M435,405.17a.58.58,0,0,0,.56.58h0a.59.59,0,0,0,.67-.49.6.6,0,0,0-.49-.68h-.18a.58.58,0,0,0-.59.57h0" transform="translate(0 -44.67)"/>
  <path class="cls-16" d="M437,403.31a.6.6,0,0,0,.59-.58.61.61,0,0,0-.59-.59.58.58,0,0,0-.58.58h0a.58.58,0,0,0,.56.58h0" transform="translate(0 -44.67)"/>
  <path class="cls-16" d="M437.79,405.17h0m-.58,0a.58.58,0,0,0,.59.59h0a.58.58,0,0,0,.59-.59.59.59,0,0,0-.59-.59h0a.6.6,0,0,0-.59.58h0" transform="translate(0 -44.67)"/>
  <path class="cls-16" d="M427.9,403.31a.58.58,0,0,0,.58-.56h0a.59.59,0,0,0-.51-.66.58.58,0,0,0-.66.49v0a.38.38,0,0,0,0,.15.58.58,0,0,0,.56.58h0" transform="translate(0 -44.67)"/>
  <path class="cls-16" d="M432.69,405.17a.58.58,0,1,0,.58-.59.58.58,0,0,0-.58.59h0" transform="translate(0 -44.67)"/>
  <path class="cls-16" d="M432.43,402.72h0m0,.59a.58.58,0,0,0,.58-.58h0a.59.59,0,0,0-.51-.66.59.59,0,0,0-.66.51.38.38,0,0,0,0,.15.58.58,0,0,0,.58.58h0" transform="translate(0 -44.67)"/>
  <path class="cls-16" d="M434.69,402.72h0m0,.59a.58.58,0,0,0,.58-.58h0a.59.59,0,0,0-.51-.66.59.59,0,0,0-.66.51.38.38,0,0,0,0,.15.58.58,0,0,0,.58.58h0" transform="translate(0 -44.67)"/>
  <path class="cls-16" d="M423.38,402.72h0m0,.59a.58.58,0,0,0,.58-.58h0a.59.59,0,0,0-.51-.66.59.59,0,0,0-.66.51.38.38,0,0,0,0,.15.58.58,0,0,0,.58.58h0" transform="translate(0 -44.67)"/>
  <path class="cls-16" d="M425.9,405.17a.58.58,0,0,0,.59.59h0a.58.58,0,0,0,.59-.59.59.59,0,0,0-.59-.59h0a.58.58,0,0,0-.59.57h0" transform="translate(0 -44.67)"/>
  <path class="cls-16" d="M422,405.77a.59.59,0,0,0,.51-.66.59.59,0,1,0-.67.66H422" transform="translate(0 -44.67)"/>
  <path class="cls-16" d="M423.64,405.17a.58.58,0,0,0,.56.58h0a.59.59,0,0,0,.67-.49.6.6,0,0,0-.49-.68h-.18a.58.58,0,0,0-.59.57h0" transform="translate(0 -44.67)"/>
  <path class="cls-16" d="M425.64,402.72h0m0,.59a.6.6,0,0,0,.59-.58.61.61,0,0,0-.59-.59.58.58,0,0,0-.58.58h0a.58.58,0,0,0,.56.58h0" transform="translate(0 -44.67)"/>
  <path class="cls-16" d="M413,401.67a2.29,2.29,0,1,1-2.29,2.29,2.3,2.3,0,0,1,2.29-2.29h0m0,6.51a4.23,4.23,0,1,0-4.22-4.24h0a4.23,4.23,0,0,0,4.22,4.22" transform="translate(0 -44.67)"/>
  <path class="cls-16" d="M439.21,420.38a.63.63,0,0,0-.08,1.24.6.6,0,0,0,.67-.51V421a.58.58,0,0,0-.58-.58h0" transform="translate(0 -44.67)"/>
  <path class="cls-16" d="M433,421a.59.59,0,1,0-.66.66.59.59,0,0,0,.66-.51.38.38,0,0,0,0-.15" transform="translate(0 -44.67)"/>
  <path class="cls-16" d="M431,422.83a.58.58,0,0,0-.59.59h0a.59.59,0,1,0,.59-.59" transform="translate(0 -44.67)"/>
  <path class="cls-16" d="M437.54,421a.6.6,0,0,0-.59-.58.58.58,0,0,0-.58.56v0a.6.6,0,0,0,.58.59.61.61,0,0,0,.59-.59" transform="translate(0 -44.67)"/>
  <path class="cls-16" d="M435.27,421a.58.58,0,0,0-.58-.58h0a.58.58,0,1,0,.58.58h0" transform="translate(0 -44.67)"/>
  <path class="cls-16" d="M437.79,422.83a.58.58,0,0,0-.58.58h0a.58.58,0,0,0,.56.58h0a.6.6,0,0,0,.59-.58.61.61,0,0,0-.59-.59" transform="translate(0 -44.67)"/>
  <path class="cls-16" d="M435.53,422.83a.58.58,0,0,0-.58.58h0a.58.58,0,0,0,.56.58h0a.6.6,0,0,0,.59-.58.61.61,0,0,0-.59-.59" transform="translate(0 -44.67)"/>
  <path class="cls-16" d="M433.27,422.83a.58.58,0,0,0-.59.59h0a.59.59,0,1,0,.59-.59" transform="translate(0 -44.67)"/>
  <path class="cls-16" d="M426.23,421a.6.6,0,0,0-.59-.58.58.58,0,0,0-.58.56v0a.6.6,0,0,0,.58.59.61.61,0,0,0,.59-.59" transform="translate(0 -44.67)"/>
  <path class="cls-16" d="M424.22,422.83a.58.58,0,0,0-.58.58h0a.58.58,0,0,0,.56.58h0a.6.6,0,0,0,.59-.58.61.61,0,0,0-.59-.59" transform="translate(0 -44.67)"/>
  <path class="cls-16" d="M426.48,422.83a.55.55,0,0,0-.61.5.55.55,0,0,0,.5.61.41.41,0,0,0,.19,0,.62.62,0,0,0,.51-.51.58.58,0,0,0-.59-.59h0" transform="translate(0 -44.67)"/>
  <path class="cls-16" d="M422,422.83a.58.58,0,0,0-.59.59h0a.59.59,0,1,0,.59-.59" transform="translate(0 -44.67)"/>
  <path class="cls-16" d="M424,421a.59.59,0,1,0-.66.66.59.59,0,0,0,.66-.51.38.38,0,0,0,0-.15" transform="translate(0 -44.67)"/>
  <path class="cls-16" d="M428.74,422.83a.56.56,0,0,0-.13,1.11.44.44,0,0,0,.2,0,.62.62,0,0,0,.51-.51.6.6,0,0,0-.58-.59" transform="translate(0 -44.67)"/>
  <path class="cls-16" d="M430.75,421a.6.6,0,0,0-.67-.51.59.59,0,0,0-.51.66.58.58,0,0,0,.51.51.6.6,0,0,0,.67-.51V421" transform="translate(0 -44.67)"/>
  <path class="cls-16" d="M428.49,421a.6.6,0,0,0-.67-.51.59.59,0,0,0-.51.66.58.58,0,0,0,.51.51.6.6,0,0,0,.67-.51V421" transform="translate(0 -44.67)"/>
  <path class="cls-16" d="M413,424.48a2.29,2.29,0,1,1,2.29-2.29h0a2.3,2.3,0,0,1-2.29,2.29m0-6.51a4.22,4.22,0,1,0,4.23,4.21h0A4.2,4.2,0,0,0,413,418h0" transform="translate(0 -44.67)"/>
  <path class="cls-16" d="M404.23,382.17a2.68,2.68,0,0,1,2.69-2.69h35.56a2.69,2.69,0,0,1,2.65,2.69h0V388a2.69,2.69,0,0,1-2.67,2.69H406.93a2.68,2.68,0,0,1-2.7-2.68h0Zm2.7,10.77h35.55a5,5,0,0,0,4.94-4.94v-5.83a5,5,0,0,0-4.94-4.94H406.93a5,5,0,0,0-4.94,4.94V388a5,5,0,0,0,4.94,4.94" transform="translate(0 -44.67)"/>
  <path class="cls-16" d="M434.69,383.53h0m0,.59a.58.58,0,0,0,.58-.58h0a.59.59,0,0,0-.51-.66.59.59,0,0,0-.66.51.38.38,0,0,0,0,.15.58.58,0,0,0,.58.58h0" transform="translate(0 -44.67)"/>
  <path class="cls-16" d="M432.69,386a.58.58,0,1,0,.58-.59.58.58,0,0,0-.58.59h0" transform="translate(0 -44.67)"/>
  <path class="cls-16" d="M439.21,384.17a.58.58,0,0,0,.58-.56h0a.59.59,0,0,0-.51-.66.58.58,0,0,0-.66.49v0a.38.38,0,0,0,0,.15.58.58,0,0,0,.56.58h0" transform="translate(0 -44.67)"/>
  <path class="cls-16" d="M435,386a.58.58,0,0,0,.56.58h0a.59.59,0,0,0,.67-.49.6.6,0,0,0-.49-.68h-.18a.58.58,0,0,0-.59.57h0" transform="translate(0 -44.67)"/>
  <path class="cls-16" d="M437.79,386h0m-.58,0a.58.58,0,0,0,.59.59h0a.58.58,0,0,0,.59-.59.59.59,0,0,0-.59-.59h0a.6.6,0,0,0-.59.58h0" transform="translate(0 -44.67)"/>
  <path class="cls-16" d="M437,384.17a.6.6,0,0,0,.59-.58A.61.61,0,0,0,437,383a.58.58,0,0,0-.58.58h0a.58.58,0,0,0,.56.58h0" transform="translate(0 -44.67)"/>
  <path class="cls-16" d="M432.43,383.53h0m0,.59a.58.58,0,0,0,.58-.58h0a.59.59,0,0,0-.51-.66.59.59,0,0,0-.66.51.38.38,0,0,0,0,.15.58.58,0,0,0,.58.58h0" transform="translate(0 -44.67)"/>
  <path class="cls-16" d="M423.38,383.53h0m0,.59a.58.58,0,0,0,.58-.58h0a.59.59,0,0,0-.51-.66.59.59,0,0,0-.66.51.38.38,0,0,0,0,.15.58.58,0,0,0,.58.58h0" transform="translate(0 -44.67)"/>
  <path class="cls-16" d="M423.64,386a.58.58,0,0,0,.56.58h0a.59.59,0,0,0,.67-.49.6.6,0,0,0-.49-.68h-.18a.58.58,0,0,0-.59.57h0" transform="translate(0 -44.67)"/>
  <path class="cls-16" d="M422,386.58a.59.59,0,0,0,.51-.66.59.59,0,1,0-.67.66H422" transform="translate(0 -44.67)"/>
  <path class="cls-16" d="M425.64,383.53h0m0,.59a.6.6,0,0,0,.59-.58.61.61,0,0,0-.59-.59.58.58,0,0,0-.58.58h0a.58.58,0,0,0,.56.58h0" transform="translate(0 -44.67)"/>
  <path class="cls-16" d="M428.75,386h0m-.59,0a.58.58,0,0,0,.59.59h0a.61.61,0,0,0,.59-.59.58.58,0,0,0-.59-.59h0a.58.58,0,0,0-.59.55v0h0" transform="translate(0 -44.67)"/>
  <path class="cls-16" d="M430.13,384.17a.58.58,0,0,0,.58-.58h0a.59.59,0,0,0-.51-.66.58.58,0,0,0-.66.49v0a.38.38,0,0,0,0,.15.58.58,0,0,0,.56.58h0" transform="translate(0 -44.67)"/>
  <path class="cls-16" d="M425.9,386a.58.58,0,0,0,.59.59h0a.58.58,0,0,0,.59-.59.59.59,0,0,0-.59-.59h0a.58.58,0,0,0-.59.57h0" transform="translate(0 -44.67)"/>
  <path class="cls-16" d="M430.42,386a.55.55,0,0,0,1.1,0,.49.49,0,0,0,0-.12.56.56,0,0,0-.5-.51.58.58,0,0,0-.59.57v0" transform="translate(0 -44.67)"/>
  <path class="cls-16" d="M427.9,384.17a.58.58,0,0,0,.58-.56h0a.59.59,0,0,0-.51-.66.58.58,0,0,0-.66.49v0a.38.38,0,0,0,0,.15.58.58,0,0,0,.56.58h0" transform="translate(0 -44.67)"/>
  <path class="cls-16" d="M413,382.48a2.29,2.29,0,1,1-2.29,2.29,2.3,2.3,0,0,1,2.29-2.29h0m0,6.51a4.23,4.23,0,1,0-4.22-4.24h0A4.23,4.23,0,0,0,413,389" transform="translate(0 -44.67)"/>
  <path class="cls-24" d="M589.82,510.81l-.09.22H585l.09-.43a27.63,27.63,0,0,0,.56-4.53v-.35H591v.39a15,15,0,0,1-1.13,4.7m-1.23,2.36a15.39,15.39,0,0,1-6.29,5.58l-1.32.64.88-1.18a18.09,18.09,0,0,0,2.65-5.33l.08-.25H589Zm-10,6.06a5.66,5.66,0,0,1-1.65.82l-.46.13v-7.56h6.44l-.17.48a17.51,17.51,0,0,1-1.42,3,10,10,0,0,1-2.74,3.11m-2.11-13.5h7.63v.38a26.11,26.11,0,0,1-.63,4.66l-.06.27h-6.89Zm0-6.89h6.89l.06.28a26.11,26.11,0,0,1,.63,4.66v.41h-7.59Zm0-9.14.46.14a5.4,5.4,0,0,1,1.65.81,10,10,0,0,1,2.74,3.11,17.51,17.51,0,0,1,1.42,3l.17.48H576.5Zm5.8,1.45a15.3,15.3,0,0,1,4.22,3,15.61,15.61,0,0,1,2.07,2.58l.35.55h-4.35l-.08-.25a17.91,17.91,0,0,0-2.65-5.32l-.88-1.18Zm7.52,7.91a15,15,0,0,1,1.13,4.7v.43h-5.31v-.34a27.75,27.75,0,0,0-.56-4.54l-.09-.43h4.72Zm-14.9-1.8h-6.44l.17-.48a16.74,16.74,0,0,1,1.41-3,10.2,10.2,0,0,1,2.74-3.11,5.34,5.34,0,0,1,1.66-.81l.46-.14Zm0,6.89h-7.6v-.37a23.63,23.63,0,0,1,.62-4.66l.07-.28h6.89Zm0,6.89H568l-.07-.27a24.4,24.4,0,0,1-.62-4.66v-.38h7.6Zm0,9.14-.46-.13a5.59,5.59,0,0,1-1.66-.82,10.2,10.2,0,0,1-2.74-3.11,16.43,16.43,0,0,1-1.41-3l-.17-.48h6.44Zm-5.79-1.43a15.11,15.11,0,0,1-4.21-3,14.34,14.34,0,0,1-2.08-2.58l-.35-.55h4.36l.08.25a17.48,17.48,0,0,0,2.64,5.33l.89,1.17Zm-7.52-7.92a14.62,14.62,0,0,1-1.12-4.7v-.39h5.3v.35a27.63,27.63,0,0,0,.56,4.53l.09.43h-4.72Zm-1.12-7.06a14.62,14.62,0,0,1,1.12-4.7l.09-.22h4.73l-.1.43a27.75,27.75,0,0,0-.56,4.54v.37h-5.3Zm2.35-7.05a14.34,14.34,0,0,1,2.08-2.58,15.11,15.11,0,0,1,4.21-3l1.33-.64-.89,1.18a17.42,17.42,0,0,0-2.64,5.32l-.08.25h-4.36Zm12.89-8.64a16.87,16.87,0,1,0,16.86,16.88h0a16.9,16.9,0,0,0-16.86-16.87" transform="translate(0 -44.67)"/>
  <g class="cls-37">
    <g>
      <path class="cls-30" d="M549.71,428.42H534.65a2.39,2.39,0,0,1-2.41-2.39V393.22a2.39,2.39,0,0,1,2.39-2.41h15.08a2.41,2.41,0,0,1,2.41,2.41V426a2.41,2.41,0,0,1-2.41,2.41m-15.46-36.35a.72.72,0,0,0-.74.7v0h0v33.65a.73.73,0,0,0,.73.72h15.89a.74.74,0,0,0,.74-.72h0V392.79a.73.73,0,0,0-.74-.72H534.25Z" transform="translate(0 -44.67)"/>
      <path class="cls-38" d="M549.71,428.42H534.65a2.39,2.39,0,0,1-2.41-2.39V393.22a2.39,2.39,0,0,1,2.39-2.41h15.08a2.41,2.41,0,0,1,2.41,2.41V426a2.41,2.41,0,0,1-2.41,2.41m-15.46-36.35a.72.72,0,0,0-.74.7v0h0v33.65a.73.73,0,0,0,.73.72h15.89a.74.74,0,0,0,.74-.72h0V392.79a.73.73,0,0,0-.74-.72H534.25Z" transform="translate(0 -44.67)"/>
      <path class="cls-30" d="M551.26,422.57H533.13c-.48,0-.86-.24-.86-.54s.38-.53.86-.53h18.16c.48,0,.86.24.86.53s-.38.54-.86.54" transform="translate(0 -44.67)"/>
      <path class="cls-38" d="M551.26,422.57H533.13c-.48,0-.86-.24-.86-.54s.38-.53.86-.53h18.16c.48,0,.86.24.86.53s-.38.54-.86.54" transform="translate(0 -44.67)"/>
      <path class="cls-30" d="M543.13,425.6h-1.66a.76.76,0,0,1-.18-1.51h1.84a.75.75,0,0,1,.82.69.76.76,0,0,1-.65.82h-.17" transform="translate(0 -44.67)"/>
      <path class="cls-38" d="M543.13,425.6h-1.66a.76.76,0,0,1-.18-1.51h1.84a.75.75,0,0,1,.82.69.76.76,0,0,1-.65.82h-.17" transform="translate(0 -44.67)"/>
      <path class="cls-30" d="M551.26,397.17H533.13c-.48,0-.86-.27-.86-.6s.38-.59.86-.59h18.16c.48,0,.86.26.86.59s-.38.6-.86.6" transform="translate(0 -44.67)"/>
      <path class="cls-38" d="M551.26,397.17H533.13c-.48,0-.86-.27-.86-.6s.38-.59.86-.59h18.16c.48,0,.86.26.86.59s-.38.6-.86.6" transform="translate(0 -44.67)"/>
    </g>
  </g>
  <path class="cls-21" d="M470,251.91a17,17,0,1,0-17-17h0a17,17,0,0,0,17,17" transform="translate(0 -44.67)"/>
  <path class="cls-3" d="M460.34,242.82h19.25V227.59H460.34Zm19.79,1.07H459.8a.53.53,0,0,1-.53-.53h0V227.05a.53.53,0,0,1,.53-.53h20.33a.55.55,0,0,1,.54.53v16.31a.56.56,0,0,1-.54.53" transform="translate(0 -44.67)"/>
  <path class="cls-3" d="M477.79,229.5a.54.54,0,0,1-.54-.54h0v-3.79a.52.52,0,0,1,.5-.54h0a.54.54,0,0,1,.55.53h0V229a.54.54,0,0,1-.54.54h0" transform="translate(0 -44.67)"/>
  <path class="cls-3" d="M473.88,229.5a.54.54,0,0,1-.54-.54h0v-3.79a.53.53,0,0,1,.44-.61h0a.55.55,0,0,1,.61.46v4a.56.56,0,0,1-.53.54" transform="translate(0 -44.67)"/>
  <path class="cls-3" d="M470,229.5a.55.55,0,0,1-.53-.54v-3.79a.53.53,0,0,1,.44-.61h0a.55.55,0,0,1,.61.46v4a.54.54,0,0,1-.54.54h0" transform="translate(0 -44.67)"/>
  <path class="cls-3" d="M466.05,229.5a.54.54,0,0,1-.54-.54h0v-3.79a.52.52,0,0,1,.5-.54h0a.54.54,0,0,1,.55.53h0V229a.54.54,0,0,1-.54.54h0" transform="translate(0 -44.67)"/>
  <path class="cls-3" d="M462.13,229.5a.55.55,0,0,1-.53-.54v-3.79a.53.53,0,0,1,.44-.61h0a.55.55,0,0,1,.61.46v4a.54.54,0,0,1-.54.54h0" transform="translate(0 -44.67)"/>
  <path class="cls-3" d="M471.79,236h-3.48a.55.55,0,0,1-.53-.54V232a.52.52,0,0,1,.5-.54h3.51a.55.55,0,0,1,.53.54v3.47a.56.56,0,0,1-.53.54" transform="translate(0 -44.67)"/>
  <path class="cls-3" d="M477.27,236H473.8a.54.54,0,0,1-.54-.54h0V232a.54.54,0,0,1,.54-.54h3.47a.54.54,0,0,1,.54.54h0v3.47a.54.54,0,0,1-.54.54h0" transform="translate(0 -44.67)"/>
  <path class="cls-3" d="M466.3,241.46h-3.47a.54.54,0,0,1-.54-.54h0v-3.47a.54.54,0,0,1,.54-.54h3.47a.54.54,0,0,1,.54.54h0v3.47a.54.54,0,0,1-.54.54h0" transform="translate(0 -44.67)"/>
  <path class="cls-3" d="M471.79,241.46h-3.48a.55.55,0,0,1-.53-.54v-3.47a.52.52,0,0,1,.5-.54h3.51a.55.55,0,0,1,.53.54v3.47a.56.56,0,0,1-.53.54" transform="translate(0 -44.67)"/>
  <path class="cls-3" d="M477.27,241.46H473.8a.54.54,0,0,1-.54-.54h0v-3.47a.54.54,0,0,1,.54-.54h3.47a.54.54,0,0,1,.54.54h0v3.47a.54.54,0,0,1-.54.54h0" transform="translate(0 -44.67)"/>
  <path class="cls-16" d="M693.13,301.55a19.84,19.84,0,1,0-19.82-19.88,19.84,19.84,0,0,0,19.82,19.88h0" transform="translate(0 -44.67)"/>
  <rect class="cls-3" x="686.77" y="225.87" width="12.77" height="3.19"/>
  <path class="cls-3" d="M698,291.29h-9.58v-8H698Zm-14.37-11.18a1.6,1.6,0,1,1,1.59-1.61h0a1.61,1.61,0,0,1-1.59,1.59m20.75-4.78H682a1.6,1.6,0,0,0-1.6,1.59v8a1.6,1.6,0,0,0,1.6,1.6h4.79v6.39h12.77V286.5h4.79a1.6,1.6,0,0,0,1.59-1.6v-8a1.59,1.59,0,0,0-1.59-1.59h0" transform="translate(0 -44.67)"/>
  <path class="cls-30" d="M159.22,207.59a16.66,16.66,0,1,0-16.65-16.67h0a16.64,16.64,0,0,0,16.64,16.66h0" transform="translate(0 -44.67)"/>
  <path class="cls-3" d="M167,190.94h.6a1.19,1.19,0,0,0,1.19-1.19h0v-2.38H167Z" transform="translate(0 -44.67)"/>
  <path class="cls-3" d="M167,182.58v3.59h.6a1.19,1.19,0,0,0,1.19-1.19h0v-2.39Z" transform="translate(0 -44.67)"/>
  <path class="cls-3" d="M162.8,195.67h-7.16v-1.2a2.37,2.37,0,0,1,2.36-2.38h2.41a2.39,2.39,0,0,1,2.39,2.37h0Zm-9.54,3.58h-1.2V182.58h1.2Zm6-13.12a2.38,2.38,0,1,1-2.38,2.38,2.39,2.39,0,0,1,2.38-2.38h0m7.16,6V181.39H150.87a1.19,1.19,0,0,0-1.19,1.19h0v16.71a1.19,1.19,0,0,0,1.19,1.19h15.51Z" transform="translate(0 -44.67)"/>
  <path class="cls-3" d="M167,195.67h.6a1.19,1.19,0,0,0,1.19-1.19h0V192.1H167Z" transform="translate(0 -44.67)"/>
  <path class="cls-20" d="M591.88,241.53a19.18,19.18,0,1,0-19.17-19.19h0a19.18,19.18,0,0,0,19.17,19.18" transform="translate(0 -44.67)"/>
  <path class="cls-3" d="M597.07,212.83a4.33,4.33,0,0,1-1.22.33,2.2,2.2,0,0,0,.94-1.18,4.35,4.35,0,0,1-1.35.52,2.15,2.15,0,0,0-1.56-.67,2.13,2.13,0,0,0-2.13,2.13h0a1.29,1.29,0,0,0,.06.48,6,6,0,0,1-4.39-2.22,1.92,1.92,0,0,0-.29,1.07,2.12,2.12,0,0,0,.94,1.77,2.2,2.2,0,0,1-1-.27h0a2.12,2.12,0,0,0,1.71,2.09,2.1,2.1,0,0,1-.56.07h-.4a2.15,2.15,0,0,0,2,1.48,5,5,0,0,1-3.16.91,6.13,6.13,0,0,0,3.27,1A6,6,0,0,0,596,214.4h0V214a4.44,4.44,0,0,0,1.06-1.1" transform="translate(0 -44.67)"/>
  <path class="cls-3" d="M596.63,231.17l4.32-3.46-4.32-3.46Zm7.78-.86a1.75,1.75,0,0,1-1.73,1.73H594a1.75,1.75,0,0,1-1.73-1.73v-5.19a1.72,1.72,0,0,1,1.73-1.73h8.65a1.75,1.75,0,0,1,1.73,1.73Zm-1.73-7.79H594a2.59,2.59,0,0,0-2.59,2.59h0v5.19A2.6,2.6,0,0,0,594,232.9h8.65a2.63,2.63,0,0,0,2.6-2.59v-5.19a2.62,2.62,0,0,0-2.6-2.6" transform="translate(0 -44.67)"/>
  <path class="cls-3" d="M587.13,222.5h-6.92a1.72,1.72,0,0,0-1.73,1.73v6.94a1.72,1.72,0,0,0,1.73,1.73h3.46v-4.54h-1.29v-1.3h1.29v-1a1.61,1.61,0,0,1,1.6-1.62h1.65v1.3h-1.63a.32.32,0,0,0-.32.32h0v1h1.78l-.32,1.3H585v4.54h2.16a1.73,1.73,0,0,0,1.73-1.71v-6.94a1.72,1.72,0,0,0-1.73-1.73" transform="translate(0 -44.67)"/>
  <path class="cls-21" d="M141.32,569.83a17,17,0,1,0-17-17h0a17,17,0,0,0,17,17" transform="translate(0 -44.67)"/>
  <path class="cls-3" d="M135.39,541.17a.56.56,0,0,0-.56.56V563.9a.56.56,0,0,0,.56.55h11.86a.58.58,0,0,0,.56-.55V541.74a.57.57,0,0,0-.56-.56Zm11.86,24.63H135.39a1.9,1.9,0,0,1-1.9-1.9h0V541.74a1.9,1.9,0,0,1,1.9-1.9h11.86a1.91,1.91,0,0,1,1.9,1.9v22.17a1.91,1.91,0,0,1-1.9,1.9h0" transform="translate(0 -44.67)"/>
  <path class="cls-3" d="M148.48,561.17H134.13a.7.7,0,0,1-.6-.76.68.68,0,0,1,.6-.59h14.32a.68.68,0,0,1,0,1.35" transform="translate(0 -44.67)"/>
  <path class="cls-3" d="M148.48,544.82H134.13a.67.67,0,0,1-.67-.67h0a.67.67,0,0,1,.66-.68h14.33a.69.69,0,0,1,.67.68.67.67,0,0,1-.67.67h0" transform="translate(0 -44.67)"/>
  <rect class="cls-3" x="134.65" y="496.14" width="13.76" height="4.19"/>
  <rect class="cls-3" x="134.65" y="515.8" width="13.76" height="4.19"/>
  <path class="cls-39" d="M142,562.84h-1.37a.64.64,0,0,1-.64-.64h0a.64.64,0,0,1,.64-.64H142a.64.64,0,0,1,.64.64h0a.64.64,0,0,1-.64.64h0" transform="translate(0 -44.67)"/>
  <path class="cls-30" d="M702.54,189.58a14.18,14.18,0,1,0-14.17-14.19h0a14.16,14.16,0,0,0,14.16,14.18h0" transform="translate(0 -44.67)"/>
  <path class="cls-3" d="M693.72,178v-8.9a.27.27,0,0,1,.26-.28H710.7a.3.3,0,0,1,.28.28V178Zm.27,2.71a.27.27,0,0,1-.27-.27h0v-1.58H711v1.58a.28.28,0,0,1-.28.27Zm6.58,1.31v-.45h3.56V182a1.87,1.87,0,0,0,.49,1.23l.49.56H699.6l.49-.56a1.89,1.89,0,0,0,.49-1.24M710.71,168H694a1.14,1.14,0,0,0-1.13,1.13h0v11.34a1.15,1.15,0,0,0,1.13,1.13h5.72V182a1.07,1.07,0,0,1-.28.66l-.75.87a.61.61,0,0,0-.07.1.72.72,0,0,0,.39.94.63.63,0,0,0,.27.06h6.13a.75.75,0,0,0,.73-.74.58.58,0,0,0-.06-.26l-.07-.11-.75-.86A1,1,0,0,1,705,182v-.45h5.72a1.14,1.14,0,0,0,1.14-1.13V169.11a1.14,1.14,0,0,0-1.14-1.14h0" transform="translate(0 -44.67)"/>
  <rect class="cls-3" x="693.28" y="134" width="18.1" height="2.6"/>
  <path class="cls-30" d="M702.33,179.49a.56.56,0,1,0,0,1.12h0a.57.57,0,0,0,.56-.56h0a.55.55,0,0,0-.55-.55h0" transform="translate(0 -44.67)"/>
  <path class="cls-3" d="M699.76,181.17h0l.08,1.7L699,184l.57.17a6.34,6.34,0,0,0,1.57.16h4.58l-.52-.93a8.71,8.71,0,0,1-.61-1.27v-.49s0-.35-1-.38Z" transform="translate(0 -44.67)"/>
  <path class="cls-24" d="M674.35,411.17a17,17,0,1,0-17-17h0a17,17,0,0,0,17,17h0" transform="translate(0 -44.67)"/>
  <path class="cls-3" d="M666,393.17a1.08,1.08,0,0,1,1.06-1.1h14.46a1.09,1.09,0,0,1,1.09,1.09h0v2.36a1.09,1.09,0,0,1-1.09,1.09H667.13a1.09,1.09,0,0,1-1.09-1.09h0Zm1.09,4.36h14.43a2,2,0,0,0,2-2v-2.36a2,2,0,0,0-2-2H667.13a2,2,0,0,0-2,2v2.36a2,2,0,0,0,2,2" transform="translate(0 -44.67)"/>
  <path class="cls-3" d="M682.69,402.9A1.09,1.09,0,0,1,681.6,404H667.13a1.09,1.09,0,0,1-1.1-1.08h0v-2.37a1.09,1.09,0,0,1,1.09-1.09h14.44a1.09,1.09,0,0,1,1.09,1.09h0Zm-1.09-4.37H667.13a2,2,0,0,0-2,2v2.37a2,2,0,0,0,2,2h14.43a2,2,0,0,0,2-2v-2.37a2,2,0,0,0-2-2" transform="translate(0 -44.67)"/>
  <path class="cls-3" d="M666,385.38a1.09,1.09,0,0,1,1.08-1.1h14.44a1.11,1.11,0,0,1,1.09,1.1v2.36a1.1,1.1,0,0,1-1.08,1.1H667.13a1.11,1.11,0,0,1-1.1-1.09h0Zm1.09,4.37h14.43a2,2,0,0,0,2-2v-2.36a2,2,0,0,0-2-2H667.13a2,2,0,0,0-2,2v2.36a2,2,0,0,0,2,2" transform="translate(0 -44.67)"/>
  <rect class="cls-3" x="665.74" y="339.56" width="17.29" height="4.93"/>
  <rect class="cls-3" x="665.73" y="347" width="17.29" height="4.93"/>
  <rect class="cls-3" x="665.73" y="354.58" width="17.29" height="4.93"/>
  <path class="cls-24" d="M676.65,394.74a.23.23,0,0,0,.46,0h0a.25.25,0,0,0-.19-.28.24.24,0,0,0-.28.17h0a.17.17,0,0,0,0,.1" transform="translate(0 -44.67)"/>
  <path class="cls-24" d="M676.54,394a.24.24,0,1,0-.24-.24.24.24,0,0,0,.24.24" transform="translate(0 -44.67)"/>
  <path class="cls-24" d="M676,394.73h0m-.24,0a.22.22,0,0,0,.21.23h0a.24.24,0,0,0,0-.47h0a.24.24,0,0,0-.24.24" transform="translate(0 -44.67)"/>
  <path class="cls-24" d="M680.21,394a.24.24,0,0,0,0-.48.23.23,0,0,0-.25.21v0h0a.23.23,0,0,0,.22.24h0" transform="translate(0 -44.67)"/>
  <path class="cls-24" d="M678.48,394.74a.24.24,0,1,0,.24-.24.23.23,0,0,0-.23.23h0" transform="translate(0 -44.67)"/>
  <path class="cls-24" d="M679.3,394a.24.24,0,1,0-.24-.24.24.24,0,0,0,.24.24" transform="translate(0 -44.67)"/>
  <path class="cls-24" d="M679.64,394.73h0m-.24,0a.24.24,0,0,0,.24.24.26.26,0,0,0,.24-.24.24.24,0,0,0-.24-.24.23.23,0,0,0-.24.22h0" transform="translate(0 -44.67)"/>
  <path class="cls-24" d="M675.63,394a.24.24,0,1,0-.24-.24h0a.22.22,0,0,0,.2.24h0" transform="translate(0 -44.67)"/>
  <path class="cls-24" d="M677.57,394.74a.23.23,0,0,0,.46,0h0a.24.24,0,0,0-.24-.24.23.23,0,0,0-.24.22h0" transform="translate(0 -44.67)"/>
  <path class="cls-24" d="M677.46,393.74h0m0,.24a.24.24,0,1,0-.24-.24h0a.24.24,0,0,0,.24.24" transform="translate(0 -44.67)"/>
  <path class="cls-24" d="M678.38,393.74h0m0,.24a.24.24,0,1,0-.24-.24h0a.24.24,0,0,0,.24.24" transform="translate(0 -44.67)"/>
  <path class="cls-24" d="M673.79,393.74h0m0,.24a.24.24,0,1,0-.24-.24h0a.24.24,0,0,0,.24.24" transform="translate(0 -44.67)"/>
  <path class="cls-24" d="M674.81,394.74a.24.24,0,1,0,.24-.24.23.23,0,0,0-.23.23h0" transform="translate(0 -44.67)"/>
  <path class="cls-24" d="M673.21,395a.22.22,0,0,0,.23-.21h0a.24.24,0,0,0-.24-.24.23.23,0,0,0-.24.22h0a.23.23,0,0,0,.23.23" transform="translate(0 -44.67)"/>
  <path class="cls-24" d="M673.89,394.74a.24.24,0,0,0,.24.24.26.26,0,0,0,.24-.24.24.24,0,0,0-.24-.24.23.23,0,0,0-.24.22h0" transform="translate(0 -44.67)"/>
  <path class="cls-24" d="M674.71,393.74h0m0,.24a.24.24,0,0,0,0-.48h0a.24.24,0,0,0,0,.48" transform="translate(0 -44.67)"/>
  <path class="cls-24" d="M669.58,393.31a.93.93,0,1,1-.93.93h0a.93.93,0,0,1,.93-.93m0,2.64a1.72,1.72,0,1,0-1.72-1.72h0a1.72,1.72,0,0,0,1.71,1.71h0" transform="translate(0 -44.67)"/>
  <path class="cls-24" d="M680.21,400.9a.24.24,0,1,0,.24.24h0a.23.23,0,0,0-.22-.24h0" transform="translate(0 -44.67)"/>
  <path class="cls-24" d="M677.7,401.17a.24.24,0,1,0-.24.24h0a.24.24,0,0,0,.24-.24" transform="translate(0 -44.67)"/>
  <path class="cls-24" d="M676.88,401.9a.23.23,0,0,0-.24.22h0a.23.23,0,0,0,.23.23.25.25,0,0,0,.26-.19.25.25,0,0,0-.19-.28h-.09" transform="translate(0 -44.67)"/>
  <path class="cls-24" d="M679.53,401.17a.23.23,0,0,0-.22-.24h0a.24.24,0,1,0,0,.48.23.23,0,0,0,.23-.23h0" transform="translate(0 -44.67)"/>
  <path class="cls-24" d="M678.62,401.17a.24.24,0,1,0-.24.24h0a.24.24,0,0,0,.24-.24" transform="translate(0 -44.67)"/>
  <path class="cls-24" d="M679.64,401.93a.24.24,0,0,0,0,.48h0a.24.24,0,0,0,.24-.24h0a.24.24,0,0,0-.24-.24" transform="translate(0 -44.67)"/>
  <path class="cls-24" d="M678.72,401.9a.24.24,0,0,0,0,.48h0a.24.24,0,0,0,.24-.24h0a.24.24,0,0,0-.24-.24" transform="translate(0 -44.67)"/>
  <path class="cls-24" d="M677.8,401.9a.23.23,0,0,0-.24.22h0a.23.23,0,0,0,.23.23.24.24,0,0,0,.32-.12.14.14,0,0,0,0-.07.25.25,0,0,0-.19-.28h-.09" transform="translate(0 -44.67)"/>
  <path class="cls-24" d="M674.94,401.17a.23.23,0,0,0-.22-.24h0a.24.24,0,0,0,0,.48.23.23,0,0,0,.23-.23h0" transform="translate(0 -44.67)"/>
  <path class="cls-24" d="M674.13,401.9a.24.24,0,1,0,.24.24h0a.24.24,0,0,0-.24-.24" transform="translate(0 -44.67)"/>
  <path class="cls-24" d="M675.05,401.9a.24.24,0,1,0,.24.24h0a.24.24,0,0,0-.24-.24" transform="translate(0 -44.67)"/>
  <path class="cls-24" d="M673.21,401.9a.23.23,0,0,0-.24.22h0a.23.23,0,0,0,.23.23.24.24,0,0,0,.09-.47h-.09" transform="translate(0 -44.67)"/>
  <path class="cls-24" d="M674,401.17a.24.24,0,1,0-.24.24h0a.24.24,0,0,0,.24-.24" transform="translate(0 -44.67)"/>
  <path class="cls-24" d="M676,401.93a.26.26,0,0,0-.29.19.25.25,0,0,0,.19.28h.1a.24.24,0,0,0,0-.47h0" transform="translate(0 -44.67)"/>
  <path class="cls-24" d="M676.78,401.17a.24.24,0,1,0-.24.24h0a.24.24,0,0,0,.24-.24" transform="translate(0 -44.67)"/>
  <path class="cls-24" d="M675.86,401.17a.26.26,0,0,0-.25-.24.23.23,0,0,0-.23.23h0a.24.24,0,0,0,.24.24h0a.23.23,0,0,0,.23-.23h0" transform="translate(0 -44.67)"/>
  <path class="cls-24" d="M669.58,402.57a.93.93,0,1,1,.93-.93h0a.93.93,0,0,1-.93.93m0-2.65a1.72,1.72,0,1,0,0,3.44h0a1.73,1.73,0,0,0,1.73-1.71h0a1.72,1.72,0,0,0-1.71-1.72" transform="translate(0 -44.67)"/>
  <path class="cls-24" d="M678.38,386h0m0,.24a.24.24,0,0,0,.24-.24.26.26,0,0,0-.25-.24.24.24,0,0,0,0,.48" transform="translate(0 -44.67)"/>
  <path class="cls-24" d="M677.57,387a.22.22,0,0,0,.2.24h0a.24.24,0,0,0,0-.48h0a.23.23,0,0,0-.24.22h0" transform="translate(0 -44.67)"/>
  <path class="cls-24" d="M680.21,386.17a.24.24,0,0,0,.24-.24.23.23,0,0,0-.23-.23h0a.24.24,0,0,0,0,.47h0" transform="translate(0 -44.67)"/>
  <path class="cls-24" d="M678.48,387a.24.24,0,1,0,.24-.24h0a.24.24,0,0,0-.24.24" transform="translate(0 -44.67)"/>
  <path class="cls-24" d="M679.64,387h0m-.24,0a.24.24,0,1,0,.24-.24h0a.24.24,0,0,0-.24.24" transform="translate(0 -44.67)"/>
  <path class="cls-24" d="M679.3,386.17a.23.23,0,0,0,.23-.23h0a.23.23,0,0,0-.23-.23.22.22,0,0,0-.24.2v0h0a.24.24,0,0,0,.24.24" transform="translate(0 -44.67)"/>
  <path class="cls-24" d="M677.46,386h0m0,.24a.24.24,0,0,0,.24-.24.26.26,0,0,0-.25-.24.24.24,0,0,0,0,.48" transform="translate(0 -44.67)"/>
  <path class="cls-24" d="M673.79,386h0m0,.24A.24.24,0,0,0,674,386a.26.26,0,0,0-.25-.24.24.24,0,0,0,0,.48" transform="translate(0 -44.67)"/>
  <path class="cls-24" d="M673.89,387a.24.24,0,0,0,.27.2.25.25,0,0,0,.2-.28.24.24,0,0,0-.47,0" transform="translate(0 -44.67)"/>
  <path class="cls-24" d="M673.21,387.17a.24.24,0,1,0-.24-.24.24.24,0,0,0,.24.24" transform="translate(0 -44.67)"/>
  <path class="cls-24" d="M674.71,386h0m0,.24a.23.23,0,0,0,.23-.23h0a.23.23,0,0,0-.23-.23.22.22,0,0,0-.24.2v0h0a.24.24,0,0,0,.24.24" transform="translate(0 -44.67)"/>
  <path class="cls-24" d="M676,386.93h0m-.24,0a.24.24,0,0,0,.22.25.24.24,0,0,0,.25-.23h0a.23.23,0,0,0-.21-.25h0a.23.23,0,0,0-.24.22h0" transform="translate(0 -44.67)"/>
  <path class="cls-24" d="M676.56,386.17a.23.23,0,0,0,.23-.23.25.25,0,0,0-.19-.28.24.24,0,0,0-.28.17h0a.17.17,0,0,0,0,.1.22.22,0,0,0,.21.23h0" transform="translate(0 -44.67)"/>
  <path class="cls-24" d="M674.81,387a.24.24,0,1,0,.24-.24h0a.24.24,0,0,0-.24.24" transform="translate(0 -44.67)"/>
  <path class="cls-24" d="M676.65,387a.24.24,0,0,0,.48,0,.26.26,0,0,0-.25-.24h0a.23.23,0,0,0-.24.22h0" transform="translate(0 -44.67)"/>
  <path class="cls-24" d="M675.64,386.17a.24.24,0,0,0,0-.47h0a.24.24,0,0,0-.24.24.22.22,0,0,0,.21.23h0" transform="translate(0 -44.67)"/>
  <path class="cls-24" d="M669.58,385.52a.93.93,0,1,1-.93.93h0a.93.93,0,0,1,.93-.93m0,2.64a1.71,1.71,0,1,0-1.71-1.71,1.72,1.72,0,0,0,1.71,1.71h0" transform="translate(0 -44.67)"/>
  <path class="cls-15" d="M374.34,463.67a13.15,13.15,0,0,0-8.62-20.89" transform="translate(0 -44.67)"/>
  <path class="cls-3" d="M230.05,624.31a4.89,4.89,0,1,0-4.89-4.89,4.89,4.89,0,0,0,4.89,4.89h0" transform="translate(0 -44.67)"/>
  <path class="cls-3" d="M651.29,445.17a1.95,1.95,0,1,0-1.95-1.95h0a2,2,0,0,0,1.93,1.95h0" transform="translate(0 -44.67)"/>
  <g>
    <path class="cls-40" d="M791.44,755.79c0-15.24-20.4-14.44-20.4-23.64,0-3.35,1.94-5.17,5.23-5.17,4.09,0,4.7,3.7,4.7,7.32h9.86c.68-10.14-4.22-14.57-14.09-14.57-12.35,0-16,6-16,13.63,0,14.43,20.4,15,20.4,23.7,0,3.29-1.68,5.5-5.1,5.5-5.57,0-5.78-3.89-5.78-8.52H760.13c-.54,8.39,1.82,15.77,14.37,15.77,7.71,0,16.91-1.47,16.91-14M754.89,769v-7.46H738.13V747.39h15v-7.45h-15V728h16.31v-7.45h-26.5V769Zm-34.54-48.47H710.24V769h10.14Zm-47.91,0v8h11.28V769h10.14V728.59h11.27v-8Zm-5,0H657.33V769h10.14Zm-47.91,0v8h11.29V769H641V728.59h11.27v-8ZM587.73,769V733.57h.13L601.13,769h13.36V720.54H605v33.57h-.14L592,720.54H578.27V769Zm-15.43,0v-7.46H555.45V747.39h15v-7.45h-15V728h16.31v-7.45H545.31V769Zm-66.49,0h16.52c17.32,0,16.17-17,16.17-24.5,0-15.11-2.48-24-15.77-24H505.81ZM516,728h5.24c7,0,7,7.86,7,16.78,0,12.15-1.2,16.78-7.38,16.78h-4.9Zm-17.82-7.47H488V769h10.11Z" transform="translate(0 -44.67)"/>
    <path class="cls-3" d="M664.44,657h8.79c5,0,7.65,1.28,7.65,7.93,0,8.12-3,9.8-9.47,9.8h-7Zm8.12,21.35c9.33,0,7.92,9.34,8,11.41.07,2.63.27,10.68.68,12.09h4.09c-.13-1.88-.47-3.76-.47-5.64,0-17.32-.4-18.13-7.18-19.54v-.13c6.51-1.48,7.52-5.51,7.52-11.55,0-8.52-2.35-11.61-11.68-11.61H660.13v48.47h4.3v-23.5Zm-44.92-25h-4.3V687c0,12.48,6.58,15.78,14.17,15.78s14.16-3.3,14.16-15.78v-33.6h-4.3v30.48c0,6.31,0,15.3-9.86,15.3s-9.87-9-9.87-15.3Zm-26.51,49.44c15.77,0,14.63-15.78,14.63-25.18s1.11-25.17-14.63-25.17-14.63,15.77-14.63,25.17-1.15,25.18,14.63,25.18m0-3.63c-10.47,0-10.34-9.33-10.34-21.55s-.13-21.55,10.34-21.55,10.34,9.34,10.34,21.55.1,21.53-10.34,21.53m-34.6,2.69h4.3V681.74l13.83-28.33h-4.29l-11.62,24.1-11.08-24.1h-4.83l13.69,28.33ZM512.3,653.39v48.47h22.42v-3.63H516.56V678.78h16.86v-3.61H516.56V657h17.66v-3.62Zm-7.6,12.28c0-7-2.15-13.22-12.22-13.22-7.92,0-13.22,3.49-13.16,11.88.07,4.84.48,7.72,9.87,13.5,7,4.29,11.35,6.17,11.35,12.75,0,5.57-2.75,8.59-8.39,8.59-8.67,0-9.07-5.57-9.07-10.94h-4.43c-.4,9.47,3.83,14.57,13.3,14.57,8.45,0,12.88-4.24,12.88-12.89,0-9.4-6.1-10.67-12.08-15-5.5-4-9.13-4.16-9.13-11.34,0-5.71,3.29-7.53,8.53-7.53,6.58,0,8,3.63,8.19,9.6Zm-56.79-12.28h-4.29V687c0,12.48,6.58,15.78,14.16,15.78S472,699.5,472,687V653.41h-4.3v30.48c0,6.31,0,15.3-9.87,15.3s-9.87-9-9.87-15.3Z" transform="translate(0 -44.67)"/>
  </g>
</svg>
