<svg xmlns="http://www.w3.org/2000/svg" viewBox="0 0 150 150"><defs><style>.a{fill:#fff;}</style></defs><ellipse class="a" cx="74.45738" cy="48.99579" rx="21.24106" ry="21.52295"/><path class="a" d="M110.05733,78.41321c-2.67566-6.31171-7.27478-11.13477-15.00177-11.437a27.00254,27.00254,0,0,1-41.19623.00018C38.32808,67.589,35.453,86.60773,35.453,99.0907c0,9.0697,5.92114,14.52093,14.80285,14.52093H93.28352a23.68755,23.68755,0,0,1,16.77381-35.19842Z"/><path class="a" d="M113.83833,81.10815a20.70948,20.70948,0,1,0,20.71,20.70948A20.73268,20.73268,0,0,0,113.83833,81.10815Zm0,38.419a17.70948,17.70948,0,1,1,17.71-17.70947A17.7294,17.7294,0,0,1,113.83833,119.5271Z"/><path class="a" d="M120.74922,100.30615h-5.17187V95.13428a1.5,1.5,0,0,0-3,0v5.17187h-5.1709a1.5,1.5,0,0,0,0,3h5.1709v5.17139a1.5,1.5,0,0,0,3,0v-5.17139h5.17187a1.5,1.5,0,0,0,0-3Z"/></svg>