<svg xmlns="http://www.w3.org/2000/svg" viewBox="0 0 150 150"><defs><style>.a{fill:#fff;}</style></defs><path class="a" d="M119.22891,74.49855h-7.1402A41.71688,41.71688,0,0,0,72.78732,33.40834a3.02549,3.02549,0,0,0-.54669-.07965c-.31019-.01379-.61213.01264-.921.00574-.30761-.00678-.60693-.04608-.91607-.04608-.42945,0-.85205.04681-1.27979.05987-.63751.01905-1.27258.04108-1.90307.08887-.71772.05444-1.428.14026-2.13868.23114-.624.08-1.24792.15546-1.86358.26306-.74286.12921-1.47418.29712-2.20673.46588-.55115.12775-1.10528.243-1.64819.39258-.83557.22876-1.65418.50476-2.47241.78479-.41333.14234-.83362.26648-1.24115.42127-.99073.37445-1.95856.80291-2.91815,1.25244-.21662.1018-.441.18786-.65564.29333a41.68682,41.68682,0,0,0-10.04163,6.8786c-.05188.048-.071.11432-.11877.1651A41.566,41.566,0,0,0,28.73019,73.16286c-.02039.464.01184.921.00653,1.38318a2.99952,2.99952,0,0,0-.04584.454c0,.35193.04413.69281.05286,1.04272.01892.798.05688,1.59125.1206,2.38178.04682.57251.10584,1.14.17566,1.70587q.15419,1.264.384,2.509c.0913.491.18933.978.29785,1.46289q.2958,1.33191.67932,2.636c.12073.41064.24487.81848.37781,1.22382q.4464,1.3666.9887,2.69616c.143.35169.28809.701.44037,1.04785q.58878,1.343,1.2746,2.64185c.17328.32947.34912.656.531.98016q.70458,1.25574,1.49853,2.46418.33134.50546.67615.99969.7934,1.13627,1.665,2.225c.27539.34375.55639.68029.84222,1.01507.31976.37445.60718.76929.94128,1.13428a3.02616,3.02616,0,0,0,.45636.40308,41.61579,41.61579,0,0,0,59.80445.92559,3.02089,3.02089,0,1,0-4.27222-4.27215A35.61331,35.61331,0,0,1,43.2842,98.11129c-.24188-.28351-.48028-.5691-.71246-.85871q-.74616-.93118-1.43048-1.91174-.29223-.419-.57141-.84479-.67823-1.03427-1.28687-2.11578c-.15448-.27552-.30383-.5531-.45062-.83216q-.584-1.1099-1.09192-2.26342c-.1297-.29578-.25384-.59363-.3753-.89277q-.4617-1.13479-.846-2.30719-.17038-.52185-.32385-1.04907-.32538-1.10751-.5785-2.24457-.14034-.63115-.258-1.26788c-.13007-.70025-.23627-1.40832-.32477-2.12207-.06061-.49518-.11334-.99158-.15332-1.491-.05359-.658-.08368-1.32238-.10077-1.98986-.0202-.8285-.04822-1.65607-.01123-2.49189A35.7212,35.7212,0,0,1,57.90182,41.607c.166-.06207.33649-.1112.50342-.17084.8753-.31445,1.76312-.6015,2.66742-.84777.333-.09009.67181-.15955,1.00769-.23993.75061-.18109,1.506-.34864,2.27325-.4812.44159-.07557.88794-.12922,1.33331-.18818.68183-.09124,1.3664-.17224,2.0589-.22412.49787-.03686.999-.05383,1.5-.07007.64789-.02117,1.29834-.02838,1.95368-.01416a35.6783,35.6783,0,0,1,34.84686,35.12787H98.95754c-2.21551,0-2.74646,1.2818-1.17981,2.84839l8.46711,8.4671a4.04008,4.04008,0,0,0,5.69684,0l8.46716-8.4671C121.97537,75.78035,121.44454,74.49855,119.22891,74.49855Z"/><path class="a" d="M57.02462,73.02327q-.003,7.68933-.00055,15.37873A3.37492,3.37492,0,0,0,59.826,91.96138a.31276.31276,0,0,1,.08484.05493H81.17556c.22009-.06951.44306-.13122.65985-.20983A3.32277,3.32277,0,0,0,84.055,88.71913q.01885-7.97085-.002-15.94171a3.34845,3.34845,0,0,0-3.28888-3.28595c-.38574-.00934-.77191-.00134-1.20812-.00134v-.39056c0-1.33728.00225-2.67456-.00037-4.01184A9.00836,9.00836,0,0,0,61.67727,63.408a12.52857,12.52857,0,0,0-.1405,1.78473c-.0199,1.417-.00641,2.83453-.00641,4.29535-.336,0-.64856-.00049-.96112.00012A3.3849,3.3849,0,0,0,57.02462,73.02327ZM71.02914,87.52388a1.38348,1.38348,0,0,1-.94922.36524,1.43931,1.43931,0,0,1-.97266-.36035,1.26671,1.26671,0,0,1-.415-1.00879,1.30066,1.30066,0,0,1,.40137-.96778,1.36042,1.36042,0,0,1,.98633-.39258A1.34084,1.34084,0,0,1,71.44027,86.52,1.27548,1.27548,0,0,1,71.02914,87.52388Zm3.40918-8.45263A4.16362,4.16362,0,0,1,73.69027,80.08q-.43359.4248-1.55664,1.42871a6.13825,6.13825,0,0,0-.49707.49755,2.03445,2.03445,0,0,0-.2793.39209,1.92453,1.92453,0,0,0-.14062.356c-.03418.11865-.084.32764-.15137.62549a1.01554,1.01554,0,0,1-1.08594.94922,1.11172,1.11172,0,0,1-.79882-.31006,1.22048,1.22048,0,0,1-.32422-.92236,3.23613,3.23613,0,0,1,.86718-2.314,14.46865,14.46865,0,0,1,1.05957-1.0083c.38868-.34082.6709-.59814.84375-.77148a2.6219,2.6219,0,0,0,.43848-.57959,1.4071,1.4071,0,0,0,.17774-.69385,1.61107,1.61107,0,0,0-.543-1.23193,1.98221,1.98221,0,0,0-1.40137-.50245,1.938,1.938,0,0,0-1.47852.50684,4.04945,4.04945,0,0,0-.80371,1.49219q-.30908,1.032-1.17675,1.03174a1.1583,1.1583,0,0,1-.86329-.36084,1.10221,1.10221,0,0,1-.35156-.78028,3.30378,3.30378,0,0,1,.55762-1.75732,4.28643,4.28643,0,0,1,1.624-1.47412,5.11886,5.11886,0,0,1,2.49219-.584,5.31909,5.31909,0,0,1,2.33691.48828A3.79021,3.79021,0,0,1,74.201,75.8857a3.25861,3.25861,0,0,1,.55274,1.82568A2.82182,2.82182,0,0,1,74.43832,79.07125ZM64.54055,68.54457c.00006-1.16113-.00488-2.32226.00116-3.48333a5.99854,5.99854,0,0,1,11.9054-1.12647,15.19244,15.19244,0,0,1,.095,2.06885c.0141,1.147.00384,2.29443.00384,3.46539H64.54055Z"/></svg>