<svg xmlns="http://www.w3.org/2000/svg" viewBox="0 0 150 150"><defs><style>.a{fill:#fff;}</style></defs><ellipse class="a" cx="74.45743" cy="48.99579" rx="21.24106" ry="21.52295"/><path class="a" d="M110.05737,78.41321c-2.67566-6.31171-7.27478-11.13477-15.00177-11.437a27.00252,27.00252,0,0,1-41.19622.00018C38.32812,67.589,35.453,86.60773,35.453,99.0907c0,9.0697,5.92115,14.52093,14.80286,14.52093H93.28357a23.68755,23.68755,0,0,1,16.7738-35.19842Z"/><path class="a" d="M113.83838,81.10815a20.70948,20.70948,0,1,0,20.71,20.70948A20.73268,20.73268,0,0,0,113.83838,81.10815Zm0,38.419a17.70948,17.70948,0,1,1,17.71-17.70947A17.7294,17.7294,0,0,1,113.83838,119.5271Z"/><path class="a" d="M118.77344,93.33844l-10.41333,10.41333,3.36212,3.4469L122.17792,96.743a2.40735,2.40735,0,0,0-3.40448-3.40454Z"/><polygon class="a" points="107.283 104.829 106.007 109.51 110.646 108.244 107.299 104.813 107.283 104.829"/></svg>