<svg xmlns="http://www.w3.org/2000/svg" viewBox="0 0 150 150"><defs><style>.a{fill:#fff;}</style></defs><path class="a" d="M106.05993,72.2207a7.699,7.699,0,0,0-7.56213-7.55536c-.887-.02154-1.775-.00317-2.77783-.00317V63.7641c0-3.07477.00506-6.1496-.001-9.22443A20.71289,20.71289,0,0,0,54.6112,50.67755a28.79542,28.79542,0,0,0-.32306,4.10352c-.04577,3.25818-.01477,6.51745-.01477,9.8764-.77258,0-1.49127-.00116-2.2099.00024a7.78282,7.78282,0,0,0-8.15014,8.12818q-.007,17.6802-.00123,35.36041c.00037,4.32922,2.23822,7.16766,6.44245,8.18421a.71761.71761,0,0,1,.19513.12628h48.894c.5061-.15985,1.01874-.3017,1.51721-.48255a7.63983,7.63983,0,0,0,5.10346-7.09869Q106.10763,90.54816,106.05993,72.2207ZM61.1947,62.4881c.00012-2.66974-.01117-5.3396.00274-8.00934a13.79241,13.79241,0,0,1,27.374-2.59,34.92784,34.92784,0,0,1,.21838,4.7569c.03241,2.63745.00885,5.27557.00885,7.968H61.19464C61.19464,63.8772,61.19464,63.18262,61.1947,62.4881ZM89.0299,96.379a5.01282,5.01282,0,0,1-4.596,3.53222q-.24581.01887-.48352.0188a5.13152,5.13152,0,0,1-4.41455-2.44623,7.34163,7.34163,0,0,1-4.50683,1.53058,7.43818,7.43818,0,1,1,3.81964-13.80108,1.88164,1.88164,0,0,1,1.69659-1.08039,1.93153,1.93153,0,0,1,.19495.00989,1.89483,1.89483,0,0,1,1.69263,1.8927q.00659,1.55649.00286,3.113l-.00054,1.37073L82.434,91.71716c-.00152.97748-.00311,1.955.006,2.93225a1.54172,1.54172,0,0,0,1.04083,1.4231,1.65547,1.65547,0,0,0,.55231.09619,1.48352,1.48352,0,0,0,1.165-.55237,1.61248,1.61248,0,0,0,.28229-.51324,10.77611,10.77611,0,0,0-1.92853-10.52271,10.56209,10.56209,0,0,0-8.5794-4.0675q-.2547,0-.51294.00958a11.06428,11.06428,0,0,0-1.42053,21.93848,11.52219,11.52219,0,0,0,2.0227.18329,11.01727,11.01727,0,0,0,5.54559-1.531,2.226,2.226,0,0,1,1.10254-.30957,1.82124,1.82124,0,0,1,1.60828.95862,1.87,1.87,0,0,1-.731,2.56653,14.25534,14.25534,0,0,1-4.31341,1.72613,15.31886,15.31886,0,0,1-3.24622.351,14.84268,14.84268,0,0,1-14.54346-11.74,14.86459,14.86459,0,0,1,11.29029-17.6759,14.82672,14.82672,0,0,1,17.80218,11.777A14.3255,14.3255,0,0,1,89.0299,96.379Z"/><path class="a" d="M75.01953,87.91077a3.66376,3.66376,0,1,0-.02228,7.32745l.00488.24957.00488-.00049v-.24908a3.67349,3.67349,0,0,0,3.65223-3.64917A3.66583,3.66583,0,0,0,75.01953,87.91077Z"/></svg>