<svg xmlns="http://www.w3.org/2000/svg" viewBox="0 0 150 150"><defs><style>.a{fill:#fff;}</style></defs><path class="a" d="M107.8627,60.8025c2.39465,1.66443,4.566,3.65283,6.81909,5.51752a4.19331,4.19331,0,0,0,4.64508.76117,4.15021,4.15021,0,0,0,2.53729-3.81006,4.61315,4.61315,0,0,0-1.57544-3.38495,66.31365,66.31365,0,0,0-76.5769-10.06366A65.35307,65.35307,0,0,0,29.59475,60.01167a4.26071,4.26071,0,0,0,2.49707,7.43194,4.94944,4.94944,0,0,0,3.87964-1.70617,56.29048,56.29048,0,0,1,35.327-15.10327A56.20813,56.20813,0,0,1,107.8627,60.8025Z"/><path class="a" d="M75.01248,97.35591a5.33269,5.33269,0,1,0,5.31915,5.36834A5.37491,5.37491,0,0,0,75.01248,97.35591Z"/><path class="a" d="M138.68966,98.02589h-3.545A20.71209,20.71209,0,0,0,115.6318,77.625a1.50248,1.50248,0,0,0-.27142-.03955c-.03272-.00141-.06531-.002-.09772-.002-.102,0-.20288.00543-.30493.00543l-.05463-.00061c-.15271-.00336-.30133-.02289-.45483-.02289-.2132,0-.423.02325-.63538.02972-.31653.00946-.63183.02039-.94488.04413-.35633.027-.709.06964-1.06183.11475-.30982.03973-.61957.07721-.92523.13061-.36884.06415-.73194.14752-1.09565.23133-.27362.06341-.54876.12066-.8183.19488-.41485.11359-.82128.25061-1.22753.38965-.2052.07068-.41388.13232-.61622.20917-.49188.18591-.97241.39862-1.44885.62182-.10754.05054-.21893.09326-.3255.14563a20.69819,20.69819,0,0,0-4.98559,3.41516c-.02576.02387-.03528.05677-.059.082a20.63711,20.63711,0,0,0-6.54651,14.18854c-.01013.23035.00586.45728.00323.68671a1.49067,1.49067,0,0,0-.02276.2254c0,.17474.02191.344.02624.5177.0094.39624.02826.79.05988,1.18256.02325.28424.05255.566.08722.84692q.07653.6276.19067,1.24573c.04535.24377.094.48559.14789.72632q.14685.66128.33728,1.30877c.05993.20386.12158.40638.18756.60761q.22166.6785.49091,1.33862c.071.17462.143.348.21862.52027q.29234.66676.63282,1.31164c.08606.16358.17334.32569.26361.48663q.34982.62347.744,1.22345.16454.25095.3357.49634.39395.56415.82666,1.10468c.13672.17065.27624.33777.41815.504.15875.18592.30145.382.46735.56318a1.50445,1.50445,0,0,0,.22656.20013,20.66185,20.66185,0,0,0,29.69238.45953,1.49984,1.49984,0,1,0-2.12109-2.12109,17.6817,17.6817,0,0,1-25.98694-1.0484q-.18018-.21112-.35376-.42633-.37042-.46234-.71021-.94916-.14511-.208-.28369-.41943-.33672-.51353-.63891-1.05048c-.07672-.13678-.15088-.2746-.22376-.41315q-.28995-.55105-.54211-1.12377c-.06439-.14686-.126-.29474-.18634-.44324q-.22925-.56341-.42005-1.14551-.08459-.2591-.16076-.52087-.1616-.54987-.28723-1.11438-.06967-.31339-.12812-.62952c-.06457-.34766-.11731-.69922-.16125-1.05359-.03009-.24585-.05628-.49231-.07611-.74023-.02661-.32672-.04157-.65656-.05005-.988-.01-.41132-.02393-.8222-.00556-1.23718A17.7352,17.7352,0,0,1,108.2413,81.69551c.08239-.03083.16705-.05524.24994-.08484.43457-.15613.87536-.29865,1.32434-.4209.16534-.04474.33355-.07923.5003-.11914.37268-.08991.74774-.1731,1.12866-.23889.21924-.03754.44086-.06415.662-.09345.3385-.04529.67841-.08551,1.02222-.11127.24719-.01831.496-.02673.74475-.03479q.31182-.01015.62573-.01068.17175,0,.34424.00367a17.71394,17.71394,0,0,1,17.30115,17.44067h-3.51953c-1.1,0-1.36359.63641-.58576,1.41418l4.20386,4.20386a2.00587,2.00587,0,0,0,2.82843,0l4.20386-4.20386C140.05325,98.6623,139.7897,98.02589,138.68966,98.02589Z"/><path class="a" d="M118.99221,93.35353a4.47256,4.47256,0,0,0-8.87646-.834,6.21668,6.21668,0,0,0-.06977.88611c-.00988.70355-.00317,1.40729-.00317,2.13263-.16681,0-.322-.00025-.47717.00006a1.68056,1.68056,0,0,0-1.75989,1.75513q-.00156,3.81765-.00024,7.63537a1.67555,1.67555,0,0,0,1.39111,1.76721.15513.15513,0,0,1,.04211.02729h10.55774c.10932-.03449.22-.06513.32764-.10419a1.6497,1.6497,0,0,0,1.102-1.53284q.00933-3.95745-.001-7.91491A1.66235,1.66235,0,0,0,119.59225,95.54c-.19153-.0047-.3833-.00073-.59985-.00073v-.19391C118.9924,94.68141,118.99349,94.01747,118.99221,93.35353Zm-3.57574,7.83252a.35322.35322,0,0,0-.15869.33148c.00579.5122.01031,1.02484-.004,1.53674a.72883.72883,0,0,1-.7428.68768.73834.73834,0,0,1-.73108-.68353c-.01056-.17987-.00415-.36078-.00506-.54126-.00049-.09894-.00007-.19794-.00007-.29687,0-.24451-.00653-.48926.00263-.73346a.29862.29862,0,0,0-.142-.287,1.45123,1.45123,0,0,1-.5553-1.57587,1.49088,1.49088,0,0,1,2.81977-.16974A1.45593,1.45593,0,0,1,115.41647,101.18605Zm-3.87915-5.65723v-.459c.00006-.57647-.00238-1.153.00061-1.72949a2.9782,2.9782,0,0,1,5.91089-.55926,7.54309,7.54309,0,0,1,.04718,1.02716c.007.56952.00189,1.13916.00189,1.72058Z"/><path class="a" d="M90.16867,72.83125A38.404,38.404,0,0,1,100.23995,79.315a23.84756,23.84756,0,0,1,3.78577-2.33038c.10394-.051.2099-.09808.31647-.14392l.05951-.02594c.63049-.29535,1.1582-.52136,1.65643-.70972.17188-.06525.3468-.12347.52216-.18066l.18774-.06226c.459-.1571.912-.30932,1.40259-.44366.05456-.015.11053-.02619.1654-.04029a4.58566,4.58566,0,0,0-.57434-.68353,46.39667,46.39667,0,0,0-65.52844.0072,4.19216,4.19216,0,0,0-.80572,5.04456,3.9898,3.9898,0,0,0,4.60974,2.1228,7.42609,7.42609,0,0,0,2.81256-1.74939,37.97382,37.97382,0,0,1,41.31885-7.28857Z"/><path class="a" d="M55.25192,88.35188a4.26471,4.26471,0,1,0,5.86255,6.16778c8.09332-7.60888,19.66339-7.597,27.80609.02838a4.9765,4.9765,0,0,0,1.98163,1.14527,23.468,23.468,0,0,1,2.60174-8.47461,28.224,28.224,0,0,0-38.252,1.13318Z"/></svg>