<svg xmlns="http://www.w3.org/2000/svg" viewBox="0 0 150 150"><defs><style>.a{fill:#fff;}</style></defs><ellipse class="a" cx="74.45738" cy="48.99579" rx="21.24106" ry="21.52295"/><path class="a" d="M110.05733,78.41321c-2.67566-6.31171-7.27478-11.13477-15.00177-11.437a27.00254,27.00254,0,0,1-41.19623.00018C38.32808,67.589,35.453,86.60773,35.453,99.0907c0,9.0697,5.92114,14.52093,14.80285,14.52093H93.28352a23.68755,23.68755,0,0,1,16.77381-35.19842Z"/><path class="a" d="M113.83833,81.10815a20.70948,20.70948,0,1,0,20.71,20.70948A20.73268,20.73268,0,0,0,113.83833,81.10815Zm0,38.419a17.70948,17.70948,0,1,1,17.71-17.70947A17.7294,17.7294,0,0,1,113.83833,119.5271Z"/><path class="a" d="M120.22676,96.75488l-8.61053,8.611-3.69611-3.34882a1.49995,1.49995,0,0,0-2.01367,2.22363l4.75488,4.30811a1.4998,1.4998,0,0,0,2.11817-.10449l.00244-.00409.00634-.00421,9.55957-9.56006a1.49984,1.49984,0,1,0-2.12109-2.1211Z"/></svg>