<svg xmlns="http://www.w3.org/2000/svg" viewBox="0 0 150 150"><defs><style>.a{fill:#fff;}</style></defs><path class="a" d="M124.06827,90.00454H101.18011a7.71593,7.71593,0,0,0-7.6935,7.6935h6.86v22.247c.12822,1.66693,2.62861,3.52619,7.6935,3.91087,4.16731.25645,8.07817-1.28225,9.104-3.65442V97.63392c.89757.12823,5.706,1.28225,6.60358,6.09069,0,.25644.12823.51289.12823.76935v23.52929H117.08V124.6253a9.048,9.048,0,0,1-4.80843,3.39795H100.92366c-4.68021-.25645-7.56527-3.39795-7.6935-7.6935V97.63392a7.51947,7.51947,0,0,0-7.24471,7.56526v22.88817a7.71593,7.71593,0,0,0,7.6935,7.69349H116.5671a7.71592,7.71592,0,0,0,7.6935-7.69349,7.71594,7.71594,0,0,0,7.6935-7.6935V97.63392A7.9138,7.9138,0,0,0,124.06827,90.00454Z"/><path class="a" d="M69.17576,56.74748V67.49263c0,1.25844-.38721,1.51658-1.58111,1.323-8.0024-1.1939-16.10159-2.291-24.16852-3.42038-1.452-.19361-1.96833-.70989-1.96833-2.291.12907-5.71138.06453-11.455,0-17.231,0-1.25844.38721-1.64565,1.64565-1.64565,8.26054.06453,16.392.06453,24.4912.06453,1.323,0,1.64565.51629,1.64565,1.71019-.12907,3.614-.06453,7.16344-.06453,10.74515Z"/><path class="a" d="M55.462,42.227c-4.06573,0-8.13146-.06453-12.19719,0-1.25844,0-1.77473-.25814-1.77473-1.71019.06454-5.84045.06454-11.58411,0-17.36,0-1.12937.38721-1.51658,1.452-1.71018,8.32507-1.19391,16.65014-2.35555,24.97521-3.614,1.452-.1936,1.19391.77443,1.19391,1.58112,0,5.16283.06453,10.42247,0,15.5853,0,1.9038-.06454,3.8076,0,5.71139.06453,1.19391-.38721,1.51658-1.51658,1.51658-4.0012-.06453-8.06693,0-12.13266,0Z"/><path class="a" d="M28.55071,44.389h9.0995c.968,0,1.38751.32268,1.38751,1.323V63.65278c0,1.03256-.45175,1.12937-1.38751,1.03256q-9.0511-1.35523-18.06992-2.61368c-1.19391-.19361-1.58112-.58082-1.58112-1.83926.06454-4.77563.06454-9.55125,0-14.42367,0-1.1939.32268-1.51658,1.51658-1.51658,3.06543.0968,6.0018.0968,9.035.0968Z"/><path class="a" d="M28.55071,42.227H19.58029c-1.12937,0-1.51659-.38721-1.51659-1.58112.06454-4.71108.06454-9.42217,0-14.16552,0-1.12937.32268-1.51658,1.51659-1.71019q9.05109-1.16164,18.06992-2.61369c1.38751-.1936,1.51658.25815,1.51658,1.38752V40.71043c0,1.25844-.51629,1.452-1.64566,1.452-3.00089,0-6.03406.06453-8.97042.06453Z"/><path class="a" d="M87.76642,79.3114l-.6275.62756L83.5755,83.50238l-9.993-9.99261a1.49984,1.49984,0,1,0-2.12109,2.12109l9.993,9.99261-4.191,4.191c-1.55567,1.55561-1.02844,2.82843,1.17157,2.82843h8.15985a4.01174,4.01174,0,0,0,4-4V80.483C90.59485,78.283,89.32208,77.7558,87.76642,79.3114Z"/></svg>