<?xml version="1.0" encoding="utf-8"?>
<!-- Generator: Adobe Illustrator 21.0.1, SVG Export Plug-In . SVG Version: 6.00 Build 0)  -->
<svg version="1.1" id="Ebene_1" xmlns="http://www.w3.org/2000/svg" xmlns:xlink="http://www.w3.org/1999/xlink" x="0px" y="0px"
	 viewBox="0 0 500 500" style="enable-background:new 0 0 500 500;" xml:space="preserve">
<style type="text/css">
	.st0{fill:#DD042D;}
</style>
<path class="st0" d="M416.1,0.2H166.5c-46,0-83.2,37.3-83.2,83.2h74.9v241.8c1.6,18.5,28.4,38.7,84.1,42.2
	c45.6,2.9,88.4-14.2,99.2-39.7v-244c9.5,0.9,62.9,14.7,73,66.5c0.7,2.8,1.2,5.8,1.5,9.1l0,0v0.2c0.2,2.3,0.3,4.7,0.3,7.3v249.7H416
	h-63.7h-10.8v-36.3c-12,16.8-33.5,32.7-52,36.3H166.4c-50.4-2.6-82-36.3-83.2-83.3V83.5c-46,0-83.2,37.3-83.2,83.2v249.7
	c0,46,37.3,83.2,83.2,83.2h249.7c46,0,83.2-37.3,83.2-83.2c46,0,83.2-37.3,83.2-83.2V83.5C499.4,37.5,462.1,0.2,416.1,0.2z"/>
</svg>
