<svg xmlns="http://www.w3.org/2000/svg" viewBox="0 0 150 150"><defs><style>.a{fill:#fff;}</style></defs><path class="a" d="M124.18079,49.801H121.954V27.84973a3.00879,3.00879,0,0,0-3-3H91.68555a3.00886,3.00886,0,0,0-3,3V49.801H85.823a3.00878,3.00878,0,0,0-3,3v2.34039a3.00879,3.00879,0,0,0,3,3h38.35779a3.00879,3.00879,0,0,0,3-3V52.801A3.00879,3.00879,0,0,0,124.18079,49.801ZM110.002,55.45947h-10a1.5,1.5,0,0,1,0-3h10a1.5,1.5,0,0,1,0,3Zm8.952-5.40509H91.68555V27.84973H118.954Z"/><path class="a" d="M89.90448,100.75671H60.17865a2.00591,2.00591,0,0,0-2,2v2.32361a2.00587,2.00587,0,0,0,2,2H89.90448a2.00583,2.00583,0,0,0,2-2v-2.32361A2.00587,2.00587,0,0,0,89.90448,100.75671Zm-1.22607,4.86152a1.69968,1.69968,0,1,1,1.6997-1.69971A1.6997,1.6997,0,0,1,88.67841,105.61823Z"/><path class="a" d="M89.90448,109.1778H60.17865a2.00591,2.00591,0,0,0-2,2v2.3236a2.00591,2.00591,0,0,0,2,2H89.90448a2.00587,2.00587,0,0,0,2-2v-2.3236A2.00587,2.00587,0,0,0,89.90448,109.1778Zm-1.22607,4.87188a1.69968,1.69968,0,1,1,1.6997-1.6997A1.69969,1.69969,0,0,1,88.67841,114.04968Z"/><path class="a" d="M89.90448,117.43262H60.17865a2.00587,2.00587,0,0,0-2,2v2.32354a2.00587,2.00587,0,0,0,2,2H89.90448a2.00583,2.00583,0,0,0,2-2v-2.32354A2.00583,2.00583,0,0,0,89.90448,117.43262Zm-1.22607,5.04852a1.69968,1.69968,0,1,1,1.6997-1.69971A1.6997,1.6997,0,0,1,88.67841,122.48114Z"/><path class="a" d="M128,77.80029H110.86365a6.0128,6.0128,0,0,0-4.3617-4.532V61.37354h-3V73.26825a6.01278,6.01278,0,0,0-4.36169,4.532H80.86169a5.99721,5.99721,0,0,0-11.72338,0H50.85974a6.01278,6.01278,0,0,0-4.36169-4.532V61.37354h-3V73.26825a6.0128,6.0128,0,0,0-4.3617,4.532H22a1.5,1.5,0,0,0,0,3H39.25464a5.99741,5.99741,0,0,0,11.48682,0H69.25659A6.01655,6.01655,0,0,0,73.5,84.87335v12.3537h3V84.87335a6.01655,6.01655,0,0,0,4.24341-4.07306H99.25854a5.99741,5.99741,0,0,0,11.48682,0H128a1.5,1.5,0,0,0,0-3ZM44.99805,82.0708a3,3,0,1,1,3-3A3.00328,3.00328,0,0,1,44.99805,82.0708Zm30.002,0a3,3,0,1,1,3-3A3.00328,3.00328,0,0,1,75,82.0708Zm30.00195,0a3,3,0,1,1,3-3A3.00328,3.00328,0,0,1,105.002,82.0708Z"/><path class="a" d="M62.19092,24.84973H27.8053a3.00879,3.00879,0,0,0-3,3v19.241a3.00883,3.00883,0,0,0,3,3H38.625l-1.19916,5.52661-2.52411,2.524H55.09454l-2.52411-2.524-1.19915-5.52661H62.19092a3.00883,3.00883,0,0,0,3-3v-19.241A3.00879,3.00879,0,0,0,62.19092,24.84973Zm0,22.241H27.8053v-19.241H62.19092Z"/></svg>