<?xml version="1.0" encoding="utf-8"?>
<!-- Generator: Adobe Illustrator 24.0.2, SVG Export Plug-In . SVG Version: 6.00 Build 0)  -->
<svg version="1.1" id="Ebene_3" xmlns="http://www.w3.org/2000/svg" xmlns:xlink="http://www.w3.org/1999/xlink" x="0px" y="0px"
	 viewBox="0 0 105.5 105.5" style="enable-background:new 0 0 105.5 105.5;" xml:space="preserve">
<style type="text/css">
	.st0{fill:#868681;}
</style>
<g>
	<path class="st0" d="M95.6,52.8h3.3c3.6,0,6.6-3,6.6-6.6V33h-9.9V52.8z"/>
	<path class="st0" d="M95.6,6.6v19.8h3.3c3.6,0,6.6-2.9,6.6-6.6V6.6H95.6z"/>
	<path class="st0" d="M95.6,79.1h3.3c3.6,0,6.6-2.9,6.6-6.6l0,0V59.4h-9.9V79.1z"/>
</g>
<path class="st0" d="M6.6,0C3,0,0,3,0,6.6v92.3c0,3.6,3,6.6,6.6,6.6h85.7V59.4V0H6.6z M54.6,30c6.2,0,11.2,5,11.2,11.2
	s-5,11.2-11.2,11.2c-6.2,0-11.2-5.1-11.2-11.2C43.4,35,48.4,30,54.6,30z M19.8,98.9h-6.6V6.6h6.6V98.9z M67.4,74.9H41.8
	c-4.7,0-7.8-2.9-7.8-7.6c0-6.6,1.6-16.8,10-16.8c1,0,4.6,4.1,10.5,4.1S64,50.5,65,50.5c8.6,0,10.2,10.2,10.2,16.8
	C75.2,72.1,72.1,74.9,67.4,74.9z"/>
</svg>
