<svg xmlns="http://www.w3.org/2000/svg" viewBox="0 0 150 150"><defs><style>.a{fill:#fff;}</style></defs><path class="a" d="M110.97656,75h2.67418a5.34837,5.34837,0,0,0,5.34837-5.34837V58.9549h-8.02255Z"/><path class="a" d="M110.97656,37.56142V53.60653h2.67418a5.34837,5.34837,0,0,0,5.34837-5.34837V37.56142Z"/><path class="a" d="M110.97656,96.39347h2.67418a5.34837,5.34837,0,0,0,5.34837-5.34837V80.34837h-8.02255Z"/><path class="a" d="M38.77356,32.21307a5.34833,5.34833,0,0,0-5.34833,5.34833v74.8772a5.34833,5.34833,0,0,0,5.34833,5.34833h69.52881V32.21307Zm32.079,22.15851A10.30949,10.30949,0,1,1,60.679,64.68018,10.23567,10.23567,0,0,1,70.85254,54.37158Zm11.614,41.25678H59.26105c-4.254,0-7.09-2.6109-7.09-6.9549,0-5.93841,1.371-14.94739,8.67835-15.35657a13.045,13.045,0,0,0,20.0064-.00018c7.32959.40717,8.70069,9.39594,8.70069,15.35675C89.55652,93.01746,86.72052,95.62836,82.46655,95.62836Z"/></svg>