<svg xmlns="http://www.w3.org/2000/svg" viewBox="0 0 150 150"><defs><style>.a{fill:#fff;}</style></defs><path class="a" d="M38.564,39.93176H35.71472a9.2242,9.2242,0,0,0,.68775,2.86261h2.5144A17.12179,17.12179,0,0,1,38.564,39.93176Z"/><path class="a" d="M37.14966,44.23077a9.24158,9.24158,0,0,0,1.26343,1.572l.00055.00019.00244-.00409a9.27643,9.27643,0,0,0,2.564,1.81958,11.38046,11.38046,0,0,1-1.68322-3.38764Z"/><path class="a" d="M48.33618,32.34875a6.14,6.14,0,0,0-1.64636-1.87084,3.24552,3.24552,0,0,0-.96765-.47736v4.1958h3.47412A10.33287,10.33287,0,0,0,48.33618,32.34875Z"/><path class="a" d="M40.38928,42.79694h3.893l.00256-2.86518H40.00226A15.4324,15.4324,0,0,0,40.38928,42.79694Z"/><path class="a" d="M41.67,46.08014a7.18973,7.18973,0,0,0,.953,1.26727,4.92137,4.92137,0,0,0,.61865.54926c.02484.01831.04968.0368.07465.05426l.00256-.00171a3.26806,3.26806,0,0,0,.96338.476l.00256-4.19354h-3.475A10.31193,10.31193,0,0,0,41.67,46.08014Z"/><path class="a" d="M44.28229,34.19635v-4.1958a3.2454,3.2454,0,0,0-.96765.47736,6.14,6.14,0,0,0-1.64637,1.87084,10.33213,10.33213,0,0,0-.8601,1.8476Z"/><path class="a" d="M39.99878,38.49707h4.28351V35.631H40.385A15.4459,15.4459,0,0,0,39.99878,38.49707Z"/><path class="a" d="M40.98279,30.80652a9.4267,9.4267,0,0,0-3.83716,3.39154H39.296A11.37078,11.37078,0,0,1,40.98279,30.80652Z"/><path class="a" d="M38.9201,35.631H36.39819a9.181,9.181,0,0,0-.68554,2.866h2.85394A17.15255,17.15255,0,0,1,38.9201,35.631Z"/><path class="a" d="M49.02435,47.61841a9.27648,9.27648,0,0,0,2.564-1.81958l.00244.00409.00055-.00019a9.24207,9.24207,0,0,0,1.26343-1.572H50.70758A11.38213,11.38213,0,0,1,49.02435,47.61841Z"/><path class="a" d="M51.43787,38.49707h2.85394a9.18076,9.18076,0,0,0-.68555-2.866h-2.522A17.14638,17.14638,0,0,1,51.43787,38.49707Z"/><path class="a" d="M49.02167,30.80652a11.37078,11.37078,0,0,1,1.68677,3.39154h2.15039a9.4267,9.4267,0,0,0-3.83716-3.39154Z"/><path class="a" d="M57.53021,17.71362H32.8703a8.02349,8.02349,0,0,0-8,8V50.37354a8.02349,8.02349,0,0,0,8,8H57.53021a8.02353,8.02353,0,0,0,8-8V25.71362A8.02353,8.02353,0,0,0,57.53021,17.71362ZM51.01367,48.13086q-.10721.07251-.21631.14239a10.69333,10.69333,0,0,1-4.96789,1.66248q-.40951.03121-.82721.03137a10.81506,10.81506,0,0,1-1.90326-.16791q-.39715-.071-.78381-.17059-.12882-.03313-.25641-.06933-.38269-.10877-.75336-.24457-.49411-.18091-.96454-.40784a10.74432,10.74432,0,0,1-1.56274-.9234q-.21077-.14988-.41394-.30957-.20316-.15958-.39826-.32861a10.82844,10.82844,0,0,1-1.09369-1.09369q-.169-.19511-.32861-.39826a10.76575,10.76575,0,0,1-.73663-1.06286q-.20206-.33243-.38037-.68042A10.75591,10.75591,0,0,1,45.0022,28.46344h.00006a10.7527,10.7527,0,0,1,6.01141,19.66742Z"/><path class="a" d="M51.08759,42.79437H53.602a9.22419,9.22419,0,0,0,.68774-2.86261h-2.8493A17.12388,17.12388,0,0,1,51.08759,42.79437Z"/><path class="a" d="M49.61951,35.631H45.72217v2.866h4.28351A15.4459,15.4459,0,0,0,49.61951,35.631Z"/><path class="a" d="M49.61517,42.79694a15.43241,15.43241,0,0,0,.387-2.86518H45.7196l.00257,2.86518Z"/><path class="a" d="M45.7196,44.23163l.00257,4.19354a3.2683,3.2683,0,0,0,.96338-.476l.00256.00171c.02551-.01789.051-.03681.07636-.05554a4.92841,4.92841,0,0,0,.616-.547,7.18911,7.18911,0,0,0,.95392-1.26825,10.312,10.312,0,0,0,.86017-1.84851Z"/><path class="a" d="M97.42944,44.23077a9.24207,9.24207,0,0,0,1.26343,1.572l.00055.00019.00244-.00409a9.27648,9.27648,0,0,0,2.564,1.81958,11.38356,11.38356,0,0,1-1.68323-3.38764Z"/><path class="a" d="M98.84381,39.93176h-2.8493a9.22259,9.22259,0,0,0,.6878,2.86261h2.51435A17.12285,17.12285,0,0,1,98.84381,39.93176Z"/><path class="a" d="M101.94983,46.08014a7.1897,7.1897,0,0,0,.953,1.26727,4.92207,4.92207,0,0,0,.61865.54926c.02485.01831.04969.0368.07465.05426l.00256-.00171a3.2683,3.2683,0,0,0,.96338.476l.00257-4.19354h-3.475A10.312,10.312,0,0,0,101.94983,46.08014Z"/><path class="a" d="M108.616,32.34875a6.1392,6.1392,0,0,0-1.64637-1.87084,3.2454,3.2454,0,0,0-.96765-.47736v4.1958h3.47412A10.33213,10.33213,0,0,0,108.616,32.34875Z"/><path class="a" d="M100.66907,42.79694h3.893l.00257-2.86518H100.282A15.43241,15.43241,0,0,0,100.66907,42.79694Z"/><path class="a" d="M104.56207,34.19635v-4.1958a3.24552,3.24552,0,0,0-.96765.47736,6.13905,6.13905,0,0,0-1.6463,1.87084,10.329,10.329,0,0,0-.86017,1.8476Z"/><path class="a" d="M99.2,35.631H96.678a9.18076,9.18076,0,0,0-.68555,2.866h2.854A17.139,17.139,0,0,1,99.2,35.631Z"/><path class="a" d="M100.27856,38.49707h4.28351V35.631h-3.89734A15.44674,15.44674,0,0,0,100.27856,38.49707Z"/><path class="a" d="M101.26257,30.80652a9.4257,9.4257,0,0,0-3.83709,3.39154h2.15033A11.37077,11.37077,0,0,1,101.26257,30.80652Z"/><path class="a" d="M109.89929,35.631H106.002v2.866h4.28357A15.446,15.446,0,0,0,109.89929,35.631Z"/><path class="a" d="M111.71765,38.49707h2.85394a9.18075,9.18075,0,0,0-.68554-2.866h-2.52191A17.14628,17.14628,0,0,1,111.71765,38.49707Z"/><path class="a" d="M109.895,42.79694a15.43736,15.43736,0,0,0,.387-2.86518h-4.28259l.00256,2.86518Z"/><path class="a" d="M117.33185,17.71362H92.67194a8.02353,8.02353,0,0,0-8,8V50.37354a8.02353,8.02353,0,0,0,8,8h24.65991a8.02349,8.02349,0,0,0,8-8V25.71362A8.02349,8.02349,0,0,0,117.33185,17.71362Zm-6.03839,30.41724q-.10722.07251-.21631.14239a10.69289,10.69289,0,0,1-4.9679,1.66248q-.40951.03121-.82721.03137a10.81566,10.81566,0,0,1-1.90326-.16791q-.39716-.071-.78381-.17059-.12882-.03313-.25641-.06933-.38268-.10877-.75335-.24457-.494-.18091-.96454-.40784a10.74442,10.74442,0,0,1-1.56275-.9234q-.21075-.14988-.41394-.30957-.20305-.15958-.39825-.32861A10.83259,10.83259,0,0,1,97.152,46.25159q-.16891-.19511-.32861-.39826a10.76584,10.76584,0,0,1-.73664-1.06286q-.202-.33243-.38037-.68042A10.75591,10.75591,0,0,1,105.282,28.46344h.00006a10.75267,10.75267,0,0,1,6.01142,19.66742Z"/><path class="a" d="M109.30151,30.80652a11.37213,11.37213,0,0,1,1.68671,3.39154h2.15039a9.427,9.427,0,0,0-3.8371-3.39154Z"/><path class="a" d="M111.36737,42.79437h2.5144a9.2257,9.2257,0,0,0,.68781-2.86261h-2.84937A17.11553,17.11553,0,0,1,111.36737,42.79437Z"/><path class="a" d="M105.99939,44.23163l.00256,4.19354a3.26806,3.26806,0,0,0,.96338-.476l.00257.00171c.02557-.01789.051-.03681.07641-.05554a4.93162,4.93162,0,0,0,.616-.547,7.19027,7.19027,0,0,0,.954-1.26825,10.31241,10.31241,0,0,0,.86011-1.84851Z"/><path class="a" d="M109.30414,47.61841a9.27555,9.27555,0,0,0,2.564-1.81958l.00245.00409.00054-.00019a9.24485,9.24485,0,0,0,1.26349-1.572h-2.14727A11.38071,11.38071,0,0,1,109.30414,47.61841Z"/><path class="a" d="M67.15155,124.79712A9.24194,9.24194,0,0,0,68.415,126.369l.00055.00018.00244-.004a9.27748,9.27748,0,0,0,2.564,1.81958,11.38112,11.38112,0,0,1-1.68322-3.38763Z"/><path class="a" d="M71.67194,126.64642a7.18691,7.18691,0,0,0,.953,1.26734,4.9292,4.9292,0,0,0,.61859.54919c.0249.01831.04974.03681.07471.05426l.00256-.00171a3.26837,3.26837,0,0,0,.96338.476l.00256-4.19355h-3.475A10.31042,10.31042,0,0,0,71.67194,126.64642Z"/><path class="a" d="M68.56592,120.49811H65.71661a9.22385,9.22385,0,0,0,.68775,2.86255h2.5144A17.12316,17.12316,0,0,1,68.56592,120.49811Z"/><path class="a" d="M70.39117,123.36322h3.893l.00256-2.86511H70.00415A15.43177,15.43177,0,0,0,70.39117,123.36322Z"/><path class="a" d="M78.338,112.915a6.1394,6.1394,0,0,0-1.6463-1.87079,3.24592,3.24592,0,0,0-.96765-.47742v4.1958h3.47412A10.32818,10.32818,0,0,0,78.338,112.915Z"/><path class="a" d="M70.00067,119.06335h4.28351v-2.866H70.38684A15.44079,15.44079,0,0,0,70.00067,119.06335Z"/><path class="a" d="M74.28418,114.76263v-4.1958a3.24592,3.24592,0,0,0-.96765.47742,6.14032,6.14032,0,0,0-1.64636,1.87079,10.33208,10.33208,0,0,0-.86011,1.84759Z"/><path class="a" d="M70.98468,111.3728a9.4267,9.4267,0,0,0-3.83716,3.39154h2.15039A11.3715,11.3715,0,0,1,70.98468,111.3728Z"/><path class="a" d="M68.922,116.19739H66.40009a9.17994,9.17994,0,0,0-.68555,2.866h2.85394A17.15083,17.15083,0,0,1,68.922,116.19739Z"/><path class="a" d="M79.02356,111.3728a11.3715,11.3715,0,0,1,1.68677,3.39154h2.15039a9.4267,9.4267,0,0,0-3.83716-3.39154Z"/><path class="a" d="M79.6214,116.19739H75.72406v2.866h4.28351A15.44584,15.44584,0,0,0,79.6214,116.19739Z"/><path class="a" d="M81.08948,123.36066h2.5144a9.22385,9.22385,0,0,0,.68775-2.86255H81.44232A17.12316,17.12316,0,0,1,81.08948,123.36066Z"/><path class="a" d="M87.33,100.30042H62.67a8.02356,8.02356,0,0,0-8,8v24.65991a8.02353,8.02353,0,0,0,8,8H87.33a8.02349,8.02349,0,0,0,8-8V108.30042A8.02353,8.02353,0,0,0,87.33,100.30042Zm-6.3144,28.39678q-.1072.07242-.2163.1424a10.6938,10.6938,0,0,1-4.9679,1.66248q-.40951.03113-.82727.03137a10.81584,10.81584,0,0,1-1.9032-.168q-.39716-.07095-.78381-.17053-.12882-.03315-.25641-.0694-.3827-.10868-.75342-.24457-.494-.18081-.96448-.40777a10.74472,10.74472,0,0,1-1.56274-.92347q-.21084-.14987-.41394-.30951-.20316-.15966-.39826-.32867a10.819,10.819,0,0,1-1.09368-1.09369q-.169-.19509-.32862-.39825a10.77268,10.77268,0,0,1-.73663-1.06281q-.20207-.33252-.38037-.68042a10.7559,10.7559,0,0,1,9.57556-15.6466h.00006a10.75269,10.75269,0,0,1,6.01141,19.66741Z"/><path class="a" d="M81.43976,119.06335H84.2937a9.18034,9.18034,0,0,0-.68555-2.866h-2.522A17.14466,17.14466,0,0,1,81.43976,119.06335Z"/><path class="a" d="M79.61707,123.36322a15.43177,15.43177,0,0,0,.387-2.86511H75.7215l.00256,2.86511Z"/><path class="a" d="M79.02625,128.18475a9.27748,9.27748,0,0,0,2.564-1.81958l.00244.004.00055-.00018a9.24194,9.24194,0,0,0,1.26343-1.5719H80.70947A11.38254,11.38254,0,0,1,79.02625,128.18475Z"/><path class="a" d="M75.7215,124.798l.00256,4.19355a3.26837,3.26837,0,0,0,.96338-.476l.00256.00171c.02552-.01782.051-.03674.07636-.05548a4.93328,4.93328,0,0,0,.616-.547,7.18973,7.18973,0,0,0,.95391-1.26831,10.31042,10.31042,0,0,0,.86017-1.84845Z"/><path class="a" d="M128,77.80078H110.86389a6.01291,6.01291,0,0,0-4.36194-4.533V61.374h-3V73.26776a6.01294,6.01294,0,0,0-4.36194,4.533H80.86194a5.99726,5.99726,0,0,0-11.72388,0H50.86a6.01294,6.01294,0,0,0-4.36194-4.533V61.374h-3V73.26776a6.01291,6.01291,0,0,0-4.36194,4.533H22a1.5,1.5,0,0,0,0,3H39.25488a5.99748,5.99748,0,0,0,11.48633,0H69.25684A6.01634,6.01634,0,0,0,73.5,84.87286V97.22754h3V84.87286a6.01634,6.01634,0,0,0,4.24316-4.07208H99.25879a5.99748,5.99748,0,0,0,11.48633,0H128a1.5,1.5,0,0,0,0-3ZM44.99805,82.07031a3,3,0,1,1,3-3A3.00328,3.00328,0,0,1,44.99805,82.07031Zm30.002,0a3,3,0,1,1,3-3A3.00328,3.00328,0,0,1,75,82.07031Zm30.00195,0a3,3,0,1,1,3-3A3.00328,3.00328,0,0,1,105.002,82.07031Z"/></svg>