<?xml version="1.0" encoding="UTF-8" standalone="no"?>
<svg
   xmlns:dc="http://purl.org/dc/elements/1.1/"
   xmlns:cc="http://creativecommons.org/ns#"
   xmlns:rdf="http://www.w3.org/1999/02/22-rdf-syntax-ns#"
   xmlns:svg="http://www.w3.org/2000/svg"
   xmlns="http://www.w3.org/2000/svg"
   xmlns:sodipodi="http://sodipodi.sourceforge.net/DTD/sodipodi-0.dtd"
   xmlns:inkscape="http://www.inkscape.org/namespaces/inkscape"
   id="Ebene_1"
   data-name="Ebene 1"
   viewBox="0 0 377.58 400"
   version="1.1"
   sodipodi:docname="dns.svg"
   inkscape:version="0.92.4 (unknown)">
  <metadata
     id="metadata19">
    <rdf:RDF>
      <cc:Work
         rdf:about="">
        <dc:format>image/svg+xml</dc:format>
        <dc:type
           rdf:resource="http://purl.org/dc/dcmitype/StillImage" />
      </cc:Work>
    </rdf:RDF>
  </metadata>
  <sodipodi:namedview
     pagecolor="#ffffff"
     bordercolor="#666666"
     borderopacity="1"
     objecttolerance="10"
     gridtolerance="10"
     guidetolerance="10"
     inkscape:pageopacity="0"
     inkscape:pageshadow="2"
     inkscape:window-width="1916"
     inkscape:window-height="1005"
     id="namedview17"
     showgrid="false"
     inkscape:zoom="0.59"
     inkscape:cx="-240.87102"
     inkscape:cy="200"
     inkscape:window-x="0"
     inkscape:window-y="73"
     inkscape:window-maximized="0"
     inkscape:current-layer="Ebene_1" />
  <defs
     id="defs4">
    <style
       id="style2">.cls-1{fill:#848580;}.cls-2{fill:#858480;}</style>
  </defs>
  <title
     id="title6">Internet_endgeräte</title>
  <path
     class="cls-1"
     d="M86,280.37H18.69a7.52,7.52,0,0,0-7.48,7.48V392.52A7.52,7.52,0,0,0,18.69,400H86a7.52,7.52,0,0,0,7.48-7.48V287.85A7.52,7.52,0,0,0,86,280.37ZM52.34,394.59a5.81,5.81,0,1,1,5.82-5.81,5.81,5.81,0,0,1-5.82,5.81Zm33.64-17H18.69V295.33H86Z"
     transform="translate(-11.21)"
     id="path8"
     style="fill:#ffffff;fill-opacity:1" />
  <path
     class="cls-1"
     d="M377.57,280.37H325.23A11.24,11.24,0,0,0,314,291.59v97.19A11.24,11.24,0,0,0,325.23,400h52.34a11.25,11.25,0,0,0,11.22-11.22V291.59A11.25,11.25,0,0,0,377.57,280.37ZM336.45,286h29.91v3.74H336.45ZM351.4,392.53a7.49,7.49,0,1,1,7.48-7.5h0A7.5,7.5,0,0,1,351.4,392.53Zm29.91-22.44H321.49V295.33h59.82Z"
     transform="translate(-11.21)"
     id="path10"
     style="fill:#ffffff;fill-opacity:1" />
  <path
     class="cls-1"
     d="M257.94,84.11V9.34A9.36,9.36,0,0,0,248.6,0H155.14a9.36,9.36,0,0,0-9.34,9.34V84.11H127.1v28H276.64v-28ZM220.56,102.8H183.18V93.45h37.38Zm28-18.69H155.14V9.36h93.42Z"
     transform="translate(-11.21)"
     id="path12"
     style="fill:#ffffff;fill-opacity:1" />
  <path
     class="cls-2"
     d="M201.87,142.23a85.51,85.51,0,1,0,85.51,85.51A85.52,85.52,0,0,0,201.87,142.23Zm48.38,114a137.8,137.8,0,0,0,2.81-22.8h22.7a73.52,73.52,0,0,1-5.46,22.8Zm-96.76-57A137.55,137.55,0,0,0,150.68,222H128a73.12,73.12,0,0,1,5.46-22.79Zm85.08,0A122.48,122.48,0,0,1,241.65,222H207.58V199.24Zm-31-11.4V154.47a25.86,25.86,0,0,1,7.7,3.8,48.84,48.84,0,0,1,13.09,14.88,82.18,82.18,0,0,1,6.87,14.69Zm-32.2-14.69c3.84-6.39,8.35-11.55,13.09-14.88a25.69,25.69,0,0,1,7.69-3.8v33.37H168.51a82.06,82.06,0,0,1,6.84-14.69Zm20.78,26.08V222H162.1a121.52,121.52,0,0,1,3.07-22.79Zm-62.72,57a73.24,73.24,0,0,1-5.46-22.8h22.7a137.8,137.8,0,0,0,2.81,22.8Zm28.64-22.8h34.07v22.8h-31a121.74,121.74,0,0,1-3.07-22.8Zm34.07,34.2V301a26.1,26.1,0,0,1-7.7-3.8c-4.73-3.34-9.26-8.49-13.09-14.88a81.83,81.83,0,0,1-6.84-14.7Zm32.21,14.7c-3.85,6.39-8.37,11.55-13.1,14.88a25.86,25.86,0,0,1-7.7,3.8V267.64h27.66a82.93,82.93,0,0,1-6.86,14.7Zm-20.8-26.08V233.45h34.07a123.41,123.41,0,0,1-3.07,22.8Zm45.49-34.2a136.63,136.63,0,0,0-2.82-22.8H270.3a73.24,73.24,0,0,1,5.46,22.8Zm11.27-34.2H247.25a90.29,90.29,0,0,0-13.41-27,74.51,74.51,0,0,1,30.49,27ZM149.47,175.34a74.07,74.07,0,0,1,20.43-14.47,90.35,90.35,0,0,0-13.41,27H139.41A73.78,73.78,0,0,1,149.47,175.34Zm-10.06,92.3h17.08a90.29,90.29,0,0,0,13.41,27A74.51,74.51,0,0,1,139.41,267.64Zm114.86,12.5a74.14,74.14,0,0,1-20.43,14.49,90.71,90.71,0,0,0,13.41-27h17.08A73.78,73.78,0,0,1,254.27,280.14Z"
     transform="translate(-11.21)"
     id="path14"
     style="fill:#ffffff;fill-opacity:1" />
</svg>
