<svg xmlns="http://www.w3.org/2000/svg" viewBox="0 0 150 150"><defs><style>.a{fill:#fff;}</style></defs><path class="a" d="M83.811,110.14062c-.4732.42768-.95129.82935-1.43536,1.18812-.10651.07843-.21283.15753-.3197.23242l-.01081-.0072a13.67974,13.67974,0,0,1-4.03192,1.99212l-.0108-17.55115h3.2384a20.58036,20.58036,0,0,1,2.04267-6.0047H78.01318l-.0108-11.99145H95.92633c-.02307.56909-.071,1.13623-.10907,1.70422a20.66181,20.66181,0,0,1,5.83991-.85095c.08,0,.15722.01111.23706.012.01458-.28863.0404-.57641.05145-.86529h11.92523a38.6076,38.6076,0,0,1-.59589,4.41962,20.90479,20.90479,0,0,1,5.01618,4.83075A44.984,44.984,0,0,0,119.99945,75v-.00006A44.99946,44.99946,0,0,0,75.00006,30.00055h-.00012A45.01629,45.01629,0,0,0,34.92346,95.486q.74542,1.45533,1.5918,2.84778a45.10381,45.10381,0,0,0,3.08307,4.44824q.668.85007,1.37542,1.66675a45.26586,45.26586,0,0,0,4.57746,4.57739q.81647.70725,1.66669,1.37549.85007.668,1.73248,1.2956a44.97553,44.97553,0,0,0,6.54046,3.86474q1.9673.94794,4.03687,1.70685,1.55072.56781,3.15314,1.0235.53384.1516,1.07312.2904,1.61746.41621,3.28039.71381A45.26961,45.26961,0,0,0,75,119.99945q1.74747,0,3.46228-.13122a44.30746,44.30746,0,0,0,12.2168-2.68659A20.87751,20.87751,0,0,1,83.811,110.14062ZM113.87952,71.994H101.93488A71.75294,71.75294,0,0,0,100.45526,59.999h10.55505A38.427,38.427,0,0,1,113.87952,71.994ZM102.572,47.42432a38.65812,38.65812,0,0,1,5.30994,6.57714H98.88208a47.59366,47.59366,0,0,0-7.05951-14.19464A38.83306,38.83306,0,0,1,102.572,47.42432ZM78.01318,36.43365a13.58409,13.58409,0,0,1,4.04993,1.998,25.69821,25.69821,0,0,1,6.89032,7.8299,43.23858,43.23858,0,0,1,3.59991,7.73272H78.01318Zm0,23.56531h16.3114A64.63591,64.63591,0,0,1,95.94092,71.994H78.01318ZM67.93689,38.43164a13.58268,13.58268,0,0,1,4.04993-1.998V53.99426H57.44659a43.23957,43.23957,0,0,1,3.6-7.73272A25.69743,25.69743,0,0,1,67.93689,38.43164ZM71.98682,59.999V71.994H54.059A64.641,64.641,0,0,1,55.67542,59.999ZM47.42792,47.42432a38.83423,38.83423,0,0,1,10.74951-7.6175,47.59515,47.59515,0,0,0-7.05957,14.19464H42.118A38.66393,38.66393,0,0,1,47.42792,47.42432ZM38.98962,59.999H49.54468A71.75286,71.75286,0,0,0,48.06512,71.994H36.12048A38.42675,38.42675,0,0,1,38.98962,59.999Zm.018,29.98041a38.60142,38.60142,0,0,1-2.87854-11.98059H48.05432a71.65721,71.65721,0,0,0,1.47675,11.98059ZM47.43512,102.554l-.01019.017-.00232-.00079a38.69026,38.69026,0,0,1-5.288-6.57892h8.98682a47.63565,47.63565,0,0,0,7.04486,14.17816A38.82361,38.82361,0,0,1,47.43512,102.554Zm24.5517,10.99206A13.67974,13.67974,0,0,1,67.9549,111.554l-.01081.0072c-.10449-.07318-.20849-.15058-.31256-.22718a20.61634,20.61634,0,0,1-2.58905-2.2987,30.08992,30.08992,0,0,1-3.98871-5.30408,43.15672,43.15672,0,0,1-3.6-7.73627H71.99762Zm0-23.55585H55.69342a64.60049,64.60049,0,0,1-1.61975-11.99145H71.99762Z"/><path class="a" d="M132.75488,127.42578l-16.9256-16.9256a17.74568,17.74568,0,1,0-14.172,7.074,17.64653,17.64653,0,0,0,12.17047-4.83344l16.80609,16.8061a1.49984,1.49984,0,1,0,2.12109-2.1211Zm-22.37109-15.709a14.75231,14.75231,0,1,1,6.02539-11.89453A14.816,14.816,0,0,1,110.38379,111.7168Z"/></svg>