<?xml version="1.0" encoding="UTF-8" standalone="no"?>
<svg
   xmlns:dc="http://purl.org/dc/elements/1.1/"
   xmlns:cc="http://creativecommons.org/ns#"
   xmlns:rdf="http://www.w3.org/1999/02/22-rdf-syntax-ns#"
   xmlns:svg="http://www.w3.org/2000/svg"
   xmlns="http://www.w3.org/2000/svg"
   xmlns:sodipodi="http://sodipodi.sourceforge.net/DTD/sodipodi-0.dtd"
   xmlns:inkscape="http://www.inkscape.org/namespaces/inkscape"
   id="Ebene_1"
   data-name="Ebene 1"
   viewBox="0 0 291.53 120.22"
   version="1.1"
   sodipodi:docname="groups.svg"
   inkscape:version="0.92.4 (unknown)">
  <metadata
     id="metadata23">
    <rdf:RDF>
      <cc:Work
         rdf:about="">
        <dc:format>image/svg+xml</dc:format>
        <dc:type
           rdf:resource="http://purl.org/dc/dcmitype/StillImage" />
      </cc:Work>
    </rdf:RDF>
  </metadata>
  <sodipodi:namedview
     pagecolor="#ffffff"
     bordercolor="#666666"
     borderopacity="1"
     objecttolerance="10"
     gridtolerance="10"
     guidetolerance="10"
     inkscape:pageopacity="0"
     inkscape:pageshadow="2"
     inkscape:window-width="1916"
     inkscape:window-height="1005"
     id="namedview21"
     showgrid="false"
     inkscape:zoom="1.2314342"
     inkscape:cx="-60.092535"
     inkscape:cy="60.110001"
     inkscape:window-x="0"
     inkscape:window-y="73"
     inkscape:window-maximized="0"
     inkscape:current-layer="Ebene_1" />
  <defs
     id="defs4">
    <style
       id="style2">.cls-1{fill:#868681;}</style>
  </defs>
  <title
     id="title6">IDM-Icon</title>
  <path
     class="cls-1"
     d="M269.34,88.92c-2.66,0-12.36,10.88-28,10.88s-25.36-10.88-28-10.88a22,22,0,0,0-13,3.87c9.77,10.18,12,28.75,12,42.32,0,8.47-3.39,14.87-9.11,18.64a28.16,28.16,0,0,0,4,.29h68.4c12.53,0,20.9-7.59,20.9-20.28C296.42,116.08,292.27,88.92,269.34,88.92Z"
     transform="translate(-4.89 -33.82)"
     id="path8"
     style="fill:#ffffff;fill-opacity:1" />
  <path
     class="cls-1"
     d="M241.32,33.82a30.06,30.06,0,1,0,30.06,30.05A30.06,30.06,0,0,0,241.32,33.82Z"
     transform="translate(-4.89 -33.82)"
     id="path10"
     style="fill:#ffffff;fill-opacity:1" />
  <path
     class="cls-1"
     d="M89.05,135.11c0-13.57,2.2-32.14,12-42.32a22,22,0,0,0-13-3.87c-2.66,0-12.36,10.88-28,10.88S34.64,88.92,32,88.92C9,88.92,4.89,116.08,4.89,133.76c0,12.69,8.38,20.28,20.9,20.28h68.4a28,28,0,0,0,4-.29C92.44,150,89.05,143.58,89.05,135.11Z"
     transform="translate(-4.89 -33.82)"
     id="path12"
     style="fill:#ffffff;fill-opacity:1" />
  <path
     class="cls-1"
     d="M60,33.82A30.06,30.06,0,1,0,90.05,63.87,30.06,30.06,0,0,0,60,33.82Z"
     transform="translate(-4.89 -33.82)"
     id="path14"
     style="fill:#ffffff;fill-opacity:1" />
  <path
     class="cls-1"
     d="M178.67,88.92c-2.65,0-12.36,10.88-28,10.88s-25.36-10.88-28-10.88c-22.93,0-27.08,27.16-27.08,44.84,0,12.69,8.37,20.28,20.89,20.28h68.41c12.52,0,20.9-7.59,20.9-20.28C205.76,116.08,201.61,88.92,178.67,88.92Z"
     transform="translate(-4.89 -33.82)"
     id="path16"
     style="fill:#ffffff;fill-opacity:1" />
  <path
     class="cls-1"
     d="M150.66,93.93A30.06,30.06,0,1,0,120.6,63.87,30.06,30.06,0,0,0,150.66,93.93Z"
     transform="translate(-4.89 -33.82)"
     id="path18"
     style="fill:#ffffff;fill-opacity:1" />
</svg>
