<svg xmlns="http://www.w3.org/2000/svg" viewBox="0 0 150 150"><defs><style>.a{fill:#fff;}</style></defs><path class="a" d="M93.50726,63.39124a8.999,8.999,0,0,0-6.83233-2.84064.99119.99119,0,0,0-.36188.10773,15.33515,15.33515,0,0,1-22.65784-.00458.99286.99286,0,0,0-.35785-.10315,8.958,8.958,0,0,0-6.81976,2.85217,15.74127,15.74127,0,0,1,2.69,18.92914A11.98428,11.98428,0,0,1,67.989,88.0553H82.00385A11.95926,11.95926,0,0,1,90.805,82.33246a15.7401,15.7401,0,0,1,2.70227-18.94122Z"/><ellipse class="a" cx="74.98621" cy="49.96973" rx="12.51978" ry="12.68597"/><ellipse class="a" cx="104.30981" cy="74.63066" rx="12.51978" ry="12.68593"/><ellipse class="a" cx="45.66248" cy="74.63066" rx="12.51978" ry="12.68593"/><path class="a" d="M115.99866,85.21155a.991.991,0,0,0-.36219.10785,15.33512,15.33512,0,0,1-22.65765-.00476.99176.99176,0,0,0-.35773-.10309c-9.556,0-11.301,11.46722-11.301,18.9458,0,5.34582,3.49,8.5589,8.725,8.5589h28.55725c5.23511,0,8.7251-3.21308,8.7251-8.5589C127.32739,96.65106,125.5824,85.21155,115.99866,85.21155Z"/><path class="a" d="M57.3512,85.21155a.99086.99086,0,0,0-.36194.10779,15.33519,15.33519,0,0,1-22.65766-.00458.99243.99243,0,0,0-.358-.10321c-9.556,0-11.301,11.46722-11.301,18.9458,0,5.34582,3.49,8.5589,8.7251,8.5589H59.955c5.235,0,8.725-3.21308,8.725-8.5589C68.67993,96.65106,66.93494,85.21155,57.3512,85.21155Z"/></svg>