<svg id="Ebene_1" data-name="Ebene 1" xmlns="http://www.w3.org/2000/svg" viewBox="0 0 394.67 370"><defs><style>.cls-1{fill:#838480;}</style></defs><title>load_balancer</title><path class="cls-1" d="M378.83,286.33h-6.16V206.17A43.22,43.22,0,0,0,329.5,163H224.67V113.67h6.16a18.55,18.55,0,0,0,18.5-18.5V33.5A18.55,18.55,0,0,0,230.83,15H169.17a18.55,18.55,0,0,0-18.5,18.5V95.17a18.55,18.55,0,0,0,18.5,18.5h6.16V163H70.5a43.22,43.22,0,0,0-43.17,43.17v80.16H21.17a18.55,18.55,0,0,0-18.5,18.5V366.5A18.55,18.55,0,0,0,21.17,385H82.83a18.55,18.55,0,0,0,18.5-18.5V304.83a18.55,18.55,0,0,0-18.5-18.5H76.67v-74h98.66v74h-6.16a18.55,18.55,0,0,0-18.5,18.5V366.5a18.55,18.55,0,0,0,18.5,18.5h61.66a18.55,18.55,0,0,0,18.5-18.5V304.83a18.55,18.55,0,0,0-18.5-18.5h-6.16v-74h98.66v74h-6.16a18.55,18.55,0,0,0-18.5,18.5V366.5a18.55,18.55,0,0,0,18.5,18.5h61.66a18.55,18.55,0,0,0,18.5-18.5V304.83A18.55,18.55,0,0,0,378.83,286.33Z" transform="translate(-2.67 -15)"/></svg>