<svg xmlns="http://www.w3.org/2000/svg" viewBox="0 0 150 150"><defs><style>.a{fill:#fff;}</style></defs><path class="a" d="M121.37354,104.32031c-.21875,0-.4339.01459-.648.03284L105.9953,80.49524a7.56673,7.56673,0,0,0-7.52252-12.1839L82.76184,42.865a7.58272,7.58272,0,1,0-11.93622-.21789L53.92853,68.24689a7.56665,7.56665,0,0,0-7.66016,11.60547L30.029,104.45569a7.5992,7.5992,0,1,0,4.97193,3.359l16.275-24.65723c.14715.02612.29486.05066.44488.06812l9.69239,23.39953a7.57451,7.57451,0,1,0,5.54205-2.29919L57.493,81.48218a7.55114,7.55114,0,0,0,1.44318-9.93036L76.04462,45.63177a7.60758,7.60758,0,0,0,.83087.04792c.18738,0,.37109-.01471.555-.02814L93.61041,71.85736a7.5395,7.5395,0,0,0,1.629,9.62482l-9.46417,22.84845a7.57639,7.57639,0,1,0,5.57251,2.22552l9.51037-22.96,14.5763,23.60864a7.57169,7.57169,0,1,0,5.93909-2.88452ZM28.62646,116.47754a4.57862,4.57862,0,1,1,4.57911-4.5791A4.584,4.584,0,0,1,28.62646,116.47754Zm38.21827-9.15723a4.57862,4.57862,0,1,1-4.57862,4.57813A4.5838,4.5838,0,0,1,66.84473,107.32031ZM52.60205,80.28125a4.5791,4.5791,0,1,1,4.5791-4.5791A4.5839,4.5839,0,0,1,52.60205,80.28125ZM76.87549,42.67969a4.57862,4.57862,0,1,1,4.57861-4.57813A4.5838,4.5838,0,0,1,76.87549,42.67969Zm9.103,73.79785a4.57862,4.57862,0,1,1,4.5791-4.5791A4.58359,4.58359,0,0,1,85.97852,116.47754Zm14.15185-36.19629a4.5791,4.5791,0,1,1,4.5791-4.5791A4.584,4.584,0,0,1,100.13037,80.28125Zm21.24317,36.19629a4.57862,4.57862,0,1,1,4.5791-4.5791A4.584,4.584,0,0,1,121.37354,116.47754Z"/></svg>