<?xml version="1.0" encoding="UTF-8" standalone="no"?>
<svg
   xmlns:dc="http://purl.org/dc/elements/1.1/"
   xmlns:cc="http://creativecommons.org/ns#"
   xmlns:rdf="http://www.w3.org/1999/02/22-rdf-syntax-ns#"
   xmlns:svg="http://www.w3.org/2000/svg"
   xmlns="http://www.w3.org/2000/svg"
   xmlns:sodipodi="http://sodipodi.sourceforge.net/DTD/sodipodi-0.dtd"
   xmlns:inkscape="http://www.inkscape.org/namespaces/inkscape"
   id="Ebene_1"
   data-name="Ebene 1"
   viewBox="0 0 394.67 370"
   version="1.1"
   sodipodi:docname="ldap-directory.svg"
   inkscape:version="0.92.4 (unknown)">
  <metadata
     id="metadata13">
    <rdf:RDF>
      <cc:Work
         rdf:about="">
        <dc:format>image/svg+xml</dc:format>
        <dc:type
           rdf:resource="http://purl.org/dc/dcmitype/StillImage" />
      </cc:Work>
    </rdf:RDF>
  </metadata>
  <sodipodi:namedview
     pagecolor="#ffffff"
     bordercolor="#666666"
     borderopacity="1"
     objecttolerance="10"
     gridtolerance="10"
     guidetolerance="10"
     inkscape:pageopacity="0"
     inkscape:pageshadow="2"
     inkscape:window-width="1916"
     inkscape:window-height="1005"
     id="namedview11"
     showgrid="false"
     inkscape:zoom="0.63783784"
     inkscape:cx="-200.10143"
     inkscape:cy="185"
     inkscape:window-x="0"
     inkscape:window-y="73"
     inkscape:window-maximized="0"
     inkscape:current-layer="Ebene_1" />
  <defs
     id="defs4">
    <style
       id="style2">.cls-1{fill:#838480;}</style>
  </defs>
  <title
     id="title6">load_balancer</title>
  <path
     class="cls-1"
     d="M378.83,286.33h-6.16V206.17A43.22,43.22,0,0,0,329.5,163H224.67V113.67h6.16a18.55,18.55,0,0,0,18.5-18.5V33.5A18.55,18.55,0,0,0,230.83,15H169.17a18.55,18.55,0,0,0-18.5,18.5V95.17a18.55,18.55,0,0,0,18.5,18.5h6.16V163H70.5a43.22,43.22,0,0,0-43.17,43.17v80.16H21.17a18.55,18.55,0,0,0-18.5,18.5V366.5A18.55,18.55,0,0,0,21.17,385H82.83a18.55,18.55,0,0,0,18.5-18.5V304.83a18.55,18.55,0,0,0-18.5-18.5H76.67v-74h98.66v74h-6.16a18.55,18.55,0,0,0-18.5,18.5V366.5a18.55,18.55,0,0,0,18.5,18.5h61.66a18.55,18.55,0,0,0,18.5-18.5V304.83a18.55,18.55,0,0,0-18.5-18.5h-6.16v-74h98.66v74h-6.16a18.55,18.55,0,0,0-18.5,18.5V366.5a18.55,18.55,0,0,0,18.5,18.5h61.66a18.55,18.55,0,0,0,18.5-18.5V304.83A18.55,18.55,0,0,0,378.83,286.33Z"
     transform="translate(-2.67 -15)"
     id="path8"
     style="fill:#ffffff;fill-opacity:1" />
</svg>
