<svg xmlns="http://www.w3.org/2000/svg" viewBox="0 0 150 150"><defs><style>.a{fill:#fff;}</style></defs><path class="a" d="M114.95938,46.408v57.184H34.95385V46.408h80.00553Zm0-5.72707H34.95385A5.77791,5.77791,0,0,0,29.22677,46.408v57.184a5.77791,5.77791,0,0,0,5.72708,5.72707h80.0923a5.77791,5.77791,0,0,0,5.72708-5.72707V46.408A5.85356,5.85356,0,0,0,114.95938,40.68093Z"/><path class="a" d="M62.548,85.10916,45.45349,97.6046a2.9573,2.9573,0,0,1-1.909.60741,3.20319,3.20319,0,0,1-3.21063-3.21063,3.33063,3.33063,0,0,1,1.30161-2.60322L58.81667,79.90272a3.21942,3.21942,0,0,1,3.90482,5.11966c-.08677.08678-.08677.08678-.17354.08678Z"/><path class="a" d="M109.05875,96.91041a3.09238,3.09238,0,0,1-2.60321,1.30161,3.27206,3.27206,0,0,1-1.82226-.60742l-17.268-12.49544a3.2491,3.2491,0,1,1,3.6445-5.38c.08677,0,.08677.08677.17355.08677l17.18123,12.49544a3.39828,3.39828,0,0,1,.69419,4.599Z"/><path class="a" d="M108.36456,57.60184,76.86564,80.51014a3.40385,3.40385,0,0,1-3.818,0L41.63544,57.60184a3.28654,3.28654,0,0,1-.60742-4.51225,3.16132,3.16132,0,0,1,4.3387-.69419L74.95661,73.91533l29.5899-21.51993a3.27814,3.27814,0,0,1,4.51224.69419,3.19972,3.19972,0,0,1-.69419,4.51225Z"/></svg>