<?xml version="1.0" encoding="UTF-8" standalone="no"?>
<!-- Generator: Adobe Illustrator 24.0.2, SVG Export Plug-In . SVG Version: 6.00 Build 0)  -->

<svg
   xmlns:dc="http://purl.org/dc/elements/1.1/"
   xmlns:cc="http://creativecommons.org/ns#"
   xmlns:rdf="http://www.w3.org/1999/02/22-rdf-syntax-ns#"
   xmlns:svg="http://www.w3.org/2000/svg"
   xmlns="http://www.w3.org/2000/svg"
   xmlns:sodipodi="http://sodipodi.sourceforge.net/DTD/sodipodi-0.dtd"
   xmlns:inkscape="http://www.inkscape.org/namespaces/inkscape"
   version="1.1"
   id="Ebene_2_1_"
   x="0px"
   y="0px"
   viewBox="0 0 105.4 79.1"
   style="enable-background:new 0 0 105.4 79.1;"
   xml:space="preserve"
   sodipodi:docname="mail.svg"
   inkscape:version="0.92.4 (unknown)"><metadata
   id="metadata21"><rdf:RDF><cc:Work
       rdf:about=""><dc:format>image/svg+xml</dc:format><dc:type
         rdf:resource="http://purl.org/dc/dcmitype/StillImage" /></cc:Work></rdf:RDF></metadata><defs
   id="defs19" /><sodipodi:namedview
   pagecolor="#ffffff"
   bordercolor="#666666"
   borderopacity="1"
   objecttolerance="10"
   gridtolerance="10"
   guidetolerance="10"
   inkscape:pageopacity="0"
   inkscape:pageshadow="2"
   inkscape:window-width="1916"
   inkscape:window-height="1005"
   id="namedview17"
   showgrid="false"
   inkscape:zoom="2.9835652"
   inkscape:cx="-32.265464"
   inkscape:cy="39.549999"
   inkscape:window-x="0"
   inkscape:window-y="73"
   inkscape:window-maximized="0"
   inkscape:current-layer="Ebene_2_1_" />
<style
   type="text/css"
   id="style2">
	.st0{fill:#868681;}
</style>
<title
   id="title4">Nachricht</title>
<g
   id="g14"
   style="fill:#ffffff;fill-opacity:1">
	<path
   class="st0"
   d="M98.8,6.6v65.9H6.6V6.6l0,0L98.8,6.6z M98.8,0H6.6C3,0,0,3,0,6.6v65.9c0,3.6,3,6.6,6.6,6.6h92.3   c3.6,0,6.6-3,6.6-6.6V6.6C105.4,3,102.5,0,98.8,0z"
   id="path6"
   style="fill:#ffffff;fill-opacity:1" />
	<path
   class="st0"
   d="M38.4,51.2L18.7,65.6c-0.6,0.5-1.4,0.7-2.2,0.7c-2,0-3.7-1.6-3.7-3.7c0-1.2,0.6-2.3,1.5-3l19.8-14.4   c1.6-1.3,4-1,5.2,0.7c1.3,1.6,1,4-0.7,5.2C38.5,51.2,38.5,51.2,38.4,51.2L38.4,51.2z"
   id="path8"
   style="fill:#ffffff;fill-opacity:1" />
	<path
   class="st0"
   d="M92,64.8c-0.7,1-1.8,1.5-3,1.5c-0.8,0-1.5-0.3-2.1-0.7L67,51.2c-1.7-1.2-2.1-3.5-1-5.2c1.2-1.7,3.5-2.1,5.2-1   c0.1,0,0.1,0.1,0.2,0.1l19.8,14.4C92.8,60.8,93.2,63.1,92,64.8C92,64.8,92,64.8,92,64.8L92,64.8z"
   id="path10"
   style="fill:#ffffff;fill-opacity:1" />
	<path
   class="st0"
   d="M91.2,19.5L54.9,45.9c-1.3,0.9-3.1,0.9-4.4,0L14.3,19.5c-1.6-1.3-1.9-3.6-0.7-5.2c1.2-1.6,3.4-1.9,5-0.8   l34.1,24.8l34.1-24.8c1.7-1.2,4-0.8,5.2,0.8C93.2,16,92.9,18.3,91.2,19.5L91.2,19.5z"
   id="path12"
   style="fill:#ffffff;fill-opacity:1" />
</g>
</svg>