<svg xmlns="http://www.w3.org/2000/svg" viewBox="0 0 16 13.49"><defs><style>.cls-1{fill:#868681;}</style></defs><title>Element 3081</title><g id="Ebene_2" data-name="Ebene 2"><g id="_1607_Icons" data-name="1607 Icons"><path class="cls-1" d="M6,6.75a2,2,0,1,1,2,2A2,2,0,0,1,6,6.75Zm4.38-4.4a5,5,0,0,1,0,8.79A8.39,8.39,0,0,0,11.5,6.75,8.4,8.4,0,0,0,10.38,2.35ZM4.5,6.75a8.39,8.39,0,0,0,1.12,4.39,5,5,0,0,1,0-8.79A8.4,8.4,0,0,0,4.5,6.75Zm-3,0a10.72,10.72,0,0,0,2.2,6.74A8,8,0,0,1,3.7,0,10.73,10.73,0,0,0,1.5,6.75ZM12.3,0a8,8,0,0,1,0,13.49,10.72,10.72,0,0,0,2.2-6.74A10.73,10.73,0,0,0,12.3,0Z"/></g></g></svg>