<?xml version="1.0" encoding="UTF-8" standalone="no"?>
<svg
   xmlns:dc="http://purl.org/dc/elements/1.1/"
   xmlns:cc="http://creativecommons.org/ns#"
   xmlns:rdf="http://www.w3.org/1999/02/22-rdf-syntax-ns#"
   xmlns:svg="http://www.w3.org/2000/svg"
   xmlns="http://www.w3.org/2000/svg"
   xmlns:sodipodi="http://sodipodi.sourceforge.net/DTD/sodipodi-0.dtd"
   xmlns:inkscape="http://www.inkscape.org/namespaces/inkscape"
   viewBox="0 0 16 13.49"
   version="1.1"
   id="svg12"
   sodipodi:docname="nagios.svg"
   inkscape:version="0.92.4 (unknown)">
  <metadata
     id="metadata16">
    <rdf:RDF>
      <cc:Work
         rdf:about="">
        <dc:format>image/svg+xml</dc:format>
        <dc:type
           rdf:resource="http://purl.org/dc/dcmitype/StillImage" />
      </cc:Work>
    </rdf:RDF>
  </metadata>
  <sodipodi:namedview
     pagecolor="#ffffff"
     bordercolor="#666666"
     borderopacity="1"
     objecttolerance="10"
     gridtolerance="10"
     guidetolerance="10"
     inkscape:pageopacity="0"
     inkscape:pageshadow="2"
     inkscape:window-width="1916"
     inkscape:window-height="1005"
     id="namedview14"
     showgrid="false"
     inkscape:zoom="17.494441"
     inkscape:cx="-6.4903176"
     inkscape:cy="6.7449999"
     inkscape:window-x="0"
     inkscape:window-y="73"
     inkscape:window-maximized="0"
     inkscape:current-layer="svg12" />
  <defs
     id="defs4">
    <style
       id="style2">.cls-1{fill:#868681;}</style>
  </defs>
  <title
     id="title6">Element 3081</title>
  <g
     id="Ebene_2"
     data-name="Ebene 2"
     style="fill:#ffffff;fill-opacity:1">
    <g
       id="_1607_Icons"
       data-name="1607 Icons"
       style="fill:#ffffff;fill-opacity:1">
      <path
         class="cls-1"
         d="M6,6.75a2,2,0,1,1,2,2A2,2,0,0,1,6,6.75Zm4.38-4.4a5,5,0,0,1,0,8.79A8.39,8.39,0,0,0,11.5,6.75,8.4,8.4,0,0,0,10.38,2.35ZM4.5,6.75a8.39,8.39,0,0,0,1.12,4.39,5,5,0,0,1,0-8.79A8.4,8.4,0,0,0,4.5,6.75Zm-3,0a10.72,10.72,0,0,0,2.2,6.74A8,8,0,0,1,3.7,0,10.73,10.73,0,0,0,1.5,6.75ZM12.3,0a8,8,0,0,1,0,13.49,10.72,10.72,0,0,0,2.2-6.74A10.73,10.73,0,0,0,12.3,0Z"
         id="path8"
         style="fill:#ffffff;fill-opacity:1" />
    </g>
  </g>
</svg>
