<svg xmlns="http://www.w3.org/2000/svg" viewBox="0 0 150 150"><defs><style>.a{fill:#fff;}</style></defs><rect class="a" x="63.2969" y="100.2272" width="23.4062" height="23.4062" rx="3"/><rect class="a" x="33.49713" y="34.9168" width="23.4062" height="23.4062" rx="3"/><rect class="a" x="93.29879" y="34.9168" width="23.4062" height="23.4062" rx="3"/><path class="a" d="M128,77.80039H110.86389a6.01291,6.01291,0,0,0-4.36194-4.533V61.37363h-3V73.26737a6.01294,6.01294,0,0,0-4.36194,4.533H80.86194a5.99726,5.99726,0,0,0-11.72388,0H50.86a6.01294,6.01294,0,0,0-4.36194-4.533V61.37363h-3V73.26737a6.01291,6.01291,0,0,0-4.36194,4.533H22a1.5,1.5,0,0,0,0,3H39.25488a5.99748,5.99748,0,0,0,11.48633,0H69.25684A6.01634,6.01634,0,0,0,73.5,84.87247V97.22715h3V84.87247a6.01634,6.01634,0,0,0,4.24316-4.07208H99.25879a5.99748,5.99748,0,0,0,11.48633,0H128a1.5,1.5,0,0,0,0-3ZM44.99805,82.06992a3,3,0,1,1,3-3A3.00328,3.00328,0,0,1,44.99805,82.06992Zm30.002,0a3,3,0,1,1,3-3A3.00328,3.00328,0,0,1,75,82.06992Zm30.00195,0a3,3,0,1,1,3-3A3.00328,3.00328,0,0,1,105.002,82.06992Z"/></svg>