<svg xmlns="http://www.w3.org/2000/svg" viewBox="0 0 150 150"><defs><style>.a{fill:#fff;}</style></defs><path class="a" d="M85.64764,106.27551a23.74077,23.74077,0,0,1,21.03315-23.55438V38.67682a3.00887,3.00887,0,0,0-3-3H46.31927a3.00883,3.00883,0,0,0-3,3v72.6463a3.00879,3.00879,0,0,0,3,3H87.05609A23.59733,23.59733,0,0,1,85.64764,106.27551ZM56.46387,50.499H93.53613a1.5,1.5,0,0,1,0,3H56.46387a1.5,1.5,0,0,1,0-3Zm0,10H93.53613a1.5,1.5,0,0,1,0,3H56.46387a1.5,1.5,0,0,1,0-3Zm0,10.001H93.53613a1.5,1.5,0,1,1,0,3H56.46387a1.5,1.5,0,1,1,0-3ZM75,83.5H56.46387a1.5,1.5,0,1,1,0-3H75a1.5,1.5,0,0,1,0,3Z"/><path class="a" d="M103.89015,98.36689a3.66319,3.66319,0,0,1,.62-2.04781,4.31634,4.31634,0,0,1,1.82862-1.5155,6.65433,6.65433,0,0,1,2.86193-.56988,7.612,7.612,0,0,1,2.27326.32564,5.88988,5.88988,0,0,1,1.77853.87048,4.21312,4.21312,0,0,1,1.121,1.18986,2.47366,2.47366,0,0,1,.38827,1.28379,1.16254,1.16254,0,0,1-.43837.88927,1.453,1.453,0,0,1-.98946.38827,1.20727,1.20727,0,0,1-.82038-.25676,7.79375,7.79375,0,0,1-.80159-.87674,4.33926,4.33926,0,0,0-1.027-.94563,2.52849,2.52849,0,0,0-1.35894-.32564,2.3602,2.3602,0,0,0-1.53429.46342,1.36177,1.36177,0,0,0-.56988,1.07713,1.44882,1.44882,0,0,0,.48846,1.09593,8.35694,8.35694,0,0,0,1.647,1.0834q1.15855.62623,1.53429.86421,1.10219.65129,1.97267,1.15855a11.55771,11.55771,0,0,1,1.58439,1.10218,4.46729,4.46729,0,0,1,1.121,1.37773,3.92464,3.92464,0,0,1,.40706,1.83489,3.76559,3.76559,0,0,1-.63877,2.13549,5.2165,5.2165,0,0,1-1.85367,1.63449,4.188,4.188,0,0,1,1.69085,3.30656,3.90994,3.90994,0,0,1-.382,1.70337,4.15867,4.15867,0,0,1-1.121,1.41531,5.36994,5.36994,0,0,1-1.75348.95189,7.01488,7.01488,0,0,1-2.22942.33817,7.72159,7.72159,0,0,1-2.58012-.39453,6.02816,6.02816,0,0,1-1.92256-1.0834,4.73845,4.73845,0,0,1-1.18986-1.44662,3.19556,3.19556,0,0,1-.382-1.43409,1.57577,1.57577,0,0,1,.4509-1.10845,1.47916,1.47916,0,0,1,1.12723-.48221,1.44032,1.44032,0,0,1,.53231.10646.96545.96545,0,0,1,.39453.25676,7.317,7.317,0,0,1,.90179,1.37773,2.58747,2.58747,0,0,0,2.56759,1.66581,2.38595,2.38595,0,0,0,1.63449-.54483,1.64814,1.64814,0,0,0,.62-1.27127,1.45234,1.45234,0,0,0-.35069-.9331,4.76088,4.76088,0,0,0-1.00825-.883q-.65756-.45088-2.01024-1.28379t-2.74294-1.72217q-.526-.35068-1.08966-.74522a6.0408,6.0408,0,0,1-.98946-.858,3.49192,3.49192,0,0,1-.67008-1.07087,3.83339,3.83339,0,0,1-.24424-1.43409q0-2.27952,2.64274-3.66978A3.841,3.841,0,0,1,103.89015,98.36689Zm3.18131,4.3837q-1.46541.93936-1.46541,1.92882a1.44791,1.44791,0,0,0,.36948.95189,4.49278,4.49278,0,0,0,.99573.84543q.62624.40705,1.94135,1.19612.38827.22545,1.06461.6325t1.32763.75775q1.49046-1.06461,1.49046-1.90377a1.43852,1.43852,0,0,0-.263-.8329,3.35577,3.35577,0,0,0-.71392-.73271,11.97078,11.97078,0,0,0-1.121-.75775q-.67008-.40706-1.72217-1.00825l-1.27753-.7327Q107.27185,102.85079,107.07146,102.75059Z"/><path class="a" d="M109.35742,85.56543a20.71,20.71,0,1,0,20.70947,20.71A20.7332,20.7332,0,0,0,109.35742,85.56543Zm0,38.41992a17.71,17.71,0,1,1,17.70947-17.71A17.72992,17.72992,0,0,1,109.35742,123.98535Z"/></svg>