<?xml version="1.0" encoding="UTF-8" standalone="no"?>
<svg
   xmlns:dc="http://purl.org/dc/elements/1.1/"
   xmlns:cc="http://creativecommons.org/ns#"
   xmlns:rdf="http://www.w3.org/1999/02/22-rdf-syntax-ns#"
   xmlns:svg="http://www.w3.org/2000/svg"
   xmlns="http://www.w3.org/2000/svg"
   xmlns:sodipodi="http://sodipodi.sourceforge.net/DTD/sodipodi-0.dtd"
   xmlns:inkscape="http://www.inkscape.org/namespaces/inkscape"
   viewBox="0 0 14 16"
   version="1.1"
   id="svg18"
   sodipodi:docname="policies.svg"
   inkscape:version="0.92.4 (unknown)">
  <metadata
     id="metadata22">
    <rdf:RDF>
      <cc:Work
         rdf:about="">
        <dc:format>image/svg+xml</dc:format>
        <dc:type
           rdf:resource="http://purl.org/dc/dcmitype/StillImage" />
      </cc:Work>
    </rdf:RDF>
  </metadata>
  <sodipodi:namedview
     pagecolor="#ffffff"
     bordercolor="#666666"
     borderopacity="1"
     objecttolerance="10"
     gridtolerance="10"
     guidetolerance="10"
     inkscape:pageopacity="0"
     inkscape:pageshadow="2"
     inkscape:window-width="1916"
     inkscape:window-height="1005"
     id="namedview20"
     showgrid="false"
     inkscape:zoom="14.75"
     inkscape:cx="-10.186441"
     inkscape:cy="8"
     inkscape:window-x="0"
     inkscape:window-y="73"
     inkscape:window-maximized="0"
     inkscape:current-layer="svg18" />
  <defs
     id="defs4">
    <style
       id="style2">.cls-1{fill:#868681;}</style>
  </defs>
  <title
     id="title6">Element 3042</title>
  <g
     id="Ebene_2"
     data-name="Ebene 2"
     style="fill:#ffffff;fill-opacity:1">
    <g
       id="_1607_Icons"
       data-name="1607 Icons"
       style="fill:#ffffff;fill-opacity:1">
      <path
         class="cls-1"
         d="M13.34,3.58A14.8,14.8,0,0,0,12,2,14.8,14.8,0,0,0,10.42.66,2.5,2.5,0,0,0,9,0H1.25A1.25,1.25,0,0,0,0,1.25v13.5A1.25,1.25,0,0,0,1.25,16h11.5A1.25,1.25,0,0,0,14,14.75V5A2.5,2.5,0,0,0,13.34,3.58Zm-2.07-.85A12.38,12.38,0,0,1,12.4,4H10V1.59a14,14,0,0,1,1.27,1.14Zm1.73,12a.25.25,0,0,1-.25.25H1.25A.25.25,0,0,1,1,14.75V1.25A.26.26,0,0,1,1.25,1H9V4.5a.5.5,0,0,0,.5.5H13Z"
         id="path8"
         style="fill:#ffffff;fill-opacity:1" />
      <path
         class="cls-1"
         d="M10.5,13h-7a.5.5,0,0,1,0-1h7a.5.5,0,0,1,0,1Z"
         id="path10"
         style="fill:#ffffff;fill-opacity:1" />
      <path
         class="cls-1"
         d="M10.5,11h-7a.5.5,0,0,1,0-1h7a.5.5,0,0,1,0,1Z"
         id="path12"
         style="fill:#ffffff;fill-opacity:1" />
      <path
         class="cls-1"
         d="M10.5,9h-7a.5.5,0,0,1,0-1h7a.5.5,0,0,1,0,1Z"
         id="path14"
         style="fill:#ffffff;fill-opacity:1" />
    </g>
  </g>
</svg>
