<svg xmlns="http://www.w3.org/2000/svg" viewBox="0 0 14 16"><defs><style>.cls-1{fill:#868681;}</style></defs><title>Element 3042</title><g id="Ebene_2" data-name="Ebene 2"><g id="_1607_Icons" data-name="1607 Icons"><path class="cls-1" d="M13.34,3.58A14.8,14.8,0,0,0,12,2,14.8,14.8,0,0,0,10.42.66,2.5,2.5,0,0,0,9,0H1.25A1.25,1.25,0,0,0,0,1.25v13.5A1.25,1.25,0,0,0,1.25,16h11.5A1.25,1.25,0,0,0,14,14.75V5A2.5,2.5,0,0,0,13.34,3.58Zm-2.07-.85A12.38,12.38,0,0,1,12.4,4H10V1.59a14,14,0,0,1,1.27,1.14Zm1.73,12a.25.25,0,0,1-.25.25H1.25A.25.25,0,0,1,1,14.75V1.25A.26.26,0,0,1,1.25,1H9V4.5a.5.5,0,0,0,.5.5H13Z"/><path class="cls-1" d="M10.5,13h-7a.5.5,0,0,1,0-1h7a.5.5,0,0,1,0,1Z"/><path class="cls-1" d="M10.5,11h-7a.5.5,0,0,1,0-1h7a.5.5,0,0,1,0,1Z"/><path class="cls-1" d="M10.5,9h-7a.5.5,0,0,1,0-1h7a.5.5,0,0,1,0,1Z"/></g></g></svg>