<svg xmlns="http://www.w3.org/2000/svg" viewBox="0 0 150 150"><defs><style>.a{fill:#fff;}</style></defs><path class="a" d="M51.29434,33.5151H98.70566V45.36793H51.29434Z"/><path class="a" d="M116.4849,51.29434H33.5151a5.92641,5.92641,0,0,0-5.92641,5.92642V86.85283a5.9264,5.9264,0,0,0,5.92641,5.92641H51.29434V116.4849H98.70566V92.77924H116.4849a5.9264,5.9264,0,0,0,5.92641-5.92641V57.22076A5.92641,5.92641,0,0,0,116.4849,51.29434ZM39.44152,69.07359a5.92642,5.92642,0,1,1,5.92641-5.92642A5.92642,5.92642,0,0,1,39.44152,69.07359Zm53.33772,41.48489H57.22076V80.92641H92.77924Z"/></svg>