<?xml version="1.0" encoding="utf-8"?>
<!-- Generator: Adobe Illustrator 24.0.2, SVG Export Plug-In . SVG Version: 6.00 Build 0)  -->
<svg version="1.1" id="Ebene_1" xmlns="http://www.w3.org/2000/svg" xmlns:xlink="http://www.w3.org/1999/xlink" x="0px" y="0px"
	 viewBox="0 0 107.4 106" style="enable-background:new 0 0 107.4 106;" xml:space="preserve">
<style type="text/css">
	.st0{fill:#868681;}
</style>
<title>Dateiaustausch</title>
<g>
	<path class="st0" d="M1.2,10h50.1l-3.1,31.7H4.3L1.2,10z M46.6,3.6l1.6,3.2H4.3l3.1-6.3h17.2l1.6,3.2L46.6,3.6z"/>
	<path class="st0" d="M56.1,73.8h50.1l-3.1,31.7H59.3L56.1,73.8z M101.5,67.4l1.6,3.2H59.3l3.1-6.3h17.2l1.6,3.2H101.5z"/>
	<g>
		<ellipse class="st0" cx="45" cy="53" rx="2.6" ry="2.6"/>
		<ellipse class="st0" cx="53.7" cy="53" rx="2.6" ry="2.6"/>
		<ellipse class="st0" cx="62.5" cy="53" rx="2.6" ry="2.6"/>
	</g>
	<path class="st0" d="M48.9,85c-13.3,0-24.5-11.3-24.6-25.3h0.4l9.9,0.1L21.3,46.2L8,59.6l10.4,0.1l0,0C18.4,77,32.3,91,49.4,91h2.9
		l-0.5-5.9L48.9,85z"/>
	<path class="st0" d="M58.5,21.5c13.8,0,25,11.3,25.1,25.3h-0.4h-9.9l13.2,13.5l13.3-13.4l-10.4-0.1l0,0
		c-0.1-17.3-13.9-31.3-31-31.4h-2.1l-0.6,5.9H58.5z"/>
</g>
</svg>
