<svg xmlns="http://www.w3.org/2000/svg" viewBox="0 0 150 150"><defs><style>.a{fill:#fff;}</style></defs><path class="a" d="M96.99414,41.96631H78.55945l-1.68579-3.36908a7.80925,7.80925,0,0,0-6.62091-4.41388H49.90228A5.51735,5.51735,0,0,0,44.385,39.70068V74.717a8.02357,8.02357,0,0,0,8,8H96.99414a8.02353,8.02353,0,0,0,8-8V49.96631A8.02348,8.02348,0,0,0,96.99414,41.96631ZM47.385,39.70068a2.52018,2.52018,0,0,1,2.51733-2.51733H70.25275a4.83807,4.83807,0,0,1,3.938,2.75629l1.0141,2.02667H47.385Z"/><path class="a" d="M106.65088,106.93384H81.49353a7.61392,7.61392,0,0,0-4.077-4.26764V85.717h-6V102.6662a7.6139,7.6139,0,0,0-4.077,4.26764H43.34912a3,3,0,0,0,0,6H67.60925a7.56219,7.56219,0,0,0,13.6145,0h25.42713a3,3,0,0,0,0-6ZM74.4165,114.20239a4.5791,4.5791,0,1,1,4.57911-4.5791A4.5839,4.5839,0,0,1,74.4165,114.20239Z"/></svg>