<?xml version="1.0" encoding="UTF-8" standalone="no"?>
<!-- Generator: Adobe Illustrator 12.0.0, SVG Export Plug-In . SVG Version: 6.00 Build 51448)  -->
<svg
   xmlns:a="http://ns.adobe.com/AdobeSVGViewerExtensions/3.0/"
   xmlns:ns="http://ns.adobe.com/SaveForWeb/1.0/"
   xmlns:dc="http://purl.org/dc/elements/1.1/"
   xmlns:cc="http://web.resource.org/cc/"
   xmlns:rdf="http://www.w3.org/1999/02/22-rdf-syntax-ns#"
   xmlns:svg="http://www.w3.org/2000/svg"
   xmlns="http://www.w3.org/2000/svg"
   xmlns:xlink="http://www.w3.org/1999/xlink"
   xmlns:sodipodi="http://sodipodi.sourceforge.net/DTD/sodipodi-0.dtd"
   xmlns:inkscape="http://www.inkscape.org/namespaces/inkscape"
   version="1.0"
   id="Livello_1"
   width="128"
   height="128.00018"
   viewBox="0 0 119.999 120.061"
   overflow="visible"
   enable-background="new 0 0 119.999 120.061"
   xml:space="preserve"
   sodipodi:version="0.32"
   inkscape:version="0.44.1"
   sodipodi:docname="sambaconfig.svgz"
   sodipodi:docbase="/home/steuwer/svn/dev/trunk/ucs/management/univention-directory-manager-modules/modules/univention/admin/handlers/settings"
   inkscape:export-filename="/home/steuwer/svn/dev/trunk/ucs/management/univention-directory-manager-modules/modules/univention/admin/handlers/settings/sambaconfig.png"
   inkscape:export-xdpi="22.5"
   inkscape:export-ydpi="22.5"><defs
   id="defs127"><linearGradient
   id="linearGradient2853">
  <stop
   style="stop-color:#ffffff;stop-opacity:1.0000000;"
   offset="0.0000000"
   id="stop2854" />

  <stop
   style="stop-color:#ffc400;stop-opacity:0;"
   offset="1"
   id="stop2855" />

</linearGradient><radialGradient
   inkscape:collect="always"
   xlink:href="#linearGradient2853"
   id="radialGradient2063"
   gradientUnits="userSpaceOnUse"
   gradientTransform="matrix(1.714591,0,0,0.602241,-155.6563,-28.14854)"
   cx="34.369865"
   cy="127.87701"
   fx="34.369862"
   fy="128.37959"
   r="27.642044" /><linearGradient
   id="linearGradient4637"
   gradientUnits="userSpaceOnUse"
   x1="61.4478"
   y1="-11.3657"
   x2="61.4478"
   y2="52.4684">
				<stop
   offset="2.87356%"
   style="stop-color:rgb(255,255,255)"
   id="stop4639" />



				<stop
   offset="100%"
   style="stop-opacity:0;stop-color:rgb(255,255,255)"
   id="stop4641" />



			</linearGradient><linearGradient
   inkscape:collect="always"
   xlink:href="#linearGradient4637"
   id="linearGradient2066"
   gradientUnits="userSpaceOnUse"
   gradientTransform="matrix(1.032597,0,0,1,-157.1572,-28.47652)"
   x1="59.149384"
   y1="-11.988778"
   x2="59.149559"
   y2="39.395042" /><linearGradient
   inkscape:collect="always"
   xlink:href="#XMLID_13_"
   id="linearGradient2074"
   gradientUnits="userSpaceOnUse"
   x1="58.938"
   y1="59.5918"
   x2="58.938"
   y2="-28.205"
   gradientTransform="matrix(1.032597,0,0,1,-157.0518,-28.43337)" /><linearGradient
   inkscape:collect="always"
   xlink:href="#XMLID_11_"
   id="linearGradient2077"
   gradientUnits="userSpaceOnUse"
   x1="59.3257"
   y1="0.0264"
   x2="59.3257"
   y2="58.7847"
   gradientTransform="matrix(1.032597,0,0,1,-157.0518,-28.43337)" /><linearGradient
   inkscape:collect="always"
   xlink:href="#XMLID_10_"
   id="linearGradient2080"
   gradientUnits="userSpaceOnUse"
   x1="1.6245"
   y1="-24.8394"
   x2="1.6245"
   y2="55.9653"
   gradientTransform="matrix(1.032597,0,0,1,-157.0518,-28.43337)" /><linearGradient
   id="XMLID_9_"
   gradientUnits="userSpaceOnUse"
   x1="43.0928"
   y1="29.1885"
   x2="118.948"
   y2="105.043">
					<stop
   offset="0.0337"
   style="stop-color:rgb(255,255,255)"
   id="stop2172" />



					<stop
   offset="1"
   style="stop-color:rgb(178,178,178)"
   id="stop2174" />



				</linearGradient><linearGradient
   inkscape:collect="always"
   xlink:href="#XMLID_9_"
   id="linearGradient2083"
   gradientUnits="userSpaceOnUse"
   x1="43.0928"
   y1="29.1885"
   x2="118.948"
   y2="105.043"
   gradientTransform="matrix(1.032597,0,0,1,-157.0518,-28.43337)" /><linearGradient
   id="XMLID_8_"
   gradientUnits="userSpaceOnUse"
   x1="58.0728"
   y1="69.0654"
   x2="62.2574"
   y2="-38.445">
					<stop
   offset="0.0337"
   style="stop-color:rgb(255,255,255)"
   id="stop2163" />



					<stop
   offset="1"
   style="stop-color:rgb(178,178,178)"
   id="stop2165" />



				</linearGradient><linearGradient
   inkscape:collect="always"
   xlink:href="#XMLID_8_"
   id="linearGradient2086"
   gradientUnits="userSpaceOnUse"
   x1="58.0728"
   y1="69.0654"
   x2="62.2574"
   y2="-38.445"
   gradientTransform="matrix(1.032597,0,0,1,-157.0518,-28.43337)" /><linearGradient
   id="XMLID_7_"
   gradientUnits="userSpaceOnUse"
   x1="59.0044"
   y1="99.0879"
   x2="59.0044"
   y2="12.9534">
					<stop
   offset="0"
   style="stop-color:rgb(158,158,158)"
   id="stop2154" />



					<stop
   offset="1"
   style="stop-color:rgb(97,97,97)"
   id="stop2156" />



				</linearGradient><linearGradient
   inkscape:collect="always"
   xlink:href="#XMLID_7_"
   id="linearGradient2089"
   gradientUnits="userSpaceOnUse"
   x1="59.0044"
   y1="99.0879"
   x2="59.0044"
   y2="12.9534"
   gradientTransform="matrix(1.032597,0,0,1,-157.0518,-28.43337)" /><linearGradient
   id="linearGradient3291"><stop
     style="stop-color:black;stop-opacity:1"
     offset="0"
     id="stop3293" /><stop
     style="stop-color:black;stop-opacity:0"
     offset="1"
     id="stop3295" /></linearGradient><radialGradient
   inkscape:collect="always"
   xlink:href="#linearGradient3291"
   id="radialGradient3336"
   gradientUnits="userSpaceOnUse"
   gradientTransform="matrix(1,0,0,0.197802,0,92.82166)"
   cx="63.912209"
   cy="115.70919"
   fx="33.953373"
   fy="115.70919"
   r="63.912209" /><linearGradient
   inkscape:collect="always"
   xlink:href="#XMLID_11_"
   id="linearGradient9291"
   gradientUnits="userSpaceOnUse"
   gradientTransform="matrix(1.1250507,0.1245433,0.1244801,1.1244802,-2.8257128,-11.708873)"
   x1="41.188999"
   y1="80.101601"
   x2="27.6451"
   y2="66.557701" /><linearGradient
   id="linearGradient6141"><stop
     style="stop-color:#000000;stop-opacity:1;"
     offset="0"
     id="stop6143" /><stop
     style="stop-color:#ffffff;stop-opacity:0;"
     offset="1"
     id="stop6145" /></linearGradient><linearGradient
   gradientTransform="translate(-3.0255781e-2,3.056501e-4)"
   id="linearGradient5166"
   gradientUnits="userSpaceOnUse"
   x1="77.542931"
   y1="41.868668"
   x2="88.108376"
   y2="31.303225">
		<stop
   offset="0"
   style="stop-color:#323232;stop-opacity:1;"
   id="stop5168" />
		
		
		
		
		
		
		<stop
   offset="0.75739998"
   style="stop-color:#ffffff;stop-opacity:0;"
   id="stop5170" />
	</linearGradient>
	<linearGradient
   y2="31.303225"
   x2="88.108376"
   y1="41.868668"
   x1="77.542931"
   gradientUnits="userSpaceOnUse"
   id="XMLID_16_"
   gradientTransform="translate(-3.0255781e-2,3.056501e-4)">
		<stop
   id="stop92"
   style="stop-color:#ffffff;stop-opacity:1;"
   offset="0" />
		
		
		
		
		
		
		<stop
   id="stop106"
   style="stop-color:#ffffff;stop-opacity:0.01898734;"
   offset="0.75739998" />
	</linearGradient>
	
<linearGradient
   inkscape:collect="always"
   xlink:href="#XMLID_18_"
   id="linearGradient3295"
   gradientUnits="userSpaceOnUse"
   gradientTransform="matrix(0.7074656,-0.7074656,0.7071068,0.7071068,-18.749172,36.539651)"
   x1="-6.165"
   y1="112.5049"
   x2="11.0181"
   y2="112.5049" /><linearGradient
   inkscape:collect="always"
   xlink:href="#XMLID_17_"
   id="linearGradient3298"
   gradientUnits="userSpaceOnUse"
   gradientTransform="matrix(1.0002442,-2.5378062e-4,-2.5378062e-4,1.0002442,8.6347844,-24.632129)"
   x1="38.757801"
   y1="7.4277"
   x2="63.923302"
   y2="7.4277" /><linearGradient
   inkscape:collect="always"
   xlink:href="#XMLID_16_"
   id="linearGradient3301"
   gradientUnits="userSpaceOnUse"
   gradientTransform="matrix(0.7074656,-0.7074656,0.7071068,0.7071068,-24.896055,39.032512)"
   x1="76.281174"
   y1="43.060352"
   x2="86.611"
   y2="31.303225" /><linearGradient
   inkscape:collect="always"
   xlink:href="#XMLID_15_"
   id="linearGradient3304"
   gradientUnits="userSpaceOnUse"
   gradientTransform="matrix(0.7074656,-0.7074656,0.7071068,0.7071068,-24.895791,39.125846)"
   x1="76.919403"
   y1="43.1436"
   x2="100.6411"
   y2="19.4214" /><linearGradient
   inkscape:collect="always"
   xlink:href="#XMLID_14_"
   id="linearGradient3307"
   gradientUnits="userSpaceOnUse"
   gradientTransform="matrix(0.7074656,-0.7074656,0.7071068,0.7071068,-18.749172,36.539651)"
   x1="67.880402"
   y1="6.4331002"
   x2="105.3924"
   y2="43.945599" /><linearGradient
   inkscape:collect="always"
   xlink:href="#XMLID_13_"
   id="linearGradient3310"
   gradientUnits="userSpaceOnUse"
   gradientTransform="matrix(-0.7074656,0.7074656,-0.7071068,-0.7071068,101.2385,185.78751)"
   x1="-0.47799999"
   y1="105.0586"
   x2="6.3157001"
   y2="111.8523" /><linearGradient
   inkscape:collect="always"
   xlink:href="#XMLID_12_"
   id="linearGradient3313"
   gradientUnits="userSpaceOnUse"
   gradientTransform="matrix(-0.7074656,0.7074656,-0.7071068,-0.7071068,107.38512,183.20132)"
   x1="1.3501"
   y1="103.2324"
   x2="8.1437998"
   y2="110.0261" />
	

		
			<linearGradient
   id="XMLID_10_"
   gradientUnits="userSpaceOnUse"
   x1="61.9692"
   y1="88.430702"
   x2="40.815899"
   y2="88.430702"
   gradientTransform="matrix(0.7074589,0.7071,-0.7074589,0.7071,68.76314,-21.373694)">
			<stop
   offset="0.0533"
   style="stop-color:#555555"
   id="stop10" />
			<stop
   offset="0.21113414"
   style="stop-color:#BBBBBB"
   id="stop12" />
			<stop
   offset="0.36265489"
   style="stop-color:#ffffff;stop-opacity:1;"
   id="stop14" />
			<stop
   offset="0.60322773"
   style="stop-color:#ffffff;stop-opacity:1;"
   id="stop16" />
			<stop
   offset="0.84976584"
   style="stop-color:#e9e9e9;stop-opacity:1;"
   id="stop18" />
			<stop
   offset="1"
   style="stop-color:#555555"
   id="stop20" />
		</linearGradient>
		
	<linearGradient
   inkscape:collect="always"
   xlink:href="#XMLID_10_"
   id="linearGradient10168"
   gradientUnits="userSpaceOnUse"
   gradientTransform="matrix(1.5628683,-3.9649986e-4,-3.9652886e-4,1.562754,-20.23462,-103.35726)"
   x1="61.9692"
   y1="88.430702"
   x2="40.815899"
   y2="88.430702" /><linearGradient
   inkscape:collect="always"
   xlink:href="#XMLID_10_"
   id="linearGradient10170"
   gradientUnits="userSpaceOnUse"
   gradientTransform="matrix(1.0663866,2.7056218e-4,-2.7056218e-4,-1.0663866,9.2387294,154.26114)"
   x1="61.9692"
   y1="88.430702"
   x2="40.815899"
   y2="88.430702" /><linearGradient
   inkscape:collect="always"
   xlink:href="#XMLID_17_"
   id="linearGradient10203"
   x1="56.03125"
   y1="121.5"
   x2="72.031251"
   y2="121.5"
   gradientUnits="userSpaceOnUse" /><linearGradient
   inkscape:collect="always"
   xlink:href="#XMLID_17_"
   id="linearGradient10205"
   x1="56.03125"
   y1="110.5"
   x2="72.031251"
   y2="110.5"
   gradientUnits="userSpaceOnUse" /><linearGradient
   inkscape:collect="always"
   xlink:href="#XMLID_10_"
   id="linearGradient10219"
   gradientUnits="userSpaceOnUse"
   gradientTransform="matrix(1.0663866,2.7056218e-4,-2.7056218e-4,-1.0663866,9.2387294,154.26114)"
   x1="61.9692"
   y1="88.430702"
   x2="40.815899"
   y2="88.430702" /><linearGradient
   inkscape:collect="always"
   xlink:href="#XMLID_17_"
   id="linearGradient10221"
   gradientUnits="userSpaceOnUse"
   x1="56.03125"
   y1="110.5"
   x2="72.031251"
   y2="110.5" /><linearGradient
   inkscape:collect="always"
   xlink:href="#XMLID_14_"
   id="linearGradient10223"
   gradientUnits="userSpaceOnUse"
   gradientTransform="matrix(0.7074656,-0.7074656,0.7071068,0.7071068,-18.749172,36.539651)"
   x1="67.880402"
   y1="6.4331002"
   x2="105.3924"
   y2="43.945599" /><linearGradient
   inkscape:collect="always"
   xlink:href="#XMLID_15_"
   id="linearGradient10225"
   gradientUnits="userSpaceOnUse"
   gradientTransform="matrix(0.7074656,-0.7074656,0.7071068,0.7071068,-24.895791,39.125846)"
   x1="76.919403"
   y1="43.1436"
   x2="100.6411"
   y2="19.4214" /><linearGradient
   inkscape:collect="always"
   xlink:href="#XMLID_16_"
   id="linearGradient10227"
   gradientUnits="userSpaceOnUse"
   gradientTransform="matrix(0.7074656,-0.7074656,0.7071068,0.7071068,-24.895791,39.125846)"
   x1="76.281174"
   y1="43.060352"
   x2="86.611"
   y2="31.303225" /><linearGradient
   inkscape:collect="always"
   xlink:href="#XMLID_17_"
   id="linearGradient10229"
   gradientUnits="userSpaceOnUse"
   gradientTransform="matrix(1.0002442,-2.5378062e-4,-2.5378062e-4,1.0002442,8.6347844,-24.632129)"
   x1="38.757801"
   y1="7.4277"
   x2="63.923302"
   y2="7.4277" /><linearGradient
   inkscape:collect="always"
   xlink:href="#XMLID_17_"
   id="linearGradient10231"
   gradientUnits="userSpaceOnUse"
   x1="56.03125"
   y1="121.5"
   x2="72.031251"
   y2="121.5" /><linearGradient
   inkscape:collect="always"
   xlink:href="#XMLID_18_"
   id="linearGradient10233"
   gradientUnits="userSpaceOnUse"
   gradientTransform="matrix(0.7074656,-0.7074656,0.7071068,0.7071068,-18.749172,36.539651)"
   x1="-6.165"
   y1="112.5049"
   x2="11.0181"
   y2="112.5049" /><linearGradient
   inkscape:collect="always"
   xlink:href="#XMLID_18_"
   id="linearGradient10236"
   gradientUnits="userSpaceOnUse"
   gradientTransform="matrix(1.0005075,0,0,1.0000001,6.1427973,2.5178157)"
   x1="-6.165"
   y1="112.5049"
   x2="11.0181"
   y2="112.5049" /><linearGradient
   inkscape:collect="always"
   xlink:href="#XMLID_17_"
   id="linearGradient10239"
   gradientUnits="userSpaceOnUse"
   x1="56.03125"
   y1="121.5"
   x2="72.031251"
   y2="121.5"
   gradientTransform="matrix(0.6632486,0.6632486,-0.6632486,0.6632486,45.21604,-10.083813)" /><linearGradient
   inkscape:collect="always"
   xlink:href="#XMLID_17_"
   id="linearGradient10242"
   gradientUnits="userSpaceOnUse"
   gradientTransform="matrix(0.7074589,0.7071,-0.7074589,0.7071,68.761161,-21.373784)"
   x1="38.757801"
   y1="7.4277"
   x2="63.923302"
   y2="7.4277" /><linearGradient
   inkscape:collect="always"
   xlink:href="#XMLID_16_"
   id="linearGradient10245"
   gradientUnits="userSpaceOnUse"
   gradientTransform="matrix(1.0005075,0,0,1.0000001,-3.223487e-2,2.1565487e-4)"
   x1="76.281174"
   y1="43.060352"
   x2="86.611"
   y2="31.303225" /><linearGradient
   inkscape:collect="always"
   xlink:href="#XMLID_15_"
   id="linearGradient10248"
   gradientUnits="userSpaceOnUse"
   gradientTransform="matrix(1.0005075,0,0,1.0000001,-3.223487e-2,2.1565487e-4)"
   x1="76.919403"
   y1="43.1436"
   x2="100.6411"
   y2="19.4214" /><linearGradient
   inkscape:collect="always"
   xlink:href="#XMLID_14_"
   id="linearGradient10251"
   gradientUnits="userSpaceOnUse"
   gradientTransform="matrix(1.0005075,0,0,1.0000001,6.1427973,2.5178157)"
   x1="67.880402"
   y1="6.4331002"
   x2="105.3924"
   y2="43.945599" /><linearGradient
   inkscape:collect="always"
   xlink:href="#XMLID_17_"
   id="linearGradient10254"
   gradientUnits="userSpaceOnUse"
   x1="56.03125"
   y1="110.5"
   x2="72.031251"
   y2="110.5"
   gradientTransform="matrix(0.6632486,0.6632486,-0.6632486,0.6632486,45.21604,-10.083813)" /><linearGradient
   inkscape:collect="always"
   xlink:href="#XMLID_10_"
   id="linearGradient10257"
   gradientUnits="userSpaceOnUse"
   gradientTransform="matrix(0.7071,0.7074589,0.7071,-0.7074589,-50.969871,98.357246)"
   x1="61.9692"
   y1="88.430702"
   x2="40.815899"
   y2="88.430702" /><linearGradient
   inkscape:collect="always"
   xlink:href="#XMLID_17_"
   id="linearGradient10260"
   gradientUnits="userSpaceOnUse"
   gradientTransform="matrix(0.7074589,0.7071,-0.7074589,0.7071,68.761161,-21.373784)"
   x1="51.339096"
   y1="30.159527"
   x2="51.326984"
   y2="-17.582758" /><linearGradient
   inkscape:collect="always"
   xlink:href="#linearGradient6141"
   id="linearGradient6147"
   x1="7.2493796"
   y1="120.2508"
   x2="57.625931"
   y2="69.874252"
   gradientUnits="userSpaceOnUse" /></defs><sodipodi:namedview
   inkscape:window-height="694"
   inkscape:window-width="923"
   inkscape:pageshadow="2"
   inkscape:pageopacity="0.0"
   guidetolerance="10.0"
   gridtolerance="10.0"
   objecttolerance="10.0"
   borderopacity="1.0"
   bordercolor="#666666"
   pagecolor="#ffffff"
   id="base"
   width="128px"
   height="128.00018px"
   inkscape:zoom="2"
   inkscape:cx="29.234459"
   inkscape:cy="46.128311"
   inkscape:window-x="0"
   inkscape:window-y="0"
   inkscape:current-layer="Livello_1" />
<metadata
   id="metadata3">
	<ns:sfw>
		<ns:slices />
		<ns:sliceSourceBounds
   y="3.97"
   x="4"
   height="120.061"
   width="119.999"
   bottomLeftOrigin="true" />
	</ns:sfw>
<rdf:RDF><cc:Work
     rdf:about=""><dc:format>image/svg+xml</dc:format><dc:type
       rdf:resource="http://purl.org/dc/dcmitype/StillImage" /></cc:Work></rdf:RDF></metadata>

<linearGradient
   id="XMLID_11_"
   gradientUnits="userSpaceOnUse"
   x1="41.188999"
   y1="80.101601"
   x2="27.6451"
   y2="66.557701"
   gradientTransform="translate(8.7075442,3.5814057)">
	<stop
   offset="0.40830001"
   style="stop-color:#f0f0f0;stop-opacity:1;"
   id="stop25" />
	<stop
   offset="0.50628459"
   style="stop-color:#C3C3C3"
   id="stop27" />
	<stop
   offset="0.56008232"
   style="stop-color:#8b8b8b;stop-opacity:1;"
   id="stop29" /><stop
   id="stop12212"
   style="stop-color:#393939;stop-opacity:1;"
   offset="0.67944592" />
	
</linearGradient>

<linearGradient
   id="XMLID_12_"
   gradientUnits="userSpaceOnUse"
   x1="1.3501"
   y1="103.2324"
   x2="8.1437998"
   y2="110.0261"
   gradientTransform="matrix(-1,0,0,-1,18.150444,221.94371)">
	<stop
   offset="0"
   style="stop-color:#EEEEEE"
   id="stop36" />
	<stop
   offset="1"
   style="stop-color:#BBBBBB"
   id="stop38" />
</linearGradient>

<linearGradient
   id="XMLID_13_"
   gradientUnits="userSpaceOnUse"
   x1="-0.47799999"
   y1="105.0586"
   x2="6.3157001"
   y2="111.8523"
   gradientTransform="matrix(-1,0,0,-1,11.978544,219.42611)">
	<stop
   offset="0"
   style="stop-color:#BBBBBB"
   id="stop43" />
	<stop
   offset="1"
   style="stop-color:#555555"
   id="stop45" />
</linearGradient>

<linearGradient
   id="XMLID_14_"
   gradientUnits="userSpaceOnUse"
   x1="67.880402"
   y1="6.4331002"
   x2="105.3924"
   y2="43.945599"
   gradientTransform="translate(6.1416442,2.5179057)">
	<stop
   offset="0.0947"
   style="stop-color:#666666;stop-opacity:1;"
   id="stop50" /><stop
   id="stop3330"
   style="stop-color:#b7b7b7;stop-opacity:1;"
   offset="0.40963161" />
	
	
	<stop
   offset="0.50530702"
   style="stop-color:#ffffff;stop-opacity:1;"
   id="stop56" /><stop
   id="stop3328"
   style="stop-color:#a3a3a3;stop-opacity:1;"
   offset="0.63043118" />
	
	
	<stop
   offset="0.93489999"
   style="stop-color:#646464;stop-opacity:1;"
   id="stop62" />
</linearGradient>

<linearGradient
   id="XMLID_15_"
   gradientUnits="userSpaceOnUse"
   x1="76.919403"
   y1="43.1436"
   x2="100.6411"
   y2="19.4214"
   gradientTransform="translate(-3.0255781e-2,3.056501e-4)">
	<stop
   offset="0"
   style="stop-color:#aeaeae;stop-opacity:1;"
   id="stop67" />
	<stop
   offset="0.0602"
   style="stop-color:#b2b2b2;stop-opacity:1;"
   id="stop69" />
	<stop
   offset="0.18103883"
   style="stop-color:#d9d9d9;stop-opacity:1;"
   id="stop71" />
	<stop
   offset="0.3195"
   style="stop-color:#ffffff;stop-opacity:1;"
   id="stop73" />
	<stop
   offset="0.43529999"
   style="stop-color:#f4f4f4;stop-opacity:1;"
   id="stop75" />
	<stop
   offset="0.6028"
   style="stop-color:#D4D4D4"
   id="stop77" />
	<stop
   offset="0.7633"
   style="stop-color:#BBBBBB"
   id="stop79" />
	<stop
   offset="0.80790001"
   style="stop-color:#b9bcc1;stop-opacity:1;"
   id="stop81" />
	<stop
   offset="0.92970002"
   style="stop-color:#bdc0c3;stop-opacity:1;"
   id="stop83" />
	<stop
   offset="1"
   style="stop-color:#b5b9bb;stop-opacity:1;"
   id="stop85" />
</linearGradient>


<linearGradient
   id="XMLID_17_"
   gradientUnits="userSpaceOnUse"
   x1="38.757801"
   y1="7.4277"
   x2="63.923302"
   y2="7.4277"
   gradientTransform="matrix(0.7071,0.7071,-0.7071,0.7071,68.728244,-21.373694)">
	<stop
   offset="0"
   style="stop-color:#3a3a3a;stop-opacity:1;"
   id="stop111" />
	<stop
   offset="0.60194176"
   style="stop-color:#ffffff;stop-opacity:1;"
   id="stop113" />
	<stop
   offset="1"
   style="stop-color:#888888"
   id="stop115" />
</linearGradient>

<linearGradient
   id="XMLID_18_"
   gradientUnits="userSpaceOnUse"
   x1="-6.165"
   y1="112.5049"
   x2="11.0181"
   y2="112.5049"
   gradientTransform="translate(6.1416442,2.5179057)">
	<stop
   offset="0"
   style="stop-color:#BBBBBB"
   id="stop120" />
	<stop
   offset="1"
   style="stop-color:#000000"
   id="stop122" />
</linearGradient>
<path
   style="fill:url(#linearGradient10257)"
   d="M 76.409451,31.804481 C 75.443086,30.924606 74.357677,30.748097 72.740857,32.364097 L 2.6023174,103.87059 C 2.5703077,103.90258 2.569153,103.93922 2.5401379,103.97422 C -0.95363288,107.73022 -0.88972357,113.60492 2.7681296,117.25992 C 6.4259848,120.91592 12.29792,120.98291 16.053828,117.48791 C 16.088848,117.45991 16.126446,117.45673 16.157461,117.42573 L 87.72613,47.307917 C 90.960771,44.076918 86.953486,42.972159 84.679332,40.696158 L 79.373343,35.390169 C 78.234266,34.251669 77.375816,32.684356 76.409451,31.804481 z M 16.053828,104.01567 C 18.984982,106.94689 18.986335,111.69819 16.053828,114.62765 C 13.124457,117.55553 8.3745634,117.55731 5.4418505,114.62765 C 2.5091357,111.69799 2.5109065,106.94669 5.4418505,104.01567 C 8.3727812,101.08623 13.121121,101.086 16.053828,104.01567 z "
   id="path10166" /><path
   style="fill:url(#linearGradient10254)"
   d="M 17.380325,102.68918 C 14.447618,99.759506 9.6992784,99.759734 6.7683477,102.68918 C 6.5428061,102.91472 6.3373933,103.14849 6.1465522,103.39388 C 9.0905761,101.11028 13.348454,101.3131 16.053828,104.01567 C 18.759425,106.72134 18.965866,110.98021 16.675624,113.92295 C 16.920967,113.73233 17.15491,113.52645 17.380325,113.30115 C 20.312833,110.3717 20.31148,105.6204 17.380325,102.68918 z "
   id="path10186" /><path
   d="M 118.731,16.620217 L 103.19512,32.150217 C 99.80841,35.534217 93.549236,33.235217 90.160517,29.850217 C 86.776801,26.465216 84.475632,20.211217 87.86035,16.825217 L 103.40023,1.2962158 C 92.523716,-2.8617843 79.067889,3.9452161 74.82974,8.1812158 C 63.636062,19.367217 62.837657,34.722217 74.065352,45.942217 C 85.286043,57.160217 100.64883,56.490217 111.84151,45.303218 C 116.07966,41.066217 122.89111,27.489217 118.731,16.620217 z "
   id="path64"
   style="fill:url(#linearGradient10251)" /><path
   d="M 77.659175,11.009216 C 72.74068,15.925216 70.031306,21.867217 70.031306,27.741217 L 70.030305,27.742217 C 70.031306,33.311217 72.404509,38.626217 76.894787,43.113217 C 81.422083,47.639217 86.7778,50.031218 92.381644,50.031217 L 92.381644,50.031217 C 98.22961,50.031218 104.1346,47.348218 109.01107,42.474217 C 111.8225,39.664217 115.5714,32.245217 115.93458,25.071217 C 111.35626,29.647217 106.02356,34.977217 106.02356,34.977217 C 100.96199,40.037217 92.379643,37.724217 87.331082,32.680217 C 84.259524,29.607217 82.198478,25.228217 82.198477,21.129217 C 82.199478,18.494217 83.050911,15.977216 85.028913,13.997217 C 85.029914,13.996217 90.524701,8.5042158 94.982962,4.049216 C 87.471153,4.3972165 80.050388,8.6212158 77.659175,11.009216 z "
   id="path87"
   style="fill:url(#linearGradient10248);fill-opacity:1.0" /><path
   d="M 85.387095,16.818216 C 81.792271,20.411216 84.661727,27.477217 88.592721,31.406217 C 92.527718,35.337217 99.594302,38.205217 103.19012,34.613217 C 103.19012,34.613217 118.96412,17.234216 118.73,16.620217 L 103.19412,32.150217 C 99.80741,35.534218 93.548235,33.235217 90.159515,29.850217 C 86.775799,26.465216 84.474633,20.211217 87.85935,16.825217 L 103.39923,1.2962158 L 85.387095,16.818216 z "
   id="path117"
   style="fill:url(#linearGradient10260)"
   sodipodi:nodetypes="csccccccc" /><path
   style="fill:url(#linearGradient10239)"
   d="M 4.820055,104.72037 C 4.5726725,104.91226 4.3425471,105.11509 4.1153533,105.34217 C 1.1844093,108.27319 1.1826385,113.02448 4.1153533,115.95415 C 7.0480662,118.88381 11.79796,118.88203 14.727331,115.95415 C 14.952993,115.72872 15.158195,115.49477 15.349126,115.24945 C 12.406133,117.53606 8.148893,117.33187 5.4418505,114.62765 C 2.734806,111.92343 2.5308464,107.66392 4.820055,104.72037 z "
   id="path10190" /><path
   d="M 2.7691837,116.26123 C 1.0242958,114.51723 0.10383016,112.26923 -0.011225313,109.98622 C -0.15229878,112.60123 0.76716563,115.26323 2.7691816,117.26123 C 6.4270358,120.91723 12.302016,120.99023 16.057925,117.49522 C 16.092943,117.46722 16.134962,117.44623 16.165977,117.41523 L 17.166488,116.41622 C 13.410582,119.90922 6.427038,119.91723 2.7691837,116.26123 z "
   id="path124"
   style="fill:url(#linearGradient10236)" />
<path
   style="fill:url(#linearGradient6147);fill-opacity:1.0;fill-rule:nonzero;opacity:0.5"
   d="M 43.21875 69.5625 L 2.8125 110.75 C 2.7783735 110.78411 2.7809338 110.80644 2.75 110.84375 C -0.97480066 114.84812 -0.93098327 121.10331 2.96875 125 C 6.8684854 128.89776 13.151978 128.97611 17.15625 125.25 C 17.193586 125.22015 17.216934 125.22055 17.25 125.1875 L 57.3125 85.9375 C 53.66929 79.550692 48.861858 73.979783 43.21875 69.5625 z M 11.5 108.5625 C 13.547005 108.56247 15.592932 109.34455 17.15625 110.90625 C 20.281231 114.0313 20.282673 119.09558 17.15625 122.21875 C 14.033171 125.34024 8.9703922 125.34214 5.84375 122.21875 C 2.7171056 119.09537 2.7189937 114.03109 5.84375 110.90625 C 7.406121 109.34467 9.4529953 108.56253 11.5 108.5625 z "
   id="path2236"
   transform="matrix(0.9379752,0,0,0.9379752,-3.0914126e-2,0)" /><path
   d="M 15.537923,96.062539 C 14.713663,96.978699 14.388162,98.22441 14.530816,99.52305 C 14.682682,100.89492 15.361817,102.33182 16.533505,103.50003 C 18.808146,105.77775 22.084895,106.19602 23.991153,104.45332 C 24.002148,104.47231 67.492075,61.01118 77.726913,50.782827 C 77.294045,50.416137 69.737251,42.875414 69.288707,42.347047 C 66.356033,45.277862 15.537923,96.062539 15.537923,96.062539 z "
   id="path33"
   style="fill:url(#linearGradient9291);opacity:0.5" /><path
   style="fill:url(#linearGradient3301)"
   id="path108"
   d="M 94.304331,48.937972 C 88.699488,48.937972 83.344772,46.545972 78.817475,42.019972 C 74.327198,37.532972 71.953994,32.217972 71.952993,26.648972 L 71.953994,26.647972 C 71.953994,20.773972 74.663368,14.831973 79.581863,9.9159745 C 80.407282,9.0909731 81.84201,8.0489732 83.661933,7.0219732 C 80.923544,8.3389732 78.759446,9.8199731 77.661889,10.915974 C 72.743394,15.831973 70.034021,21.773972 70.034021,27.647972 L 70.033021,27.648972 C 70.034021,33.217972 72.407224,38.532972 76.897502,43.019972 C 81.424798,47.545972 86.780515,49.937972 92.384357,49.937972 C 96.062223,49.937972 99.7631,48.874972 103.21585,46.874972 C 100.32739,48.224972 97.308855,48.937972 94.304331,48.937972 z " /><g
   transform="matrix(0.63743,0,0,0.673163,136.2793,64.78107)"
   id="g2113"><path
     d="M -53.193207,52.023628 L -69.453517,60.196628 L -66.951534,65.874628 L -49.686517,57.247628 L -53.193207,52.023628 z "
     style="fill:white;fill-rule:evenodd"
     id="path2086" /><path
     d="M -145.37418,-28.433372 C -151.81242,-28.433372 -157.05182,-23.549372 -157.05182,-17.547372 L -157.05182,50.881628 C -157.05182,56.885628 -151.81242,61.769628 -145.37418,61.769628 L -46.873717,61.769628 C -40.432377,61.769628 -35.196077,56.885628 -35.196077,50.881628 L -35.196077,-17.547372 C -35.196077,-23.549372 -40.432377,-28.433372 -46.873717,-28.433372 L -145.37418,-28.433372 M -154.27516,50.881628 L -154.27516,-17.547372 C -154.27516,-22.123372 -150.28314,-25.844372 -145.37418,-25.844372 L -46.873717,-25.844372 C -41.963717,-25.844372 -37.972727,-22.122372 -37.972727,-17.547372 L -37.972727,50.881628 C -37.972727,55.457628 -41.963717,59.179628 -46.873717,59.179628 L -145.37418,59.179628 C -150.28314,59.179628 -154.27516,55.458628 -154.27516,50.881628 z "
     style="fill:url(#linearGradient2089)"
     id="path2159" /><path
     d="M -36.582857,50.881628 C -36.582857,56.180628 -41.189267,60.473628 -46.873717,60.473628 L -145.37418,60.473628 C -151.05553,60.473628 -155.66194,56.180628 -155.66194,50.881628 L -155.66194,-17.547372 C -155.66194,-22.845372 -151.05553,-27.139372 -145.37418,-27.139372 L -46.873717,-27.139372 C -41.189267,-27.139372 -36.582857,-22.845372 -36.582857,-17.547372 L -36.582857,50.881628 z "
     style="fill:url(#linearGradient2086)"
     id="path2168" /><path
     d="M -37.688767,50.198628 C -37.688767,55.352628 -42.170237,59.527628 -47.694637,59.527628 L -144.55017,59.527628 C -150.07662,59.527628 -154.5581,55.352628 -154.5581,50.198628 L -154.5581,-16.865372 C -154.5581,-22.017372 -150.07662,-26.193372 -144.55017,-26.193372 L -47.695667,-26.193372 C -42.170237,-26.193372 -37.689797,-22.017372 -37.689797,-16.865372 L -37.689797,50.198628 L -37.688767,50.198628 z "
     style="fill:url(#linearGradient2083)"
     id="path2177" /><path
     a:adobe-blending-mode="screen"
     d="M -156.19166,30.349628 C -156.19166,33.977628 -155.70015,37.497628 -154.78527,40.854628 C -154.71402,40.866628 -154.63348,40.878628 -154.5581,40.891628 L -154.5581,0.30762801 C -155.61341,3.893628 -156.19166,26.442628 -156.19166,30.349628 z "
     style="fill:url(#linearGradient2080)"
     id="path2186" /><path
     a:adobe-blending-mode="screen"
     d="M -48.428807,-25.297372 L -143.15513,-25.297372 C -148.48126,-25.297372 -152.79649,-21.274372 -152.79649,-16.309372 L -152.79649,40.021628 C -145.78928,41.212628 -120.08175,45.426628 -101.55696,22.148628 C -79.462479,-5.615372 -46.777687,-2.363372 -38.786417,-4.299372 L -38.786417,-16.309372 C -38.787447,-21.274372 -43.104737,-25.297372 -48.428807,-25.297372 z "
     style="fill:url(#linearGradient2077)"
     id="path2195" /><path
     d="M -47.248547,-16.625372 L -145.13668,-16.625372 L -145.13668,49.787628 L -143.59398,49.787628 L -143.59398,-15.149372 L -47.248547,-15.149372 L -47.248547,-16.625372 z "
     style="fill:url(#linearGradient2074)"
     id="path2225" /><path
     d="M -48.646687,-16.630372 L -48.646687,48.448628 L -145.14391,48.448628 L -145.14391,49.925628 L -48.646687,49.925628 L -48.646687,49.966628 L -47.103987,49.966628 L -47.103987,-16.630372 L -48.646687,-16.630372 z "
     style="fill:white"
     id="path2227" /><rect
     style="fill:#aa0040;fill-opacity:1;fill-rule:nonzero;stroke:none;stroke-width:6.25;stroke-linecap:butt;stroke-linejoin:miter;stroke-miterlimit:4;stroke-dashoffset:2.75;stroke-opacity:1"
     id="rect1325"
     width="47.473644"
     height="31.7875"
     x="-143.60896"
     y="-15.160374" /><rect
     style="fill:#015c00;fill-opacity:1;fill-rule:nonzero;stroke:none;stroke-width:6.25;stroke-linecap:butt;stroke-linejoin:miter;stroke-miterlimit:4;stroke-dashoffset:2.75;stroke-opacity:1"
     id="rect1947"
     width="47.473644"
     height="31.7875"
     x="-96.138969"
     y="-15.145333" /><rect
     style="fill:#3447be;fill-opacity:1;fill-rule:nonzero;stroke:none;stroke-width:6.25;stroke-linecap:butt;stroke-linejoin:miter;stroke-miterlimit:4;stroke-dashoffset:2.75;stroke-opacity:1"
     id="rect1948"
     width="47.473644"
     height="31.7875"
     x="-143.60042"
     y="16.616859" /><rect
     style="fill:#caa52c;fill-opacity:1;fill-rule:nonzero;stroke:none;stroke-width:6.25;stroke-linecap:butt;stroke-linejoin:miter;stroke-miterlimit:4;stroke-dashoffset:2.75;stroke-opacity:1"
     id="rect1950"
     width="47.473644"
     height="31.7875"
     x="-96.119705"
     y="16.644039" /><path
     a:adobe-blending-mode="screen"
     d="M -142.82989,-1.586802 C -142.82989,13.148848 -120.48083,25.09928 -92.914694,25.09928 C -65.34245,25.09928 -49.329167,13.148848 -49.329167,-1.586802 C -49.329167,-6.509191 -51.836007,-11.116422 -56.189673,-15.079545 L -135.97547,-15.079545 C -140.32813,-11.116422 -142.82989,-6.509191 -142.82989,-1.586802 z "
     style="fill:url(#linearGradient2066);fill-opacity:1"
     id="path3809" /><rect
     style="opacity:0.79425833;fill:url(#radialGradient2063);fill-opacity:1;fill-rule:nonzero;stroke:none;stroke-width:6.25;stroke-linecap:butt;stroke-linejoin:miter;stroke-miterlimit:4;stroke-dashoffset:2.75;stroke-opacity:1"
     id="rect2848"
     width="94.789589"
     height="33.294346"
     x="-142.23763"
     y="15.87256" /></g></svg>