<?xml version="1.0" encoding="UTF-8" standalone="no"?>
<!-- Created with Inkscape (http://www.inkscape.org/) -->
<svg
   xmlns:dc="http://purl.org/dc/elements/1.1/"
   xmlns:cc="http://web.resource.org/cc/"
   xmlns:rdf="http://www.w3.org/1999/02/22-rdf-syntax-ns#"
   xmlns:svg="http://www.w3.org/2000/svg"
   xmlns="http://www.w3.org/2000/svg"
   xmlns:xlink="http://www.w3.org/1999/xlink"
   xmlns:sodipodi="http://sodipodi.sourceforge.net/DTD/sodipodi-0.dtd"
   xmlns:inkscape="http://www.inkscape.org/namespaces/inkscape"
   width="128"
   height="128"
   id="svg2196"
   sodipodi:version="0.32"
   inkscape:version="0.44.1"
   version="1.0"
   sodipodi:docbase="/home/steuwer/svn/dev/trunk/ucs/management/univention-admin-modules/modules/univention/admin/handlers/settings"
   sodipodi:docname="cn.svgz"
   inkscape:export-filename="/home/steuwer/svn/dev/trunk/ucs/management/univention-admin-modules/modules/univention/admin/handlers/settings/cn.png"
   inkscape:export-xdpi="22.5"
   inkscape:export-ydpi="22.5">
  <defs
     id="defs2198">
    <radialGradient
       id="path2489_1_"
       cx="305.0273"
       cy="-349"
       r="34.1784"
       gradientTransform="matrix(1.1658,0,0,-1,-353.77589,-376.98677)"
       gradientUnits="userSpaceOnUse">
      <stop
         offset="0"
         style="stop-color:#4b73ad;stop-opacity:1;"
         id="stop44" />
      <stop
         offset="1"
         style="stop-color:#80B3FF"
         id="stop46" />
    </radialGradient>
    <radialGradient
       inkscape:collect="always"
       xlink:href="#path2489_1_"
       id="radialGradient2421"
       gradientUnits="userSpaceOnUse"
       gradientTransform="matrix(1.0909626,0,0,-1,-273.56664,-316.5)"
       cx="312.72281"
       cy="-349"
       r="34.1784"
       fx="312.72281"
       fy="-349" />
    <radialGradient
       id="path4248_1_"
       cx="354.8516"
       cy="-426"
       r="34.1791"
       gradientTransform="matrix(1,0,0,-1,-359.20739,-378.98677)"
       gradientUnits="userSpaceOnUse">
      <stop
         offset="0"
         style="stop-color:#538BCF"
         id="stop38" />
      <stop
         offset="1"
         style="stop-color:#80B3FF"
         id="stop40" />
    </radialGradient>
    <radialGradient
       inkscape:collect="always"
       xlink:href="#path4248_1_"
       id="radialGradient2424"
       gradientUnits="userSpaceOnUse"
       gradientTransform="matrix(1,0,0,-1,-290.46665,-322.5)"
       cx="354.8516"
       cy="-426"
       r="34.1791" />
    <radialGradient
       id="path2471_1_"
       cx="354.8516"
       cy="-426"
       r="34.1791"
       gradientTransform="matrix(1,0,0,-1,-359.20739,-376.98677)"
       gradientUnits="userSpaceOnUse">
      <stop
         offset="0"
         style="stop-color:#538BCF"
         id="stop32" />
      <stop
         offset="1"
         style="stop-color:#80B3FF"
         id="stop34" />
    </radialGradient>
    <radialGradient
       inkscape:collect="always"
       xlink:href="#path2471_1_"
       id="radialGradient2427"
       gradientUnits="userSpaceOnUse"
       gradientTransform="matrix(1,0,0,-1,-290.46665,-320.5)"
       cx="354.8516"
       cy="-426"
       r="34.1791" />
    <linearGradient
       id="front_1_"
       gradientUnits="userSpaceOnUse"
       x1="354.6855"
       y1="-601.2759"
       x2="354.6855"
       y2="-503.146"
       gradientTransform="matrix(1,0,0,-0.6522,-359.42609,-340.63827)">
      <stop
         offset="0"
         style="stop-color:#B3D9FF"
         id="stop20" />
      <stop
         offset="0.4863"
         style="stop-color:#71A8F5"
         id="stop22" />
      <stop
         offset="0.7988"
         style="stop-color:#2C72C7"
         id="stop24" />
      <stop
         offset="0.98"
         style="stop-color:#2C72C7"
         id="stop26" />
      <stop
         offset="1"
         style="stop-color:#DEEBFF"
         id="stop28" />
    </linearGradient>
    <linearGradient
       inkscape:collect="always"
       xlink:href="#front_1_"
       id="linearGradient2430"
       gradientUnits="userSpaceOnUse"
       gradientTransform="matrix(1,0,0,-0.6522,-290.68535,-284.1515)"
       x1="354.6855"
       y1="-601.2759"
       x2="354.6855"
       y2="-503.146" />
    <linearGradient
       id="XMLID_1_"
       gradientUnits="userSpaceOnUse"
       x1="63.4995"
       y1="-79.2393"
       x2="63.4995"
       y2="9.3269"
       gradientTransform="translate(-68.240592,44.013228)">
      <stop
         offset="0"
         style="stop-color:#73A3E7"
         id="stop6" />
      <stop
         offset="0.1394"
         style="stop-color:#83B1F5"
         id="stop8" />
      <stop
         offset="0.3689"
         style="stop-color:#BCD6FC"
         id="stop10" />
      <stop
         offset="0.5007"
         style="stop-color:#659FEE"
         id="stop12" />
      <stop
         offset="1"
         style="stop-color:#0066FF"
         id="stop14" />
    </linearGradient>
    <linearGradient
       inkscape:collect="always"
       xlink:href="#XMLID_1_"
       id="linearGradient2433"
       gradientUnits="userSpaceOnUse"
       gradientTransform="translate(0.500149,100.5)"
       x1="63.4995"
       y1="-79.2393"
       x2="63.4995"
       y2="9.3269" />
  </defs>
  <sodipodi:namedview
     id="base"
     pagecolor="#ffffff"
     bordercolor="#666666"
     borderopacity="1.0"
     inkscape:pageopacity="0.0"
     inkscape:pageshadow="2"
     inkscape:zoom="1"
     inkscape:cx="64"
     inkscape:cy="63.5"
     inkscape:document-units="px"
     inkscape:current-layer="layer1"
     height="128px"
     width="128px"
     inkscape:window-width="923"
     inkscape:window-height="590"
     inkscape:window-x="395"
     inkscape:window-y="42" />
  <metadata
     id="metadata2201">
    <rdf:RDF>
      <cc:Work
         rdf:about="">
        <dc:format>image/svg+xml</dc:format>
        <dc:type
           rdf:resource="http://purl.org/dc/dcmitype/StillImage" />
      </cc:Work>
    </rdf:RDF>
  </metadata>
  <g
     inkscape:label="Livello 1"
     inkscape:groupmode="layer"
     id="layer1">
    <g
       id="g2866"
       transform="translate(1.147243e-4,0)">
      <path
         style="opacity:0.5;filter:url(#filter3021)"
         d="M 120,107.084 C 120,108.441 94.928,112 64.000001,112 C 33.072,112 8,108.441 8,107.084 C 8,105.727 33.072,105.855 64.000001,105.855 C 94.927,105.855 120,105.727 120,107.084 z"
         enable-background="new    "
         id="shadow" />
      <path
         style="fill:url(#linearGradient2433)"
         id="path16"
         d="M 108.00015,26 C 108.00015,24.9 107.10015,24 106.00015,24 L 22.000149,24 C 20.900149,24 20.000149,24.9 20.000149,26 C 20.000149,26 20.125149,108 12.000149,108 C 15.396149,108 112.60415,108 116.00015,108 C 107.87515,108 108.00015,26 108.00015,26 z" />
      <path
         style="opacity:0.8;fill:url(#linearGradient2430)"
         d="M 116.00015,108 L 12.000149,108 C 12.000149,80.25 4.046149,45.953 4.046149,45.953 C 3.807149,44.879 4.518149,44 5.625149,44 L 122.37415,44 C 123.48215,44 124.19215,44.879 123.95415,45.953 C 123.95415,45.953 116.00015,80.25 116.00015,108 z"
         enable-background="new    "
         id="front" />
      <path
         style="opacity:0.2;fill:url(#radialGradient2427)"
         d="M 16.552149,105 C 16.276149,105 16.052149,105.225 16.052149,105.5 C 16.052149,105.775 16.276149,106 16.552149,106 L 112.21915,106 C 112.49515,106 112.71915,105.775 112.71915,105.5 C 112.71915,105.225 112.49515,105 112.21915,105 L 16.552149,105 z"
         enable-background="new    "
         id="path2471" />
      <path
         style="opacity:0.2;fill:url(#radialGradient2424)"
         d="M 16.552149,103 C 16.276149,103 16.052149,103.225 16.052149,103.5 C 16.052149,103.775 16.276149,104 16.552149,104 L 112.21915,104 C 112.49515,104 112.71915,103.775 112.71915,103.5 C 112.71915,103.225 112.49515,103 112.21915,103 L 16.552149,103 z"
         enable-background="new    "
         id="path4248" />
      <path
         style="opacity:0.2;fill:url(#radialGradient2421)"
         d="M 32.331428,32 C 32.147429,32 32,32.224 32,32.5 C 32,32.776 32.147429,33 32.331428,33 L 95.66856,33 C 95.85144,33 96,32.776 96,32.5 C 96,32.224 95.85029,32 95.66856,32 L 32.331428,32 z"
         enable-background="new    "
         id="path2489" />
      <path
         style="opacity:0.4;fill:#ffffff"
         d="M 22.010149,24 C 20.910149,24 20.052149,24.901 20.104149,26 C 20.104149,26 20.174149,28.543 20.292149,32 L 40.010149,32 L 48.010149,24 L 22.010149,24 z"
         enable-background="new    "
         id="back" />
    </g>
    <g
       id="g3762"
       transform="matrix(1.410301,0,0,1.355593,64.7208,63.74115)">
      <path
         style="fill:#c03;fill-opacity:1;fill-rule:evenodd;stroke:none"
         d="M 30.4648,31.1875 C 30.4648,34.5546 27.7382,37.2812 24.3711,37.2812 L 6.09375,37.2812 C 2.73046,37.2812 0,34.5546 0,31.1875 L 0,12.9101 C 0,9.5468 2.73046,6.8164 6.09375,6.8164 L 24.3711,6.8164 C 27.7382,6.8164 30.4648,9.5468 30.4648,12.9101 L 30.4648,31.1875 z "
         id="path55" />
      <path
         style="fill:#c03;fill-opacity:1;fill-rule:evenodd;stroke:none"
         d="M 36.5585,25.0976 C 36.5585,28.4609 33.832,31.1875 30.4648,31.1875 L 12.1875,31.1875 C 8.82031,31.1875 6.09375,28.4609 6.09375,25.0976 L 6.09375,6.8164 C 6.09375,3.4531 8.82031,0.722599 12.1875,0.722599 L 30.4648,0.722599 C 33.832,0.722599 36.5585,3.4531 36.5585,6.8164 L 36.5585,25.0976 z "
         id="path57" />
      <path
         style="fill:white;fill-rule:evenodd;stroke:none"
         d="M 30.4414,12.3789 L 30.4414,12.3671 L 30.4414,12.3671 C 30.4179,12.1289 30.3828,11.9101 30.332,11.7031 C 29.5976,7.9101 25.6875,6.8984 24.9921,6.8359 L 24.9921,24.6992 C 24.1992,26.5703 21.0664,27.8203 17.7304,27.6093 C 13.6601,27.3515 11.6914,25.871 11.5742,24.5195 L 11.5742,6.8164 L 6.09375,6.8164 L 6.09375,25.0937 C 6.18359,28.5312 8.49609,31 12.1835,31.1875 L 21.1796,31.1875 C 22.5351,30.9257 24.1015,29.7617 24.9843,28.5351 L 24.9843,31.1875 L 25.7773,31.1875 L 30.4414,31.1875 L 30.4648,31.1875 L 30.4648,12.9101 C 30.4648,12.7226 30.4531,12.5468 30.4414,12.3789 z "
         id="path59" />
    </g>
  </g>
</svg>
