<?xml version="1.0" encoding="UTF-8" standalone="no"?>
<!-- Created with Inkscape (http://www.inkscape.org/) by Marsupilami -->

<svg
   xmlns:dc="http://purl.org/dc/elements/1.1/"
   xmlns:cc="http://creativecommons.org/ns#"
   xmlns:rdf="http://www.w3.org/1999/02/22-rdf-syntax-ns#"
   xmlns:svg="http://www.w3.org/2000/svg"
   xmlns="http://www.w3.org/2000/svg"
   xmlns:sodipodi="http://sodipodi.sourceforge.net/DTD/sodipodi-0.dtd"
   xmlns:inkscape="http://www.inkscape.org/namespaces/inkscape"
   version="1.0"
   width="5000"
   height="5000"
   id="svg2346"
   inkscape:version="0.48.3.1 r9886"
   sodipodi:docname="xen.svg"
   inkscape:export-filename="/home/aklaeser/Dokumente/grafiken/2013-08 App-Center System Icons/xen.png"
   inkscape:export-xdpi="0.89999998"
   inkscape:export-ydpi="0.89999998">
  <metadata
     id="metadata9">
    <rdf:RDF>
      <cc:Work
         rdf:about="">
        <dc:format>image/svg+xml</dc:format>
        <dc:type
           rdf:resource="http://purl.org/dc/dcmitype/StillImage" />
        <dc:title></dc:title>
      </cc:Work>
    </rdf:RDF>
  </metadata>
  <sodipodi:namedview
     pagecolor="#ffffff"
     bordercolor="#666666"
     borderopacity="1"
     objecttolerance="10"
     gridtolerance="10"
     guidetolerance="10"
     inkscape:pageopacity="0"
     inkscape:pageshadow="2"
     inkscape:window-width="1280"
     inkscape:window-height="752"
     id="namedview7"
     showgrid="false"
     inkscape:zoom="0.1816"
     inkscape:cx="2500"
     inkscape:cy="2378.5767"
     inkscape:window-x="-2"
     inkscape:window-y="25"
     inkscape:window-maximized="1"
     inkscape:current-layer="svg2346" />
  <defs
     id="defs2349" />
  <g
     transform="translate(36.89173,1399.0391)"
     style="display:inline"
     id="layer6">
    <path
       d="m 1240.3289,1582.2965 a 462.66238,443.32747 0 1 1 -925.32475,0 462.66238,443.32747 0 1 1 925.32475,0 z"
       transform="matrix(2.2478596,0,0,2.3482395,-513.08509,-2614.6502)"
       style="fill:#e1e1e1;fill-opacity:1;stroke:#a2a2a2;stroke-width:50.48963165;stroke-linecap:butt;stroke-linejoin:round;stroke-miterlimit:4;stroke-opacity:1;stroke-dasharray:none"
       id="path7533"
       inkscape:connector-curvature="0" />
    <path
       d="m 421,497 c 0.83226,-0.31222 507.04701,623.884 507,624 1.67885,1.1893 -926.7082254,725.0821 -928,725 -0.85514325,0.4228 726.31021,0.4744 726.71875,0 0.55713,0.3645 482.06505,-381.4406 482.78125,-381 0.7282,-0.1867 256.6471,380.8792 256.5,381 0.2289,0.6152 642.7711,1.2305 643,0 0.6054,-1.2219 -512.2879,-656.4668 -512,-656.5 2.7291,-0.9822 901.1268,-692.66359 900.5,-692.5 -0.3472,0.0906 -732.6934,0.10863 -732.5,0 0.2992,-0.16806 -445.9152,354.59588 -446,352.5 0.6981,0.6873 -264.5,-352.50001 -264.5,-352.5 -0.3294,-0.003 -633.38706,-0.0228 -633.5,0 z m 2235.1875,288.65625 c -59.424,0.0112 -112.6557,2.39119 -166.1875,7.84375 -41.7873,3.87935 -81.6814,9.65195 -119.5,17.5 -38.3925,13.22255 -82.2601,16.99341 -127,36 -152.1042,48.92519 -288.7358,173.1744 -326.5,329.5 -10.1714,42.1315 -20.8274,95.2464 -12.5,147.5 9.2929,98.7144 98.6469,182.0467 194.5,215 33.2686,12.8745 88.387,27.5842 124.5,33 50.3613,7.5527 102.9951,13.2688 159.5,17.5 52.5977,3.9386 116.716,6.0928 173,2.5 53.168,-3.3939 115.0406,-7.7215 167,-17.5 40.8591,-7.6895 88.6816,-15.4756 129.5,-27.5 101.2165,-29.8167 240.0334,-84.4024 275.5,-203 -157,0 -314,0 -471,0 -20.4479,49.6209 -80.814,78.8145 -127,83.5 -57.8476,5.8685 -142.5112,4.0767 -159.5,-68.5 -9.1784,-39.2105 -6.5523,-63.7528 1.25,-106.0312 0.2372,0.2333 792.4201,-0.012 792.25,0.031 17.0291,-57.6734 23.165,-108.4973 22.5,-163 -0.089,-73.5721 -46.6942,-159.16911 -116,-208 -66.6202,-42.71762 -144.4053,-64.90763 -210.5,-78.5 -50.7854,-8.919 -105.126,-14.29464 -161.625,-17.5 -14.4541,-0.24403 -28.4743,-0.34633 -42.1875,-0.34375 z m 1543.5937,0.125 c -45.2554,0.23743 -91.6216,4.34326 -129.2187,10.5625 -84.6497,14.00259 -194.8169,67.177 -276.0313,148.84375 -0.3598,-1.47706 23.6795,-134.71682 23.6876,-134.625 0.1212,1.15072 -474.8563,0.11053 -474.7188,0 0.9027,-0.81153 -163.1021,752.4074 -164.4375,751.5 0.019,0.034 482.1248,0.033 481.9375,0 18.8486,-88.3302 39.8603,-176.2606 61,-264.0625 23.898,-83.2312 23.0741,-184.0721 101,-245.5 42.3044,-33.3479 98.2445,-34.4076 142,-33.5 64.923,1.3466 87.6045,71.8502 76,119.5 -33.9823,139.5362 -96.2064,423.8356 -96,423.5625 0.3274,0 481.2169,-0.055 481.1875,0 0.235,0.446 79.086,-318.9607 111.8125,-479.5625 14.4653,-70.9906 4.7412,-159.27966 -56.4375,-215.15625 -61.0256,-55.73645 -138.0659,-70.74014 -213,-78.5 -21.6745,-2.24451 -45.076,-3.18687 -68.7813,-3.0625 z M 4602.0938,790 l 0,19.5 60.8124,0 0,151.8125 23.2813,0 0,-151.8125 60.8125,0 0,-19.5 -144.9062,0 z m 167.4062,0 0,171.3125 22.4688,0 0,-150.4375 44.1874,117.5 23.2813,0 44.1875,-117.5 0,150.4375 22.5938,0 0,-171.3125 -34.5313,0 L 4847.75,906.5625 4804.0312,790 4769.5,790 z M 2602.0312,946.4375 c 35.7516,-0.0718 72.2471,9.10961 100.9688,30.0625 34.3282,39.7401 29.9574,82.6557 20,126.5 -0.238,-0.01 -313.9888,3.1743 -314,3 12.3634,-58.8314 49.3553,-115.60152 106,-139.5 24.5181,-12.73099 55.4858,-19.99916 87.0312,-20.0625 z"
       transform="translate(-7.5364378e-4,-0.00905637)"
       style="font-size:100px;font-weight:normal;display:inline"
       id="flowRoot2311"
       inkscape:connector-curvature="0" />
  </g>
</svg>
