<?xml version="1.0" encoding="UTF-8" standalone="no"?>
<!-- Created with Inkscape (http://www.inkscape.org/) -->

<svg
   xmlns:dc="http://purl.org/dc/elements/1.1/"
   xmlns:cc="http://creativecommons.org/ns#"
   xmlns:rdf="http://www.w3.org/1999/02/22-rdf-syntax-ns#"
   xmlns:svg="http://www.w3.org/2000/svg"
   xmlns="http://www.w3.org/2000/svg"
   xmlns:sodipodi="http://sodipodi.sourceforge.net/DTD/sodipodi-0.dtd"
   xmlns:inkscape="http://www.inkscape.org/namespaces/inkscape"
   width="158.42"
   height="158.42"
   id="svg4620"
   version="1.1"
   inkscape:version="0.48.3.1 r9886"
   sodipodi:docname="xrdp.svg"
   inkscape:export-filename="/home/aklaeser/Dokumente/grafiken/2013-08 App-Center System Icons/xrdp.png"
   inkscape:export-xdpi="28.41"
   inkscape:export-ydpi="28.41">
  <defs
     id="defs4622">
    <inkscape:path-effect
       effect="spiro"
       id="path-effect5641"
       is_visible="true" />
    <inkscape:path-effect
       effect="spiro"
       id="path-effect5631"
       is_visible="true" />
    <inkscape:path-effect
       effect="spiro"
       id="path-effect5627"
       is_visible="true" />
    <inkscape:path-effect
       effect="spiro"
       id="path-effect5623"
       is_visible="true" />
    <inkscape:path-effect
       effect="spiro"
       id="path-effect5600"
       is_visible="true" />
    <inkscape:path-effect
       effect="spiro"
       id="path-effect5596"
       is_visible="true" />
    <inkscape:path-effect
       is_visible="true"
       id="path-effect5581"
       effect="spiro" />
    <inkscape:path-effect
       is_visible="true"
       id="path-effect4808"
       effect="spiro" />
    <inkscape:path-effect
       effect="spiro"
       id="path-effect4803"
       is_visible="true" />
    <inkscape:path-effect
       effect="spiro"
       id="path-effect4799"
       is_visible="true" />
    <inkscape:path-effect
       effect="spiro"
       id="path-effect4795"
       is_visible="true" />
    <inkscape:path-effect
       effect="spiro"
       id="path-effect4791"
       is_visible="true" />
    <inkscape:path-effect
       effect="spiro"
       id="path-effect4783"
       is_visible="true" />
    <inkscape:path-effect
       effect="spiro"
       id="path-effect4779"
       is_visible="true" />
    <inkscape:path-effect
       effect="spiro"
       id="path-effect4775"
       is_visible="true" />
    <inkscape:path-effect
       effect="spiro"
       id="path-effect4754"
       is_visible="true" />
    <inkscape:path-effect
       effect="spiro"
       id="path-effect4750"
       is_visible="true" />
    <inkscape:path-effect
       effect="spiro"
       id="path-effect4738"
       is_visible="true" />
    <inkscape:path-effect
       effect="spiro"
       id="path-effect4734"
       is_visible="true" />
    <inkscape:path-effect
       effect="spiro"
       id="path-effect4730"
       is_visible="true" />
    <inkscape:path-effect
       effect="spiro"
       id="path-effect4726"
       is_visible="true" />
    <inkscape:path-effect
       effect="spiro"
       id="path-effect4718"
       is_visible="true" />
    <inkscape:path-effect
       effect="spiro"
       id="path-effect4714"
       is_visible="true" />
  </defs>
  <sodipodi:namedview
     id="base"
     pagecolor="#ffffff"
     bordercolor="#666666"
     borderopacity="1.0"
     inkscape:pageopacity="0.0"
     inkscape:pageshadow="2"
     inkscape:zoom="3.8252746"
     inkscape:cx="79.209999"
     inkscape:cy="76.303551"
     inkscape:document-units="px"
     inkscape:current-layer="g5656"
     showgrid="false"
     inkscape:window-width="1075"
     inkscape:window-height="683"
     inkscape:window-x="201"
     inkscape:window-y="51"
     inkscape:window-maximized="0"
     fit-margin-top="5"
     fit-margin-left="5"
     fit-margin-right="5"
     fit-margin-bottom="5" />
  <metadata
     id="metadata4625">
    <rdf:RDF>
      <cc:Work
         rdf:about="">
        <dc:format>image/svg+xml</dc:format>
        <dc:type
           rdf:resource="http://purl.org/dc/dcmitype/StillImage" />
        <dc:title></dc:title>
      </cc:Work>
    </rdf:RDF>
  </metadata>
  <g
     inkscape:label="Layer 1"
     inkscape:groupmode="layer"
     id="layer1"
     transform="translate(-555.60793,-535.20507)">
    <g
       id="g5656"
       transform="matrix(1.034031,0,0,1.034031,-21.599356,-35.672923)">
      <path
         sodipodi:nodetypes="cccscscccscsccccscccccccc"
         inkscape:connector-curvature="0"
         id="path5579"
         style="fill:#e2e2e2;fill-opacity:1;stroke:#000000;stroke-width:0.4835445;stroke-linecap:butt;stroke-linejoin:miter;stroke-opacity:1;stroke-miterlimit:4;stroke-dasharray:none"
         inkscape:path-effect="#path-effect5581"
         inkscape:original-d="m 586.41849,658.44719 19.28572,-22.5 c 4.63732,5.0961 9.67572,9.88119 14.54811,14.76791 0,0 7.02097,2.87138 10.31163,2.90296 2.10355,0.0202 3.47241,-1.01016 3.47241,-1.01016 1.80303,0.38964 0.47316,1.42959 3.21985,-3.03046 2.74669,-4.46004 0.22754,-13.51079 0.67423,-13.39195 l -16.51195,-20.2383 18.26255,-22.37732 c 0,0 2.25963,-4.9216 1.86832,-7.50578 -0.521,-3.44075 -1.83311,-7.38705 -4.60882,-8.52316 0,0 -4.45842,-1.65042 -6.62912,-1.45208 -2.63932,0.24116 -8.71347,2.53115 -8.71347,2.53115 l -16.42946,17.14863 -0.0814,0.0105 c -23.19911,-26.88198 -17.36812,-21.31427 -17.75228,-22.4632 -4.23226,-4.24458 -4.74913,-3.23133 -10.81401,-4.04561 -3.286,-0.44118 -16.89486,12.27903 -14.39468,10.10153 5.86658,-4.97482 -3.13594,2.14834 2.17419,10.36586 l 22.20746,26.47734 -23.08035,25.93751 c -1.90328,4.52325 -3.50393,8.8522 -0.69176,14.11863 1.44356,2.36707 4.15098,4.15296 6.19933,5.91166 2.85165,1.62583 6.06609,2.3442 9.36471,1.62783 3.54681,-0.76229 5.74372,-3.49978 8.20809,-5.54176"
         d="m 586.41849,658.44719 19.28572,-22.5 14.54811,14.76791 c 2.82713,2.35232 6.67252,3.43489 10.31163,2.90296 1.19657,-0.1749 2.36874,-0.5159 3.47241,-1.01016 1.24571,-0.80302 2.34288,-1.83566 3.21985,-3.03046 1.40031,-1.90781 2.22675,-4.23128 2.34575,-6.59485 0.11899,-2.36357 -0.46991,-4.75829 -1.67152,-6.7971 l -16.51195,-20.2383 18.26255,-22.37732 c 1.33286,-2.24982 1.99096,-4.89367 1.86832,-7.50578 -0.0788,-1.67898 -0.47871,-3.35179 -1.25108,-4.84465 -0.77236,-1.49286 -1.92444,-2.80054 -3.35774,-3.67851 -1.95763,-1.19916 -4.3354,-1.54759 -6.62912,-1.45208 -3.05141,0.12706 -6.06889,1.0036 -8.71347,2.53115 l -16.42946,17.14863 -0.0814,0.0105 -17.75228,-22.4632 c -3.00287,-2.52676 -6.89003,-3.98098 -10.81401,-4.04561 -3.16173,-0.0521 -6.3586,0.79933 -8.98029,2.56736 -2.6217,1.76803 -4.63574,4.46938 -5.41439,7.53417 -0.90015,3.54304 -0.0737,7.48311 2.17419,10.36586 l 22.20746,26.47734 -23.08035,25.93751 c -1.37642,2.05674 -2.18159,4.49159 -2.3027,6.96344 -0.12111,2.47185 0.44217,4.97375 1.61094,7.15519 1.3714,2.55964 3.57747,4.66334 6.19933,5.91166 2.77077,1.68665 6.1873,2.28054 9.36471,1.62783 3.31772,-0.68153 6.33587,-2.71926 8.20809,-5.54176" />
      <path
         inkscape:connector-curvature="0"
         d="m 564.15649,589.58605 c -2.14337,-2.88266 -2.90663,-6.74667 -2.0203,-10.22779 0.78059,-3.06579 2.78933,-5.77171 5.41013,-7.54365 2.62081,-1.77195 5.82165,-2.62468 8.98455,-2.55788 3.79955,0.0802 7.55846,1.48417 10.48033,3.91434 m 0.75761,0.25254 c -2.59734,-2.132 -5.98575,-3.27674 -9.34391,-3.15673 -2.70855,0.0968 -5.4647,1.05811 -7.3236,3.03045 -0.99662,1.05744 -1.7062,2.37133 -2.11571,3.76551 -0.4095,1.39418 -0.524,2.86714 -0.40968,4.31572 0.22939,2.90683 1.39551,5.73242 3.283,7.95495 m 49.75001,-10.73287 c 2.58656,-1.64395 5.6478,-2.53126 8.71257,-2.52538 2.44045,0.005 4.87814,0.57057 7.07107,1.64149 m -8.08123,1.01016 c 0.92394,-0.90639 2.11862,-1.53325 3.38947,-1.77851 1.27085,-0.24525 2.61299,-0.10795 3.80786,0.38954 1.63845,0.68218 2.95896,2.01998 3.79233,3.58694 0.83337,1.56697 1.20313,3.35169 1.25844,5.12562 0.0801,2.56788 -0.48964,5.15345 -1.6415,7.44989 m -19.5717,57.32616 c 2.75274,2.40709 6.63556,3.46168 10.22779,2.77792 2.03827,-0.38797 3.97226,-1.31101 5.55585,-2.65166 m -8.96511,0 c 1.13896,1.40277 2.9989,2.1859 4.79823,2.0203 1.07874,-0.0993 2.11546,-0.51842 3.01081,-1.12823 0.89536,-0.60982 1.65406,-1.40584 2.29248,-2.28103 1.40509,-1.92619 2.23995,-4.26307 2.37343,-6.64355 0.13349,-2.38047 -0.43488,-4.79604 -1.61581,-6.86724 m -66.79634,8.33376 c -2.2095,2.32652 -3.49902,5.50426 -3.53553,8.71257 -0.0247,2.17264 0.51248,4.34931 1.54521,6.26097 1.03273,1.91166 2.55875,3.55415 4.38943,4.72444 m -10.3231,-21.8119 c -1.32597,2.05635 -2.08972,4.47138 -2.18724,6.91623 -0.0975,2.44485 0.47143,4.91303 1.6294,7.06847 1.37412,2.55778 3.57919,4.66053 6.19933,5.91166 2.77077,1.68665 6.1873,2.28054 9.36471,1.62783 3.31772,-0.68153 6.33587,-2.71926 8.20809,-5.54176 M 606.25,636.6479 l 13.92857,13.92857 6.42857,0.17857 m -40.17857,-34.46429 -22.85714,25.71429 7.5,2.5 m 1.42857,-55.17857 -8.03571,0.53571 22.14285,26.25 9.82143,0.71429 m 32.67857,-37.85715 -7.5,-0.35714 -16.42857,17.14286 m -34.10714,48.75 15.35714,13.92857 19.28572,-22.5 3.92857,-5.35714 17.5,20.35714 10.71428,-14.64286 -16.42857,-20.35714 18.03572,-22.32143 -10.17858,-14.82143 -19.64285,23.03572 -21.96429,-28.39286 -15.71428,15.89286 24.46428,28.03571 -25.35714,27.14286"
         inkscape:original-d="m 564.15649,589.58605 c -5.15624,-8.07945 3.84628,-15.20261 -2.0203,-10.22779 -2.50018,2.1775 11.10868,-10.54271 14.39468,-10.10153 6.06488,0.81428 6.58175,-0.19897 10.48033,3.91434 m 0.75761,0.25254 c 0,0 -6.21955,-3.08675 -9.34391,-3.15673 -2.69635,-0.0604 -5.46006,1.0808 -7.3236,3.03045 -2.17166,2.27201 -2.5816,4.93878 -2.52539,8.08123 0.0513,2.86813 3.283,7.95495 3.283,7.95495 m 49.75001,-10.73287 c 0,0 6.07325,-2.28422 8.71257,-2.52538 2.1707,-0.19834 7.07107,1.64149 7.07107,1.64149 m -8.08123,1.01016 c 0,0 4.96004,-2.31062 7.19733,-1.38897 3.21766,1.32551 4.52977,5.27181 5.05077,8.71256 0.39131,2.58418 -1.6415,7.44989 -1.6415,7.44989 m -19.5717,57.32616 c 0,0 6.93713,2.74634 10.22779,2.77792 2.10355,0.0202 5.55585,-2.65166 5.55585,-2.65166 m -8.96511,0 c 0,0 3.10175,2.29117 4.79823,2.0203 3.88647,-0.62051 2.5566,1.05079 5.30329,-3.40926 2.74669,-4.46004 0.22754,-13.51079 0.75762,-13.51079 m -66.79634,8.33376 c 0,0 -3.64262,5.5802 -3.53553,8.71257 0.13121,3.83785 5.93464,10.98541 5.93464,10.98541 m -10.3231,-21.8119 c -1.76936,4.38932 -3.37001,8.71827 -0.55784,13.9847 1.44356,2.36707 4.15098,4.15296 6.19933,5.91166 2.85165,1.62574 6.06609,2.3442 9.36471,1.62783 3.54681,-0.76229 5.74372,-3.49978 8.20809,-5.54176 M 606.25,636.6479 l 13.92857,13.92857 6.42857,0.17857 m -40.17857,-34.46429 -22.85714,25.71429 7.5,2.5 m 1.42857,-55.17857 -8.03571,0.53571 22.14285,26.25 9.82143,0.71429 m 32.67857,-37.85715 -7.5,-0.35714 -16.42857,17.14286 m -34.10714,48.75 c 6.4156,3.2078 8.39622,8.72254 15.35714,13.92857 l 19.28572,-22.5 3.92857,-5.35714 17.5,20.35714 10.71428,-14.64286 -16.42857,-20.35714 18.03572,-22.32143 -10.17858,-14.82143 -19.64285,23.03572 c 8.59491,-24.80846 -14.61789,-18.98012 -21.96429,-28.39286 l -15.71428,15.89286 24.46428,28.03571 z"
         inkscape:path-effect="#path-effect4803"
         style="fill:none;stroke:#000000;stroke-width:0.4835445;stroke-linecap:butt;stroke-linejoin:miter;stroke-opacity:1;stroke-miterlimit:4;stroke-dasharray:none"
         id="path4801" />
      <path
         sodipodi:nodetypes="ccscccscccscccscc"
         inkscape:connector-curvature="0"
         inkscape:original-d="m 616.0625,667.32646 6.25,-5.58035 c 0,0 2.8613,-0.004 3.4375,0.80357 0.65313,0.91487 0.40178,3.34822 0.40178,3.34822 l -5.58035,5.26786 5.53571,5.40178 c 0,0 0.40569,2.99892 -0.58036,3.79464 -0.94967,0.76637 -3.66071,0.0447 -3.66071,0.0447 l -5.84822,-5.44649 -6.16071,5.71429 c 0,0 -2.62559,0.25101 -3.4375,-0.58035 -0.87194,-0.89282 -0.26785,-3.70536 -0.26785,-3.70536 l 5.49107,-5.04465 -6.02679,-5.66964 c 0,0 -0.14577,-2.78904 0.75893,-3.52678 0.97312,-0.79354 3.83929,-0.13394 3.83929,-0.13394 z"
         inkscape:path-effect="#path-effect5596"
         id="path5594"
         d="m 616.0625,667.32646 6.25,-5.58035 c 0.57978,-0.24325 1.23674,-0.29843 1.84898,-0.15531 0.61224,0.14312 1.17665,0.48382 1.58852,0.95888 0.39082,0.45078 0.64295,1.02018 0.71403,1.61253 0.0711,0.59236 -0.0392,1.20525 -0.31225,1.73569 l -5.58035,5.26786 5.53571,5.40178 c 0.37835,0.58801 0.53349,1.31594 0.42778,2.00713 -0.10571,0.69118 -0.47133,1.33946 -1.00814,1.78751 -0.50698,0.42315 -1.16209,0.66516 -1.82241,0.67322 -0.66031,0.008 -1.32114,-0.21787 -1.8383,-0.62852 l -5.84822,-5.44649 -6.16071,5.71429 c -0.55426,0.28398 -1.20095,0.38378 -1.81503,0.2801 -0.61408,-0.10367 -1.19216,-0.41025 -1.62247,-0.86045 -0.46382,-0.48527 -0.752,-1.13497 -0.8004,-1.8045 -0.0484,-0.66953 0.14334,-1.35393 0.53255,-1.90086 l 5.49107,-5.04465 -6.02679,-5.66964 c -0.26585,-0.58656 -0.33793,-1.25903 -0.20245,-1.88861 0.13548,-0.62959 0.47779,-1.21288 0.96138,-1.63817 0.52074,-0.45796 1.20267,-0.72884 1.89571,-0.75301 0.69305,-0.0242 1.39219,0.19851 1.94358,0.61907 l 5.84821,5.3125"
         style="fill:#ff0000;fill-opacity:1;stroke:#000000;stroke-width:0.4835445;stroke-linecap:butt;stroke-linejoin:miter;stroke-opacity:1;stroke-miterlimit:4;stroke-dasharray:none" />
      <path
         sodipodi:nodetypes="ccsccscczzzccc"
         inkscape:connector-curvature="0"
         inkscape:original-d="m 632.625,664.73718 0.0446,13.70536 c 0,0 2.14274,2.56421 3.52679,2.45536 1.43219,-0.11264 3.30357,-2.76786 3.30357,-2.76786 l -0.0446,-7.41071 c 0,0 0.78089,-2.0947 1.38392,-2.50001 0.55728,-0.37456 2.27679,-0.84821 2.27679,-0.84821 l 3.79465,-0.0893 c 0,0 2.61818,-0.99309 2.58928,-1.91964 -0.0289,-0.92655 -0.72788,-2.35059 -1.78572,-2.94643 -1.05784,-0.59584 -2.37263,-0.41992 -3.83928,0 -1.46665,0.41992 -4.375,3.03572 -4.375,3.03572 0,0 -2.36982,-3.26923 -3.3876,-3.19754 -1.01778,0.0717 -3.4874,2.48329 -3.4874,2.48329 z"
         inkscape:path-effect="#path-effect5600"
         id="path5598"
         d="m 632.625,664.73718 0.0446,13.70536 c 0.23545,0.73264 0.71703,1.3838 1.34859,1.82349 0.63156,0.4397 1.40938,0.66533 2.1782,0.63187 0.77144,-0.0336 1.52922,-0.32788 2.1211,-0.82378 0.59188,-0.4959 1.01433,-1.19044 1.18247,-1.94408 l -0.0446,-7.41071 c 0.11819,-0.96916 0.62535,-1.88534 1.38392,-2.50001 0.64041,-0.51893 1.45295,-0.82164 2.27679,-0.84821 l 3.79465,-0.0893 c 0.58934,0.0806 1.20788,-0.0781 1.6857,-0.43234 0.47783,-0.35425 0.80938,-0.89999 0.90358,-1.4873 0.0977,-0.6094 -0.0583,-1.24823 -0.39062,-1.76835 -0.33227,-0.52011 -0.83294,-0.92333 -1.3951,-1.17808 -0.59661,-0.27036 -1.25989,-0.37781 -1.91468,-0.36058 -0.65479,0.0172 -1.30228,0.15623 -1.9246,0.36058 -1.71019,0.56157 -3.25037,1.63027 -4.375,3.03572 -0.0779,-0.84466 -0.47306,-1.6563 -1.08992,-2.23855 -0.61685,-0.58225 -1.44993,-0.92995 -2.29768,-0.95899 -0.76644,-0.0263 -1.53947,0.20634 -2.16416,0.65117 -0.6247,0.44483 -1.09735,1.09925 -1.32324,1.83212 l 0,-3e-5"
         style="fill:#00ff00;fill-opacity:1;stroke:#000000;stroke-width:0.4835445;stroke-linecap:butt;stroke-linejoin:miter;stroke-opacity:1;stroke-miterlimit:4;stroke-dasharray:none" />
      <path
         sodipodi:nodetypes="sccccccczccszzzzz"
         inkscape:connector-curvature="0"
         id="path5625"
         d="m 672.98214,654.82143 c -1.3787,-0.008 -3.18806,0.78474 -3.44643,3.04911 l -0.10268,9.95089 c -1.91068,-3.16314 -5.31738,-5.77246 -8.8125,-5.79911 -5.38373,0.35111 -8.94742,4.07119 -9.07589,9.33036 0.36225,5.15662 3.67332,9.0487 9.28125,8.90625 4.66156,-0.66583 6.44503,-2.67014 8.75,-5.78125 l 0.28125,4.1875 c 0,0 0.73732,2.61009 3.21875,2.5 2.48143,-0.11009 3.125,-2.21875 3.125,-2.21875 l -0.0625,-21.60714 c 0,0 -0.35868,-2.50182 -3.15625,-2.51786 z m -10.34375,11.34375 c 2.10617,0.002 3.75487,2.18093 3.69643,4.83036 -0.0584,2.64943 -1.79169,4.57382 -4.16518,4.63839 -2.37349,0.0646 -4.00689,-1.848 -3.90625,-4.75 0.10064,-2.902 2.26883,-4.72061 4.375,-4.71875 z"
         style="fill:#0000ff;fill-opacity:1;stroke:#000000;stroke-width:0.4835445;stroke-linecap:butt;stroke-linejoin:miter;stroke-opacity:1;stroke-miterlimit:4;stroke-dasharray:none" />
      <path
         style="fill:#ffffff;fill-opacity:1;stroke:#000000;stroke-width:0.4835445;stroke-linecap:butt;stroke-linejoin:miter;stroke-opacity:1;stroke-miterlimit:4;stroke-dasharray:none"
         d="m 687.08482,688.13279 c 1.3787,0.008 3.18806,-0.78474 3.44643,-3.04911 l 0.10268,-9.95089 c 1.91068,3.16314 5.31738,5.77246 8.8125,5.79911 5.38373,-0.35111 8.94742,-4.07119 9.07589,-9.33036 -0.36225,-5.15662 -3.67332,-9.0487 -9.28125,-8.90625 -4.66156,0.66583 -6.44503,2.67014 -8.75,5.78125 l -0.28125,-4.1875 c 0,0 -0.73732,-2.61009 -3.21875,-2.5 -2.48143,0.11009 -3.125,2.21875 -3.125,2.21875 l 0.0625,21.60714 c 0,0 0.35868,2.50182 3.15625,2.51786 z m 10.34375,-11.34375 c -2.10617,-0.002 -3.75487,-2.18093 -3.69643,-4.83036 0.0584,-2.64943 1.79169,-4.57382 4.16518,-4.63839 2.37349,-0.0646 4.00689,1.848 3.90625,4.75 -0.10064,2.902 -2.26883,4.72061 -4.375,4.71875 z"
         id="path5654"
         inkscape:connector-curvature="0"
         sodipodi:nodetypes="sccccccczccszzzzz" />
    </g>
  </g>
</svg>
