<?xml version="1.0" encoding="UTF-8" standalone="no"?>
<!-- Generator: Adobe Illustrator 14.0.0, SVG Export Plug-In . SVG Version: 6.00 Build 43363)  -->
<svg
   xmlns:dc="http://purl.org/dc/elements/1.1/"
   xmlns:cc="http://creativecommons.org/ns#"
   xmlns:rdf="http://www.w3.org/1999/02/22-rdf-syntax-ns#"
   xmlns:svg="http://www.w3.org/2000/svg"
   xmlns="http://www.w3.org/2000/svg"
   xmlns:sodipodi="http://sodipodi.sourceforge.net/DTD/sodipodi-0.dtd"
   xmlns:inkscape="http://www.inkscape.org/namespaces/inkscape"
   version="1.1"
   id="Ebene_1"
   x="0px"
   y="0px"
   width="16px"
   height="16px"
   viewBox="0 0 16 16"
   enable-background="new 0 0 16 16"
   xml:space="preserve"
   sodipodi:version="0.32"
   inkscape:version="0.46"
   sodipodi:docname="node-xen.svg"
   inkscape:output_extension="org.inkscape.output.svg.inkscape"
   inkscape:export-filename="/home/andreas/src/dev/trunk/ucs/virtualization/univention-virtual-machine-manager-daemon/umc/images/default/16x16/uvmm/node-xen.png"
   inkscape:export-xdpi="112.5"
   inkscape:export-ydpi="112.5"><metadata
   id="metadata5030"><rdf:RDF><cc:Work
       rdf:about=""><dc:format>image/svg+xml</dc:format><dc:type
         rdf:resource="http://purl.org/dc/dcmitype/StillImage" /></cc:Work></rdf:RDF></metadata><defs
   id="defs5028"><inkscape:perspective
     sodipodi:type="inkscape:persp3d"
     inkscape:vp_x="0 : 8 : 1"
     inkscape:vp_y="0 : 1000 : 0"
     inkscape:vp_z="16 : 8 : 1"
     inkscape:persp3d-origin="8 : 5.3333333 : 1"
     id="perspective5032" /></defs><sodipodi:namedview
   inkscape:window-height="480"
   inkscape:window-width="640"
   inkscape:pageshadow="2"
   inkscape:pageopacity="0.0"
   guidetolerance="10.0"
   gridtolerance="10.0"
   objecttolerance="10.0"
   borderopacity="1.0"
   bordercolor="#666666"
   pagecolor="#ffffff"
   id="base"
   showgrid="false" />
<linearGradient
   id="SVGID_1_"
   gradientUnits="userSpaceOnUse"
   x1="-0.4189"
   y1="8.8481"
   x2="8.3362"
   y2="8.8481"
   gradientTransform="matrix(1 0 0 -1 0.4204 16.8359)">
	<stop
   offset="0"
   style="stop-color:#000000"
   id="stop4971" />
	<stop
   offset="0.3865"
   style="stop-color:#58585A"
   id="stop4973" />
	<stop
   offset="1"
   style="stop-color:#3F3E41"
   id="stop4975" />
</linearGradient>
<path
   fill="url(#SVGID_1_)"
   d="M2.557,1.297v13.463c0,0,0.773,1.507,5.916,1.153V0.193C8.473,0.193,4.742-0.663,2.557,1.297z"
   id="path4977" />
<linearGradient
   id="SVGID_2_"
   gradientUnits="userSpaceOnUse"
   x1="-0.792"
   y1="8.0537"
   x2="26.0107"
   y2="8.0537">
	<stop
   offset="0"
   style="stop-color:#000000"
   id="stop4980" />
	<stop
   offset="0.3865"
   style="stop-color:#6E6D6D"
   id="stop4982" />
	<stop
   offset="1"
   style="stop-color:#3F3E41"
   id="stop4984" />
</linearGradient>
<polygon
   fill="url(#SVGID_2_)"
   points="14.367,1.801 14.367,14.258 8.473,15.914 8.473,0.193 "
   id="polygon4986" />
<path
   opacity="0.1"
   fill="#FFFFFF"
   d="M14.367,1.801v12.457l-5.895,1.656c0,0,6.109-2.68,3.58-7.55  C9.248,2.97,14.367,1.801,14.367,1.801z"
   id="path4988" />
<linearGradient
   id="SVGID_3_"
   gradientUnits="userSpaceOnUse"
   x1="-0.8496"
   y1="12.8408"
   x2="14.5008"
   y2="12.8408"
   gradientTransform="matrix(1 0 0 -1 0.4204 16.8359)">
	<stop
   offset="0"
   style="stop-color:#FFFFFF"
   id="stop4991" />
	<stop
   offset="0.3865"
   style="stop-color:#B5B5B8"
   id="stop4993" />
	<stop
   offset="0.6258"
   style="stop-color:#D9D9DA"
   id="stop4995" />
	<stop
   offset="1"
   style="stop-color:#6F7072"
   id="stop4997" />
</linearGradient>
<path
   fill="url(#SVGID_3_)"
   d="M3.014,5.064V3.706c0,0,1.503-0.952,4.824-0.752v1.559C7.838,4.51,5.518,4.261,3.014,5.064z"
   id="path4999" />
<linearGradient
   id="SVGID_4_"
   gradientUnits="userSpaceOnUse"
   x1="-0.8496"
   y1="14.9844"
   x2="14.5008"
   y2="14.9844"
   gradientTransform="matrix(1 0 0 -1 0.4204 16.8359)">
	<stop
   offset="0"
   style="stop-color:#FFFFFF"
   id="stop5002" />
	<stop
   offset="0.3865"
   style="stop-color:#B5B5B8"
   id="stop5004" />
	<stop
   offset="0.6258"
   style="stop-color:#D9D9DA"
   id="stop5006" />
	<stop
   offset="1"
   style="stop-color:#6F7072"
   id="stop5008" />
</linearGradient>
<path
   fill="url(#SVGID_4_)"
   d="M3.014,3.004V1.65c0,0,1.457-1.307,4.824-0.854v1.456C7.838,2.251,4.926,2.049,3.014,3.004z"
   id="path5010" />
<linearGradient
   id="SVGID_5_"
   gradientUnits="userSpaceOnUse"
   x1="4.4111"
   y1="11.5439"
   x2="5.2882"
   y2="10.316"
   gradientTransform="matrix(1 0 0 -1 0.4204 16.8359)">
	<stop
   offset="0"
   style="stop-color:#FFFFFF"
   id="stop5013" />
	<stop
   offset="0.3865"
   style="stop-color:#B5B5B8"
   id="stop5015" />
	<stop
   offset="0.6258"
   style="stop-color:#D9D9DA"
   id="stop5017" />
	<stop
   offset="1"
   style="stop-color:#6F7072"
   id="stop5019" />
</linearGradient>
<path
   fill="url(#SVGID_5_)"
   d="M5.754,5.817c0,0.333-0.244,0.604-0.547,0.604c-0.301,0-0.546-0.268-0.546-0.604  c0-0.333,0.245-0.601,0.546-0.601C5.51,5.216,5.754,5.486,5.754,5.817z"
   id="path5021" />
<g
   id="g5023">
	<path
   fill="#3F3E41"
   d="M5.207,6.516c-0.354,0-0.642-0.313-0.642-0.699c0-0.384,0.288-0.697,0.642-0.697   c0.354,0,0.643,0.312,0.643,0.697C5.85,6.203,5.562,6.516,5.207,6.516L5.207,6.516z M5.207,5.312c-0.248,0-0.45,0.227-0.45,0.505   c0,0.28,0.202,0.508,0.45,0.508c0.249,0,0.451-0.228,0.451-0.508C5.658,5.538,5.456,5.312,5.207,5.312L5.207,5.312z"
   id="path5025" />
</g>
</svg>