<?xml version="1.0" encoding="UTF-8" standalone="no"?>
<!-- Generator: Adobe Illustrator 14.0.0, SVG Export Plug-In . SVG Version: 6.00 Build 43363)  -->

<svg
   xmlns:dc="http://purl.org/dc/elements/1.1/"
   xmlns:cc="http://creativecommons.org/ns#"
   xmlns:rdf="http://www.w3.org/1999/02/22-rdf-syntax-ns#"
   xmlns:svg="http://www.w3.org/2000/svg"
   xmlns="http://www.w3.org/2000/svg"
   xmlns:xlink="http://www.w3.org/1999/xlink"
   xmlns:sodipodi="http://sodipodi.sourceforge.net/DTD/sodipodi-0.dtd"
   xmlns:inkscape="http://www.inkscape.org/namespaces/inkscape"
   version="1.1"
   id="Ebene_1"
   x="0px"
   y="0px"
   width="16px"
   height="16px"
   viewBox="0 0 16 16"
   enable-background="new 0 0 16 16"
   xml:space="preserve"
   sodipodi:version="0.32"
   inkscape:version="0.92.3 (2405546, 2018-03-11)"
   sodipodi:docname="uvmm-domain-migrate.svg"
   inkscape:output_extension="org.inkscape.output.svg.inkscape"><metadata
   id="metadata68"><rdf:RDF><cc:Work
       rdf:about=""><dc:format>image/svg+xml</dc:format><dc:type
         rdf:resource="http://purl.org/dc/dcmitype/StillImage" /><dc:title></dc:title></cc:Work></rdf:RDF></metadata><defs
   id="defs66"><linearGradient
     id="linearGradient3147"><stop
       id="stop3149"
       offset="0"
       style="stop-color:#8ae234;stop-opacity:1;" /><stop
       id="stop3151"
       offset="1"
       style="stop-color:#4f9a05;stop-opacity:1;" /></linearGradient><linearGradient
     y2="18.890638"
     x2="15.626115"
     y1="2.3549674"
     x1="9.0329466"
     gradientTransform="matrix(0.418947,0,0,0.687907,34.75998,29.60497)"
     gradientUnits="userSpaceOnUse"
     id="linearGradient3405"
     xlink:href="#linearGradient3147"
     inkscape:collect="always" /><linearGradient
     id="linearGradient2679"><stop
       id="stop2681"
       offset="0"
       style="stop-color:#f7f7f7;stop-opacity:1" /><stop
       id="stop2683"
       offset="1"
       style="stop-color:#ccd0c7;stop-opacity:1" /></linearGradient><linearGradient
     gradientTransform="translate(28.74998,26.00027)"
     y2="11.021822"
     x2="18.118361"
     y1="11.021822"
     x1="5.0277281"
     gradientUnits="userSpaceOnUse"
     id="linearGradient3409"
     xlink:href="#linearGradient2679"
     inkscape:collect="always" /><inkscape:perspective
     sodipodi:type="inkscape:persp3d"
     inkscape:vp_x="0 : 8 : 1"
     inkscape:vp_y="0 : 1000 : 0"
     inkscape:vp_z="16 : 8 : 1"
     inkscape:persp3d-origin="8 : 5.3333333 : 1"
     id="perspective70" /><filter
     style="color-interpolation-filters:sRGB"
     inkscape:label="Color Shift"
     id="filter1179"><feColorMatrix
       type="hueRotate"
       values="107"
       result="color1"
       id="feColorMatrix1175" /><feColorMatrix
       type="saturate"
       values="0.657895"
       result="color2"
       id="feColorMatrix1177" /></filter><linearGradient
     inkscape:collect="always"
     xlink:href="#linearGradient3413"
     id="linearGradient3289"
     gradientUnits="userSpaceOnUse"
     x1="60.402065"
     y1="64.076149"
     x2="60.402065"
     y2="-20.962214" /><linearGradient
     id="linearGradient3413"
     gradientUnits="userSpaceOnUse"
     x1="-84.002403"
     y1="-383.9971"
     x2="-12.0029"
     y2="-383.9971"
     gradientTransform="rotate(90,-90.0007,50.0022)"><stop
       offset="0"
       style="stop-color:#144c00;stop-opacity:1;"
       id="stop3415" /><stop
       offset="1"
       style="stop-color:#5b7500;stop-opacity:0;"
       id="stop3417" /></linearGradient><filter
     inkscape:collect="always"
     id="filter3319"><feGaussianBlur
       inkscape:collect="always"
       stdDeviation="1.6179775"
       id="feGaussianBlur3321" /></filter><linearGradient
     inkscape:collect="always"
     xlink:href="#linearGradient3407"
     id="linearGradient6410"
     x1="12"
     y1="68"
     x2="11.458064"
     y2="13.006452"
     gradientUnits="userSpaceOnUse" /><linearGradient
     gradientTransform="rotate(90,-90.0007,50.0022)"
     y2="-383.9971"
     x2="-12.0029"
     y1="-383.9971"
     x1="-84.002403"
     gradientUnits="userSpaceOnUse"
     id="linearGradient3407"><stop
       id="stop3409"
       style="stop-color:#004d00;stop-opacity:1"
       offset="0" /><stop
       id="stop3411"
       style="stop-color:#006b00;stop-opacity:1;"
       offset="1" /></linearGradient><linearGradient
     inkscape:collect="always"
     xlink:href="#linearGradient3401"
     id="linearGradient6680"
     x1="19.096775"
     y1="50.580647"
     x2="80.047699"
     y2="66.897575"
     gradientUnits="userSpaceOnUse" /><linearGradient
     gradientTransform="rotate(90,-90.0007,50.0022)"
     y2="-383.9971"
     x2="-12.0029"
     y1="-383.9971"
     x1="-84.002403"
     gradientUnits="userSpaceOnUse"
     id="linearGradient3401"><stop
       id="stop3403"
       style="stop-color:#32b800;stop-opacity:1;"
       offset="0" /><stop
       id="stop3405"
       style="stop-color:#bff500;stop-opacity:0;"
       offset="1" /></linearGradient><radialGradient
     inkscape:collect="always"
     xlink:href="#linearGradient4296"
     id="radialGradient9692"
     gradientUnits="userSpaceOnUse"
     gradientTransform="matrix(1.1890799,0,0,1.1890799,-114.77413,-31.375729)"
     spreadMethod="pad"
     cx="42.700352"
     cy="103.5803"
     fx="42.700352"
     fy="103.5803"
     r="42.559486" /><linearGradient
     id="linearGradient4296"><stop
       style="stop-color:#00c900;stop-opacity:1;"
       offset="0"
       id="stop4298" /><stop
       style="stop-color:#006500;stop-opacity:1"
       offset="1"
       id="stop4300" /></linearGradient><linearGradient
     inkscape:collect="always"
     xlink:href="#linearGradient6446"
     id="linearGradient6452"
     x1="21.094994"
     y1="21.101994"
     x2="15.189133"
     y2="27.007854"
     gradientUnits="userSpaceOnUse"
     spreadMethod="reflect"
     gradientTransform="translate(-7.5870968,-7.3806452)" /><linearGradient
     id="linearGradient6446"><stop
       style="stop-color:#ffffff;stop-opacity:1;"
       offset="0"
       id="stop6448" /><stop
       style="stop-color:#ffffff;stop-opacity:0;"
       offset="1"
       id="stop6450" /></linearGradient><filter
     inkscape:collect="always"
     id="filter6458"><feGaussianBlur
       inkscape:collect="always"
       stdDeviation="0.28444187"
       id="feGaussianBlur6460" /></filter><linearGradient
     inkscape:collect="always"
     xlink:href="#linearGradient6446"
     id="linearGradient6464"
     gradientUnits="userSpaceOnUse"
     gradientTransform="translate(0.4129032,0.6193548)"
     spreadMethod="reflect"
     x1="21.094994"
     y1="21.101994"
     x2="15.126888"
     y2="27.070099" /><linearGradient
     inkscape:collect="always"
     xlink:href="#linearGradient4770"
     id="linearGradient6637"
     x1="55.329033"
     y1="112"
     x2="55.329033"
     y2="74.913147"
     gradientUnits="userSpaceOnUse" /><linearGradient
     id="linearGradient4770"
     gradientUnits="userSpaceOnUse"
     x1="-84.002403"
     y1="-383.9971"
     x2="-12.0029"
     y2="-383.9971"
     gradientTransform="rotate(90,-90.0007,50.0022)"><stop
       offset="0"
       style="stop-color:#e5ff00;stop-opacity:1"
       id="stop4772" /><stop
       offset="1"
       style="stop-color:#bff500;stop-opacity:0;"
       id="stop4774" /></linearGradient><linearGradient
     inkscape:collect="always"
     xlink:href="#linearGradient6446"
     id="linearGradient6470"
     gradientUnits="userSpaceOnUse"
     gradientTransform="translate(0.4129032,0.6193548)"
     spreadMethod="reflect"
     x1="21.094994"
     y1="21.101994"
     x2="13.96104"
     y2="28.235947" /><radialGradient
     inkscape:collect="always"
     xlink:href="#linearGradient4770"
     id="radialGradient3179"
     cx="64"
     cy="-8.6227608"
     fx="64"
     fy="-8.6227608"
     r="56"
     gradientTransform="matrix(1,0,0,0.1261161,0,13.087469)"
     gradientUnits="userSpaceOnUse" /><linearGradient
     inkscape:collect="always"
     xlink:href="#linearGradient6446"
     id="linearGradient3231"
     gradientUnits="userSpaceOnUse"
     gradientTransform="translate(0.2623629,1)"
     x1="59.225807"
     y1="7.8973217"
     x2="59.225807"
     y2="46.228859" /><linearGradient
     inkscape:collect="always"
     xlink:href="#linearGradient6446"
     id="linearGradient3233"
     gradientUnits="userSpaceOnUse"
     gradientTransform="translate(0.2332229,1.9150941)"
     x1="115.76678"
     y1="71.084908"
     x2="31.376678"
     y2="21.03125" /><linearGradient
     inkscape:collect="always"
     xlink:href="#linearGradient3237"
     id="linearGradient3243"
     x1="-60.945251"
     y1="105.83054"
     x2="-59.415245"
     y2="45.631207"
     gradientUnits="userSpaceOnUse" /><linearGradient
     id="linearGradient3237"><stop
       style="stop-color:#ffeb8b;stop-opacity:1;"
       offset="0"
       id="stop3239" /><stop
       style="stop-color:#ffffff;stop-opacity:0;"
       offset="1"
       id="stop3241" /></linearGradient><filter
     inkscape:collect="always"
     id="filter3281"><feGaussianBlur
       inkscape:collect="always"
       stdDeviation="0.32872878"
       id="feGaussianBlur3283" /></filter><linearGradient
     inkscape:collect="always"
     xlink:href="#linearGradient6446"
     id="linearGradient2816"
     gradientUnits="userSpaceOnUse"
     x1="59.225807"
     y1="-31.712746"
     x2="59.225807"
     y2="98.167175" /><radialGradient
     inkscape:collect="always"
     xlink:href="#linearGradient3075"
     id="radialGradient3443"
     cx="63.96875"
     cy="66.125"
     fx="79.944847"
     fy="81.962006"
     r="44.043648"
     gradientTransform="matrix(0.7303873,0.4860217,-0.7345247,1.1038346,65.813265,-37.956259)"
     gradientUnits="userSpaceOnUse"
     spreadMethod="reflect" /><linearGradient
     id="linearGradient3075"><stop
       id="stop3077"
       offset="0"
       style="stop-color:#ffffff;stop-opacity:1;" /><stop
       style="stop-color:#ffffff;stop-opacity:1;"
       offset="0.42597079"
       id="stop3093" /><stop
       style="stop-color:#f1f1f1;stop-opacity:1;"
       offset="0.5892781"
       id="stop3085" /><stop
       id="stop3087"
       offset="0.80219781"
       style="stop-color:#eaeaea;stop-opacity:1;" /><stop
       id="stop3079"
       offset="1"
       style="stop-color:#dfdfdf;stop-opacity:1;" /></linearGradient><clipPath
     clipPathUnits="userSpaceOnUse"
     id="clipPath3495"><path
       inkscape:connector-curvature="0"
       id="path3497"
       d="m -93.928355,26.46875 c -1.530347,0.0426 -2.961334,0.686235 -4.03125,1.78125 l -16.906255,16.90625 -0.0937,0.0625 c -0.90982,0.63942 -1.62687,1.516932 -2.0625,2.59375 -0.7188,1.776821 -0.48619,3.766011 0.5,5.34375 0.15448,0.24713 0.30737,0.493854 0.5,0.71875 0.11916,0.139108 0.24156,0.277105 0.375,0.40625 0.0701,0.07003 0.11409,0.121216 0.1875,0.1875 l 17.500005,17.5 c 1.479032,1.540452 3.652281,2.132471 5.71875,1.59375 2.066472,-0.538722 3.680028,-2.121031 4.21875,-4.1875 0.538723,-2.066471 -0.0533,-4.270969 -1.59375,-5.75 l -7.625,-7.625 h 26.1875 c 2.126604,0.03007 4.115419,-1.100653 5.1875,-2.9375 1.072082,-1.836845 1.072081,-4.100653 0,-5.9375 -1.07208,-1.83685 -3.060892,-2.936326 -5.1875,-2.90625 h -26.1875 l 7.625,-7.625 c 1.735348,-1.696583 2.259277,-4.296651 1.3125,-6.53125 -0.946775,-2.2346 -3.199016,-3.660283 -5.625,-3.59375 z m 40.90625,32 c -0.519027,-0.0056 -1.045883,0.05282 -1.5625,0.1875 -2.066469,0.538721 -3.648778,2.152281 -4.1875,4.21875 -0.538724,2.06647 0.0533,4.270969 1.59375,5.75 l 7.625,7.625 h -26.1875 c -2.126609,-0.03008 -4.115419,1.069403 -5.1875,2.90625 -1.072079,1.836847 -1.072081,4.100653 0,5.9375 1.072083,1.836845 3.060892,2.967576 5.1875,2.9375 h 26.1875 l -7.625,7.625 c -1.735345,1.696585 -2.259277,4.29665 -1.3125,6.53125 0.946778,2.2346 3.167766,3.66028 5.59375,3.59375 1.530346,-0.0426 2.992584,-0.68624 4.0625,-1.78125 l 16.875,-16.90625 0.09375,-0.0625 c 0.90983,-0.639417 1.65813,-1.548182 2.09375,-2.625 0.71881,-1.776818 0.48619,-3.734761 -0.5,-5.3125 -0.15447,-0.247131 -0.30737,-0.493854 -0.5,-0.71875 -0.11915,-0.139105 -0.24156,-0.277105 -0.375,-0.40625 -0.07012,-0.07003 -0.14534,-0.152466 -0.21875,-0.21875 l -17.46875,-17.46875 c -1.109275,-1.155337 -2.630418,-1.795809 -4.1875,-1.8125 z"
       style="fill:url(#radialGradient3499);fill-opacity:1;fill-rule:evenodd;stroke:none;stroke-width:16;stroke-linecap:round;stroke-linejoin:round;stroke-miterlimit:4;stroke-dasharray:none;stroke-opacity:1" /></clipPath><filter
     inkscape:collect="always"
     id="filter3487"><feGaussianBlur
       inkscape:collect="always"
       stdDeviation="0.61137351"
       id="feGaussianBlur3489" /></filter><clipPath
     clipPathUnits="userSpaceOnUse"
     id="clipPath3501"><path
       inkscape:connector-curvature="0"
       style="fill:url(#radialGradient3505);fill-opacity:1;fill-rule:evenodd;stroke:none;stroke-width:16;stroke-linecap:round;stroke-linejoin:round;stroke-miterlimit:4;stroke-dasharray:none;stroke-opacity:1"
       d="m -189.50809,26.46875 c -1.53035,0.0426 -2.96134,0.686235 -4.03125,1.78125 l -16.90626,16.90625 -0.0937,0.0625 c -0.90982,0.63942 -1.62687,1.516932 -2.0625,2.59375 -0.7188,1.776821 -0.48619,3.766011 0.5,5.34375 0.15448,0.24713 0.30737,0.493854 0.5,0.71875 0.11916,0.139108 0.24156,0.277105 0.375,0.40625 0.0701,0.07003 0.11409,0.121216 0.1875,0.1875 l 17.50001,17.5 c 1.47903,1.540452 3.65228,2.132471 5.71875,1.59375 2.06647,-0.538722 3.68002,-2.121031 4.21875,-4.1875 0.53872,-2.066471 -0.0533,-4.270969 -1.59375,-5.75 l -7.625,-7.625 h 26.1875 c 2.1266,0.03007 4.11542,-1.100653 5.1875,-2.9375 1.07208,-1.836845 1.07208,-4.100653 0,-5.9375 -1.07208,-1.83685 -3.0609,-2.936326 -5.1875,-2.90625 h -26.1875 l 7.625,-7.625 c 1.73534,-1.696583 2.25927,-4.296651 1.3125,-6.53125 -0.94678,-2.2346 -3.19902,-3.660283 -5.625,-3.59375 z m 40.90625,32 c -0.51903,-0.0056 -1.04589,0.05282 -1.5625,0.1875 -2.06647,0.538721 -3.64878,2.152281 -4.1875,4.21875 -0.53873,2.06647 0.0533,4.270969 1.59375,5.75 l 7.625,7.625 h -26.1875 c -2.12661,-0.03008 -4.11542,1.069403 -5.1875,2.90625 -1.07208,1.836847 -1.07208,4.100653 0,5.9375 1.07208,1.836845 3.06089,2.967576 5.1875,2.9375 h 26.1875 l -7.625,7.625 c -1.73535,1.696585 -2.25928,4.29665 -1.3125,6.53125 0.94677,2.2346 3.16776,3.66028 5.59375,3.59375 1.53034,-0.0426 2.99258,-0.68624 4.0625,-1.78125 l 16.875,-16.90625 0.0937,-0.0625 c 0.90983,-0.639417 1.65813,-1.548182 2.09375,-2.625 0.71881,-1.776818 0.48619,-3.734761 -0.5,-5.3125 -0.15447,-0.247131 -0.30737,-0.493854 -0.5,-0.71875 -0.11915,-0.139105 -0.24156,-0.277105 -0.375,-0.40625 -0.0701,-0.07003 -0.14534,-0.152466 -0.21875,-0.21875 l -17.46875,-17.46875 c -1.10928,-1.155337 -2.63042,-1.795809 -4.1875,-1.8125 z"
       id="path3503" /></clipPath><filter
     inkscape:collect="always"
     id="filter3491"><feGaussianBlur
       inkscape:collect="always"
       stdDeviation="0.40755289"
       id="feGaussianBlur3493" /></filter><linearGradient
     inkscape:collect="always"
     xlink:href="#linearGradient6446"
     id="linearGradient1048"
     gradientUnits="userSpaceOnUse"
     gradientTransform="translate(0.4129032,0.6193548)"
     x1="21.094994"
     y1="21.101994"
     x2="13.96104"
     y2="28.235947"
     spreadMethod="reflect" /></defs><sodipodi:namedview
   inkscape:window-height="1026"
   inkscape:window-width="1920"
   inkscape:pageshadow="2"
   inkscape:pageopacity="0.0"
   guidetolerance="10.0"
   gridtolerance="10.0"
   objecttolerance="10.0"
   borderopacity="1.0"
   bordercolor="#666666"
   pagecolor="#ffffff"
   id="base"
   showgrid="false"
   inkscape:zoom="34.75"
   inkscape:cx="7.581391"
   inkscape:cy="8"
   inkscape:window-x="0"
   inkscape:window-y="25"
   inkscape:current-layer="Ebene_1"
   inkscape:window-maximized="1" />
<linearGradient
   id="SVGID_1_"
   gradientUnits="userSpaceOnUse"
   x1="-0.4092"
   y1="8.8574"
   x2="8.3481"
   y2="8.8574"
   gradientTransform="matrix(1 0 0 -1 0.4204 16.8359)">
	<stop
   offset="0.2945"
   style="stop-color:#3F3E41"
   id="stop4" />
	<stop
   offset="0.6012"
   style="stop-color:#909092"
   id="stop6" />
	<stop
   offset="0.8282"
   style="stop-color:#6F7072"
   id="stop8" />
</linearGradient>
<path
   opacity="0.4"
   fill="url(#SVGID_1_)"
   d="M2.567,1.297v13.449c0,0,0.772,1.502,5.917,1.15V0.193  C8.484,0.193,4.753-0.66,2.567,1.297z"
   id="path10" />
<linearGradient
   id="SVGID_2_"
   gradientUnits="userSpaceOnUse"
   x1="2.603"
   y1="12.8438"
   x2="7.4302"
   y2="12.8438"
   gradientTransform="matrix(1 0 0 -1 0.4204 16.8359)">
	<stop
   offset="0"
   style="stop-color:#000000"
   id="stop13" />
	<stop
   offset="0.3865"
   style="stop-color:#58585A"
   id="stop15" />
	<stop
   offset="1"
   style="stop-color:#3F3E41"
   id="stop17" />
</linearGradient>
<path
   opacity="0.4"
   fill="url(#SVGID_2_)"
   d="M3.023,5.061V3.703c0,0,1.504-0.951,4.827-0.749v1.555  C7.851,4.508,5.529,4.256,3.023,5.061z"
   id="path19" />
<linearGradient
   id="SVGID_3_"
   gradientUnits="userSpaceOnUse"
   x1="2.603"
   y1="14.9834"
   x2="7.4302"
   y2="14.9834"
   gradientTransform="matrix(1 0 0 -1 0.4204 16.8359)">
	<stop
   offset="0"
   style="stop-color:#000000"
   id="stop22" />
	<stop
   offset="0.3865"
   style="stop-color:#58585A"
   id="stop24" />
	<stop
   offset="1"
   style="stop-color:#3F3E41"
   id="stop26" />
</linearGradient>
<path
   opacity="0.4"
   fill="url(#SVGID_3_)"
   d="M3.023,3.003V1.649c0,0,1.457-1.305,4.827-0.852V2.25  C7.851,2.25,4.938,2.048,3.023,3.003z"
   id="path28" />
<linearGradient
   id="SVGID_4_"
   gradientUnits="userSpaceOnUse"
   x1="4.4224"
   y1="11.5488"
   x2="5.2993"
   y2="10.321"
   gradientTransform="matrix(1 0 0 -1 0.4204 16.8359)">
	<stop
   offset="0"
   style="stop-color:#FFFFFF"
   id="stop31" />
	<stop
   offset="0.3865"
   style="stop-color:#B5B5B8"
   id="stop33" />
	<stop
   offset="0.6258"
   style="stop-color:#D9D9DA"
   id="stop35" />
	<stop
   offset="1"
   style="stop-color:#6F7072"
   id="stop37" />
</linearGradient>
<path
   opacity="0.4"
   fill="url(#SVGID_4_)"
   d="M5.767,5.813c0,0.332-0.247,0.604-0.549,0.604c-0.301,0-0.546-0.27-0.546-0.604  c0-0.335,0.245-0.601,0.546-0.601C5.521,5.212,5.767,5.481,5.767,5.813z"
   id="path39" />
<g
   opacity="0.4"
   id="g41">
	<path
   fill="#3F3E41"
   d="M5.218,6.512c-0.354,0-0.642-0.313-0.642-0.699c0-0.384,0.288-0.696,0.642-0.696   c0.355,0,0.645,0.312,0.645,0.696C5.862,6.199,5.573,6.512,5.218,6.512L5.218,6.512z M5.218,5.308c-0.248,0-0.45,0.227-0.45,0.505   c0,0.28,0.202,0.508,0.45,0.508c0.25,0,0.453-0.228,0.453-0.508C5.671,5.535,5.468,5.308,5.218,5.308L5.218,5.308z"
   id="path43" />
</g>
<g
   opacity="0.4"
   id="g45">
	
		<linearGradient
   id="SVGID_5_"
   gradientUnits="userSpaceOnUse"
   x1="7.7788"
   y1="14.3613"
   x2="20.5176"
   y2="-10.8129"
   gradientTransform="matrix(1 0 0 -1 0.4204 16.8359)">
		<stop
   offset="0.2331"
   style="stop-color:#B5B5B8"
   id="stop48" />
		<stop
   offset="0.6258"
   style="stop-color:#D9D9DA"
   id="stop50" />
		<stop
   offset="1"
   style="stop-color:#6F7072"
   id="stop52" />
	</linearGradient>
	<polygon
   fill="url(#SVGID_5_)"
   points="14.367,1.801 14.367,14.242 8.481,15.896 8.481,0.194  "
   id="polygon54" />
	
		<linearGradient
   id="SVGID_6_"
   gradientUnits="userSpaceOnUse"
   x1="8.3213"
   y1="14.3672"
   x2="20.8905"
   y2="-15.5267"
   gradientTransform="matrix(1 0 0 -1 0.4204 16.8359)">
		<stop
   offset="0.3865"
   style="stop-color:#B5B5B8"
   id="stop57" />
		<stop
   offset="0.6258"
   style="stop-color:#D9D9DA"
   id="stop59" />
		<stop
   offset="1"
   style="stop-color:#6F7072"
   id="stop61" />
	</linearGradient>
	<path
   fill="url(#SVGID_6_)"
   d="M14.367,1.801v12.441l-5.886,1.654c0,0,6.104-2.674,3.575-7.54   C9.257,2.969,14.367,1.801,14.367,1.801z"
   id="path63" />
</g>
<g
   transform="matrix(0.0845,0,0,0.0845,5.4121433,5.3294581)"
   id="g1113"
   style="filter:url(#filter1179)"><path
     inkscape:connector-curvature="0"
     sodipodi:nodetypes="ccccccccc"
     id="rect3287"
     d="M 18.083601,8 H 109.9164 C 115.50271,8 120,12.497286 120,18.083601 V 109.9164 C 120,115.50271 115.50271,120 109.9164,120 H 18.083601 C 12.497286,120 8,115.50271 8,109.9164 V 18.083601 C 8,12.497286 12.497286,8 18.083601,8 Z"
     style="fill:url(#linearGradient3289);fill-opacity:1;stroke:none;stroke-width:3;stroke-linecap:round;stroke-linejoin:round;stroke-miterlimit:4;stroke-opacity:1;filter:url(#filter3319)" /><path
     inkscape:connector-curvature="0"
     sodipodi:nodetypes="ccccccccc"
     id="rect8666"
     d="M 18.083601,8 H 109.9164 C 115.50271,8 120,12.497286 120,18.083601 V 109.9164 C 120,115.50271 115.50271,120 109.9164,120 H 18.083601 C 12.497286,120 8,115.50271 8,109.9164 V 18.083601 C 8,12.497286 12.497286,8 18.083601,8 Z"
     style="fill:url(#linearGradient6410);fill-opacity:1;stroke:none;stroke-width:3;stroke-linecap:round;stroke-linejoin:round;stroke-miterlimit:4;stroke-opacity:1" /><path
     inkscape:connector-curvature="0"
     sodipodi:nodetypes="ccccccccc"
     id="rect6672"
     d="M 18.083601,10 H 109.9164 C 115.50271,10 120,14.497286 120,20.083601 V 109.9164 C 120,115.50271 115.50271,120 109.9164,120 H 18.083601 C 12.497286,120 8,115.50271 8,109.9164 V 20.083601 C 8,14.497286 12.497286,10 18.083601,10 Z"
     style="opacity:0.08290154;fill:url(#linearGradient6680);fill-opacity:1;stroke:none;stroke-width:3;stroke-linecap:round;stroke-linejoin:round;stroke-miterlimit:4;stroke-opacity:1" /><path
     inkscape:connector-curvature="0"
     sodipodi:nodetypes="ccccccccc"
     id="rect9641"
     d="m -109.38386,12.614708 h 89.767721 c 3.878793,0 7.001431,3.122638 7.001431,7.001431 v 88.767721 c 0,3.87879 -3.122638,7.00143 -7.001431,7.00143 h -89.767721 c -3.87879,0 -7.00143,-3.12264 -7.00143,-7.00143 V 19.616139 c 0,-3.878793 3.12264,-7.001431 7.00143,-7.001431 z"
     style="fill:url(#radialGradient9692);fill-opacity:1;stroke:none;stroke-width:3;stroke-linecap:round;stroke-linejoin:round;stroke-miterlimit:4;stroke-opacity:1"
     transform="scale(-1,1)" /><path
     inkscape:connector-curvature="0"
     sodipodi:nodetypes="ccccc"
     id="rect6433"
     d="m 17.906944,8.299378 c -4.690175,0 -9.397509,3.568001 -9.397509,9.39874 l 4.267305,-0.05891 c 0.452373,-2.129835 2.851964,-4.270962 4.526605,-4.603385 z"
     style="opacity:0.8876405;fill:url(#linearGradient6452);fill-opacity:1;stroke:none;stroke-width:3;stroke-linecap:round;stroke-linejoin:round;stroke-miterlimit:4;stroke-dasharray:none;stroke-opacity:1;filter:url(#filter6458)" /><path
     inkscape:connector-curvature="0"
     transform="matrix(-1,0,0,1,135.86741,-8)"
     style="opacity:0.8689139;fill:url(#linearGradient6464);fill-opacity:1;stroke:none;stroke-width:3;stroke-linecap:round;stroke-linejoin:round;stroke-miterlimit:4;stroke-dasharray:none;stroke-opacity:1;filter:url(#filter6458)"
     d="m 25.397509,16.46919 c -4.690175,0 -8.967908,3.654709 -8.967908,9.485448 l 4.347139,-0.315433 c 0.452373,-2.129835 2.851964,-4.270962 4.526605,-4.603385 z"
     id="path6462"
     sodipodi:nodetypes="ccccc" /><path
     inkscape:connector-curvature="0"
     sodipodi:nodetypes="ccccccccc"
     id="rect6626"
     d="m 8,105.875 v 4.03125 C 8,115.49256 12.507435,120 18.09375,120 h 91.8125 C 115.49256,120 120,115.49257 120,109.90625 V 105.875 c 0,5.58631 -4.50744,10.09375 -10.09375,10.09375 H 18.09375 C 12.507435,115.96875 8,111.46131 8,105.875 Z"
     style="opacity:0.08290154;fill:url(#linearGradient6637);fill-opacity:1;stroke:none;stroke-width:3;stroke-linecap:round;stroke-linejoin:round;stroke-miterlimit:4;stroke-dasharray:none;stroke-opacity:1" /><path
     inkscape:connector-curvature="0"
     transform="matrix(1,0,0,-1,-8,136.08786)"
     style="opacity:0.32642487;fill:url(#linearGradient1048);fill-opacity:1;stroke:none;stroke-width:3;stroke-linecap:round;stroke-linejoin:round;stroke-miterlimit:4;stroke-dasharray:none;stroke-opacity:1;filter:url(#filter6458)"
     d="m 26.246568,16.978625 c -4.690175,0 -9.477343,3.654709 -9.477343,9.485448 l 4.007515,-0.824868 c 0.452373,-2.129835 2.851964,-4.270962 4.526605,-4.603385 z"
     id="path6466"
     sodipodi:nodetypes="ccccc" /><path
     inkscape:connector-curvature="0"
     sodipodi:nodetypes="ccccc"
     id="path6468"
     d="m 26.246568,16.978625 c -4.690175,0 -9.477343,3.654709 -9.477343,9.485448 l 4.007515,-0.824868 c 0.452373,-2.129835 2.851964,-4.270962 4.526605,-4.603385 z"
     style="opacity:0.17616583;fill:url(#linearGradient6470);fill-opacity:1;stroke:none;stroke-width:3;stroke-linecap:round;stroke-linejoin:round;stroke-miterlimit:4;stroke-dasharray:none;stroke-opacity:1;filter:url(#filter6458)"
     transform="rotate(180,67.933705,68.04393)" /><path
     inkscape:connector-curvature="0"
     sodipodi:nodetypes="ccccccccc"
     style="opacity:0.38860103;fill:url(#radialGradient3179);fill-opacity:1;stroke:none;stroke-width:3;stroke-linecap:round;stroke-linejoin:round;stroke-miterlimit:4;stroke-dasharray:none;stroke-opacity:1"
     d="M 8,22.03871 V 18.00746 C 8,12.42115 12.507435,7.91371 18.09375,7.91371 h 91.8125 C 115.49256,7.91371 120,12.42114 120,18.00746 v 4.03125 C 120,16.4524 115.49256,11.94496 109.90625,11.94496 H 18.09375 C 12.507435,11.94496 8,16.4524 8,22.03871 Z"
     id="path6639" /><g
     transform="translate(0,-1)"
     id="g3227"><path
       inkscape:connector-curvature="0"
       sodipodi:nodetypes="ccccccccc"
       style="opacity:1;fill:url(#linearGradient3231);fill-opacity:1;stroke:none;stroke-width:3;stroke-linecap:round;stroke-linejoin:round;stroke-miterlimit:4;stroke-dasharray:none;stroke-opacity:1"
       d="m 19.441303,13.28125 c -3.990225,0 -7.1875,3.197275 -7.1875,7.1875 v 1 c 0,-3.990225 3.197275,-7.1875 7.1875,-7.1875 H 109.0663 c 3.99023,0 7.1875,3.197275 7.1875,7.1875 v -1 c 0,-3.990225 -3.19727,-7.1875 -7.1875,-7.1875 z"
       id="path3207" /><path
       inkscape:connector-curvature="0"
       sodipodi:nodetypes="cccccccccc"
       style="opacity:1;fill:url(#linearGradient3233);fill-opacity:1;stroke:none;stroke-width:3;stroke-linecap:round;stroke-linejoin:round;stroke-miterlimit:4;stroke-dasharray:none;stroke-opacity:1"
       d="m 112.21077,14.946344 c 1.59536,1.314795 2.625,3.286748 2.625,5.53125 v 34.5 c -0.19337,0.328038 -0.43674,0.667319 -0.71875,1 -27.247777,10.486527 -73.312207,13.488327 -101.874997,6.625 v 0.5625 c 28.98107,7.306633 75.58549,4.377686 103.281247,-6.28125 0.28202,-0.332683 0.52538,-0.671962 0.71875,-1 v -34.5 c 0,-2.853011 -1.64104,-5.274084 -4.03125,-6.4375 z"
       id="path3215" /></g><path
     inkscape:connector-curvature="0"
     sodipodi:nodetypes="ccccccccc"
     id="rect3235"
     d="m -109.38386,13.614708 h 89.767721 c 3.878793,0 7.001431,3.122638 7.001431,7.001431 v 87.767721 c 0,3.87879 -3.122638,7.00143 -7.001431,7.00143 h -89.767721 c -3.87879,0 -7.00143,-3.12264 -7.00143,-7.00143 V 20.616139 c 0,-3.878793 3.12264,-7.001431 7.00143,-7.001431 z"
     style="fill:none;fill-opacity:1;stroke:url(#linearGradient3243);stroke-width:1;stroke-linecap:round;stroke-linejoin:round;stroke-miterlimit:4;stroke-opacity:1;filter:url(#filter3281)"
     transform="scale(-1,1)" /><path
     inkscape:connector-curvature="0"
     sodipodi:nodetypes="cccccccc"
     id="rect9679"
     d="M 19.1875,12.28125 C 15.197275,12.28125 12,15.478525 12,19.46875 V 61.25 c 28.981077,7.306633 75.585499,4.377686 103.28125,-6.28125 0.28202,-0.332683 0.52538,-0.671962 0.71875,-1 v -34.5 c 0,-3.990225 -3.19727,-7.1875 -7.1875,-7.1875 z"
     style="opacity:1;fill:url(#linearGradient2816);fill-opacity:1;stroke:none;stroke-width:3;stroke-linecap:round;stroke-linejoin:round;stroke-miterlimit:4;stroke-dasharray:none;stroke-opacity:1" /><path
     inkscape:connector-curvature="0"
     id="path3419"
     d="m 40.269442,20.35731 c -1.766189,0.04916 -3.417706,0.791991 -4.652507,2.055759 l -19.511679,19.511679 -0.108198,0.07213 c -1.050042,0.737961 -1.877597,1.750707 -2.380352,2.993474 -0.82958,2.050647 -0.561122,4.346392 0.577055,6.167277 0.178277,0.285215 0.354739,0.569962 0.577055,0.829517 0.137514,0.160546 0.278787,0.31981 0.432791,0.468857 0.08093,0.08082 0.131667,0.139897 0.216396,0.216396 l 20.196932,20.196932 c 1.706966,1.777851 4.215135,2.461107 6.600069,1.839363 2.384936,-0.621745 4.247158,-2.447904 4.868903,-4.832837 0.621746,-2.384936 -0.06151,-4.92917 -1.839364,-6.636135 L 36.446452,54.43963 h 30.223265 c 2.454336,0.03471 4.749648,-1.270275 5.986948,-3.390199 1.237301,-2.119922 1.2373,-4.732606 0,-6.85253 -1.237299,-2.119928 -3.532607,-3.388845 -5.986948,-3.354134 H 36.446452 l 8.800091,-8.800091 c 2.002784,-1.958044 2.607455,-4.95881 1.51477,-7.537784 -1.092683,-2.578975 -3.692017,-4.22437 -6.491871,-4.147584 z M 87.47977,57.288842 c -0.599014,-0.0064 -1.207064,0.06096 -1.803297,0.216396 -2.384933,0.621744 -4.211093,2.48397 -4.832837,4.868903 -0.621747,2.384935 0.06151,4.92917 1.839363,6.636135 l 8.800092,8.800092 H 61.259825 c -2.454342,-0.03471 -4.749648,1.234209 -5.986948,3.354133 -1.237297,2.119924 -1.237299,4.732606 0,6.85253 1.237303,2.119922 3.532608,3.424911 5.986948,3.3902 h 30.223266 l -8.800092,8.800089 c -2.00278,1.95805 -2.607455,4.95881 -1.51477,7.53779 1.092687,2.57897 3.655952,4.22436 6.455805,4.14758 1.766188,-0.0492 3.453772,-0.792 4.688574,-2.05576 l 19.475612,-19.511678 0.1082,-0.07213 c 1.05004,-0.737957 1.91366,-1.786773 2.41642,-3.029539 0.82958,-2.050645 0.56111,-4.310327 -0.57706,-6.131212 -0.17827,-0.285216 -0.35474,-0.569962 -0.57705,-0.829517 -0.13752,-0.160542 -0.27879,-0.319809 -0.43279,-0.468857 -0.0809,-0.08082 -0.16774,-0.175963 -0.25247,-0.252462 L 92.312608,59.380667 C 91.032382,58.047281 89.276815,57.308106 87.47977,57.288842 Z"
     style="fill:url(#radialGradient3443);fill-opacity:1;fill-rule:evenodd;stroke:none;stroke-width:16;stroke-linecap:round;stroke-linejoin:round;stroke-miterlimit:4;stroke-dasharray:none;stroke-opacity:1" /><g
     style="opacity:0.70108696"
     transform="matrix(1.1541104,0,0,1.1541104,148.73354,-11.090549)"
     id="g3507"><path
       inkscape:connector-curvature="0"
       style="fill:#313131;fill-opacity:1;fill-rule:evenodd;stroke:none;stroke-width:16;stroke-linecap:round;stroke-linejoin:round;stroke-miterlimit:4;stroke-dasharray:none;stroke-opacity:1;filter:url(#filter3487)"
       d="m -93.9375,25.519523 c -1.53035,0.0426 -2.961334,0.686235 -4.03125,1.78125 l -16.90625,16.90625 -0.0937,0.0625 c -0.90982,0.63942 -1.62687,1.51693 -2.0625,2.59375 -0.48173,1.19081 -0.53213,2.46245 -0.21875,3.65625 0.0605,-0.22752 0.1289,-0.43415 0.21875,-0.65625 0.43563,-1.07682 1.15268,-1.95433 2.0625,-2.59375 l 0.0937,-0.0625 16.90625,-16.90625 c 1.069916,-1.095015 2.5009,-1.738651 4.03125,-1.78125 2.425984,-0.06653 4.678222,1.359151 5.625,3.59375 0.109142,0.257599 0.179549,0.515881 0.25,0.78125 0.319272,-1.232878 0.267655,-2.559473 -0.25,-3.78125 -0.946778,-2.234599 -3.199016,-3.660283 -5.625,-3.59375 z m -0.3125,17.75 -3,3 h 26.1875 c 2.126608,-0.03008 4.115417,1.0694 5.1875,2.90625 0.26802,0.45921 0.49099,0.93826 0.625,1.4375 0.39122,-1.4892 0.173628,-3.06918 -0.625,-4.4375 -1.072083,-1.83685 -3.060892,-2.93633 -5.1875,-2.90625 z m 41.21875,14.25 c -0.519026,-0.0056 -1.045883,0.05282 -1.5625,0.1875 -2.066468,0.53872 -3.648778,2.15228 -4.1875,4.21875 -0.258483,0.99151 -0.242008,2.00907 0,2.96875 0.545922,-2.05254 2.130719,-3.65131 4.1875,-4.1875 0.516617,-0.13468 1.043474,-0.19307 1.5625,-0.1875 1.557082,0.01669 3.078226,0.65716 4.1875,1.8125 l 17.46875,17.46875 c 0.07341,0.06628 0.148629,0.14872 0.21875,0.21875 0.13344,0.12914 0.255849,0.26714 0.375,0.40625 0.19263,0.22489 0.345529,0.47162 0.5,0.71875 0.32873,0.52591 0.564808,1.09789 0.71875,1.6875 0.448801,-1.60577 0.155864,-3.28826 -0.71875,-4.6875 -0.154471,-0.24713 -0.30737,-0.49386 -0.5,-0.71875 -0.119151,-0.13911 -0.24156,-0.27711 -0.375,-0.40625 -0.07012,-0.07003 -0.14534,-0.15247 -0.21875,-0.21875 l -17.46875,-17.46875 c -1.109274,-1.15534 -2.630418,-1.79581 -4.1875,-1.8125 z m -44.21875,0.53125 7.625,7.625 c 0.770224,0.73951 1.320529,1.66194 1.59375,2.65625 0.498841,-2.04041 -0.07552,-4.19855 -1.59375,-5.65625 l -4.625,-4.625 z m 21.5,17.25 c -2.126612,-0.03008 -4.115419,1.0694 -5.1875,2.90625 -0.79871,1.36846 -0.985131,2.94818 -0.59375,4.4375 0.13401,-0.49924 0.32573,-0.97829 0.59375,-1.4375 1.072081,-1.83685 3.060888,-2.93633 5.1875,-2.90625 h 26.1875 l -3,-3 z m 23.1875,14.78125 -4.625,4.625 c -1.541748,1.50731 -2.114983,3.70628 -1.5625,5.749997 0.264413,-1.023067 0.775249,-1.980337 1.5625,-2.749997 l 7.625,-7.625 z"
       id="path3453"
       clip-path="url(#clipPath3495)" /><path
       inkscape:connector-curvature="0"
       style="fill:#ffffff;fill-opacity:1;fill-rule:evenodd;stroke:none;stroke-width:16;stroke-linecap:round;stroke-linejoin:round;stroke-miterlimit:4;stroke-dasharray:none;stroke-opacity:1;filter:url(#filter3491)"
       d="m -183.625,32.269464 c -0.26441,1.02307 -0.77525,1.98033 -1.5625,2.75 l -7.625,7.625 h 3 l 4.625,-4.625 c 1.54174,-1.50732 2.11498,-3.70628 1.5625,-5.75 z m -29.1875,17.65625 c -0.42353,1.59265 -0.14417,3.27573 0.71875,4.65625 0.15448,0.24714 0.30737,0.49385 0.5,0.71875 0.11916,0.13911 0.24156,0.2771 0.375,0.40625 0.0701,0.07004 0.11409,0.12121 0.1875,0.1875 l 17.5,17.5 c 1.47903,1.54046 3.65228,2.13247 5.71875,1.59375 2.06647,-0.53872 3.68002,-2.12103 4.21875,-4.1875 0.25848,-0.9915 0.24201,-2.00907 0,-2.96875 -0.54598,2.05271 -2.16166,3.61997 -4.21875,4.15625 -2.06647,0.53872 -4.23972,-0.05329 -5.71875,-1.59375 l -17.5,-17.5 c -0.0734,-0.06629 -0.11738,-0.11746 -0.1875,-0.1875 -0.13344,-0.12915 -0.25584,-0.26714 -0.375,-0.40625 -0.19263,-0.2249 -0.34552,-0.47161 -0.5,-0.71875 -0.3233,-0.51723 -0.5644,-1.07256 -0.71875,-1.65625 z m 51.96875,0.125 c -0.13401,0.49924 -0.32573,0.97829 -0.59375,1.4375 -1.07208,1.83684 -3.0609,2.96758 -5.1875,2.9375 h -26.1875 l 3,3 h 23.1875 c 2.1266,0.03008 4.11542,-1.10066 5.1875,-2.9375 0.79871,-1.36846 0.98513,-2.94818 0.59375,-4.4375 z m 6.5,14.3125 c -0.51203,2.04916 0.0681,4.22269 1.59375,5.6875 l 4.625,4.625 h 3 l -7.625,-7.625 c -0.78504,-0.75374 -1.32547,-1.67123 -1.59375,-2.6875 z m -22.78125,17.71875 c -0.39122,1.48919 -0.17363,3.06917 0.625,4.4375 1.07208,1.83685 3.06089,2.96757 5.1875,2.9375 h 23.1875 l 3,-3 h -26.1875 c -2.12661,0.03007 -4.11542,-1.10065 -5.1875,-2.9375 -0.26802,-0.45921 -0.49099,-0.93826 -0.625,-1.4375 z m 52,0.09375 c -0.0605,0.22667 -0.1289,0.43415 -0.21875,0.65625 -0.43562,1.07681 -1.18392,1.98559 -2.09375,2.625 l -0.0937,0.0625 -16.875,16.906246 c -1.06992,1.09501 -2.53216,1.73866 -4.0625,1.78125 -2.42599,0.0665 -4.64698,-1.35914 -5.59375,-3.59375 -0.10914,-0.2576 -0.17955,-0.51588 -0.25,-0.781246 -0.32816,1.241076 -0.27176,2.549776 0.25,3.781246 0.94677,2.23461 3.16776,3.66028 5.59375,3.59375 1.53034,-0.0426 2.99258,-0.68624 4.0625,-1.78125 l 16.875,-16.906246 0.0937,-0.0625 c 0.90983,-0.63941 1.65813,-1.54819 2.09375,-2.625 0.48316,-1.19432 0.53523,-2.46873 0.21875,-3.65625 z"
       id="path3462"
       clip-path="url(#clipPath3501)"
       transform="translate(95.577598)" /></g></g></svg>