<?xml version="1.0" encoding="utf-8"?>
<!-- Generator: Adobe Illustrator 14.0.0, SVG Export Plug-In . SVG Version: 6.00 Build 43363)  -->
<!DOCTYPE svg PUBLIC "-//W3C//DTD SVG 1.1//EN" "http://www.w3.org/Graphics/SVG/1.1/DTD/svg11.dtd">
<svg version="1.1" id="Ebene_1" xmlns="http://www.w3.org/2000/svg" xmlns:xlink="http://www.w3.org/1999/xlink" x="0px" y="0px"
	 width="64px" height="64px" viewBox="0 0 64 64" enable-background="new 0 0 64 64" xml:space="preserve">
<g>
	
		<radialGradient id="SVGID_1_" cx="29.3064" cy="113.4346" r="30.6794" gradientTransform="matrix(0.9376 0 0.01 0.6095 3.6207 -51.6258)" gradientUnits="userSpaceOnUse">
		<stop  offset="0.6626" style="stop-color:#FFFFFF"/>
		<stop  offset="1" style="stop-color:#A2BADC"/>
	</radialGradient>
	<path fill="url(#SVGID_1_)" stroke="#ADD7EF" stroke-width="0.3253" d="M25.375,3.638c0,0-6.537-2.432-9.269,2.666
		c0,0-4.221-2.061-5.711,1.73c0,0-5.627,0.57-5.047,6.885c0,0-3.559,3.758,0.166,7.137c0,0,0.578,7.144,10.178,5.81
		c0,0-0.166,3.896,6.041,3.667c0,0,3.476,2.878,7.529-0.042c0,0,2.153,3.521,7.697,1.87c0,0,1.986,1.689,4.223-0.015
		c0,0,11.751,3.514,14.562-5.482c0,0,4.385-1.255,3.145-5.836c0,0,2.812-1.613,0.247-4.808c0,0,4.303-6.316-1.901-9.404
		c0,0-0.992-4.332-5.627-3.163c0,0-4.881-6.054-11.004-2.007c0,0-2.65-2.201-4.637-0.159C35.967,2.485,29.595-1.271,25.375,3.638z"
		/>
	<g>
		
			<linearGradient id="SVGID_2_" gradientUnits="userSpaceOnUse" x1="2.8025" y1="46.0713" x2="25.4584" y2="46.0713" gradientTransform="matrix(1 0 0 1 0.2803 -0.1104)">
			<stop  offset="0.2945" style="stop-color:#3E3D40"/>
			<stop  offset="0.6258" style="stop-color:#B1B3B4"/>
			<stop  offset="1" style="stop-color:#6F7072"/>
		</linearGradient>
		<path fill="url(#SVGID_2_)" d="M9.695,31.961v28.173c0,0,2,3.151,15.309,2.414V29.649C25.004,29.649,15.349,27.862,9.695,31.961z"
			/>
		
			<linearGradient id="SVGID_3_" gradientUnits="userSpaceOnUse" x1="22.3425" y1="35.1719" x2="47.4343" y2="84.7581" gradientTransform="matrix(1 0 0 1 0.2803 -0.1104)">
			<stop  offset="0.2331" style="stop-color:#B4B5B7"/>
			<stop  offset="0.6258" style="stop-color:#D8D8DA"/>
			<stop  offset="1" style="stop-color:#6F7072"/>
		</linearGradient>
		<polygon fill="url(#SVGID_3_)" points="33.115,33.015 33.115,59.082 25.004,62.548 25.004,29.649 		"/>
		
			<linearGradient id="SVGID_4_" gradientUnits="userSpaceOnUse" x1="22.8816" y1="33.8643" x2="49.1652" y2="96.3757" gradientTransform="matrix(1 0 0 1 0.2803 -0.1104)">
			<stop  offset="0.3865" style="stop-color:#B4B5B7"/>
			<stop  offset="0.6258" style="stop-color:#D8D8DA"/>
			<stop  offset="1" style="stop-color:#6F7072"/>
		</linearGradient>
		<path fill="url(#SVGID_4_)" d="M33.115,33.015v26.067l-8.111,3.466c0,0,8.411-5.603,4.927-15.798
			C26.073,35.463,33.115,33.015,33.115,33.015z"/>
		<path fill="#3E3D40" d="M16.295,43.737c-4.123,0.313-5.417,0.521-5.417,0.521v15.35c0,0,3.536,2.218,12.485,1.48V43.534
			C23.363,43.535,20.419,43.416,16.295,43.737z"/>
		
			<linearGradient id="SVGID_5_" gradientUnits="userSpaceOnUse" x1="-2.491" y1="52.752" x2="27.2182" y2="52.752" gradientTransform="matrix(1 0 0 1 0.2803 -0.1104)">
			<stop  offset="0.3742" style="stop-color:#000000"/>
			<stop  offset="0.5644" style="stop-color:#9C9E9F"/>
			<stop  offset="0.9325" style="stop-color:#000000"/>
		</linearGradient>
		<path fill="url(#SVGID_5_)" d="M15.936,44c-4.124,0.315-5.421,0.526-5.421,0.526v15.346c0,0,3.537,2.219,12.489,1.481V43.799
			C23.005,43.799,20.059,43.687,15.936,44z"/>
		
			<linearGradient id="SVGID_6_" gradientUnits="userSpaceOnUse" x1="10.5964" y1="37.7188" x2="23.0818" y2="37.7188" gradientTransform="matrix(1 0 0 1 0.2803 -0.1104)">
			<stop  offset="0" style="stop-color:#000000"/>
			<stop  offset="0.3865" style="stop-color:#58585A"/>
			<stop  offset="1" style="stop-color:#3E3D40"/>
		</linearGradient>
		<path fill="url(#SVGID_6_)" d="M10.877,39.846v-2.845c0,0,3.888-1.99,12.485-1.571v3.259
			C23.363,38.688,17.357,38.162,10.877,39.846z"/>
		
			<linearGradient id="SVGID_7_" gradientUnits="userSpaceOnUse" x1="-2.491" y1="37.4531" x2="27.2182" y2="37.4531" gradientTransform="matrix(1 0 0 1 0.2803 -0.1104)">
			<stop  offset="0.3742" style="stop-color:#000000"/>
			<stop  offset="0.5644" style="stop-color:#9C9E9F"/>
			<stop  offset="0.9325" style="stop-color:#000000"/>
		</linearGradient>
		<path fill="url(#SVGID_7_)" d="M10.515,39.579v-2.843c0,0,3.889-1.992,12.489-1.572v3.256
			C23.005,38.42,16.996,37.896,10.515,39.579z"/>
		
			<linearGradient id="SVGID_8_" gradientUnits="userSpaceOnUse" x1="10.5964" y1="33.2334" x2="23.0818" y2="33.2334" gradientTransform="matrix(1 0 0 1 0.2803 -0.1104)">
			<stop  offset="0" style="stop-color:#000000"/>
			<stop  offset="0.3865" style="stop-color:#58585A"/>
			<stop  offset="1" style="stop-color:#3E3D40"/>
		</linearGradient>
		<path fill="url(#SVGID_8_)" d="M10.877,35.534v-2.837c0,0,3.77-2.731,12.485-1.786v3.047
			C23.363,33.958,15.825,33.536,10.877,35.534z"/>
		
			<linearGradient id="SVGID_9_" gradientUnits="userSpaceOnUse" x1="-2.491" y1="32.9678" x2="27.2182" y2="32.9678" gradientTransform="matrix(1 0 0 1 0.2803 -0.1104)">
			<stop  offset="0.3742" style="stop-color:#000000"/>
			<stop  offset="0.5644" style="stop-color:#9C9E9F"/>
			<stop  offset="0.9325" style="stop-color:#000000"/>
		</linearGradient>
		<path fill="url(#SVGID_9_)" d="M10.515,35.27v-2.839c0,0,3.771-2.731,12.489-1.787v3.05C23.005,33.693,15.466,33.273,10.515,35.27
			z"/>
		
			<linearGradient id="SVGID_10_" gradientUnits="userSpaceOnUse" x1="15.4275" y1="40.3477" x2="17.4019" y2="43.1121" gradientTransform="matrix(1 0 0 1 0.2803 -0.1104)">
			<stop  offset="0" style="stop-color:#FFFFFF"/>
			<stop  offset="0.3865" style="stop-color:#B4B5B7"/>
			<stop  offset="0.6258" style="stop-color:#D8D8DA"/>
			<stop  offset="1" style="stop-color:#6F7072"/>
		</linearGradient>
		<path fill="url(#SVGID_10_)" stroke="#3E3D40" stroke-width="0.4457" d="M17.969,41.422c0,0.697-0.635,1.263-1.416,1.263
			c-0.778,0-1.414-0.564-1.414-1.263s0.636-1.26,1.414-1.26C17.335,40.162,17.969,40.726,17.969,41.422z"/>
		
			<linearGradient id="SVGID_11_" gradientUnits="userSpaceOnUse" x1="15.9167" y1="41.0576" x2="17.5798" y2="42.5287" gradientTransform="matrix(1 0 0 1 0.2803 -0.1104)">
			<stop  offset="0" style="stop-color:#000000"/>
			<stop  offset="0.3865" style="stop-color:#58585A"/>
			<stop  offset="1" style="stop-color:#3E3D40"/>
		</linearGradient>
		<path fill="url(#SVGID_11_)" d="M17.707,41.422c0,0.479-0.438,0.866-0.976,0.866c-0.531,0-0.969-0.387-0.969-0.866
			c0-0.476,0.438-0.868,0.969-0.868C17.269,40.554,17.707,40.947,17.707,41.422z"/>
	</g>
	<g>
		<g>
			
				<linearGradient id="SVGID_12_" gradientUnits="userSpaceOnUse" x1="6.2957" y1="18.4092" x2="14.4854" y2="18.4092" gradientTransform="matrix(1 0 0 1 0.2803 -0.1104)">
				<stop  offset="0.2945" style="stop-color:#3E3D40"/>
				<stop  offset="0.6258" style="stop-color:#B1B3B4"/>
				<stop  offset="1" style="stop-color:#6F7072"/>
			</linearGradient>
			<path fill="url(#SVGID_12_)" d="M8.967,13.236v10.187c0,0,0.723,1.141,5.534,0.875V12.399C14.5,12.399,11.01,11.753,8.967,13.236
				z"/>
			
				<linearGradient id="SVGID_13_" gradientUnits="userSpaceOnUse" x1="13.3591" y1="14.4673" x2="22.4325" y2="32.3979" gradientTransform="matrix(1 0 0 1 0.2803 -0.1104)">
				<stop  offset="0.2331" style="stop-color:#B4B5B7"/>
				<stop  offset="0.6258" style="stop-color:#D8D8DA"/>
				<stop  offset="1" style="stop-color:#6F7072"/>
			</linearGradient>
			<polygon fill="url(#SVGID_13_)" points="17.434,13.618 17.434,23.042 14.5,24.296 14.5,12.399 			"/>
			
				<linearGradient id="SVGID_14_" gradientUnits="userSpaceOnUse" x1="13.5544" y1="13.9961" x2="23.0582" y2="36.5994" gradientTransform="matrix(1 0 0 1 0.2803 -0.1104)">
				<stop  offset="0.3865" style="stop-color:#B4B5B7"/>
				<stop  offset="0.6258" style="stop-color:#D8D8DA"/>
				<stop  offset="1" style="stop-color:#6F7072"/>
			</linearGradient>
			<path fill="url(#SVGID_14_)" d="M17.434,13.618v9.424L14.5,24.296c0,0,3.042-2.027,1.782-5.712
				C14.888,14.501,17.434,13.618,17.434,13.618z"/>
			<path fill="#3E3D40" d="M11.351,17.493c-1.491,0.115-1.959,0.191-1.959,0.191v5.549c0,0,1.279,0.802,4.516,0.537v-6.348
				C13.907,17.421,12.843,17.379,11.351,17.493z"/>
			
				<linearGradient id="SVGID_15_" gradientUnits="userSpaceOnUse" x1="4.3811" y1="20.8252" x2="15.122" y2="20.8252" gradientTransform="matrix(1 0 0 1 0.2803 -0.1104)">
				<stop  offset="0.3742" style="stop-color:#000000"/>
				<stop  offset="0.5644" style="stop-color:#9C9E9F"/>
				<stop  offset="0.9325" style="stop-color:#000000"/>
			</linearGradient>
			<path fill="url(#SVGID_15_)" d="M11.222,17.59c-1.492,0.113-1.959,0.189-1.959,0.189v5.55c0,0,1.278,0.802,4.516,0.536v-6.347
				C13.778,17.519,12.714,17.476,11.222,17.59z"/>
			
				<linearGradient id="SVGID_16_" gradientUnits="userSpaceOnUse" x1="9.1121" y1="15.3896" x2="13.6277" y2="15.3896" gradientTransform="matrix(1 0 0 1 0.2803 -0.1104)">
				<stop  offset="0" style="stop-color:#000000"/>
				<stop  offset="0.3865" style="stop-color:#58585A"/>
				<stop  offset="1" style="stop-color:#3E3D40"/>
			</linearGradient>
			<path fill="url(#SVGID_16_)" d="M9.392,16.088V15.06c0,0,1.407-0.721,4.516-0.568v1.177
				C13.907,15.668,11.735,15.478,9.392,16.088z"/>
			
				<linearGradient id="SVGID_17_" gradientUnits="userSpaceOnUse" x1="4.3811" y1="15.292" x2="15.122" y2="15.292" gradientTransform="matrix(1 0 0 1 0.2803 -0.1104)">
				<stop  offset="0.3742" style="stop-color:#000000"/>
				<stop  offset="0.5644" style="stop-color:#9C9E9F"/>
				<stop  offset="0.9325" style="stop-color:#000000"/>
			</linearGradient>
			<path fill="url(#SVGID_17_)" d="M9.262,15.991v-1.028c0,0,1.406-0.722,4.516-0.569v1.179
				C13.778,15.572,11.605,15.381,9.262,15.991z"/>
			
				<linearGradient id="SVGID_18_" gradientUnits="userSpaceOnUse" x1="9.1121" y1="13.7666" x2="13.6277" y2="13.7666" gradientTransform="matrix(1 0 0 1 0.2803 -0.1104)">
				<stop  offset="0" style="stop-color:#000000"/>
				<stop  offset="0.3865" style="stop-color:#58585A"/>
				<stop  offset="1" style="stop-color:#3E3D40"/>
			</linearGradient>
			<path fill="url(#SVGID_18_)" d="M9.392,14.528v-1.025c0,0,1.363-0.988,4.516-0.646v1.103
				C13.907,13.958,11.182,13.806,9.392,14.528z"/>
			
				<linearGradient id="SVGID_19_" gradientUnits="userSpaceOnUse" x1="4.3811" y1="13.6709" x2="15.122" y2="13.6709" gradientTransform="matrix(1 0 0 1 0.2803 -0.1104)">
				<stop  offset="0.3742" style="stop-color:#000000"/>
				<stop  offset="0.5644" style="stop-color:#9C9E9F"/>
				<stop  offset="0.9325" style="stop-color:#000000"/>
			</linearGradient>
			<path fill="url(#SVGID_19_)" d="M9.262,14.433v-1.025c0,0,1.363-0.988,4.516-0.646v1.103
				C13.778,13.863,11.052,13.71,9.262,14.433z"/>
			
				<linearGradient id="SVGID_20_" gradientUnits="userSpaceOnUse" x1="10.8596" y1="16.3408" x2="11.572" y2="17.3382" gradientTransform="matrix(1 0 0 1 0.2803 -0.1104)">
				<stop  offset="0" style="stop-color:#FFFFFF"/>
				<stop  offset="0.3865" style="stop-color:#B4B5B7"/>
				<stop  offset="0.6258" style="stop-color:#D8D8DA"/>
				<stop  offset="1" style="stop-color:#6F7072"/>
			</linearGradient>
			<ellipse fill="url(#SVGID_20_)" stroke="#3E3D40" stroke-width="0.1611" cx="11.445" cy="16.658" rx="0.512" ry="0.455"/>
			
				<linearGradient id="SVGID_21_" gradientUnits="userSpaceOnUse" x1="11.0354" y1="16.5947" x2="11.6376" y2="17.1274" gradientTransform="matrix(1 0 0 1 0.2803 -0.1104)">
				<stop  offset="0" style="stop-color:#000000"/>
				<stop  offset="0.3865" style="stop-color:#58585A"/>
				<stop  offset="1" style="stop-color:#3E3D40"/>
			</linearGradient>
			<path fill="url(#SVGID_21_)" d="M11.862,16.657c0,0.173-0.158,0.312-0.353,0.312c-0.192,0-0.351-0.14-0.351-0.312
				c0-0.174,0.158-0.314,0.351-0.314C11.704,16.343,11.862,16.483,11.862,16.657z"/>
		</g>
		<g>
			
				<linearGradient id="SVGID_22_" gradientUnits="userSpaceOnUse" x1="11.4333" y1="18.4346" x2="20.98" y2="18.4346" gradientTransform="matrix(1 0 0 1 0.2803 -0.1104)">
				<stop  offset="0.2945" style="stop-color:#3E3D40"/>
				<stop  offset="0.6258" style="stop-color:#B1B3B4"/>
				<stop  offset="1" style="stop-color:#6F7072"/>
			</linearGradient>
			<path fill="url(#SVGID_22_)" d="M14.5,12.425v11.872c0,0,0.843,1.33,6.45,1.019V11.449C20.951,11.449,16.884,10.695,14.5,12.425z
				"/>
			
				<linearGradient id="SVGID_23_" gradientUnits="userSpaceOnUse" x1="19.6667" y1="13.8408" x2="30.2415" y2="34.7387" gradientTransform="matrix(1 0 0 1 0.2803 -0.1104)">
				<stop  offset="0.2331" style="stop-color:#B4B5B7"/>
				<stop  offset="0.6258" style="stop-color:#D8D8DA"/>
				<stop  offset="1" style="stop-color:#6F7072"/>
			</linearGradient>
			<polygon fill="url(#SVGID_23_)" points="24.37,12.869 24.37,23.853 20.951,25.315 20.951,11.449 			"/>
			
				<linearGradient id="SVGID_24_" gradientUnits="userSpaceOnUse" x1="19.8943" y1="13.2905" x2="30.971" y2="39.6349" gradientTransform="matrix(1 0 0 1 0.2803 -0.1104)">
				<stop  offset="0.3865" style="stop-color:#B4B5B7"/>
				<stop  offset="0.6258" style="stop-color:#D8D8DA"/>
				<stop  offset="1" style="stop-color:#6F7072"/>
			</linearGradient>
			<path fill="url(#SVGID_24_)" d="M24.37,12.869v10.983l-3.419,1.463c0,0,3.546-2.362,2.078-6.658
				C21.402,13.897,24.37,12.869,24.37,12.869z"/>
			<path fill="#3E3D40" d="M17.282,17.386C15.545,17.519,15,17.606,15,17.606v6.47c0,0,1.488,0.935,5.261,0.624v-7.398
				C20.26,17.302,19.019,17.253,17.282,17.386z"/>
			
				<linearGradient id="SVGID_25_" gradientUnits="userSpaceOnUse" x1="9.2029" y1="21.2495" x2="21.7221" y2="21.2495" gradientTransform="matrix(1 0 0 1 0.2803 -0.1104)">
				<stop  offset="0.3742" style="stop-color:#000000"/>
				<stop  offset="0.5644" style="stop-color:#9C9E9F"/>
				<stop  offset="0.9325" style="stop-color:#000000"/>
			</linearGradient>
			<path fill="url(#SVGID_25_)" d="M17.131,17.497c-1.738,0.132-2.284,0.221-2.284,0.221v6.469c0,0,1.491,0.934,5.263,0.625v-7.398
				C20.109,17.413,18.868,17.365,17.131,17.497z"/>
			
				<linearGradient id="SVGID_26_" gradientUnits="userSpaceOnUse" x1="14.7185" y1="14.9141" x2="19.9792" y2="14.9141" gradientTransform="matrix(1 0 0 1 0.2803 -0.1104)">
				<stop  offset="0" style="stop-color:#000000"/>
				<stop  offset="0.3865" style="stop-color:#58585A"/>
				<stop  offset="1" style="stop-color:#3E3D40"/>
			</linearGradient>
			<path fill="url(#SVGID_26_)" d="M14.999,15.746v-1.198c0,0,1.637-0.84,5.261-0.662v1.373
				C20.26,15.259,17.728,15.037,14.999,15.746z"/>
			
				<linearGradient id="SVGID_27_" gradientUnits="userSpaceOnUse" x1="9.2029" y1="14.8018" x2="21.7233" y2="14.8018" gradientTransform="matrix(1 0 0 1 0.2803 -0.1104)">
				<stop  offset="0.3742" style="stop-color:#000000"/>
				<stop  offset="0.5644" style="stop-color:#9C9E9F"/>
				<stop  offset="0.9325" style="stop-color:#000000"/>
			</linearGradient>
			<path fill="url(#SVGID_27_)" d="M14.846,15.634v-1.197c0,0,1.639-0.842,5.264-0.662v1.371
				C20.109,15.146,17.577,14.925,14.846,15.634z"/>
			
				<linearGradient id="SVGID_28_" gradientUnits="userSpaceOnUse" x1="14.7185" y1="13.0234" x2="19.9792" y2="13.0234" gradientTransform="matrix(1 0 0 1 0.2803 -0.1104)">
				<stop  offset="0" style="stop-color:#000000"/>
				<stop  offset="0.3865" style="stop-color:#58585A"/>
				<stop  offset="1" style="stop-color:#3E3D40"/>
			</linearGradient>
			<path fill="url(#SVGID_28_)" d="M14.999,13.929v-1.195c0,0,1.588-1.15,5.261-0.752v1.283
				C20.26,13.265,17.085,13.087,14.999,13.929z"/>
			
				<linearGradient id="SVGID_29_" gradientUnits="userSpaceOnUse" x1="9.2029" y1="12.9111" x2="21.7233" y2="12.9111" gradientTransform="matrix(1 0 0 1 0.2803 -0.1104)">
				<stop  offset="0.3742" style="stop-color:#000000"/>
				<stop  offset="0.5644" style="stop-color:#9C9E9F"/>
				<stop  offset="0.9325" style="stop-color:#000000"/>
			</linearGradient>
			<path fill="url(#SVGID_29_)" d="M14.846,13.817v-1.195c0,0,1.589-1.152,5.264-0.754v1.286
				C20.109,13.154,16.931,12.976,14.846,13.817z"/>
			
				<linearGradient id="SVGID_30_" gradientUnits="userSpaceOnUse" x1="16.7546" y1="16.022" x2="17.5883" y2="17.1892" gradientTransform="matrix(1 0 0 1 0.2803 -0.1104)">
				<stop  offset="0" style="stop-color:#FFFFFF"/>
				<stop  offset="0.3865" style="stop-color:#B4B5B7"/>
				<stop  offset="0.6258" style="stop-color:#D8D8DA"/>
				<stop  offset="1" style="stop-color:#6F7072"/>
			</linearGradient>
			<path fill="url(#SVGID_30_)" stroke="#3E3D40" stroke-width="0.1878" d="M17.987,16.411c0,0.293-0.268,0.531-0.596,0.531
				c-0.329,0-0.597-0.238-0.597-0.531s0.268-0.531,0.597-0.531C17.719,15.88,17.987,16.117,17.987,16.411z"/>
			
				<linearGradient id="SVGID_31_" gradientUnits="userSpaceOnUse" x1="16.9612" y1="16.3223" x2="17.6622" y2="16.9424" gradientTransform="matrix(1 0 0 1 0.2803 -0.1104)">
				<stop  offset="0" style="stop-color:#000000"/>
				<stop  offset="0.3865" style="stop-color:#58585A"/>
				<stop  offset="1" style="stop-color:#3E3D40"/>
			</linearGradient>
			<path fill="url(#SVGID_31_)" d="M17.877,16.411c0,0.202-0.185,0.365-0.411,0.365c-0.226,0-0.409-0.164-0.409-0.365
				s0.184-0.367,0.409-0.367C17.692,16.045,17.877,16.21,17.877,16.411z"/>
		</g>
		<g>
			
				<linearGradient id="SVGID_32_" gradientUnits="userSpaceOnUse" x1="17.4202" y1="18.458" x2="28.5569" y2="18.458" gradientTransform="matrix(1 0 0 1 0.2803 -0.1104)">
				<stop  offset="0.2945" style="stop-color:#3E3D40"/>
				<stop  offset="0.6258" style="stop-color:#B1B3B4"/>
				<stop  offset="1" style="stop-color:#6F7072"/>
			</linearGradient>
			<path fill="url(#SVGID_32_)" d="M20.951,11.466v13.85c0,0,0.983,1.548,7.525,1.187V10.329
				C28.476,10.329,23.729,9.451,20.951,11.466z"/>
			
				<linearGradient id="SVGID_33_" gradientUnits="userSpaceOnUse" x1="27.0242" y1="13.1006" x2="39.3573" y2="37.4733" gradientTransform="matrix(1 0 0 1 0.2803 -0.1104)">
				<stop  offset="0.2331" style="stop-color:#B4B5B7"/>
				<stop  offset="0.6258" style="stop-color:#D8D8DA"/>
				<stop  offset="1" style="stop-color:#6F7072"/>
			</linearGradient>
			<polygon fill="url(#SVGID_33_)" points="32.462,11.985 32.462,24.796 28.476,26.501 28.476,10.329 			"/>
			
				<linearGradient id="SVGID_34_" gradientUnits="userSpaceOnUse" x1="27.2893" y1="12.4595" x2="40.2081" y2="43.1849" gradientTransform="matrix(1 0 0 1 0.2803 -0.1104)">
				<stop  offset="0.3865" style="stop-color:#B4B5B7"/>
				<stop  offset="0.6258" style="stop-color:#D8D8DA"/>
				<stop  offset="1" style="stop-color:#6F7072"/>
			</linearGradient>
			<path fill="url(#SVGID_34_)" d="M32.462,11.985v12.812l-3.985,1.704c0,0,4.135-2.755,2.421-7.765
				C29.002,13.187,32.462,11.985,32.462,11.985z"/>
			<path fill="#3E3D40" d="M24.194,17.254c-2.024,0.155-2.663,0.259-2.663,0.259v7.545c0,0,1.738,1.09,6.139,0.728v-8.629
				C27.67,17.155,26.222,17.099,24.194,17.254z"/>
			
				<linearGradient id="SVGID_35_" gradientUnits="userSpaceOnUse" x1="14.821" y1="21.7417" x2="29.4194" y2="21.7417" gradientTransform="matrix(1 0 0 1 0.2803 -0.1104)">
				<stop  offset="0.3742" style="stop-color:#000000"/>
				<stop  offset="0.5644" style="stop-color:#9C9E9F"/>
				<stop  offset="0.9325" style="stop-color:#000000"/>
			</linearGradient>
			<path fill="url(#SVGID_35_)" d="M24.019,17.384c-2.028,0.155-2.665,0.258-2.665,0.258v7.543c0,0,1.738,1.09,6.137,0.729v-8.629
				C27.491,17.286,26.047,17.228,24.019,17.384z"/>
			
				<linearGradient id="SVGID_36_" gradientUnits="userSpaceOnUse" x1="21.2507" y1="14.3535" x2="27.3894" y2="14.3535" gradientTransform="matrix(1 0 0 1 0.2803 -0.1104)">
				<stop  offset="0" style="stop-color:#000000"/>
				<stop  offset="0.3865" style="stop-color:#58585A"/>
				<stop  offset="1" style="stop-color:#3E3D40"/>
			</linearGradient>
			<path fill="url(#SVGID_36_)" d="M21.531,15.343v-1.397c0,0,1.91-0.979,6.139-0.773v1.603
				C27.67,14.774,24.718,14.515,21.531,15.343z"/>
			
				<linearGradient id="SVGID_37_" gradientUnits="userSpaceOnUse" x1="14.821" y1="14.2222" x2="29.4194" y2="14.2222" gradientTransform="matrix(1 0 0 1 0.2803 -0.1104)">
				<stop  offset="0.3742" style="stop-color:#000000"/>
				<stop  offset="0.5644" style="stop-color:#9C9E9F"/>
				<stop  offset="0.9325" style="stop-color:#000000"/>
			</linearGradient>
			<path fill="url(#SVGID_37_)" d="M21.354,15.211v-1.397c0,0,1.912-0.979,6.137-0.771v1.6
				C27.491,14.642,24.54,14.384,21.354,15.211z"/>
			
				<linearGradient id="SVGID_38_" gradientUnits="userSpaceOnUse" x1="21.2507" y1="12.1484" x2="27.3894" y2="12.1484" gradientTransform="matrix(1 0 0 1 0.2803 -0.1104)">
				<stop  offset="0" style="stop-color:#000000"/>
				<stop  offset="0.3865" style="stop-color:#58585A"/>
				<stop  offset="1" style="stop-color:#3E3D40"/>
			</linearGradient>
			<path fill="url(#SVGID_38_)" d="M21.531,13.224v-1.396c0,0,1.854-1.343,6.139-0.877v1.497
				C27.67,12.449,23.966,12.241,21.531,13.224z"/>
			
				<linearGradient id="SVGID_39_" gradientUnits="userSpaceOnUse" x1="14.821" y1="12.0166" x2="29.4194" y2="12.0166" gradientTransform="matrix(1 0 0 1 0.2803 -0.1104)">
				<stop  offset="0.3742" style="stop-color:#000000"/>
				<stop  offset="0.5644" style="stop-color:#9C9E9F"/>
				<stop  offset="0.9325" style="stop-color:#000000"/>
			</linearGradient>
			<path fill="url(#SVGID_39_)" d="M21.354,13.093v-1.395c0,0,1.854-1.344,6.137-0.881v1.5
				C27.491,12.317,23.787,12.111,21.354,13.093z"/>
			
				<linearGradient id="SVGID_40_" gradientUnits="userSpaceOnUse" x1="23.6252" y1="15.6445" x2="24.5963" y2="17.0041" gradientTransform="matrix(1 0 0 1 0.2803 -0.1104)">
				<stop  offset="0" style="stop-color:#FFFFFF"/>
				<stop  offset="0.3865" style="stop-color:#B4B5B7"/>
				<stop  offset="0.6258" style="stop-color:#D8D8DA"/>
				<stop  offset="1" style="stop-color:#6F7072"/>
			</linearGradient>
			<path fill="url(#SVGID_40_)" stroke="#3E3D40" stroke-width="0.2191" d="M25.017,16.117c0,0.343-0.312,0.62-0.695,0.62
				s-0.695-0.277-0.695-0.62s0.312-0.619,0.695-0.619C24.705,15.497,25.017,15.774,25.017,16.117z"/>
			
				<linearGradient id="SVGID_41_" gradientUnits="userSpaceOnUse" x1="23.8674" y1="15.9946" x2="24.6852" y2="16.7181" gradientTransform="matrix(1 0 0 1 0.2803 -0.1104)">
				<stop  offset="0" style="stop-color:#000000"/>
				<stop  offset="0.3865" style="stop-color:#58585A"/>
				<stop  offset="1" style="stop-color:#3E3D40"/>
			</linearGradient>
			<path fill="url(#SVGID_41_)" d="M24.888,16.117c0,0.235-0.215,0.426-0.479,0.426c-0.263,0-0.477-0.19-0.477-0.426
				s0.214-0.427,0.477-0.427C24.674,15.69,24.888,15.882,24.888,16.117z"/>
		</g>
		<g>
			
				<linearGradient id="SVGID_42_" gradientUnits="userSpaceOnUse" x1="24.4128" y1="18.5" x2="37.3727" y2="18.5" gradientTransform="matrix(1 0 0 1 0.2803 -0.1104)">
				<stop  offset="0.2945" style="stop-color:#3E3D40"/>
				<stop  offset="0.6258" style="stop-color:#B1B3B4"/>
				<stop  offset="1" style="stop-color:#6F7072"/>
			</linearGradient>
			<path fill="url(#SVGID_42_)" d="M28.476,10.381v16.116c0,0,1.145,1.805,8.757,1.382V9.06C37.23,9.058,31.71,8.035,28.476,10.381z
				"/>
			
				<linearGradient id="SVGID_43_" gradientUnits="userSpaceOnUse" x1="35.5876" y1="12.2661" x2="49.94" y2="40.6293" gradientTransform="matrix(1 0 0 1 0.2803 -0.1104)">
				<stop  offset="0.2331" style="stop-color:#B4B5B7"/>
				<stop  offset="0.6258" style="stop-color:#D8D8DA"/>
				<stop  offset="1" style="stop-color:#6F7072"/>
			</linearGradient>
			<polygon fill="url(#SVGID_43_)" points="41.871,10.985 41.871,25.894 37.23,27.879 37.23,9.058 			"/>
			
				<linearGradient id="SVGID_44_" gradientUnits="userSpaceOnUse" x1="35.8962" y1="11.5186" x2="50.9309" y2="47.2762" gradientTransform="matrix(1 0 0 1 0.2803 -0.1104)">
				<stop  offset="0.3865" style="stop-color:#B4B5B7"/>
				<stop  offset="0.6258" style="stop-color:#D8D8DA"/>
				<stop  offset="1" style="stop-color:#6F7072"/>
			</linearGradient>
			<path fill="url(#SVGID_44_)" d="M41.871,10.985v14.908l-4.641,1.985c0,0,4.812-3.206,2.819-9.036
				C37.844,12.384,41.871,10.985,41.871,10.985z"/>
			<path fill="#3E3D40" d="M32.25,17.117c-2.357,0.18-3.099,0.299-3.099,0.299v8.78c0,0,2.021,1.27,7.143,0.847V17.001
				C36.294,17.001,34.607,16.935,32.25,17.117z"/>
			
				<linearGradient id="SVGID_45_" gradientUnits="userSpaceOnUse" x1="21.3865" y1="22.3213" x2="38.3762" y2="22.3213" gradientTransform="matrix(1 0 0 1 0.2803 -0.1104)">
				<stop  offset="0.3742" style="stop-color:#000000"/>
				<stop  offset="0.5644" style="stop-color:#9C9E9F"/>
				<stop  offset="0.9325" style="stop-color:#000000"/>
			</linearGradient>
			<path fill="url(#SVGID_45_)" d="M32.044,17.269c-2.359,0.181-3.1,0.301-3.1,0.301v8.777c0,0,2.022,1.27,7.143,0.848V17.152
				C36.087,17.153,34.403,17.087,32.044,17.269z"/>
			
				<linearGradient id="SVGID_46_" gradientUnits="userSpaceOnUse" x1="28.8708" y1="13.7227" x2="36.0134" y2="13.7227" gradientTransform="matrix(1 0 0 1 0.2803 -0.1104)">
				<stop  offset="0" style="stop-color:#000000"/>
				<stop  offset="0.3865" style="stop-color:#58585A"/>
				<stop  offset="1" style="stop-color:#3E3D40"/>
			</linearGradient>
			<path fill="url(#SVGID_46_)" d="M29.151,14.892v-1.627c0,0,2.223-1.14,7.143-0.897v1.862
				C36.294,14.229,32.857,13.929,29.151,14.892z"/>
			
				<linearGradient id="SVGID_47_" gradientUnits="userSpaceOnUse" x1="21.3865" y1="13.5703" x2="38.3762" y2="13.5703" gradientTransform="matrix(1 0 0 1 0.2803 -0.1104)">
				<stop  offset="0.3742" style="stop-color:#000000"/>
				<stop  offset="0.5644" style="stop-color:#9C9E9F"/>
				<stop  offset="0.9325" style="stop-color:#000000"/>
			</linearGradient>
			<path fill="url(#SVGID_47_)" d="M28.944,14.739v-1.626c0,0,2.226-1.142,7.143-0.899v1.864
				C36.087,14.077,32.649,13.777,28.944,14.739z"/>
			
				<linearGradient id="SVGID_48_" gradientUnits="userSpaceOnUse" x1="28.8708" y1="11.1562" x2="36.0134" y2="11.1562" gradientTransform="matrix(1 0 0 1 0.2803 -0.1104)">
				<stop  offset="0" style="stop-color:#000000"/>
				<stop  offset="0.3865" style="stop-color:#58585A"/>
				<stop  offset="1" style="stop-color:#3E3D40"/>
			</linearGradient>
			<path fill="url(#SVGID_48_)" d="M29.151,12.425v-1.623c0,0,2.155-1.562,7.143-1.021v1.742
				C36.294,11.524,31.981,11.282,29.151,12.425z"/>
			
				<linearGradient id="SVGID_49_" gradientUnits="userSpaceOnUse" x1="21.3865" y1="11.0034" x2="38.3762" y2="11.0034" gradientTransform="matrix(1 0 0 1 0.2803 -0.1104)">
				<stop  offset="0.3742" style="stop-color:#000000"/>
				<stop  offset="0.5644" style="stop-color:#9C9E9F"/>
				<stop  offset="0.9325" style="stop-color:#000000"/>
			</linearGradient>
			<path fill="url(#SVGID_49_)" d="M28.944,12.272v-1.623c0,0,2.157-1.562,7.143-1.022v1.744
				C36.087,11.371,31.773,11.131,28.944,12.272z"/>
			
				<linearGradient id="SVGID_50_" gradientUnits="userSpaceOnUse" x1="31.6335" y1="15.2256" x2="32.7632" y2="16.8073" gradientTransform="matrix(1 0 0 1 0.2803 -0.1104)">
				<stop  offset="0" style="stop-color:#FFFFFF"/>
				<stop  offset="0.3865" style="stop-color:#B4B5B7"/>
				<stop  offset="0.6258" style="stop-color:#D8D8DA"/>
				<stop  offset="1" style="stop-color:#6F7072"/>
			</linearGradient>
			<path fill="url(#SVGID_50_)" stroke="#3E3D40" stroke-width="0.2549" d="M33.208,15.794c0,0.398-0.362,0.721-0.811,0.721
				c-0.445,0-0.81-0.322-0.81-0.721s0.364-0.721,0.81-0.721C32.845,15.073,33.208,15.396,33.208,15.794z"/>
			
				<linearGradient id="SVGID_51_" gradientUnits="userSpaceOnUse" x1="31.9143" y1="15.6323" x2="32.8652" y2="16.4735" gradientTransform="matrix(1 0 0 1 0.2803 -0.1104)">
				<stop  offset="0" style="stop-color:#000000"/>
				<stop  offset="0.3865" style="stop-color:#58585A"/>
				<stop  offset="1" style="stop-color:#3E3D40"/>
			</linearGradient>
			<path fill="url(#SVGID_51_)" d="M33.057,15.794c0,0.273-0.249,0.495-0.558,0.495c-0.304,0-0.555-0.222-0.555-0.495
				s0.25-0.498,0.555-0.498C32.808,15.297,33.057,15.521,33.057,15.794z"/>
		</g>
		<g>
			
				<linearGradient id="SVGID_52_" gradientUnits="userSpaceOnUse" x1="32.5427" y1="18.5542" x2="47.6486" y2="18.5542" gradientTransform="matrix(1 0 0 1 0.2803 -0.1104)">
				<stop  offset="0.2945" style="stop-color:#3E3D40"/>
				<stop  offset="0.6258" style="stop-color:#B1B3B4"/>
				<stop  offset="1" style="stop-color:#6F7072"/>
			</linearGradient>
			<path fill="url(#SVGID_52_)" d="M37.23,9.11v18.783c0,0,1.332,2.103,10.207,1.61V7.567C47.437,7.568,40.999,6.375,37.23,9.11z"/>
			
				<linearGradient id="SVGID_53_" gradientUnits="userSpaceOnUse" x1="45.5701" y1="11.2856" x2="62.2992" y2="44.3458" gradientTransform="matrix(1 0 0 1 0.2803 -0.1104)">
				<stop  offset="0.2331" style="stop-color:#B4B5B7"/>
				<stop  offset="0.6258" style="stop-color:#D8D8DA"/>
				<stop  offset="1" style="stop-color:#6F7072"/>
			</linearGradient>
			<polygon fill="url(#SVGID_53_)" points="52.848,9.813 52.848,27.19 47.437,29.504 47.437,7.568 			"/>
			
				<linearGradient id="SVGID_54_" gradientUnits="userSpaceOnUse" x1="45.9294" y1="10.415" x2="63.4534" y2="52.0932" gradientTransform="matrix(1 0 0 1 0.2803 -0.1104)">
				<stop  offset="0.3865" style="stop-color:#B4B5B7"/>
				<stop  offset="0.6258" style="stop-color:#D8D8DA"/>
				<stop  offset="1" style="stop-color:#6F7072"/>
			</linearGradient>
			<path fill="url(#SVGID_54_)" d="M52.848,9.813V27.19l-5.41,2.313c0,0,5.608-3.737,3.285-10.532
				C48.15,11.444,52.848,9.813,52.848,9.813z"/>
			<path fill="#3E3D40" d="M41.633,16.96c-2.752,0.21-3.613,0.35-3.613,0.35v10.234c0,0,2.356,1.479,8.324,0.987V16.826
				C46.344,16.827,44.38,16.75,41.633,16.96z"/>
			
				<linearGradient id="SVGID_55_" gradientUnits="userSpaceOnUse" x1="29.0168" y1="23.0093" x2="48.8191" y2="23.0093" gradientTransform="matrix(1 0 0 1 0.2803 -0.1104)">
				<stop  offset="0.3742" style="stop-color:#000000"/>
				<stop  offset="0.5644" style="stop-color:#9C9E9F"/>
				<stop  offset="0.9325" style="stop-color:#000000"/>
			</linearGradient>
			<path fill="url(#SVGID_55_)" d="M41.393,17.138c-2.752,0.209-3.614,0.351-3.614,0.351v10.233c0,0,2.357,1.478,8.324,0.986V17.004
				C46.103,17.003,44.141,16.927,41.393,17.138z"/>
			
				<linearGradient id="SVGID_56_" gradientUnits="userSpaceOnUse" x1="37.738" y1="12.9863" x2="46.0623" y2="12.9863" gradientTransform="matrix(1 0 0 1 0.2803 -0.1104)">
				<stop  offset="0" style="stop-color:#000000"/>
				<stop  offset="0.3865" style="stop-color:#58585A"/>
				<stop  offset="1" style="stop-color:#3E3D40"/>
			</linearGradient>
			<path fill="url(#SVGID_56_)" d="M38.018,14.368v-1.896c0,0,2.592-1.33,8.324-1.049v2.174
				C46.344,13.597,42.337,13.244,38.018,14.368z"/>
			
				<linearGradient id="SVGID_57_" gradientUnits="userSpaceOnUse" x1="29.0168" y1="12.8086" x2="48.8191" y2="12.8086" gradientTransform="matrix(1 0 0 1 0.2803 -0.1104)">
				<stop  offset="0.3742" style="stop-color:#000000"/>
				<stop  offset="0.5644" style="stop-color:#9C9E9F"/>
				<stop  offset="0.9325" style="stop-color:#000000"/>
			</linearGradient>
			<path fill="url(#SVGID_57_)" d="M37.779,14.19v-1.897c0,0,2.591-1.329,8.324-1.047v2.171
				C46.103,13.417,42.098,13.065,37.779,14.19z"/>
			
				<linearGradient id="SVGID_58_" gradientUnits="userSpaceOnUse" x1="37.738" y1="9.9951" x2="46.0623" y2="9.9951" gradientTransform="matrix(1 0 0 1 0.2803 -0.1104)">
				<stop  offset="0" style="stop-color:#000000"/>
				<stop  offset="0.3865" style="stop-color:#58585A"/>
				<stop  offset="1" style="stop-color:#3E3D40"/>
			</linearGradient>
			<path fill="url(#SVGID_58_)" d="M38.018,11.492V9.601c0,0,2.511-1.821,8.324-1.19v2.03
				C46.344,10.442,41.317,10.161,38.018,11.492z"/>
			
				<linearGradient id="SVGID_59_" gradientUnits="userSpaceOnUse" x1="29.0168" y1="9.8174" x2="48.8191" y2="9.8174" gradientTransform="matrix(1 0 0 1 0.2803 -0.1104)">
				<stop  offset="0.3742" style="stop-color:#000000"/>
				<stop  offset="0.5644" style="stop-color:#9C9E9F"/>
				<stop  offset="0.9325" style="stop-color:#000000"/>
			</linearGradient>
			<path fill="url(#SVGID_59_)" d="M37.779,11.315V9.423c0,0,2.511-1.82,8.324-1.191v2.033
				C46.103,10.265,41.077,9.983,37.779,11.315z"/>
			
				<linearGradient id="SVGID_60_" gradientUnits="userSpaceOnUse" x1="40.9607" y1="14.7388" x2="42.2785" y2="16.5839" gradientTransform="matrix(1 0 0 1 0.2803 -0.1104)">
				<stop  offset="0" style="stop-color:#FFFFFF"/>
				<stop  offset="0.3865" style="stop-color:#B4B5B7"/>
				<stop  offset="0.6258" style="stop-color:#D8D8DA"/>
				<stop  offset="1" style="stop-color:#6F7072"/>
			</linearGradient>
			<path fill="url(#SVGID_60_)" stroke="#3E3D40" stroke-width="0.2971" d="M42.749,15.418c0,0.466-0.424,0.841-0.945,0.841
				c-0.518,0-0.943-0.375-0.943-0.841c0-0.465,0.427-0.84,0.943-0.84C42.325,14.578,42.749,14.954,42.749,15.418z"/>
			
				<linearGradient id="SVGID_61_" gradientUnits="userSpaceOnUse" x1="41.2869" y1="15.2124" x2="42.3952" y2="16.1927" gradientTransform="matrix(1 0 0 1 0.2803 -0.1104)">
				<stop  offset="0" style="stop-color:#000000"/>
				<stop  offset="0.3865" style="stop-color:#58585A"/>
				<stop  offset="1" style="stop-color:#3E3D40"/>
			</linearGradient>
			<path fill="url(#SVGID_61_)" d="M42.572,15.418c0,0.319-0.292,0.578-0.65,0.578c-0.354,0-0.644-0.258-0.644-0.578
				c0-0.317,0.288-0.579,0.644-0.579C42.28,14.839,42.572,15.101,42.572,15.418z"/>
		</g>
	</g>
	
		<radialGradient id="SVGID_62_" cx="43.2664" cy="36" r="4.7638" gradientTransform="matrix(1 0 0 1 0.2803 -0.1104)" gradientUnits="userSpaceOnUse">
		<stop  offset="0.4417" style="stop-color:#FFFFFF"/>
		<stop  offset="1" style="stop-color:#A2BADC"/>
	</radialGradient>
	<path fill="url(#SVGID_62_)" stroke="#ADD7EF" stroke-width="0.3079" d="M42.69,32.043c0,0-3.938-0.493-3.938,3.645
		c0,0-1.381,2.563,1.378,3.056c0,0,1.577,2.762,4.335,0.792c0,0,2.959,0.589,3.253-1.578c0,0,2.367-2.562-0.294-4.239
		C47.424,33.717,46.537,30.271,42.69,32.043z"/>
	
		<radialGradient id="SVGID_63_" cx="37.946" cy="42.7715" r="2.4207" gradientTransform="matrix(1 0 0 1 0.2803 -0.1104)" gradientUnits="userSpaceOnUse">
		<stop  offset="0.2638" style="stop-color:#FFFFFF"/>
		<stop  offset="1" style="stop-color:#A2BADC"/>
	</radialGradient>
	<path fill="url(#SVGID_63_)" stroke="#ADD7EF" stroke-width="0.3079" d="M37.743,40.813c0,0-2.169-0.296-1.874,2.07
		c0,0-0.297,2.462,1.971,2.167c0,0,3.056,0.592,2.072-1.771c0,0,1.574-1.381,0-2.27C39.908,41.01,38.628,39.337,37.743,40.813z"/>
	
		<radialGradient id="SVGID_64_" cx="32.3083" cy="46.3545" r="1.8998" gradientTransform="matrix(1 0 0 1 0.2803 -0.1104)" gradientUnits="userSpaceOnUse">
		<stop  offset="0.2393" style="stop-color:#FFFFFF"/>
		<stop  offset="1" style="stop-color:#A2BADC"/>
	</radialGradient>
	<path fill="url(#SVGID_64_)" stroke="#ADD7EF" stroke-width="0.3079" d="M32.396,44.685c-1.184,0-2.071,0.983-1.479,1.973
		c0,0-0.099,1.379,1.084,1.181c0,0,1.773,1.084,2.17-0.592c0,0,0.688-1.281-0.103-1.774C34.069,45.471,33.184,43.501,32.396,44.685z
		"/>
</g>
</svg>
