<?xml version="1.0" encoding="UTF-8" standalone="no"?>
<!-- Created with Inkscape (http://www.inkscape.org/) -->

<svg
   xmlns:dc="http://purl.org/dc/elements/1.1/"
   xmlns:cc="http://creativecommons.org/ns#"
   xmlns:rdf="http://www.w3.org/1999/02/22-rdf-syntax-ns#"
   xmlns:svg="http://www.w3.org/2000/svg"
   xmlns="http://www.w3.org/2000/svg"
   version="1.1"
   width="129.7798"
   height="129.55901"
   id="svg3724">
  <defs
     id="defs3726">
    <clipPath
       id="clipPath608">
      <path
         d="m 0,0 1600,0 0,1200 L 0,1200 0,0 z"
         id="path610" />
    </clipPath>
    <mask
       id="mask626">
      <g
         id="g628">
        <g
           clip-path="url(#clipPath616)"
           id="g630">
          <g
             id="g632">
            <g
               id="g634">
              <path
                 d="m -32443.3,32767 65210.3,0 0,-64633.3 -65210.3,0 0,64633.3 z"
                 id="path636"
                 style="fill:url(#linearGradient620);stroke:none" />
            </g>
          </g>
        </g>
      </g>
    </mask>
    <clipPath
       id="clipPath616">
      <path
         d="m -32443.3,32767 65210.3,0 0,-64633.3 -65210.3,0 0,64633.3 z"
         id="path618" />
    </clipPath>
    <linearGradient
       x1="0"
       y1="0"
       x2="1"
       y2="0"
       id="linearGradient620"
       gradientUnits="userSpaceOnUse"
       gradientTransform="matrix(0,7.2453003,7.2453003,0,499.00999,688.33371)"
       spreadMethod="pad">
      <stop
         id="stop622"
         style="stop-color:#ffffff;stop-opacity:1"
         offset="0" />
      <stop
         id="stop624"
         style="stop-color:#ffffff;stop-opacity:0.80000001"
         offset="1" />
    </linearGradient>
    <clipPath
       id="clipPath642">
      <path
         d="m 498.01,696.579 27.2,0 0,-9.245 -27.2,0 0,9.245 z"
         id="path644" />
    </clipPath>
    <mask
       id="mask666">
      <g
         id="g668">
        <g
           clip-path="url(#clipPath656)"
           id="g670">
          <g
             id="g672">
            <g
               id="g674">
              <path
                 d="m -32443.3,32767 65210.3,0 0,-64633.3 -65210.3,0 0,64633.3 z"
                 id="path676"
                 style="fill:url(#linearGradient660);stroke:none" />
            </g>
          </g>
        </g>
      </g>
    </mask>
    <clipPath
       id="clipPath656">
      <path
         d="m -32443.3,32767 65210.3,0 0,-64633.3 -65210.3,0 0,64633.3 z"
         id="path658" />
    </clipPath>
    <linearGradient
       x1="0"
       y1="0"
       x2="1"
       y2="0"
       id="linearGradient660"
       gradientUnits="userSpaceOnUse"
       gradientTransform="matrix(0,129.55928,129.55928,0,417.11014,678.21526)"
       spreadMethod="pad">
      <stop
         id="stop662"
         style="stop-color:#ffffff;stop-opacity:1"
         offset="0" />
      <stop
         id="stop664"
         style="stop-color:#ffffff;stop-opacity:0.80000001"
         offset="1" />
    </linearGradient>
    <clipPath
       id="clipPath682">
      <path
         d="m 416.11,808.775 131.78,0 0,-131.56 -131.78,0 0,131.56 z"
         id="path684" />
    </clipPath>
  </defs>
  <metadata
     id="metadata3729">
    <rdf:RDF>
      <cc:Work
         rdf:about="">
        <dc:format>image/svg+xml</dc:format>
        <dc:type
           rdf:resource="http://purl.org/dc/dcmitype/StillImage" />
        <dc:title></dc:title>
      </cc:Work>
    </rdf:RDF>
  </metadata>
  <g
     transform="matrix(0.8,0,0,0.8,-235.11009,-361.11028)"
     id="layer1">
    <g
       transform="matrix(1.25,0,0,-1.25,-227.49966,1461.1061)"
       id="g604">
      <g
         clip-path="url(#clipPath608)"
         id="g606">
        <g
           id="g612">
          <g
             id="g614" />
          <g
             mask="url(#mask626)"
             id="g638">
            <g
               id="g640" />
            <g
               id="g646">
              <g
                 clip-path="url(#clipPath642)"
                 id="g648">
                <path
                   d="m 524.21,688.334 -25.2,0 0,7.245 25.2,0 0,-7.245 z"
                   id="path650"
                   style="fill:#7ab51d;fill-opacity:1;fill-rule:nonzero;stroke:none" />
              </g>
            </g>
          </g>
        </g>
        <g
           id="g652">
          <g
             id="g654" />
          <g
             mask="url(#mask666)"
             id="g678">
            <g
               id="g680" />
            <g
               id="g686">
              <g
                 clip-path="url(#clipPath682)"
                 id="g688">
                <g
                   transform="translate(529.7062,710.0856)"
                   id="g690">
                  <path
                     d="m 0,0 c -18.596,4.289 -35.907,8.045 -27.523,23.851 25.518,48.11 6.764,73.838 -20.183,73.838 -27.478,0 -45.77,-26.716 -20.182,-73.838 C -59.254,7.949 -77.215,4.197 -95.412,0 -114,-4.287 -112.571,-14.088 -112.571,-31.87 l 129.729,0 C 17.158,-14.087 18.588,-4.287 0,0 m -5.496,-21.752 -25.2,0 0,7.245 25.2,0 0,-7.245 z"
                     id="path692"
                     style="fill:#787878;fill-opacity:1;fill-rule:nonzero;stroke:none" />
                </g>
              </g>
            </g>
          </g>
        </g>
      </g>
    </g>
  </g>
</svg>
