<?xml version="1.0" encoding="UTF-8" standalone="no"?>
<!-- Created with Inkscape (http://www.inkscape.org/) -->

<svg
   xmlns:dc="http://purl.org/dc/elements/1.1/"
   xmlns:cc="http://creativecommons.org/ns#"
   xmlns:rdf="http://www.w3.org/1999/02/22-rdf-syntax-ns#"
   xmlns:svg="http://www.w3.org/2000/svg"
   xmlns="http://www.w3.org/2000/svg"
   version="1.1"
   width="168.5067"
   height="149.69289"
   id="svg3612">
  <defs
     id="defs3614">
    <clipPath
       id="clipPath418">
      <path
         d="m 0,0 1600,0 0,1200 L 0,1200 0,0 z"
         id="path420" />
    </clipPath>
    <mask
       id="mask436">
      <g
         id="g438">
        <g
           clip-path="url(#clipPath426)"
           id="g440">
          <g
             id="g442">
            <g
               id="g444">
              <path
                 d="m -32617.8,32767 65384.8,0 0,-64317.1 -65384.8,0 0,64317.1 z"
                 id="path446"
                 style="fill:url(#linearGradient430);stroke:none" />
            </g>
          </g>
        </g>
      </g>
    </mask>
    <clipPath
       id="clipPath426">
      <path
         d="m -32617.8,32767 65384.8,0 0,-64317.1 -65384.8,0 0,64317.1 z"
         id="path428" />
    </clipPath>
    <linearGradient
       x1="0"
       y1="0"
       x2="1"
       y2="0"
       id="linearGradient430"
       gradientUnits="userSpaceOnUse"
       gradientTransform="matrix(0,149.69293,149.69293,0,397.70598,706.40454)"
       spreadMethod="pad">
      <stop
         id="stop432"
         style="stop-color:#ffffff;stop-opacity:1"
         offset="0" />
      <stop
         id="stop434"
         style="stop-color:#ffffff;stop-opacity:0.80000001"
         offset="1" />
    </linearGradient>
    <clipPath
       id="clipPath452">
      <path
         d="m 449.581,856.124 117.631,0 0,-82.135 -117.631,0 0,82.135 z"
         id="path454" />
    </clipPath>
    <mask
       id="mask478">
      <g
         id="g480">
        <g
           clip-path="url(#clipPath468)"
           id="g482">
          <g
             id="g484">
            <g
               id="g486">
              <path
                 d="m -32617.8,32767 65384.8,0 0,-64317.1 -65384.8,0 0,64317.1 z"
                 id="path488"
                 style="fill:url(#linearGradient472);stroke:none" />
            </g>
          </g>
        </g>
      </g>
    </mask>
    <clipPath
       id="clipPath468">
      <path
         d="m -32617.8,32767 65384.8,0 0,-64317.1 -65384.8,0 0,64317.1 z"
         id="path470" />
    </clipPath>
    <linearGradient
       x1="0"
       y1="0"
       x2="1"
       y2="0"
       id="linearGradient472"
       gradientUnits="userSpaceOnUse"
       gradientTransform="matrix(0,149.69293,149.69293,0,397.70598,706.40454)"
       spreadMethod="pad">
      <stop
         id="stop474"
         style="stop-color:#ffffff;stop-opacity:1"
         offset="0" />
      <stop
         id="stop476"
         style="stop-color:#ffffff;stop-opacity:0.80000001"
         offset="1" />
    </linearGradient>
    <clipPath
       id="clipPath494">
      <path
         d="m 396.706,857.097 136.493,0 0,-151.692 -136.493,0 0,151.692 z"
         id="path496" />
    </clipPath>
    <mask
       id="mask520">
      <g
         id="g522">
        <g
           clip-path="url(#clipPath510)"
           id="g524">
          <g
             id="g526">
            <g
               id="g528">
              <path
                 d="m -32617.8,32767 65384.8,0 0,-64317.1 -65384.8,0 0,64317.1 z"
                 id="path530"
                 style="fill:url(#linearGradient514);stroke:none" />
            </g>
          </g>
        </g>
      </g>
    </mask>
    <clipPath
       id="clipPath510">
      <path
         d="m -32617.8,32767 65384.8,0 0,-64317.1 -65384.8,0 0,64317.1 z"
         id="path512" />
    </clipPath>
    <linearGradient
       x1="0"
       y1="0"
       x2="1"
       y2="0"
       id="linearGradient514"
       gradientUnits="userSpaceOnUse"
       gradientTransform="matrix(0,149.69293,149.69293,0,397.70598,706.40454)"
       spreadMethod="pad">
      <stop
         id="stop516"
         style="stop-color:#ffffff;stop-opacity:1"
         offset="0" />
      <stop
         id="stop518"
         style="stop-color:#ffffff;stop-opacity:0.80000001"
         offset="1" />
    </linearGradient>
    <clipPath
       id="clipPath536">
      <path
         d="m 423.197,830.607 83.494,0 0,-83.49 -83.494,0 0,83.49 z"
         id="path538" />
    </clipPath>
  </defs>
  <metadata
     id="metadata3617">
    <rdf:RDF>
      <cc:Work
         rdf:about="">
        <dc:format>image/svg+xml</dc:format>
        <dc:type
           rdf:resource="http://purl.org/dc/dcmitype/StillImage" />
        <dc:title></dc:title>
      </cc:Work>
    </rdf:RDF>
  </metadata>
  <g
     transform="matrix(0.8,0,0,0.8,-215.74665,-351.04332)"
     id="layer1">
    <g
       transform="matrix(1.25,0,0,-1.25,-227.44881,1508.9254)"
       id="g414">
      <g
         clip-path="url(#clipPath418)"
         id="g416">
        <g
           id="g422">
          <g
             id="g424" />
          <g
             mask="url(#mask436)"
             id="g448">
            <g
               id="g450" />
            <g
               id="g456">
              <g
                 clip-path="url(#clipPath452)"
                 id="g458">
                <g
                   transform="translate(566.2124,828.3352)"
                   id="g460">
                  <path
                     d="m 0,0 -30.361,-17.018 c -8.408,1.985 -17.255,0.742 -24.791,-3.482 l -31.774,-17.811 c 0.371,-8.306 -6.247,-15.035 -14.344,-15.035 -7.932,0 -14.362,6.431 -14.362,14.361 0,7.933 6.431,14.361 14.362,14.361 3.111,0 5.989,-0.993 8.341,-2.674 l 31.687,17.762 c 7.505,4.207 13.19,11.075 15.908,19.33 L -15.015,26.789 -20.437,5.755 0,0 z"
                     id="path462"
                     style="fill:#db062e;fill-opacity:1;fill-rule:nonzero;stroke:none" />
                </g>
              </g>
            </g>
          </g>
        </g>
        <g
           id="g464">
          <g
             id="g466" />
          <g
             mask="url(#mask478)"
             id="g490">
            <g
               id="g492" />
            <g
               id="g498">
              <g
                 clip-path="url(#clipPath494)"
                 id="g500">
                <g
                   transform="translate(530.9197,801.85)"
                   id="g502">
                  <path
                     d="m 0,0 c -4.545,0.564 -8.976,-0.17 -12.922,-1.934 3.631,-17.612 -1.506,-36.128 -14.744,-49.367 -10.234,-10.233 -23.84,-15.869 -38.312,-15.869 -14.472,0 -28.078,5.636 -38.311,15.869 -10.234,10.234 -15.87,23.84 -15.87,38.312 0,14.472 5.636,28.078 15.87,38.311 10.234,10.234 23.839,15.87 38.311,15.87 13.722,0 26.664,-5.07 36.693,-14.32 3.692,2.484 6.612,5.918 8.473,9.946 -11.936,10.83 -27.78,17.429 -45.166,17.429 -37.132,0 -67.236,-30.103 -67.236,-67.236 0,-19.913 8.659,-37.8 22.414,-50.111 l -9.414,-29.166 c -0.771,-2.388 2.176,-4.235 3.99,-2.493 l 21.702,20.881 c 18.2,-8.547 39.256,-8.383 57.071,-0.019 l 21.681,-20.862 c 1.814,-1.743 4.761,0.104 3.99,2.493 l -9.405,29.144 C -4.29,-47.988 4.806,-24.551 0,0"
                     id="path504"
                     style="fill:#787878;fill-opacity:1;fill-rule:nonzero;stroke:none" />
                </g>
              </g>
            </g>
          </g>
        </g>
        <g
           id="g506">
          <g
             id="g508" />
          <g
             mask="url(#mask520)"
             id="g532">
            <g
               id="g534" />
            <g
               id="g540">
              <g
                 clip-path="url(#clipPath536)"
                 id="g542">
                <g
                   transform="translate(464.9421,816.5508)"
                   id="g544">
                  <path
                     d="M 0,0 C 3.925,0 7.659,-0.826 11.044,-2.304 L 24.216,5.079 C 17.446,10.091 9.069,13.056 0,13.056 c -22.502,0 -40.745,-18.243 -40.745,-40.746 0,-22.503 18.243,-40.744 40.745,-40.744 24.091,0 42.982,20.812 40.536,44.896 l -13.03,-7.304 C 25.935,-44.63 14.202,-55.378 0,-55.378 c -15.268,0 -27.689,12.421 -27.689,27.688 C -27.69,-12.422 -15.268,0 0,0"
                     id="path546"
                     style="fill:#787878;fill-opacity:1;fill-rule:nonzero;stroke:none" />
                </g>
              </g>
            </g>
          </g>
        </g>
      </g>
    </g>
  </g>
</svg>
