<?xml version="1.0" encoding="UTF-8" standalone="no"?>
<!-- Created with Inkscape (http://www.inkscape.org/) -->

<svg
   xmlns:dc="http://purl.org/dc/elements/1.1/"
   xmlns:cc="http://creativecommons.org/ns#"
   xmlns:rdf="http://www.w3.org/1999/02/22-rdf-syntax-ns#"
   xmlns:svg="http://www.w3.org/2000/svg"
   xmlns="http://www.w3.org/2000/svg"
   version="1.1"
   width="108.5107"
   height="214.9819"
   id="svg4090">
  <defs
     id="defs4092">
    <clipPath
       id="clipPath710">
      <path
         d="m 0,0 1600,0 0,1200 L 0,1200 0,0 z"
         id="path712" />
    </clipPath>
    <mask
       id="mask728">
      <g
         id="g730">
        <g
           clip-path="url(#clipPath718)"
           id="g732">
          <g
             id="g734">
            <g
               id="g736">
              <path
                 d="m -32734.7,32767 65501.7,0 0,-65275.5 -65501.7,0 0,65275.5 z"
                 id="path738"
                 style="fill:url(#linearGradient722);stroke:none" />
            </g>
          </g>
        </g>
      </g>
    </mask>
    <clipPath
       id="clipPath718">
      <path
         d="m -32734.7,32767 65501.7,0 0,-65275.5 -65501.7,0 0,65275.5 z"
         id="path720" />
    </clipPath>
    <linearGradient
       x1="0"
       y1="0"
       x2="1"
       y2="0"
       id="linearGradient722"
       gradientUnits="userSpaceOnUse"
       gradientTransform="matrix(0,232.43704,232.43704,0,423.74478,587.43188)"
       spreadMethod="pad">
      <stop
         id="stop724"
         style="stop-color:#ffffff;stop-opacity:1"
         offset="0" />
      <stop
         id="stop726"
         style="stop-color:#ffffff;stop-opacity:0.80000001"
         offset="1" />
    </linearGradient>
    <clipPath
       id="clipPath744">
      <path
         d="m 450.424,694.206 86.831,0 0,-107.774 -86.831,0 0,107.774 z"
         id="path746" />
    </clipPath>
    <mask
       id="mask770">
      <g
         id="g772">
        <g
           clip-path="url(#clipPath760)"
           id="g774">
          <g
             id="g776">
            <g
               id="g778">
              <path
                 d="m -32649.8,32767 65416.8,0 0,-65186.3 -65416.8,0 0,65186.3 z"
                 id="path780"
                 style="fill:url(#linearGradient764);stroke:none" />
            </g>
          </g>
        </g>
      </g>
    </mask>
    <clipPath
       id="clipPath760">
      <path
         d="m -32649.8,32767 65416.8,0 0,-65186.3 -65416.8,0 0,65186.3 z"
         id="path762" />
    </clipPath>
    <linearGradient
       x1="0"
       y1="0"
       x2="1"
       y2="0"
       id="linearGradient764"
       gradientUnits="userSpaceOnUse"
       gradientTransform="matrix(0,188.274,188.274,0,434.4429,614.13977)"
       spreadMethod="pad">
      <stop
         id="stop766"
         style="stop-color:#ffffff;stop-opacity:1"
         offset="0" />
      <stop
         id="stop768"
         style="stop-color:#ffffff;stop-opacity:0.80000001"
         offset="1" />
    </linearGradient>
    <clipPath
       id="clipPath786">
      <path
         d="m 473.446,803.414 44.105,0 0,-37.509 -44.105,0 0,37.509 z"
         id="path788" />
    </clipPath>
    <mask
       id="mask812">
      <g
         id="g814">
        <g
           clip-path="url(#clipPath802)"
           id="g816">
          <g
             id="g818">
            <g
               id="g820">
              <path
                 d="m -32653.8,32767 65420.8,0 0,-65186.3 -65420.8,0 0,65186.3 z"
                 id="path822"
                 style="fill:url(#linearGradient806);stroke:none" />
            </g>
          </g>
        </g>
      </g>
    </mask>
    <clipPath
       id="clipPath802">
      <path
         d="m -32653.8,32767 65420.8,0 0,-65186.3 -65420.8,0 0,65186.3 z"
         id="path804" />
    </clipPath>
    <linearGradient
       x1="0"
       y1="0"
       x2="1"
       y2="0"
       id="linearGradient806"
       gradientUnits="userSpaceOnUse"
       gradientTransform="matrix(0,188.274,188.274,0,430.4429,614.13977)"
       spreadMethod="pad">
      <stop
         id="stop808"
         style="stop-color:#ffffff;stop-opacity:1"
         offset="0" />
      <stop
         id="stop810"
         style="stop-color:#ffffff;stop-opacity:0.80000001"
         offset="1" />
    </linearGradient>
    <clipPath
       id="clipPath828">
      <path
         d="m 438.551,779.299 41.862,0 0,-41.45 -41.862,0 0,41.45 z"
         id="path830" />
    </clipPath>
    <mask
       id="mask854">
      <g
         id="g856">
        <g
           clip-path="url(#clipPath844)"
           id="g858">
          <g
             id="g860">
            <g
               id="g862">
              <path
                 d="m -32734.7,32767 65501.7,0 0,-65275.5 -65501.7,0 0,65275.5 z"
                 id="path864"
                 style="fill:url(#linearGradient848);stroke:none" />
            </g>
          </g>
        </g>
      </g>
    </mask>
    <clipPath
       id="clipPath844">
      <path
         d="m -32734.7,32767 65501.7,0 0,-65275.5 -65501.7,0 0,65275.5 z"
         id="path846" />
    </clipPath>
    <linearGradient
       x1="0"
       y1="0"
       x2="1"
       y2="0"
       id="linearGradient848"
       gradientUnits="userSpaceOnUse"
       gradientTransform="matrix(0,232.43704,232.43704,0,423.74478,587.43188)"
       spreadMethod="pad">
      <stop
         id="stop850"
         style="stop-color:#ffffff;stop-opacity:1"
         offset="0" />
      <stop
         id="stop852"
         style="stop-color:#ffffff;stop-opacity:0.80000001"
         offset="1" />
    </linearGradient>
    <clipPath
       id="clipPath870">
      <path
         d="m 426.745,690.314 21.596,0 0,-102.549 -21.596,0 0,102.549 z"
         id="path872" />
    </clipPath>
    <mask
       id="mask896">
      <g
         id="g898">
        <g
           clip-path="url(#clipPath886)"
           id="g900">
          <g
             id="g902">
            <g
               id="g904">
              <path
                 d="m -32736.1,32767 65503.1,0 0,-65281.6 -65503.1,0 0,65281.6 z"
                 id="path906"
                 style="fill:url(#linearGradient890);stroke:none" />
            </g>
          </g>
        </g>
      </g>
    </mask>
    <clipPath
       id="clipPath886">
      <path
         d="m -32736.1,32767 65503.1,0 0,-65281.6 -65503.1,0 0,65281.6 z"
         id="path888" />
    </clipPath>
    <linearGradient
       x1="0"
       y1="0"
       x2="1"
       y2="0"
       id="linearGradient890"
       gradientUnits="userSpaceOnUse"
       gradientTransform="matrix(0,232.43704,232.43704,0,422.34073,581.34842)"
       spreadMethod="pad">
      <stop
         id="stop892"
         style="stop-color:#ffffff;stop-opacity:1"
         offset="0" />
      <stop
         id="stop894"
         style="stop-color:#ffffff;stop-opacity:0.80000001"
         offset="1" />
    </linearGradient>
    <clipPath
       id="clipPath912">
      <path
         d="m 463.745,730.432 55.772,0 0,-44.328 -55.772,0 0,44.328 z"
         id="path914" />
    </clipPath>
    <mask
       id="mask938">
      <g
         id="g940">
        <g
           clip-path="url(#clipPath928)"
           id="g942">
          <g
             id="g944">
            <g
               id="g946">
              <path
                 d="m -32760.8,32767 65527.8,0 0,-65276.5 -65527.8,0 0,65276.5 z"
                 id="path948"
                 style="fill:url(#linearGradient932);stroke:none" />
            </g>
          </g>
        </g>
      </g>
    </mask>
    <clipPath
       id="clipPath928">
      <path
         d="m -32760.8,32767 65527.8,0 0,-65276.5 -65527.8,0 0,65276.5 z"
         id="path930" />
    </clipPath>
    <linearGradient
       x1="0"
       y1="0"
       x2="1"
       y2="0"
       id="linearGradient932"
       gradientUnits="userSpaceOnUse"
       gradientTransform="matrix(0,232.43704,232.43704,0,397.61954,586.51694)"
       spreadMethod="pad">
      <stop
         id="stop934"
         style="stop-color:#ffffff;stop-opacity:1"
         offset="0" />
      <stop
         id="stop936"
         style="stop-color:#ffffff;stop-opacity:0.80000001"
         offset="1" />
    </linearGradient>
    <clipPath
       id="clipPath954">
      <path
         d="m 439.024,735.598 55.772,0 0,-44.326 -55.772,0 0,44.326 z"
         id="path956" />
    </clipPath>
  </defs>
  <metadata
     id="metadata4095">
    <rdf:RDF>
      <cc:Work
         rdf:about="">
        <dc:format>image/svg+xml</dc:format>
        <dc:type
           rdf:resource="http://purl.org/dc/dcmitype/StillImage" />
        <dc:title></dc:title>
      </cc:Work>
    </rdf:RDF>
  </metadata>
  <g
     transform="matrix(0.8,0,0,0.8,-245.74465,-318.39876)"
     id="layer1">
    <g
       transform="matrix(1.25,0,0,-1.25,-227.49969,1401.0157)"
       id="g706">
      <g
         clip-path="url(#clipPath710)"
         id="g708">
        <g
           id="g714">
          <g
             id="g716" />
          <g
             mask="url(#mask728)"
             id="g740">
            <g
               id="g742" />
            <g
               id="g748">
              <g
                 clip-path="url(#clipPath744)"
                 id="g750">
                <g
                   transform="translate(536.2551,600.1569)"
                   id="g752">
                  <path
                     d="m 0,0 0,93.049 -84.831,-12.001 0,-93.773 L 0,0 z"
                     id="path754"
                     style="fill:#7ab51d;fill-opacity:1;fill-rule:nonzero;stroke:none" />
                </g>
              </g>
            </g>
          </g>
        </g>
        <g
           id="g756">
          <g
             id="g758" />
          <g
             mask="url(#mask770)"
             id="g782">
            <g
               id="g784" />
            <g
               id="g790">
              <g
                 clip-path="url(#clipPath786)"
                 id="g792">
                <g
                   transform="translate(516.5509,784.5648)"
                   id="g794">
                  <path
                     d="M 0,0 -11.195,17.707 -32.198,17.849 -42.105,0.098 -30.75,-17.327 -9.854,-17.659 0,0 z m -24.715,-12.052 5.318,9.529 11.704,-0.187 -5.318,-9.53 -11.704,0.188 z m -5.704,22.014 6.302,-9.866 -5.326,-9.544 -6.362,9.758 5.386,9.652 z m 22.349,-7.294 -11.405,0.181 -6.121,9.585 11.401,-0.077 6.125,-9.689 z"
                     id="path796"
                     style="fill:#db062e;fill-opacity:1;fill-rule:nonzero;stroke:none" />
                </g>
              </g>
            </g>
          </g>
        </g>
        <g
           id="g798">
          <g
             id="g800" />
          <g
             mask="url(#mask812)"
             id="g824">
            <g
               id="g826" />
            <g
               id="g832">
              <g
                 clip-path="url(#clipPath828)"
                 id="g834">
                <g
                   transform="translate(479.4131,751.6516)"
                   id="g836">
                  <path
                     d="M 0,0 -3.53,19.884 -23.449,26.647 -39.862,13.628 -36.314,-6.36 -16.449,-12.803 0,0 z m -33.482,8.611 11.149,-3.728 1.908,-10.747 -11.128,3.608 -1.929,10.867 z m 21.99,8.301 -8.978,-6.987 -10.83,3.622 8.908,7.066 10.9,-3.701 z m 5.605,-14.674 -9.214,-7.17 -1.905,10.73 9.214,7.171 1.905,-10.731 z"
                     id="path838"
                     style="fill:#db062e;fill-opacity:1;fill-rule:nonzero;stroke:none" />
                </g>
              </g>
            </g>
          </g>
        </g>
        <g
           id="g840">
          <g
             id="g842" />
          <g
             mask="url(#mask854)"
             id="g866">
            <g
               id="g868" />
            <g
               id="g874">
              <g
                 clip-path="url(#clipPath870)"
                 id="g876">
                <g
                   transform="translate(447.3414,680.9878)"
                   id="g878">
                  <path
                     d="m 0,0 -19.597,8.326 0,-88.335 L 0,-92.223 0,0 z"
                     id="path880"
                     style="fill:#7ab51d;fill-opacity:1;fill-rule:nonzero;stroke:none" />
                </g>
              </g>
            </g>
          </g>
        </g>
        <g
           id="g882">
          <g
             id="g884" />
          <g
             mask="url(#mask896)"
             id="g908">
            <g
               id="g910" />
            <g
               id="g916">
              <g
                 clip-path="url(#clipPath912)"
                 id="g918">
                <g
                   transform="translate(508.6832,703.0253)"
                   id="g920">
                  <path
                     d="m 0,0 -0.019,-9.853 9.835,1.359 0.018,9.853 C 9.864,17.109 -2.146,28.214 -16.989,26.162 -31.83,24.113 -43.89,9.683 -43.92,-6.068 l -0.018,-9.853 9.834,1.358 0.019,9.853 c 0.019,9.973 7.679,19.142 17.075,20.441 C -7.612,17.03 0.018,9.973 0,0"
                     id="path922"
                     style="fill:#787878;fill-opacity:1;fill-rule:nonzero;stroke:none" />
                </g>
              </g>
            </g>
          </g>
        </g>
        <g
           id="g924">
          <g
             id="g926" />
          <g
             mask="url(#mask938)"
             id="g950">
            <g
               id="g952" />
            <g
               id="g958">
              <g
                 clip-path="url(#clipPath954)"
                 id="g960">
                <g
                   transform="translate(471.0353,723.9423)"
                   id="g962">
                  <path
                     d="m 0,0 c 3.315,3.236 7.252,5.751 11.56,7.224 -4.402,2.745 -9.785,3.997 -15.623,3.19 -14.841,-2.049 -26.9,-16.48 -26.93,-32.231 l -0.019,-9.853 9.835,1.358 0.019,9.854 c 0.019,9.972 7.679,19.142 17.075,20.44 C -2.673,0.177 -1.311,0.163 0,0 m 12.927,-15.749 -0.019,-9.853 9.835,1.359 0.018,9.853 c 0.006,3.325 -0.543,6.428 -1.529,9.254 -0.199,-0.02 -0.394,-0.022 -0.594,-0.05 -3.286,-0.454 -6.349,-1.887 -8.958,-3.964 0.799,-1.983 1.251,-4.201 1.247,-6.599"
                     id="path964"
                     style="fill:#787878;fill-opacity:1;fill-rule:nonzero;stroke:none" />
                </g>
              </g>
            </g>
          </g>
        </g>
        <g
           transform="matrix(0.9891815,0.1466827,0,-1.0109406,1185.7448,587.43188)"
           id="g966">
          <g
             transform="translate(-684.5594,-175.7277)"
             id="g968">
            <path
               d="m 0,0 -22.368,0 c -4.12,0 -7.457,3.271 -7.457,7.307 l 6.708,0 0,21.226 c 0.139,1.621 2.548,3.393 7.532,3.705 4.081,0.251 7.918,-1.248 8.887,-3.488 l 0,-21.422 c 0.853,0.078 5.637,1.291 6.537,5.835 0.059,0.25 0.105,0.512 0.129,0.799 l 0.002,-10e-4 0,0.013 c 0.018,0.205 0.029,0.414 0.029,0.64 l 0,21.916 -0.029,0 -5.709,0 -0.969,0 0,-3.184 c -1.078,1.474 -2.998,2.872 -4.656,3.184 l -11.006,0 c -4.517,-0.227 -7.344,-3.186 -7.458,-7.307 l 0,-21.916 c -4.116,0.002 -7.453,3.271 -7.453,7.307 l 0,21.916 c 0,4.035 3.338,7.308 7.456,7.308 l 22.369,0 c 4.119,0 7.457,-3.273 7.457,-7.308 4.118,0 7.456,-3.27 7.456,-7.306 l 0,-21.917 C 7.457,3.271 4.119,0 0,0"
               id="path970"
               style="fill:#ffffff;fill-opacity:1;fill-rule:nonzero;stroke:none" />
          </g>
        </g>
      </g>
    </g>
  </g>
</svg>
