<svg xmlns="http://www.w3.org/2000/svg" viewBox="0 0 150 150"><defs><style>.a{fill:#fff;}</style></defs><path class="a" d="M69.91919,118.67346v6.641l-4.58685-2.82385a3.13433,3.13433,0,0,0-3.3147.00055l-4.58606,2.82318v-6.64093h-3v6.97016a2.8166,2.8166,0,0,0,4.29242,2.39807l4.86633-2.99573a.16508.16508,0,0,1,.087-.029.1563.1563,0,0,1,.08325.029l4.866,2.99573a2.81641,2.81641,0,0,0,4.2926-2.39826v-6.97Z"/><path class="a" d="M94.49316,31.70587H47.03876a3.00886,3.00886,0,0,0-3,3v77.96759a3.00882,3.00882,0,0,0,3,3h47.4544Zm-29.48779,44.592H55.74512a1.5,1.5,0,0,1,0-3h9.26025a1.5,1.5,0,0,1,0,3Zm9.26074-7.06347h-18.521a1.5,1.5,0,0,1,0-3h18.521a1.5,1.5,0,0,1,0,3Zm8.44745-14.29273H55.39807a1.00291,1.00291,0,0,1-1-1V43.51752a1.00291,1.00291,0,0,1,1-1H82.71356a1.003,1.003,0,0,1,1,1V53.94165A1.003,1.003,0,0,1,82.71356,54.94165Z"/><path class="a" d="M102.96124,31.70587H97.49316v83.96759h5.46808a3.00878,3.00878,0,0,0,3-3V34.70587A3.00883,3.00883,0,0,0,102.96124,31.70587Z"/></svg>