<?xml version="1.0" encoding="UTF-8" standalone="no"?>
<!-- Created with Inkscape (http://www.inkscape.org/) -->

<svg
   xmlns:dc="http://purl.org/dc/elements/1.1/"
   xmlns:cc="http://creativecommons.org/ns#"
   xmlns:rdf="http://www.w3.org/1999/02/22-rdf-syntax-ns#"
   xmlns:svg="http://www.w3.org/2000/svg"
   xmlns="http://www.w3.org/2000/svg"
   xmlns:sodipodi="http://sodipodi.sourceforge.net/DTD/sodipodi-0.dtd"
   xmlns:inkscape="http://www.inkscape.org/namespaces/inkscape"
   width="154.58864"
   height="34.715481"
   id="svg2"
   version="1.1"
   inkscape:version="0.91 r13725"
   sodipodi:docname="owncloud_logo_white.svg">
  <defs
     id="defs4" />
  <sodipodi:namedview
     id="base"
     pagecolor="#ffffff"
     bordercolor="#666666"
     borderopacity="1.0"
     inkscape:pageopacity="0.0"
     inkscape:pageshadow="2"
     inkscape:zoom="8.3061265"
     inkscape:cx="111.48978"
     inkscape:cy="11.341135"
     inkscape:document-units="px"
     inkscape:current-layer="layer1"
     showgrid="false"
     inkscape:window-width="1920"
     inkscape:window-height="1031"
     inkscape:window-x="0"
     inkscape:window-y="0"
     inkscape:window-maximized="1"
     showguides="true"
     fit-margin-top="5"
     fit-margin-left="5"
     fit-margin-right="5"
     fit-margin-bottom="5"
     inkscape:object-paths="true"
     inkscape:object-nodes="true"
     inkscape:guide-bbox="true">
    <inkscape:grid
       type="xygrid"
       id="grid4204" />
  </sodipodi:namedview>
  <metadata
     id="metadata7">
    <rdf:RDF>
      <cc:Work
         rdf:about="">
        <dc:format>image/svg+xml</dc:format>
        <dc:type
           rdf:resource="http://purl.org/dc/dcmitype/StillImage" />
        <dc:title></dc:title>
      </cc:Work>
    </rdf:RDF>
  </metadata>
  <g
     inkscape:label="Layer 1"
     inkscape:groupmode="layer"
     id="layer1"
     transform="translate(43.429213,-972.85112)">
    <path
       style="color:#000000;text-indent:0;text-transform:none;block-progression:tb;fill:#ffffff;fill-opacity:1;stroke:none;stroke-width:0.5;stroke-miterlimit:4;stroke-dasharray:none;stroke-opacity:1;enable-background:accumulate"
       d="M 25.695312 5.25 C 22.427223 5.25 19.792969 7.8844038 19.792969 11.152344 C 19.792969 12.410244 20.213603 13.551772 20.880859 14.507812 C 22.626925 12.626103 25.075715 11.396484 27.841797 11.396484 C 29.141113 11.396484 30.35496 11.722259 31.484375 12.193359 C 31.544896 11.853499 31.597656 11.511024 31.597656 11.152344 C 31.600633 7.8848538 28.963083 5.25 25.695312 5.25 z M 17.664062 8.0976562 C 16.027005 8.0976562 14.716797 9.4168575 14.716797 11.054688 C 14.716797 11.508557 14.859351 11.918461 15.039062 12.300781 C 16.080642 11.766621 17.247619 11.431641 18.496094 11.431641 C 18.535545 11.431641 18.571035 11.434547 18.609375 11.435547 C 18.604605 11.341227 18.595703 11.249744 18.595703 11.152344 C 18.595703 10.223524 18.826636 9.3542856 19.152344 8.5410156 C 18.714807 8.2798256 18.222748 8.0986562 17.669922 8.0976562 L 17.664062 8.0976562 z M 32.837891 10.304688 C 32.803739 10.304688 32.760609 10.3105 32.724609 10.3125 C 32.760749 10.58735 32.798828 10.861804 32.798828 11.152344 C 32.798828 11.685344 32.719484 12.195559 32.607422 12.693359 C 34.071888 13.539659 35.290489 14.756339 36.132812 16.224609 C 36.904299 15.849969 37.748882 15.613778 38.638672 15.517578 C 38.288275 12.588168 35.862633 10.304688 32.837891 10.304688 z M 27.84375 12.595703 C 23.217242 12.595703 19.482422 16.332104 19.482422 20.958984 C 19.482422 25.585574 23.216874 29.320312 27.84375 29.320312 C 32.470622 29.320312 36.207031 25.585194 36.207031 20.958984 C 36.207031 16.332174 32.470266 12.595703 27.84375 12.595703 z M 18.496094 12.632812 C 14.936908 12.632812 12.064453 15.505183 12.064453 19.064453 C 12.064453 21.080143 13.018454 22.838768 14.464844 24.017578 C 15.227605 22.798708 16.522092 21.939453 18.0625 21.939453 C 18.164468 21.939453 18.253909 21.953891 18.349609 21.962891 C 18.315559 21.630771 18.283203 21.298864 18.283203 20.958984 C 18.283203 18.887684 18.957609 16.977456 20.080078 15.410156 C 19.471609 14.607536 19.03655 13.667258 18.8125 12.648438 C 18.705223 12.640838 18.597065 12.632812 18.496094 12.632812 z M 39.4375 16.613281 C 38.421146 16.613281 37.482068 16.8929 36.626953 17.3125 C 37.097028 18.44223 37.408203 19.660784 37.408203 20.958984 C 37.408203 23.475604 36.396128 25.740669 34.802734 27.449219 C 35.973716 28.676519 37.60295 29.464844 39.4375 29.464844 C 42.99668 29.464844 45.871094 26.592393 45.871094 23.033203 C 45.871094 19.477483 43.002181 16.619281 39.447266 16.613281 L 39.4375 16.613281 z M 11.0625 17.511719 C 7.843633 17.568609 5.25 20.151363 5.25 23.382812 C 5.25 26.650252 7.8965415 29.296875 11.164062 29.296875 C 12.348895 29.296875 13.43701 28.928025 14.361328 28.328125 C 14.013271 27.704525 13.748047 27.015866 13.748047 26.253906 C 13.748047 25.859406 13.820162 25.483401 13.919922 25.119141 C 12.081502 23.725681 10.865234 21.543673 10.865234 19.064453 C 10.865234 18.526723 10.955453 18.015879 11.0625 17.511719 z M 47.316406 22.777344 C 47.232816 22.778144 47.14714 22.791781 47.0625 22.800781 C 47.0642 22.877871 47.068359 22.955803 47.068359 23.033203 C 47.068359 24.963423 46.306927 26.698249 45.121094 28.042969 C 45.686281 28.631369 46.451196 29.019531 47.337891 29.019531 C 49.069269 29.019531 50.464844 27.634597 50.464844 25.904297 C 50.464844 24.173967 49.068105 22.777344 47.337891 22.777344 L 47.316406 22.777344 z M 18.0625 23.138672 C 16.331227 23.138672 14.947266 24.522786 14.947266 26.253906 C 14.947266 27.985236 16.332096 29.380859 18.0625 29.380859 C 19.344803 29.380859 20.409399 28.588728 20.892578 27.486328 C 19.778059 26.298448 18.966653 24.826546 18.572266 23.191406 C 18.404683 23.163206 18.237783 23.138672 18.0625 23.138672 z "
       transform="translate(-43.429213,972.85112)"
       id="path4182" />
    <g
       id="g4198"
       transform="matrix(1.2354626,0,0,1.2354626,-0.50917237,-252.79898)">
      <path
         id="path4164"
         d="m 86.125,57.210938 0,6.669921 -3.533203,0 c -2.310348,0 -4.185547,1.886866 -4.185547,4.197266 0,2.31 1.875257,4.1875 4.185547,4.1875 l 1.375,0 c 0.677769,0 1.353362,-0.330884 1.892578,-0.833984 0.53922,-0.5032 0.9526,-1.198463 0.966797,-1.976563 0.02423,-1.3357 0,-5.224609 0,-5.224609 l 0,-7.019531 -0.701172,0 z m -3.535156,7.36914 0.002,0 3.533203,0 c 0.0027,0.4622 0.02203,3.646528 0,4.861328 -0.0099,0.5406 -0.306901,1.083675 -0.736328,1.484375 -0.429424,0.4006 -0.983675,0.638672 -1.421875,0.638672 l -1.376953,0 c -1.932836,0 -3.484375,-1.553928 -3.484375,-3.486328 0,-1.9329 1.551539,-3.498047 3.484375,-3.498047 z"
         style="color:#000000;text-indent:0;text-transform:none;block-progression:tb;fill:#ffffff;fill-opacity:1;enable-background:accumulate;stroke:#ffffff;stroke-opacity:1;stroke-width:0.40470671;stroke-miterlimit:4;stroke-dasharray:none"
         inkscape:connector-curvature="0"
         transform="translate(-0.49794769,941.36304)" />
      <path
         style="color:#000000;text-indent:0;text-transform:none;block-progression:tb;fill:#ffffff;fill-opacity:1;enable-background:accumulate;stroke:#ffffff;stroke-opacity:1;stroke-width:0.40470671;stroke-miterlimit:4;stroke-dasharray:none"
         d="m 55.810547,39.210938 0,3.013671 0,0.002 0,4.003907 0,5.222656 c 0,1.5508 1.273339,2.810547 2.824219,2.810547 l 0,-0.699219 c -1.173491,0 -2.123047,-0.937828 -2.123047,-2.111328 l 0,-5.572266 0,-3.222656 0,-3.447265 -0.701172,0 z"
         id="path4162"
         inkscape:connector-curvature="0"
         transform="translate(-2.4979477,959.36304)" />
      <path
         style="color:#000000;text-indent:0;text-transform:none;block-progression:tb;fill:#ffffff;fill-opacity:1;enable-background:accumulate;stroke:#ffffff;stroke-opacity:1;stroke-width:0.40470671;stroke-miterlimit:4;stroke-dasharray:none"
         d="m 53.291016,41.294922 c -1.731282,0 -3.302336,0.685301 -4.466797,1.792969 -0.0031,-0.0022 -0.0066,-0.0037 -0.0098,-0.0059 -0.0333,0.03177 -0.06308,0.06714 -0.0957,0.09961 -0.02712,0.02693 -0.05148,0.05658 -0.07813,0.08398 -0.112991,0.116428 -0.223999,0.23481 -0.328125,0.359375 -0.03871,0.04625 -0.0739,0.09525 -0.111328,0.142578 -0.09816,0.124244 -0.19415,0.249547 -0.283203,0.38086 -0.01379,0.02032 -0.0255,0.04202 -0.03906,0.0625 -0.09985,0.150871 -0.195968,0.303592 -0.283203,0.46289 -0.0254,0.04632 -0.04602,0.09558 -0.07031,0.142578 -0.0722,0.139873 -0.142993,0.280244 -0.205079,0.425782 -0.02455,0.05744 -0.04348,0.117506 -0.06641,0.175781 -0.05468,0.139258 -0.111142,0.278131 -0.15625,0.421875 -0.02515,0.07994 -0.04235,0.162908 -0.06445,0.24414 -0.03374,0.124381 -0.06933,0.247779 -0.0957,0.375 -0.01884,0.09042 -0.0299,0.183645 -0.04492,0.275391 -0.02079,0.127886 -0.04543,0.254489 -0.05859,0.384766 -0.0092,0.09001 -0.0082,0.182382 -0.01367,0.273437 -0.0075,0.12729 -0.01953,0.253651 -0.01953,0.382813 0,0.002 -2e-6,0.0039 0,0.0059 -1e-6,0.0013 0,0.0026 0,0.0039 0,0.129162 0.01204,0.255523 0.01953,0.382813 0.0055,0.09105 0.0045,0.183426 0.01367,0.273437 0.01316,0.130277 0.0378,0.25688 0.05859,0.384766 0.01502,0.09175 0.02609,0.184974 0.04492,0.27539 0.02637,0.127221 0.06197,0.25062 0.0957,0.375 0.02211,0.08123 0.0393,0.164204 0.06445,0.244141 0.04511,0.143744 0.101574,0.282616 0.15625,0.421875 0.02293,0.05828 0.04185,0.118341 0.06641,0.175781 0.05763,0.135081 0.123102,0.264317 0.189454,0.394532 0.03064,0.06008 0.0574,0.122655 0.08984,0.18164 0.08251,0.150105 0.173842,0.294885 0.267579,0.4375 0.01765,0.02683 0.03275,0.05548 0.05078,0.08203 0.08873,0.130752 0.18544,0.255167 0.283203,0.378907 0.03743,0.04732 0.07262,0.09633 0.111328,0.142578 0.09601,0.114854 0.199171,0.222124 0.302734,0.330078 0.03895,0.04054 0.07526,0.08353 0.115235,0.123047 0.02885,0.02857 0.05461,0.05986 0.08398,0.08789 0.0024,-0.0017 0.0054,-0.0022 0.0078,-0.0039 1.164564,1.108258 2.736947,1.792969 4.46875,1.792969 l 0,-0.701172 c -1.591728,0 -3.032428,-0.63953 -4.078125,-1.675781 -0.01145,-0.01135 -0.0238,-0.02176 -0.03516,-0.0332 -0.11155,-0.112399 -0.216292,-0.230338 -0.318359,-0.351563 -0.0238,-0.02838 -0.04705,-0.0571 -0.07031,-0.08594 -0.09936,-0.12271 -0.193985,-0.250131 -0.283203,-0.38086 -0.0132,-0.01942 -0.0261,-0.03901 -0.03906,-0.05859 -0.08431,-0.126823 -0.163979,-0.257007 -0.238281,-0.390625 -0.02804,-0.05064 -0.05352,-0.102738 -0.08008,-0.154297 -0.06073,-0.117413 -0.119119,-0.235466 -0.171876,-0.357422 -0.02375,-0.05511 -0.04433,-0.111985 -0.06641,-0.167969 -0.048,-0.12125 -0.09487,-0.244009 -0.134765,-0.369141 -0.02464,-0.07766 -0.04498,-0.157291 -0.06641,-0.236328 -0.02878,-0.10566 -0.05916,-0.210365 -0.08203,-0.318359 -0.02458,-0.116727 -0.04115,-0.236274 -0.05859,-0.355469 -0.01144,-0.0775 -0.0268,-0.153941 -0.03516,-0.232422 -0.01822,-0.173529 -0.02674,-0.349617 -0.0293,-0.527343 -4.07e-4,-0.02829 -0.0039,-0.0556 -0.0039,-0.08398 -5e-6,-0.0033 0,-0.0065 0,-0.0098 4.7e-5,-0.02839 0.0035,-0.05569 0.0039,-0.08398 0.0026,-0.177726 0.01108,-0.353814 0.0293,-0.527344 0.0084,-0.07848 0.02371,-0.154919 0.03516,-0.232421 0.01744,-0.119196 0.03402,-0.238742 0.05859,-0.355469 0.02287,-0.107994 0.05325,-0.212699 0.08203,-0.31836 0.02143,-0.07904 0.04176,-0.158671 0.06641,-0.236328 0.03989,-0.125131 0.08677,-0.24789 0.134765,-0.36914 0.02208,-0.05598 0.04266,-0.112856 0.06641,-0.167969 0.05276,-0.121956 0.11115,-0.240009 0.171876,-0.357422 0.02682,-0.05207 0.05174,-0.105114 0.08008,-0.15625 0.06999,-0.125787 0.145736,-0.249365 0.224609,-0.369141 0.02112,-0.03218 0.04272,-0.06397 0.06445,-0.0957 0.08539,-0.12421 0.174949,-0.244402 0.269531,-0.361328 0.02383,-0.02957 0.04788,-0.05881 0.07227,-0.08789 0.102067,-0.121225 0.206809,-0.239164 0.318359,-0.351563 0.01136,-0.01144 0.02371,-0.02186 0.03516,-0.0332 1.045697,-1.036251 2.486397,-1.675781 4.078125,-1.675781 l 0,-0.701172 z"
         id="path4208"
         inkscape:connector-curvature="0"
         transform="translate(-2.4979477,959.36304)" />
      <path
         id="path4158"
         d="m 38.078444,1005.2202 c -2.310352,0 -4.185583,1.8753 -4.185583,4.1856 l 0,3.872 0.699625,0 0,-3.872 c 0,-1.9329 1.55318,-3.4981 3.486016,-3.4981 1.933237,0 3.498129,1.5652 3.498129,3.4981 l 0,3.872 0.699624,0 0,-3.872 c 0,-2.3103 -1.887039,-4.1856 -4.197687,-4.1856 z"
         style="color:#000000;text-indent:0;text-transform:none;block-progression:tb;fill:#ffffff;fill-opacity:1;enable-background:accumulate;stroke:#ffffff;stroke-opacity:1;stroke-width:0.40470671;stroke-miterlimit:4;stroke-dasharray:none"
         inkscape:connector-curvature="0" />
      <path
         id="path4156"
         d="m 62.0625,63.880859 c -2.310468,0 -4.185547,1.886866 -4.185547,4.197266 0,2.3105 1.875106,4.199219 4.185547,4.199219 2.310467,0 4.197266,-1.888719 4.197266,-4.199219 0,-2.3104 -1.886799,-4.197266 -4.197266,-4.197266 z m -0.002,0.699219 c 1.932986,0 3.498047,1.564947 3.498047,3.498047 0,1.933 -1.564999,3.498047 -3.498047,3.498047 -1.93299,0 -3.486328,-1.565047 -3.486328,-3.498047 0,-1.933 1.553338,-3.498047 3.486328,-3.498047 z"
         style="color:#000000;text-indent:0;text-transform:none;block-progression:tb;fill:#ffffff;fill-opacity:1;enable-background:accumulate;stroke:#ffffff;stroke-opacity:1;stroke-width:0.40470671;stroke-miterlimit:4;stroke-dasharray:none"
         inkscape:connector-curvature="0"
         transform="translate(-0.49794769,941.36304)" />
      <path
         id="path4154"
         d="m 15.351562,63.892578 c -2.312409,0.0021 -4.197265,1.87717 -4.197265,4.185547 0,2.3103 1.886978,4.185547 4.197265,4.185547 2.310288,0 4.185547,-1.875347 4.185547,-4.185547 0,-2.308977 -1.873234,-4.1834 -4.18164,-4.185547 l -0.002,0 -0.002,0 z m 0.0039,0.699219 c 1.932808,0 3.486328,1.553428 3.486328,3.486328 0,1.9328 -1.55352,3.486328 -3.486328,3.486328 -1.932808,0 -3.498047,-1.553528 -3.498047,-3.486328 0,-1.9329 1.565179,-3.486328 3.498047,-3.486328 z"
         style="color:#000000;text-indent:0;text-transform:none;block-progression:tb;fill:#ffffff;fill-opacity:1;enable-background:accumulate;stroke:#ffffff;stroke-opacity:1;stroke-width:0.40470671;stroke-miterlimit:4;stroke-dasharray:none"
         inkscape:connector-curvature="0"
         transform="translate(-0.49794769,941.36304)" />
      <path
         id="path4152"
         d="m 21.142988,1005.5698 0,5.2472 c 0,1.5509 1.259942,2.8105 2.810518,2.8105 1.056823,0 1.989293,-0.5843 2.472783,-1.4474 0.480009,0.8631 1.404094,1.4474 2.460705,1.4474 1.550878,0 2.822566,-1.2596 2.822566,-2.8105 l 0,-5.2487 -0.703712,0 0,5.2472 c 0,1.1734 -0.949482,2.1109 -2.12297,2.1109 -1.173489,0 -2.110893,-0.9375 -2.110893,-2.1109 l 0,-5.2487 -0.699686,0 0,5.2472 c 0,1.1735 -0.949058,2.1109 -2.122971,2.1109 -1.173095,0 -2.110893,-0.9375 -2.110893,-2.1109 l 0,-5.2487 -0.699625,0 z"
         style="color:#000000;text-indent:0;text-transform:none;block-progression:tb;fill:#ffffff;fill-opacity:1;enable-background:accumulate;stroke:#ffffff;stroke-opacity:1;stroke-width:0.40470671;stroke-miterlimit:4;stroke-dasharray:none"
         inkscape:connector-curvature="0" />
      <path
         id="path4150"
         d="m 67.593952,1005.5698 0,3.872 c 0,2.31 1.875291,4.1856 4.185581,4.1856 2.310348,0 4.197691,-1.8756 4.197691,-4.1856 l 0,-3.8714 -0.699628,0 0,3.872 c 0,1.9324 -1.565223,3.486 -3.498125,3.486 -1.932839,0 -3.486014,-1.5536 -3.486014,-3.486 l 0,-3.8714 -0.699628,0 z"
         style="color:#000000;text-indent:0;text-transform:none;block-progression:tb;fill:#ffffff;fill-opacity:1;enable-background:accumulate;stroke:#ffffff;stroke-opacity:1;stroke-width:0.40470671;stroke-miterlimit:4;stroke-dasharray:none"
         inkscape:connector-curvature="0" />
    </g>
  </g>
</svg>
