<svg id="Ebene_1" data-name="Ebene 1" xmlns="http://www.w3.org/2000/svg" viewBox="0 0 1109.48 785.82"><defs><style>.cls-1{fill:#d8d8d6;}.cls-11,.cls-14,.cls-2{fill:#78b42a;}.cls-3,.cls-9{fill:#fff;}.cls-3{stroke:#78b42a;}.cls-3,.cls-4,.cls-6,.cls-7,.cls-8{stroke-miterlimit:10;}.cls-3,.cls-4{stroke-width:2px;}.cls-4,.cls-8{fill:none;}.cls-4{stroke:#868681;}.cls-10,.cls-12,.cls-13,.cls-5,.cls-6{fill:#848380;}.cls-6{stroke:#838380;}.cls-6,.cls-7,.cls-8{stroke-width:4px;}.cls-7{fill:#858480;}.cls-7,.cls-8{stroke:#838480;}.cls-13,.cls-14,.cls-9{font-size:22px;font-family:OpenSans, Open Sans;}.cls-10,.cls-11{font-size:30px;font-family:OpenSans-SemiBold, Open Sans;font-weight:600;}.cls-12{font-size:25px;font-family:OpenSans-Italic, Open Sans;font-style:italic;}</style></defs><rect class="cls-1" x="629.48" y="84.65" width="480" height="510.26" rx="14.17"/><rect class="cls-1" y="168.77" width="480" height="617.05" rx="14.17"/><rect class="cls-1" x="629.48" y="620.91" width="480" height="164.91" rx="14.17"/><rect class="cls-2" x="0.15" width="480" height="60" rx="6.47"/><rect class="cls-2" x="679.48" y="161.45" width="380" height="60" rx="6.47"/><rect class="cls-3" x="22.5" y="380" width="435" height="332" rx="14.17"/><rect class="cls-2" x="679.48" y="699.96" width="380" height="60" rx="6.47"/><rect class="cls-2" x="50.1" y="453" width="380" height="60" rx="6.47"/><rect class="cls-2" x="50.1" y="539" width="380" height="60" rx="6.47"/><rect class="cls-3" x="22.5" y="199.48" width="435" height="153.52" rx="14.17"/><rect class="cls-3" x="651.98" y="247.45" width="435" height="321.55" rx="14.17"/><rect class="cls-4" x="679.1" y="398.83" width="380" height="144.17" rx="14.17"/><rect class="cls-4" x="50.1" y="626" width="380" height="60" rx="14.17"/><polygon class="cls-5" points="223.04 178.61 240.41 188.56 257.25 178.83 223.04 178.61"/><polygon class="cls-5" points="257.25 80.19 239.88 70 223.04 79.97 257.25 80.19"/><polygon class="cls-5" points="659.41 207.43 669.6 190.06 659.64 173.22 659.41 207.43"/><polygon class="cls-5" points="659.41 747.07 669.6 729.7 659.64 712.86 659.41 747.07"/><polygon class="cls-5" points="449.8 465.89 439.6 483.26 449.57 500.11 449.8 465.89"/><line class="cls-6" x1="240.15" y1="142.96" x2="240.15" y2="183.58"/><line class="cls-6" x1="240.15" y1="75.1" x2="240.15" y2="104.68"/><line class="cls-7" x1="554.82" y1="483" x2="445.9" y2="483"/><polyline class="cls-8" points="666.48 729.73 554.53 729.73 556.38 190.32 664.9 190.32"/><text class="cls-9" transform="translate(85.53 36.45)">Univention Directory Manager</text><text class="cls-9" transform="translate(828.28 197.9)">Listener</text><text class="cls-9" transform="translate(828.28 736.41)">Listener</text><text class="cls-9" transform="translate(201.33 489.45)">Notifier</text><text class="cls-9" transform="translate(198.9 575.45)">Listener</text><text class="cls-10" transform="translate(669.24 133.69)">UCS Backup Directory Node</text><text class="cls-10" transform="translate(35.8 759.82)">UCS Primary Directory Node</text><text class="cls-10" transform="translate(200.96 135.84)">LDAP</text><text class="cls-11" transform="translate(50.1 426.82)">LDAP Notification</text><text class="cls-10" transform="translate(726.81 669.78)">UCS Managed Node</text><text class="cls-12" transform="translate(705.48 442.54)">Listener Modul</text><text class="cls-13" transform="translate(704.48 485.45)">CUPS Printer, Samba Config,<tspan x="0" y="26.4">Cyrus, ...</tspan></text><text class="cls-11" transform="translate(679.48 295.79)">OpenLDAP</text><text class="cls-14" transform="translate(679.48 343.61)">Users, desktops,<tspan x="0" y="26.4">shares, printers, ...</tspan></text><text class="cls-11" transform="translate(50.1 247.36)">OpenLDAP</text><text class="cls-14" transform="translate(50.1 296.36)">Users, desktops,<tspan x="0" y="26.4">shares, printers, ...</tspan></text><text class="cls-12" transform="translate(158.45 663.36)">Listener Modul</text></svg>