<svg id="Ebene_1" data-name="Ebene 1" xmlns="http://www.w3.org/2000/svg" viewBox="0 0 1538.38 906.27"><defs><style>.cls-1,.cls-6{fill:#fff;}.cls-1{stroke:#00acb6;stroke-width:2px;}.cls-1,.cls-2,.cls-5{stroke-miterlimit:10;}.cls-2{fill:none;}.cls-2,.cls-5{stroke:#838380;stroke-width:4px;}.cls-3{fill:#00acb6;}.cls-4{fill:#868681;}.cls-5{fill:#848380;}.cls-7{fill:#878783;}.cls-8{fill:#858480;}.cls-9{fill:#93608b;}.cls-10{fill:#76b728;}.cls-11{fill:#f6aa42;}.cls-12{fill:#e85281;}.cls-13{fill:#dd042d;}</style></defs><title>190215-domänkonzept-de</title><rect class="cls-1" x="1" y="156.67" width="735.71" height="748.6" rx="14.17"/><polyline class="cls-2" points="369.07 78.06 369.07 42.47 1169.53 42.47 1169.53 77.67"/><path class="cls-3" d="M95.18,253.54H79.86v-2.43l10.79-16H80.15v-3H94.89v2.46l-10.84,16H95.18Z" transform="translate(-50.6 -49.3)"/><path class="cls-3" d="M105.68,253.83a7.83,7.83,0,0,1-5.91-2.2,8.39,8.39,0,0,1-2.13-6.08,9.2,9.2,0,0,1,2-6.24,6.84,6.84,0,0,1,5.43-2.27,6.67,6.67,0,0,1,5.07,2,7.45,7.45,0,0,1,1.86,5.36v1.86h-10.8a5.32,5.32,0,0,0,1.28,3.63,4.46,4.46,0,0,0,3.38,1.27,12.61,12.61,0,0,0,2.68-.27,13.92,13.92,0,0,0,2.65-.91v2.8a10.4,10.4,0,0,1-2.54.85A15.39,15.39,0,0,1,105.68,253.83Zm-.63-14.18a3.48,3.48,0,0,0-2.63,1,5,5,0,0,0-1.18,3h7.36a4.53,4.53,0,0,0-1-3A3.34,3.34,0,0,0,105.05,239.65Z" transform="translate(-50.6 -49.3)"/><path class="cls-3" d="M130.14,253.54h-3.45v-10a4.31,4.31,0,0,0-.76-2.8,2.89,2.89,0,0,0-2.39-.92,3.82,3.82,0,0,0-3.2,1.29,7.12,7.12,0,0,0-1,4.32v8.07h-3.44v-16.2h2.7l.48,2.12h.18a4.75,4.75,0,0,1,2.08-1.79,6.92,6.92,0,0,1,3-.63q5.83,0,5.83,5.94Z" transform="translate(-50.6 -49.3)"/><path class="cls-3" d="M141,251.05a8.19,8.19,0,0,0,2.52-.4v2.6a7.19,7.19,0,0,1-1.47.41,9.57,9.57,0,0,1-1.87.17q-4.89,0-4.89-5.16v-8.73H133v-1.52l2.38-1.26,1.17-3.43h2.12v3.61h4.62v2.6h-4.62v8.68a2.39,2.39,0,0,0,.63,1.83A2.24,2.24,0,0,0,141,251.05Z" transform="translate(-50.6 -49.3)"/><path class="cls-3" d="M154.94,237a8.12,8.12,0,0,1,1.72.15l-.34,3.21a6.39,6.39,0,0,0-1.52-.18,4.4,4.4,0,0,0-3.35,1.35,4.9,4.9,0,0,0-1.28,3.5v8.47h-3.44v-16.2h2.69l.46,2.85h.17a6.57,6.57,0,0,1,2.1-2.3A5.08,5.08,0,0,1,154.94,237Z" transform="translate(-50.6 -49.3)"/><path class="cls-3" d="M169.8,253.54l-.69-2.26H169a6.66,6.66,0,0,1-2.36,2,7.54,7.54,0,0,1-3,.53,5.14,5.14,0,0,1-3.73-1.29,4.79,4.79,0,0,1-1.34-3.65,4.26,4.26,0,0,1,1.86-3.77,10.74,10.74,0,0,1,5.67-1.4l2.8-.08v-.87a3.29,3.29,0,0,0-.73-2.32,3,3,0,0,0-2.25-.77,7.66,7.66,0,0,0-2.39.37,17.48,17.48,0,0,0-2.19.86l-1.12-2.46a11.94,11.94,0,0,1,2.89-1,13.2,13.2,0,0,1,3-.36,7,7,0,0,1,4.66,1.35,5.28,5.28,0,0,1,1.58,4.23v10.92Zm-5.13-2.35a4.26,4.26,0,0,0,3-1,3.8,3.8,0,0,0,1.14-2.94V245.8l-2.08.09a7.17,7.17,0,0,0-3.54.81,2.48,2.48,0,0,0-1.11,2.22,2.15,2.15,0,0,0,.65,1.68A2.74,2.74,0,0,0,164.67,251.19Z" transform="translate(-50.6 -49.3)"/><path class="cls-3" d="M180.51,253.54h-3.45V230.75h3.45Z" transform="translate(-50.6 -49.3)"/><path class="cls-3" d="M192.5,253.83a7.83,7.83,0,0,1-5.91-2.2,8.39,8.39,0,0,1-2.13-6.08,9.2,9.2,0,0,1,2-6.24,6.84,6.84,0,0,1,5.43-2.27,6.67,6.67,0,0,1,5.07,2,7.45,7.45,0,0,1,1.86,5.36v1.86H188a5.27,5.27,0,0,0,1.27,3.63,4.46,4.46,0,0,0,3.38,1.27,12.61,12.61,0,0,0,2.68-.27,14.23,14.23,0,0,0,2.66-.91v2.8a10.33,10.33,0,0,1-2.55.85A15.32,15.32,0,0,1,192.5,253.83Zm-.63-14.18a3.48,3.48,0,0,0-2.63,1,5,5,0,0,0-1.18,3h7.36a4.48,4.48,0,0,0-1-3A3.32,3.32,0,0,0,191.87,239.65Z" transform="translate(-50.6 -49.3)"/><path class="cls-4" d="M554.18,636.42H628a22.15,22.15,0,0,0,22.15-22.15H532a22.14,22.14,0,0,0,22.16,22.15ZM628,621.66h7.38V629H628ZM554.18,666H628a22.15,22.15,0,0,0,22.15-22.15H532A22.14,22.14,0,0,0,554.18,666ZM628,651.19h7.38v7.38H628Zm-73.84,44.29H628a22.15,22.15,0,0,0,22.15-22.15H532a22.14,22.14,0,0,0,22.16,22.15ZM628,680.72h7.38v7.38H628Zm14.77-132.91H539.4L532,606.89H650.17Zm0,0" transform="translate(-50.6 -49.3)"/><path class="cls-4" d="M758.54,70.72V49.3H762V70.72Z" transform="translate(-50.6 -49.3)"/><path class="cls-4" d="M781.58,70.72h-3.45v-10a4.37,4.37,0,0,0-.76-2.8A2.89,2.89,0,0,0,775,57a3.82,3.82,0,0,0-3.2,1.28,7.16,7.16,0,0,0-1,4.33v8.07h-3.44V54.52H770l.48,2.12h.17a4.87,4.87,0,0,1,2.08-1.79,7,7,0,0,1,3-.63q5.84,0,5.83,5.94Z" transform="translate(-50.6 -49.3)"/><path class="cls-4" d="M792.41,68.23a8.19,8.19,0,0,0,2.52-.4v2.59a6.56,6.56,0,0,1-1.47.42,10.49,10.49,0,0,1-1.87.17q-4.89,0-4.89-5.16V57.12h-2.22V55.6l2.38-1.26L788,50.91h2.12v3.61h4.62v2.6h-4.62v8.67a2.45,2.45,0,0,0,.62,1.84A2.27,2.27,0,0,0,792.41,68.23Z" transform="translate(-50.6 -49.3)"/><path class="cls-4" d="M805.24,71a7.83,7.83,0,0,1-5.91-2.2,8.39,8.39,0,0,1-2.13-6.08,9.2,9.2,0,0,1,2-6.24,6.83,6.83,0,0,1,5.43-2.27,6.67,6.67,0,0,1,5.07,2,7.45,7.45,0,0,1,1.86,5.36v1.86h-10.8A5.36,5.36,0,0,0,802,67a4.46,4.46,0,0,0,3.38,1.27,11.83,11.83,0,0,0,2.67-.28,13.69,13.69,0,0,0,2.66-.9v2.8a10.33,10.33,0,0,1-2.55.85A15.21,15.21,0,0,1,805.24,71Zm-.63-14.18a3.48,3.48,0,0,0-2.63,1,5,5,0,0,0-1.18,3h7.36a4.51,4.51,0,0,0-1-3A3.32,3.32,0,0,0,804.61,56.83Z" transform="translate(-50.6 -49.3)"/><path class="cls-4" d="M823.67,54.22a8.09,8.09,0,0,1,1.71.15L825,57.58a6.27,6.27,0,0,0-1.52-.18,4.41,4.41,0,0,0-3.35,1.35,4.88,4.88,0,0,0-1.28,3.5v8.47h-3.44V54.52h2.7l.45,2.85h.18a6.39,6.39,0,0,1,2.1-2.3A5,5,0,0,1,823.67,54.22Z" transform="translate(-50.6 -49.3)"/><path class="cls-4" d="M842.64,70.72h-3.46v-10a4.37,4.37,0,0,0-.75-2.8A2.91,2.91,0,0,0,836,57a3.8,3.8,0,0,0-3.19,1.28,7.09,7.09,0,0,0-1,4.33v8.07h-3.45V54.52h2.7l.48,2.12h.18a4.81,4.81,0,0,1,2.08-1.79,7,7,0,0,1,3-.63c3.88,0,5.83,2,5.83,5.94Z" transform="translate(-50.6 -49.3)"/><path class="cls-4" d="M854.5,71a7.83,7.83,0,0,1-5.91-2.2,8.39,8.39,0,0,1-2.13-6.08,9.2,9.2,0,0,1,2-6.24,6.84,6.84,0,0,1,5.43-2.27,6.67,6.67,0,0,1,5.07,2,7.45,7.45,0,0,1,1.86,5.36v1.86H850A5.31,5.31,0,0,0,851.28,67a4.46,4.46,0,0,0,3.38,1.27,12,12,0,0,0,2.68-.28,14.15,14.15,0,0,0,2.66-.9v2.8a10.33,10.33,0,0,1-2.55.85A15.32,15.32,0,0,1,854.5,71Zm-.63-14.18a3.48,3.48,0,0,0-2.63,1,5,5,0,0,0-1.18,3h7.36a4.46,4.46,0,0,0-1-3A3.29,3.29,0,0,0,853.87,56.83Z" transform="translate(-50.6 -49.3)"/><path class="cls-4" d="M870.75,68.23a8.19,8.19,0,0,0,2.52-.4v2.59a6.5,6.5,0,0,1-1.48.42,10.29,10.29,0,0,1-1.86.17Q865,71,865,65.85V57.12h-2.22V55.6l2.38-1.26,1.17-3.43h2.12v3.61h4.62v2.6h-4.62v8.67a2.45,2.45,0,0,0,.62,1.84A2.27,2.27,0,0,0,870.75,68.23Z" transform="translate(-50.6 -49.3)"/><line class="cls-5" x1="302.13" y1="327.84" x2="436.97" y2="327.84"/><line class="cls-5" x1="301" y1="564.5" x2="436.97" y2="564.5"/><polyline class="cls-2" points="301 801.84 369.07 801.84 369.07 116.33"/><rect class="cls-6" x="128.45" y="756.83" width="63.02" height="36.02"/><path class="cls-7" d="M174.55,801.64v45h72v-45Zm67.52,40.51H179v-36h63Zm-20.26,9h-22.5l-2.26,9-4.5,4.5h36l-4.51-4.5Z" transform="translate(-50.6 -49.3)"/><path class="cls-7" d="M144.28,812.61v45h72v-45Zm67.53,40.52h-63v-36h63Zm-20.26,9H169l-2.25,9-4.49,4.51h36l-4.5-4.51Z" transform="translate(-50.6 -49.3)"/><rect class="cls-6" x="98.19" y="767.82" width="63.02" height="36.02"/><path class="cls-8" d="M170.77,898.16a3.87,3.87,0,0,0-3.17,1.43,7.49,7.49,0,0,0,0,7.91,3.92,3.92,0,0,0,3.21,1.35,8.54,8.54,0,0,0,1.76-.18c.56-.12,1.15-.28,1.76-.47v2a10.8,10.8,0,0,1-3.81.63,6.07,6.07,0,0,1-4.81-1.9,8,8,0,0,1-1.68-5.43,8.68,8.68,0,0,1,.82-3.9,5.84,5.84,0,0,1,2.35-2.56,7.18,7.18,0,0,1,3.63-.89,9,9,0,0,1,4,.92L174,899a15.23,15.23,0,0,0-1.53-.6A5.58,5.58,0,0,0,170.77,898.16Z" transform="translate(-50.6 -49.3)"/><path class="cls-8" d="M179.42,910.65h-2.29v-15.2h2.29Z" transform="translate(-50.6 -49.3)"/><path class="cls-8" d="M182.56,897a1.27,1.27,0,0,1,.34-.94,1.3,1.3,0,0,1,1-.34,1.17,1.17,0,0,1,1.28,1.28,1.29,1.29,0,0,1-.33.93,1.31,1.31,0,0,1-.95.33,1.33,1.33,0,0,1-1-.33A1.29,1.29,0,0,1,182.56,897ZM185,910.65h-2.3V899.84H185Z" transform="translate(-50.6 -49.3)"/><path class="cls-8" d="M193,910.84a5.23,5.23,0,0,1-3.94-1.47,5.61,5.61,0,0,1-1.42-4,6.13,6.13,0,0,1,1.32-4.16,4.55,4.55,0,0,1,3.62-1.51A4.42,4.42,0,0,1,196,901a4.94,4.94,0,0,1,1.24,3.57v1.24H190a3.5,3.5,0,0,0,.85,2.42,3,3,0,0,0,2.25.84,8.32,8.32,0,0,0,1.78-.18,9.57,9.57,0,0,0,1.78-.6v1.87a7.36,7.36,0,0,1-1.7.56A9.77,9.77,0,0,1,193,910.84Zm-.42-9.45a2.32,2.32,0,0,0-1.75.69,3.27,3.27,0,0,0-.78,2h4.9a3,3,0,0,0-.65-2A2.19,2.19,0,0,0,192.57,901.39Z" transform="translate(-50.6 -49.3)"/><path class="cls-8" d="M209.3,910.65H207V904a2.93,2.93,0,0,0-.5-1.86,2,2,0,0,0-1.6-.62,2.55,2.55,0,0,0-2.13.86,4.77,4.77,0,0,0-.67,2.88v5.39h-2.3V899.84h1.8l.32,1.42H202a3.17,3.17,0,0,1,1.38-1.19,4.68,4.68,0,0,1,2-.42q3.89,0,3.88,4Z" transform="translate(-50.6 -49.3)"/><path class="cls-8" d="M216.52,909a5.46,5.46,0,0,0,1.68-.27v1.73a4.91,4.91,0,0,1-1,.28,7.27,7.27,0,0,1-1.25.11c-2.17,0-3.26-1.14-3.26-3.44v-5.82h-1.47v-1l1.58-.84.78-2.29H215v2.4h3.07v1.74H215v5.78a1.6,1.6,0,0,0,.41,1.23A1.54,1.54,0,0,0,216.52,909Z" transform="translate(-50.6 -49.3)"/><path class="cls-8" d="M227.61,907.57a2.84,2.84,0,0,1-1.15,2.43,5.55,5.55,0,0,1-3.3.84,7.92,7.92,0,0,1-3.47-.65v-2a8.45,8.45,0,0,0,3.55.88c1.41,0,2.12-.42,2.12-1.28a1,1,0,0,0-.24-.68,2.78,2.78,0,0,0-.77-.57,14.88,14.88,0,0,0-1.49-.66,6.75,6.75,0,0,1-2.53-1.45,2.65,2.65,0,0,1-.66-1.87,2.46,2.46,0,0,1,1.12-2.15,5.32,5.32,0,0,1,3-.77,8.73,8.73,0,0,1,3.61.77l-.74,1.73a8.08,8.08,0,0,0-2.94-.72c-1.22,0-1.82.34-1.82,1a1,1,0,0,0,.47.86,10.27,10.27,0,0,0,2.07,1,8.92,8.92,0,0,1,1.94,1,2.63,2.63,0,0,1,.9,1A2.79,2.79,0,0,1,227.61,907.57Z" transform="translate(-50.6 -49.3)"/><path class="cls-4" d="M419.46,126a20.7,20.7,0,0,0-15.08,6.24A21.67,21.67,0,0,0,398,147.47,21.61,21.61,0,0,0,419.46,169a21.88,21.88,0,0,0,15.38-6.42A20.73,20.73,0,0,0,441,147.47a21.31,21.31,0,0,0-21.5-21.5Zm.06,3.89a17.48,17.48,0,0,1,17.55,17.61,16.82,16.82,0,0,1-5,12.31A17.87,17.87,0,0,1,419.52,165a17.79,17.79,0,0,1-17.61-17.55A17.78,17.78,0,0,1,407.15,135a16.88,16.88,0,0,1,12.37-5.12Z" transform="translate(-50.6 -49.3)"/><path class="cls-4" d="M412.93,142.37h1.76l-3.63,10.35h-1.78l-3.61-10.35h1.74l2.16,6.44c.11.3.23.7.36,1.18s.21.85.25,1.08a12.17,12.17,0,0,1,.28-1.24c.13-.48.23-.83.31-1.05Z" transform="translate(-50.6 -49.3)"/><path class="cls-4" d="M422.91,145.5a3,3,0,0,1-1.07,2.49,4.68,4.68,0,0,1-3,.86h-1.07v3.87h-1.7V142.37h3a4.49,4.49,0,0,1,2.91.79A2.87,2.87,0,0,1,422.91,145.5Zm-5.16,1.93h.89a3.27,3.27,0,0,0,1.92-.46,1.65,1.65,0,0,0,.6-1.41,1.6,1.6,0,0,0-.54-1.33,2.64,2.64,0,0,0-1.7-.44h-1.17Z" transform="translate(-50.6 -49.3)"/><path class="cls-4" d="M433.6,152.72h-2.08l-5.09-8.25h-.05l0,.46c.07.88.1,1.68.1,2.41v5.38H425V142.37H427l5.07,8.21h0c0-.11,0-.51-.06-1.19s0-1.21,0-1.6v-5.42h1.55Z" transform="translate(-50.6 -49.3)"/><path class="cls-4" d="M1219.46,126a20.7,20.7,0,0,0-15.08,6.24,21.67,21.67,0,0,0-6.36,15.26,21.61,21.61,0,0,0,21.44,21.5,21.88,21.88,0,0,0,15.38-6.42,20.73,20.73,0,0,0,6.12-15.08,21.31,21.31,0,0,0-21.5-21.5Zm.06,3.89a17.48,17.48,0,0,1,17.55,17.61,16.82,16.82,0,0,1-5,12.31,17.87,17.87,0,0,1-12.55,5.24,17.79,17.79,0,0,1-17.61-17.55,17.78,17.78,0,0,1,5.24-12.49,16.88,16.88,0,0,1,12.37-5.12Z" transform="translate(-50.6 -49.3)"/><path class="cls-4" d="M1212.93,142.37h1.76l-3.63,10.35h-1.78l-3.61-10.35h1.74l2.16,6.44c.11.3.23.7.36,1.18s.21.85.25,1.08a12.17,12.17,0,0,1,.28-1.24c.13-.48.23-.83.31-1.05Z" transform="translate(-50.6 -49.3)"/><path class="cls-4" d="M1222.91,145.5a3,3,0,0,1-1.07,2.49,4.68,4.68,0,0,1-3,.86h-1.07v3.87h-1.7V142.37h3a4.49,4.49,0,0,1,2.91.79A2.87,2.87,0,0,1,1222.91,145.5Zm-5.16,1.93h.89a3.27,3.27,0,0,0,1.92-.46,1.65,1.65,0,0,0,.6-1.41,1.6,1.6,0,0,0-.54-1.33,2.64,2.64,0,0,0-1.7-.44h-1.17Z" transform="translate(-50.6 -49.3)"/><path class="cls-4" d="M1233.6,152.72h-2.08l-5.09-8.25h0l0,.46c.07.88.1,1.68.1,2.41v5.38H1225V142.37H1227l5.07,8.21h.05c0-.11,0-.51-.06-1.19s0-1.21,0-1.6v-5.42h1.55Z" transform="translate(-50.6 -49.3)"/><path class="cls-9" d="M718.56,526.1l-27.85,5.52v19.83h27.85Zm-30.55,6-17.28,3.42v15.88H688ZM670.73,553.6v15.92L688,572.93V553.6Zm20,0v19.87L718.56,579V553.6Zm0,0" transform="translate(-50.6 -49.3)"/><path class="cls-8" d="M557.33,477.48h4.24a8.09,8.09,0,0,1,4.26.86,3,3,0,0,1,1.31,2.71,3.27,3.27,0,0,1-.64,2.08,2.85,2.85,0,0,1-1.86,1.05v.1a3.64,3.64,0,0,1,2.21,1.12,3.33,3.33,0,0,1,.71,2.26,3.65,3.65,0,0,1-1.34,3,5.81,5.81,0,0,1-3.74,1.09h-5.15Zm2.33,5.9h2.25a3.93,3.93,0,0,0,2.14-.46,1.78,1.78,0,0,0,.67-1.58,1.58,1.58,0,0,0-.73-1.46,4.51,4.51,0,0,0-2.31-.45h-2Zm0,1.89v4.52h2.48a3.58,3.58,0,0,0,2.21-.56,2.06,2.06,0,0,0,.75-1.77,1.88,1.88,0,0,0-.76-1.65,4,4,0,0,0-2.31-.54Z" transform="translate(-50.6 -49.3)"/><path class="cls-8" d="M577.05,491.76l-.46-1.51h-.08a4.5,4.5,0,0,1-1.57,1.35,5.16,5.16,0,0,1-2,.35,3.4,3.4,0,0,1-2.48-.86,3.19,3.19,0,0,1-.89-2.43,2.86,2.86,0,0,1,1.24-2.52,7.25,7.25,0,0,1,3.78-.93l1.86,0v-.58a2.2,2.2,0,0,0-.48-1.55,2,2,0,0,0-1.5-.51,5.23,5.23,0,0,0-1.59.24,13.61,13.61,0,0,0-1.47.58l-.74-1.64a8,8,0,0,1,1.92-.7,8.9,8.9,0,0,1,2-.24,4.67,4.67,0,0,1,3.11.9,3.52,3.52,0,0,1,1.05,2.82v7.28Zm-3.42-1.56a2.85,2.85,0,0,0,2-.7,2.52,2.52,0,0,0,.76-2v-.94l-1.39.06a4.74,4.74,0,0,0-2.35.54,1.64,1.64,0,0,0-.74,1.48,1.43,1.43,0,0,0,.43,1.12A1.86,1.86,0,0,0,573.63,490.2Z" transform="translate(-50.6 -49.3)"/><path class="cls-8" d="M586.24,492a4.7,4.7,0,0,1-3.72-1.43,7.21,7.21,0,0,1,.06-8.29,4.93,4.93,0,0,1,3.85-1.47,7.16,7.16,0,0,1,3.08.64l-.7,1.84a7.09,7.09,0,0,0-2.4-.56q-2.8,0-2.8,3.72a4.43,4.43,0,0,0,.7,2.73,2.42,2.42,0,0,0,2,.91,5.85,5.85,0,0,0,2.9-.76v2a4.78,4.78,0,0,1-1.31.52A8.25,8.25,0,0,1,586.24,492Z" transform="translate(-50.6 -49.3)"/><path class="cls-8" d="M594,486.05l1.3-1.62,3.26-3.47h2.64l-4.34,4.64,4.62,6.16h-2.7L595.33,487l-1.26,1v3.7h-2.28v-15.2h2.28V484l-.12,2.08Z" transform="translate(-50.6 -49.3)"/><path class="cls-8" d="M610.84,491.76l-.32-1.42h-.12a3.15,3.15,0,0,1-1.36,1.18,4.5,4.5,0,0,1-2,.43,4,4,0,0,1-2.93-1,4,4,0,0,1-1-3V481h2.31v6.66a2.89,2.89,0,0,0,.51,1.86,2,2,0,0,0,1.59.62,2.54,2.54,0,0,0,2.13-.87,4.76,4.76,0,0,0,.68-2.89V481h2.3v10.8Z" transform="translate(-50.6 -49.3)"/><path class="cls-8" d="M621.4,492a3.77,3.77,0,0,1-3.18-1.47h-.14c.09.91.14,1.46.14,1.66v4.42h-2.3V481h1.86c.05.2.16.68.32,1.44h.12a3.59,3.59,0,0,1,3.22-1.64,3.74,3.74,0,0,1,3.15,1.47,8,8,0,0,1,0,8.24A3.78,3.78,0,0,1,621.4,492Zm-.56-9.31a2.35,2.35,0,0,0-2,.8,4.13,4.13,0,0,0-.63,2.56v.34a5.14,5.14,0,0,0,.62,2.86,2.35,2.35,0,0,0,2,.88,2.08,2.08,0,0,0,1.84-1,5,5,0,0,0,.64-2.78,4.84,4.84,0,0,0-.64-2.75A2.12,2.12,0,0,0,620.84,482.64Z" transform="translate(-50.6 -49.3)"/><path class="cls-8" d="M116.24,454.48a7.12,7.12,0,0,1-2,5.41,7.89,7.89,0,0,1-5.65,1.87h-4V447.48H109a7.27,7.27,0,0,1,5.3,1.84A6.82,6.82,0,0,1,116.24,454.48Zm-2.46.08q0-5.13-4.8-5.13h-2v10.36h1.66Q113.78,459.79,113.78,454.56Z" transform="translate(-50.6 -49.3)"/><path class="cls-8" d="M128.64,456.34a5.88,5.88,0,0,1-1.36,4.13A4.85,4.85,0,0,1,123.5,462a5.1,5.1,0,0,1-2.67-.68,4.54,4.54,0,0,1-1.79-2,6.69,6.69,0,0,1-.62-3,5.84,5.84,0,0,1,1.34-4.1,4.88,4.88,0,0,1,3.8-1.48,4.78,4.78,0,0,1,3.71,1.51A5.84,5.84,0,0,1,128.64,456.34Zm-7.86,0q0,3.74,2.76,3.74t2.74-3.74q0-3.7-2.76-3.7a2.35,2.35,0,0,0-2.09.95A4.92,4.92,0,0,0,120.78,456.34Z" transform="translate(-50.6 -49.3)"/><path class="cls-8" d="M140.38,461.76h-2.31V455.1a3,3,0,0,0-.47-1.85,1.71,1.71,0,0,0-1.46-.61,2.25,2.25,0,0,0-1.95.86,5.13,5.13,0,0,0-.62,2.88v5.38h-2.29V451h1.79l.33,1.41h.11a3,3,0,0,1,1.31-1.19,4.19,4.19,0,0,1,1.88-.42c1.66,0,2.76.57,3.3,1.7h.15a3.33,3.33,0,0,1,1.35-1.25,4.29,4.29,0,0,1,2-.45,3.64,3.64,0,0,1,2.82,1,4.31,4.31,0,0,1,.88,3v7H144.9V455.1a3,3,0,0,0-.47-1.85,1.75,1.75,0,0,0-1.47-.61,2.28,2.28,0,0,0-2,.83,4.27,4.27,0,0,0-.62,2.57Z" transform="translate(-50.6 -49.3)"/><path class="cls-8" d="M157.16,461.76l-.46-1.51h-.08a4.5,4.5,0,0,1-1.57,1.35,5.16,5.16,0,0,1-2,.35,3.4,3.4,0,0,1-2.48-.86,3.19,3.19,0,0,1-.89-2.43,2.86,2.86,0,0,1,1.24-2.52,7.25,7.25,0,0,1,3.78-.93l1.86,0v-.58A2.2,2.2,0,0,0,156,453a2,2,0,0,0-1.5-.51,5.23,5.23,0,0,0-1.59.24,13.61,13.61,0,0,0-1.47.58l-.74-1.64a8,8,0,0,1,1.92-.7,8.9,8.9,0,0,1,2-.24,4.67,4.67,0,0,1,3.11.9,3.52,3.52,0,0,1,1.05,2.82v7.28Zm-3.42-1.56a2.85,2.85,0,0,0,2-.7,2.52,2.52,0,0,0,.76-2v-.94l-1.39.06a4.74,4.74,0,0,0-2.35.54,1.64,1.64,0,0,0-.74,1.48,1.43,1.43,0,0,0,.43,1.12A1.88,1.88,0,0,0,153.74,460.2Z" transform="translate(-50.6 -49.3)"/><path class="cls-8" d="M161.86,448.1a1.26,1.26,0,0,1,.34-1,1.32,1.32,0,0,1,1-.33,1.17,1.17,0,0,1,1.28,1.28,1.23,1.23,0,0,1-.34.92,1.27,1.27,0,0,1-.94.34,1.32,1.32,0,0,1-1-.34A1.23,1.23,0,0,1,161.86,448.1Zm2.43,13.66H162V451h2.29Z" transform="translate(-50.6 -49.3)"/><path class="cls-8" d="M177.08,461.76h-2.31v-6.64a2.9,2.9,0,0,0-.5-1.87,2,2,0,0,0-1.6-.61,2.52,2.52,0,0,0-2.13.86,4.73,4.73,0,0,0-.67,2.88v5.38h-2.29V451h1.79l.32,1.41h.12a3.25,3.25,0,0,1,1.39-1.19,4.64,4.64,0,0,1,2-.42q3.88,0,3.89,4Z" transform="translate(-50.6 -49.3)"/><path class="cls-8" d="M191.78,449.28a3.84,3.84,0,0,0-3.16,1.42,7.49,7.49,0,0,0,0,7.91,3.9,3.9,0,0,0,3.2,1.35,8.4,8.4,0,0,0,1.76-.18c.57-.12,1.16-.27,1.77-.46v2a10.8,10.8,0,0,1-3.81.63,6.07,6.07,0,0,1-4.81-1.9,7.92,7.92,0,0,1-1.68-5.43,8.85,8.85,0,0,1,.81-3.9,5.91,5.91,0,0,1,2.36-2.56,7.16,7.16,0,0,1,3.62-.88,9,9,0,0,1,4,.91l-.84,1.95a11.59,11.59,0,0,0-1.53-.6A5.31,5.31,0,0,0,191.78,449.28Z" transform="translate(-50.6 -49.3)"/><path class="cls-8" d="M207.72,456.34a5.88,5.88,0,0,1-1.36,4.13,4.85,4.85,0,0,1-3.78,1.48,5.13,5.13,0,0,1-2.67-.68,4.54,4.54,0,0,1-1.79-2,6.83,6.83,0,0,1-.62-3,5.89,5.89,0,0,1,1.34-4.1,4.88,4.88,0,0,1,3.8-1.48,4.76,4.76,0,0,1,3.71,1.51A5.8,5.8,0,0,1,207.72,456.34Zm-7.86,0q0,3.74,2.76,3.74t2.74-3.74q0-3.7-2.76-3.7a2.35,2.35,0,0,0-2.09.95A4.92,4.92,0,0,0,199.86,456.34Z" transform="translate(-50.6 -49.3)"/><path class="cls-8" d="M219.86,461.76h-2.3v-6.64a2.9,2.9,0,0,0-.51-1.87,1.92,1.92,0,0,0-1.59-.61,2.52,2.52,0,0,0-2.13.86,4.72,4.72,0,0,0-.68,2.88v5.38h-2.29V451h1.8l.32,1.41h.11a3.25,3.25,0,0,1,1.39-1.19,4.67,4.67,0,0,1,2-.42c2.6,0,3.89,1.32,3.89,4Z" transform="translate(-50.6 -49.3)"/><path class="cls-8" d="M227.08,460.1a5.46,5.46,0,0,0,1.68-.27v1.73a4.48,4.48,0,0,1-1,.28,6.39,6.39,0,0,1-1.25.11q-3.25,0-3.26-3.43V452.7h-1.48v-1l1.59-.84.78-2.29h1.41V451h3.08v1.74h-3.08v5.78a1.6,1.6,0,0,0,.42,1.22A1.5,1.5,0,0,0,227.08,460.1Z" transform="translate(-50.6 -49.3)"/><path class="cls-8" d="M236.39,450.76a5.22,5.22,0,0,1,1.15.1l-.23,2.14a4.17,4.17,0,0,0-1-.12,3,3,0,0,0-2.24.9,3.29,3.29,0,0,0-.85,2.33v5.65h-2.29V451h1.79l.3,1.9h.12a4.4,4.4,0,0,1,1.4-1.53A3.33,3.33,0,0,1,236.39,450.76Z" transform="translate(-50.6 -49.3)"/><path class="cls-8" d="M249.12,456.34a5.88,5.88,0,0,1-1.36,4.13A4.85,4.85,0,0,1,244,462a5.1,5.1,0,0,1-2.67-.68,4.54,4.54,0,0,1-1.79-2,6.69,6.69,0,0,1-.63-3,5.84,5.84,0,0,1,1.35-4.1,4.88,4.88,0,0,1,3.8-1.48,4.78,4.78,0,0,1,3.71,1.51A5.84,5.84,0,0,1,249.12,456.34Zm-7.86,0q0,3.74,2.76,3.74t2.73-3.74c0-2.47-.91-3.7-2.75-3.7a2.35,2.35,0,0,0-2.09.95A4.84,4.84,0,0,0,241.26,456.34Z" transform="translate(-50.6 -49.3)"/><path class="cls-8" d="M254.05,461.76h-2.3v-15.2h2.3Z" transform="translate(-50.6 -49.3)"/><path class="cls-8" d="M259.63,461.76h-2.3v-15.2h2.3Z" transform="translate(-50.6 -49.3)"/><path class="cls-8" d="M267.62,462a5.23,5.23,0,0,1-3.94-1.47,5.6,5.6,0,0,1-1.42-4,6.11,6.11,0,0,1,1.32-4.16,4.56,4.56,0,0,1,3.62-1.52,4.46,4.46,0,0,1,3.38,1.3,5,5,0,0,1,1.24,3.57v1.24h-7.19a3.5,3.5,0,0,0,.85,2.42,2.92,2.92,0,0,0,2.25.85,8.32,8.32,0,0,0,1.78-.18,9.33,9.33,0,0,0,1.78-.6v1.86a7,7,0,0,1-1.7.57A10.61,10.61,0,0,1,267.62,462Zm-.42-9.45a2.32,2.32,0,0,0-1.75.69,3.3,3.3,0,0,0-.78,2h4.9a3,3,0,0,0-.65-2A2.19,2.19,0,0,0,267.2,452.5Z" transform="translate(-50.6 -49.3)"/><path class="cls-8" d="M279.91,450.76a5.18,5.18,0,0,1,1.14.1l-.22,2.14a4.31,4.31,0,0,0-1-.12,2.93,2.93,0,0,0-2.23.9,3.25,3.25,0,0,0-.85,2.33v5.65h-2.3V451h1.8l.3,1.9h.12a4.31,4.31,0,0,1,1.4-1.53A3.33,3.33,0,0,1,279.91,450.76Z" transform="translate(-50.6 -49.3)"/><path class="cls-8" d="M166.23,485.76l-4.14-11.93H162c.12,1.78.17,3.44.17,5v6.95h-2.12V471.48h3.29l4,11.36h.06l4.08-11.36h3.3v14.28h-2.25V478.7c0-.71,0-1.64.06-2.78s.06-1.82.09-2.07h-.08l-4.29,11.91Z" transform="translate(-50.6 -49.3)"/><path class="cls-8" d="M185,485.76l-.46-1.51h-.08a4.42,4.42,0,0,1-1.57,1.35,5.1,5.1,0,0,1-2,.35,3.39,3.39,0,0,1-2.48-.86,3.19,3.19,0,0,1-.9-2.43,2.88,2.88,0,0,1,1.24-2.52,7.31,7.31,0,0,1,3.78-.93l1.87,0v-.58a2.15,2.15,0,0,0-.49-1.55,2,2,0,0,0-1.5-.51,5.28,5.28,0,0,0-1.59.24,13.44,13.44,0,0,0-1.46.58l-.74-1.64a7.68,7.68,0,0,1,1.92-.7,8.82,8.82,0,0,1,2-.24,4.65,4.65,0,0,1,3.11.9,3.52,3.52,0,0,1,1,2.82v7.28Zm-3.42-1.56a2.86,2.86,0,0,0,2-.7,2.52,2.52,0,0,0,.76-2v-.94l-1.39.06a4.79,4.79,0,0,0-2.36.54,1.67,1.67,0,0,0-.74,1.48,1.47,1.47,0,0,0,.43,1.12A1.88,1.88,0,0,0,181.61,484.2Z" transform="translate(-50.6 -49.3)"/><path class="cls-8" d="M197.13,482.68a2.83,2.83,0,0,1-1.15,2.43,5.55,5.55,0,0,1-3.3.84,7.75,7.75,0,0,1-3.47-.65v-2a8.61,8.61,0,0,0,3.55.88c1.41,0,2.12-.43,2.12-1.28a1,1,0,0,0-.24-.69,2.73,2.73,0,0,0-.77-.56,13.47,13.47,0,0,0-1.49-.67,6.9,6.9,0,0,1-2.53-1.44,2.68,2.68,0,0,1-.66-1.88,2.45,2.45,0,0,1,1.12-2.15,5.32,5.32,0,0,1,3-.77,8.73,8.73,0,0,1,3.61.77l-.75,1.73a8,8,0,0,0-2.94-.72c-1.21,0-1.81.34-1.81,1a1,1,0,0,0,.47.86,10.27,10.27,0,0,0,2.07,1,9.4,9.4,0,0,1,1.94,1,2.81,2.81,0,0,1,.9,1A2.91,2.91,0,0,1,197.13,482.68Z" transform="translate(-50.6 -49.3)"/><path class="cls-8" d="M203.63,484.1a5.42,5.42,0,0,0,1.68-.27v1.73a4.32,4.32,0,0,1-1,.28,6.29,6.29,0,0,1-1.24.11c-2.18,0-3.26-1.14-3.26-3.43V476.7h-1.48v-1l1.58-.84.78-2.29h1.42V475h3.08v1.74h-3.08v5.78a1.6,1.6,0,0,0,.42,1.22A1.47,1.47,0,0,0,203.63,484.1Z" transform="translate(-50.6 -49.3)"/><path class="cls-8" d="M212.19,486a5.23,5.23,0,0,1-3.94-1.47,5.56,5.56,0,0,1-1.42-4,6.11,6.11,0,0,1,1.32-4.16,4.55,4.55,0,0,1,3.62-1.52,4.47,4.47,0,0,1,3.38,1.3,5,5,0,0,1,1.24,3.57v1.24h-7.2a3.55,3.55,0,0,0,.85,2.42,3,3,0,0,0,2.26.85,8.32,8.32,0,0,0,1.78-.18,9.25,9.25,0,0,0,1.77-.6v1.86a6.81,6.81,0,0,1-1.7.57A10.42,10.42,0,0,1,212.19,486Zm-.42-9.45a2.3,2.3,0,0,0-1.75.69,3.36,3.36,0,0,0-.79,2h4.9a2.94,2.94,0,0,0-.64-2A2.21,2.21,0,0,0,211.77,476.5Z" transform="translate(-50.6 -49.3)"/><path class="cls-8" d="M224.47,474.76a5.22,5.22,0,0,1,1.15.1l-.23,2.14a4.17,4.17,0,0,0-1-.12,2.93,2.93,0,0,0-2.23.9,3.25,3.25,0,0,0-.86,2.33v5.65H219V475h1.79l.31,1.9h.11a4.4,4.4,0,0,1,1.4-1.53A3.33,3.33,0,0,1,224.47,474.76Z" transform="translate(-50.6 -49.3)"/><path class="cls-8" d="M528.59,729.34h-2.54l-2.42-8.52c-.11-.37-.24-.91-.39-1.61S523,718,523,717.75c-.06.42-.17,1-.31,1.62s-.27,1.16-.37,1.49l-2.36,8.48h-2.54l-1.85-7.15-1.87-7.13H516l2,8.32a33.53,33.53,0,0,1,.68,3.53c.08-.55.18-1.17.33-1.85s.27-1.24.39-1.66l2.32-8.34h2.32l2.38,8.38a29.83,29.83,0,0,1,.72,3.47,25.94,25.94,0,0,1,.7-3.55l2-8.3h2.36Z" transform="translate(-50.6 -49.3)"/><path class="cls-8" d="M534,715.67a1.23,1.23,0,0,1,.34-.94,1.26,1.26,0,0,1,1-.34,1.25,1.25,0,0,1,.94.34,1.23,1.23,0,0,1,.34.94,1.25,1.25,0,0,1-.34.93,1.28,1.28,0,0,1-.94.33,1.3,1.3,0,0,1-1-.33A1.25,1.25,0,0,1,534,715.67Zm2.43,13.67h-2.29v-10.8h2.29Z" transform="translate(-50.6 -49.3)"/><path class="cls-8" d="M549.16,729.34h-2.3V722.7a2.94,2.94,0,0,0-.5-1.87,2,2,0,0,0-1.6-.62,2.55,2.55,0,0,0-2.13.86A4.77,4.77,0,0,0,542,724v5.39h-2.3v-10.8h1.8l.32,1.41h.12a3.19,3.19,0,0,1,1.39-1.19,4.61,4.61,0,0,1,2-.42q3.88,0,3.88,3.95Z" transform="translate(-50.6 -49.3)"/><path class="cls-8" d="M556,729.53a3.76,3.76,0,0,1-3.15-1.46,8,8,0,0,1,0-8.25,3.8,3.8,0,0,1,3.18-1.48,3.71,3.71,0,0,1,3.24,1.57h.12a13.85,13.85,0,0,1-.17-1.83v-3.94h2.31v15.2h-1.8l-.4-1.42h-.11A3.67,3.67,0,0,1,556,729.53Zm.62-1.85a2.51,2.51,0,0,0,2.06-.8,4.16,4.16,0,0,0,.66-2.58V724a4.88,4.88,0,0,0-.66-2.9,2.49,2.49,0,0,0-2.08-.86,2.11,2.11,0,0,0-1.87,1,5,5,0,0,0-.65,2.79,4.91,4.91,0,0,0,.63,2.74A2.15,2.15,0,0,0,556.62,727.68Z" transform="translate(-50.6 -49.3)"/><path class="cls-8" d="M574.4,723.92a5.88,5.88,0,0,1-1.36,4.13,4.85,4.85,0,0,1-3.78,1.48,5.2,5.2,0,0,1-2.67-.68,4.51,4.51,0,0,1-1.79-2,6.61,6.61,0,0,1-.63-3,5.87,5.87,0,0,1,1.35-4.11,4.91,4.91,0,0,1,3.8-1.47,4.74,4.74,0,0,1,3.71,1.51A5.83,5.83,0,0,1,574.4,723.92Zm-7.86,0q0,3.74,2.76,3.74c1.82,0,2.74-1.25,2.74-3.74s-.92-3.71-2.76-3.71a2.34,2.34,0,0,0-2.09,1A4.82,4.82,0,0,0,566.54,723.92Z" transform="translate(-50.6 -49.3)"/><path class="cls-8" d="M585.89,729.34l-1.39-5c-.17-.54-.48-1.78-.92-3.72h-.09c-.38,1.75-.68,3-.9,3.74l-1.43,5h-2.54l-3-10.8h2.34l1.38,5.32c.31,1.31.53,2.44.67,3.38h0c.07-.48.17-1,.3-1.64a13.25,13.25,0,0,1,.35-1.38l1.64-5.68h2.52l1.59,5.68c.1.32.22.81.37,1.46a13.23,13.23,0,0,1,.26,1.54h.07a30,30,0,0,1,.69-3.36l1.39-5.32h2.31l-3,10.8Z" transform="translate(-50.6 -49.3)"/><path class="cls-8" d="M600.63,726.26a2.84,2.84,0,0,1-1.15,2.43,5.55,5.55,0,0,1-3.3.84,7.89,7.89,0,0,1-3.47-.65v-2a8.45,8.45,0,0,0,3.54.88c1.42,0,2.12-.42,2.12-1.28a1,1,0,0,0-.23-.68,2.94,2.94,0,0,0-.77-.57,15.23,15.23,0,0,0-1.5-.66,6.78,6.78,0,0,1-2.52-1.45,2.65,2.65,0,0,1-.66-1.87,2.44,2.44,0,0,1,1.12-2.15,5.3,5.3,0,0,1,3-.77,8.65,8.65,0,0,1,3.6.77l-.74,1.73a8,8,0,0,0-2.94-.72c-1.21,0-1.81.34-1.81,1a1,1,0,0,0,.47.86,10.1,10.1,0,0,0,2.06,1,9,9,0,0,1,2,.95,2.81,2.81,0,0,1,.9,1A2.91,2.91,0,0,1,600.63,726.26Z" transform="translate(-50.6 -49.3)"/><path class="cls-8" d="M616.78,725.46a3.6,3.6,0,0,1-1.38,3,6,6,0,0,1-3.79,1.08,9.1,9.1,0,0,1-4-.75v-2.21a10,10,0,0,0,2.08.72,8.55,8.55,0,0,0,2,.27,3.27,3.27,0,0,0,2-.53,1.71,1.71,0,0,0,.66-1.41,1.75,1.75,0,0,0-.61-1.36,9,9,0,0,0-2.5-1.32,6.58,6.58,0,0,1-2.75-1.81,3.79,3.79,0,0,1-.8-2.44,3.4,3.4,0,0,1,1.27-2.81,5.26,5.26,0,0,1,3.4-1,10,10,0,0,1,4.09.9l-.75,1.91a8.79,8.79,0,0,0-3.39-.8,2.59,2.59,0,0,0-1.72.49,1.62,1.62,0,0,0-.59,1.3,1.79,1.79,0,0,0,.24,1,2.22,2.22,0,0,0,.77.75,13.09,13.09,0,0,0,1.93.93,10.28,10.28,0,0,1,2.31,1.22,3.67,3.67,0,0,1,1.07,1.28A3.79,3.79,0,0,1,616.78,725.46Z" transform="translate(-50.6 -49.3)"/><path class="cls-8" d="M624,729.53a5.21,5.21,0,0,1-3.94-1.47,5.57,5.57,0,0,1-1.42-4,6.17,6.17,0,0,1,1.31-4.16,4.56,4.56,0,0,1,3.63-1.51,4.45,4.45,0,0,1,3.38,1.3,5,5,0,0,1,1.24,3.57v1.24H621a3.55,3.55,0,0,0,.85,2.42,3,3,0,0,0,2.26.84,8.39,8.39,0,0,0,1.78-.18,9.25,9.25,0,0,0,1.77-.6v1.87a7.91,7.91,0,0,1-1.7.57A11.42,11.42,0,0,1,624,729.53Zm-.42-9.45a2.33,2.33,0,0,0-1.76.69,3.33,3.33,0,0,0-.78,2H626a3,3,0,0,0-.64-2A2.21,2.21,0,0,0,623.6,720.08Z" transform="translate(-50.6 -49.3)"/><path class="cls-8" d="M636.3,718.34a5.22,5.22,0,0,1,1.15.1l-.23,2.14a4.17,4.17,0,0,0-1-.12,3,3,0,0,0-2.24.9,3.21,3.21,0,0,0-.85,2.33v5.65h-2.3v-10.8h1.8l.3,1.9H633a4.23,4.23,0,0,1,1.4-1.53A3.33,3.33,0,0,1,636.3,718.34Z" transform="translate(-50.6 -49.3)"/><path class="cls-8" d="M641.91,729.34l-4.1-10.8h2.42l2.2,6.27a13.16,13.16,0,0,1,.68,2.56h.08a16.9,16.9,0,0,1,.68-2.56l2.2-6.27h2.44l-4.12,10.8Z" transform="translate(-50.6 -49.3)"/><path class="cls-8" d="M654.87,729.53a5.21,5.21,0,0,1-3.94-1.47,5.57,5.57,0,0,1-1.42-4,6.17,6.17,0,0,1,1.31-4.16,4.56,4.56,0,0,1,3.63-1.51,4.45,4.45,0,0,1,3.38,1.3,5,5,0,0,1,1.24,3.57v1.24h-7.2a3.55,3.55,0,0,0,.85,2.42,3,3,0,0,0,2.25.84,8.42,8.42,0,0,0,1.79-.18,9.25,9.25,0,0,0,1.77-.6v1.87a7.91,7.91,0,0,1-1.7.57A11.42,11.42,0,0,1,654.87,729.53Zm-.42-9.45a2.33,2.33,0,0,0-1.76.69,3.27,3.27,0,0,0-.78,2h4.9a3,3,0,0,0-.64-2A2.21,2.21,0,0,0,654.45,720.08Z" transform="translate(-50.6 -49.3)"/><path class="cls-8" d="M667.15,718.34a5.06,5.06,0,0,1,1.14.1l-.22,2.14a4.19,4.19,0,0,0-1-.12,3,3,0,0,0-2.23.9,3.21,3.21,0,0,0-.85,2.33v5.65h-2.3v-10.8h1.8l.3,1.9h.12a4.23,4.23,0,0,1,1.4-1.53A3.33,3.33,0,0,1,667.15,718.34Z" transform="translate(-50.6 -49.3)"/><rect class="cls-1" x="801.67" y="156.67" width="735.71" height="521.23" rx="14.17"/><path class="cls-3" d="M894.74,247.72a5.37,5.37,0,0,1-2.07,4.48,9,9,0,0,1-5.7,1.63,13.66,13.66,0,0,1-6-1.13v-3.31a16.67,16.67,0,0,0,3.12,1.09,13.37,13.37,0,0,0,3.07.39,4.83,4.83,0,0,0,3.06-.79,2.57,2.57,0,0,0,1-2.12,2.69,2.69,0,0,0-.9-2,13.66,13.66,0,0,0-3.75-2,9.92,9.92,0,0,1-4.14-2.71,5.71,5.71,0,0,1-1.2-3.66,5.14,5.14,0,0,1,1.91-4.22,7.92,7.92,0,0,1,5.11-1.54,15,15,0,0,1,6.12,1.35L893.3,236a13.36,13.36,0,0,0-5.1-1.2,3.89,3.89,0,0,0-2.58.74,2.43,2.43,0,0,0-.87,1.95,2.68,2.68,0,0,0,.35,1.43,3.53,3.53,0,0,0,1.15,1.12,19.61,19.61,0,0,0,2.9,1.39,16.2,16.2,0,0,1,3.46,1.83,5.45,5.45,0,0,1,1.61,1.92A5.84,5.84,0,0,1,894.74,247.72Z" transform="translate(-50.6 -49.3)"/><path class="cls-3" d="M904.55,251.05a8.19,8.19,0,0,0,2.52-.4v2.6a7.19,7.19,0,0,1-1.47.41,9.57,9.57,0,0,1-1.87.17q-4.89,0-4.89-5.16v-8.73h-2.21v-1.52l2.37-1.26,1.17-3.43h2.12v3.61h4.62v2.6h-4.62v8.68a2.39,2.39,0,0,0,.63,1.83A2.24,2.24,0,0,0,904.55,251.05Z" transform="translate(-50.6 -49.3)"/><path class="cls-3" d="M920.44,253.54l-.69-2.26h-.11a6.66,6.66,0,0,1-2.36,2,7.59,7.59,0,0,1-3,.53,5.17,5.17,0,0,1-3.73-1.29,4.83,4.83,0,0,1-1.34-3.65,4.26,4.26,0,0,1,1.86-3.77,10.74,10.74,0,0,1,5.67-1.4l2.8-.08v-.87a3.29,3.29,0,0,0-.72-2.32,3,3,0,0,0-2.25-.77,7.61,7.61,0,0,0-2.39.37,18.25,18.25,0,0,0-2.2.86l-1.11-2.46a11.94,11.94,0,0,1,2.89-1,13.18,13.18,0,0,1,2.95-.36,7,7,0,0,1,4.67,1.35,5.27,5.27,0,0,1,1.57,4.23v10.92Zm-5.12-2.35a4.26,4.26,0,0,0,3-1,3.83,3.83,0,0,0,1.13-2.94V245.8l-2.08.09a7.2,7.2,0,0,0-3.54.81,2.5,2.5,0,0,0-1.1,2.22,2.15,2.15,0,0,0,.64,1.68A2.76,2.76,0,0,0,915.32,251.19Z" transform="translate(-50.6 -49.3)"/><path class="cls-3" d="M942,253.54H938.5v-10a4.37,4.37,0,0,0-.75-2.8,2.89,2.89,0,0,0-2.39-.92,3.82,3.82,0,0,0-3.2,1.29,7.12,7.12,0,0,0-1,4.32v8.07h-3.44v-16.2h2.69l.49,2.12h.17a4.87,4.87,0,0,1,2.08-1.79,7,7,0,0,1,3-.63Q942,237,942,243Z" transform="translate(-50.6 -49.3)"/><path class="cls-3" d="M952.22,253.83a5.65,5.65,0,0,1-4.74-2.2,12.07,12.07,0,0,1,0-12.37,5.67,5.67,0,0,1,4.76-2.22,5.61,5.61,0,0,1,4.87,2.36h.17a21.72,21.72,0,0,1-.25-2.75v-5.9h3.46v22.79h-2.69l-.6-2.13h-.17A5.48,5.48,0,0,1,952.22,253.83Zm.92-2.78a3.75,3.75,0,0,0,3.09-1.2,6.28,6.28,0,0,0,1-3.87v-.48a7.25,7.25,0,0,0-1-4.35,3.68,3.68,0,0,0-3.12-1.29,3.18,3.18,0,0,0-2.8,1.47,7.58,7.58,0,0,0-1,4.2,7.37,7.37,0,0,0,.95,4.1A3.21,3.21,0,0,0,953.14,251.05Z" transform="translate(-50.6 -49.3)"/><path class="cls-3" d="M979.81,245.41a8.86,8.86,0,0,1-2,6.19,7.29,7.29,0,0,1-5.67,2.23,7.83,7.83,0,0,1-4-1,6.86,6.86,0,0,1-2.68-2.95,10.08,10.08,0,0,1-.93-4.45,8.75,8.75,0,0,1,2-6.15,7.32,7.32,0,0,1,5.7-2.22,7.12,7.12,0,0,1,5.56,2.27A8.73,8.73,0,0,1,979.81,245.41Zm-11.79,0q0,5.61,4.15,5.61t4.1-5.61q0-5.55-4.13-5.55a3.49,3.49,0,0,0-3.14,1.43A7.31,7.31,0,0,0,968,245.41Z" transform="translate(-50.6 -49.3)"/><path class="cls-3" d="M992,237a8.09,8.09,0,0,1,1.71.15l-.34,3.21a6.27,6.27,0,0,0-1.52-.18,4.41,4.41,0,0,0-3.35,1.35,4.9,4.9,0,0,0-1.28,3.5v8.47h-3.44v-16.2h2.69l.46,2.85h.17a6.5,6.5,0,0,1,2.11-2.3A5,5,0,0,1,992,237Z" transform="translate(-50.6 -49.3)"/><path class="cls-3" d="M1002.74,251.05a8.19,8.19,0,0,0,2.52-.4v2.6a7.19,7.19,0,0,1-1.47.41,9.64,9.64,0,0,1-1.87.17q-4.89,0-4.89-5.16v-8.73h-2.22v-1.52l2.38-1.26,1.17-3.43h2.12v3.61h4.62v2.6h-4.62v8.68a2.42,2.42,0,0,0,.62,1.83A2.27,2.27,0,0,0,1002.74,251.05Z" transform="translate(-50.6 -49.3)"/><path class="cls-3" d="M1029.94,253.54l-2.14-5.95h-8.19l-2.09,5.95h-3.69l8-21.51h3.81l8,21.51Zm-3.06-9-2-5.83c-.14-.39-.35-1-.61-1.84s-.43-1.46-.53-1.85a31.6,31.6,0,0,1-1.16,3.94l-1.93,5.58Z" transform="translate(-50.6 -49.3)"/><line class="cls-5" x1="1102.8" y1="327.84" x2="1237.64" y2="327.84"/><polyline class="cls-2" points="1101.67 565.84 1169.74 565.84 1169.74 116.33"/><rect class="cls-6" x="919.17" y="519.12" width="63.82" height="36.81"/><path class="cls-7" d="M965.69,564.72v45h72v-45Zm67.52,40.51h-63v-36h63Zm-20.25,9H990.45l-2.25,9-4.5,4.5h36l-4.5-4.5Z" transform="translate(-50.6 -49.3)"/><rect class="cls-6" x="888.51" y="530.11" width="64.42" height="37.45"/><path class="cls-7" d="M935.43,575.7v45h72v-45ZM1003,616.21h-63v-36h63Zm-20.26,9h-22.5l-2.26,9-4.49,4.5h36l-4.5-4.5Z" transform="translate(-50.6 -49.3)"/><path class="cls-8" d="M961.91,661.25a3.85,3.85,0,0,0-3.16,1.43,6.07,6.07,0,0,0-1.16,3.93,6.15,6.15,0,0,0,1.11,4,3.94,3.94,0,0,0,3.21,1.34,8.47,8.47,0,0,0,1.76-.18c.57-.12,1.16-.27,1.77-.46v2a10.79,10.79,0,0,1-3.81.64,6.12,6.12,0,0,1-4.82-1.9,8,8,0,0,1-1.68-5.44,8.81,8.81,0,0,1,.82-3.89,5.75,5.75,0,0,1,2.36-2.56,7,7,0,0,1,3.62-.89,8.85,8.85,0,0,1,4,.92l-.84,1.94a12,12,0,0,0-1.52-.6A5.65,5.65,0,0,0,961.91,661.25Z" transform="translate(-50.6 -49.3)"/><path class="cls-8" d="M970.56,673.73h-2.29V658.54h2.29Z" transform="translate(-50.6 -49.3)"/><path class="cls-8" d="M973.71,660.07a1.29,1.29,0,0,1,.33-1,1.34,1.34,0,0,1,1-.33,1.17,1.17,0,0,1,1.28,1.28,1.18,1.18,0,0,1-1.28,1.26,1.3,1.3,0,0,1-1-.34A1.25,1.25,0,0,1,973.71,660.07Zm2.43,13.66h-2.3v-10.8h2.3Z" transform="translate(-50.6 -49.3)"/><path class="cls-8" d="M984.14,673.93a5.21,5.21,0,0,1-3.94-1.47,5.57,5.57,0,0,1-1.42-4.05,6.16,6.16,0,0,1,1.31-4.16,4.57,4.57,0,0,1,3.63-1.52,4.49,4.49,0,0,1,3.38,1.3,5,5,0,0,1,1.24,3.58v1.24h-7.2a3.53,3.53,0,0,0,.85,2.41,2.94,2.94,0,0,0,2.26.85,8.39,8.39,0,0,0,1.78-.18,9.25,9.25,0,0,0,1.77-.6v1.86a7,7,0,0,1-1.7.57A10.44,10.44,0,0,1,984.14,673.93Zm-.42-9.46a2.3,2.3,0,0,0-1.76.7,3.31,3.31,0,0,0-.78,2h4.9a3,3,0,0,0-.64-2A2.21,2.21,0,0,0,983.72,664.47Z" transform="translate(-50.6 -49.3)"/><path class="cls-8" d="M1000.45,673.73h-2.31v-6.64a3,3,0,0,0-.5-1.87,2,2,0,0,0-1.6-.61,2.55,2.55,0,0,0-2.13.86,4.73,4.73,0,0,0-.67,2.88v5.38h-2.3v-10.8h1.8l.32,1.42h.12a3.2,3.2,0,0,1,1.39-1.2,4.64,4.64,0,0,1,2-.42q3.88,0,3.89,4Z" transform="translate(-50.6 -49.3)"/><path class="cls-8" d="M1007.66,672.07a5.76,5.76,0,0,0,1.68-.26v1.73a4.37,4.37,0,0,1-1,.27,6.28,6.28,0,0,1-1.24.12q-3.27,0-3.27-3.44v-5.82h-1.47v-1l1.58-.84.78-2.28h1.42v2.4h3.08v1.74h-3.08v5.78a1.63,1.63,0,0,0,.41,1.22A1.5,1.5,0,0,0,1007.66,672.07Z" transform="translate(-50.6 -49.3)"/><path class="cls-8" d="M1018.76,670.65a2.82,2.82,0,0,1-1.16,2.43,5.5,5.5,0,0,1-3.3.85,7.73,7.73,0,0,1-3.46-.66v-2a8.6,8.6,0,0,0,3.54.88c1.41,0,2.12-.43,2.12-1.28a1.08,1.08,0,0,0-.23-.69,2.89,2.89,0,0,0-.77-.56,12.93,12.93,0,0,0-1.5-.67,6.93,6.93,0,0,1-2.52-1.44,2.68,2.68,0,0,1-.66-1.88,2.45,2.45,0,0,1,1.12-2.15,5.3,5.3,0,0,1,3-.77,8.51,8.51,0,0,1,3.6.78l-.74,1.72a8.08,8.08,0,0,0-2.94-.72c-1.21,0-1.82.35-1.82,1a1,1,0,0,0,.48.86,10.54,10.54,0,0,0,2.06,1,9.81,9.81,0,0,1,2,1,2.85,2.85,0,0,1,.89,1A2.82,2.82,0,0,1,1018.76,670.65Z" transform="translate(-50.6 -49.3)"/><path class="cls-4" d="M155.83,424.38h73.85a22.14,22.14,0,0,0,22.14-22.14H133.67a22.15,22.15,0,0,0,22.16,22.14Zm73.85-14.76h7.38V417h-7.38Zm14.76-73.85H141.05l-7.38,59.09H251.82Zm0,0" transform="translate(-50.6 -49.3)"/><path class="cls-4" d="M554.18,397.76H628a22.15,22.15,0,0,0,22.15-22.15H532a22.15,22.15,0,0,0,22.16,22.15ZM628,383h7.38v7.38H628Zm-73.84,44.29H628a22.15,22.15,0,0,0,22.15-22.14H532a22.14,22.14,0,0,0,22.16,22.14ZM628,412.52h7.38v7.38H628Zm-73.84,44.29H628a22.15,22.15,0,0,0,22.15-22.14H532a22.14,22.14,0,0,0,22.16,22.14ZM628,442.05h7.38v7.38H628Zm14.77-132.91H539.4L532,368.23H650.17Zm0,0" transform="translate(-50.6 -49.3)"/><path class="cls-10" d="M258.38,317.39h-24.1a8,8,0,0,0-8,8h0a8,8,0,0,0-8,8v24.09a8,8,0,0,0,8,8h24.1a8,8,0,0,0,8-8,8,8,0,0,0,8-8v-24.1a8,8,0,0,0-8-8" transform="translate(-50.6 -49.3)"/><path class="cls-6" d="M232,345.53a6.3,6.3,0,0,1-.85,3.65,2.66,2.66,0,0,1-2.33,1.08,2.81,2.81,0,0,1-2.41-1.09,5.92,5.92,0,0,1-.9-3.58V331.06h-2.93v14.36a8.68,8.68,0,0,0,1.57,5.52,5.66,5.66,0,0,0,4.67,2c2.78,0,6.09-1.31,6.09-7.56V331.06H232Z" transform="translate(-50.6 -49.3)"/><path class="cls-6" d="M245.13,333.46a4.91,4.91,0,0,1,2.55.65l.61.36,1.4-2.43-.62-.35a7.86,7.86,0,0,0-3.91-.95,6.64,6.64,0,0,0-5.75,3.07,14.07,14.07,0,0,0-2,8,17.2,17.2,0,0,0,.91,5.85,8.61,8.61,0,0,0,2.69,3.91,6.52,6.52,0,0,0,4.14,1.4,7.53,7.53,0,0,0,3.45-.7l.38-.2V349.3l-1,.46a6.59,6.59,0,0,1-2.69.5,3.69,3.69,0,0,1-2.51-.93,6.29,6.29,0,0,1-1.75-2.86,14.75,14.75,0,0,1-.65-4.62,12.12,12.12,0,0,1,1.38-6.32A3.81,3.81,0,0,1,245.13,333.46Z" transform="translate(-50.6 -49.3)"/><path class="cls-6" d="M261.16,343a9,9,0,0,0-3.56-2.53,7.36,7.36,0,0,1-2.66-1.75,3.55,3.55,0,0,1-.59-2.21,2.9,2.9,0,0,1,.81-2.18,3,3,0,0,1,2.18-.82,7.42,7.42,0,0,1,3.14.73l.65.3,1.15-2.58-.61-.3a9,9,0,0,0-1.81-.62,10.46,10.46,0,0,0-2.52-.28,6.24,6.24,0,0,0-3,.72,5.32,5.32,0,0,0-2.15,2.08,5.91,5.91,0,0,0-.77,3,6.74,6.74,0,0,0,.47,2.62,5.22,5.22,0,0,0,1.45,2,11.66,11.66,0,0,0,2.75,1.64,7,7,0,0,1,2.7,1.76,3.52,3.52,0,0,1,.62,2.21,3.48,3.48,0,0,1-.9,2.51,3,3,0,0,1-2.28.95,10.89,10.89,0,0,1-2.18-.22,7.31,7.31,0,0,1-1.78-.57l-1-.52V352l.42.18a11.54,11.54,0,0,0,4.57.77,5.89,5.89,0,0,0,4.37-1.76,6.21,6.21,0,0,0,1.72-4.53A5.86,5.86,0,0,0,261.16,343Z" transform="translate(-50.6 -49.3)"/><path class="cls-10" d="M656.72,290.76h-24.1a8,8,0,0,0-8,8h0a8,8,0,0,0-8,8v24.09a8,8,0,0,0,8,8h24.1a8,8,0,0,0,8-8,8,8,0,0,0,8-8v-24.1a8,8,0,0,0-8-8" transform="translate(-50.6 -49.3)"/><path class="cls-6" d="M630.3,318.9a6.3,6.3,0,0,1-.86,3.65,2.64,2.64,0,0,1-2.33,1.08,2.84,2.84,0,0,1-2.41-1.09,5.92,5.92,0,0,1-.9-3.58V304.43h-2.92v14.36a8.68,8.68,0,0,0,1.57,5.52,5.65,5.65,0,0,0,4.66,2c2.78,0,6.1-1.31,6.1-7.56V304.43H630.3Z" transform="translate(-50.6 -49.3)"/><path class="cls-6" d="M643.47,306.83a4.86,4.86,0,0,1,2.55.65l.62.36,1.4-2.43-.63-.35a7.83,7.83,0,0,0-3.91-.95,6.65,6.65,0,0,0-5.75,3.07,14.07,14.07,0,0,0-2,8,17.16,17.16,0,0,0,.91,5.85,8.68,8.68,0,0,0,2.69,3.91,6.54,6.54,0,0,0,4.14,1.4,7.53,7.53,0,0,0,3.45-.7l.38-.2v-2.78l-1,.46a6.56,6.56,0,0,1-2.69.5,3.64,3.64,0,0,1-2.5-.93,6.39,6.39,0,0,1-1.76-2.86,14.75,14.75,0,0,1-.65-4.62,12.22,12.22,0,0,1,1.38-6.32A3.83,3.83,0,0,1,643.47,306.83Z" transform="translate(-50.6 -49.3)"/><path class="cls-6" d="M659.5,316.38a9.09,9.09,0,0,0-3.55-2.53,7.56,7.56,0,0,1-2.67-1.75,3.55,3.55,0,0,1-.59-2.21,2.82,2.82,0,0,1,3-3,7.36,7.36,0,0,1,3.14.73l.66.3,1.14-2.58-.6-.3a8.86,8.86,0,0,0-1.82-.62,10.4,10.4,0,0,0-2.52-.28,6.24,6.24,0,0,0-3,.72,5.38,5.38,0,0,0-2.15,2.08,6,6,0,0,0-.76,3,6.83,6.83,0,0,0,.46,2.63,5.4,5.4,0,0,0,1.46,2,11.56,11.56,0,0,0,2.74,1.64,7,7,0,0,1,2.7,1.76,4,4,0,0,1-.28,4.72,2.94,2.94,0,0,1-2.28.95,10.8,10.8,0,0,1-2.17-.22,6.86,6.86,0,0,1-1.79-.57l-1-.52v3.08l.42.18a11.48,11.48,0,0,0,4.56.77,5.89,5.89,0,0,0,4.37-1.76,6.18,6.18,0,0,0,1.73-4.53A5.81,5.81,0,0,0,659.5,316.38Z" transform="translate(-50.6 -49.3)"/><path class="cls-11" d="M710.73,291.47H686.81a8,8,0,0,0-8,8h0a8,8,0,0,0-8,8v23.91a8,8,0,0,0,8,8h23.92a8,8,0,0,0,8-8,8,8,0,0,0,8-8V299.44a8,8,0,0,0-8-8" transform="translate(-50.6 -49.3)"/><path class="cls-6" d="M683.88,308.82a4.21,4.21,0,0,0-3.35,1.41,5.73,5.73,0,0,0-1.23,3.88,5.81,5.81,0,0,0,1.18,3.9,4.22,4.22,0,0,0,3.38,1.38,11.66,11.66,0,0,0,3.08-.48v1.31a9.42,9.42,0,0,1-3.31.5,5.59,5.59,0,0,1-4.39-1.72,7.12,7.12,0,0,1-1.55-4.91,7.7,7.7,0,0,1,.75-3.49,5.28,5.28,0,0,1,2.15-2.31,6.52,6.52,0,0,1,3.31-.81,8,8,0,0,1,3.54.74l-.63,1.29A6.86,6.86,0,0,0,683.88,308.82Z" transform="translate(-50.6 -49.3)"/><path class="cls-6" d="M691.25,315.19v5.36h-1.5V307.66h3.53a5.63,5.63,0,0,1,3.51.91,3.31,3.31,0,0,1,1.13,2.73,3.43,3.43,0,0,1-2.59,3.46l3.5,5.79h-1.78l-3.12-5.36Zm0-1.29h2a3.56,3.56,0,0,0,2.33-.63,2.36,2.36,0,0,0,.74-1.89,2.14,2.14,0,0,0-.76-1.84,4.05,4.05,0,0,0-2.42-.56h-1.94Z" transform="translate(-50.6 -49.3)"/><path class="cls-6" d="M706.61,320.55l-4.37-11.42h-.07c.08.9.12,2,.12,3.22v8.2h-1.38V307.66h2.25l4.08,10.63h.07l4.12-10.63h2.24v12.89h-1.5v-8.3c0-1,0-2,.12-3.11h-.07l-4.41,11.41Z" transform="translate(-50.6 -49.3)"/><path class="cls-8" d="M177.35,727a3.59,3.59,0,0,1-1.38,3,6,6,0,0,1-3.8,1.08,9.08,9.08,0,0,1-4-.75v-2.21a10.79,10.79,0,0,0,2.07.73,9.13,9.13,0,0,0,2.05.26,3.25,3.25,0,0,0,2-.53,1.71,1.71,0,0,0,.66-1.41,1.78,1.78,0,0,0-.6-1.36,9.35,9.35,0,0,0-2.5-1.32,6.7,6.7,0,0,1-2.76-1.81,3.83,3.83,0,0,1-.8-2.44,3.43,3.43,0,0,1,1.27-2.81,5.31,5.31,0,0,1,3.41-1,10,10,0,0,1,4.08.9l-.74,1.91a8.8,8.8,0,0,0-3.4-.8,2.61,2.61,0,0,0-1.72.49,1.61,1.61,0,0,0-.58,1.3,2,2,0,0,0,.23,1,2.49,2.49,0,0,0,.77.74,12.35,12.35,0,0,0,1.94.93,10.59,10.59,0,0,1,2.3,1.22,3.6,3.6,0,0,1,1.08,1.28A4,4,0,0,1,177.35,727Z" transform="translate(-50.6 -49.3)"/><path class="cls-8" d="M182.16,730.85h-2.29v-15.2h2.29Z" transform="translate(-50.6 -49.3)"/><path class="cls-8" d="M192.2,730.85l-.46-1.51h-.08a4.42,4.42,0,0,1-1.57,1.35,5.1,5.1,0,0,1-2,.35,3.39,3.39,0,0,1-2.48-.86,3.19,3.19,0,0,1-.9-2.43,2.88,2.88,0,0,1,1.24-2.52,7.21,7.21,0,0,1,3.78-.93l1.87,0v-.58a2.15,2.15,0,0,0-.49-1.55,2,2,0,0,0-1.5-.51,5.28,5.28,0,0,0-1.59.24,13.44,13.44,0,0,0-1.46.58l-.74-1.64a7.68,7.68,0,0,1,1.92-.7,8.82,8.82,0,0,1,2-.24,4.65,4.65,0,0,1,3.11.9,3.52,3.52,0,0,1,1.05,2.82v7.28Zm-3.42-1.57a2.85,2.85,0,0,0,2-.69,2.56,2.56,0,0,0,.76-2v-.94l-1.39.06a4.79,4.79,0,0,0-2.36.54,1.65,1.65,0,0,0-.74,1.48,1.48,1.48,0,0,0,.43,1.12A1.88,1.88,0,0,0,188.78,729.28Z" transform="translate(-50.6 -49.3)"/><path class="cls-8" d="M199.51,730.85l-4.11-10.8h2.43l2.19,6.28a12.38,12.38,0,0,1,.69,2.55h.08a15.44,15.44,0,0,1,.68-2.55l2.2-6.28h2.44L202,730.85Z" transform="translate(-50.6 -49.3)"/><path class="cls-8" d="M212.46,731a5.24,5.24,0,0,1-3.94-1.47,5.61,5.61,0,0,1-1.42-4.05,6.13,6.13,0,0,1,1.32-4.16,4.58,4.58,0,0,1,3.62-1.51,4.42,4.42,0,0,1,3.38,1.3,5,5,0,0,1,1.24,3.57V726h-7.19a3.5,3.5,0,0,0,.85,2.42,3,3,0,0,0,2.25.85,8.3,8.3,0,0,0,1.78-.19,9.33,9.33,0,0,0,1.78-.6v1.87a7,7,0,0,1-1.7.57A10.61,10.61,0,0,1,212.46,731Zm-.42-9.45a2.32,2.32,0,0,0-1.75.69,3.27,3.27,0,0,0-.78,2h4.9a3,3,0,0,0-.65-2A2.19,2.19,0,0,0,212,721.59Z" transform="translate(-50.6 -49.3)"/><path class="cls-4" d="M155.51,636.84h73.85a22.15,22.15,0,0,0,22.15-22.14H133.35a22.15,22.15,0,0,0,22.16,22.14Zm73.85-14.76h7.38v7.38h-7.38Zm-73.85,44.29h73.85a22.15,22.15,0,0,0,22.15-22.14H133.35a22.15,22.15,0,0,0,22.16,22.14Zm73.85-14.76h7.38V659h-7.38ZM155.51,695.9h73.85a22.15,22.15,0,0,0,22.15-22.14H133.35a22.15,22.15,0,0,0,22.16,22.14Zm73.85-14.76h7.38v7.38h-7.38Zm14.76-132.91H140.74l-7.39,59.08H251.51Zm0,0" transform="translate(-50.6 -49.3)"/><path class="cls-10" d="M258.06,529.85H234a8,8,0,0,0-8,8h0a8,8,0,0,0-8,8V570a8,8,0,0,0,8,8H250a8,8,0,0,0,8-8,8,8,0,0,0,8-8v-24.1a8,8,0,0,0-8-8" transform="translate(-50.6 -49.3)"/><path class="cls-6" d="M231.64,558a6.3,6.3,0,0,1-.86,3.65,2.64,2.64,0,0,1-2.33,1.08,2.8,2.8,0,0,1-2.41-1.1,5.87,5.87,0,0,1-.9-3.57V543.51h-2.92v14.37a8.62,8.62,0,0,0,1.57,5.52,5.64,5.64,0,0,0,4.66,2c2.78,0,6.1-1.31,6.1-7.56V543.51h-2.91Z" transform="translate(-50.6 -49.3)"/><path class="cls-6" d="M244.81,545.91a5,5,0,0,1,2.55.65l.62.36,1.39-2.42-.62-.35a7.86,7.86,0,0,0-3.91-.95,6.64,6.64,0,0,0-5.75,3.07,14,14,0,0,0-2,8,17.1,17.1,0,0,0,.91,5.84,8.59,8.59,0,0,0,2.69,3.92,6.54,6.54,0,0,0,4.14,1.4,7.53,7.53,0,0,0,3.45-.7l.38-.2v-2.78l-1,.46a6.59,6.59,0,0,1-2.69.5,3.74,3.74,0,0,1-2.51-.93,6.35,6.35,0,0,1-1.75-2.86,14.75,14.75,0,0,1-.65-4.62,12.12,12.12,0,0,1,1.38-6.32A3.82,3.82,0,0,1,244.81,545.91Z" transform="translate(-50.6 -49.3)"/><path class="cls-6" d="M260.84,555.47a9.1,9.1,0,0,0-3.55-2.54,7.24,7.24,0,0,1-2.67-1.74A3.55,3.55,0,0,1,254,549a2.82,2.82,0,0,1,3-3,7.39,7.39,0,0,1,3.14.73l.65.3,1.15-2.58-.61-.3a8.74,8.74,0,0,0-1.81-.62,10.44,10.44,0,0,0-2.52-.29,6.25,6.25,0,0,0-3,.73A5.38,5.38,0,0,0,251.9,546a5.91,5.91,0,0,0-.76,3,6.74,6.74,0,0,0,.46,2.62,5.33,5.33,0,0,0,1.45,2,11.87,11.87,0,0,0,2.75,1.64,7,7,0,0,1,2.7,1.76,4,4,0,0,1-.28,4.72,3,3,0,0,1-2.28,1,11,11,0,0,1-2.18-.22,7.31,7.31,0,0,1-1.78-.57l-1-.52v3.08l.43.18a11.48,11.48,0,0,0,4.56.77,5.89,5.89,0,0,0,4.37-1.76,6.22,6.22,0,0,0,1.73-4.53A5.87,5.87,0,0,0,260.84,555.47Z" transform="translate(-50.6 -49.3)"/><path class="cls-12" d="M312.07,530.56H288.15a8,8,0,0,0-8,8h0a8,8,0,0,0-8,8v23.92a8,8,0,0,0,8,8H304.1a8,8,0,0,0,8-8,8,8,0,0,0,8-8V538.53a8,8,0,0,0-8-8" transform="translate(-50.6 -49.3)"/><path class="cls-6" d="M289.05,559.76h-7.18V546.88h7.18v1.33h-5.69v4.15h5.34v1.32h-5.34v4.74h5.69Z" transform="translate(-50.6 -49.3)"/><path class="cls-6" d="M293.4,554.41v5.35h-1.5V546.88h3.54a5.51,5.51,0,0,1,3.5.91,3.29,3.29,0,0,1,1.13,2.73,3.42,3.42,0,0,1-2.59,3.45l3.5,5.79h-1.77l-3.12-5.35Zm0-1.29h2.05a3.55,3.55,0,0,0,2.33-.63,2.36,2.36,0,0,0,.74-1.89,2.15,2.15,0,0,0-.75-1.84,4,4,0,0,0-2.42-.57h-2Z" transform="translate(-50.6 -49.3)"/><path class="cls-6" d="M311.23,550.63a3.6,3.6,0,0,1-1.34,3,6,6,0,0,1-3.82,1.06h-1.51v5.06h-1.5V546.88h3.34Q311.23,546.88,311.23,550.63Zm-6.67,2.78h1.35a5,5,0,0,0,2.88-.64,2.39,2.39,0,0,0,.89-2.07,2.22,2.22,0,0,0-.84-1.9,4.37,4.37,0,0,0-2.61-.62h-1.67Z" transform="translate(-50.6 -49.3)"/><path class="cls-8" d="M1352.43,491.76l-4.14-11.93h-.08c.11,1.78.17,3.44.17,5v6.95h-2.12V477.48h3.29l4,11.36h.06l4.09-11.36h3.3v14.28h-2.25V484.7c0-.71,0-1.64,0-2.78s.07-1.82.1-2.07h-.08l-4.29,11.91Z" transform="translate(-50.6 -49.3)"/><path class="cls-8" d="M1369.19,492a5.23,5.23,0,0,1-3.94-1.47,5.56,5.56,0,0,1-1.42-4,6.11,6.11,0,0,1,1.32-4.16,5.06,5.06,0,0,1,7-.22,5,5,0,0,1,1.24,3.57v1.24h-7.2a3.55,3.55,0,0,0,.85,2.42,2.94,2.94,0,0,0,2.26.85,8.39,8.39,0,0,0,1.78-.18,9.25,9.25,0,0,0,1.77-.6v1.86a7,7,0,0,1-1.7.57A10.5,10.5,0,0,1,1369.19,492Zm-.42-9.45a2.3,2.3,0,0,0-1.75.69,3.3,3.3,0,0,0-.79,2h4.9a3,3,0,0,0-.64-2A2.21,2.21,0,0,0,1368.77,482.5Z" transform="translate(-50.6 -49.3)"/><path class="cls-8" d="M1385.1,491.76h-2.31V485.1a3,3,0,0,0-.47-1.85,1.71,1.71,0,0,0-1.46-.61,2.24,2.24,0,0,0-1.95.86,5.13,5.13,0,0,0-.62,2.88v5.38H1376V481h1.79l.32,1.41h.12a3,3,0,0,1,1.31-1.19,4.19,4.19,0,0,1,1.88-.42c1.66,0,2.76.57,3.3,1.7h.15a3.33,3.33,0,0,1,1.35-1.25,4.26,4.26,0,0,1,2-.45,3.64,3.64,0,0,1,2.82,1,4.31,4.31,0,0,1,.88,3v7h-2.29V485.1a3,3,0,0,0-.48-1.85,1.72,1.72,0,0,0-1.47-.61,2.27,2.27,0,0,0-2,.83,4.27,4.27,0,0,0-.62,2.57Z" transform="translate(-50.6 -49.3)"/><path class="cls-8" d="M1400.63,480.76a3.74,3.74,0,0,1,3.15,1.47,6.53,6.53,0,0,1,1.13,4.11,6.61,6.61,0,0,1-1.14,4.13,4.17,4.17,0,0,1-6.36,0h-.16l-.42,1.28h-1.71v-15.2h2.29v3.62c0,.26,0,.66,0,1.19s0,.86-.06,1h.1A3.65,3.65,0,0,1,1400.63,480.76Zm-.59,1.88a2.34,2.34,0,0,0-2,.81,4.73,4.73,0,0,0-.63,2.73v.16a5,5,0,0,0,.63,2.86,2.33,2.33,0,0,0,2,.88,2.06,2.06,0,0,0,1.85-1,5.1,5.1,0,0,0,.63-2.79Q1402.56,482.65,1400,482.64Z" transform="translate(-50.6 -49.3)"/><path class="cls-8" d="M1412.29,492a5.23,5.23,0,0,1-3.94-1.47,5.6,5.6,0,0,1-1.42-4,6.11,6.11,0,0,1,1.32-4.16,4.56,4.56,0,0,1,3.62-1.52,4.46,4.46,0,0,1,3.38,1.3,5,5,0,0,1,1.24,3.57v1.24h-7.19a3.5,3.5,0,0,0,.85,2.42,2.92,2.92,0,0,0,2.25.85,8.32,8.32,0,0,0,1.78-.18,9.33,9.33,0,0,0,1.78-.6v1.86a7,7,0,0,1-1.7.57A10.61,10.61,0,0,1,1412.29,492Zm-.42-9.45a2.32,2.32,0,0,0-1.75.69,3.36,3.36,0,0,0-.79,2h4.91a3,3,0,0,0-.65-2A2.19,2.19,0,0,0,1411.87,482.5Z" transform="translate(-50.6 -49.3)"/><path class="cls-8" d="M1424.58,480.76a5.18,5.18,0,0,1,1.14.1l-.22,2.14a4.31,4.31,0,0,0-1-.12,2.93,2.93,0,0,0-2.23.9,3.25,3.25,0,0,0-.85,2.33v5.65h-2.3V481h1.8l.3,1.9h.12a4.31,4.31,0,0,1,1.4-1.53A3.31,3.31,0,0,1,1424.58,480.76Z" transform="translate(-50.6 -49.3)"/><path class="cls-4" d="M1348.31,397.76h73.85a22.15,22.15,0,0,0,22.14-22.15H1326.15a22.16,22.16,0,0,0,22.16,22.15ZM1422.16,383h7.38v7.38h-7.38Zm-73.85,44.29h73.85a22.14,22.14,0,0,0,22.14-22.14H1326.15a22.15,22.15,0,0,0,22.16,22.14Zm73.85-14.76h7.38v7.38h-7.38Zm-73.85,44.29h73.85a22.14,22.14,0,0,0,22.14-22.14H1326.15a22.15,22.15,0,0,0,22.16,22.14Zm73.85-14.76h7.38v7.38h-7.38Zm14.76-132.91H1333.54l-7.39,59.09H1444.3Zm0,0" transform="translate(-50.6 -49.3)"/><path class="cls-10" d="M1450.86,290.76h-24.1a8,8,0,0,0-8,8h0a8,8,0,0,0-8,8v24.09a8,8,0,0,0,8,8h24.1a8,8,0,0,0,8-8,8,8,0,0,0,8-8v-24.1a8,8,0,0,0-8-8" transform="translate(-50.6 -49.3)"/><path class="cls-6" d="M1424.44,318.9a6.3,6.3,0,0,1-.86,3.65,2.66,2.66,0,0,1-2.33,1.08,2.81,2.81,0,0,1-2.41-1.09,5.92,5.92,0,0,1-.9-3.58V304.43H1415v14.36a8.68,8.68,0,0,0,1.57,5.52,5.66,5.66,0,0,0,4.67,2c2.78,0,6.09-1.31,6.09-7.56V304.43h-2.9Z" transform="translate(-50.6 -49.3)"/><path class="cls-6" d="M1437.61,306.83a4.91,4.91,0,0,1,2.55.65l.61.36,1.4-2.43-.62-.35a7.86,7.86,0,0,0-3.91-.95,6.64,6.64,0,0,0-5.75,3.07,14.07,14.07,0,0,0-2,8,17.16,17.16,0,0,0,.91,5.85,8.61,8.61,0,0,0,2.69,3.91,6.52,6.52,0,0,0,4.14,1.4,7.53,7.53,0,0,0,3.45-.7l.38-.2v-2.78l-1,.46a6.59,6.59,0,0,1-2.69.5,3.69,3.69,0,0,1-2.51-.93,6.29,6.29,0,0,1-1.75-2.86,14.75,14.75,0,0,1-.65-4.62,12.12,12.12,0,0,1,1.38-6.32A3.83,3.83,0,0,1,1437.61,306.83Z" transform="translate(-50.6 -49.3)"/><path class="cls-6" d="M1453.64,316.38a9.06,9.06,0,0,0-3.56-2.53,7.36,7.36,0,0,1-2.66-1.75,3.55,3.55,0,0,1-.59-2.21,2.9,2.9,0,0,1,.81-2.18,3,3,0,0,1,2.18-.82,7.42,7.42,0,0,1,3.14.73l.65.3,1.15-2.58-.61-.3a9,9,0,0,0-1.81-.62,10.46,10.46,0,0,0-2.52-.28,6.24,6.24,0,0,0-3,.72,5.32,5.32,0,0,0-2.15,2.08,5.91,5.91,0,0,0-.77,3,6.82,6.82,0,0,0,.47,2.63,5.26,5.26,0,0,0,1.45,2,11.66,11.66,0,0,0,2.75,1.64,7,7,0,0,1,2.7,1.76,3.52,3.52,0,0,1,.62,2.21,3.48,3.48,0,0,1-.9,2.51,3,3,0,0,1-2.28.95,10.89,10.89,0,0,1-2.18-.22,6.9,6.9,0,0,1-1.78-.57l-1-.52v3.08l.42.18a11.54,11.54,0,0,0,4.57.77,5.89,5.89,0,0,0,4.37-1.76,6.21,6.21,0,0,0,1.72-4.53A5.86,5.86,0,0,0,1453.64,316.38Z" transform="translate(-50.6 -49.3)"/><path class="cls-13" d="M1504.87,291.47H1481a8,8,0,0,0-8,8h0a8,8,0,0,0-8,8v23.91a8,8,0,0,0,8,8h23.92a8,8,0,0,0,8-8,8,8,0,0,0,8-8V299.44a8,8,0,0,0-8-8" transform="translate(-50.6 -49.3)"/><path class="cls-6" d="M1484.28,319.61a1.3,1.3,0,0,1,.27-.89,1,1,0,0,1,.77-.31,1.06,1.06,0,0,1,.8.31,1.25,1.25,0,0,1,.28.89,1.23,1.23,0,0,1-.29.89,1.17,1.17,0,0,1-1.53,0A1.21,1.21,0,0,1,1484.28,319.61Z" transform="translate(-50.6 -49.3)"/><path class="cls-6" d="M1489.08,319.61a1.3,1.3,0,0,1,.27-.89,1,1,0,0,1,.77-.31,1.06,1.06,0,0,1,.8.31,1.25,1.25,0,0,1,.29.89,1.27,1.27,0,0,1-.29.89,1.07,1.07,0,0,1-.8.3,1.05,1.05,0,0,1-.74-.27A1.21,1.21,0,0,1,1489.08,319.61Z" transform="translate(-50.6 -49.3)"/><path class="cls-6" d="M1493.89,319.61a1.3,1.3,0,0,1,.27-.89,1,1,0,0,1,.77-.31,1,1,0,0,1,.79.31,1.21,1.21,0,0,1,.29.89,1.27,1.27,0,0,1-.29.89,1,1,0,0,1-.79.3,1.08,1.08,0,0,1-.75-.27A1.21,1.21,0,0,1,1493.89,319.61Z" transform="translate(-50.6 -49.3)"/><path class="cls-8" d="M971.48,487.3a3.61,3.61,0,0,1-1.37,3,6,6,0,0,1-3.8,1.08,9.1,9.1,0,0,1-4-.75v-2.21a10.89,10.89,0,0,0,2.08.73,9,9,0,0,0,2,.26,3.2,3.2,0,0,0,2-.53,1.71,1.71,0,0,0,.66-1.41,1.75,1.75,0,0,0-.61-1.36,9,9,0,0,0-2.5-1.32,6.67,6.67,0,0,1-2.75-1.8,3.88,3.88,0,0,1-.8-2.45,3.41,3.41,0,0,1,1.27-2.81,5.27,5.27,0,0,1,3.41-1,10.19,10.19,0,0,1,4.08.89l-.74,1.91a8.84,8.84,0,0,0-3.4-.8,2.59,2.59,0,0,0-1.72.49,1.63,1.63,0,0,0-.59,1.31,1.81,1.81,0,0,0,.24.95,2.29,2.29,0,0,0,.77.74,12.13,12.13,0,0,0,1.93.93,10.71,10.71,0,0,1,2.31,1.22,3.65,3.65,0,0,1,1.07,1.28A3.85,3.85,0,0,1,971.48,487.3Z" transform="translate(-50.6 -49.3)"/><path class="cls-8" d="M976.3,491.18H974V476h2.3Z" transform="translate(-50.6 -49.3)"/><path class="cls-8" d="M986.34,491.18l-.46-1.51h-.08a4.5,4.5,0,0,1-1.57,1.35,5.14,5.14,0,0,1-2,.35,3.41,3.41,0,0,1-2.49-.86,3.22,3.22,0,0,1-.89-2.43,2.86,2.86,0,0,1,1.24-2.52,7.16,7.16,0,0,1,3.78-.92l1.86-.06V484a2.2,2.2,0,0,0-.48-1.55,2,2,0,0,0-1.5-.51,5.28,5.28,0,0,0-1.59.24,13.61,13.61,0,0,0-1.47.58l-.74-1.64a8,8,0,0,1,1.92-.7,8.9,8.9,0,0,1,2-.24,4.67,4.67,0,0,1,3.11.9A3.52,3.52,0,0,1,988,483.9v7.28Zm-3.42-1.56a2.89,2.89,0,0,0,2-.7,2.55,2.55,0,0,0,.75-2V486l-1.38.06a4.76,4.76,0,0,0-2.36.54,1.67,1.67,0,0,0-.74,1.48,1.43,1.43,0,0,0,.43,1.12A1.88,1.88,0,0,0,982.92,489.62Z" transform="translate(-50.6 -49.3)"/><path class="cls-8" d="M993.64,491.18l-4.1-10.8H992l2.2,6.28a12.15,12.15,0,0,1,.68,2.56h.08a17.9,17.9,0,0,1,.68-2.56l2.2-6.28h2.44l-4.12,10.8Z" transform="translate(-50.6 -49.3)"/><path class="cls-8" d="M1006.6,491.37a5.23,5.23,0,0,1-3.94-1.47,5.55,5.55,0,0,1-1.42-4,6.09,6.09,0,0,1,1.32-4.16,4.55,4.55,0,0,1,3.62-1.52,4.47,4.47,0,0,1,3.38,1.3,5,5,0,0,1,1.24,3.58v1.24h-7.2a3.54,3.54,0,0,0,.85,2.41,3,3,0,0,0,2.26.85,8.32,8.32,0,0,0,1.78-.18,9.25,9.25,0,0,0,1.77-.6v1.86a6.81,6.81,0,0,1-1.7.57A10.42,10.42,0,0,1,1006.6,491.37Zm-.42-9.45a2.3,2.3,0,0,0-1.75.69,3.37,3.37,0,0,0-.79,2h4.9a3,3,0,0,0-.64-2A2.21,2.21,0,0,0,1006.18,481.92Z" transform="translate(-50.6 -49.3)"/><path class="cls-4" d="M949.65,397.18h73.85A22.15,22.15,0,0,0,1045.64,375H927.49a22.16,22.16,0,0,0,22.16,22.15Zm73.85-14.77h7.38v7.38h-7.38Zm-73.85,44.3h73.85a22.15,22.15,0,0,0,22.14-22.15H927.49a22.16,22.16,0,0,0,22.16,22.15Zm73.85-14.77h7.38v7.38h-7.38Zm-73.85,44.29h73.85a22.14,22.14,0,0,0,22.14-22.14H927.49a22.15,22.15,0,0,0,22.16,22.14Zm73.85-14.76h7.38v7.38h-7.38Zm14.76-132.9H934.87l-7.38,59.08h118.15Zm0,0" transform="translate(-50.6 -49.3)"/><path class="cls-10" d="M1052.19,290.18h-24.1a8,8,0,0,0-8,8h0a8,8,0,0,0-8,8v24.09a8,8,0,0,0,8,8h24.1a8,8,0,0,0,8-8,8,8,0,0,0,8-8v-24.1a8,8,0,0,0-8-8" transform="translate(-50.6 -49.3)"/><path class="cls-6" d="M1025.77,318.32a6.38,6.38,0,0,1-.85,3.65,2.67,2.67,0,0,1-2.34,1.08,2.84,2.84,0,0,1-2.41-1.09,6,6,0,0,1-.9-3.58V303.85h-2.92v14.36a8.68,8.68,0,0,0,1.57,5.52,5.65,5.65,0,0,0,4.66,2c2.79,0,6.1-1.31,6.1-7.56V303.85h-2.91Z" transform="translate(-50.6 -49.3)"/><path class="cls-6" d="M1039,306.25a4.91,4.91,0,0,1,2.55.65l.61.36,1.4-2.43-.62-.35a7.89,7.89,0,0,0-3.91-1,6.63,6.63,0,0,0-5.75,3.07,14.07,14.07,0,0,0-2,8,16.92,16.92,0,0,0,.91,5.85,8.54,8.54,0,0,0,2.68,3.91,6.56,6.56,0,0,0,4.15,1.4,7.59,7.59,0,0,0,3.45-.7l.38-.2v-2.78l-1,.46a6.56,6.56,0,0,1-2.69.5,3.66,3.66,0,0,1-2.5-.93,6.29,6.29,0,0,1-1.75-2.86,14.47,14.47,0,0,1-.65-4.62,12.12,12.12,0,0,1,1.38-6.32A3.81,3.81,0,0,1,1039,306.25Z" transform="translate(-50.6 -49.3)"/><path class="cls-6" d="M1055,315.8a9.21,9.21,0,0,0-3.56-2.53,7.36,7.36,0,0,1-2.66-1.75,3.47,3.47,0,0,1-.6-2.2,2.81,2.81,0,0,1,3-3,7.42,7.42,0,0,1,3.15.72l.65.3,1.15-2.58-.61-.3a9,9,0,0,0-1.81-.62,10.48,10.48,0,0,0-2.53-.28,6.23,6.23,0,0,0-3,.72,5.32,5.32,0,0,0-2.15,2.08,5.91,5.91,0,0,0-.77,3,6.79,6.79,0,0,0,.47,2.63,5.26,5.26,0,0,0,1.45,2,11.45,11.45,0,0,0,2.75,1.64,7.1,7.1,0,0,1,2.7,1.76,3.53,3.53,0,0,1,.62,2.22,3.48,3.48,0,0,1-.9,2.5,3,3,0,0,1-2.29.95,10.8,10.8,0,0,1-2.17-.22,6.9,6.9,0,0,1-1.78-.57l-1-.52v3.08l.42.18a11.52,11.52,0,0,0,4.56.77,5.89,5.89,0,0,0,4.37-1.75,6.2,6.2,0,0,0,1.73-4.54A5.86,5.86,0,0,0,1055,315.8Z" transform="translate(-50.6 -49.3)"/><path class="cls-3" d="M1106.21,290.89h-23.92a8,8,0,0,0-8,8h0a8,8,0,0,0-8,8v23.91a8,8,0,0,0,8,8h23.91a8,8,0,0,0,8-8,8,8,0,0,0,8-8V298.86a8,8,0,0,0-8-8" transform="translate(-50.6 -49.3)"/><path class="cls-6" d="M1083.86,313.4a6.51,6.51,0,0,1-1.73,4.88,6.84,6.84,0,0,1-5,1.69h-3.57V307.08h4a5.78,5.78,0,0,1,6.33,6.32Zm-1.59.05a5.19,5.19,0,0,0-1.26-3.79,5.08,5.08,0,0,0-3.76-1.28h-2.17v10.29h1.82a5.54,5.54,0,0,0,4-1.32A5.18,5.18,0,0,0,1082.27,313.45Z" transform="translate(-50.6 -49.3)"/><path class="cls-6" d="M1092.44,320l-4.38-11.42H1088c.09.9.13,2,.13,3.22V320h-1.39V307.08H1089l4.08,10.63h.07l4.12-10.63h2.23V320H1098v-8.3c0-1,0-2,.12-3.11h-.07L1093.64,320Z" transform="translate(-50.6 -49.3)"/><path class="cls-6" d="M1110.3,316.54a3.14,3.14,0,0,1-1.24,2.65,5.28,5.28,0,0,1-3.34.95,8.3,8.3,0,0,1-3.53-.59v-1.44a9.47,9.47,0,0,0,1.73.53,9,9,0,0,0,1.85.19,3.69,3.69,0,0,0,2.25-.57,1.85,1.85,0,0,0,.76-1.58,2,2,0,0,0-.27-1.1,2.61,2.61,0,0,0-.89-.79,12.23,12.23,0,0,0-1.92-.81,6.08,6.08,0,0,1-2.57-1.53,3.38,3.38,0,0,1-.77-2.3,2.86,2.86,0,0,1,1.12-2.37,4.62,4.62,0,0,1,3-.88,8.69,8.69,0,0,1,3.53.7l-.47,1.31a7.88,7.88,0,0,0-3.1-.67,3,3,0,0,0-1.86.51,1.7,1.7,0,0,0-.67,1.42,2.24,2.24,0,0,0,.25,1.1,2.42,2.42,0,0,0,.83.78,10.25,10.25,0,0,0,1.8.79,7.13,7.13,0,0,1,2.79,1.55A3.08,3.08,0,0,1,1110.3,316.54Z" transform="translate(-50.6 -49.3)"/></svg>