<svg id="Ebene_1" data-name="Ebene 1" xmlns="http://www.w3.org/2000/svg" viewBox="0 0 590.42 694.39"><defs><style>.cls-1{fill:#00acb6;}.cls-2{font-size:51.15px;font-family:MyriadPro-Bold, Myriad Pro;font-weight:700;}.cls-2,.cls-6{fill:#fff;}.cls-3{fill:#7ab51d;}.cls-4{fill:#f6aa42;}.cls-5{fill:#848380;}.cls-7{fill:#76b728;}.cls-8{fill:#868681;}.cls-9{fill:none;stroke:#838380;stroke-miterlimit:10;stroke-width:4px;}</style></defs><title>190215-portalkonzept</title><path class="cls-1" d="M401.16,52.67h-45a15,15,0,0,0-15,15h0a15,15,0,0,0-15,15v45a15,15,0,0,0,15,15h45a15,15,0,0,0,15-15,15,15,0,0,0,15-15v-45a15,15,0,0,0-15-15" transform="translate(-304.79 -52.67)"/><text class="cls-2" transform="translate(52.17 60.01)">1</text><path class="cls-3" d="M629.84,53h-45a15,15,0,0,0-15,15h0v0a15,15,0,0,0-15,15v45a15,15,0,0,0,15,15h45a15,15,0,0,0,15-15,15,15,0,0,0,15-15V68a15,15,0,0,0-15-15" transform="translate(-304.79 -52.67)"/><text class="cls-2" transform="translate(280.85 59.95)">2</text><path class="cls-4" d="M858.84,53h-45a15,15,0,0,0-15,15h0v0a15,15,0,0,0-15,15v45a15,15,0,0,0,15,15h45a15,15,0,0,0,15-15,15,15,0,0,0,15-15V68a15,15,0,0,0-15-15" transform="translate(-304.79 -52.67)"/><text class="cls-2" transform="translate(509.85 59.95)">3</text><path class="cls-5" d="M685.17,308.94a4.56,4.56,0,0,1-1.61,3.77A7.1,7.1,0,0,1,679,314h-1.64v5.88h-2.56V304.19h4.52a6.86,6.86,0,0,1,4.41,1.2A4.33,4.33,0,0,1,685.17,308.94Zm-7.83,2.92h1.37a4.88,4.88,0,0,0,2.9-.69,2.51,2.51,0,0,0,.92-2.15,2.45,2.45,0,0,0-.82-2,4.15,4.15,0,0,0-2.58-.66h-1.79Z" transform="translate(-304.79 -52.67)"/><path class="cls-5" d="M698.58,313.93a6.53,6.53,0,0,1-1.49,4.55,5.35,5.35,0,0,1-4.16,1.63,5.69,5.69,0,0,1-2.94-.75,4.92,4.92,0,0,1-2-2.16,7.35,7.35,0,0,1-.69-3.27,6.44,6.44,0,0,1,1.49-4.51A5.37,5.37,0,0,1,693,307.8a5.24,5.24,0,0,1,4.08,1.66A6.43,6.43,0,0,1,698.58,313.93Zm-8.65,0c0,2.75,1,4.12,3,4.12s3-1.37,3-4.12-1-4.07-3-4.07a2.55,2.55,0,0,0-2.3,1.06A5.29,5.29,0,0,0,689.93,313.93Z" transform="translate(-304.79 -52.67)"/><path class="cls-5" d="M707.51,307.8a6.09,6.09,0,0,1,1.25.11l-.24,2.35a4.58,4.58,0,0,0-1.12-.13,3.21,3.21,0,0,0-2.45,1,3.55,3.55,0,0,0-.94,2.57v6.21h-2.53V308h2l.33,2.1h.13a4.74,4.74,0,0,1,1.54-1.69A3.71,3.71,0,0,1,707.51,307.8Z" transform="translate(-304.79 -52.67)"/><path class="cls-5" d="M715.39,318.07a6.26,6.26,0,0,0,1.85-.29v1.9a5.73,5.73,0,0,1-1.08.31,7.67,7.67,0,0,1-1.37.12q-3.59,0-3.59-3.78v-6.4h-1.62v-1.12l1.74-.92.86-2.52h1.56V308h3.38v1.92h-3.38v6.36a1.78,1.78,0,0,0,.45,1.34A1.69,1.69,0,0,0,715.39,318.07Z" transform="translate(-304.79 -52.67)"/><path class="cls-5" d="M727.05,319.9l-.51-1.66h-.08a5,5,0,0,1-1.73,1.48,5.52,5.52,0,0,1-2.24.39,3.77,3.77,0,0,1-2.73-.94,3.53,3.53,0,0,1-1-2.68,3.14,3.14,0,0,1,1.36-2.77,7.94,7.94,0,0,1,4.16-1l2.05-.07V312a2.4,2.4,0,0,0-.53-1.7,2.17,2.17,0,0,0-1.65-.57,5.67,5.67,0,0,0-1.75.27,12,12,0,0,0-1.61.64l-.82-1.81a8.74,8.74,0,0,1,2.12-.77,10,10,0,0,1,2.17-.26,5.13,5.13,0,0,1,3.42,1,3.86,3.86,0,0,1,1.15,3.1v8Zm-3.76-1.72a3.16,3.16,0,0,0,2.21-.77,2.8,2.8,0,0,0,.83-2.16v-1l-1.53.07a5.22,5.22,0,0,0-2.59.59,1.82,1.82,0,0,0-.81,1.63,1.57,1.57,0,0,0,.47,1.23A2,2,0,0,0,723.29,318.18Z" transform="translate(-304.79 -52.67)"/><path class="cls-5" d="M734.9,319.9h-2.52V303.18h2.52Z" transform="translate(-304.79 -52.67)"/><path class="cls-5" d="M754,319.9H743.39V318l4.05-4.07c1.19-1.22,2-2.09,2.38-2.6a6.24,6.24,0,0,0,.85-1.45,3.86,3.86,0,0,0,.27-1.45,2.21,2.21,0,0,0-.64-1.67,2.46,2.46,0,0,0-1.77-.62,4.73,4.73,0,0,0-1.74.34,7.8,7.8,0,0,0-1.95,1.2L743.47,306a8.6,8.6,0,0,1,2.55-1.57,7.39,7.39,0,0,1,2.63-.47,5.19,5.19,0,0,1,3.51,1.15,3.87,3.87,0,0,1,1.32,3.08,5.3,5.3,0,0,1-.38,2,8.14,8.14,0,0,1-1.17,2,26.79,26.79,0,0,1-2.62,2.74l-2.73,2.64v.11H754Z" transform="translate(-304.79 -52.67)"/><path class="cls-5" d="M457.17,308.94a4.56,4.56,0,0,1-1.61,3.77A7.1,7.1,0,0,1,451,314h-1.64v5.88h-2.56V304.19h4.52a6.86,6.86,0,0,1,4.41,1.2A4.33,4.33,0,0,1,457.17,308.94Zm-7.83,2.92h1.37a4.88,4.88,0,0,0,2.9-.69,2.51,2.51,0,0,0,.92-2.15,2.45,2.45,0,0,0-.82-2,4.15,4.15,0,0,0-2.58-.66h-1.79Z" transform="translate(-304.79 -52.67)"/><path class="cls-5" d="M470.58,313.93a6.53,6.53,0,0,1-1.49,4.55,5.35,5.35,0,0,1-4.16,1.63,5.69,5.69,0,0,1-2.94-.75,4.92,4.92,0,0,1-2-2.16,7.35,7.35,0,0,1-.69-3.27,6.44,6.44,0,0,1,1.49-4.51A5.37,5.37,0,0,1,465,307.8a5.24,5.24,0,0,1,4.08,1.66A6.43,6.43,0,0,1,470.58,313.93Zm-8.65,0c0,2.75,1,4.12,3,4.12s3-1.37,3-4.12-1-4.07-3-4.07a2.55,2.55,0,0,0-2.3,1.06A5.29,5.29,0,0,0,461.93,313.93Z" transform="translate(-304.79 -52.67)"/><path class="cls-5" d="M479.51,307.8a6,6,0,0,1,1.25.11l-.24,2.35a4.58,4.58,0,0,0-1.12-.13,3.21,3.21,0,0,0-2.45,1,3.55,3.55,0,0,0-.94,2.57v6.21h-2.53V308h2l.33,2.1h.13a4.74,4.74,0,0,1,1.54-1.69A3.73,3.73,0,0,1,479.51,307.8Z" transform="translate(-304.79 -52.67)"/><path class="cls-5" d="M487.39,318.07a6.26,6.26,0,0,0,1.85-.29v1.9a5.73,5.73,0,0,1-1.08.31,7.67,7.67,0,0,1-1.37.12q-3.59,0-3.59-3.78v-6.4h-1.62v-1.12l1.74-.92.86-2.52h1.56V308h3.38v1.92h-3.38v6.36a1.78,1.78,0,0,0,.45,1.34A1.69,1.69,0,0,0,487.39,318.07Z" transform="translate(-304.79 -52.67)"/><path class="cls-5" d="M499.05,319.9l-.51-1.66h-.08a5,5,0,0,1-1.73,1.48,5.52,5.52,0,0,1-2.24.39,3.77,3.77,0,0,1-2.73-.94,3.53,3.53,0,0,1-1-2.68,3.14,3.14,0,0,1,1.36-2.77,7.94,7.94,0,0,1,4.16-1l2.05-.07V312a2.4,2.4,0,0,0-.53-1.7,2.17,2.17,0,0,0-1.65-.57,5.67,5.67,0,0,0-1.75.27,12,12,0,0,0-1.61.64l-.82-1.81a8.74,8.74,0,0,1,2.12-.77,10,10,0,0,1,2.17-.26,5.13,5.13,0,0,1,3.42,1,3.86,3.86,0,0,1,1.15,3.1v8Zm-3.76-1.72a3.16,3.16,0,0,0,2.21-.77,2.8,2.8,0,0,0,.83-2.16v-1l-1.53.07a5.22,5.22,0,0,0-2.59.59,1.82,1.82,0,0,0-.81,1.63,1.57,1.57,0,0,0,.47,1.23A2,2,0,0,0,495.29,318.18Z" transform="translate(-304.79 -52.67)"/><path class="cls-5" d="M506.9,319.9h-2.52V303.18h2.52Z" transform="translate(-304.79 -52.67)"/><path class="cls-5" d="M522.8,319.9h-2.53V309.75c0-1.21,0-2.17.09-2.87-.16.17-.37.36-.61.57l-2.41,2-1.27-1.6,4.62-3.63h2.11Z" transform="translate(-304.79 -52.67)"/><rect class="cls-6" x="105.56" y="299.29" width="150.82" height="87.92"/><path class="cls-1" d="M441.28,360.72H429.1a4.06,4.06,0,0,0-4.06,4.06h0a4.06,4.06,0,0,0-4.06,4.06V381a4.06,4.06,0,0,0,4.06,4.06h12.18a4.06,4.06,0,0,0,4.06-4.06,4.07,4.07,0,0,0,4.06-4.07V364.78a4.06,4.06,0,0,0-4.06-4.06" transform="translate(-304.79 -52.67)"/><path class="cls-7" d="M473.28,360.72H461.1a4.06,4.06,0,0,0-4.06,4.06h0a4.06,4.06,0,0,0-4.06,4.06V381a4.06,4.06,0,0,0,4.06,4.06h12.18a4.06,4.06,0,0,0,4.06-4.06,4.07,4.07,0,0,0,4.06-4.07V364.78a4.06,4.06,0,0,0-4.06-4.06" transform="translate(-304.79 -52.67)"/><path class="cls-8" d="M401.34,343.08V448.7h169V343.08Zm158.44,95.06H411.9v-84.5H559.78Zm-47.53,21.12H459.43l-5.28,21.13L443.59,491h84.5l-10.56-10.56Z" transform="translate(-304.79 -52.67)"/><path class="cls-7" d="M545.77,406.08H534.26a3.83,3.83,0,0,0-3.83,3.83h0a3.83,3.83,0,0,0-3.83,3.83v11.5a3.83,3.83,0,0,0,3.83,3.84h11.5a3.84,3.84,0,0,0,3.84-3.84,3.83,3.83,0,0,0,3.83-3.83v-11.5a3.83,3.83,0,0,0-3.83-3.83" transform="translate(-304.79 -52.67)"/><path class="cls-6" d="M533.16,419.51a3,3,0,0,1-.41,1.74,1.28,1.28,0,0,1-1.11.51,1.33,1.33,0,0,1-1.15-.52,2.8,2.8,0,0,1-.43-1.71V412.6h-1.4v6.85a4.15,4.15,0,0,0,.75,2.64,2.71,2.71,0,0,0,2.23,1c1.32,0,2.91-.63,2.91-3.61V412.6h-1.39Z" transform="translate(-304.79 -52.67)"/><path class="cls-6" d="M539.44,413.74a2.43,2.43,0,0,1,1.22.31l.29.17.67-1.15-.3-.17a3.74,3.74,0,0,0-1.86-.45,3.18,3.18,0,0,0-2.75,1.46,6.72,6.72,0,0,0-1,3.83,8,8,0,0,0,.44,2.78,4,4,0,0,0,1.28,1.87,3.07,3.07,0,0,0,2,.67,3.48,3.48,0,0,0,1.65-.34l.18-.09V421.3l-.48.22a3.08,3.08,0,0,1-1.28.24,1.76,1.76,0,0,1-1.2-.44,3,3,0,0,1-.83-1.37,6.87,6.87,0,0,1-.31-2.2,5.78,5.78,0,0,1,.66-3A1.82,1.82,0,0,1,539.44,413.74Z" transform="translate(-304.79 -52.67)"/><path class="cls-6" d="M547.09,418.3a4.38,4.38,0,0,0-1.69-1.21,3.58,3.58,0,0,1-1.27-.83,1.66,1.66,0,0,1-.29-1.05,1.4,1.4,0,0,1,.39-1,1.42,1.42,0,0,1,1-.38,3.52,3.52,0,0,1,1.5.34l.31.15.55-1.23-.29-.15a4.13,4.13,0,0,0-.87-.3,5,5,0,0,0-1.2-.13,3,3,0,0,0-1.42.35,2.49,2.49,0,0,0-1,1,2.75,2.75,0,0,0-.37,1.43,3.46,3.46,0,0,0,.22,1.26,2.55,2.55,0,0,0,.7.94,5.47,5.47,0,0,0,1.31.79,3.57,3.57,0,0,1,1.29.83,1.93,1.93,0,0,1-.14,2.26,1.42,1.42,0,0,1-1.09.45,5.21,5.21,0,0,1-1-.1,3.13,3.13,0,0,1-.85-.28l-.5-.25v1.48l.21.08a5.33,5.33,0,0,0,2.17.37,2.81,2.81,0,0,0,2.09-.84,2.93,2.93,0,0,0,.82-2.16A2.79,2.79,0,0,0,547.09,418.3Z" transform="translate(-304.79 -52.67)"/><rect class="cls-6" x="333.64" y="299.29" width="150.82" height="87.92"/><path class="cls-7" d="M669.28,360.72H657.1a4.06,4.06,0,0,0-4.06,4.06h0a4.06,4.06,0,0,0-4.06,4.06V381a4.06,4.06,0,0,0,4.06,4.06h12.18a4.06,4.06,0,0,0,4.06-4.06,4.07,4.07,0,0,0,4.06-4.07V364.78a4.06,4.06,0,0,0-4.06-4.06" transform="translate(-304.79 -52.67)"/><path class="cls-4" d="M701.28,360.72H689.1a4.06,4.06,0,0,0-4.06,4.06h0a4.06,4.06,0,0,0-4.06,4.06V381a4.06,4.06,0,0,0,4.06,4.06h12.18a4.06,4.06,0,0,0,4.06-4.06,4.07,4.07,0,0,0,4.06-4.07V364.78a4.06,4.06,0,0,0-4.06-4.06" transform="translate(-304.79 -52.67)"/><path class="cls-8" d="M629.34,343.08V448.7h169V343.08Zm158.44,95.06H639.9v-84.5H787.78Zm-47.53,21.12H687.43l-5.28,21.13L671.59,491h84.5l-10.56-10.56Z" transform="translate(-304.79 -52.67)"/><path class="cls-7" d="M773.77,406.08H762.26a3.83,3.83,0,0,0-3.83,3.83h0a3.83,3.83,0,0,0-3.83,3.83v11.5a3.83,3.83,0,0,0,3.83,3.84h11.5a3.84,3.84,0,0,0,3.84-3.84,3.83,3.83,0,0,0,3.83-3.83v-11.5a3.83,3.83,0,0,0-3.83-3.83" transform="translate(-304.79 -52.67)"/><path class="cls-6" d="M761.16,419.51a3,3,0,0,1-.41,1.74,1.28,1.28,0,0,1-1.11.51,1.33,1.33,0,0,1-1.15-.52,2.8,2.8,0,0,1-.43-1.71V412.6h-1.4v6.85a4.15,4.15,0,0,0,.75,2.64,2.71,2.71,0,0,0,2.23,1c1.32,0,2.91-.63,2.91-3.61V412.6h-1.39Z" transform="translate(-304.79 -52.67)"/><path class="cls-6" d="M767.44,413.74a2.43,2.43,0,0,1,1.22.31l.29.17.67-1.15-.3-.17a3.74,3.74,0,0,0-1.86-.45,3.18,3.18,0,0,0-2.75,1.46,6.72,6.72,0,0,0-1,3.83,8,8,0,0,0,.44,2.78,4,4,0,0,0,1.28,1.87,3.07,3.07,0,0,0,2,.67,3.48,3.48,0,0,0,1.65-.34l.18-.09V421.3l-.48.22a3.08,3.08,0,0,1-1.28.24,1.76,1.76,0,0,1-1.2-.44,3,3,0,0,1-.83-1.37,6.87,6.87,0,0,1-.31-2.2,5.78,5.78,0,0,1,.66-3A1.83,1.83,0,0,1,767.44,413.74Z" transform="translate(-304.79 -52.67)"/><path class="cls-6" d="M775.09,418.3a4.38,4.38,0,0,0-1.69-1.21,3.58,3.58,0,0,1-1.27-.83,1.66,1.66,0,0,1-.29-1.05,1.4,1.4,0,0,1,.39-1,1.42,1.42,0,0,1,1-.38,3.52,3.52,0,0,1,1.5.34l.31.15.55-1.23-.29-.15a4.13,4.13,0,0,0-.87-.3,5,5,0,0,0-1.2-.13,3,3,0,0,0-1.42.35,2.49,2.49,0,0,0-1,1,2.75,2.75,0,0,0-.37,1.43,3.46,3.46,0,0,0,.22,1.26,2.55,2.55,0,0,0,.7.94,5.47,5.47,0,0,0,1.31.79,3.57,3.57,0,0,1,1.29.83,1.93,1.93,0,0,1-.14,2.26,1.42,1.42,0,0,1-1.09.45,5.21,5.21,0,0,1-1-.1,3.13,3.13,0,0,1-.85-.28l-.5-.25v1.48l.21.08a5.33,5.33,0,0,0,2.17.37,2.81,2.81,0,0,0,2.09-.84,2.93,2.93,0,0,0,.82-2.16A2.79,2.79,0,0,0,775.09,418.3Z" transform="translate(-304.79 -52.67)"/><polygon class="cls-5" points="50.15 552.45 67.52 562.68 84.37 552.68 50.15 552.45"/><polyline class="cls-9" points="67.26 557.81 67.26 422.77 102.26 422.77"/><polygon class="cls-5" points="312.26 552.45 294.89 562.68 278.05 552.68 312.26 552.45"/><polyline class="cls-9" points="295.15 557.81 295.15 422.77 260.15 422.77"/><polygon class="cls-5" points="540.26 552.45 522.89 562.68 506.05 552.68 540.26 552.45"/><polyline class="cls-9" points="523.15 557.81 523.15 422.77 488.15 422.77"/><polygon class="cls-5" points="186.16 213.45 203.53 223.68 220.37 213.68 186.16 213.45"/><polyline class="cls-9" points="203.26 218.81 203.26 83.77 238.26 83.77"/><polygon class="cls-5" points="174.26 213.45 156.89 223.68 140.05 213.68 174.26 213.45"/><polyline class="cls-9" points="157.16 218.81 157.16 83.77 122.16 83.77"/><polygon class="cls-5" points="415.15 213.45 432.52 223.68 449.37 213.68 415.15 213.45"/><polyline class="cls-9" points="432.26 218.81 432.26 83.77 467.26 83.77"/><polygon class="cls-5" points="403.26 213.45 385.89 223.68 369.05 213.68 403.26 213.45"/><polyline class="cls-9" points="386.15 218.81 386.15 83.77 351.15 83.77"/><path class="cls-8" d="M555.74,747.06h73.84a22.15,22.15,0,0,0,22.15-22.15H533.58a22.14,22.14,0,0,0,22.16,22.15Zm73.84-14.76H637v7.38h-7.39Zm14.77-73.85H541l-7.38,59.08H651.73Zm0,0" transform="translate(-304.79 -52.67)"/><path class="cls-7" d="M658.28,640.07h-24.1a8,8,0,0,0-8,8h0a8,8,0,0,0-8,8v24.1a8,8,0,0,0,8,8h24.1a8,8,0,0,0,8-8,8,8,0,0,0,8-8V648.1a8,8,0,0,0-8-8" transform="translate(-304.79 -52.67)"/><path class="cls-6" d="M631.86,668.21a6.32,6.32,0,0,1-.86,3.65,2.67,2.67,0,0,1-2.33,1.08,2.82,2.82,0,0,1-2.41-1.1,5.9,5.9,0,0,1-.9-3.58V653.73h-2.92V668.1a8.7,8.7,0,0,0,1.57,5.52,5.64,5.64,0,0,0,4.66,2c2.78,0,6.1-1.31,6.1-7.55V653.73h-2.91Z" transform="translate(-304.79 -52.67)"/><path class="cls-6" d="M645,656.13a5,5,0,0,1,2.54.65l.62.36,1.4-2.43-.62-.35a7.89,7.89,0,0,0-3.91-1,6.66,6.66,0,0,0-5.76,3.08,14,14,0,0,0-2,8,16.85,16.85,0,0,0,.92,5.84,8.63,8.63,0,0,0,2.68,3.92,6.56,6.56,0,0,0,4.15,1.39,7.39,7.39,0,0,0,3.44-.7l.38-.2V672l-1,.45a6.39,6.39,0,0,1-2.69.51,3.65,3.65,0,0,1-2.5-.94,6.41,6.41,0,0,1-1.76-2.85,14.8,14.8,0,0,1-.65-4.62,12.2,12.2,0,0,1,1.38-6.32A3.82,3.82,0,0,1,645,656.13Z" transform="translate(-304.79 -52.67)"/><path class="cls-6" d="M661.07,665.69a9.12,9.12,0,0,0-3.56-2.54,7.41,7.41,0,0,1-2.67-1.75,3.5,3.5,0,0,1-.59-2.2,2.81,2.81,0,0,1,3-3,7.34,7.34,0,0,1,3.14.72l.66.31,1.14-2.58-.6-.3a8.3,8.3,0,0,0-1.82-.62,10.32,10.32,0,0,0-2.52-.29,6.21,6.21,0,0,0-3,.73,5.41,5.41,0,0,0-2.16,2.08,6,6,0,0,0-.76,3,6.77,6.77,0,0,0,.47,2.62,5.26,5.26,0,0,0,1.45,2,11.54,11.54,0,0,0,2.74,1.65,7.33,7.33,0,0,1,2.71,1.75,4.08,4.08,0,0,1-.29,4.73,2.94,2.94,0,0,1-2.28,1,10.82,10.82,0,0,1-2.17-.23,6.86,6.86,0,0,1-1.79-.57l-1-.52v3.08l.42.19a11.5,11.5,0,0,0,4.56.76,5.91,5.91,0,0,0,4.37-1.75,6.19,6.19,0,0,0,1.73-4.53A5.84,5.84,0,0,0,661.07,665.69Z" transform="translate(-304.79 -52.67)"/><path class="cls-8" d="M784.63,747.06h73.85a22.14,22.14,0,0,0,22.14-22.15H762.47a22.15,22.15,0,0,0,22.16,22.15Zm73.85-14.76h7.38v7.38h-7.38Zm14.76-73.85H769.86l-7.39,59.08H880.62Zm0,0" transform="translate(-304.79 -52.67)"/><path class="cls-7" d="M887.18,640.07h-24.1a8,8,0,0,0-8,8h0a8,8,0,0,0-8,8v24.1a8,8,0,0,0,8,8h24.1a8,8,0,0,0,8-8,8,8,0,0,0,8-8V648.1a8,8,0,0,0-8-8" transform="translate(-304.79 -52.67)"/><path class="cls-6" d="M860.76,668.21a6.32,6.32,0,0,1-.86,3.65,2.68,2.68,0,0,1-2.33,1.08,2.79,2.79,0,0,1-2.41-1.1,5.9,5.9,0,0,1-.9-3.58V653.73h-2.93V668.1a8.7,8.7,0,0,0,1.57,5.52,5.65,5.65,0,0,0,4.67,2c2.78,0,6.09-1.31,6.09-7.55V653.73h-2.9Z" transform="translate(-304.79 -52.67)"/><path class="cls-6" d="M873.93,656.13a5,5,0,0,1,2.55.65l.62.36,1.39-2.43-.62-.35a7.86,7.86,0,0,0-3.91-1,6.65,6.65,0,0,0-5.75,3.08,14,14,0,0,0-2,8,17.1,17.1,0,0,0,.91,5.84,8.64,8.64,0,0,0,2.69,3.92,6.51,6.51,0,0,0,4.14,1.39,7.4,7.4,0,0,0,3.45-.7l.38-.2V672l-1,.45a6.42,6.42,0,0,1-2.69.51,3.7,3.7,0,0,1-2.51-.94,6.31,6.31,0,0,1-1.75-2.85,14.8,14.8,0,0,1-.65-4.62,12.1,12.1,0,0,1,1.38-6.32A3.82,3.82,0,0,1,873.93,656.13Z" transform="translate(-304.79 -52.67)"/><path class="cls-6" d="M890,665.69a9,9,0,0,0-3.55-2.54,7.21,7.21,0,0,1-2.67-1.75,3.5,3.5,0,0,1-.59-2.2A2.89,2.89,0,0,1,884,657a2.94,2.94,0,0,1,2.17-.81,7.41,7.41,0,0,1,3.14.72l.65.31,1.15-2.58-.61-.3a8.19,8.19,0,0,0-1.81-.62,10.44,10.44,0,0,0-2.52-.29,6.25,6.25,0,0,0-3,.73,5.32,5.32,0,0,0-2.15,2.08,5.91,5.91,0,0,0-.77,3,6.77,6.77,0,0,0,.47,2.62,5.26,5.26,0,0,0,1.45,2,11.64,11.64,0,0,0,2.75,1.65,7.15,7.15,0,0,1,2.7,1.75,3.55,3.55,0,0,1,.62,2.22,3.52,3.52,0,0,1-.9,2.51,3,3,0,0,1-2.28,1,10.92,10.92,0,0,1-2.18-.23,6.9,6.9,0,0,1-1.78-.57l-1-.52v3.08l.43.19a11.46,11.46,0,0,0,4.56.76,5.92,5.92,0,0,0,4.37-1.75,6.23,6.23,0,0,0,1.72-4.53A5.84,5.84,0,0,0,890,665.69Z" transform="translate(-304.79 -52.67)"/><path class="cls-8" d="M327,747.06H400.8a22.14,22.14,0,0,0,22.14-22.15H304.79A22.15,22.15,0,0,0,327,747.06ZM400.8,732.3h7.38v7.38H400.8Zm14.76-73.85H312.17l-7.38,59.08H422.94Zm0,0" transform="translate(-304.79 -52.67)"/><path class="cls-7" d="M429.49,640.07h-24.1a8,8,0,0,0-8,8h0a8,8,0,0,0-8,8v24.1a8,8,0,0,0,8,8h24.1a8,8,0,0,0,8-8,8,8,0,0,0,8-8V648.1a8,8,0,0,0-8-8" transform="translate(-304.79 -52.67)"/><path class="cls-6" d="M403.07,668.21a6.33,6.33,0,0,1-.85,3.65,2.68,2.68,0,0,1-2.33,1.08,2.82,2.82,0,0,1-2.42-1.1,6,6,0,0,1-.89-3.58V653.73h-2.93V668.1a8.7,8.7,0,0,0,1.57,5.52,5.65,5.65,0,0,0,4.67,2c2.78,0,6.09-1.31,6.09-7.55V653.73h-2.91Z" transform="translate(-304.79 -52.67)"/><path class="cls-6" d="M416.25,656.13a5,5,0,0,1,2.55.65l.61.36,1.4-2.43-.62-.35a7.89,7.89,0,0,0-3.91-1,6.64,6.64,0,0,0-5.75,3.08,14,14,0,0,0-2,8,16.86,16.86,0,0,0,.91,5.84,8.57,8.57,0,0,0,2.69,3.92,6.51,6.51,0,0,0,4.14,1.39,7.4,7.4,0,0,0,3.45-.7l.38-.2V672l-1,.45a6.46,6.46,0,0,1-2.69.51,3.7,3.7,0,0,1-2.51-.94,6.31,6.31,0,0,1-1.75-2.85,14.8,14.8,0,0,1-.65-4.62,12.1,12.1,0,0,1,1.38-6.32A3.82,3.82,0,0,1,416.25,656.13Z" transform="translate(-304.79 -52.67)"/><path class="cls-6" d="M432.28,665.69a9,9,0,0,0-3.56-2.54,7.23,7.23,0,0,1-2.66-1.75,3.44,3.44,0,0,1-.59-2.2,2.92,2.92,0,0,1,.81-2.19,3,3,0,0,1,2.18-.81,7.41,7.41,0,0,1,3.14.72l.65.31,1.15-2.58-.61-.3a8.38,8.38,0,0,0-1.81-.62,10.44,10.44,0,0,0-2.52-.29,6.25,6.25,0,0,0-3,.73,5.32,5.32,0,0,0-2.15,2.08,5.91,5.91,0,0,0-.77,3,6.77,6.77,0,0,0,.47,2.62,5.26,5.26,0,0,0,1.45,2,11.64,11.64,0,0,0,2.75,1.65,7.25,7.25,0,0,1,2.7,1.75,3.55,3.55,0,0,1,.62,2.22,3.52,3.52,0,0,1-.9,2.51,3,3,0,0,1-2.29,1,10.82,10.82,0,0,1-2.17-.23,6.9,6.9,0,0,1-1.78-.57l-1-.52v3.08l.42.19a11.53,11.53,0,0,0,4.56.76,5.93,5.93,0,0,0,4.38-1.75,6.23,6.23,0,0,0,1.72-4.53A5.84,5.84,0,0,0,432.28,665.69Z" transform="translate(-304.79 -52.67)"/></svg>