<svg id="Ebene_1" data-name="Ebene 1" xmlns="http://www.w3.org/2000/svg" viewBox="0 0 1538.38 910.56"><defs><style>.cls-1,.cls-13,.cls-7{fill:#fff;}.cls-1{stroke:#00acb6;stroke-width:2px;}.cls-1,.cls-2,.cls-6{stroke-miterlimit:10;}.cls-2{fill:none;}.cls-2,.cls-6{stroke:#838380;stroke-width:4px;}.cls-3,.cls-5{font-size:30px;}.cls-16,.cls-3{fill:#00acb6;}.cls-3,.cls-5,.cls-9{font-family:OpenSans-SemiBold, Open Sans;font-weight:600;}.cls-4,.cls-5{fill:#868681;}.cls-6{fill:#848380;}.cls-8{fill:#878783;}.cls-9{font-size:20px;fill:#858480;}.cls-10{fill:#93608b;}.cls-11{fill:#76b728;}.cls-12{fill:#f6aa42;}.cls-13{font-size:18.05px;font-family:OpenSans, Open Sans;}.cls-14{fill:#e85281;}.cls-15{fill:#dd042d;}</style></defs><rect class="cls-1" x="1" y="160.96" width="735.71" height="748.6" rx="14.17"/><polyline class="cls-2" points="369.07 82.35 369.07 46.76 1169.53 46.76 1169.53 81.96"/><text class="cls-3" transform="translate(28.29 208.53)">Headquarter</text><path class="cls-4" d="M554.18,636.42H628a22.15,22.15,0,0,0,22.15-22.15H532a22.14,22.14,0,0,0,22.16,22.15ZM628,621.66h7.38V629H628ZM554.18,666H628a22.15,22.15,0,0,0,22.15-22.15H532A22.14,22.14,0,0,0,554.18,666ZM628,651.19h7.38v7.38H628Zm-73.84,44.29H628a22.15,22.15,0,0,0,22.15-22.15H532a22.14,22.14,0,0,0,22.16,22.15ZM628,680.72h7.38v7.38H628Zm14.77-132.91H539.4L532,606.89H650.17Zm0,0" transform="translate(-50.6 -45.01)"/><text class="cls-5" transform="translate(705.11 25.71)">Internet</text><line class="cls-6" x1="302.13" y1="332.13" x2="436.97" y2="332.13"/><line class="cls-6" x1="301" y1="568.79" x2="436.97" y2="568.79"/><polyline class="cls-2" points="301 806.13 369.07 806.13 369.07 120.62"/><rect class="cls-7" x="128.45" y="761.12" width="63.02" height="36.02"/><path class="cls-8" d="M174.55,801.64v45h72v-45Zm67.52,40.51H179v-36h63Zm-20.26,9h-22.5l-2.26,9-4.5,4.5h36l-4.51-4.5Z" transform="translate(-50.6 -45.01)"/><path class="cls-8" d="M144.28,812.61v45h72v-45Zm67.53,40.52h-63v-36h63Zm-20.26,9H169l-2.25,9-4.49,4.51h36l-4.5-4.51Z" transform="translate(-50.6 -45.01)"/><rect class="cls-7" x="98.19" y="772.11" width="63.02" height="36.02"/><text class="cls-9" transform="translate(112.21 865.64)">Clients</text><path class="cls-4" d="M419.46,126a20.7,20.7,0,0,0-15.08,6.24A21.67,21.67,0,0,0,398,147.47,21.61,21.61,0,0,0,419.46,169a21.88,21.88,0,0,0,15.38-6.42A20.73,20.73,0,0,0,441,147.47a21.31,21.31,0,0,0-21.5-21.5Zm.06,3.89a17.48,17.48,0,0,1,17.55,17.61,16.82,16.82,0,0,1-5,12.31A17.87,17.87,0,0,1,419.52,165a17.79,17.79,0,0,1-17.61-17.55A17.78,17.78,0,0,1,407.15,135a16.88,16.88,0,0,1,12.37-5.12Z" transform="translate(-50.6 -45.01)"/><path class="cls-4" d="M412.93,142.37h1.76l-3.63,10.35h-1.78l-3.61-10.35h1.74l2.16,6.44c.11.3.23.7.36,1.18s.21.85.25,1.08a12.17,12.17,0,0,1,.28-1.24c.13-.48.23-.83.31-1.05Z" transform="translate(-50.6 -45.01)"/><path class="cls-4" d="M422.91,145.5a3,3,0,0,1-1.07,2.49,4.68,4.68,0,0,1-3,.86h-1.07v3.87h-1.7V142.37h3a4.49,4.49,0,0,1,2.91.79A2.87,2.87,0,0,1,422.91,145.5Zm-5.16,1.93h.89a3.27,3.27,0,0,0,1.92-.46,1.65,1.65,0,0,0,.6-1.41,1.6,1.6,0,0,0-.54-1.33,2.64,2.64,0,0,0-1.7-.44h-1.17Z" transform="translate(-50.6 -45.01)"/><path class="cls-4" d="M433.6,152.72h-2.08l-5.09-8.25h-.05l0,.46c.07.88.1,1.68.1,2.41v5.38H425V142.37H427l5.07,8.21h0c0-.11,0-.51-.06-1.19s0-1.21,0-1.6v-5.42h1.55Z" transform="translate(-50.6 -45.01)"/><path class="cls-4" d="M1219.46,126a20.7,20.7,0,0,0-15.08,6.24,21.67,21.67,0,0,0-6.36,15.26,21.61,21.61,0,0,0,21.44,21.5,21.88,21.88,0,0,0,15.38-6.42,20.73,20.73,0,0,0,6.12-15.08,21.31,21.31,0,0,0-21.5-21.5Zm.06,3.89a17.48,17.48,0,0,1,17.55,17.61,16.82,16.82,0,0,1-5,12.31,17.87,17.87,0,0,1-12.55,5.24,17.79,17.79,0,0,1-17.61-17.55,17.78,17.78,0,0,1,5.24-12.49,16.88,16.88,0,0,1,12.37-5.12Z" transform="translate(-50.6 -45.01)"/><path class="cls-4" d="M1212.93,142.37h1.76l-3.63,10.35h-1.78l-3.61-10.35h1.74l2.16,6.44c.11.3.23.7.36,1.18s.21.85.25,1.08a12.17,12.17,0,0,1,.28-1.24c.13-.48.23-.83.31-1.05Z" transform="translate(-50.6 -45.01)"/><path class="cls-4" d="M1222.91,145.5a3,3,0,0,1-1.07,2.49,4.68,4.68,0,0,1-3,.86h-1.07v3.87h-1.7V142.37h3a4.49,4.49,0,0,1,2.91.79A2.87,2.87,0,0,1,1222.91,145.5Zm-5.16,1.93h.89a3.27,3.27,0,0,0,1.92-.46,1.65,1.65,0,0,0,.6-1.41,1.6,1.6,0,0,0-.54-1.33,2.64,2.64,0,0,0-1.7-.44h-1.17Z" transform="translate(-50.6 -45.01)"/><path class="cls-4" d="M1233.6,152.72h-2.08l-5.09-8.25h0l0,.46c.07.88.1,1.68.1,2.41v5.38H1225V142.37H1227l5.07,8.21h.05c0-.11,0-.51-.06-1.19s0-1.21,0-1.6v-5.42h1.55Z" transform="translate(-50.6 -45.01)"/><path class="cls-10" d="M718.56,526.1l-27.85,5.52v19.83h27.85Zm-30.55,6-17.28,3.42v15.88H688ZM670.73,553.6v15.92L688,572.93V553.6Zm20,0v19.87L718.56,579V553.6Zm0,0" transform="translate(-50.6 -45.01)"/><text class="cls-9" transform="translate(454.79 446.75)">Backup Directory <tspan x="59.78" y="24">Node</tspan></text><text class="cls-9" transform="translate(53.13 416.75)">Primary Directory <tspan x="62.41" y="24">Node</tspan></text><text class="cls-9" transform="translate(462.93 684.33)">Windows Server</text><rect class="cls-1" x="801.67" y="160.96" width="735.71" height="521.23" rx="14.17"/><text class="cls-3" transform="translate(828.96 208.53)">Site A</text><line class="cls-6" x1="1102.8" y1="332.13" x2="1237.64" y2="332.13"/><polyline class="cls-2" points="1101.67 570.13 1169.74 570.13 1169.74 120.62"/><rect class="cls-7" x="919.17" y="523.41" width="63.82" height="36.81"/><path class="cls-8" d="M965.69,564.72v45h72v-45Zm67.52,40.51h-63v-36h63Zm-20.25,9H990.45l-2.25,9-4.5,4.5h36l-4.5-4.5Z" transform="translate(-50.6 -45.01)"/><rect class="cls-7" x="888.51" y="534.4" width="64.42" height="37.45"/><path class="cls-8" d="M935.43,575.7v45h72v-45ZM1003,616.21h-63v-36h63Zm-20.26,9h-22.5l-2.26,9-4.49,4.5h36l-4.5-4.5Z" transform="translate(-50.6 -45.01)"/><text class="cls-9" transform="translate(903.35 628.72)">Clients</text><path class="cls-4" d="M155.83,424.38h73.85a22.14,22.14,0,0,0,22.14-22.14H133.67a22.15,22.15,0,0,0,22.16,22.14Zm73.85-14.76h7.38V417h-7.38Zm14.76-73.85H141.05l-7.38,59.09H251.82Zm0,0" transform="translate(-50.6 -45.01)"/><path class="cls-4" d="M554.18,397.76H628a22.15,22.15,0,0,0,22.15-22.15H532a22.15,22.15,0,0,0,22.16,22.15ZM628,383h7.38v7.38H628Zm-73.84,44.29H628a22.15,22.15,0,0,0,22.15-22.14H532a22.14,22.14,0,0,0,22.16,22.14ZM628,412.52h7.38v7.38H628Zm-73.84,44.29H628a22.15,22.15,0,0,0,22.15-22.14H532a22.14,22.14,0,0,0,22.16,22.14ZM628,442.05h7.38v7.38H628Zm14.77-132.91H539.4L532,368.23H650.17Zm0,0" transform="translate(-50.6 -45.01)"/><path class="cls-11" d="M258.38,317.39h-24.1a8,8,0,0,0-8,8h0a8,8,0,0,0-8,8v24.09a8,8,0,0,0,8,8h24.1a8,8,0,0,0,8-8,8,8,0,0,0,8-8v-24.1a8,8,0,0,0-8-8" transform="translate(-50.6 -45.01)"/><path class="cls-7" d="M232,345.53a6.3,6.3,0,0,1-.85,3.65,2.66,2.66,0,0,1-2.33,1.08,2.81,2.81,0,0,1-2.41-1.09,5.92,5.92,0,0,1-.9-3.58V331.06h-2.93v14.36a8.68,8.68,0,0,0,1.57,5.52,5.66,5.66,0,0,0,4.67,2c2.78,0,6.09-1.31,6.09-7.56V331.06H232Z" transform="translate(-50.6 -45.01)"/><path class="cls-7" d="M245.13,333.46a4.91,4.91,0,0,1,2.55.65l.61.36,1.4-2.43-.62-.35a7.86,7.86,0,0,0-3.91-.95,6.64,6.64,0,0,0-5.75,3.07,14.07,14.07,0,0,0-2,8,17.2,17.2,0,0,0,.91,5.85,8.61,8.61,0,0,0,2.69,3.91,6.52,6.52,0,0,0,4.14,1.4,7.53,7.53,0,0,0,3.45-.7l.38-.2V349.3l-1,.46a6.59,6.59,0,0,1-2.69.5,3.69,3.69,0,0,1-2.51-.93,6.29,6.29,0,0,1-1.75-2.86,14.75,14.75,0,0,1-.65-4.62,12.12,12.12,0,0,1,1.38-6.32A3.81,3.81,0,0,1,245.13,333.46Z" transform="translate(-50.6 -45.01)"/><path class="cls-7" d="M261.16,343a9,9,0,0,0-3.56-2.53,7.36,7.36,0,0,1-2.66-1.75,3.55,3.55,0,0,1-.59-2.21,2.9,2.9,0,0,1,.81-2.18,3,3,0,0,1,2.18-.82,7.42,7.42,0,0,1,3.14.73l.65.3,1.15-2.58-.61-.3a9,9,0,0,0-1.81-.62,10.46,10.46,0,0,0-2.52-.28,6.24,6.24,0,0,0-3,.72,5.32,5.32,0,0,0-2.15,2.08,5.91,5.91,0,0,0-.77,3,6.74,6.74,0,0,0,.47,2.62,5.22,5.22,0,0,0,1.45,2,11.66,11.66,0,0,0,2.75,1.64,7,7,0,0,1,2.7,1.76,3.52,3.52,0,0,1,.62,2.21,3.48,3.48,0,0,1-.9,2.51,3,3,0,0,1-2.28.95,10.89,10.89,0,0,1-2.18-.22,7.31,7.31,0,0,1-1.78-.57l-1-.52V352l.42.18a11.54,11.54,0,0,0,4.57.77,5.89,5.89,0,0,0,4.37-1.76,6.21,6.21,0,0,0,1.72-4.53A5.86,5.86,0,0,0,261.16,343Z" transform="translate(-50.6 -45.01)"/><path class="cls-11" d="M656.72,290.76h-24.1a8,8,0,0,0-8,8h0a8,8,0,0,0-8,8v24.09a8,8,0,0,0,8,8h24.1a8,8,0,0,0,8-8,8,8,0,0,0,8-8v-24.1a8,8,0,0,0-8-8" transform="translate(-50.6 -45.01)"/><path class="cls-7" d="M630.3,318.9a6.3,6.3,0,0,1-.86,3.65,2.64,2.64,0,0,1-2.33,1.08,2.84,2.84,0,0,1-2.41-1.09,5.92,5.92,0,0,1-.9-3.58V304.43h-2.92v14.36a8.68,8.68,0,0,0,1.57,5.52,5.65,5.65,0,0,0,4.66,2c2.78,0,6.1-1.31,6.1-7.56V304.43H630.3Z" transform="translate(-50.6 -45.01)"/><path class="cls-7" d="M643.47,306.83a4.86,4.86,0,0,1,2.55.65l.62.36,1.4-2.43-.63-.35a7.83,7.83,0,0,0-3.91-.95,6.65,6.65,0,0,0-5.75,3.07,14.07,14.07,0,0,0-2,8,17.16,17.16,0,0,0,.91,5.85,8.68,8.68,0,0,0,2.69,3.91,6.54,6.54,0,0,0,4.14,1.4,7.53,7.53,0,0,0,3.45-.7l.38-.2v-2.78l-1,.46a6.56,6.56,0,0,1-2.69.5,3.64,3.64,0,0,1-2.5-.93,6.39,6.39,0,0,1-1.76-2.86,14.75,14.75,0,0,1-.65-4.62,12.22,12.22,0,0,1,1.38-6.32A3.83,3.83,0,0,1,643.47,306.83Z" transform="translate(-50.6 -45.01)"/><path class="cls-7" d="M659.5,316.38a9.09,9.09,0,0,0-3.55-2.53,7.56,7.56,0,0,1-2.67-1.75,3.55,3.55,0,0,1-.59-2.21,2.82,2.82,0,0,1,3-3,7.36,7.36,0,0,1,3.14.73l.66.3,1.14-2.58-.6-.3a8.86,8.86,0,0,0-1.82-.62,10.4,10.4,0,0,0-2.52-.28,6.24,6.24,0,0,0-3,.72,5.38,5.38,0,0,0-2.15,2.08,6,6,0,0,0-.76,3,6.83,6.83,0,0,0,.46,2.63,5.4,5.4,0,0,0,1.46,2,11.56,11.56,0,0,0,2.74,1.64,7,7,0,0,1,2.7,1.76,4,4,0,0,1-.28,4.72,2.94,2.94,0,0,1-2.28.95,10.8,10.8,0,0,1-2.17-.22,6.86,6.86,0,0,1-1.79-.57l-1-.52v3.08l.42.18a11.48,11.48,0,0,0,4.56.77,5.89,5.89,0,0,0,4.37-1.76,6.18,6.18,0,0,0,1.73-4.53A5.81,5.81,0,0,0,659.5,316.38Z" transform="translate(-50.6 -45.01)"/><path class="cls-12" d="M710.73,291.47H686.81a8,8,0,0,0-8,8h0a8,8,0,0,0-8,8v23.91a8,8,0,0,0,8,8h23.92a8,8,0,0,0,8-8,8,8,0,0,0,8-8V299.44a8,8,0,0,0-8-8" transform="translate(-50.6 -45.01)"/><text class="cls-13" transform="translate(625.99 275.54)">CRM</text><text class="cls-9" transform="translate(57.06 685.84)">Replica Directory <tspan x="58.84" y="24">Node</tspan></text><path class="cls-4" d="M155.51,636.84h73.85a22.15,22.15,0,0,0,22.15-22.14H133.35a22.15,22.15,0,0,0,22.16,22.14Zm73.85-14.76h7.38v7.38h-7.38Zm-73.85,44.29h73.85a22.15,22.15,0,0,0,22.15-22.14H133.35a22.15,22.15,0,0,0,22.16,22.14Zm73.85-14.76h7.38V659h-7.38ZM155.51,695.9h73.85a22.15,22.15,0,0,0,22.15-22.14H133.35a22.15,22.15,0,0,0,22.16,22.14Zm73.85-14.76h7.38v7.38h-7.38Zm14.76-132.91H140.74l-7.39,59.08H251.51Zm0,0" transform="translate(-50.6 -45.01)"/><path class="cls-11" d="M258.06,529.85H234a8,8,0,0,0-8,8h0a8,8,0,0,0-8,8V570a8,8,0,0,0,8,8H250a8,8,0,0,0,8-8,8,8,0,0,0,8-8v-24.1a8,8,0,0,0-8-8" transform="translate(-50.6 -45.01)"/><path class="cls-7" d="M231.64,558a6.3,6.3,0,0,1-.86,3.65,2.64,2.64,0,0,1-2.33,1.08,2.8,2.8,0,0,1-2.41-1.1,5.87,5.87,0,0,1-.9-3.57V543.51h-2.92v14.37a8.62,8.62,0,0,0,1.57,5.52,5.64,5.64,0,0,0,4.66,2c2.78,0,6.1-1.31,6.1-7.56V543.51h-2.91Z" transform="translate(-50.6 -45.01)"/><path class="cls-7" d="M244.81,545.91a5,5,0,0,1,2.55.65l.62.36,1.39-2.42-.62-.35a7.86,7.86,0,0,0-3.91-.95,6.64,6.64,0,0,0-5.75,3.07,14,14,0,0,0-2,8,17.1,17.1,0,0,0,.91,5.84,8.59,8.59,0,0,0,2.69,3.92,6.54,6.54,0,0,0,4.14,1.4,7.53,7.53,0,0,0,3.45-.7l.38-.2v-2.78l-1,.46a6.59,6.59,0,0,1-2.69.5,3.74,3.74,0,0,1-2.51-.93,6.35,6.35,0,0,1-1.75-2.86,14.75,14.75,0,0,1-.65-4.62,12.12,12.12,0,0,1,1.38-6.32A3.82,3.82,0,0,1,244.81,545.91Z" transform="translate(-50.6 -45.01)"/><path class="cls-7" d="M260.84,555.47a9.1,9.1,0,0,0-3.55-2.54,7.24,7.24,0,0,1-2.67-1.74A3.55,3.55,0,0,1,254,549a2.82,2.82,0,0,1,3-3,7.39,7.39,0,0,1,3.14.73l.65.3,1.15-2.58-.61-.3a8.74,8.74,0,0,0-1.81-.62,10.44,10.44,0,0,0-2.52-.29,6.25,6.25,0,0,0-3,.73A5.38,5.38,0,0,0,251.9,546a5.91,5.91,0,0,0-.76,3,6.74,6.74,0,0,0,.46,2.62,5.33,5.33,0,0,0,1.45,2,11.87,11.87,0,0,0,2.75,1.64,7,7,0,0,1,2.7,1.76,4,4,0,0,1-.28,4.72,3,3,0,0,1-2.28,1,11,11,0,0,1-2.18-.22,7.31,7.31,0,0,1-1.78-.57l-1-.52v3.08l.43.18a11.48,11.48,0,0,0,4.56.77,5.89,5.89,0,0,0,4.37-1.76,6.22,6.22,0,0,0,1.73-4.53A5.87,5.87,0,0,0,260.84,555.47Z" transform="translate(-50.6 -45.01)"/><path class="cls-14" d="M312.07,530.56H288.15a8,8,0,0,0-8,8h0a8,8,0,0,0-8,8v23.92a8,8,0,0,0,8,8H304.1a8,8,0,0,0,8-8,8,8,0,0,0,8-8V538.53a8,8,0,0,0-8-8" transform="translate(-50.6 -45.01)"/><text class="cls-13" transform="translate(229.5 514.75)">ERP</text><text class="cls-9" transform="translate(1261.37 446.75)">Managed Node</text><path class="cls-4" d="M1348.31,397.76h73.85a22.15,22.15,0,0,0,22.14-22.15H1326.15a22.16,22.16,0,0,0,22.16,22.15ZM1422.16,383h7.38v7.38h-7.38Zm-73.85,44.29h73.85a22.14,22.14,0,0,0,22.14-22.14H1326.15a22.15,22.15,0,0,0,22.16,22.14Zm73.85-14.76h7.38v7.38h-7.38Zm-73.85,44.29h73.85a22.14,22.14,0,0,0,22.14-22.14H1326.15a22.15,22.15,0,0,0,22.16,22.14Zm73.85-14.76h7.38v7.38h-7.38Zm14.76-132.91H1333.54l-7.39,59.09H1444.3Zm0,0" transform="translate(-50.6 -45.01)"/><path class="cls-11" d="M1450.86,290.76h-24.1a8,8,0,0,0-8,8h0a8,8,0,0,0-8,8v24.09a8,8,0,0,0,8,8h24.1a8,8,0,0,0,8-8,8,8,0,0,0,8-8v-24.1a8,8,0,0,0-8-8" transform="translate(-50.6 -45.01)"/><path class="cls-7" d="M1424.44,318.9a6.3,6.3,0,0,1-.86,3.65,2.66,2.66,0,0,1-2.33,1.08,2.81,2.81,0,0,1-2.41-1.09,5.92,5.92,0,0,1-.9-3.58V304.43H1415v14.36a8.68,8.68,0,0,0,1.57,5.52,5.66,5.66,0,0,0,4.67,2c2.78,0,6.09-1.31,6.09-7.56V304.43h-2.9Z" transform="translate(-50.6 -45.01)"/><path class="cls-7" d="M1437.61,306.83a4.91,4.91,0,0,1,2.55.65l.61.36,1.4-2.43-.62-.35a7.86,7.86,0,0,0-3.91-.95,6.64,6.64,0,0,0-5.75,3.07,14.07,14.07,0,0,0-2,8,17.16,17.16,0,0,0,.91,5.85,8.61,8.61,0,0,0,2.69,3.91,6.52,6.52,0,0,0,4.14,1.4,7.53,7.53,0,0,0,3.45-.7l.38-.2v-2.78l-1,.46a6.59,6.59,0,0,1-2.69.5,3.69,3.69,0,0,1-2.51-.93,6.29,6.29,0,0,1-1.75-2.86,14.75,14.75,0,0,1-.65-4.62,12.12,12.12,0,0,1,1.38-6.32A3.83,3.83,0,0,1,1437.61,306.83Z" transform="translate(-50.6 -45.01)"/><path class="cls-7" d="M1453.64,316.38a9.06,9.06,0,0,0-3.56-2.53,7.36,7.36,0,0,1-2.66-1.75,3.55,3.55,0,0,1-.59-2.21,2.9,2.9,0,0,1,.81-2.18,3,3,0,0,1,2.18-.82,7.42,7.42,0,0,1,3.14.73l.65.3,1.15-2.58-.61-.3a9,9,0,0,0-1.81-.62,10.46,10.46,0,0,0-2.52-.28,6.24,6.24,0,0,0-3,.72,5.32,5.32,0,0,0-2.15,2.08,5.91,5.91,0,0,0-.77,3,6.82,6.82,0,0,0,.47,2.63,5.26,5.26,0,0,0,1.45,2,11.66,11.66,0,0,0,2.75,1.64,7,7,0,0,1,2.7,1.76,3.52,3.52,0,0,1,.62,2.21,3.48,3.48,0,0,1-.9,2.51,3,3,0,0,1-2.28.95,10.89,10.89,0,0,1-2.18-.22,6.9,6.9,0,0,1-1.78-.57l-1-.52v3.08l.42.18a11.54,11.54,0,0,0,4.57.77,5.89,5.89,0,0,0,4.37-1.76,6.21,6.21,0,0,0,1.72-4.53A5.86,5.86,0,0,0,1453.64,316.38Z" transform="translate(-50.6 -45.01)"/><path class="cls-15" d="M1504.87,291.47H1481a8,8,0,0,0-8,8h0a8,8,0,0,0-8,8v23.91a8,8,0,0,0,8,8h23.92a8,8,0,0,0,8-8,8,8,0,0,0,8-8V299.44a8,8,0,0,0-8-8" transform="translate(-50.6 -45.01)"/><text class="cls-13" transform="translate(1432.34 275.54)">...</text><text class="cls-9" transform="translate(851.2 446.17)">Replica Directory <tspan x="58.84" y="24">Node</tspan></text><path class="cls-4" d="M949.65,397.18h73.85A22.15,22.15,0,0,0,1045.64,375H927.49a22.16,22.16,0,0,0,22.16,22.15Zm73.85-14.77h7.38v7.38h-7.38Zm-73.85,44.3h73.85a22.15,22.15,0,0,0,22.14-22.15H927.49a22.16,22.16,0,0,0,22.16,22.15Zm73.85-14.77h7.38v7.38h-7.38Zm-73.85,44.29h73.85a22.14,22.14,0,0,0,22.14-22.14H927.49a22.15,22.15,0,0,0,22.16,22.14Zm73.85-14.76h7.38v7.38h-7.38Zm14.76-132.9H934.87l-7.38,59.08h118.15Zm0,0" transform="translate(-50.6 -45.01)"/><path class="cls-11" d="M1052.19,290.18h-24.1a8,8,0,0,0-8,8h0a8,8,0,0,0-8,8v24.09a8,8,0,0,0,8,8h24.1a8,8,0,0,0,8-8,8,8,0,0,0,8-8v-24.1a8,8,0,0,0-8-8" transform="translate(-50.6 -45.01)"/><path class="cls-7" d="M1025.77,318.32a6.38,6.38,0,0,1-.85,3.65,2.67,2.67,0,0,1-2.34,1.08,2.84,2.84,0,0,1-2.41-1.09,6,6,0,0,1-.9-3.58V303.85h-2.92v14.36a8.68,8.68,0,0,0,1.57,5.52,5.65,5.65,0,0,0,4.66,2c2.79,0,6.1-1.31,6.1-7.56V303.85h-2.91Z" transform="translate(-50.6 -45.01)"/><path class="cls-7" d="M1039,306.25a4.91,4.91,0,0,1,2.55.65l.61.36,1.4-2.43-.62-.35a7.89,7.89,0,0,0-3.91-1,6.63,6.63,0,0,0-5.75,3.07,14.07,14.07,0,0,0-2,8,16.92,16.92,0,0,0,.91,5.85,8.54,8.54,0,0,0,2.68,3.91,6.56,6.56,0,0,0,4.15,1.4,7.59,7.59,0,0,0,3.45-.7l.38-.2v-2.78l-1,.46a6.56,6.56,0,0,1-2.69.5,3.66,3.66,0,0,1-2.5-.93,6.29,6.29,0,0,1-1.75-2.86,14.47,14.47,0,0,1-.65-4.62,12.12,12.12,0,0,1,1.38-6.32A3.81,3.81,0,0,1,1039,306.25Z" transform="translate(-50.6 -45.01)"/><path class="cls-7" d="M1055,315.8a9.21,9.21,0,0,0-3.56-2.53,7.36,7.36,0,0,1-2.66-1.75,3.47,3.47,0,0,1-.6-2.2,2.81,2.81,0,0,1,3-3,7.42,7.42,0,0,1,3.15.72l.65.3,1.15-2.58-.61-.3a9,9,0,0,0-1.81-.62,10.48,10.48,0,0,0-2.53-.28,6.23,6.23,0,0,0-3,.72,5.32,5.32,0,0,0-2.15,2.08,5.91,5.91,0,0,0-.77,3,6.79,6.79,0,0,0,.47,2.63,5.26,5.26,0,0,0,1.45,2,11.45,11.45,0,0,0,2.75,1.64,7.1,7.1,0,0,1,2.7,1.76,3.53,3.53,0,0,1,.62,2.22,3.48,3.48,0,0,1-.9,2.5,3,3,0,0,1-2.29.95,10.8,10.8,0,0,1-2.17-.22,6.9,6.9,0,0,1-1.78-.57l-1-.52v3.08l.42.18a11.52,11.52,0,0,0,4.56.77,5.89,5.89,0,0,0,4.37-1.75,6.2,6.2,0,0,0,1.73-4.54A5.86,5.86,0,0,0,1055,315.8Z" transform="translate(-50.6 -45.01)"/><path class="cls-16" d="M1106.21,290.89h-23.92a8,8,0,0,0-8,8h0a8,8,0,0,0-8,8v23.91a8,8,0,0,0,8,8h23.91a8,8,0,0,0,8-8,8,8,0,0,0,8-8V298.86a8,8,0,0,0-8-8" transform="translate(-50.6 -45.01)"/><text class="cls-13" transform="translate(1021.21 274.96)">DMS</text></svg>