<?xml version="1.0" encoding="utf-8"?>
<!-- Generator: Adobe Illustrator 22.1.0, SVG Export Plug-In . SVG Version: 6.00 Build 0)  -->
<svg version="1.1"
	 id="svg4189" xmlns:cc="http://creativecommons.org/ns#" xmlns:dc="http://purl.org/dc/elements/1.1/" xmlns:rdf="http://www.w3.org/1999/02/22-rdf-syntax-ns#" xmlns:svg="http://www.w3.org/2000/svg"
	 xmlns="http://www.w3.org/2000/svg" xmlns:xlink="http://www.w3.org/1999/xlink" x="0px" y="0px" viewBox="0 0 65 65"
	 style="enable-background:new 0 0 65 65;" xml:space="preserve">
<style type="text/css">
	.st0{fill:#787878;}
	.st1{fill:#76B728;}
	.st2{fill:#FFFFFF;}
</style>
<g id="g4118" transform="matrix(1,0,0,-1,-345.0003,1870.3623)">
	<g id="g970" transform="translate(392.9332,860.4584)">
		<path id="path972" class="st0" d="M0,987.4v5.1l-2.8,1c-1,0.4-1.9,1.2-2.3,2.2v0c-0.4,1-0.4,2.2,0.1,3.2l1.3,2.6l-3.6,3.6
			l-2.6-1.3c-1-0.5-2.2-0.5-3.2-0.1c0,0,0,0,0,0c-1,0.4-1.8,1.3-2.2,2.3l-1,2.8h-5.1l-1-2.8c-0.4-1-1.2-1.9-2.2-2.3c0,0,0,0,0,0
			c-1-0.4-2.2-0.4-3.2,0.1l-2.6,1.3l-3.6-3.6l1.3-2.6c0.5-1,0.5-2.2,0.1-3.2v0c-0.4-1-1.3-1.8-2.3-2.2l-2.8-1v-5.1l2.8-1
			c1-0.4,1.9-1.2,2.3-2.2c0,0,0,0,0,0c0.4-1,0.4-2.2-0.1-3.2l-1.3-2.6l3.6-3.6l2.6,1.3c1,0.5,2.2,0.5,3.2,0.1c0,0,0,0,0,0
			c1-0.4,1.8-1.3,2.2-2.3l1-2.8h5.1l1,2.7c0.4,1.1,1.2,1.9,2.2,2.3c0,0,0,0,0,0c1,0.4,2.2,0.4,3.2-0.1l2.7-1.3l3.6,3.6L-5,981
			c-0.5,1-0.5,2.2-0.1,3.2c0,0,0,0,0,0c0.4,1,1.3,1.8,2.3,2.2L0,987.4z M-18.9,983c-3.8,0-6.9,3.1-6.9,6.9c0,3.8,3.1,6.9,6.9,6.9
			c3.8,0,6.9-3.1,6.9-6.9C-12,986.1-15.1,983-18.9,983 M17.1,972.4v2.7l-1.5,0.5c-0.6,0.2-1,0.6-1.2,1.2c0,0,0,0,0,0
			c-0.2,0.5-0.2,1.2,0,1.7l0.7,1.4l-1.9,1.9l-1.4-0.7c-0.5-0.3-1.2-0.3-1.7,0h0c-0.5,0.2-1,0.7-1.2,1.2l-0.5,1.5H5.7l-0.5-1.5
			c-0.2-0.6-0.6-1-1.2-1.2h0c-0.5-0.2-1.2-0.2-1.7,0l-1.4,0.7l-1.9-1.9l0.7-1.4c0.3-0.5,0.3-1.2,0-1.7c0,0,0,0,0,0
			c-0.2-0.5-0.7-1-1.2-1.2l-1.5-0.5v-2.7l1.5-0.5c0.6-0.2,1-0.6,1.2-1.2c0,0,0,0,0,0c0.2-0.5,0.2-1.2,0-1.7l-0.7-1.4l1.9-1.9
			l1.4,0.7c0.5,0.3,1.2,0.3,1.7,0l0,0c0.5-0.2,1-0.7,1.2-1.2l0.5-1.5h2.7l0.5,1.5c0.2,0.6,0.6,1,1.2,1.2c0,0,0,0,0,0
			c0.5,0.2,1.2,0.2,1.7,0l1.4-0.7l1.9,1.9l-0.7,1.4c-0.3,0.5-0.3,1.2,0,1.7l0,0c0.2,0.5,0.7,1,1.2,1.2
			C15.6,971.9,17.1,972.4,17.1,972.4z M7,970.1c-2,0-3.7,1.6-3.7,3.7s1.6,3.7,3.7,3.7s3.7-1.6,3.7-3.7S9.1,970.1,7,970.1
			 M-2.5,964.4v1.5l-1,0.3c-0.2,0.1-0.4,0.2-0.4,0.4c0,0,0,0,0,0c-0.1,0.2,0,0.4,0.2,0.6l0.8,0.7l-0.7,1.3l-1-0.3
			c-0.2-0.1-0.4,0-0.6,0.2l0,0c-0.2,0.2-0.2,0.4-0.2,0.6l0.3,1l-1.3,0.7l-0.7-0.8c-0.2-0.2-0.4-0.2-0.6-0.2c0,0,0,0,0,0
			c-0.2,0.1-0.4,0.2-0.4,0.4l-0.3,1H-10l-0.3-1c-0.1-0.2-0.2-0.4-0.4-0.4c0,0,0,0,0,0c-0.2-0.1-0.4,0-0.6,0.2l-0.7,0.8l-1.3-0.7
			l0.3-1c0.1-0.2,0-0.4-0.2-0.6v0c-0.2-0.2-0.4-0.2-0.6-0.1l-1,0.3l-0.7-1.3l0.8-0.7c0.2-0.2,0.2-0.4,0.2-0.6c0,0,0,0,0,0
			c-0.1-0.2-0.2-0.4-0.4-0.4l-1-0.3v-1.5l1-0.3c0.2-0.1,0.4-0.2,0.4-0.4c0,0,0,0,0,0c0.1-0.2,0-0.4-0.2-0.6l-0.8-0.7l0.7-1.3l1,0.3
			c0.2,0.1,0.4,0,0.6-0.2c0,0,0,0,0,0c0.2-0.2,0.2-0.4,0.1-0.6l-0.3-1l1.3-0.7l0.7,0.8c0.2,0.2,0.4,0.2,0.6,0.2c0,0,0,0,0,0
			c0.2-0.1,0.4-0.2,0.4-0.4l0.3-1h1.5l0.3,1c0.1,0.2,0.2,0.4,0.4,0.4c0,0,0,0,0,0c0.2,0.1,0.4,0,0.6-0.2l0.7-0.8l1.3,0.7l-0.3,1
			c-0.1,0.2,0,0.4,0.2,0.6l0,0c0.2,0.2,0.4,0.2,0.6,0.2l1-0.3l0.7,1.3l-0.8,0.7c-0.2,0.2-0.2,0.4-0.2,0.6c0,0,0,0,0,0
			c0.1,0.2,0.2,0.4,0.4,0.4C-3.5,964.2-2.5,964.4-2.5,964.4z M-9.3,962.5c-1.5,0-2.7,1.2-2.7,2.7c0,1.5,1.2,2.7,2.7,2.7
			c1.5,0,2.7-1.2,2.7-2.7C-6.6,963.7-7.8,962.5-9.3,962.5"/>
	</g>
</g>
<path class="st1" d="M31.4,26.4H12.6c-3.5,0-6.3,2.8-6.3,6.3h0v0c-3.5,0-6.3,2.8-6.3,6.3v18.8c0,3.5,2.8,6.3,6.3,6.3h18.8
	c3.5,0,6.3-2.8,6.3-6.3c3.5,0,6.3-2.8,6.3-6.3V32.7C37.7,29.2,34.9,26.4,31.4,26.4"/>
<g>
	<path class="st2" d="M10.8,48.4c0,1.3-0.2,2.2-0.7,2.8c-0.4,0.6-1,0.8-1.8,0.8c-0.8,0-1.4-0.3-1.9-0.9c-0.5-0.6-0.7-1.6-0.7-2.8
		V37.1H3.5v11.2c0,1.8,0.4,3.3,1.2,4.3c0.8,1.1,2.1,1.6,3.6,1.6c2.2,0,4.8-1,4.8-5.9V37.1h-2.3V48.4z"/>
	<path class="st2" d="M21.1,38.9c0.7,0,1.4,0.2,2,0.5l0.5,0.3l1.1-1.9l-0.5-0.3c-0.9-0.5-1.9-0.7-3-0.7c-1.9,0-3.4,0.8-4.5,2.4
		c-1,1.5-1.6,3.6-1.6,6.2c0,1.7,0.2,3.3,0.7,4.6c0.5,1.3,1.2,2.3,2.1,3.1c0.9,0.7,2,1.1,3.2,1.1c1.1,0,2-0.2,2.7-0.5l0.3-0.2v-2.2
		l-0.8,0.4C22.7,51.9,22,52,21.2,52c-0.7,0-1.4-0.2-2-0.7c-0.6-0.5-1-1.3-1.4-2.2c-0.3-1-0.5-2.2-0.5-3.6c0-2.1,0.4-3.8,1.1-4.9
		C19.1,39.5,20,38.9,21.1,38.9z"/>
	<path class="st2" d="M33.6,46.4c-0.6-0.8-1.5-1.4-2.8-2c-1.3-0.6-1.9-1.1-2.1-1.4c-0.3-0.4-0.5-1-0.5-1.7c0-0.7,0.2-1.3,0.6-1.7
		c0.4-0.4,1-0.6,1.7-0.6c0.8,0,1.6,0.2,2.4,0.6l0.5,0.2l0.9-2L34,37.6c-0.4-0.2-0.8-0.3-1.4-0.5c-0.6-0.1-1.3-0.2-2-0.2
		c-0.8,0-1.6,0.2-2.3,0.6c-0.7,0.4-1.3,0.9-1.7,1.6c-0.4,0.7-0.6,1.5-0.6,2.3c0,0.8,0.1,1.5,0.4,2c0.2,0.6,0.6,1.1,1.1,1.5
		c0.5,0.4,1.2,0.8,2.1,1.3c1.3,0.6,1.9,1.1,2.1,1.4c0.3,0.4,0.5,1,0.5,1.7c0,0.8-0.2,1.4-0.7,2c-0.5,0.5-1,0.7-1.8,0.7
		c-0.6,0-1.1-0.1-1.7-0.2c-0.6-0.1-1-0.3-1.4-0.4L25.9,51v2.4l0.3,0.1c0.9,0.4,2.1,0.6,3.6,0.6c1.4,0,2.5-0.5,3.4-1.4
		c0.9-0.9,1.3-2.1,1.3-3.5C34.5,48.2,34.2,47.2,33.6,46.4z"/>
</g>
</svg>
