<svg xmlns="http://www.w3.org/2000/svg" viewBox="0 0 150 150"><defs><style>.a{fill:#fff;}</style></defs><path class="a" d="M86.25488,112.83789a.96185.96185,0,0,0-.64941-.8916,6.46062,6.46062,0,0,1-3.15625-9.71875.96206.96206,0,0,0-.001-1.10352,6.46,6.46,0,0,1,3.15821-9.71777.96256.96256,0,0,0,.64843-.89258,6.459,6.459,0,0,1,8.26758-6.00586.959.959,0,0,0,1.04785-.34082,6.46133,6.46133,0,0,1,10.21973,0,.95245.95245,0,0,0,.89069.36267V38.67688a3.00879,3.00879,0,0,0-3-3H46.31927a3.00879,3.00879,0,0,0-3,3v72.64624a3.00879,3.00879,0,0,0,3,3H86.47968A6.45038,6.45038,0,0,1,86.25488,112.83789Zm-29.791-62.33935H93.53613a1.5,1.5,0,0,1,0,3H56.46387a1.5,1.5,0,0,1,0-3Zm0,10.00048H93.53613a1.5,1.5,0,0,1,0,3H56.46387a1.5,1.5,0,0,1,0-3Zm0,10.001H93.53613a1.5,1.5,0,1,1,0,3H56.46387a1.5,1.5,0,1,1,0-3ZM75,83.5H56.46387a1.5,1.5,0,1,1,0-3H75a1.5,1.5,0,0,1,0,3Z"/><path class="a" d="M116.43262,103.916a3.95615,3.95615,0,0,1-.001-4.4795l.001-.001a3.46079,3.46079,0,0,0-1.69141-5.20508,3.9568,3.9568,0,0,1-2.63379-3.625,3.4616,3.4616,0,0,0-4.42871-3.21777,3.951,3.951,0,0,1-4.26172-1.38477,3.46045,3.46045,0,0,0-5.47363,0,3.96349,3.96349,0,0,1-4.26172,1.38477,3.46069,3.46069,0,0,0-4.42871,3.21777,3.95571,3.95571,0,0,1-2.63477,3.625,3.46074,3.46074,0,0,0-1.69043,5.20508,3.95944,3.95944,0,0,1,.001,4.48047,3.46088,3.46088,0,0,0,1.68945,5.206,3.95771,3.95771,0,0,1,2.63477,3.625,3.4591,3.4591,0,0,0,2.98926,3.32422l1.29492.17871v12.60254a1.13384,1.13384,0,0,0,1.72754.96582l4.5498-2.80176a1.62036,1.62036,0,0,1,1.73438.002l4.54687,2.79981a1.13384,1.13384,0,0,0,1.72754-.96582V116.25l1.29492-.17871a3.46088,3.46088,0,0,0,2.99024-3.32422,3.9541,3.9541,0,0,1,2.63281-3.625,3.45955,3.45955,0,0,0,1.69141-5.206Zm-15.752,8.11816a9.47364,9.47364,0,1,1,9.47364-9.47363A9.48476,9.48476,0,0,1,100.68066,112.03418Z"/><path class="a" d="M100.68066,96.08691a6.47364,6.47364,0,1,0,6.47364,6.47364A6.48148,6.48148,0,0,0,100.68066,96.08691Zm-.0003,9.87464a3.40107,3.40107,0,1,1,3.40106-3.40106A3.40106,3.40106,0,0,1,100.68036,105.96155Z"/></svg>