<svg xmlns="http://www.w3.org/2000/svg" viewBox="0 0 150 150"><defs><style>.a{fill:#fff;}</style></defs><path class="a" d="M52.413,89.42651a26.59055,26.59055,0,0,0,3.63422,4.52143l.00159.00055.007-.01172a26.68142,26.68142,0,0,0,7.37512,5.23382,32.736,32.736,0,0,1-4.84162-9.74408Z"/><path class="a" d="M65.41534,94.74579a20.68071,20.68071,0,0,0,2.74128,3.64532A14.17655,14.17655,0,0,0,69.936,99.97089c.07154.05261.143.10583.21479.15612l.00744-.00494a9.40041,9.40041,0,0,0,2.771,1.36908L72.93658,89.429H62.94122A29.65975,29.65975,0,0,0,65.41534,94.74579Z"/><path class="a" d="M84.58966,55.24921A17.66151,17.66151,0,0,0,79.85419,49.868a9.33589,9.33589,0,0,0-2.78333-1.37311V60.5636h9.99286A29.71751,29.71751,0,0,0,84.58966,55.24921Z"/><path class="a" d="M61.73138,85.30219H72.9292l.00738-8.24128H60.61816A44.39883,44.39883,0,0,0,61.73138,85.30219Z"/><path class="a" d="M56.48132,77.06091H48.28558a26.52818,26.52818,0,0,0,1.97834,8.23383h7.2323A49.25064,49.25064,0,0,1,56.48132,77.06091Z"/><path class="a" d="M72.9292,60.5636V48.49493A9.33551,9.33551,0,0,0,70.14581,49.868a17.66059,17.66059,0,0,0-4.73541,5.38117,29.7136,29.7136,0,0,0-2.47412,5.31439Z"/><path class="a" d="M63.43854,50.81317a27.11283,27.11283,0,0,0-11.037,9.75537h6.18524A32.70952,32.70952,0,0,1,63.43854,50.81317Z"/><path class="a" d="M57.50562,64.69043H50.25153a26.40925,26.40925,0,0,0-1.97187,8.24371h8.20911A49.31163,49.31163,0,0,1,57.50562,64.69043Z"/><path class="a" d="M60.60815,72.93414h12.321V64.69043H61.719A44.42247,44.42247,0,0,0,60.60815,72.93414Z"/><path class="a" d="M92.50378,85.29474h7.23237a26.53182,26.53182,0,0,0,1.97833-8.23383h-8.1958A49.24437,49.24437,0,0,1,92.50378,85.29474Z"/><path class="a" d="M86.56152,50.81317a32.70993,32.70993,0,0,1,4.85169,9.75537h6.1853a27.114,27.114,0,0,0-11.037-9.75537Z"/><path class="a" d="M93.51123,72.93414h8.20911a26.40758,26.40758,0,0,0-1.97187-8.24371H92.49438A49.31163,49.31163,0,0,1,93.51123,72.93414Z"/><path class="a" d="M75.00012,28.0202a46.05424,46.05424,0,0,0-25.38745,84.481v19.47919L65.12341,119.061A46.05621,46.05621,0,1,0,75.00012,28.0202ZM92.2912,100.64459q-.30845.20838-.62219.40955a30.75985,30.75985,0,0,1-14.28949,4.782q-1.178.08963-2.37952.09021a31.11483,31.11483,0,0,1-5.47443-.48309q-1.1423-.204-2.25451-.4906-.37061-.09531-.73749-.19953-1.10074-.31265-2.16705-.70343-1.421-.52029-2.77436-1.173a30.908,30.908,0,0,1-4.495-2.65607q-.60636-.4312-1.19068-.89044-.58419-.459-1.14544-.94531A31.11063,31.11063,0,0,1,51.61517,95.239q-.486-.56112-.94531-1.14544A30.99427,30.99427,0,0,1,48.551,91.03638q-.58119-.95646-1.094-1.95716A30.93784,30.93784,0,0,1,75,44.07367h.00006A30.92878,30.92878,0,0,1,92.2912,100.64459Z"/><path class="a" d="M86.56915,99.17059a26.6801,26.6801,0,0,0,7.37506-5.23382l.007.01172.00159-.00055A26.58763,26.58763,0,0,0,97.587,89.42651H91.41077A32.74121,32.74121,0,0,1,86.56915,99.17059Z"/><path class="a" d="M88.26862,85.30219a44.38873,44.38873,0,0,0,1.11322-8.24128H77.06342l.00744,8.24128Z"/><path class="a" d="M77.06342,89.429l.00744,12.06219a9.40113,9.40113,0,0,0,2.771-1.36908l.00738.00494c.07343-.05145.14655-.10583.21973-.15972a14.17968,14.17968,0,0,0,1.77179-1.57337,20.6764,20.6764,0,0,0,2.744-3.64813A29.6595,29.6595,0,0,0,87.05878,89.429Z"/><path class="a" d="M88.281,64.69043H77.07086v8.24371H89.39191A44.42761,44.42761,0,0,0,88.281,64.69043Z"/></svg>