<svg id="Ebene_1" data-name="Ebene 1" xmlns="http://www.w3.org/2000/svg" viewBox="0 0 400 400"><defs><style>.cls-1{fill:#858480;}</style></defs><title>lan</title><path class="cls-1" d="M387.08,186.65H213.78V133.33h40A13.33,13.33,0,0,0,267.1,120V13.35A13.35,13.35,0,0,0,253.75,0H147.12a13.35,13.35,0,0,0-13.35,13.35V120a13.33,13.33,0,0,0,13.35,13.35h40v53.32H13.78a13.35,13.35,0,0,0,0,26.7H80.45v53.32h-40A13.35,13.35,0,0,0,27.09,280V386.65A13.35,13.35,0,0,0,40.44,400H147.12a13.32,13.32,0,0,0,13.31-13.35V280a13.32,13.32,0,0,0-13.31-13.35h-40V213.35H293.76v53.32h-40A13.32,13.32,0,0,0,240.44,280V386.65A13.32,13.32,0,0,0,253.75,400H360.43a13.33,13.33,0,0,0,13.35-13.35V280a13.33,13.33,0,0,0-13.35-13.35h-40V213.35h66.66a13.35,13.35,0,1,0,0-26.7Zm-226.65-160h80v80h-80ZM133.77,373.34h-80v-80h80Zm213.35,0h-80v-80h80Zm0,0" transform="translate(-0.43)"/></svg>