<?xml version="1.0" encoding="UTF-8" standalone="no"?>
<svg
   xmlns:dc="http://purl.org/dc/elements/1.1/"
   xmlns:cc="http://creativecommons.org/ns#"
   xmlns:rdf="http://www.w3.org/1999/02/22-rdf-syntax-ns#"
   xmlns:svg="http://www.w3.org/2000/svg"
   xmlns="http://www.w3.org/2000/svg"
   xmlns:sodipodi="http://sodipodi.sourceforge.net/DTD/sodipodi-0.dtd"
   xmlns:inkscape="http://www.inkscape.org/namespaces/inkscape"
   id="Ebene_1"
   data-name="Ebene 1"
   viewBox="0 0 400 400"
   version="1.1"
   sodipodi:docname="network-settings.svg"
   inkscape:version="0.92.4 (unknown)">
  <metadata
     id="metadata13">
    <rdf:RDF>
      <cc:Work
         rdf:about="">
        <dc:format>image/svg+xml</dc:format>
        <dc:type
           rdf:resource="http://purl.org/dc/dcmitype/StillImage" />
      </cc:Work>
    </rdf:RDF>
  </metadata>
  <sodipodi:namedview
     pagecolor="#ffffff"
     bordercolor="#666666"
     borderopacity="1"
     objecttolerance="10"
     gridtolerance="10"
     guidetolerance="10"
     inkscape:pageopacity="0"
     inkscape:pageshadow="2"
     inkscape:window-width="1916"
     inkscape:window-height="1005"
     id="namedview11"
     showgrid="false"
     inkscape:zoom="0.59"
     inkscape:cx="-229.66102"
     inkscape:cy="200"
     inkscape:window-x="0"
     inkscape:window-y="73"
     inkscape:window-maximized="0"
     inkscape:current-layer="Ebene_1" />
  <defs
     id="defs4">
    <style
       id="style2">.cls-1{fill:#858480;}</style>
  </defs>
  <title
     id="title6">lan</title>
  <path
     class="cls-1"
     d="M387.08,186.65H213.78V133.33h40A13.33,13.33,0,0,0,267.1,120V13.35A13.35,13.35,0,0,0,253.75,0H147.12a13.35,13.35,0,0,0-13.35,13.35V120a13.33,13.33,0,0,0,13.35,13.35h40v53.32H13.78a13.35,13.35,0,0,0,0,26.7H80.45v53.32h-40A13.35,13.35,0,0,0,27.09,280V386.65A13.35,13.35,0,0,0,40.44,400H147.12a13.32,13.32,0,0,0,13.31-13.35V280a13.32,13.32,0,0,0-13.31-13.35h-40V213.35H293.76v53.32h-40A13.32,13.32,0,0,0,240.44,280V386.65A13.32,13.32,0,0,0,253.75,400H360.43a13.33,13.33,0,0,0,13.35-13.35V280a13.33,13.33,0,0,0-13.35-13.35h-40V213.35h66.66a13.35,13.35,0,1,0,0-26.7Zm-226.65-160h80v80h-80ZM133.77,373.34h-80v-80h80Zm213.35,0h-80v-80h80Zm0,0"
     transform="translate(-0.43)"
     id="path8"
     style="fill:#ffffff;fill-opacity:1" />
</svg>
