<svg xmlns="http://www.w3.org/2000/svg" viewBox="0 0 150 150"><defs><style>.a{fill:#fff;}</style></defs><circle class="a" cx="75.00653" cy="57.71001" r="4.88291"/><path class="a" d="M94.15271,30.24561H55.22644a8.02353,8.02353,0,0,0-8,8v38.9262a8.02353,8.02353,0,0,0,8,8H94.15271a8.02353,8.02353,0,0,0,8-8V38.24561A8.02353,8.02353,0,0,0,94.15271,30.24561ZM92.085,60.16058l-5.34649.89063a12.16055,12.16055,0,0,1-1.08332,2.60425L88.80627,68.067,85.35309,71.5202l-4.41156-3.15112a12.13739,12.13739,0,0,1-2.60419,1.08337l-.89068,5.34644H72.56378L71.6601,69.442a12.10655,12.10655,0,0,1-2.60425-1.08338l-4.4115,3.15113-3.45062-3.45319L64.34485,63.645a12.02979,12.02979,0,0,1-1.08338-2.60425L57.915,60.15015V55.26721l5.34643-.901A12.02979,12.02979,0,0,1,64.34485,51.762L61.19373,47.3504l3.46362-3.45318,4.41156,3.15112A12.08487,12.08487,0,0,1,71.6731,45.965l.89068-5.3465h4.88288l.90106,5.3465A12.02647,12.02647,0,0,1,80.952,47.04834l4.41156-3.15112,3.45318,3.45318L85.66559,51.762a12.02867,12.02867,0,0,1,1.07294,2.61463l5.34649.89062Z"/><path class="a" d="M106.65088,109.93945H81.49353a7.614,7.614,0,0,0-4.077-4.26764V88.72266h-6v16.94915a7.61393,7.61393,0,0,0-4.077,4.26764H43.34912a3,3,0,0,0,0,6H67.60925a7.56218,7.56218,0,0,0,13.6145,0h25.42713a3,3,0,0,0,0-6ZM74.4165,117.208a4.57911,4.57911,0,1,1,4.57911-4.5791A4.5839,4.5839,0,0,1,74.4165,117.208Z"/></svg>