/* XPM */
static char * ooo_math_xpm[] = {
"32 32 450 2",
"  	c None",
". 	c #5889C8",
"+ 	c #5587C8",
"@ 	c #5285C7",
"# 	c #5788C8",
"$ 	c #83A8D6",
"% 	c #93B5DD",
"& 	c #BDD1EA",
"* 	c #D3E1F1",
"= 	c #D8E6F5",
"- 	c #DAE7F6",
"; 	c #D8E5F4",
"> 	c #CDDDEF",
", 	c #B5CBE7",
"' 	c #84AAD8",
") 	c #8BAED9",
"! 	c #7EA4D5",
"~ 	c #B3CBE8",
"{ 	c #D9E3F1",
"] 	c #E9EFF6",
"^ 	c #EBEFF6",
"/ 	c #EEF1F6",
"( 	c #F0F2F7",
"_ 	c #F1F3F7",
": 	c #EFF2F7",
"< 	c #EDF0F6",
"[ 	c #EAEEF6",
"} 	c #E6ECF5",
"| 	c #D1DEEF",
"1 	c #9FBDE2",
"2 	c #6D98CF",
"3 	c #6B97CF",
"4 	c #ACC6E5",
"5 	c #DCE6F3",
"6 	c #E8EDF5",
"7 	c #ECEFF6",
"8 	c #EBEFF5",
"9 	c #EAEFF5",
"0 	c #EAEEF5",
"a 	c #E1E9F3",
"b 	c #D7E4F2",
"c 	c #89ADDA",
"d 	c #6492CC",
"e 	c #729BD0",
"f 	c #B0C8E5",
"g 	c #D1DDED",
"h 	c #E4EAF2",
"i 	c #E9EEF5",
"j 	c #E9EDF4",
"k 	c #DFE5F0",
"l 	c #C4D1E4",
"m 	c #D6DEEC",
"n 	c #E8ECF4",
"o 	c #E7ECF4",
"p 	c #E5EAF3",
"q 	c #D1DFF0",
"r 	c #A6C2E2",
"s 	c #6D97CE",
"t 	c #C8D9EC",
"u 	c #C3D1E4",
"v 	c #93ACCE",
"w 	c #678AB9",
"x 	c #6A8DBB",
"y 	c #99B0D0",
"z 	c #CCD6E6",
"A 	c #D0DAE8",
"B 	c #A2B7D4",
"C 	c #6C8EBC",
"D 	c #7293BF",
"E 	c #BACADF",
"F 	c #EDF0F5",
"G 	c #EDEFF5",
"H 	c #ECEFF5",
"I 	c #ECEEF5",
"J 	c #ECEEF4",
"K 	c #EBEEF4",
"L 	c #DFE7F3",
"M 	c #A9C2E3",
"N 	c #6591CC",
"O 	c #AEC6E4",
"P 	c #DFE4EE",
"Q 	c #A9BAD3",
"R 	c #597FB1",
"S 	c #4C77AF",
"T 	c #517BB1",
"U 	c #4B75AC",
"V 	c #9AAFCC",
"W 	c #E1E5EE",
"X 	c #EBEEF5",
"Y 	c #EBEDF4",
"Z 	c #E9ECF3",
"` 	c #DBE4F2",
" .	c #90B0D9",
"..	c #97B5DB",
"+.	c #DDE5F1",
"@.	c #E6EBF3",
"#.	c #E7EBF3",
"$.	c #DFE3EC",
"%.	c #7C98BE",
"&.	c #6788B3",
"*.	c #CAD2DF",
"=.	c #E5E9F2",
"-.	c #E6EAF3",
";.	c #E4E9F2",
">.	c #E3E8F2",
",.	c #E2E8F2",
"'.	c #E1E7F1",
").	c #D8E3F2",
"!.	c #729ACE",
"~.	c #5887C4",
"{.	c #D2DFEF",
"].	c #E5EAF2",
"^.	c #E6EAF2",
"/.	c #D9E0EA",
"(.	c #D2D9E4",
"_.	c #E3E7EF",
":.	c #D5D9E2",
"<.	c #D3D8E0",
"[.	c #E3E8F0",
"}.	c #E5E9F3",
"|.	c #E2E7F1",
"1.	c #DDE4F0",
"2.	c #A6C1E1",
"3.	c #323D47",
"4.	c #4B5662",
"5.	c #5E6467",
"6.	c #828588",
"7.	c #B9BBBF",
"8.	c #D6D9DE",
"9.	c #EAEDF3",
"0.	c #E4E7ED",
"a.	c #CBCDD2",
"b.	c #9B9EA2",
"c.	c #6D7174",
"d.	c #5B6165",
"e.	c #878D92",
"f.	c #D6D9E0",
"g.	c #EAECF4",
"h.	c #E9EBF3",
"i.	c #E7EAF2",
"j.	c #E2E6F0",
"k.	c #DCE1ED",
"l.	c #D8DDEA",
"m.	c #CEDAED",
"n.	c #749BCD",
"o.	c #9FB2C9",
"p.	c #9A9CA0",
"q.	c #515658",
"r.	c #393F42",
"s.	c #555B5F",
"t.	c #90969A",
"u.	c #B0B4BA",
"v.	c #6E7378",
"w.	c #494F53",
"x.	c #373C3F",
"y.	c #74777B",
"z.	c #CBCDD3",
"A.	c #E8EAF1",
"B.	c #E6E8F2",
"C.	c #DFE2ED",
"D.	c #D9DDEB",
"E.	c #D4D9E8",
"F.	c #D3D9E8",
"G.	c #D7DFEC",
"H.	c #8EAED6",
"I.	c #8FADD6",
"J.	c #D3DEEE",
"K.	c #DDE2EB",
"L.	c #8E9297",
"M.	c #4C5153",
"N.	c #2E3436",
"O.	c #32383A",
"P.	c #555A5D",
"Q.	c #B3B7BD",
"R.	c #DEE1EA",
"S.	c #E6E9F2",
"T.	c #E4E8F2",
"U.	c #E1E6F0",
"V.	c #D6DCEC",
"W.	c #CFD7E8",
"X.	c #CCD5E7",
"Y.	c #CCD4E6",
"Z.	c #CAD3E6",
"`.	c #C9D2E6",
" +	c #CCD6E8",
".+	c #C4D4E9",
"++	c #7CA0CE",
"@+	c #E1E6EF",
"#+	c #DEE3EC",
"$+	c #BDC3CC",
"%+	c #51565A",
"&+	c #2F3537",
"*+	c #787D83",
"=+	c #C1C5CD",
"-+	c #E2E6EE",
";+	c #DDE2EE",
">+	c #D5DCEB",
",+	c #D2D8E9",
"'+	c #D1D8E9",
")+	c #CFD6E8",
"!+	c #CED6E7",
"~+	c #CBD4E6",
"{+	c #D5E0EF",
"]+	c #4D7DBC",
"^+	c #7B9FCD",
"/+	c #E5E8F0",
"(+	c #E6E8F1",
"_+	c #E6E9F1",
":+	c #E7E9F1",
"<+	c #D9DCE3",
"[+	c #C0C3CA",
"}+	c #E5E7EF",
"|+	c #E9EAF3",
"1+	c #EAEBF4",
"2+	c #EAECF3",
"3+	c #E8E9F3",
"4+	c #E1E4F0",
"5+	c #DDE0ED",
"6+	c #DCDFED",
"7+	c #DCDEED",
"8+	c #DBDEEC",
"9+	c #DADDEB",
"0+	c #D8DCEA",
"a+	c #D7DBE9",
"b+	c #D6DBE9",
"c+	c #E1E8F3",
"d+	c #4678B7",
"e+	c #7A9ECC",
"f+	c #E4E7F0",
"g+	c #E6E8F0",
"h+	c #E8EAF2",
"i+	c #E9EBF4",
"j+	c #E1E3EF",
"k+	c #DEE0EE",
"l+	c #DDE0EE",
"m+	c #DBDFED",
"n+	c #DADEEC",
"o+	c #E3EAF5",
"p+	c #4274B5",
"q+	c #7D9FCC",
"r+	c #DEE3EE",
"s+	c #E0E4EF",
"t+	c #E1E5F0",
"u+	c #E3E7F0",
"v+	c #E4E7F1",
"w+	c #E5E8F1",
"x+	c #E6E8F3",
"y+	c #D9DFEF",
"z+	c #ACC4E3",
"A+	c #B3C9E3",
"B+	c #B8CBE4",
"C+	c #B7CBE4",
"D+	c #B6CBE4",
"E+	c #B3C7E3",
"F+	c #D7E3F1",
"G+	c #4676B6",
"H+	c #7B9DCA",
"I+	c #E0E6F1",
"J+	c #DDE2ED",
"K+	c #DEE2EE",
"L+	c #DFE3EE",
"M+	c #E0E4EE",
"N+	c #E1E4EF",
"O+	c #E2E5EF",
"P+	c #E3E6F0",
"Q+	c #E5E7F1",
"R+	c #E2E4F0",
"S+	c #DFE1EE",
"T+	c #CAD5EB",
"U+	c #C8D6E6",
"V+	c #D4DDE8",
"W+	c #BACDE4",
"X+	c #BBCDE4",
"Y+	c #BCCEE4",
"Z+	c #B3C8E3",
"`+	c #D0DCEE",
" @	c #4A79B6",
".@	c #6B92C3",
"+@	c #D5DDEC",
"@@	c #E2E4EE",
"#@	c #E2E5EE",
"$@	c #E3E5EF",
"%@	c #E4E6EF",
"&@	c #E4E6F0",
"*@	c #E5E7F0",
"=@	c #E7E8F1",
"-@	c #E7E8F2",
";@	c #E6E7F1",
">@	c #E3E4EF",
",@	c #E2E3EF",
"'@	c #E3E4F0",
")@	c #E3E4F1",
"!@	c #C4D2E9",
"~@	c #CEDAE7",
"{@	c #B9CCE5",
"]@	c #D6DCED",
"^@	c #DDDFEE",
"/@	c #DBDEED",
"(@	c #DADEED",
"_@	c #D8DDEB",
":@	c #D6DBEB",
"<@	c #D6DBEA",
"[@	c #BBCBE3",
"}@	c #BCCDE3",
"|@	c #E1E4EE",
"1@	c #E3E5EE",
"2@	c #E3E6EF",
"3@	c #E5E6F0",
"4@	c #E6E7F0",
"5@	c #E4E5EF",
"6@	c #E3E3EF",
"7@	c #E4E5F1",
"8@	c #DDE1F0",
"9@	c #BBCDE6",
"0@	c #CDD9E7",
"a@	c #B9CBE4",
"b@	c #DFE1EF",
"c@	c #DCDFEC",
"d@	c #DADDEC",
"e@	c #E0E5F0",
"f@	c #88A6CE",
"g@	c #86A3CC",
"h@	c #DADFEC",
"i@	c #DBE0EC",
"j@	c #DDE1EC",
"k@	c #DEE1ED",
"l@	c #DEE0ED",
"m@	c #DFE1ED",
"n@	c #E2E3EE",
"o@	c #E4E5F0",
"p@	c #E6E6F1",
"q@	c #E7E7F1",
"r@	c #E7E7F2",
"s@	c #E5E6F2",
"t@	c #B6C9E1",
"u@	c #BECEE2",
"v@	c #B9C9E3",
"w@	c #D8DCEB",
"x@	c #D7DBEB",
"y@	c #D4DAEA",
"z@	c #D2D8EA",
"A@	c #CFDBEB",
"B@	c #6A8EC0",
"C@	c #4976B3",
"D@	c #DDE4EE",
"E@	c #D5DBE9",
"F@	c #D6DAE9",
"G@	c #DADEEB",
"H@	c #DDE0EC",
"I@	c #E1E3EE",
"J@	c #E5E6F1",
"K@	c #E8E8F2",
"L@	c #E8E8F3",
"M@	c #E6E7F2",
"N@	c #E4E6F1",
"O@	c #BECDE5",
"P@	c #BFCEE0",
"Q@	c #ACC0DB",
"R@	c #C7D1E6",
"S@	c #D5DAEA",
"T@	c #A9BDDA",
"U@	c #84A2CB",
"V@	c #D8DBE8",
"W@	c #DBDDEA",
"X@	c #DDDFEB",
"Y@	c #E0E1ED",
"Z@	c #E9E9F3",
"`@	c #E8E9F2",
" #	c #E1E3F0",
".#	c #ABBFDC",
"+#	c #C0CEDF",
"@#	c #A1B8D7",
"##	c #D7DBEA",
"$#	c #DBE2EE",
"%#	c #AABDD9",
"&#	c #E0E2EC",
"*#	c #EAEBF3",
"=#	c #BBCAE2",
"-#	c #AEC1D9",
";#	c #9DB5D3",
">#	c #CDD5E7",
",#	c #E2E7F2",
"'#	c #82A0C9",
")#	c #BAC9DF",
"!#	c #DFE4EF",
"~#	c #DEE2ED",
"{#	c #E2E5F0",
"]#	c #C9D3E6",
"^#	c #95AED0",
"/#	c #B6C6D9",
"(#	c #A7BBD8",
"_#	c #D8DEEC",
":#	c #8BA6CB",
"<#	c #5B82B6",
"[#	c #AEC0DA",
"}#	c #EBEDF3",
"|#	c #D7DCE9",
"1#	c #DBDFEC",
"2#	c #DCE0ED",
"3#	c #DFE2EE",
"4#	c #DFE3EF",
"5#	c #DFE2EF",
"6#	c #9BB2D3",
"7#	c #8DA8CC",
"8#	c #CFD8E8",
"9#	c #8FA9CC",
"0#	c #7C98BD",
"a#	c #D4DCEA",
"b#	c #EAEBF2",
"c#	c #E1E3ED",
"d#	c #DCDEEB",
"e#	c #DEE0EC",
"f#	c #ABBCD9",
"g#	c #A0B6D1",
"h#	c #90A9CB",
"i#	c #D5DDEB",
"j#	c #C7D3E5",
"k#	c #567AAA",
"l#	c #5C7EAC",
"m#	c #95ADCF",
"n#	c #DCE3EE",
"o#	c #E0E3ED",
"p#	c #DDDFEC",
"q#	c #C4CFE2",
"r#	c #8BA6CA",
"s#	c #A5B9D2",
"t#	c #90AACC",
"u#	c #7594BD",
"v#	c #5379AB",
"w#	c #376298",
"x#	c #6687B2",
"y#	c #95AAC6",
"z#	c #B6C5DB",
"A#	c #BACAE0",
"B#	c #BBCBE1",
"C#	c #BBCAE0",
"D#	c #87A4C8",
"E#	c #ABBDD3",
"F#	c #4471AA",
"G#	c #345F96",
"H#	c #3967A3",
"I#	c #B0C1D5",
"J#	c #CFD7E0",
"K#	c #B2C2D5",
"L#	c #B1C1D4",
"M#	c #B0C1D4",
"N#	c #B0C0D4",
"O#	c #829FC2",
"P#	c #32629F",
"Q#	c #3465A4",
"                                                                ",
"                            . + @ + #                           ",
"                      $ % & * = - ; > , ' )                     ",
"                  ! ~ { ] ^ / ( _ : < [ } | 1 2                 ",
"              3 4 5 6 7 7 7 ^ ^ ^ 8 9 0 0 0 a b c d             ",
"            e f g h 0 0 0 i j j k l m n n n o p q r             ",
"          s t u v w x y z A B C D E F G H I J J K L M N         ",
"          O n H J P Q R S T U V W I G H I X Y Y Y Z `  .        ",
"        ..+.@.@.#.#.#.$.%.&.*.=.@.@.-.-.p p ;.;.>.,.'.).!.      ",
"      ~.{.>.].^.^.-.-.@./.(._.:.<.[.-.}.}.=.;.>.>.|.'.1.2.      ",
"    3.4.5.6.7.8.9.Y 0.a.b.c.d.e.f.Y Y Y g.h.Z h.i.j.k.l.m.n.    ",
"      o.p.q.r.s.t.u.v.w.x.y.z.A.g.g.g.g.g.h.h.B.C.D.E.F.G.H.    ",
"    I.J.j.K.L.M.N.N.O.P.Q.R.S.=.=.S.=.T.T.U.V.W.X.Y.Z.`. +.+    ",
"    +++.@+U.#+$+%+&+*+=+-+S.S.=.=.S.}.=.;+>+,+'+)+!+Y.~+~+{+]+  ",
"    ^+@./+(+_+:+<+[+}+|+h.h.1+g.2+1+3+4+5+6+7+8+9+D.0+a+b+c+d+  ",
"    e+@.f+/+g+(+:+:+h+h+h+h.h.i+h.3+j+k+l+l+6+m+n+D.0+a+b+o+p+  ",
"    q+'.r+r+s+s+t+j.u+v+w+w+x+x+y+z+A+B+C+C+C+C+C+D+D+D+E+F+G+  ",
"    H+I+J+K+L+M+N+O+P+v+Q+B.B.R+S+T+U+V+W+X+Y+Y+Y+Y+Y+Y+Z+`+ @  ",
"    .@+@@@#@$@%@&@*@(+=@-@;@>@,@'@)@!@~@{@]@^@/@(@_@:@<@k.[@    ",
"      }@@@|@@@1@2@3@3@4@5@,@6@'@7@7@8@9@0@a@b@k+5+c@d@D.e@f@    ",
"      g@^.h@i@j@5+k@k@l@m@n@o@p@q@r@s@y+t@u@v@w@x@y@z@'+A@B@    ",
"      C@D@h@E@b+F@0+G@H@I@>@J@=@K@L@M@N@O@P@Q@R@:@S@,+r+T@      ",
"        U@P+V@V@W@X@Y@I@o@3@-@3+|+Z@`@-@ #.#+#@###8+j+$#        ",
"          %#P+V@W@X@&#n@o@4@`@|+*#|+`@-@Q+=#-#;#>#8+,#'#        ",
"            )#!#E.b+D.c@~#|@{#N@Q+v+{#4+]#^#/#(#_#>.:#          ",
"            <#[#}#|#b+0+1#2#K+3#4#5#K+K+6#/#7#8##.9#            ",
"                0#a#b#c#d#H@e#m@C.C.H@f#g#h#i#j#k#              ",
"                  l#m#n#X f+o#e#p#m@q#r#s#t#u#v#                ",
"                      w#x#y#z#A#B#C#D#E#F#G#                    ",
"                                  H#I#J#K#L#M#N#N#N#N#N#O#      ",
"                                  P#Q#Q#Q#Q#Q#Q#Q#Q#Q#Q#Q#      ",
"                                                                "};
