/* XPM */
static char * ooo_draw_xpm[] = {
"32 32 491 2",
"  	c None",
". 	c #5889C8",
"+ 	c #5587C8",
"@ 	c #5285C7",
"# 	c #5788C8",
"$ 	c #83A8D6",
"% 	c #93B5DD",
"& 	c #BDD1EA",
"* 	c #D3E1F1",
"= 	c #D8E6F5",
"- 	c #DAE7F6",
"; 	c #D8E5F4",
"> 	c #CDDDEF",
", 	c #B5CBE7",
"' 	c #84AAD8",
") 	c #8BAED9",
"! 	c #7EA4D5",
"~ 	c #B3CBE8",
"{ 	c #D9E3F1",
"] 	c #E9EFF6",
"^ 	c #EBEFF6",
"/ 	c #EEF1F6",
"( 	c #F0F2F7",
"_ 	c #F1F3F7",
": 	c #EFF2F7",
"< 	c #EDF0F6",
"[ 	c #EAEEF6",
"} 	c #E6ECF5",
"| 	c #D1DEEF",
"1 	c #9FBDE2",
"2 	c #6D98CF",
"3 	c #6B97CF",
"4 	c #ACC6E5",
"5 	c #DCE6F3",
"6 	c #E8EDF5",
"7 	c #ECEFF6",
"8 	c #EBEFF5",
"9 	c #EAEFF5",
"0 	c #EAEEF5",
"a 	c #E1E9F3",
"b 	c #D7E4F2",
"c 	c #89ADDA",
"d 	c #6492CC",
"e 	c #729BD0",
"f 	c #B0C8E5",
"g 	c #D1DDED",
"h 	c #E4EAF2",
"i 	c #E9EEF5",
"j 	c #E9EDF4",
"k 	c #DFE5F0",
"l 	c #C4D1E4",
"m 	c #D6DEEC",
"n 	c #E8ECF4",
"o 	c #E7ECF4",
"p 	c #E5EAF3",
"q 	c #D1DFF0",
"r 	c #A6C2E2",
"s 	c #6D97CE",
"t 	c #C8D9EC",
"u 	c #C3D1E4",
"v 	c #93ACCE",
"w 	c #678AB9",
"x 	c #6A8DBB",
"y 	c #99B0D0",
"z 	c #CCD6E6",
"A 	c #D0DAE8",
"B 	c #A2B7D4",
"C 	c #6C8EBC",
"D 	c #7293BF",
"E 	c #BACADF",
"F 	c #EDF0F5",
"G 	c #EDEFF5",
"H 	c #ECEFF5",
"I 	c #ECEEF5",
"J 	c #ECEEF4",
"K 	c #EBEEF4",
"L 	c #DFE7F3",
"M 	c #A9C2E3",
"N 	c #6591CC",
"O 	c #AEC6E4",
"P 	c #DFE4EE",
"Q 	c #A9BAD3",
"R 	c #597FB1",
"S 	c #4C77AF",
"T 	c #517BB1",
"U 	c #4B75AC",
"V 	c #9AAFCC",
"W 	c #E1E5EE",
"X 	c #EBEEF5",
"Y 	c #EBEDF4",
"Z 	c #E9ECF3",
"` 	c #DBE4F2",
" .	c #90B0D9",
"..	c #97B5DB",
"+.	c #DDE5F1",
"@.	c #E6EBF3",
"#.	c #E7EBF3",
"$.	c #DFE3EC",
"%.	c #7C98BE",
"&.	c #6788B3",
"*.	c #CAD2DF",
"=.	c #E5E9F2",
"-.	c #E6EAF3",
";.	c #E4E9F2",
">.	c #E3E8F2",
",.	c #E2E8F2",
"'.	c #E1E7F1",
").	c #D8E3F2",
"!.	c #729ACE",
"~.	c #5887C4",
"{.	c #D2DFEF",
"].	c #E5EAF2",
"^.	c #E6EAF2",
"/.	c #D9E0EA",
"(.	c #D2D9E4",
"_.	c #E3E7EF",
":.	c #D5D9E2",
"<.	c #CFD1D6",
"[.	c #B9A797",
"}.	c #D6D3D4",
"|.	c #E5E9F3",
"1.	c #E2E7F1",
"2.	c #DDE4F0",
"3.	c #A6C1E1",
"4.	c #323D47",
"5.	c #4B5662",
"6.	c #5E6467",
"7.	c #828588",
"8.	c #B9BBBF",
"9.	c #D6D9DE",
"0.	c #EAEDF3",
"a.	c #E4E7ED",
"b.	c #CBCDD2",
"c.	c #9B9EA2",
"d.	c #6D7174",
"e.	c #5B6165",
"f.	c #878D92",
"g.	c #BEB8B4",
"h.	c #986733",
"i.	c #986D40",
"j.	c #DCD8D7",
"k.	c #EAECF4",
"l.	c #E9EBF3",
"m.	c #E7EAF2",
"n.	c #E2E6F0",
"o.	c #DCE1ED",
"p.	c #D8DDEA",
"q.	c #CEDAED",
"r.	c #749BCD",
"s.	c #9FB2C9",
"t.	c #9A9CA0",
"u.	c #515658",
"v.	c #393F42",
"w.	c #555B5F",
"x.	c #90969A",
"y.	c #B0B4BA",
"z.	c #6E7378",
"A.	c #494F53",
"B.	c #373C3F",
"C.	c #74777B",
"D.	c #CBCDD3",
"E.	c #E8EAF1",
"F.	c #E4E3E8",
"G.	c #977451",
"H.	c #B56715",
"I.	c #A98F74",
"J.	c #E6E8F2",
"K.	c #DFE2ED",
"L.	c #D9DDEB",
"M.	c #D4D9E8",
"N.	c #D3D9E8",
"O.	c #D7DFEC",
"P.	c #8EAED6",
"Q.	c #8FADD6",
"R.	c #D3DEEE",
"S.	c #DDE2EB",
"T.	c #8E9297",
"U.	c #4C5153",
"V.	c #2E3436",
"W.	c #32383A",
"X.	c #555A5D",
"Y.	c #B3B7BD",
"Z.	c #DEE1EA",
"`.	c #E6E9F2",
" +	c #B6A595",
".+	c #B26311",
"++	c #A35B10",
"@+	c #BCB2AA",
"#+	c #E1E5EF",
"$+	c #D6DCEC",
"%+	c #CFD7E8",
"&+	c #CCD5E7",
"*+	c #CCD4E6",
"=+	c #CAD3E6",
"-+	c #C9D2E6",
";+	c #CCD6E8",
">+	c #C4D4E9",
",+	c #7CA0CE",
"'+	c #E1E6EF",
")+	c #E1E6F0",
"!+	c #DEE3EC",
"~+	c #BDC3CC",
"{+	c #51565A",
"]+	c #2F3537",
"^+	c #787D83",
"/+	c #C1C5CD",
"(+	c #E2E6EE",
"_+	c #D9D8DD",
":+	c #945412",
"<+	c #D37411",
"[+	c #93673B",
"}+	c #C6C4C9",
"|+	c #D2D8E9",
"1+	c #D1D8E9",
"2+	c #CFD6E8",
"3+	c #CED6E7",
"4+	c #CBD4E6",
"5+	c #D5E0EF",
"6+	c #4D7DBC",
"7+	c #7B9FCD",
"8+	c #E5E8F0",
"9+	c #E6E8F1",
"0+	c #E6E9F1",
"a+	c #E7E9F1",
"b+	c #D9DCE3",
"c+	c #C0C3CA",
"d+	c #E5E7EF",
"e+	c #E9EAF3",
"f+	c #EAEBF4",
"g+	c #EAECF3",
"h+	c #9B754F",
"i+	c #C36C10",
"j+	c #BF6A11",
"k+	c #9C7958",
"l+	c #DADCEA",
"m+	c #DBDEEC",
"n+	c #DADDEB",
"o+	c #D8DCEA",
"p+	c #D7DBE9",
"q+	c #D6DBE9",
"r+	c #E1E8F3",
"s+	c #4678B7",
"t+	c #7A9ECC",
"u+	c #E4E7F0",
"v+	c #E6E8F0",
"w+	c #E8EAF2",
"x+	c #E9EBF4",
"y+	c #E8E9F3",
"z+	c #B4A296",
"A+	c #A25C11",
"B+	c #DA7811",
"C+	c #9D5A13",
"D+	c #B8ACA7",
"E+	c #DBDFED",
"F+	c #DADEEC",
"G+	c #E3EAF5",
"H+	c #4274B5",
"I+	c #7D9FCC",
"J+	c #DEE3EE",
"K+	c #E0E4EF",
"L+	c #E1E5F0",
"M+	c #E3E7F0",
"N+	c #E4E7F1",
"O+	c #E5E8F1",
"P+	c #E6E8F3",
"Q+	c #E2E5F1",
"R+	c #DDE1EE",
"S+	c #CCC9CF",
"T+	c #8E653B",
"U+	c #CF7210",
"V+	c #D67610",
"W+	c #8D6133",
"X+	c #C1BFC4",
"Y+	c #D4DAEB",
"Z+	c #D2D9EA",
"`+	c #D0D7E8",
" @	c #CED6E8",
".@	c #CDD6E7",
"+@	c #E0E8F3",
"@@	c #4676B6",
"#@	c #7B9DCA",
"$@	c #E0E6F1",
"%@	c #DDE2ED",
"&@	c #DEE2EE",
"*@	c #DFE3EE",
"=@	c #E0E4EE",
"-@	c #E1E4EF",
";@	c #E2E5EF",
">@	c #E3E6F0",
",@	c #E5E7F1",
"'@	c #E2E4F0",
")@	c #DFE2EE",
"!@	c #DEE1EF",
"~@	c #DCDEEB",
"{@	c #9A8069",
"]@	c #AF600E",
"^@	c #DE7A12",
"/@	c #AE6111",
"(@	c #A0856D",
"_@	c #D5DAEB",
":@	c #D3DAEA",
"<@	c #D0D8E8",
"[@	c #D2D9E9",
"}@	c #DDE4F1",
"|@	c #4A79B6",
"1@	c #6B92C3",
"2@	c #D5DDEC",
"3@	c #E2E4EE",
"4@	c #E2E5EE",
"5@	c #E3E5EF",
"6@	c #E4E6EF",
"7@	c #E4E6F0",
"8@	c #E5E7F0",
"9@	c #E7E8F1",
"0@	c #E7E8F2",
"a@	c #E6E7F1",
"b@	c #E3E4EF",
"c@	c #E2E3EF",
"d@	c #E3E4F0",
"e@	c #E3E4F1",
"f@	c #E4E4F1",
"g@	c #CFC9CC",
"h@	c #884F12",
"i@	c #C66D10",
"j@	c #D87711",
"k@	c #93530F",
"l@	c #C6BEBE",
"m@	c #DCDFEC",
"n@	c #DADDEC",
"o@	c #BBCBE3",
"p@	c #BCCDE3",
"q@	c #E1E4EE",
"r@	c #E3E5EE",
"s@	c #E3E6EF",
"t@	c #E5E6F0",
"u@	c #E6E7F0",
"v@	c #E4E5EF",
"w@	c #E3E3EF",
"x@	c #E4E5F1",
"y@	c #E4E5F2",
"z@	c #906941",
"A@	c #A85E0F",
"B@	c #DB7911",
"C@	c #C26B10",
"D@	c #94775B",
"E@	c #D5D6E0",
"F@	c #E0E5F0",
"G@	c #88A6CE",
"H@	c #86A3CC",
"I@	c #DADFEC",
"J@	c #DBE0EC",
"K@	c #DDE1EC",
"L@	c #DDE0ED",
"M@	c #DEE1ED",
"N@	c #DEE0ED",
"O@	c #DFE1ED",
"P@	c #E2E3EE",
"Q@	c #E4E5F0",
"R@	c #E6E6F1",
"S@	c #E7E7F1",
"T@	c #E7E7F2",
"U@	c #E5E6F2",
"V@	c #E3E5F1",
"W@	c #BCAFA8",
"X@	c #8A5319",
"Y@	c #C26F18",
"Z@	c #BE7E37",
"`@	c #8D8476",
" #	c #959897",
".#	c #D2D8EA",
"+#	c #CFDBEB",
"@#	c #6A8EC0",
"##	c #4976B3",
"$#	c #DDE4EE",
"%#	c #D5DBE9",
"&#	c #D6DAE9",
"*#	c #DADEEB",
"=#	c #DDE0EC",
"-#	c #E1E3EE",
";#	c #E5E6F1",
">#	c #E8E8F2",
",#	c #E8E8F3",
"'#	c #E6E7F2",
")#	c #E4E6F1",
"!#	c #D8D6DD",
"~#	c #8D6D4C",
"{#	c #998164",
"]#	c #ADA9A1",
"^#	c #BDBEBC",
"/#	c #A4A5A3",
"(#	c #CDD3E2",
"_#	c #A9BDDA",
":#	c #84A2CB",
"<#	c #D8DBE8",
"[#	c #DBDDEA",
"}#	c #DDDFEB",
"|#	c #E0E1ED",
"1#	c #E9E9F3",
"2#	c #E8E9F2",
"3#	c #B9BABF",
"4#	c #959793",
"5#	c #CACACA",
"6#	c #D4D4D4",
"7#	c #C8C8C7",
"8#	c #BDBFC2",
"9#	c #DBE2EE",
"0#	c #AABDD9",
"a#	c #E0E2EC",
"b#	c #EAEBF3",
"c#	c #ACADAE",
"d#	c #ADAEAC",
"e#	c #DADADA",
"f#	c #E5E5E5",
"g#	c #A6AAAB",
"h#	c #7F9CC3",
"i#	c #BAC9DF",
"j#	c #DFE4EF",
"k#	c #DEE2ED",
"l#	c #E2E5F0",
"m#	c #E1E4F0",
"n#	c #D1D4E0",
"o#	c #A2A4A5",
"p#	c #C5C5C5",
"q#	c #DEDEDE",
"r#	c #B1B4B7",
"s#	c #5B82B6",
"t#	c #AEC0DA",
"u#	c #EBEDF3",
"v#	c #D7DCE9",
"w#	c #DBDFEC",
"x#	c #DCE0ED",
"y#	c #DFE3EF",
"z#	c #DFE2EF",
"A#	c #D9DEEC",
"B#	c #D6DBEA",
"C#	c #C2C7CF",
"D#	c #A7A8A5",
"E#	c #BEBEBE",
"F#	c #787878",
"G#	c #5F5F5E",
"H#	c #7C98BD",
"I#	c #D4DCEA",
"J#	c #EAEBF2",
"K#	c #E1E3ED",
"L#	c #DEE0EC",
"M#	c #C7D3E4",
"N#	c #647384",
"O#	c #4B4B4A",
"P#	c #545454",
"Q#	c #9D9D9D",
"R#	c #909090",
"S#	c #3B3B3B",
"T#	c #5C7EAC",
"U#	c #95ADCF",
"V#	c #DCE3EE",
"W#	c #E0E3ED",
"X#	c #DDDFEC",
"Y#	c #E7E9F2",
"Z#	c #D0D9E8",
"`#	c #7493BB",
" $	c #5377A7",
".$	c #2E3C4E",
"+$	c #353535",
"@$	c #484848",
"#$	c #656565",
"$$	c #5B5B5B",
"%$	c #323232",
"&$	c #376298",
"*$	c #6687B2",
"=$	c #95AAC6",
"-$	c #B6C5DB",
";$	c #BACAE0",
">$	c #BBCBE1",
",$	c #ADBED5",
"'$	c #879EBB",
")$	c #4D75AB",
"!$	c #2F5587",
"~$	c #242424",
"{$	c #333333",
"]$	c #373737",
"^$	c #4E4E4E",
"/$	c #161616",
"($	c #212121",
"_$	c #232323",
":$	c #272727",
"<$	c #262626",
"[$	c #070707",
"}$	c #101010",
"|$	c #080808",
"1$	c #050505",
"2$	c #010101",
"                                                                ",
"                            . + @ + #                           ",
"                      $ % & * = - ; > , ' )                     ",
"                  ! ~ { ] ^ / ( _ : < [ } | 1 2                 ",
"              3 4 5 6 7 7 7 ^ ^ ^ 8 9 0 0 0 a b c d             ",
"            e f g h 0 0 0 i j j k l m n n n o p q r             ",
"          s t u v w x y z A B C D E F G H I J J K L M N         ",
"          O n H J P Q R S T U V W I G H I X Y Y Y Z `  .        ",
"        ..+.@.@.#.#.#.$.%.&.*.=.@.@.-.-.p p ;.;.>.,.'.).!.      ",
"      ~.{.>.].^.^.-.-.@./.(._.:.<.[.}.|.|.=.;.>.>.1.'.2.3.      ",
"    4.5.6.7.8.9.0.Y a.b.c.d.e.f.g.h.i.j.k.l.Z l.m.n.o.p.q.r.    ",
"      s.t.u.v.w.x.y.z.A.B.C.D.E.F.G.H.I.k.l.l.J.K.L.M.N.O.P.    ",
"    Q.R.n.S.T.U.V.V.W.X.Y.Z.`.=.=. +.+++@+#+$+%+&+*+=+-+;+>+    ",
"    ,++.'+)+!+~+{+]+^+/+(+`.`.=.=._+:+<+[+}+|+1+2+3+*+4+4+5+6+  ",
"    7+@.8+9+0+a+b+c+d+e+l.l.f+k.g+f+h+i+j+k+l+m+n+L.o+p+q+r+s+  ",
"    t+@.u+8+v+9+a+a+w+w+w+l.l.x+l.y+z+A+B+C+D+E+F+L.o+p+q+G+H+  ",
"    I+'.J+J+K+K+L+n.M+N+O+O+P+P+Q+R+S+T+U+V+W+X+Y+Z+`+ @.@+@@@  ",
"    #@$@%@&@*@=@-@;@>@N+,@J.J.'@)@!@~@{@]@^@/@(@_@:@1+<@[@}@|@  ",
"    1@2@3@4@5@6@7@8@9+9@0@a@b@c@d@e@f@g@h@i@j@k@l@m@n@L.&@o@    ",
"      p@3@q@3@r@s@t@t@u@v@c@w@d@x@x@y@d@z@A@B@C@D@E@n@L.F@G@    ",
"      H@^.I@J@K@L@M@M@N@O@P@Q@R@S@T@U@V@W@X@Y@Z@`@ #.#1++#@#    ",
"      ##$#I@%#q+&#o+*#=#-#b@;#9@>#,#'#)#!#~#{#]#^#/#(#J+_#      ",
"        :#>@<#<#[#}#|#-#Q@t@0@y+e+1#2#0@;#3#4#5#6#7#8#9#        ",
"          0#>@<#[#}#a#P@Q@u@2#e+b#e+2#0@,@P@c#d#e#f#g#h#        ",
"            i#j#M.q+L.m@k#q@l#)#,@N+l#m#)@R+n#o#p#q#r#          ",
"            s#t#u#v#q+o+w#x#&@)@y#z#&@&@E+A#B#C#D#E#F#G#        ",
"                H#I#J#K#~@=#L#O@K.K.M@N@M@t@g+M#N#O#P#Q#R#S#    ",
"                  T#U#V#X u+W#L#X#O@3@Y#8 Z#`# $.$+$@$#$$$%$    ",
"                      &$*$=$-$;$>$E ,$'$)$!$      ~${$]$^$%$    ",
"                                                  /$($_$:$<$[$  ",
"                                                      }$|$1$2$  ",
"                                                                "};
