/* XPM */
static char * ooo_impress_xpm[] = {
"32 32 467 2",
"  	c None",
". 	c #5889C8",
"+ 	c #5587C8",
"@ 	c #5285C7",
"# 	c #5788C8",
"$ 	c #83A8D6",
"% 	c #93B5DD",
"& 	c #BDD1EA",
"* 	c #D3E1F1",
"= 	c #D8E6F5",
"- 	c #DAE7F6",
"; 	c #D8E5F4",
"> 	c #CDDDEF",
", 	c #B5CBE7",
"' 	c #84AAD8",
") 	c #8BAED9",
"! 	c #7EA4D5",
"~ 	c #B3CBE8",
"{ 	c #D9E3F1",
"] 	c #E9EFF6",
"^ 	c #EBEFF6",
"/ 	c #EEF1F6",
"( 	c #F0F2F7",
"_ 	c #F1F3F7",
": 	c #EFF2F7",
"< 	c #EDF0F6",
"[ 	c #EAEEF6",
"} 	c #E6ECF5",
"| 	c #D1DEEF",
"1 	c #9FBDE2",
"2 	c #6D98CF",
"3 	c #6B97CF",
"4 	c #ACC6E5",
"5 	c #DCE6F3",
"6 	c #E8EDF5",
"7 	c #ECEFF6",
"8 	c #EBEFF5",
"9 	c #EAEFF5",
"0 	c #EAEEF5",
"a 	c #E1E9F3",
"b 	c #D7E4F2",
"c 	c #89ADDA",
"d 	c #6492CC",
"e 	c #729BD0",
"f 	c #B0C8E5",
"g 	c #D1DDED",
"h 	c #E4EAF2",
"i 	c #E9EEF5",
"j 	c #E9EDF4",
"k 	c #DFE5F0",
"l 	c #C4D1E4",
"m 	c #D6DEEC",
"n 	c #E8ECF4",
"o 	c #E7ECF4",
"p 	c #E5EAF3",
"q 	c #D1DFF0",
"r 	c #A6C2E2",
"s 	c #6D97CE",
"t 	c #C8D9EC",
"u 	c #C3D1E4",
"v 	c #93ACCE",
"w 	c #678AB9",
"x 	c #6A8DBB",
"y 	c #99B0D0",
"z 	c #CCD6E6",
"A 	c #D0DAE8",
"B 	c #A2B7D4",
"C 	c #6C8EBC",
"D 	c #7293BF",
"E 	c #BACADF",
"F 	c #EDF0F5",
"G 	c #EDEFF5",
"H 	c #ECEFF5",
"I 	c #ECEEF5",
"J 	c #ECEEF4",
"K 	c #EBEEF4",
"L 	c #DFE7F3",
"M 	c #A9C2E3",
"N 	c #6591CC",
"O 	c #AEC6E4",
"P 	c #DFE4EE",
"Q 	c #A9BAD3",
"R 	c #597FB1",
"S 	c #4C77AF",
"T 	c #517BB1",
"U 	c #4B75AC",
"V 	c #9AAFCC",
"W 	c #E1E5EE",
"X 	c #EBEEF5",
"Y 	c #EBEDF4",
"Z 	c #E9ECF3",
"` 	c #DBE4F2",
" .	c #90B0D9",
"..	c #97B5DB",
"+.	c #DDE5F1",
"@.	c #E6EBF3",
"#.	c #E7EBF3",
"$.	c #DFE3EC",
"%.	c #7C98BE",
"&.	c #6788B3",
"*.	c #CAD2DF",
"=.	c #E5E9F2",
"-.	c #E6EAF3",
";.	c #E4E9F2",
">.	c #E3E8F2",
",.	c #E2E8F2",
"'.	c #E1E7F1",
").	c #D8E3F2",
"!.	c #729ACE",
"~.	c #5887C4",
"{.	c #D2DFEF",
"].	c #E5EAF2",
"^.	c #E6EAF2",
"/.	c #D9E0EA",
"(.	c #D2D9E4",
"_.	c #E3E7EF",
":.	c #D5D9E2",
"<.	c #D3D8E0",
"[.	c #E3E8F0",
"}.	c #E5E9F3",
"|.	c #E2E7F1",
"1.	c #DDE4F0",
"2.	c #A6C1E1",
"3.	c #323D47",
"4.	c #4B5662",
"5.	c #5E6467",
"6.	c #828588",
"7.	c #B9BBBF",
"8.	c #D6D9DE",
"9.	c #EAEDF3",
"0.	c #E4E7ED",
"a.	c #CBCDD2",
"b.	c #9B9EA2",
"c.	c #6D7174",
"d.	c #5B6165",
"e.	c #878D92",
"f.	c #D6D9E0",
"g.	c #EAECF4",
"h.	c #E9EBF3",
"i.	c #E7EAF2",
"j.	c #E2E6F0",
"k.	c #DCE1ED",
"l.	c #D8DDEA",
"m.	c #CEDAED",
"n.	c #749BCD",
"o.	c #9FB2C9",
"p.	c #9A9CA0",
"q.	c #515658",
"r.	c #393F42",
"s.	c #555B5F",
"t.	c #90969A",
"u.	c #B0B4BA",
"v.	c #6E7378",
"w.	c #494F53",
"x.	c #373C3F",
"y.	c #74777B",
"z.	c #B7B9BE",
"A.	c #8F9394",
"B.	c #838788",
"C.	c #828687",
"D.	c #838687",
"E.	c #818587",
"F.	c #7C8185",
"G.	c #777E83",
"H.	c #777D82",
"I.	c #888F94",
"J.	c #7D9BC2",
"K.	c #8FADD6",
"L.	c #D3DEEE",
"M.	c #DDE2EB",
"N.	c #8E9297",
"O.	c #4C5153",
"P.	c #2E3436",
"Q.	c #32383A",
"R.	c #555A5D",
"S.	c #B3B7BD",
"T.	c #DEE1EA",
"U.	c #B7BABF",
"V.	c #6A6C69",
"W.	c #828281",
"X.	c #666865",
"Y.	c #99A6B5",
"Z.	c #7CA0CE",
"`.	c #E1E6EF",
" +	c #E1E6F0",
".+	c #DEE3EC",
"++	c #BDC3CC",
"@+	c #51565A",
"#+	c #2F3537",
"$+	c #787D83",
"%+	c #C1C5CD",
"&+	c #E2E6EE",
"*+	c #E6E9F2",
"=+	c #C3C6CD",
"-+	c #666867",
";+	c #5F605D",
">+	c #626563",
",+	c #B7C0CA",
"'+	c #4D7DBC",
")+	c #7B9FCD",
"!+	c #E5E8F0",
"~+	c #E6E8F1",
"{+	c #E6E9F1",
"]+	c #E7E9F1",
"^+	c #D9DCE3",
"/+	c #C0C3CA",
"(+	c #E5E7EF",
"_+	c #E9EAF3",
":+	c #A3A5A4",
"<+	c #C3C3C3",
"[+	c #BEBEBD",
"}+	c #C4C4C3",
"|+	c #C8C8C7",
"1+	c #CECECC",
"2+	c #D1D1D0",
"3+	c #D4D4D3",
"4+	c #D6D6D4",
"5+	c #D8D8D6",
"6+	c #D9D9D8",
"7+	c #E3E3E2",
"8+	c #A4A7A8",
"9+	c #E0E7F2",
"0+	c #4678B7",
"a+	c #7A9ECC",
"b+	c #E4E7F0",
"c+	c #E6E8F0",
"d+	c #E8EAF2",
"e+	c #A9AAAA",
"f+	c #E1E1E0",
"g+	c #E5E5E3",
"h+	c #DFC4C2",
"i+	c #CA7A78",
"j+	c #C05B5A",
"k+	c #CA7B7A",
"l+	c #E7D9D8",
"m+	c #EEEEEC",
"n+	c #DEDEDC",
"o+	c #D0D0CF",
"p+	c #D5D5D3",
"q+	c #F4F4F3",
"r+	c #AAADAF",
"s+	c #E3EAF5",
"t+	c #4274B5",
"u+	c #7D9FCC",
"v+	c #DEE3EE",
"w+	c #E0E4EF",
"x+	c #E1E5F0",
"y+	c #E3E7F0",
"z+	c #E4E7F1",
"A+	c #E5E8F1",
"B+	c #E6E8F3",
"C+	c #A7AAAA",
"D+	c #F9F9F8",
"E+	c #DCB4B2",
"F+	c #C03635",
"G+	c #E16A68",
"H+	c #ED7C7B",
"I+	c #DE6A67",
"J+	c #BF4140",
"K+	c #DFBEBD",
"L+	c #E6E6E4",
"M+	c #DFDFDD",
"N+	c #F6F6F5",
"O+	c #A8ACAF",
"P+	c #E0E8F3",
"Q+	c #4676B6",
"R+	c #7B9DCA",
"S+	c #E0E6F1",
"T+	c #DDE2ED",
"U+	c #DEE2EE",
"V+	c #DFE3EE",
"W+	c #E0E4EE",
"X+	c #E1E4EF",
"Y+	c #E2E5EF",
"Z+	c #E3E6F0",
"`+	c #E5E7F1",
" @	c #E6E8F2",
".@	c #A8ABAB",
"+@	c #F7F4F4",
"@@	c #C25E5D",
"#@	c #EB6968",
"$@	c #F36868",
"%@	c #D67B7B",
"&@	c #C08599",
"*@	c #B9717D",
"=@	c #CA8889",
"-@	c #D0D0CE",
";@	c #F3F3F3",
">@	c #ACAFB1",
",@	c #DDE4F1",
"'@	c #4A79B6",
")@	c #6B92C3",
"!@	c #D5DDEC",
"~@	c #E2E4EE",
"{@	c #E2E5EE",
"]@	c #E3E5EF",
"^@	c #E4E6EF",
"/@	c #E4E6F0",
"(@	c #E5E7F0",
"_@	c #E7E8F1",
":@	c #E7E8F2",
"<@	c #E6E7F1",
"[@	c #E2E2ED",
"}@	c #A8AAAA",
"|@	c #F5EEED",
"1@	c #BE5352",
"2@	c #F07877",
"3@	c #F25858",
"4@	c #9AA353",
"5@	c #81A5BF",
"6@	c #968EA5",
"7@	c #BD7A7A",
"8@	c #E7E7E5",
"9@	c #E1E1DF",
"0@	c #E3E3E1",
"a@	c #F6F6F6",
"b@	c #B2B4B3",
"c@	c #BBCBE3",
"d@	c #BCCDE3",
"e@	c #E1E4EE",
"f@	c #E3E5EE",
"g@	c #E3E6EF",
"h@	c #E5E6F0",
"i@	c #E6E7F0",
"j@	c #E4E5EF",
"k@	c #E2E3EF",
"l@	c #E1E2ED",
"m@	c #A9AAAB",
"n@	c #F8F7F6",
"o@	c #C56968",
"p@	c #CA6662",
"q@	c #EB9491",
"r@	c #BCD586",
"s@	c #AEBCB6",
"t@	c #8B5155",
"u@	c #CC8B8A",
"v@	c #D9D9D7",
"w@	c #F4F4F4",
"x@	c #B2B5B4",
"y@	c #88A6CE",
"z@	c #86A3CC",
"A@	c #DADFEC",
"B@	c #DBE0EC",
"C@	c #DDE1EC",
"D@	c #DDE0ED",
"E@	c #DEE1ED",
"F@	c #DEE0ED",
"G@	c #DFE1ED",
"H@	c #E2E3EE",
"I@	c #A9ABAB",
"J@	c #EAE0DF",
"K@	c #BB504E",
"L@	c #A83B32",
"M@	c #985E36",
"N@	c #894236",
"O@	c #C7706F",
"P@	c #E9DEDC",
"Q@	c #DADAD8",
"R@	c #F5F5F4",
"S@	c #939DA4",
"T@	c #6A8EC0",
"U@	c #4976B3",
"V@	c #DDE4EE",
"W@	c #D5DBE9",
"X@	c #D6DBE9",
"Y@	c #D6DAE9",
"Z@	c #D8DCEA",
"`@	c #DADEEB",
" #	c #DDE0EC",
".#	c #E1E3EE",
"+#	c #E3E4EF",
"@#	c #AAABAB",
"##	c #DEB9B8",
"$#	c #D9AAA8",
"%#	c #DEBAB8",
"&#	c #ECE6E4",
"*#	c #E0E0DE",
"=#	c #E2E2E0",
"-#	c #788899",
";#	c #84A2CB",
">#	c #D8DBE8",
",#	c #DBDDEA",
"'#	c #DDDFEB",
")#	c #E0E1ED",
"!#	c #E4E5F0",
"~#	c #E4E4E2",
"{#	c #8F918C",
"]#	c #AABDD9",
"^#	c #E0E2EC",
"/#	c #AAACAB",
"(#	c #FDFDFD",
"_#	c #F7F7F6",
":#	c #F2F2F2",
"<#	c #F2F2F1",
"[#	c #F1F1F1",
"}#	c #FCFCFB",
"|#	c #8F908C",
"1#	c #BAC9DF",
"2#	c #DFE4EF",
"3#	c #D4D9E8",
"4#	c #D9DDEB",
"5#	c #DCDFEC",
"6#	c #DEE2ED",
"7#	c #BABCC0",
"8#	c #A8AAA9",
"9#	c #A8A9A9",
"0#	c #9E9F9E",
"a#	c #80827E",
"b#	c #7D7F7C",
"c#	c #9EA09F",
"d#	c #ACADAD",
"e#	c #AAADAD",
"f#	c #798693",
"g#	c #8A8D89",
"h#	c #5B82B6",
"i#	c #AEC0DA",
"j#	c #EBEDF3",
"k#	c #D7DCE9",
"l#	c #DBDFEC",
"m#	c #DCE0ED",
"n#	c #DFE2EE",
"o#	c #DFE3EF",
"p#	c #DFE2EF",
"q#	c #B1B3BB",
"r#	c #B0B0B0",
"s#	c #878887",
"t#	c #B7BAC1",
"u#	c #8FA9CC",
"v#	c #7C98BD",
"w#	c #D4DCEA",
"x#	c #EAEBF2",
"y#	c #E1E3ED",
"z#	c #DCDEEB",
"A#	c #DEE0EC",
"B#	c #DFE2ED",
"C#	c #D5D7E1",
"D#	c #898A8B",
"E#	c #787977",
"F#	c #6C6D6C",
"G#	c #949797",
"H#	c #597BA6",
"I#	c #5C7EAC",
"J#	c #95ADCF",
"K#	c #DCE3EE",
"L#	c #E0E3ED",
"M#	c #DDDFEC",
"N#	c #CED0D9",
"O#	c #84878A",
"P#	c #9FA1A1",
"Q#	c #A0A9B3",
"R#	c #486588",
"S#	c #4C5863",
"T#	c #4B565E",
"U#	c #376298",
"V#	c #6687B2",
"W#	c #95AAC6",
"X#	c #B6C5DB",
"Y#	c #BAC9DC",
"Z#	c #B3B9C0",
"`#	c #5D6468",
" $	c #5B6A7D",
".$	c #466B9D",
"+$	c #2B4E7C",
"@$	c #464845",
"#$	c #4A4B48",
"$$	c #424A4F",
"%$	c #494B48",
"                                                                ",
"                            . + @ + #                           ",
"                      $ % & * = - ; > , ' )                     ",
"                  ! ~ { ] ^ / ( _ : < [ } | 1 2                 ",
"              3 4 5 6 7 7 7 ^ ^ ^ 8 9 0 0 0 a b c d             ",
"            e f g h 0 0 0 i j j k l m n n n o p q r             ",
"          s t u v w x y z A B C D E F G H I J J K L M N         ",
"          O n H J P Q R S T U V W I G H I X Y Y Y Z `  .        ",
"        ..+.@.@.#.#.#.$.%.&.*.=.@.@.-.-.p p ;.;.>.,.'.).!.      ",
"      ~.{.>.].^.^.-.-.@./.(._.:.<.[.-.}.}.=.;.>.>.|.'.1.2.      ",
"    3.4.5.6.7.8.9.Y 0.a.b.c.d.e.f.Y Y Y g.h.Z h.i.j.k.l.m.n.    ",
"      o.p.q.r.s.t.u.v.w.x.y.z.A.B.B.B.B.B.C.D.C.E.F.G.H.I.J.    ",
"    K.L.j.M.N.O.P.P.Q.R.S.T.U.V.W.W.W.W.W.W.W.W.W.W.W.W.X.Y.    ",
"    Z.+.`. +.+++@+#+$+%+&+*+=+-+;+;+;+;+;+;+;+;+;+;+;+;+>+,+'+  ",
"    )+@.!+~+{+]+^+/+(+_+h.h._+:+<+[+}+|+1+2+3+4+5+6+6+7+8+9+0+  ",
"    a+@.b+!+c+~+]+]+d+d+d+h.h.e+f+g+h+i+j+k+l+m+n+o+p+q+r+s+t+  ",
"    u+'.v+v+w+w+x+j.y+z+A+A+B+C+D+E+F+G+H+I+J+K+L+M+f+N+O+P+Q+  ",
"    R+S+T+U+V+W+X+Y+Z+z+`+ @`+.@+@@@#@$@%@&@*@=@n+-@3+;@>@,@'@  ",
"    )@!@~@{@]@^@/@(@~+_@:@<@[@}@|@1@2@3@4@5@6@7@8@9@0@a@b@c@    ",
"      d@~@e@~@f@g@h@h@i@j@k@l@m@n@o@p@q@r@s@t@u@9@p+v@w@x@y@    ",
"      z@^.A@B@C@D@E@E@F@G@H@H@I@D+J@K@L@M@N@O@P@9@4+Q@R@S@T@    ",
"      U@V@A@W@X@Y@Z@`@ #.#+#+#@#D+m+P@##$#%#&#m+8@*#=#a@-#      ",
"        ;#Z+>#>#,#'#)#.#!#h@h@@#D+~#-@-@-@-@-@-@-@-@p+q+{#      ",
"          ]#Z+>#,#'#^#H@!#i@i@/#(#_#:#:#:#:#:#:#<#[#:#}#|#      ",
"            1#2#3#X@4#5#6#e@X+7#8#8#9#9#0#a#b#c#d#e#f#g#        ",
"            h#i#j#k#X@Z@l#m#U+n#o#p#U+U+q#r#s#t##.u#            ",
"                v#w#x#y#z# #A#G@B#B#E@C#D#E#F#G#H#              ",
"                  I#J#K#X b+L#A#M#G@N#O#P#Q#R#S#T#              ",
"                      U#V#W#X#E Y#Z#`# $.$+$    @$#$            ",
"                                  $$                %$          ",
"                                                                ",
"                                                                "};
