<?xml version="1.0" encoding="UTF-8" standalone="no"?>
<!-- Created with Inkscape (http://www.inkscape.org/) -->

<svg
   xmlns:dc="http://purl.org/dc/elements/1.1/"
   xmlns:cc="http://creativecommons.org/ns#"
   xmlns:rdf="http://www.w3.org/1999/02/22-rdf-syntax-ns#"
   xmlns:svg="http://www.w3.org/2000/svg"
   xmlns="http://www.w3.org/2000/svg"
   xmlns:xlink="http://www.w3.org/1999/xlink"
   version="1.1"
   width="108.5107"
   height="214.9819"
   id="svg4090">
  <defs
     id="defs4092">
    <linearGradient
       id="linearGradient4170">
      <stop
         id="stop4172"
         style="stop-color:#787878;stop-opacity:1"
         offset="0" />
      <stop
         id="stop4174"
         style="stop-color:#929292;stop-opacity:1"
         offset="1" />
    </linearGradient>
    <linearGradient
       id="linearGradient4161">
      <stop
         id="stop4163"
         style="stop-color:#7cb621;stop-opacity:1"
         offset="0" />
      <stop
         id="stop4165"
         style="stop-color:#93c347;stop-opacity:1"
         offset="1" />
    </linearGradient>
    <linearGradient
       id="linearGradient4152">
      <stop
         id="stop4154"
         style="stop-color:#e13253;stop-opacity:1"
         offset="0" />
      <stop
         id="stop4156"
         style="stop-color:#db0930;stop-opacity:1"
         offset="1" />
    </linearGradient>
    <clipPath
       id="clipPath710">
      <path
         d="m 0,0 1600,0 0,1200 L 0,1200 0,0 z"
         id="path712" />
    </clipPath>
    <mask
       id="mask728">
      <g
         id="g730">
        <g
           clip-path="url(#clipPath718)"
           id="g732">
          <g
             id="g734">
            <g
               id="g736">
              <path
                 d="m -32734.7,32767 65501.7,0 0,-65275.5 -65501.7,0 0,65275.5 z"
                 id="path738"
                 style="fill:url(#linearGradient722);stroke:none" />
            </g>
          </g>
        </g>
      </g>
    </mask>
    <clipPath
       id="clipPath718">
      <path
         d="m -32734.7,32767 65501.7,0 0,-65275.5 -65501.7,0 0,65275.5 z"
         id="path720" />
    </clipPath>
    <linearGradient
       x1="0"
       y1="0"
       x2="1"
       y2="0"
       id="linearGradient722"
       gradientUnits="userSpaceOnUse"
       gradientTransform="matrix(0,232.43704,232.43704,0,423.74478,587.43188)"
       spreadMethod="pad">
      <stop
         id="stop724"
         style="stop-color:#ffffff;stop-opacity:1"
         offset="0" />
      <stop
         id="stop726"
         style="stop-color:#ffffff;stop-opacity:0.80000001"
         offset="1" />
    </linearGradient>
    <clipPath
       id="clipPath744">
      <path
         d="m 450.424,694.206 86.831,0 0,-107.774 -86.831,0 0,107.774 z"
         id="path746" />
    </clipPath>
    <mask
       id="mask770">
      <g
         id="g772">
        <g
           clip-path="url(#clipPath760)"
           id="g774">
          <g
             id="g776">
            <g
               id="g778">
              <path
                 d="m -32649.8,32767 65416.8,0 0,-65186.3 -65416.8,0 0,65186.3 z"
                 id="path780"
                 style="fill:url(#linearGradient764);stroke:none" />
            </g>
          </g>
        </g>
      </g>
    </mask>
    <clipPath
       id="clipPath760">
      <path
         d="m -32649.8,32767 65416.8,0 0,-65186.3 -65416.8,0 0,65186.3 z"
         id="path762" />
    </clipPath>
    <linearGradient
       x1="0"
       y1="0"
       x2="1"
       y2="0"
       id="linearGradient764"
       gradientUnits="userSpaceOnUse"
       gradientTransform="matrix(0,188.274,188.274,0,434.4429,614.13977)"
       spreadMethod="pad">
      <stop
         id="stop766"
         style="stop-color:#ffffff;stop-opacity:1"
         offset="0" />
      <stop
         id="stop768"
         style="stop-color:#ffffff;stop-opacity:0.80000001"
         offset="1" />
    </linearGradient>
    <clipPath
       id="clipPath786">
      <path
         d="m 473.446,803.414 44.105,0 0,-37.509 -44.105,0 0,37.509 z"
         id="path788" />
    </clipPath>
    <mask
       id="mask812">
      <g
         id="g814">
        <g
           clip-path="url(#clipPath802)"
           id="g816">
          <g
             id="g818">
            <g
               id="g820">
              <path
                 d="m -32653.8,32767 65420.8,0 0,-65186.3 -65420.8,0 0,65186.3 z"
                 id="path822"
                 style="fill:url(#linearGradient806);stroke:none" />
            </g>
          </g>
        </g>
      </g>
    </mask>
    <clipPath
       id="clipPath802">
      <path
         d="m -32653.8,32767 65420.8,0 0,-65186.3 -65420.8,0 0,65186.3 z"
         id="path804" />
    </clipPath>
    <linearGradient
       x1="0"
       y1="0"
       x2="1"
       y2="0"
       id="linearGradient806"
       gradientUnits="userSpaceOnUse"
       gradientTransform="matrix(0,188.274,188.274,0,430.4429,614.13977)"
       spreadMethod="pad">
      <stop
         id="stop808"
         style="stop-color:#ffffff;stop-opacity:1"
         offset="0" />
      <stop
         id="stop810"
         style="stop-color:#ffffff;stop-opacity:0.80000001"
         offset="1" />
    </linearGradient>
    <clipPath
       id="clipPath828">
      <path
         d="m 438.551,779.299 41.862,0 0,-41.45 -41.862,0 0,41.45 z"
         id="path830" />
    </clipPath>
    <mask
       id="mask854">
      <g
         id="g856">
        <g
           clip-path="url(#clipPath844)"
           id="g858">
          <g
             id="g860">
            <g
               id="g862">
              <path
                 d="m -32734.7,32767 65501.7,0 0,-65275.5 -65501.7,0 0,65275.5 z"
                 id="path864"
                 style="fill:url(#linearGradient848);stroke:none" />
            </g>
          </g>
        </g>
      </g>
    </mask>
    <clipPath
       id="clipPath844">
      <path
         d="m -32734.7,32767 65501.7,0 0,-65275.5 -65501.7,0 0,65275.5 z"
         id="path846" />
    </clipPath>
    <linearGradient
       x1="0"
       y1="0"
       x2="1"
       y2="0"
       id="linearGradient848"
       gradientUnits="userSpaceOnUse"
       gradientTransform="matrix(0,232.43704,232.43704,0,423.74478,587.43188)"
       spreadMethod="pad">
      <stop
         id="stop850"
         style="stop-color:#ffffff;stop-opacity:1"
         offset="0" />
      <stop
         id="stop852"
         style="stop-color:#ffffff;stop-opacity:0.80000001"
         offset="1" />
    </linearGradient>
    <clipPath
       id="clipPath870">
      <path
         d="m 426.745,690.314 21.596,0 0,-102.549 -21.596,0 0,102.549 z"
         id="path872" />
    </clipPath>
    <mask
       id="mask896">
      <g
         id="g898">
        <g
           clip-path="url(#clipPath886)"
           id="g900">
          <g
             id="g902">
            <g
               id="g904">
              <path
                 d="m -32736.1,32767 65503.1,0 0,-65281.6 -65503.1,0 0,65281.6 z"
                 id="path906"
                 style="fill:url(#linearGradient890);stroke:none" />
            </g>
          </g>
        </g>
      </g>
    </mask>
    <clipPath
       id="clipPath886">
      <path
         d="m -32736.1,32767 65503.1,0 0,-65281.6 -65503.1,0 0,65281.6 z"
         id="path888" />
    </clipPath>
    <linearGradient
       x1="0"
       y1="0"
       x2="1"
       y2="0"
       id="linearGradient890"
       gradientUnits="userSpaceOnUse"
       gradientTransform="matrix(0,232.43704,232.43704,0,422.34073,581.34842)"
       spreadMethod="pad">
      <stop
         id="stop892"
         style="stop-color:#ffffff;stop-opacity:1"
         offset="0" />
      <stop
         id="stop894"
         style="stop-color:#ffffff;stop-opacity:0.80000001"
         offset="1" />
    </linearGradient>
    <clipPath
       id="clipPath912">
      <path
         d="m 463.745,730.432 55.772,0 0,-44.328 -55.772,0 0,44.328 z"
         id="path914" />
    </clipPath>
    <mask
       id="mask938">
      <g
         id="g940">
        <g
           clip-path="url(#clipPath928)"
           id="g942">
          <g
             id="g944">
            <g
               id="g946">
              <path
                 d="m -32760.8,32767 65527.8,0 0,-65276.5 -65527.8,0 0,65276.5 z"
                 id="path948"
                 style="fill:url(#linearGradient932);stroke:none" />
            </g>
          </g>
        </g>
      </g>
    </mask>
    <clipPath
       id="clipPath928">
      <path
         d="m -32760.8,32767 65527.8,0 0,-65276.5 -65527.8,0 0,65276.5 z"
         id="path930" />
    </clipPath>
    <linearGradient
       x1="0"
       y1="0"
       x2="1"
       y2="0"
       id="linearGradient932"
       gradientUnits="userSpaceOnUse"
       gradientTransform="matrix(0,232.43704,232.43704,0,397.61954,586.51694)"
       spreadMethod="pad">
      <stop
         id="stop934"
         style="stop-color:#ffffff;stop-opacity:1"
         offset="0" />
      <stop
         id="stop936"
         style="stop-color:#ffffff;stop-opacity:0.80000001"
         offset="1" />
    </linearGradient>
    <clipPath
       id="clipPath954">
      <path
         d="m 439.024,735.598 55.772,0 0,-44.326 -55.772,0 0,44.326 z"
         id="path956" />
    </clipPath>
    <linearGradient
       x1="53.709953"
       y1="-0.55744153"
       x2="53.709953"
       y2="61.844982"
       id="linearGradient4158"
       xlink:href="#linearGradient4152"
       gradientUnits="userSpaceOnUse" />
    <linearGradient
       x1="40.536842"
       y1="209.46379"
       x2="40.536842"
       y2="114.17757"
       id="linearGradient4167"
       xlink:href="#linearGradient4161"
       gradientUnits="userSpaceOnUse" />
    <linearGradient
       x1="54.790718"
       y1="112.19329"
       x2="54.790718"
       y2="70.611038"
       id="linearGradient4176"
       xlink:href="#linearGradient4170"
       gradientUnits="userSpaceOnUse" />
  </defs>
  <metadata
     id="metadata4095">
    <rdf:RDF>
      <cc:Work
         rdf:about="">
        <dc:format>image/svg+xml</dc:format>
        <dc:type
           rdf:resource="http://purl.org/dc/dcmitype/StillImage" />
        <dc:title></dc:title>
      </cc:Work>
    </rdf:RDF>
  </metadata>
  <path
     d="m 51.6687,50.7622 -3.53,-19.884 -19.919,-6.763 -16.413,13.019 3.548,19.988 19.865,6.443 16.449,-12.803 z m -33.482,-8.611 11.149,3.728 1.908,10.747 -11.128,-3.608 -1.929,-10.867 z m 21.99,-8.301 -8.978,6.987 -10.83,-3.622 8.908,-7.066 10.9,3.701 z m 5.605,14.674 -9.214,7.17 -1.905,-10.73 9.214,-7.171 1.905,10.731 z M 88.8065,17.849 77.6115,0.142 56.6085,0 l -9.907,17.751 11.355,17.425 20.896,0.332 9.854,-17.659 z m -24.715,12.052 5.318,-9.529 11.704,0.187 -5.318,9.53 -11.704,-0.188 z m -5.704,-22.014 6.302,9.866 -5.326,9.544 -6.362,-9.758 5.386,-9.652 z m 22.349,7.294 -11.405,-0.181 -6.121,-9.585 11.401,0.077 6.125,9.689 z"
     id="path838"
     style="fill:url(#linearGradient4158);fill-opacity:1;fill-rule:nonzero;stroke:none" />
  <path
     d="M 19.597,121.426 0,113.1 l 0,88.335 19.597,12.214 0,-92.223 z m 88.9137,80.8309 0,-93.049 -84.831,12.001 0,93.773 84.831,-12.725 z"
     id="path880"
     style="fill:url(#linearGradient4167);fill-opacity:1;fill-rule:nonzero;stroke:none" />
  <path
     d="m 43.2909,78.4715 c 3.315,-3.236 7.252,-5.751 11.56,-7.224 -4.402,-2.745 -9.785,-3.997 -15.623,-3.19 -14.841,2.049 -26.9,16.48 -26.93,32.231 l -0.019,9.853 9.835,-1.358 0.019,-9.854 c 0.019,-9.972 7.679,-19.142 17.075,-20.44 1.41,-0.195 2.772,-0.181 4.083,-0.018 m 12.927,15.749 -0.019,9.853 9.835,-1.359 0.018,-9.853 c 0.006,-3.325 -0.543,-6.428 -1.529,-9.254 -0.199,0.02 -0.394,0.022 -0.594,0.05 -3.286,0.454 -6.349,1.887 -8.958,3.964 0.799,1.983 1.251,4.201 1.247,6.599 m 24.7209,5.168 -0.019,9.853 9.835,-1.359 0.018,-9.853 c 0.03,-15.75 -11.98,-26.855 -26.823,-24.803 -14.841,2.049 -26.901,16.479 -26.931,32.23 l -0.018,9.853 9.834,-1.358 0.019,-9.853 c 0.019,-9.973 7.679,-19.142 17.075,-20.441 9.398,-1.299 17.028,5.758 17.01,15.731"
     id="path964"
     style="fill:url(#linearGradient4176);fill-opacity:1;fill-rule:nonzero;stroke:none" />
  <path
     d="m 80.846906,137.74467 -22.126012,3.281 c -4.075428,0.60433 -7.376326,4.4006 -7.376326,8.48075 l 6.635429,-0.98394 0,21.45822 c 0.137496,1.61835 2.520435,3.05638 7.450515,2.64072 4.03685,-0.34486 7.832339,-2.42308 8.790856,-4.82973 l 0,-21.65637 c 0.843772,-0.0463 5.576016,0.47828 6.46628,4.93998 0.05836,0.24408 0.103864,0.5022 0.127604,0.78882 l 0.002,-0.001 0,0.0131 c 0.0178,0.20461 0.02869,0.41428 0.02869,0.64275 l 0,22.15578 -0.02869,0.004 -5.647238,0.83741 -0.958517,0.14214 0,-3.21884 c -1.066337,1.64825 -2.965566,3.34318 -4.605629,3.90179 l -10.886931,1.61439 c -4.468154,0.43306 -7.26457,-2.14364 -7.377337,-6.293 l 0,-22.15578 c -4.071471,0.60577 -7.37237,4.40002 -7.37237,8.48017 l 0,22.15578 c 0,4.07914 3.301888,6.89832 7.375338,6.29429 l 22.127001,-3.28115 c 4.074438,-0.60419 7.376326,-4.40262 7.376326,-8.48177 4.07345,-0.60404 7.375337,-4.39944 7.375337,-8.47959 l 0,-22.15679 c 0,-4.08016 -3.301887,-6.89732 -7.376326,-6.29313"
     id="path970"
     style="fill:#ffffff;fill-opacity:1;fill-rule:nonzero;stroke:none" />
</svg>
