<?xml version="1.0" encoding="utf-8"?>
<!-- Generator: Adobe Illustrator 22.1.0, SVG Export Plug-In . SVG Version: 6.00 Build 0)  -->
<svg version="1.1"
	 id="svg5124" xmlns:cc="http://creativecommons.org/ns#" xmlns:dc="http://purl.org/dc/elements/1.1/" xmlns:rdf="http://www.w3.org/1999/02/22-rdf-syntax-ns#" xmlns:svg="http://www.w3.org/2000/svg"
	 xmlns="http://www.w3.org/2000/svg" xmlns:xlink="http://www.w3.org/1999/xlink" x="0px" y="0px" viewBox="0 0 144.4 144.7"
	 style="enable-background:new 0 0 144.4 144.7;" xml:space="preserve">
<style type="text/css">
	.st0{clip-path:url(#SVGID_2_);}
	.st1{clip-path:url(#SVGID_4_);fill:#76B72A;}
	.st2{clip-path:url(#SVGID_4_);fill:#FFFFFF;}
</style>
<g id="Bildmaterial_2_1_">
	<g>
		<defs>
			<rect id="SVGID_1_" x="10.4" y="10.5" width="123.6" height="123.6"/>
		</defs>
		<clipPath id="SVGID_2_">
			<use xlink:href="#SVGID_1_"  style="overflow:visible;"/>
		</clipPath>
		<g class="st0">
			<defs>
				<rect id="SVGID_3_" x="10.4" y="10.5" width="123.6" height="123.6"/>
			</defs>
			<clipPath id="SVGID_4_">
				<use xlink:href="#SVGID_3_"  style="overflow:visible;"/>
			</clipPath>
			<path class="st1" d="M113.4,10.5H51.6C40.2,10.5,31,19.8,31,31.1h0v0c-11.4,0-20.6,9.2-20.6,20.6v61.8c0,11.4,9.2,20.6,20.6,20.6
				h61.8c11.4,0,20.6-9.2,20.6-20.6c11.4,0,20.6-9.2,20.6-20.6V31.1C134,19.8,124.8,10.5,113.4,10.5"/>
			<path class="st2" d="M45.6,82.7c0,4.2-0.7,7.3-2.2,9.4c-1.3,1.9-3.3,2.8-6,2.8c-2.7,0-4.8-0.9-6.2-2.8c-1.5-2-2.3-5.1-2.3-9.2
				V45.6h-7.5v36.9c0,6.1,1.4,10.8,4,14.2c2.8,3.5,6.8,5.2,12,5.2c7.1,0,15.6-3.4,15.6-19.4V45.6h-7.5V82.7z"/>
			<path class="st2" d="M79.4,51.8c2.4,0,4.6,0.6,6.5,1.7l1.6,0.9l3.6-6.2l-1.6-0.9c-2.9-1.6-6.2-2.4-10-2.4
				c-6.2,0-11.2,2.7-14.8,7.9c-3.4,5-5.2,11.9-5.2,20.5c0,5.7,0.8,10.8,2.3,15c1.6,4.3,3.9,7.7,6.9,10c3,2.4,6.6,3.6,10.6,3.6
				c3.6,0,6.6-0.6,8.8-1.8l1-0.5v-7.1l-2.6,1.2c-1.9,0.9-4.2,1.3-6.9,1.3c-2.5,0-4.6-0.8-6.4-2.4c-1.9-1.7-3.4-4.1-4.5-7.3
				c-1.1-3.3-1.7-7.3-1.7-11.8c0-6.9,1.2-12.4,3.5-16.2C72.9,53.5,75.8,51.8,79.4,51.8"/>
			<path class="st2" d="M120.5,76.3c-2-2.5-5-4.7-9.1-6.5c-4.3-2-6.1-3.5-6.8-4.5c-1-1.3-1.5-3.2-1.5-5.7c0-2.4,0.7-4.2,2.1-5.6
				c1.4-1.4,3.2-2.1,5.6-2.1c2.7,0,5.4,0.6,8.1,1.9l1.7,0.8l2.9-6.6l-1.6-0.8c-1.2-0.6-2.7-1.1-4.6-1.6c-1.9-0.5-4.1-0.7-6.5-0.7
				c-2.7,0-5.3,0.6-7.6,1.9c-2.3,1.3-4.2,3-5.5,5.3c-1.3,2.3-2,4.9-2,7.7c0,2.6,0.4,4.8,1.2,6.7c0.8,1.9,2.1,3.6,3.7,5.1
				c1.6,1.4,3.9,2.8,7,4.2c4.3,1.9,6.1,3.5,6.9,4.5c1.1,1.3,1.6,3.3,1.6,5.7c0,2.6-0.8,4.8-2.3,6.4c-1.5,1.6-3.4,2.4-5.9,2.4
				c-1.8,0-3.7-0.2-5.6-0.6c-1.8-0.4-3.4-0.9-4.6-1.5l-2.6-1.3v7.9l1.1,0.5c3,1.3,6.9,2,11.7,2c4.5,0,8.3-1.5,11.2-4.5
				c2.9-3,4.4-6.9,4.4-11.6C123.6,82.1,122.6,78.9,120.5,76.3"/>
		</g>
	</g>
</g>
</svg>
