<?xml version="1.0" encoding="UTF-8" standalone="no"?>
<!-- Generator: Adobe Illustrator 22.1.0, SVG Export Plug-In . SVG Version: 6.00 Build 0)  -->

<svg
   xmlns:dc="http://purl.org/dc/elements/1.1/"
   xmlns:cc="http://creativecommons.org/ns#"
   xmlns:rdf="http://www.w3.org/1999/02/22-rdf-syntax-ns#"
   xmlns:svg="http://www.w3.org/2000/svg"
   xmlns="http://www.w3.org/2000/svg"
   xmlns:xlink="http://www.w3.org/1999/xlink"
   xmlns:sodipodi="http://sodipodi.sourceforge.net/DTD/sodipodi-0.dtd"
   xmlns:inkscape="http://www.inkscape.org/namespaces/inkscape"
   version="1.1"
   id="svg5124"
   x="0px"
   y="0px"
   viewBox="0 0 80.000003 80.000002"
   xml:space="preserve"
   sodipodi:docname="welcome.svg"
   width="80"
   height="80"
   inkscape:version="0.92.4 (unknown)"><metadata
   id="metadata34"><rdf:RDF><cc:Work
       rdf:about=""><dc:format>image/svg+xml</dc:format><dc:type
         rdf:resource="http://purl.org/dc/dcmitype/StillImage" /><dc:title></dc:title></cc:Work></rdf:RDF></metadata><defs
   id="defs32">
			<defs
   id="defs11">
				<rect
   height="123.6"
   width="123.6"
   y="10.5"
   x="10.4"
   id="SVGID_3_" />
			</defs>
			<clipPath
   id="SVGID_4_">
				<use
   height="100%"
   width="100%"
   y="0"
   x="0"
   id="use13"
   style="overflow:visible"
   xlink:href="#SVGID_3_" />
			</clipPath>
			
			
			
			
		</defs><sodipodi:namedview
   pagecolor="#ffffff"
   bordercolor="#666666"
   borderopacity="1"
   objecttolerance="10"
   gridtolerance="10"
   guidetolerance="10"
   inkscape:pageopacity="0"
   inkscape:pageshadow="2"
   inkscape:window-width="1916"
   inkscape:window-height="1005"
   id="namedview30"
   showgrid="false"
   inkscape:zoom="4.6130533"
   inkscape:cx="-7.0738609"
   inkscape:cy="32.656515"
   inkscape:window-x="0"
   inkscape:window-y="73"
   inkscape:window-maximized="0"
   inkscape:current-layer="g26" />
<style
   type="text/css"
   id="style2">
	.st0{clip-path:url(#SVGID_2_);}
	.st1{clip-path:url(#SVGID_4_);fill:#76B72A;}
	.st2{clip-path:url(#SVGID_4_);fill:#FFFFFF;}
</style>
<g
   id="Bildmaterial_2_1_"
   transform="matrix(0.6472492,0,0,0.6472492,-6.7313916,-6.7961167)">
	<g
   id="g26">
		<defs
   id="defs5">
			<rect
   id="SVGID_1_"
   x="10.4"
   y="10.5"
   width="123.6"
   height="123.6" />
		</defs>
		<clipPath
   id="SVGID_2_">
			<use
   xlink:href="#SVGID_1_"
   style="overflow:visible"
   id="use7"
   x="0"
   y="0"
   width="100%"
   height="100%" />
		</clipPath>
		<path
   style="fill:#5f5f5c;stroke-width:0.38929573;fill-opacity:1"
   clip-path="url(#SVGID_4_)"
   d="m 31.980469,15.941406 c -4.437972,0 -8.019531,3.620488 -8.019531,8.019532 -4.437974,0 -8.019532,3.581559 -8.019532,8.019531 v 24.058593 c 0,4.437974 3.581558,8.019532 8.019532,8.019532 h 24.058593 c 4.437972,0 8.019533,-3.581558 8.019531,-8.019532 4.437974,0 8.019532,-3.581559 8.019532,-8.019531 V 23.960938 c 0,-4.399044 -3.581558,-8.019532 -8.019532,-8.019532 z m 10.861328,13.392578 c 1.479324,0 2.76362,0.310721 3.892578,0.933594 l 0.623047,0.34961 -1.400391,2.414062 -0.623047,-0.349609 c -0.739662,-0.428226 -1.59694,-0.66211 -2.53125,-0.66211 -1.401464,0 -2.530534,0.661301 -3.464843,2.140625 -0.895381,1.479324 -1.361329,3.6205 -1.361329,6.306641 2e-6,1.751831 0.231931,3.309074 0.660157,4.59375 0.428225,1.245746 1.012291,2.179994 1.751953,2.841797 0.700732,0.622873 1.518948,0.935547 2.492187,0.935547 1.051099,0 1.945885,-0.157447 2.685547,-0.507813 l 1.011719,-0.466797 v 2.763672 l -0.388672,0.195313 c -0.85645,0.467154 -2.024317,0.701172 -3.425781,0.701172 -1.557183,-2e-6 -2.959066,-0.468035 -4.126953,-1.402344 -1.167887,-0.89538 -2.062674,-2.218607 -2.685547,-3.892578 -0.583944,-1.635042 -0.894531,-3.620858 -0.894531,-5.839844 0,-3.347943 0.699832,-6.03399 2.023437,-7.980469 1.401465,-2.024338 3.348085,-3.074219 5.761719,-3.074219 z m 12.185547,0 c 0.934309,0 1.789635,0.07684 2.529297,0.271485 0.739662,0.194648 1.32386,0.389469 1.791015,0.623047 l 0.623047,0.3125 -1.128906,2.568359 -0.662109,-0.310547 c -1.051099,-0.506084 -2.101246,-0.740234 -3.152344,-0.740234 -0.93431,0 -1.634674,0.271392 -2.179688,0.816406 -0.545014,0.545014 -0.818359,1.247331 -0.818359,2.181641 0,0.973239 0.194689,1.712665 0.583984,2.21875 0.272507,0.389295 0.972513,0.973361 2.646485,1.751953 1.596112,0.700732 2.764377,1.556057 3.542968,2.529297 0.817521,1.012169 1.206899,2.258691 1.167969,3.660156 0,1.82969 -0.583933,3.347738 -1.712891,4.515625 -1.128957,1.167887 -2.607544,1.751953 -4.359374,1.751953 -1.86862,0 -3.386801,-0.273212 -4.554688,-0.779297 l -0.429688,-0.193359 v -3.076172 l 1.013672,0.505859 c 0.467155,0.233578 1.090284,0.428266 1.791016,0.583985 0.739662,0.155718 1.478955,0.234375 2.179688,0.234375 0.973239,0 1.712931,-0.312674 2.296874,-0.935547 0.583944,-0.622873 0.894532,-1.478066 0.894532,-2.490235 0,-0.934309 -0.194822,-1.712665 -0.623047,-2.21875 -0.311437,-0.389295 -1.011575,-1.012291 -2.685547,-1.751953 -1.206817,-0.545014 -2.101736,-1.091704 -2.724609,-1.636719 -0.622874,-0.583943 -1.12997,-1.244713 -1.441407,-1.984374 -0.311436,-0.739662 -0.466796,-1.595253 -0.466796,-2.607422 0,-1.090028 0.273212,-2.102667 0.779296,-2.998047 0.506085,-0.89538 1.245245,-1.558369 2.140625,-2.064453 0.895381,-0.506085 1.907886,-0.738282 2.958985,-0.738282 z m -34.802735,0.271485 h 2.917969 v 14.521484 c 0,1.596113 0.312541,2.80344 0.896484,3.582031 0.545017,0.739662 1.362965,1.089844 2.414063,1.089844 1.051098,0 1.829853,-0.350182 2.335937,-1.089844 0.583946,-0.817521 0.855469,-2.025114 0.855469,-3.660156 h -0.03906 V 29.605469 h 2.919922 v 14.365234 c 0,6.228732 -3.308266,7.552735 -6.072266,7.552735 -2.024338,-3e-6 -3.581847,-0.662856 -4.671875,-2.025391 -1.012169,-1.323606 -1.556641,-3.15264 -1.556641,-5.527344 z"
   transform="matrix(2.5687286,0,0,2.5687286,-30.549145,-30.449145)"
   id="path16"
   inkscape:connector-curvature="0" />
	</g>
</g>
</svg>