<svg id="info" xmlns="http://www.w3.org/2000/svg" viewBox="0 0 110 126.122"><path d="M12.245 113.828V12.293h85.51v66.694c0 19.304-23.855 11.57-23.855 11.57s7.303 23.27-10.714 23.27zM110 80.043V.06H0v126h63.372c20.867 0 46.628-27.24 46.628-46.018M53.115 92.466c-7.548 2.65-13.77-.39-12.521-7.63 1.248-7.243 8.41-22.75 9.432-25.68 1.021-2.933-.937-3.737-3.036-2.544-1.21.698-3.009 2.096-4.554 3.455-.427-.861-1.03-1.846-1.482-2.788 2.52-2.524 6.732-5.907 11.72-7.131 5.958-1.47 15.916.879 11.636 12.257-3.056 8.109-5.218 13.705-6.58 17.872-1.361 4.17.256 5.043 2.639 3.42 1.862-1.27 3.846-2.997 5.299-4.338.673 1.092.888 1.44 1.553 2.696-2.524 2.584-9.126 8.632-14.106 10.41m15.638-50.164c-3.423 2.91-8.498 2.847-11.336-.143-2.838-2.989-2.365-7.771 1.058-10.683 3.423-2.91 8.498-2.848 11.336.14 2.838 2.99 2.364 7.774-1.058 10.686" /></svg>
