<?xml version="1.0" encoding="UTF-8" standalone="no"?>
<!-- Created with Inkscape (http://www.inkscape.org/) -->

<svg
   xmlns:dc="http://purl.org/dc/elements/1.1/"
   xmlns:cc="http://creativecommons.org/ns#"
   xmlns:rdf="http://www.w3.org/1999/02/22-rdf-syntax-ns#"
   xmlns:svg="http://www.w3.org/2000/svg"
   xmlns="http://www.w3.org/2000/svg"
   xmlns:xlink="http://www.w3.org/1999/xlink"
   xmlns:sodipodi="http://sodipodi.sourceforge.net/DTD/sodipodi-0.dtd"
   xmlns:inkscape="http://www.inkscape.org/namespaces/inkscape"
   width="250"
   height="250"
   viewBox="0 0 250 250"
   id="svg4194"
   version="1.1"
   inkscape:version="0.91 r13725"
   sodipodi:docname="login_logo.svg">
  <defs
     id="defs4196">
    <filter
       style="color-interpolation-filters:sRGB"
       id="filter3937">
      <feGaussianBlur
         stdDeviation="4.3955275"
         id="feGaussianBlur3939" />
    </filter>
    <linearGradient
       x1="76.581238"
       y1="131.84492"
       x2="76.581238"
       y2="13.772456"
       id="linearGradient3821"
       xlink:href="#linearGradient3815"
       gradientUnits="userSpaceOnUse"
       gradientTransform="translate(0,105.28)" />
    <linearGradient
       id="linearGradient3815">
      <stop
         id="stop3817"
         style="stop-color:#7bb51f;stop-opacity:1"
         offset="0" />
      <stop
         id="stop3819"
         style="stop-color:#8fbe44;stop-opacity:1"
         offset="1" />
    </linearGradient>
    <linearGradient
       id="linearGradient3044"
       xlink:href="#linearGradient3082"
       gradientUnits="userSpaceOnUse"
       gradientTransform="matrix(126.32,126.32,126.32,-126.32,656.7,-547.34)" />
    <linearGradient
       id="linearGradient3082"
       gradientUnits="userSpaceOnUse"
       gradientTransform="matrix(126.32,-126.32,126.32,126.32,542.5,662.16)">
      <stop
         id="stop1780-3"
         style="stop-color:#c9c3c2;stop-opacity:1"
         offset="0" />
      <stop
         id="stop1782-5"
         style="stop-color:#e7e4e3;stop-opacity:1"
         offset="0.4989" />
      <stop
         id="stop1786-2"
         style="stop-color:#ffffff;stop-opacity:1"
         offset="0.81708997" />
      <stop
         id="stop1788-6"
         style="stop-color:#d2cdcc;stop-opacity:1"
         offset="1" />
    </linearGradient>
  </defs>
  <sodipodi:namedview
     id="base"
     pagecolor="#ffffff"
     bordercolor="#666666"
     borderopacity="1.0"
     inkscape:pageopacity="0.0"
     inkscape:pageshadow="2"
     inkscape:zoom="0.7"
     inkscape:cx="294.00721"
     inkscape:cy="388.99794"
     inkscape:document-units="px"
     inkscape:current-layer="layer1"
     showgrid="false"
     units="px"
     inkscape:window-width="1920"
     inkscape:window-height="1031"
     inkscape:window-x="0"
     inkscape:window-y="25"
     inkscape:window-maximized="1" />
  <metadata
     id="metadata4199">
    <rdf:RDF>
      <cc:Work
         rdf:about="">
        <dc:format>image/svg+xml</dc:format>
        <dc:type
           rdf:resource="http://purl.org/dc/dcmitype/StillImage" />
        <dc:title></dc:title>
      </cc:Work>
    </rdf:RDF>
  </metadata>
  <g
     inkscape:label="Ebene 1"
     inkscape:groupmode="layer"
     id="layer1"
     transform="translate(0,-802.36222)">
    <g
       transform="matrix(1.6190768,0,0,1.6190768,7.8800318,639.7899)"
       id="g3016">
      <path
         inkscape:connector-curvature="0"
         d="m 0,0 -62.792,0 c -11.556,0 -20.915,-9.362 -20.929,-20.912 l -0.021,0 0,-0.023 c -11.554,-0.016 -20.912,-9.373 -20.912,-20.928 l 0,-62.793 c 0,-11.563 9.374,-20.934 20.933,-20.934 l 62.792,0 c 11.561,0 20.929,9.371 20.929,20.934 11.559,0 20.929,9.369 20.929,20.932 l 0,62.792 C 20.925,-9.373 11.555,0 -0.004,0"
         transform="matrix(1,0,0,-1,114.2,114.82)"
         id="path3147"
         style="fill-opacity:0.15685999;filter:url(#filter3937)" />
      <path
         inkscape:connector-curvature="0"
         d="m 114.2,114.82 -62.792,0 c -11.556,0 -20.915,9.362 -20.929,20.912 l -0.021,0 0,0.023 c -11.554,0.016 -20.912,9.373 -20.912,20.928 l 0,62.793 c 0,11.563 9.374,20.934 20.933,20.934 l 62.792,0 c 11.561,0 20.929,-9.371 20.929,-20.934 11.559,0 20.929,-9.369 20.929,-20.932 l 0,-62.792 c -0.004,-11.559 -9.374,-20.932 -20.933,-20.932"
         id="path1796"
         style="fill:url(#linearGradient3821);fill-opacity:1;stroke:url(#linearGradient3044);stroke-width:1.25600004;stroke-miterlimit:10" />
      <path
         inkscape:connector-curvature="0"
         d="m 21.094,151.184 6.824,0 0,34.268 c 0,11.72 3.559,14.687 10.016,14.687 6.451,0 10.01,-2.967 10.01,-14.687 l 0,-34.268 6.826,0 0,33.972 c 0,14.835 -5.488,20.693 -16.836,20.693 -11.349,0 -16.84,-5.858 -16.84,-20.693 l 0,-33.972 z"
         id="path1800"
         style="fill:#ffffff;fill-opacity:1" />
      <path
         inkscape:connector-curvature="0"
         d="m 82.177,165.944 c 0.074,-3.041 -0.151,-6.084 -1.557,-7.789 -1.411,-1.706 -4.601,-2.297 -6.009,-2.297 -5.64,0 -7.864,3.411 -8.087,4.151 -0.221,0.592 -1.56,1.928 -1.56,11.127 l 0,14.316 c 0,13.132 4.306,14.686 9.572,14.686 2.076,0 8.381,-0.74 8.455,-11.197 l 7.047,0 c 0.295,16.911 -11.643,16.911 -15.132,16.911 -6.675,0 -16.914,-0.444 -16.914,-21.215 l 0,-15.133 c 0,-15.13 6.675,-19.434 17.213,-19.434 10.606,0 14.684,5.491 14.017,15.874 l -7.045,0 z"
         id="path1804"
         style="fill:#ffffff;fill-opacity:1" />
      <path
         inkscape:connector-curvature="0"
         d="m 98.515,188.793 0,1.555 c 0,7.267 4.6,9.568 8.974,9.568 5.413,0 9.572,-2.301 9.572,-8.677 0,-11.868 -24.037,-10.531 -24.037,-26.628 0,-9.495 6.753,-14.54 15.726,-14.54 9.795,0 15.283,4.749 14.837,15.651 l -7.119,0 c 0.074,-5.861 -1.783,-9.716 -8.238,-9.716 -4.078,0 -8.232,2.074 -8.232,7.862 0,11.793 24.035,10.091 24.035,27.075 0,11.275 -7.791,14.909 -16.619,14.909 C 91.617,206 91.617,193.911 91.769,188.793 l 6.746,0 z"
         id="path1808"
         style="fill:#ffffff;fill-opacity:1" />
    </g>
  </g>
</svg>
