<?xml version="1.0" encoding="UTF-8" standalone="no"?>
<svg
   id="LOGO"
   viewBox="69 0 144.84 144.39"
   version="1.1"
   sodipodi:docname="NUBUS_ICON_OHNE_RAND_RGB2.svg"
   inkscape:version="1.1.2 (0a00cf5339, 2022-02-04)"
   xmlns:inkscape="http://www.inkscape.org/namespaces/inkscape"
   xmlns:sodipodi="http://sodipodi.sourceforge.net/DTD/sodipodi-0.dtd"
   xmlns="http://www.w3.org/2000/svg"
   xmlns:svg="http://www.w3.org/2000/svg">
  <sodipodi:namedview
     id="namedview8"
     pagecolor="#ffffff"
     bordercolor="#666666"
     borderopacity="1.0"
     inkscape:pageshadow="2"
     inkscape:pageopacity="0.0"
     inkscape:pagecheckerboard="0"
     showgrid="false"
     inkscape:zoom="3.8579746"
     inkscape:cx="54.303105"
     inkscape:cy="82.297069"
     inkscape:window-width="1920"
     inkscape:window-height="1029"
     inkscape:window-x="0"
     inkscape:window-y="0"
     inkscape:window-maximized="1"
     inkscape:current-layer="LOGO" />
  <defs
     id="defs4">
    <style
       id="style2">
      .cls-1 {
        fill: #dd042d;
        stroke-width: 0px;
      }
    </style>
  </defs>
  <path
     id="BILDMARKE"
     class="cls-1"
     d="m 186.57,47.77 c 10.18,-5.39 10.05,-20.01 -0.22,-25.23 L 141.95,0 97.73,22.56 c -10.24,5.22 -10.36,19.8 -0.22,25.2 l 37.76,20.1 c 2.09,1.11 4.38,1.67 6.68,1.67 2.3,0 4.57,-0.55 6.65,-1.65 z m -44.62,10.26 c -0.44,0 -0.88,-0.11 -1.28,-0.32 l -37.76,-20.1 c -1.2,-0.64 -1.44,-1.67 -1.44,-2.42 0,-0.75 0.27,-1.78 1.48,-2.39 l 39.01,-19.9 39.18,19.89 c 1.22,0.62 1.48,1.64 1.48,2.4 0,0.75 -0.24,1.78 -1.44,2.42 l -37.97,20.11 c -0.39,0.21 -0.83,0.32 -1.27,0.32 z m 71.64,7.19 c -0.04,-8.23 -6.8,-14.16 -14.22,-14.16 -2.19,0 -4.45,0.52 -6.6,1.65 L 153.4,73.4 c -4.67,2.46 -7.6,7.3 -7.6,12.58 V 130 c 0,8.27 6.79,14.23 14.23,14.23 2.26,0 4.58,-0.55 6.79,-1.76 l 47.02,-25.67 z m -52.43,66.9 c -0.39,0.21 -0.76,0.31 -1.14,0.31 -0.76,0 -2.43,-0.61 -2.43,-2.43 V 85.98 c 0,-0.9 0.49,-1.72 1.29,-2.14 l 39.37,-20.69 c 0.38,-0.2 0.74,-0.3 1.11,-0.3 0.97,0 2.41,0.77 2.42,2.42 l 0.22,44.54 -40.84,22.3 z m -23.9,-44.79 v 43.51 c 0,4.82 -2.48,9.18 -6.63,11.64 -2.15,1.27 -4.52,1.91 -6.9,1.91 -2.22,0 -4.44,-0.56 -6.49,-1.67 L 69,116.39 69.11,100.71 c 0.02,-3.24 2.66,-5.86 5.9,-5.86 0.01,0 0.03,0 0.04,0 3.26,0.02 5.88,2.68 5.86,5.94 l -0.06,8.62 42.04,22.95 c 0.75,0.41 1.4,0.16 1.71,-0.03 0.32,-0.19 0.85,-0.63 0.85,-1.49 V 87.33 c 0,-2.19 -1.21,-4.19 -3.15,-5.21 L 89.61,64.94 83.07,61.44 c -0.62,-0.31 -1.14,-0.13 -1.46,0.07 -0.33,0.2 -0.73,0.59 -0.73,1.3 v 10.25 c 0,3.26 -2.64,5.9 -5.9,5.9 -3.26,0 -5.9,-2.64 -5.9,-5.9 V 62.81 c 0,-4.69 2.39,-8.94 6.39,-11.38 4,-2.44 8.88,-2.61 13.04,-0.46 l 0.08,0.04 6.57,3.52 32.63,17.15 c 5.83,3.07 9.46,9.06 9.46,15.66 z" />
</svg>
