<?xml version="1.0" encoding="UTF-8" standalone="no"?>
<!-- Created with Inkscape (http://www.inkscape.org/) -->

<svg
   xmlns:dc="http://purl.org/dc/elements/1.1/"
   xmlns:cc="http://creativecommons.org/ns#"
   xmlns:rdf="http://www.w3.org/1999/02/22-rdf-syntax-ns#"
   xmlns:svg="http://www.w3.org/2000/svg"
   xmlns="http://www.w3.org/2000/svg"
   xmlns:sodipodi="http://sodipodi.sourceforge.net/DTD/sodipodi-0.dtd"
   xmlns:inkscape="http://www.inkscape.org/namespaces/inkscape"
   width="426.48001"
   height="426.48001"
   id="svg2"
   version="1.1"
   inkscape:version="0.91 r13725"
   sodipodi:docname="ucs_logo_gray.svg">
  <defs
     id="defs4" />
  <sodipodi:namedview
     id="base"
     pagecolor="#ffffff"
     bordercolor="#666666"
     borderopacity="1.0"
     inkscape:pageopacity="0.0"
     inkscape:pageshadow="2"
     inkscape:zoom="1.4"
     inkscape:cx="250.73087"
     inkscape:cy="208.66661"
     inkscape:document-units="px"
     inkscape:current-layer="g3068"
     showgrid="false"
     fit-margin-top="0"
     fit-margin-left="0"
     fit-margin-right="0"
     fit-margin-bottom="0"
     inkscape:window-width="1615"
     inkscape:window-height="1026"
     inkscape:window-x="1431"
     inkscape:window-y="24"
     inkscape:window-maximized="1" />
  <metadata
     id="metadata7">
    <rdf:RDF>
      <cc:Work
         rdf:about="">
        <dc:format>image/svg+xml</dc:format>
        <dc:type
           rdf:resource="http://purl.org/dc/dcmitype/StillImage" />
        <dc:title></dc:title>
      </cc:Work>
    </rdf:RDF>
  </metadata>
  <g
     inkscape:label="Layer 1"
     inkscape:groupmode="layer"
     id="layer1"
     transform="translate(-196.71868,-134.44085)">
    <g
       id="g3068"
       transform="matrix(3.485924,0,0,3.485924,-281.35751,-1401.0751)">
      <path
         style="fill:#d3d3d3;fill-opacity:1"
         d="m 156.25717,560.05119 c -7.60362,-1.14763 -13.69428,-6.44055 -16.04903,-13.94696 l -0.55097,-1.75637 -0.0632,-32.1 c -0.0479,-24.31055 -0.005,-32.43947 0.1769,-33.49894 1.46645,-8.54444 8.83576,-15.34065 17.38628,-16.03417 0.825,-0.0669 1.6125,-0.21036 1.75,-0.31876 0.1375,-0.10841 0.25,-0.58115 0.25,-1.05053 0,-1.33769 0.57832,-4.05342 1.21332,-5.6976 0.90754,-2.34988 2.2796,-4.49773 4.05624,-6.34971 2.74384,-2.86021 5.6244,-4.60245 9.27681,-5.61089 l 1.95363,-0.5394 32.4,0 32.4,0 1.78799,0.45527 c 7.11838,1.81254 12.60283,7.34021 14.46009,14.57404 0.32878,1.28057 0.35192,3.49433 0.35192,33.67069 l 0,32.3 -0.43443,1.6265 c -0.98999,3.70653 -2.62753,6.6032 -5.17046,9.14614 -3.20253,3.20252 -7.48953,5.27288 -11.67205,5.63688 -2.30189,0.20034 -2.11077,0.0123 -2.37206,2.33394 -0.51897,4.61132 -2.61057,8.78506 -6.00625,11.98537 -2.39036,2.25282 -5.32625,3.88265 -8.64475,4.79904 l -1.7,0.46945 -31.9,0.0285 c -17.545,0.0157 -32.35,-0.0394 -32.9,-0.12246 z"
         id="path3072"
         inkscape:connector-curvature="0"
         sodipodi:nodetypes="cscscccsssscccssscsssssscscc" />
      <path
         style="color:#000000;clip-rule:nonzero;display:inline;overflow:visible;visibility:visible;opacity:1;isolation:auto;mix-blend-mode:normal;color-interpolation:sRGB;color-interpolation-filters:linearRGB;solid-color:#000000;solid-opacity:1;fill:#ffffff;fill-opacity:1;fill-rule:nonzero;stroke:none;stroke-width:1.87097573;stroke-linecap:butt;stroke-linejoin:miter;stroke-miterlimit:4;stroke-dasharray:none;stroke-dashoffset:0;stroke-opacity:1;marker:none;color-rendering:auto;image-rendering:auto;shape-rendering:auto;text-rendering:auto;enable-background:accumulate"
         d="M 219.39453 128.89258 C 214.58439 128.91575 209.96991 129.21079 206.52344 129.81055 C 180.8555 134.27727 168.64959 149.83576 165.95312 181.52148 C 164.69481 196.30766 165.41675 254.4125 166.97852 264.01953 C 170.66 286.66608 179.81004 300.77312 194.63281 306.65234 C 201.72161 309.46402 206.60087 310.04891 221.40039 309.86328 C 234.90765 309.69387 235.53036 309.6221 241.30078 307.58594 C 254.89564 302.78847 263.11006 293.98759 267.61133 279.40039 C 269.26456 274.04277 270.76141 262.96736 270.43359 258.50781 L 270.20312 255.36914 L 259.49023 255.17773 C 252.18339 255.04632 248.47092 255.2386 247.8125 255.78516 C 247.21588 256.28026 246.8457 257.97643 246.8457 260.22461 C 246.8457 264.60593 244.71081 273.32101 242.64258 277.375 C 240.3806 281.80885 235.29119 286.84489 230.90625 288.99023 C 227.59609 290.60976 225.89854 290.94494 219.87305 291.16797 C 206.51886 291.66231 199.12146 287.80797 194.23047 277.80859 C 189.09162 267.30244 187.9625 254.17625 188.49414 211.09961 C 188.90475 177.83093 189.59347 170.29416 192.89844 162.92969 C 198.87652 149.60875 217.65747 143.88362 232.73242 150.78516 C 234.93277 151.79252 237.47078 153.3039 238.37109 154.14453 C 241.92977 157.46714 243.77813 163.35675 244.48438 173.61133 L 244.95508 180.42188 L 256.35742 180.42188 L 267.76172 180.42188 L 267.75195 172.23047 C 267.73801 161.99419 266.47709 155.85845 262.89844 148.59766 C 258.45127 139.57459 251.50221 134.06945 240.57031 130.9043 C 235.97094 129.57263 227.41143 128.85396 219.39453 128.89258 z M 329.71289 128.94531 C 325.40268 128.99195 321.40601 129.2785 318.70312 129.82617 C 295.76881 134.47326 282.59334 148.34766 280.32031 170.24805 C 278.78312 185.05852 282.79066 196.68035 292.97461 206.94531 C 298.95809 212.97638 306.17224 217.72009 322.14258 226.12695 C 344.35154 237.81787 351.93199 243.60364 356.06055 252.01758 C 357.84816 255.66075 358.04575 256.7659 358.0293 263.03906 C 358.00838 271.1058 357.16583 274.49913 354.0293 279.16016 C 351.23233 283.31653 347.12023 286.49245 341.86133 288.55664 C 338.40517 289.91322 336.48705 290.14567 328.41797 290.18359 C 320.12736 290.22264 318.52716 290.03589 314.99805 288.61133 C 304.65116 284.4346 298.46766 274.21499 298.44727 261.26172 C 298.44378 258.10793 298.10273 255.66143 297.60156 255.16016 C 297.0321 254.5907 293.70813 254.32422 287.19336 254.32422 C 274.28861 254.32422 274.91445 253.59026 276.12891 267.30859 C 278.26996 291.49355 290.36979 305.36711 312.8418 309.4082 C 314.69781 309.74181 322.02138 309.90646 329.11523 309.77344 C 339.59751 309.57683 343.05696 309.24989 347.58984 308.02734 C 364.44669 303.48097 375.5391 292.89523 379.80469 277.28125 C 381.37231 271.54311 381.54141 254.32766 380.08203 249.0957 C 378.50266 243.43338 373.93787 235.26602 369.79102 230.68359 C 362.87142 223.03718 356.6539 218.85252 336.08008 207.99609 C 316.34616 197.58287 309.9031 192.60955 305.62891 184.49414 C 303.82369 181.06657 303.66797 180.16185 303.66797 173.10156 C 303.66797 166.10943 303.83919 165.08159 305.62305 161.44922 C 308.01826 156.57161 312.59263 152.41225 317.85742 150.32227 C 321.1451 149.01717 323.17391 148.75473 330.16016 148.73047 C 337.90156 148.70258 338.83828 148.84765 342.70898 150.6582 C 347.52141 152.90924 350.16471 155.20527 352.50195 159.16797 C 354.49388 162.54517 356.276 169.72899 356.30469 174.49609 C 356.31515 176.41335 356.58003 178.38366 356.89062 178.87305 C 357.31863 179.54747 360.1435 179.7163 368.55859 179.57031 L 379.66016 179.37695 L 379.60742 171.70703 C 379.45683 150.10124 368.79461 135.62076 349.33203 130.58594 C 344.95022 129.4524 336.89657 128.86758 329.71289 128.94531 z M 154.7832 132.28125 L 143.82031 132.47461 L 132.85742 132.66602 L 132.4668 196.80664 C 132.11521 254.69864 131.95803 261.45633 130.85156 266.17578 C 128.11316 277.85603 122.97053 285.12991 114.73047 288.97461 C 110.73351 290.83951 110.08221 290.92578 100.08984 290.92578 C 90.097477 290.92578 89.446179 290.83958 85.449219 288.97461 C 77.209157 285.12991 72.064574 277.85603 69.326172 266.17578 C 68.219705 261.45633 68.062528 254.69864 67.710938 196.80664 L 67.322266 132.66602 L 56.568359 132.47266 C 48.432526 132.3266 45.677444 132.49714 45.25 133.16992 C 44.448133 134.43353 44.555631 243.80973 45.369141 254.32422 C 47.974032 287.99183 60.423831 304.71926 86.376953 309.42578 C 88.167359 309.75032 95.279511 309.9133 102.18164 309.78711 C 112.54745 309.59748 115.63758 309.29277 119.94727 308.03711 L 119.94727 308.03906 C 139.46583 302.3522 149.43589 289.46252 153.94727 264.08398 C 154.81683 259.19233 155.05266 247.46018 155.30469 196.86914 C 155.47271 163.16008 155.42525 134.83878 155.19727 133.93164 L 154.7832 132.28125 z "
         id="rect7330"
         transform="matrix(0.28686799,0,0,0.28686799,137.14475,440.49037)" />
    </g>
  </g>
</svg>
