<?xml version="1.0" encoding="UTF-8" standalone="no"?>
<svg
   xmlns:dc="http://purl.org/dc/elements/1.1/"
   xmlns:cc="http://creativecommons.org/ns#"
   xmlns:rdf="http://www.w3.org/1999/02/22-rdf-syntax-ns#"
   xmlns:svg="http://www.w3.org/2000/svg"
   xmlns="http://www.w3.org/2000/svg"
   xmlns:sodipodi="http://sodipodi.sourceforge.net/DTD/sodipodi-0.dtd"
   xmlns:inkscape="http://www.inkscape.org/namespaces/inkscape"
   width="46"
   height="150"
   viewBox="0 0 46 150"
   id="svg2"
   version="1.1"
   inkscape:version="0.91 r13725"
   sodipodi:docname="udmGridViewIcons.svg">
  <metadata
     id="metadata10">
    <rdf:RDF>
      <cc:Work
         rdf:about="">
        <dc:format>image/svg+xml</dc:format>
        <dc:type
           rdf:resource="http://purl.org/dc/dcmitype/StillImage" />
        <dc:title></dc:title>
      </cc:Work>
    </rdf:RDF>
  </metadata>
  <defs
     id="defs8" />
  <sodipodi:namedview
     pagecolor="#ffffff"
     bordercolor="#666666"
     borderopacity="1"
     objecttolerance="10"
     gridtolerance="10"
     guidetolerance="10"
     inkscape:pageopacity="0"
     inkscape:pageshadow="2"
     inkscape:window-width="1920"
     inkscape:window-height="1031"
     id="namedview6"
     showgrid="false"
     inkscape:zoom="4"
     inkscape:cx="48.598842"
     inkscape:cy="80.707641"
     inkscape:window-x="0"
     inkscape:window-y="25"
     inkscape:window-maximized="1"
     inkscape:current-layer="svg2" />
  <path
     d="m 31,135 -5,0 0,-5 5,0 0,5 z m 7.5,-5 -5,0 0,5 5,0 0,-5 z m 7.5,0 -5,0 0,5 5,0 0,-5 z m -15,7.5 -5,0 0,5 5,0 0,-5 z m 7.5,0 -5,0 0,5 5,0 0,-5 z m 7.5,0 -5,0 0,5 5,0 0,-5 z m -15,7.5 -5,0 0,5 5,0 0,-5 z m 7.5,0 -5,0 0,5 5,0 0,-5 z m 7.5,0 -5,0 0,5 5,0 0,-5 z"
     id="path4"
     inkscape:connector-curvature="0"
     style="opacity:1;fill:#282828;fill-opacity:1" />
  <path
     inkscape:connector-curvature="0"
     d="m 20,145 0,5 -20,0 0,-5 20,0 z m -20,-7.5 0,5 20,0 0,-5 -20,0 z m 0,-7.5 0,5 20,0 0,-5 -20,0 z"
     id="path4-3"
     style="opacity:0.9;fill:#282828;fill-opacity:1" />
  <path
     inkscape:connector-curvature="0"
     d="m 20,67.000001 0,5 -20,0 0,-5 20,0 z m -20,-7.5 0,5 20,0 0,-5 -20,0 z M 0,52 l 0,5.000001 20,0 L 20,52 0,52 Z"
     id="path4-3-6"
     style="opacity:1;fill:#282828;fill-opacity:1" />
  <path
     d="m 31,57 -5,0 0,-5 5,0 0,5 z m 7.5,-5 -5,0 0,5 5,0 0,-5 z m 7.5,0 -5,0 0,5 5,0 0,-5 z m -15,7.5 -5,0 0,5 5,0 0,-5 z m 7.5,0 -5,0 0,5 5,0 0,-5 z m 7.5,0 -5,0 0,5 5,0 0,-5 z m -15,7.5 -5,0 0,5 5,0 0,-5 z m 7.5,0 -5,0 0,5 5,0 0,-5 z m 7.5,0 -5,0 0,5 5,0 0,-5 z"
     id="path4-7"
     inkscape:connector-curvature="0"
     style="opacity:0.9;fill:#282828;fill-opacity:1" />
  <path
     inkscape:connector-curvature="0"
     d="m 20,93 0,5 -20,0 0,-5 20,0 z m -20,-7.5 0,5 20,0 0,-5 -20,0 z M 0,77.999999 0,83 l 20,0 0,-5.000001 -20,0 z"
     id="path4-3-5"
     style="opacity:0.3;fill:#282828;fill-opacity:1" />
  <path
     d="m 31,83 -5,0 0,-5 5,0 0,5 z m 7.5,-5 -5,0 0,5 5,0 0,-5 z m 7.5,0 -5,0 0,5 5,0 0,-5 z m -15,7.5 -5,0 0,5 5,0 0,-5 z m 7.5,0 -5,0 0,5 5,0 0,-5 z m 7.5,0 -5,0 0,5 5,0 0,-5 z m -15,7.5 -5,0 0,5 5,0 0,-5 z m 7.5,0 -5,0 0,5 5,0 0,-5 z m 7.5,0 -5,0 0,5 5,0 0,-5 z"
     id="path4-35"
     inkscape:connector-curvature="0"
     style="opacity:1;fill:#282828;fill-opacity:1" />
  <path
     inkscape:connector-curvature="0"
     d="m 20,119 0,5 -20,0 0,-5 20,0 z m -20,-7.5 0,5 20,0 0,-5 -20,0 z m 0,-7.5 0,5 20,0 0,-5 -20,0 z"
     id="path4-3-62"
     style="opacity:0.7;fill:#282828;fill-opacity:1" />
  <path
     d="m 31,109 -5,0 0,-5 5,0 0,5 z m 7.5,-5 -5,0 0,5 5,0 0,-5 z m 7.5,0 -5,0 0,5 5,0 0,-5 z m -15,7.5 -5,0 0,5 5,0 0,-5 z m 7.5,0 -5,0 0,5 5,0 0,-5 z m 7.5,0 -5,0 0,5 5,0 0,-5 z m -15,7.5 -5,0 0,5 5,0 0,-5 z m 7.5,0 -5,0 0,5 5,0 0,-5 z m 7.5,0 -5,0 0,5 5,0 0,-5 z"
     id="path4-9"
     inkscape:connector-curvature="0"
     style="opacity:1;fill:#282828;fill-opacity:1" />
  <path
     inkscape:connector-curvature="0"
     d="m 20,15.000001 0,5 -20,0 0,-5 20,0 z m -20,-7.5 0,5 20,0 0,-5 -20,0 z M 0,0 l 0,5.000001 20,0 L 20,0 0,0 Z"
     id="path4-3-6-1"
     style="opacity:1;fill:#282828;fill-opacity:1" />
  <path
     d="m 31,5 -5,0 0,-5 5,0 0,5 z m 7.5,-5 -5,0 0,5 5,0 0,-5 z m 7.5,0 -5,0 0,5 5,0 0,-5 z m -15,7.5 -5,0 0,5 5,0 0,-5 z m 7.5,0 -5,0 0,5 5,0 0,-5 z m 7.5,0 -5,0 0,5 5,0 0,-5 z m -15,7.5 -5,0 0,5 5,0 0,-5 z m 7.5,0 -5,0 0,5 5,0 0,-5 z m 7.5,0 -5,0 0,5 5,0 0,-5 z"
     id="path4-7-2"
     inkscape:connector-curvature="0"
     style="opacity:0.3;fill:#282828;fill-opacity:1" />
  <path
     inkscape:connector-curvature="0"
     d="m 20,41 0,5 -20,0 0,-5 20,0 z m -20,-7.5 0,5 20,0 0,-5 -20,0 z M 0,25.999999 0,31 l 20,0 0,-5.000001 -20,0 z"
     id="path4-3-5-7"
     style="opacity:1;fill:#282828;fill-opacity:1" />
  <path
     d="m 31,31 -5,0 0,-5 5,0 0,5 z m 7.5,-5 -5,0 0,5 5,0 0,-5 z m 7.5,0 -5,0 0,5 5,0 0,-5 z m -15,7.5 -5,0 0,5 5,0 0,-5 z m 7.5,0 -5,0 0,5 5,0 0,-5 z m 7.5,0 -5,0 0,5 5,0 0,-5 z m -15,7.5 -5,0 0,5 5,0 0,-5 z m 7.5,0 -5,0 0,5 5,0 0,-5 z m 7.5,0 -5,0 0,5 5,0 0,-5 z"
     id="path4-35-0"
     inkscape:connector-curvature="0"
     style="opacity:0.7;fill:#282828;fill-opacity:1" />
</svg>
