<?xml version="1.0" encoding="utf-8"?>
<!-- Generator: Adobe Illustrator 23.0.3, SVG Export Plug-In . SVG Version: 6.00 Build 0)  -->
<svg version="1.1" id="Ebene_1" xmlns="http://www.w3.org/2000/svg" xmlns:xlink="http://www.w3.org/1999/xlink" x="0px" y="0px"
	 viewBox="0 0 48 46" style="enable-background:new 0 0 48 46;" xml:space="preserve">
<style type="text/css">
	.st0{clip-path:url(#SVGID_2_);fill:#878783;}
	.st1{fill:#FFFFFF;}
</style>
<g id="Ebene_3">
	<g>
		<g>
			<defs>
				<rect id="SVGID_1_" x="3" y="2.9" width="41.1" height="41.1"/>
			</defs>
			<clipPath id="SVGID_2_">
				<use xlink:href="#SVGID_1_"  style="overflow:visible;"/>
			</clipPath>
			<path class="st0" d="M23.6,44c11.3,0,20.6-9.2,20.6-20.6S34.9,2.9,23.6,2.9S3,12.1,3,23.4S12.2,44,23.6,44"/>
		</g>
	</g>
	<path class="st1" d="M21.2,29.2h11.5v2.3H21.2V29.2z M21.2,22.3h11.5v2.3H21.2V22.3z M21.2,15.4h11.5v2.3H21.2V15.4z"/>
	<polygon class="st1" points="16.8,18.8 14.7,16.6 15.5,15.7 16.8,17 18.9,14.8 18.9,14.2 14.3,14.2 14.3,18.8 18.9,18.8 18.9,16.6 
			"/>
	<polygon class="st1" points="16.8,25.7 14.7,23.5 15.5,22.6 16.8,23.9 18.9,21.7 18.9,21.1 14.3,21.1 14.3,25.8 18.9,25.8 
		18.9,23.5 	"/>
	<polygon class="st1" points="16.8,32.6 14.7,30.4 15.5,29.6 16.8,30.8 18.9,28.6 18.9,28.1 14.3,28.1 14.3,32.7 18.9,32.7 
		18.9,30.4 	"/>
</g>
</svg>
