<svg xmlns="http://www.w3.org/2000/svg" viewBox="0 0 150 150"><defs><style>.a{fill:#fff;}</style></defs><path class="a" d="M66.71063,105.78107a12.108,12.108,0,1,1,10.55469-2.28394V110.162h7.62091a3.00879,3.00879,0,0,0,3-3V98.49341c-.51965-.79871-1.01489-1.61438-1.45441-2.465a46.80857,46.80857,0,0,1-6.05029-19.99713l-.00684-.101V68.99725a9.841,9.841,0,0,1,7.51154-9.54388V34.51575a3.00879,3.00879,0,0,0-3-3H27.52478a3.00879,3.00879,0,0,0-3,3V107.162a3.00879,3.00879,0,0,0,3,3H66.71063ZM37.669,46.3374H74.74219a1.5,1.5,0,0,1,0,3H37.669a1.5,1.5,0,1,1,0-3Zm0,10.00049H74.74219a1.5,1.5,0,0,1,0,3H37.669a1.5,1.5,0,0,1,0-3Zm0,10.001H74.74219a1.5,1.5,0,0,1,0,3H37.669a1.5,1.5,0,0,1,0-3Zm18.53613,13H37.669a1.5,1.5,0,0,1,0-3H56.20508a1.5,1.5,0,0,1,0,3Z"/><path class="a" d="M81.09735,130.48505H99.31586a11.38681,11.38681,0,0,0,11.38672-11.38666v-6.832h2.27734a2.27744,2.27744,0,0,0,2.27734-2.27735v-3.55261a25.91655,25.91655,0,0,0,12.52515-11.8421,43.54134,43.54134,0,0,0,5.69336-18.76514v-6.832a6.832,6.832,0,0,0-6.832-6.832h-6.832a4.55466,4.55466,0,1,0,4.55468,4.55463h2.27735a2.27729,2.27729,0,0,1,2.27734,2.27734v6.832A38.67087,38.67087,0,0,1,123.82,92.317c-5.147,8.97271-11.20459,10.84008-15.39478,10.84008-4.19043,0-10.248-1.86737-15.39477-10.84008a39.80879,39.80879,0,0,1-5.10132-16.4878v-6.832a2.27744,2.27744,0,0,1,2.27734-2.27734h2.27735a4.55469,4.55469,0,1,0,4.55468-4.55463h-6.832a6.83182,6.83182,0,0,0-6.83179,6.832v6.832a43.54117,43.54117,0,0,0,5.69312,18.76514,25.916,25.916,0,0,0,12.52539,11.8421v3.55261a2.27729,2.27729,0,0,0,2.27734,2.27735h2.27735v6.832a6.832,6.832,0,0,1-6.832,6.832H81.09735a6.832,6.832,0,0,1-6.832-6.832v-17.171a9.0967,9.0967,0,1,0-4.55469,1.22973v15.94129A11.38665,11.38665,0,0,0,81.09735,130.48505ZM65.15594,94.04785a4.55469,4.55469,0,1,1,4.55469,4.55463A4.55475,4.55475,0,0,1,65.15594,94.04785Z"/></svg>