<svg width="180" height="120" xmlns="http://www.w3.org/2000/svg" xmlns:xlink="http://www.w3.org/1999/xlink" xmlns:svgjs="http://svgjs.com/svgjs" viewBox="740 320 180 120"><svg width="180" height="120" xmlns="http://www.w3.org/2000/svg" xmlns:xlink="http://www.w3.org/1999/xlink" xmlns:svgjs="http://svgjs.com/svgjs" fill="#5f5f5c" x="740" y="320"><svg xmlns="http://www.w3.org/2000/svg" xmlns:xlink="http://www.w3.org/1999/xlink" width="180" height="120"><path paint-order="stroke fill markers" fill-rule="evenodd" d="M5 0h170c2.765 0 5 2.235 5 5v110c0 2.765-2.235 5-5 5H5c-2.765 0-5-2.235-5-5V5c0-2.765 2.235-5 5-5z"/></svg></svg><svg width="180" height="20" xmlns="http://www.w3.org/2000/svg" xmlns:xlink="http://www.w3.org/1999/xlink" xmlns:svgjs="http://svgjs.com/svgjs" fill="#1e1e1d" x="740" y="320"><svg xmlns="http://www.w3.org/2000/svg" xmlns:xlink="http://www.w3.org/1999/xlink" width="180" height="20"><path paint-order="stroke fill markers" fill-rule="evenodd" d="M5 0h170c2.765 0 5 2.235 5 5v15H0V5c0-2.765 2.235-5 5-5z"/></svg></svg><svg width="61" height="60" xmlns="http://www.w3.org/2000/svg" xmlns:xlink="http://www.w3.org/1999/xlink" xmlns:svgjs="http://svgjs.com/svgjs" viewBox="799 360 61 60" x="799" y="360"><svg width="61" height="60" xmlns="http://www.w3.org/2000/svg" xmlns:xlink="http://www.w3.org/1999/xlink" xmlns:svgjs="http://svgjs.com/svgjs" viewBox="799 360 61 60" x="799" y="360"><svg width="61" height="60" xmlns="http://www.w3.org/2000/svg" xmlns:xlink="http://www.w3.org/1999/xlink" xmlns:svgjs="http://svgjs.com/svgjs" fill="#7ab51d" x="799" y="360"><svg xmlns="http://www.w3.org/2000/svg" xmlns:xlink="http://www.w3.org/1999/xlink" width="61" height="60"><path paint-order="stroke fill markers" fill-rule="evenodd" d="M51 0H21c-5.513 0-10 4.487-10 10-5.513 0-10 4.487-10 10v30c0 5.513 4.487 10 10 10h30c5.513 0 10-4.487 10-10 5.513 0 10-4.487 10-10V10c0-5.543-4.487-10-10-10z"/></svg></svg></svg><svg width="15" height="29" xmlns="http://www.w3.org/2000/svg" xmlns:xlink="http://www.w3.org/1999/xlink" xmlns:svgjs="http://svgjs.com/svgjs" fill="#fff" x="841" y="376"><svg xmlns="http://www.w3.org/2000/svg" xmlns:xlink="http://www.w3.org/1999/xlink" width="15" height="29"><path paint-order="stroke fill markers" fill-rule="evenodd" d="M12.46 15.906c-.938-1.231-2.434-2.287-4.428-3.167-2.082-.968-2.962-1.73-3.314-2.17-.498-.616-.733-1.554-.733-2.757 0-1.143.323-2.052 1.027-2.727.674-.674 1.583-.997 2.697-.997 1.32 0 2.64.293 3.9.91l.822.38 1.437-3.226-.763-.38c-.557-.294-1.32-.529-2.258-.763C9.91.774 8.853.657 7.71.657c-1.32 0-2.58.293-3.695.909-1.143.616-2.052 1.466-2.668 2.58C.7 5.233.407 6.494.407 7.9c0 1.261.206 2.346.587 3.255.381.939.997 1.76 1.818 2.464.792.674 1.906 1.349 3.431 2.053 2.082.938 2.991 1.7 3.373 2.199.528.645.762 1.584.762 2.757 0 1.29-.381 2.316-1.114 3.108-.733.792-1.672 1.173-2.845 1.173-.88 0-1.789-.088-2.698-.264-.88-.176-1.642-.41-2.228-.704l-1.29-.645v3.842l.527.234c1.437.646 3.343.968 5.69.968 2.17 0 4.017-.733 5.454-2.2 1.437-1.436 2.14-3.342 2.14-5.63-.058-1.818-.557-3.343-1.554-4.604z"/></svg></svg><svg width="17" height="29" xmlns="http://www.w3.org/2000/svg" xmlns:xlink="http://www.w3.org/1999/xlink" xmlns:svgjs="http://svgjs.com/svgjs" fill="#fff" x="823" y="376"><svg xmlns="http://www.w3.org/2000/svg" xmlns:xlink="http://www.w3.org/1999/xlink" width="17" height="29"><path paint-order="stroke fill markers" fill-rule="evenodd" d="M10.519 4c1.173 0 2.258.264 3.167.821l.763.44 1.73-3.02-.763-.44c-1.378-.792-3.02-1.173-4.868-1.173-3.02 0-5.425 1.29-7.155 3.841C1.72 6.903.87 10.276.87 14.44c0 2.787.381 5.22 1.143 7.274.763 2.111 1.907 3.753 3.344 4.868 1.466 1.143 3.196 1.73 5.16 1.73 1.731 0 3.197-.293 4.282-.88l.47-.235v-3.46l-1.261.557c-.91.41-2.053.616-3.343.616-1.203 0-2.23-.381-3.109-1.173-.938-.821-1.671-1.994-2.17-3.548-.528-1.613-.821-3.549-.821-5.748 0-3.373.586-6.012 1.73-7.86C7.352 4.85 8.73 4 10.52 4z"/></svg></svg><svg width="16" height="28" xmlns="http://www.w3.org/2000/svg" xmlns:xlink="http://www.w3.org/1999/xlink" xmlns:svgjs="http://svgjs.com/svgjs" fill="#fff" x="805" y="377"><svg xmlns="http://www.w3.org/2000/svg" xmlns:xlink="http://www.w3.org/1999/xlink" width="16" height="28"><path paint-order="stroke fill markers" fill-rule="evenodd" d="M12.097 18.044c0 2.023-.352 3.548-1.056 4.545-.645.91-1.613 1.35-2.903 1.35-1.32 0-2.317-.44-2.992-1.379-.733-.968-1.114-2.493-1.114-4.457V.009H.396v17.888c0 2.933.645 5.25 1.965 6.862 1.349 1.672 3.284 2.552 5.806 2.552 3.46 0 7.595-1.642 7.595-9.414V.01h-3.665v18.035z"/></svg></svg></svg><svg width="143" height="10" xmlns="http://www.w3.org/2000/svg" xmlns:xlink="http://www.w3.org/1999/xlink" xmlns:svgjs="http://svgjs.com/svgjs" fill="#5f5f5c" x="772" y="325"><svg xmlns="http://www.w3.org/2000/svg" xmlns:xlink="http://www.w3.org/1999/xlink" width="143" height="10"><path paint-order="stroke fill markers" fill-rule="evenodd" d="M2.5 0h138c1.382 0 2.5 1.117 2.5 2.5v5c0 1.382-1.118 2.5-2.5 2.5H2.5A2.498 2.498 0 0 1 0 7.5v-5C0 1.117 1.117 0 2.5 0z"/></svg></svg><svg width="10" height="10" xmlns="http://www.w3.org/2000/svg" xmlns:xlink="http://www.w3.org/1999/xlink" xmlns:svgjs="http://svgjs.com/svgjs" fill="#5f5f5c" opacity=".698" x="745" y="325"><svg xmlns="http://www.w3.org/2000/svg" xmlns:xlink="http://www.w3.org/1999/xlink" width="10" height="10"><path paint-order="stroke fill markers" fill-rule="evenodd" d="M2.5 0H10v10H2.5A2.498 2.498 0 0 1 0 7.5v-5C0 1.117 1.117 0 2.5 0z"/></svg></svg><svg width="10" height="10" xmlns="http://www.w3.org/2000/svg" xmlns:xlink="http://www.w3.org/1999/xlink" xmlns:svgjs="http://svgjs.com/svgjs" fill="#5f5f5c" opacity=".698" x="757" y="325"><svg xmlns="http://www.w3.org/2000/svg" width="10" height="10"><path paint-order="stroke fill markers" fill-rule="evenodd" d="M0 0h7.5C8.882 0 10 1.117 10 2.5v5C10 8.882 8.882 10 7.5 10H0V0z"/></svg></svg></svg>