<?xml version="1.0" encoding="UTF-8" standalone="no"?>
<!-- The icon can be used freely in both personal and commercial projects with no attribution required, but always appreciated. 
You may NOT sub-license, resell, rent, redistribute or otherwise transfer the icon without express written permission from iconmonstr.com -->

<svg
   xmlns:dc="http://purl.org/dc/elements/1.1/"
   xmlns:cc="http://creativecommons.org/ns#"
   xmlns:rdf="http://www.w3.org/1999/02/22-rdf-syntax-ns#"
   xmlns:svg="http://www.w3.org/2000/svg"
   xmlns="http://www.w3.org/2000/svg"
   xmlns:sodipodi="http://sodipodi.sourceforge.net/DTD/sodipodi-0.dtd"
   xmlns:inkscape="http://www.inkscape.org/namespaces/inkscape"
   version="1.1"
   x="0px"
   y="0px"
   width="512px"
   height="512px"
   viewBox="0 0 512 512"
   enable-background="new 0 0 512 512"
   xml:space="preserve"
   id="svg2"
   inkscape:version="0.48.3.1 r9886"
   sodipodi:docname="iconmonstr-shopping-cart-3-icon.svg"><metadata
   id="metadata9"><rdf:RDF><cc:Work
       rdf:about=""><dc:format>image/svg+xml</dc:format><dc:type
         rdf:resource="http://purl.org/dc/dcmitype/StillImage" /><dc:title></dc:title></cc:Work></rdf:RDF></metadata><defs
   id="defs7" /><sodipodi:namedview
   pagecolor="#ffffff"
   bordercolor="#666666"
   borderopacity="1"
   objecttolerance="10"
   gridtolerance="10"
   guidetolerance="10"
   inkscape:pageopacity="0"
   inkscape:pageshadow="2"
   inkscape:window-width="640"
   inkscape:window-height="480"
   id="namedview5"
   showgrid="false"
   inkscape:zoom="0.4609375"
   inkscape:cx="256"
   inkscape:cy="256"
   inkscape:window-x="1872"
   inkscape:window-y="207"
   inkscape:window-maximized="0"
   inkscape:current-layer="svg2" />
<path
   id="shopping-cart-3-icon"
   d="M346.914,143.609H50.168l53.563,121.166h205.085L346.914,143.609z M461.832,105.109l-12.746,40  h-29.98l-59.178,188.166H132.856l-17.625-40H330.68l59.18-188.166H461.832z M316.816,380c0,14.852-12.039,26.891-26.891,26.891  S263.035,394.852,263.035,380s12.039-26.891,26.891-26.891S316.816,365.148,316.816,380z M227.933,380  c0,14.852-12.04,26.891-26.893,26.891c-14.852,0-26.891-12.039-26.891-26.891s12.039-26.891,26.891-26.891  C215.893,353.109,227.933,365.148,227.933,380z" />
</svg>