<?xml version="1.0" encoding="UTF-8" standalone="no"?>
<!-- Created with Inkscape (http://www.inkscape.org/) -->

<svg
   xmlns:dc="http://purl.org/dc/elements/1.1/"
   xmlns:cc="http://creativecommons.org/ns#"
   xmlns:rdf="http://www.w3.org/1999/02/22-rdf-syntax-ns#"
   xmlns:svg="http://www.w3.org/2000/svg"
   xmlns="http://www.w3.org/2000/svg"
   version="1.1"
   width="50"
   height="50"
   id="svg5457">
  <defs
     id="defs5459" />
  <metadata
     id="metadata5462">
    <rdf:RDF>
      <cc:Work
         rdf:about="">
        <dc:format>image/svg+xml</dc:format>
        <dc:type
           rdf:resource="http://purl.org/dc/dcmitype/StillImage" />
        <dc:title></dc:title>
      </cc:Work>
    </rdf:RDF>
  </metadata>
  <g
     transform="translate(-175.02238,-558.77718)"
     id="layer1">
    <path
       d="m 216.68927,558.77718 -25.00066,0 c -4.60038,0 -8.32646,3.72721 -8.33312,8.32601 l -0.008,0 0,0.009 c -4.60038,0.005 -8.32513,3.7312 -8.32513,8.33134 l 0,24.99933 c 0,4.60413 3.73141,8.334 8.33311,8.334 l 25.00067,0 c 4.60304,0 8.33311,-3.72987 8.33311,-8.334 4.60171,0 8.33311,-3.72987 8.33311,-8.334 l 0,-24.998 c 0,-4.6028 -3.7314,-8.334 -8.33311,-8.334"
       id="path976-4"
       style="fill:#282828;fill-opacity:0.19428573;fill-rule:nonzero;stroke:none" />
    <path
       d="m 179.61877,573.2513 2.71738,0 0,13.64338 c 0,4.66534 1.41591,5.84697 3.9869,5.84697 2.56834,0 3.98558,-1.18163 3.98558,-5.84697 l 0,-13.64338 2.7187,0 0,13.52495 c 0,5.90685 -2.18508,8.23819 -6.70428,8.23819 -4.51787,0 -6.70428,-2.33134 -6.70428,-8.23819 l 0,-13.52495 z"
       id="path980-0"
       style="fill:#ffffff;fill-opacity:1;fill-rule:nonzero;stroke:none" />
    <path
       d="m 203.93863,579.12781 c 0.0293,-1.21091 -0.0599,-2.42182 -0.62013,-3.10047 -0.56157,-0.67997 -1.8311,-0.9155 -2.39267,-0.9155 -2.24496,0 -3.12991,1.35862 -3.21907,1.6527 -0.0878,0.23553 -0.62146,0.76779 -0.62146,4.4298 l 0,5.69927 c 0,5.22954 1.714,5.84831 3.81125,5.84831 0.82639,0 3.3375,-0.29541 3.36678,-4.45776 l 2.80521,0 c 0.1171,6.73187 -4.63498,6.73187 -6.02428,6.73187 -2.65882,0 -6.73488,-0.17698 -6.73488,-8.44577 l 0,-6.02528 c 0,-6.02396 2.65749,-7.73653 6.85332,-7.73653 4.22245,0 5.84595,2.18629 5.58114,6.31936 l -2.80521,0 z"
       id="path984-3"
       style="fill:#ffffff;fill-opacity:1;fill-rule:nonzero;stroke:none" />
    <path
       d="m 210.44356,588.22429 0,0.61876 c 0,2.89421 1.8311,3.80972 3.57304,3.80972 2.15581,0 3.81125,-0.91551 3.81125,-3.45443 0,-4.72521 -9.5707,-4.19295 -9.5707,-10.60146 0,-3.78044 2.68943,-5.78843 6.26114,-5.78843 3.90041,0 6.08549,1.89089 5.90717,6.23021 l -2.83448,0 c 0.0293,-2.33267 -0.70929,-3.86826 -3.27895,-3.86826 -1.62484,0 -3.27762,0.82634 -3.27762,3.13107 0,4.69461 9.56937,4.0173 9.56937,10.77844 0,4.48969 -3.10196,5.93613 -6.61645,5.93613 -6.29042,0.0585 -6.29042,-4.75449 -6.22921,-6.79175 l 2.68544,0 z"
       id="path988-7"
       style="fill:#ffffff;fill-opacity:1;fill-rule:nonzero;stroke:none" />
  </g>
</svg>
