<?xml version="1.0" encoding="UTF-8" standalone="no"?>
<svg
   xmlns:dc="http://purl.org/dc/elements/1.1/"
   xmlns:cc="http://creativecommons.org/ns#"
   xmlns:rdf="http://www.w3.org/1999/02/22-rdf-syntax-ns#"
   xmlns:svg="http://www.w3.org/2000/svg"
   xmlns="http://www.w3.org/2000/svg"
   xmlns:sodipodi="http://sodipodi.sourceforge.net/DTD/sodipodi-0.dtd"
   xmlns:inkscape="http://www.inkscape.org/namespaces/inkscape"
   width="24"
   height="24"
   viewBox="0 0 24 24"
   version="1.1"
   id="svg885"
   sodipodi:docname="app-center.svg"
   inkscape:version="0.92.4 (unknown)">
  <metadata
     id="metadata891">
    <rdf:RDF>
      <cc:Work
         rdf:about="">
        <dc:format>image/svg+xml</dc:format>
        <dc:type
           rdf:resource="http://purl.org/dc/dcmitype/StillImage" />
        <dc:title />
      </cc:Work>
    </rdf:RDF>
  </metadata>
  <defs
     id="defs889" />
  <sodipodi:namedview
     pagecolor="#ffffff"
     bordercolor="#666666"
     borderopacity="1"
     objecttolerance="10"
     gridtolerance="10"
     guidetolerance="10"
     inkscape:pageopacity="0"
     inkscape:pageshadow="2"
     inkscape:window-width="1916"
     inkscape:window-height="1005"
     id="namedview887"
     showgrid="false"
     inkscape:zoom="9.8333333"
     inkscape:cx="9.1525424"
     inkscape:cy="13.118644"
     inkscape:window-x="0"
     inkscape:window-y="73"
     inkscape:window-maximized="0"
     inkscape:current-layer="svg885" />
  <path
     d="M 10.962891 0 C 8.8668906 0 7.0059531 2.004625 7.0019531 4.265625 L 7.0019531 6.5019531 C 7.0019531 6.8079531 7.2722656 7.0381406 7.5722656 6.9941406 C 7.8172656 6.9571406 8 6.748 8 6.5 L 8 4.2675781 C 8.002 2.5575781 9.4158906 1 10.962891 1 L 11.125 1.015625 C 11.491 0.732625 11.8895 0.50203125 12.3125 0.33203125 C 11.9075 0.12503125 11.454891 -3.7007434e-17 10.962891 0 z M 13.962891 1 C 11.865891 1 10.005953 3.004625 10.001953 5.265625 L 10 6.9492188 C 10 7.2542187 10.272219 7.4893594 10.574219 7.4433594 C 10.818219 7.4063594 11 7.1962187 11 6.9492188 L 11 5.2675781 C 11.003 3.5575781 12.415891 2 13.962891 2 C 14.499891 2 14.979656 2.1954531 15.347656 2.5644531 C 15.769656 2.9874531 16.001 3.5990156 16 4.2910156 L 16 6.0371094 C 16 6.3421094 16.272219 6.57725 16.574219 6.53125 C 16.817219 6.49425 16.998047 6.2850625 16.998047 6.0390625 L 17 4.2910156 C 17.002 2.3870156 15.679891 1 13.962891 1 z M 21 7 L 8 8.875 L 8 24 L 21 22.046875 L 21 7 z M 3 7.4082031 L 3 21.607422 L 6 23.730469 L 6 8.7675781 L 3 7.4082031 z M 17.771484 10.888672 A 1.2465711 1.2465711 0 0 1 19.033203 12.15625 L 19.072266 16.546875 A 1.7445651 1.7445651 0 0 1 17.623047 18.242188 A 1.7683546 1.7683546 0 0 1 16.160156 19.957031 L 11.701172 20.615234 A 1.2545009 1.2545009 0 0 1 10.216797 19.324219 L 10.257812 14.835938 A 1.7715266 1.7715266 0 0 1 11.748047 13.152344 A 1.7445651 1.7445651 0 0 1 13.224609 11.494141 L 17.580078 10.904297 A 1.2465711 1.2465711 0 0 1 17.771484 10.888672 z M 16.279297 12.541016 L 16.292969 16.851562 C 16.110583 17.340041 15.359258 17.749796 14.548828 17.816406 C 13.562356 17.898876 13.085554 17.602101 13.058594 17.275391 L 13.076172 12.978516 L 11.751953 13.162109 L 11.724609 17.603516 C 11.742054 18.448837 12.302295 18.972359 13.203125 18.886719 L 15.388672 18.570312 A 2.0458991 2.0458991 0 0 0 16.304688 17.787109 L 16.304688 18.435547 L 16.494141 18.40625 L 17.609375 18.25 L 17.582031 13.822266 A 0.88179836 0.88179836 0 0 0 17.582031 13.689453 A 1.0372232 1.0372232 0 0 0 17.556641 13.53125 C 17.374254 12.64628 16.437894 12.541016 16.279297 12.541016 z "
     id="path883"
     style="fill:#ffffff;fill-opacity:1" />
</svg>
