<svg id="Ebene_1" data-name="Ebene 1" xmlns="http://www.w3.org/2000/svg" viewBox="0 0 180 180"><defs><style>.cls-1{fill:none;}.cls-2{fill:#878682;stroke:#fff;stroke-miterlimit:10;stroke-width:1.29px;}.cls-3{fill:#fff;}</style></defs><title>icon_g_08-180x180_App_Center_Tüte</title><rect class="cls-1" width="180" height="180"/><polygon class="cls-2" points="117.25 132.98 41.14 119.94 41.14 37.87 117.25 32.14 117.25 132.98"/><polygon class="cls-2" points="137.3 140.27 117.25 138.66 117.25 32.14 138.74 35.88 137.3 140.27"/><polygon class="cls-2" points="58.67 147.86 41.14 139.71 41.14 38.11 62.97 39.51 58.59 42.97 58.67 147.86"/><polygon class="cls-2" points="138.24 140.51 58.67 147.86 58.67 42.97 138.86 36.06 138.24 140.51"/><path class="cls-3" d="M126.43,70.72a7.86,7.86,0,0,0-9.16-7.89L89.81,66.54A11,11,0,0,0,80.5,77a11.17,11.17,0,0,0-9.39,10.61l-.26,28.3a7.91,7.91,0,0,0,9.36,8.15l28.11-4.16a11.15,11.15,0,0,0,9.23-10.81,11,11,0,0,0,9.13-10.69Zm-8.92,38.41-7.08,1-1.2.18,0-4.09a12.9,12.9,0,0,1-5.77,4.94l-13.78,2c-5.68.54-9.22-2.77-9.33-8.1l.18-28,8.34-1.16L88.76,103c.17,2.06,3.18,3.93,9.4,3.41,5.11-.42,9.85-3,11-6.08l-.09-27.19c1,0,6.91.67,8.06,6.25a6.54,6.54,0,0,1,.16,1h0a5.56,5.56,0,0,1,0,.83l.17,27.92Z"/></svg>