<?xml version="1.0" encoding="utf-8"?>
<!-- Generator: Adobe Illustrator 22.1.0, SVG Export Plug-In . SVG Version: 6.00 Build 0)  -->
<svg version="1.1"
	 id="svg5124" inkscape:version="0.91 r13725" sodipodi:docname="appcenter-ucs-component-green.svg" xmlns:cc="http://creativecommons.org/ns#" xmlns:dc="http://purl.org/dc/elements/1.1/" xmlns:inkscape="http://www.inkscape.org/namespaces/inkscape" xmlns:rdf="http://www.w3.org/1999/02/22-rdf-syntax-ns#" xmlns:sodipodi="http://sodipodi.sourceforge.net/DTD/sodipodi-0.dtd" xmlns:svg="http://www.w3.org/2000/svg"
	 xmlns="http://www.w3.org/2000/svg" xmlns:xlink="http://www.w3.org/1999/xlink" x="0px" y="0px" viewBox="0 0 80 95"
	 style="enable-background:new 0 0 80 95;" xml:space="preserve">
<style type="text/css">
	.st0{fill:#FFFFFF;}
	.st1{display:none;}
	.st2{display:inline;fill:url(#path1796_1_);}
	.st3{display:inline;fill:#FFFFFF;}
	.st4{clip-path:url(#SVGID_2_);}
	.st5{clip-path:url(#SVGID_4_);fill:#76B72A;}
	.st6{clip-path:url(#SVGID_4_);fill:#FFFFFF;}
</style>
<sodipodi:namedview  bordercolor="#646464" borderopacity="0.89411765" fit-margin-bottom="0" fit-margin-left="0" fit-margin-right="0" fit-margin-top="0" gridtolerance="10" guidetolerance="10" id="namedview40" inkscape:current-layer="svg5124" inkscape:cx="44.276965" inkscape:cy="38.917605" inkscape:pageopacity="0" inkscape:pageshadow="2" inkscape:window-height="1013" inkscape:window-maximized="1" inkscape:window-width="1680" inkscape:window-x="-6" inkscape:window-y="0" inkscape:zoom="5.3400704" objecttolerance="10" pagecolor="#ffffff" showgrid="false">
	</sodipodi:namedview>
<rect id="rect4166" x="5.6" y="30.2" class="st0" width="69.1" height="42.1"/>
<g id="g4173" transform="matrix(0.37871611,0,0,0.378695,-7.3395132,3.6631275)" class="st1">
	
		<linearGradient id="path1796_1_" gradientUnits="userSpaceOnUse" x1="1141.5734" y1="-524.194" x2="1141.5734" y2="-406.1215" gradientTransform="matrix(0.6132 0 0 -0.6131 -574.9791 -100.0512)">
		<stop  offset="0" style="stop-color:#7BB51F"/>
		<stop  offset="1" style="stop-color:#8FBE44"/>
	</linearGradient>
	<path id="path1796" inkscape:connector-curvature="0" class="st2" d="M192.8,23.3H91.1c-18.7,0-33.9,15.2-33.9,33.9h0v0
		c-18.7,0-33.9,15.2-33.9,33.9v101.7c0,18.7,15.2,33.9,33.9,33.9h101.7c18.7,0,33.9-15.2,33.9-33.9c18.7,0,33.9-15.2,33.9-33.9V57.2
		C226.7,38.5,211.5,23.3,192.8,23.3"/>
	<path id="path1800" inkscape:connector-curvature="0" class="st3" d="M42,82.2h11v55.5c0,19,5.8,23.8,16.2,23.8
		c10.4,0,16.2-4.8,16.2-23.8V82.2h11.1v55c0,24-8.9,33.5-27.3,33.5c-18.4,0-27.3-9.5-27.3-33.5C42,137.2,42,82.2,42,82.2z"/>
	<path id="path1804" inkscape:connector-curvature="0" class="st3" d="M140.9,106.1c0.1-4.9-0.2-9.9-2.5-12.6
		c-2.3-2.8-7.4-3.7-9.7-3.7c-9.1,0-12.7,5.5-13.1,6.7c-0.4,1-2.5,3.1-2.5,18v23.2c0,21.3,7,23.8,15.5,23.8c3.4,0,13.6-1.2,13.7-18.1
		h11.4c0.5,27.4-18.9,27.4-24.5,27.4c-10.8,0-27.4-0.7-27.4-34.3v-24.5c0-24.5,10.8-31.5,27.9-31.5c17.2,0,23.8,8.9,22.7,25.7
		C152.3,106.1,140.9,106.1,140.9,106.1z"/>
	<path id="path1808" inkscape:connector-curvature="0" class="st3" d="M167.4,143.1v2.5c0,11.8,7.4,15.5,14.5,15.5
		c8.8,0,15.5-3.7,15.5-14c0-19.2-38.9-17.1-38.9-43.1c0-15.4,10.9-23.5,25.5-23.5c15.9,0,24.7,7.7,24,25.3h-11.5
		c0.1-9.5-2.9-15.7-13.3-15.7c-6.6,0-13.3,3.4-13.3,12.7c0,19.1,38.9,16.3,38.9,43.8c0,18.3-12.6,24.1-26.9,24.1
		c-25.6,0.2-25.6-19.3-25.3-27.6H167.4L167.4,143.1z"/>
</g>
<g id="Bildmaterial_2_1_">
	<g>
		<defs>
			<rect id="SVGID_1_" x="1.5" y="12.5" width="77" height="77"/>
		</defs>
		<clipPath id="SVGID_2_">
			<use xlink:href="#SVGID_1_"  style="overflow:visible;"/>
		</clipPath>
		<g class="st4">
			<defs>
				<rect id="SVGID_3_" x="1.5" y="12.5" width="77" height="77"/>
			</defs>
			<clipPath id="SVGID_4_">
				<use xlink:href="#SVGID_3_"  style="overflow:visible;"/>
			</clipPath>
			<path class="st5" d="M65.6,12.5H27.2c-7.1,0-12.8,5.7-12.8,12.8h0v0c-7.1,0-12.8,5.7-12.8,12.8v38.5c0,7.1,5.7,12.8,12.8,12.8
				h38.5c7.1,0,12.8-5.7,12.8-12.8c7.1,0,12.8-5.7,12.8-12.8V25.3C78.5,18.2,72.7,12.5,65.6,12.5"/>
			<path class="st6" d="M23.5,57.5c0,2.6-0.5,4.6-1.4,5.8C21.2,64.5,20,65,18.4,65c-1.7,0-3-0.6-3.9-1.8c-1-1.3-1.4-3.2-1.4-5.7
				V34.3H8.4v23c0,3.8,0.8,6.7,2.5,8.8c1.7,2.2,4.2,3.3,7.4,3.3c4.4,0,9.7-2.1,9.7-12.1v-23h-4.6V57.5z"/>
			<path class="st6" d="M44.5,38.2c1.5,0,2.9,0.3,4.1,1l1,0.6l2.2-3.9l-1-0.6c-1.8-1-3.9-1.5-6.2-1.5c-3.9,0-7,1.7-9.2,4.9
				c-2.1,3.1-3.2,7.4-3.2,12.8c0,3.6,0.5,6.7,1.5,9.3c1,2.7,2.4,4.8,4.3,6.3c1.9,1.5,4.1,2.2,6.6,2.2c2.2,0,4.1-0.4,5.5-1.1l0.6-0.3
				v-4.4L49,64.2c-1.2,0.5-2.6,0.8-4.3,0.8c-1.5,0-2.8-0.5-4-1.5c-1.2-1-2.1-2.6-2.8-4.6c-0.7-2.1-1-4.6-1-7.4
				c0-4.3,0.7-7.7,2.2-10.1C40.4,39.3,42.2,38.2,44.5,38.2"/>
			<path class="st6" d="M70.1,53.4c-1.2-1.6-3.1-2.9-5.7-4.1c-2.7-1.2-3.8-2.2-4.3-2.8c-0.6-0.8-0.9-2-0.9-3.5
				c0-1.5,0.4-2.6,1.3-3.5c0.9-0.9,2-1.3,3.5-1.3c1.7,0,3.4,0.4,5,1.2l1,0.5l1.8-4.1l-1-0.5c-0.7-0.4-1.7-0.7-2.9-1
				c-1.2-0.3-2.6-0.5-4-0.5c-1.7,0-3.3,0.4-4.7,1.2c-1.5,0.8-2.6,1.9-3.4,3.3c-0.8,1.4-1.2,3-1.2,4.8c0,1.6,0.3,3,0.7,4.2
				c0.5,1.2,1.3,2.3,2.3,3.2c1,0.9,2.4,1.7,4.4,2.6c2.7,1.2,3.8,2.2,4.3,2.8c0.7,0.8,1,2,1,3.5c0,1.7-0.5,3-1.4,4
				c-1,1-2.1,1.5-3.6,1.5c-1.1,0-2.3-0.1-3.5-0.4c-1.1-0.2-2.1-0.5-2.8-0.9l-1.6-0.8v4.9l0.7,0.3c1.9,0.8,4.3,1.2,7.3,1.2
				c2.8,0,5.1-0.9,7-2.8c1.8-1.9,2.8-4.3,2.8-7.2C72,57,71.4,55.1,70.1,53.4"/>
		</g>
	</g>
</g>
</svg>
