<svg xmlns="http://www.w3.org/2000/svg" viewBox="0 0 150 150"><defs><style>.a{fill:#fff;}</style></defs><path class="a" d="M90.648,106.27551a23.73641,23.73641,0,0,1,23.70959-23.70959c.45472,0,.9057.01587,1.35419.04126v-24.641H38.04443v53.192a3.00886,3.00886,0,0,0,3,3H92.00049A23.59533,23.59533,0,0,1,90.648,106.27551ZM65.57617,70.57422a3,3,0,0,1,0-6H88.92188a3,3,0,1,1,0,6Z"/><path class="a" d="M119.94592,107.07385h-4.0885V98.33252a1.5,1.5,0,0,0-3,0v8.74133H109.213c-2.2,0-2.72723,1.27283-1.17157,2.82843l3.48773,3.4878a4.01183,4.01183,0,0,0,5.65686,0l3.4878-3.4878C122.22937,108.34668,121.90186,107.07385,119.94592,107.07385Z"/><rect class="a" x="31.7572" y="34.07776" width="90.24182" height="17.88843" rx="3"/><path class="a" d="M114.35742,85.56592a20.70947,20.70947,0,1,0,20.71,20.70947A20.73258,20.73258,0,0,0,114.35742,85.56592Zm0,38.41894a17.70947,17.70947,0,1,1,17.71-17.70947A17.72929,17.72929,0,0,1,114.35742,123.98486Z"/></svg>