<svg xmlns="http://www.w3.org/2000/svg" viewBox="0 0 150 150"><defs><style>.a{fill:#fff;}</style></defs><path class="a" d="M121.08226,102.52606l1.98679-2.78151-2.17726-2.17726-2.7815,1.98679a7.58451,7.58451,0,0,0-1.642-.68306l-.56812-3.371h-3.0787l-.56156,3.371a7.619,7.619,0,0,0-1.642.68306l-2.78151-1.98679-2.18382,2.17726,1.98679,2.78151a7.58376,7.58376,0,0,0-.68307,1.642l-3.371.56812v3.07871l3.371.56155a7.584,7.584,0,0,0,.68307,1.642l-1.98679,2.7815,2.17561,2.17726,2.78151-1.98679a7.63146,7.63146,0,0,0,1.642.68306l.56977,3.37755h3.0787l.56156-3.371a7.65285,7.65285,0,0,0,1.642-.68306l2.78151,1.98679,2.17726-2.17726L121.0757,110.025a7.66645,7.66645,0,0,0,.68306-1.642l3.371-.56156v-3.08527l-3.371-.56155A7.58411,7.58411,0,0,0,121.08226,102.52606Zm-6.7206,6.829a3.0787,3.0787,0,1,1,3.0787-3.0787h0A3.0787,3.0787,0,0,1,114.36166,109.355Z"/><path class="a" d="M90.648,106.27551a23.73641,23.73641,0,0,1,23.70959-23.70959c.45472,0,.9057.01587,1.35419.04126v-24.641H38.04443v53.192a3.00886,3.00886,0,0,0,3,3H92.00049A23.59533,23.59533,0,0,1,90.648,106.27551ZM65.57617,70.57422a3,3,0,0,1,0-6H88.92188a3,3,0,1,1,0,6Z"/><rect class="a" x="31.7572" y="34.07776" width="90.24182" height="17.88843" rx="3"/><path class="a" d="M114.35742,85.56592a20.70947,20.70947,0,1,0,20.71,20.70947A20.73258,20.73258,0,0,0,114.35742,85.56592Zm0,38.41894a17.70947,17.70947,0,1,1,17.71-17.70947A17.72929,17.72929,0,0,1,114.35742,123.98486Z"/></svg>