<?xml version="1.0" encoding="utf-8"?>
<!-- Generator: Adobe Illustrator 24.0.2, SVG Export Plug-In . SVG Version: 6.00 Build 0)  -->
<svg version="1.1" id="Ebene_1" xmlns="http://www.w3.org/2000/svg" xmlns:xlink="http://www.w3.org/1999/xlink" x="0px" y="0px"
	 viewBox="0 0 400 289.7" style="enable-background:new 0 0 400 289.7;" xml:space="preserve">
<style type="text/css">
	.st0{fill:#868681;}
</style>
<title>Einrichtung-einstellung</title>
<path class="st0" d="M259.1,172.7c-15.2-26.5-6-60.3,20.4-75.5l-28.5-49.4c-8.4,4.9-17.9,7.5-27.7,7.5
	c-30.5-0.1-55.2-24.9-55.1-55.5c0,0,0,0,0,0h-56.9c0.1,9.8-2.4,19.4-7.3,27.8C88.7,54.1,54.9,63,28.5,47.7L0,97.1
	c8.5,4.8,15.5,11.8,20.3,20.2c15.1,26.4,6.1,60.1-20.3,75.4l28.5,49.3c8.4-4.9,17.9-7.4,27.6-7.4c30.4,0.1,55,24.8,55.1,55.2h56.9
	c0-9.7,2.5-19.2,7.4-27.5c15.3-26.3,49-35.3,75.4-20.1l28.5-49.3C270.9,188.1,263.9,181.1,259.1,172.7L259.1,172.7z M139.8,203.6
	c-32.4,0-58.7-26.3-58.7-58.7c0-32.4,26.3-58.7,58.7-58.7c32.4,0,58.7,26.3,58.7,58.7c0,0,0,0,0,0
	C198.4,177.3,172.2,203.6,139.8,203.6L139.8,203.6z"/>
<path class="st0" d="M376.2,0.6l-0.7,40.9l-43.6-0.7l0.7-40.9c-22.8,11.7-31.7,39.7-20,62.5c4.2,8.1,10.7,14.8,18.6,19.3l-2.1,125.7
	c-22.8,11.7-31.7,39.7-20,62.4c4.2,8.1,10.7,14.9,18.7,19.3l0.7-40.9l43.6,0.7l-0.7,40.9c22.8-11.7,31.7-39.7,20-62.4
	c-4.2-8.1-10.7-14.9-18.7-19.3l2.1-125.8c22.8-11.7,31.7-39.7,20-62.4C390.7,11.8,384.2,5.1,376.2,0.6L376.2,0.6z"/>
</svg>
