<svg id="Ebene_1" data-name="Ebene 1" xmlns="http://www.w3.org/2000/svg" viewBox="0 0 400 350.02"><defs><style>.cls-1{fill:#868681;}</style></defs><title>Display-eye</title><path class="cls-1" d="M0,25V275H400V25ZM374.94,250H25V50h350ZM262.46,300h-125L125,350l-25,25H300l-25-25Z" transform="translate(0 -24.99)"/><path class="cls-1" d="M199.36,130a21.47,21.47,0,1,0,21.47,21.47A21.49,21.49,0,0,0,199.36,130Z" transform="translate(0 -24.99)"/><path class="cls-1" d="M199.42,110.9c-42.88.54-93.4,20.33-93.4,40.54s50.52,40,93.4,40.53c45,.56,97.6-20,97.6-40.53S244.43,110.4,199.42,110.9Zm-.06,70a29.48,29.48,0,1,1,29.47-29.48A29.51,29.51,0,0,1,199.36,180.91Z" transform="translate(0 -24.99)"/></svg>