<svg xmlns="http://www.w3.org/2000/svg" viewBox="0 0 150 150"><defs><style>.a{fill:#fff;}</style></defs><path class="a" d="M117.40784,71.00977V75.563h-26.09l-4.98969-8.66113c-.00482-.00837-.01159-.01484-.01654-.02308a1.49244,1.49244,0,0,0-.09442-.13134c-.02752-.03626-.05267-.07465-.08294-.10779s-.06586-.0614-.09931-.09192a1.50433,1.50433,0,0,0-.12042-.10535c-.03088-.02258-.066-.04028-.09894-.06067a1.50146,1.50146,0,0,0-.15692-.08941c-.00775-.0036-.014-.009-.02191-.01251-.03186-.01417-.06482-.02015-.09711-.03193a1.49913,1.49913,0,0,0-.15655-.05151,1.4706,1.4706,0,0,0-.1521-.02551c-.04407-.00605-.08747-.01343-.132-.01557a1.45458,1.45458,0,0,0-.1673.00434c-.04046.00256-.08056.00372-.12091.00964a1.48535,1.48535,0,0,0-.171.03857c-.03711.01-.07416.018-.11078.031a1.50169,1.50169,0,0,0-.17669.07941c-.02405.0122-.04944.01922-.07306.03283l-.0174.01252a1.48845,1.48845,0,0,0-.1593.11444c-.02716.02148-.05676.0404-.08209.06341a1.49336,1.49336,0,0,0-.10816.11682c-.03082.03461-.06384.06739-.09106.10444-.02435.0332-.04352.07086-.06537.1065a1.5022,1.5022,0,0,0-.08575.15051c-.00373.00806-.00934.01459-.01294.02277L77.72705,80.41034,72.4668,55.83984c-.00446-.02087-.01386-.03906-.01911-.05951a1.4861,1.4861,0,0,0-.04791-.149c-.017-.04572-.03461-.09052-.05572-.13367-.02063-.04218-.04426-.08209-.06867-.12219a1.46988,1.46988,0,0,0-.08252-.12427c-.02917-.03857-.0614-.07416-.09424-.10986-.03149-.03406-.06262-.06763-.097-.09845a1.47861,1.47861,0,0,0-.12348-.09754c-.03509-.02545-.06994-.05035-.10711-.07269a1.4853,1.4853,0,0,0-.14106-.07306c-.04217-.01959-.08435-.0379-.12823-.05359-.02246-.008-.04218-.0202-.06519-.02722-.028-.00861-.05621-.00989-.08435-.01678-.04425-.01075-.08832-.0199-.13373-.02668a1.46367,1.46367,0,0,0-.1701-.0155c-.039-.00128-.07776-.00116-.11725.00055a1.46774,1.46774,0,0,0-.18194.01977c-.02131.00354-.0423.00239-.0636.0069-.01831.00391-.03424.01227-.05225.01679a1.49064,1.49064,0,0,0-.16467.053c-.04077.01544-.08075.03118-.11951.04986a1.47682,1.47682,0,0,0-.13281.07459c-.04047.025-.08032.04992-.11792.07837-.03827.029-.07367.06091-.10913.0935-.03583.0329-.07086.06574-.10321.10187-.03168.03528-.06.07312-.08838.11157-.02966.04016-.05823.08045-.08374.12335-.02332.03931-.04346.08026-.06336.12207a1.50429,1.50429,0,0,0-.06225.14869c-.0069.01971-.0177.03692-.02387.05706l-5.44494,17.9195-3.87928-6.73493a1.78727,1.78727,0,0,0-2.89843,0L52.35327,75.563H32.59216V45.09552H90.21289a53.06432,53.06432,0,0,1,8.405-6H29.59216a3.00887,3.00887,0,0,0-3,3V96.60529a3.00891,3.00891,0,0,0,3,3H59.7218L56.84705,112.854l-6.051,6.051H99.20392l-6.051-6.051L90.2782,99.60529h30.12964a3.00891,3.00891,0,0,0,3-3V70.17358A31.22461,31.22461,0,0,1,117.40784,71.00977Zm0,22.59552H32.59216V78.563h20.401l.01819-.00183a1.36793,1.36793,0,0,0,1.49549-.72669L58.791,70.39661l4.28418,7.43786a1.49933,1.49933,0,0,0,1.30078.752c.04724,0,.0943-.01386.14166-.01838.041.00336.08234.01838.123.01838A1.50159,1.50159,0,0,0,66.0752,77.522l4.673-15.379,5.0116,23.40882c.00268.01263.011.02215.014.0346a1.50535,1.50535,0,0,0,.17871.44172l.0058.00988a1.49336,1.49336,0,0,0,.30066.337c.01843.01568.03479.03247.054.04724a1.48956,1.48956,0,0,0,.30529.18671c.02338.01037.04755.01391.07111.023.03033.01172.06061.01989.09174.02966a1.49208,1.49208,0,0,0,.44213.07648l.00147.00024.00049-.00006.00049.00006.0028-.00043a1.5244,1.5244,0,0,0,.31263-.03326c.02294-.00494.04309-.0152.06555-.02112.03314-.00873.06433-.0202.0968-.03113a1.48412,1.48412,0,0,0,.28155-.12786c.02234-.01313.04541-.02338.06714-.03772A1.48982,1.48982,0,0,0,78.337,86.241c.01849-.02045.03381-.043.0512-.06458a1.4988,1.4988,0,0,0,.18567-.29272c.00659-.01373.01758-.02356.02381-.03754L85.20221,70.958,89.16406,77.835a1.3585,1.3585,0,0,0,1.48139.728h26.76239Z"/><path class="a" d="M116.25,44.32617a8.1897,8.1897,0,1,0,8.18945,8.18994A8.19911,8.19911,0,0,0,116.25,44.32617Zm0,13.3794a5.1897,5.1897,0,1,1,0-10.3794,5.12317,5.12317,0,0,1,1.67572.302,2.88918,2.88918,0,0,0,3.4776,4.53083c.00836.12017.03613.2348.03613.35711A5.19552,5.19552,0,0,1,116.25,57.70557Z"/><path class="a" d="M143.56445,50.47656l-.001-.00146c-.49414-.5503-12.26368-13.4834-27.31348-13.4834-15.02637,0-26.81836,12.93164-27.31543,13.48486a3.05622,3.05622,0,0,0,.002,4.08057C89.43066,55.10791,101.21289,68.04,116.25,68.04c15.06055,0,26.82031-12.93359,27.31445-13.48486A3.0558,3.0558,0,0,0,143.56445,50.47656ZM141.3291,52.5542C141.2168,52.6792,129.98438,65.04,116.25,65.04c-13.71289,0-24.96875-12.36182-25.08105-12.561.11132-.125,11.37793-12.4873,25.08105-12.4873C129.97461,39.9917,141.3291,52.5542,141.3291,52.5542Z"/></svg>