<?xml version="1.0" encoding="UTF-8" standalone="no"?><svg xmlns="http://www.w3.org/2000/svg" viewBox="0 0 150 150"><defs><style>.a{fill:#fff;}</style></defs><path class="a" d="M63.0907,75.02977A11.9093,11.9093,0,1,1,75,86.93907,11.9093,11.9093,0,0,1,63.0907,75.02977ZM89.17206,48.82932a29.77324,29.77324,0,0,1,0,52.34135,49.95951,49.95951,0,0,0,6.66921-26.1409A50.019,50.019,0,0,0,89.17206,48.82932ZM54.15873,75.02977a49.95951,49.95951,0,0,0,6.66921,26.1409,29.77324,29.77324,0,0,1,0-52.34135A50.019,50.019,0,0,0,54.15873,75.02977Zm-17.86394,0A63.83386,63.83386,0,0,0,49.395,115.1641a47.6372,47.6372,0,0,1,0-80.3282A63.89337,63.89337,0,0,0,36.29479,75.02977ZM100.605,34.8359a47.63718,47.63718,0,0,1,0,80.3282,63.83386,63.83386,0,0,0,13.10022-40.13433A63.89337,63.89337,0,0,0,100.605,34.8359Z"/></svg>
