<?xml version="1.0" encoding="UTF-8" standalone="no"?>
<!-- Created with Inkscape (http://www.inkscape.org/) -->

<svg
   xmlns:dc="http://purl.org/dc/elements/1.1/"
   xmlns:cc="http://creativecommons.org/ns#"
   xmlns:rdf="http://www.w3.org/1999/02/22-rdf-syntax-ns#"
   xmlns:svg="http://www.w3.org/2000/svg"
   xmlns="http://www.w3.org/2000/svg"
   xmlns:xlink="http://www.w3.org/1999/xlink"
   xmlns:sodipodi="http://sodipodi.sourceforge.net/DTD/sodipodi-0.dtd"
   xmlns:inkscape="http://www.inkscape.org/namespaces/inkscape"
   version="1.1"
   width="129.7798"
   height="129.55901"
   id="svg3724"
   inkscape:version="0.91 r13725"
   sodipodi:docname="account.svg">
  <sodipodi:namedview
     pagecolor="#ffffff"
     bordercolor="#666666"
     borderopacity="1"
     objecttolerance="10"
     gridtolerance="10"
     guidetolerance="10"
     inkscape:pageopacity="0"
     inkscape:pageshadow="2"
     inkscape:window-width="1680"
     inkscape:window-height="1013"
     id="namedview46"
     showgrid="false"
     inkscape:zoom="3.6431277"
     inkscape:cx="62.619673"
     inkscape:cy="43.994068"
     inkscape:window-x="0"
     inkscape:window-y="0"
     inkscape:window-maximized="1"
     inkscape:current-layer="g606" />
  <defs
     id="defs3726">
    <linearGradient
       id="linearGradient3829">
      <stop
         id="stop3831"
         style="stop-color:#ff00ff;stop-opacity:0.66666669"
         offset="0" />
      <stop
         id="stop3833"
         style="stop-color:#ff00ff;stop-opacity:1"
         offset="1" />
    </linearGradient>
    <linearGradient
       id="linearGradient3821">
      <stop
         id="stop3823"
         style="stop-color:#929292;stop-opacity:1"
         offset="0" />
      <stop
         id="stop3825"
         style="stop-color:#787878;stop-opacity:1"
         offset="1" />
    </linearGradient>
    <clipPath
       id="clipPath608">
      <path
         d="m 0,0 1600,0 0,1200 L 0,1200 0,0 z"
         id="path610" />
    </clipPath>
    <mask
       id="mask626">
      <g
         id="g628">
        <g
           clip-path="url(#clipPath616)"
           id="g630">
          <g
             id="g632">
            <g
               id="g634">
              <path
                 d="m -32443.3,32767 65210.3,0 0,-64633.3 -65210.3,0 0,64633.3 z"
                 id="path636"
                 style="fill:url(#linearGradient620);stroke:none" />
            </g>
          </g>
        </g>
      </g>
    </mask>
    <clipPath
       id="clipPath616">
      <path
         d="m -32443.3,32767 65210.3,0 0,-64633.3 -65210.3,0 0,64633.3 z"
         id="path618" />
    </clipPath>
    <linearGradient
       x1="0"
       y1="0"
       x2="1"
       y2="0"
       id="linearGradient620"
       gradientUnits="userSpaceOnUse"
       gradientTransform="matrix(0,7.2453003,7.2453003,0,499.00999,688.33371)"
       spreadMethod="pad">
      <stop
         id="stop622"
         style="stop-color:#ffffff;stop-opacity:1"
         offset="0" />
      <stop
         id="stop624"
         style="stop-color:#ffffff;stop-opacity:0.80000001"
         offset="1" />
    </linearGradient>
    <clipPath
       id="clipPath642">
      <path
         d="m 498.01,696.579 27.2,0 0,-9.245 -27.2,0 0,9.245 z"
         id="path644" />
    </clipPath>
    <mask
       id="mask666">
      <g
         id="g668">
        <g
           clip-path="url(#clipPath656)"
           id="g670">
          <g
             id="g672">
            <g
               id="g674">
              <path
                 d="m -32443.3,32767 65210.3,0 0,-64633.3 -65210.3,0 0,64633.3 z"
                 id="path676"
                 style="fill:url(#linearGradient660);stroke:none" />
            </g>
          </g>
        </g>
      </g>
    </mask>
    <clipPath
       id="clipPath656">
      <path
         d="m -32443.3,32767 65210.3,0 0,-64633.3 -65210.3,0 0,64633.3 z"
         id="path658" />
    </clipPath>
    <linearGradient
       x1="0"
       y1="0"
       x2="1"
       y2="0"
       id="linearGradient660"
       gradientUnits="userSpaceOnUse"
       gradientTransform="matrix(0,129.55928,129.55928,0,417.11014,678.21526)"
       spreadMethod="pad">
      <stop
         id="stop662"
         style="stop-color:#ffffff;stop-opacity:1"
         offset="0" />
      <stop
         id="stop664"
         style="stop-color:#ffffff;stop-opacity:0.80000001"
         offset="1" />
    </linearGradient>
    <clipPath
       id="clipPath682">
      <path
         d="m 416.11,808.775 131.78,0 0,-131.56 -131.78,0 0,131.56 z"
         id="path684" />
    </clipPath>
    <linearGradient
       x1="487.05096"
       y1="806.71143"
       x2="487.05096"
       y2="680.13702"
       id="linearGradient3827"
       xlink:href="#linearGradient3821"
       gradientUnits="userSpaceOnUse" />
    <linearGradient
       x1="513.23047"
       y1="695.02948"
       x2="513.23047"
       y2="688.6626"
       id="linearGradient3835"
       xlink:href="#linearGradient3829"
       gradientUnits="userSpaceOnUse" />
  </defs>
  <metadata
     id="metadata3729">
    <rdf:RDF>
      <cc:Work
         rdf:about="">
        <dc:format>image/svg+xml</dc:format>
        <dc:type
           rdf:resource="http://purl.org/dc/dcmitype/StillImage" />
        <dc:title />
      </cc:Work>
    </rdf:RDF>
  </metadata>
  <g
     transform="matrix(0.8,0,0,0.8,-235.11009,-361.11028)"
     id="layer1">
    <g
       transform="matrix(1.25,0,0,-1.25,-227.49966,1461.1061)"
       id="g604">
      <g
         clip-path="url(#clipPath608)"
         id="g606">
        <path
           d="m 524.21,688.334 -25.2,0 0,7.245 25.2,0 0,-7.245 z"
           id="path650"
           style="fill:url(#linearGradient3835);fill-opacity:1;fill-rule:nonzero;stroke:none" />
        <path
           d="m 529.7062,710.0856 c -18.596,4.289 -35.907,8.045 -27.523,23.851 25.518,48.11 6.764,73.838 -20.183,73.838 -27.478,0 -45.77,-26.716 -20.182,-73.838 8.634,-15.902 -9.327,-19.654 -27.524,-23.851 -18.588,-4.287 -17.159,-14.088 -17.159,-31.87 l 129.729,0 c 0,17.783 1.43,27.583 -17.158,31.87 m -5.496,-21.752 -25.2,0 0,7.245 25.2,0 0,-7.245 z"
           id="path692"
           style="fill:url(#linearGradient3827);fill-opacity:1;fill-rule:nonzero;stroke:none" />
      </g>
    </g>
  </g>
</svg>
