<svg xmlns="http://www.w3.org/2000/svg" viewBox="0 0 150 150"><defs><style>.a{fill:#fff;}</style></defs><path class="a" d="M120.40784,39.09552H29.59222a3.00879,3.00879,0,0,0-3,3v54.5097a3.00879,3.00879,0,0,0,3,3H59.72186L56.84711,112.854l-6.051,6.051H99.20392l-6.051-6.051L90.27814,99.60522h30.1297a3.00883,3.00883,0,0,0,3-3V42.09552A3.00883,3.00883,0,0,0,120.40784,39.09552Zm-3,54.5097H32.59222V78.5625H52.99268l.01782-.00177a1.37051,1.37051,0,0,0,1.49634-.72577l4.28436-7.43787,4.284,7.43787a1.50018,1.50018,0,0,0,1.30126.751c.047,0,.09375-.01374.14081-.01819.04108.00336.08252.01819.12335.01819a1.50056,1.50056,0,0,0,1.43458-1.06348l4.67248-15.37994,5.01209,23.41021c.00262.01227.01068.02149.01361.03363a1.504,1.504,0,0,0,.18023.44513l.00348.00586a1.49418,1.49418,0,0,0,.30261.33893c.018.01526.03394.03162.05262.046a1.4918,1.4918,0,0,0,.30584.18708c.02375.01055.04853.01422.07251.02343.02918.01123.05835.019.08832.02851a1.49559,1.49559,0,0,0,.44538.07684l.00073.00012h.00049l.00134-.00018a1.51794,1.51794,0,0,0,.3136-.033c.02356-.00507.04419-.01557.0672-.02167.03235-.00854.06274-.01977.09442-.03039a1.48737,1.48737,0,0,0,.28229-.12806c.02258-.0133.046-.02374.06793-.0382a1.48894,1.48894,0,0,0,.28338-.24427c.01947-.02154.03571-.04535.054-.06811a1.50387,1.50387,0,0,0,.18207-.287c.00714-.01483.0191-.02551.02582-.04071L85.2027,70.958,89.16357,77.835a1.50021,1.50021,0,0,0,1.30127.751,1.52158,1.52158,0,0,0,.18122-.02344h26.76178Zm0-18.04272H91.31708l-4.98847-8.66016c-.00439-.00756-.01056-.01336-.015-.02087a1.49383,1.49383,0,0,0-.10449-.14539c-.02417-.03125-.04584-.06482-.07209-.09368a1.49439,1.49439,0,0,0-.1148-.10633c-.03473-.03088-.06745-.06415-.10456-.09143-.03521-.02588-.07507-.04632-.113-.0694a1.49,1.49,0,0,0-.14344-.08172c-.00854-.004-.01544-.00989-.024-.01373-.03327-.01478-.06775-.02112-.10144-.03333a1.48408,1.48408,0,0,0-.15155-.04974,1.46117,1.46117,0,0,0-.14905-.02521c-.04566-.00641-.09064-.01392-.13684-.01611a1.477,1.477,0,0,0-.15869.004c-.04352.00257-.08661.00391-.13007.01032a1.48746,1.48746,0,0,0-.16241.03656c-.03968.0105-.07929.01916-.11841.03308a1.50218,1.50218,0,0,0-.1756.07892c-.024.01221-.04926.01916-.07288.03277l-.01684.01215a1.49569,1.49569,0,0,0-.16651.11963c-.02441.01941-.0512.03644-.07409.05713a1.49756,1.49756,0,0,0-.11908.12854c-.0268.03076-.05622.05932-.08026.092-.0271.0368-.04859.07831-.07257.118a1.50991,1.50991,0,0,0-.07959.13995c-.004.00849-.00983.01538-.01362.024l-5.9306,13.36841-5.2608-24.571c-.0044-.0205-.01373-.03851-.01892-.05865a1.48829,1.48829,0,0,0-.0492-.15271c-.01642-.04376-.03326-.08667-.0534-.12811-.02173-.04474-.04669-.087-.07276-.12934-.02484-.04028-.04962-.07989-.07788-.11731a1.48809,1.48809,0,0,0-.099-.11541c-.03021-.03248-.06012-.06464-.093-.09424a1.48722,1.48722,0,0,0-.12531-.09912c-.035-.02533-.0697-.05011-.10675-.07239a1.48,1.48,0,0,0-.13934-.07233c-.043-.02008-.086-.03863-.13086-.05462-.02216-.00788-.04163-.02-.06439-.02686-.02729-.0083-.05475-.00958-.0821-.0163-.04553-.01117-.091-.02038-.13781-.02728a1.4974,1.4974,0,0,0-.16486-.01514c-.04071-.00146-.08111-.00128-.12231.00061a1.48261,1.48261,0,0,0-.17926.01947c-.0213.00354-.0423.00239-.06366.0069-.01825.00391-.03418.01227-.05213.01679a1.49933,1.49933,0,0,0-.16815.05407c-.03894.01484-.07721.02985-.11426.04767a1.48626,1.48626,0,0,0-.14087.0791c-.03723.0232-.074.04615-.10876.07227a1.48706,1.48706,0,0,0-.11957.10242c-.032.02972-.06354.0592-.09271.09149a1.48672,1.48672,0,0,0-.0968.12225c-.0271.03717-.05335.07422-.07691.11371-.02435.04095-.04553.08368-.06616.12738a1.47722,1.47722,0,0,0-.0614.14746c-.00671.01941-.0174.03632-.02338.05615L64.12024,73.63812l-3.88-6.73578a1.78685,1.78685,0,0,0-2.89794,0l-4.989,8.66016H32.59222v-30.467h84.81562Z"/></svg>