<?xml version="1.0" encoding="UTF-8" standalone="no"?>
<svg
   xmlns:dc="http://purl.org/dc/elements/1.1/"
   xmlns:cc="http://creativecommons.org/ns#"
   xmlns:rdf="http://www.w3.org/1999/02/22-rdf-syntax-ns#"
   xmlns:svg="http://www.w3.org/2000/svg"
   xmlns="http://www.w3.org/2000/svg"
   xmlns:sodipodi="http://sodipodi.sourceforge.net/DTD/sodipodi-0.dtd"
   xmlns:inkscape="http://www.inkscape.org/namespaces/inkscape"
   fill-opacity="1"
   color-rendering="auto"
   color-interpolation="auto"
   text-rendering="auto"
   stroke="#000000"
   stroke-linecap="square"
   stroke-miterlimit="10"
   shape-rendering="auto"
   stroke-opacity="1"
   fill="#000000"
   stroke-dasharray="none"
   font-weight="normal"
   stroke-width="1"
   viewBox="0 0 154 507"
   font-family="Dialog"
   font-style="normal"
   stroke-linejoin="miter"
   font-size="12px"
   stroke-dashoffset="0"
   image-rendering="auto"
   version="1.1"
   id="svg150"
   sodipodi:docname="ArchiMate-application-layer.svg"
   width="154"
   height="507"
   inkscape:version="1.0.2 (e86c870879, 2021-01-15)">
  <metadata
     id="metadata154">
    <rdf:RDF>
      <cc:Work
         rdf:about="">
        <dc:format>image/svg+xml</dc:format>
        <dc:type
           rdf:resource="http://purl.org/dc/dcmitype/StillImage" />
        <dc:title></dc:title>
      </cc:Work>
    </rdf:RDF>
  </metadata>
  <sodipodi:namedview
     pagecolor="#ffffff"
     bordercolor="#666666"
     borderopacity="1"
     objecttolerance="10"
     gridtolerance="10"
     guidetolerance="10"
     inkscape:pageopacity="0"
     inkscape:pageshadow="2"
     inkscape:window-width="3022"
     inkscape:window-height="1756"
     id="namedview152"
     showgrid="false"
     inkscape:zoom="1.737931"
     inkscape:cx="77"
     inkscape:cy="336.03175"
     inkscape:window-x="0"
     inkscape:window-y="40"
     inkscape:window-maximized="0"
     inkscape:current-layer="svg150" />
  <!--Generated by Archi with Batik SVG Generator-->
  <defs
     id="genericDefs">
    <defs
       id="defs1">
      <clipPath
         clipPathUnits="userSpaceOnUse"
         id="clipPath1">
        <path
           d="M 9,9 H 145 V 66 H 9 Z"
           id="path3" />
      </clipPath>
      <clipPath
         clipPathUnits="userSpaceOnUse"
         id="clipPath2">
        <path
           d="m 41,13 h 90 V 49 H 41 Z"
           id="path6" />
      </clipPath>
      <clipPath
         clipPathUnits="userSpaceOnUse"
         id="clipPath3">
        <path
           d="m 9,82 h 136 v 57 H 9 Z"
           id="path9" />
      </clipPath>
      <clipPath
         clipPathUnits="userSpaceOnUse"
         id="clipPath4">
        <path
           d="m 34,86 h 86 v 36 H 34 Z"
           id="path12" />
      </clipPath>
      <clipPath
         clipPathUnits="userSpaceOnUse"
         id="clipPath5">
        <path
           d="m 9,154 h 136 v 57 H 9 Z"
           id="path15" />
      </clipPath>
      <clipPath
         clipPathUnits="userSpaceOnUse"
         id="clipPath6">
        <path
           d="m 31,166 h 92 v 19 H 31 Z"
           id="path18" />
      </clipPath>
      <clipPath
         clipPathUnits="userSpaceOnUse"
         id="clipPath7">
        <path
           d="m 9,226 h 136 v 57 H 9 Z"
           id="path21" />
      </clipPath>
      <clipPath
         clipPathUnits="userSpaceOnUse"
         id="clipPath8">
        <path
           d="m 34,230 h 86 v 36 H 34 Z"
           id="path24" />
      </clipPath>
      <clipPath
         clipPathUnits="userSpaceOnUse"
         id="clipPath9">
        <path
           d="m 9,298 h 136 v 57 H 9 Z"
           id="path27" />
      </clipPath>
      <clipPath
         clipPathUnits="userSpaceOnUse"
         id="clipPath10">
        <path
           d="m 34,302 h 86 v 36 H 34 Z"
           id="path30" />
      </clipPath>
      <clipPath
         clipPathUnits="userSpaceOnUse"
         id="clipPath11">
        <path
           d="m 9,370 h 136 v 57 H 9 Z"
           id="path33" />
      </clipPath>
      <clipPath
         clipPathUnits="userSpaceOnUse"
         id="clipPath12">
        <path
           d="m 34,374 h 86 v 36 H 34 Z"
           id="path36" />
      </clipPath>
      <clipPath
         clipPathUnits="userSpaceOnUse"
         id="clipPath13">
        <path
           d="m 9,442 h 136 v 57 H 9 Z"
           id="path39" />
      </clipPath>
      <clipPath
         clipPathUnits="userSpaceOnUse"
         id="clipPath14">
        <path
           d="m 34,446 h 86 v 36 H 34 Z"
           id="path42" />
      </clipPath>
      <clipPath
         clipPathUnits="userSpaceOnUse"
         id="clipPath15">
        <path
           d="m 9,514 h 136 v 57 H 9 Z"
           id="path45" />
      </clipPath>
      <clipPath
         clipPathUnits="userSpaceOnUse"
         id="clipPath16">
        <path
           d="m 34,518 h 86 v 36 H 34 Z"
           id="path48" />
      </clipPath>
    </defs>
  </defs>
  <g
     id="g366">
    <g
       id="g323">
      <rect
         x="20"
         width="123"
         height="54"
         y="10"
         clip-path="url(#clipPath1)"
         stroke="none"
         id="rect52"
         style="font-size:15px;fill:#8fbce6;stroke-width:0;stroke-linejoin:round;stroke-miterlimit:0;text-rendering:optimizeLegibility" />
      <path
         fill="none"
         d="M 20,20 V 10 H 143 V 64 H 20 V 53"
         clip-path="url(#clipPath1)"
         id="path56"
         style="font-size:15px;stroke:#6483a1;stroke-linecap:butt;text-rendering:optimizeLegibility" />
      <line
         y2="40"
         fill="none"
         x1="20"
         clip-path="url(#clipPath1)"
         x2="20"
         y1="33"
         id="line58"
         style="font-size:15px;stroke:#6483a1;stroke-linecap:butt;text-rendering:optimizeLegibility" />
      <rect
         x="10"
         y="20"
         clip-path="url(#clipPath1)"
         fill="#80a9cf"
         width="20"
         height="13"
         stroke="none"
         id="rect60"
         style="font-size:15px;stroke-linecap:butt;text-rendering:optimizeLegibility" />
      <rect
         x="10"
         y="40"
         clip-path="url(#clipPath1)"
         fill="#80a9cf"
         width="20"
         height="13"
         stroke="none"
         id="rect62"
         style="font-size:15px;stroke-linecap:butt;text-rendering:optimizeLegibility" />
      <rect
         fill="none"
         x="10"
         width="20"
         height="13"
         y="20"
         clip-path="url(#clipPath1)"
         id="rect64"
         style="font-size:15px;stroke:#6483a1;stroke-linecap:butt;text-rendering:optimizeLegibility" />
      <rect
         fill="none"
         x="10"
         width="20"
         height="13"
         y="40"
         clip-path="url(#clipPath1)"
         id="rect66"
         style="font-size:15px;stroke:#6483a1;stroke-linecap:butt;text-rendering:optimizeLegibility" />
      <path
         fill="#000000"
         d="m 49.125,18.5156 -2,5.4532 h 4.0156 z m -0.8281,-1.4531 h 1.6719 L 54.1406,28 h -1.5468 l -0.9844,-2.8125 h -4.9375 l -1,2.8125 H 44.125 Z M 56.98,26.7656 V 31.125 H 55.6206 V 19.7969 H 56.98 v 1.25 q 0.4219,-0.7344 1.0625,-1.0938 0.6562,-0.3593 1.5625,-0.3593 1.4844,0 2.4219,1.1874 0.9375,1.1876 0.9375,3.125 0,1.9376 -0.9375,3.125 -0.9375,1.1876 -2.4219,1.1876 -0.9063,0 -1.5625,-0.3594 Q 57.4019,27.5 56.98,26.7656 Z m 4.5781,-2.8594 q 0,-1.4843 -0.6094,-2.3281 -0.6093,-0.8437 -1.6718,-0.8437 -1.0782,0 -1.6875,0.8437 -0.6094,0.8438 -0.6094,2.3281 0,1.4844 0.6094,2.3282 0.6093,0.8437 1.6875,0.8437 1.0625,0 1.6718,-0.8437 0.6094,-0.8438 0.6094,-2.3282 z m 4.9434,2.8594 V 31.125 H 65.1421 V 19.7969 h 1.3594 v 1.25 q 0.4218,-0.7344 1.0625,-1.0938 0.6562,-0.3593 1.5625,-0.3593 1.4843,0 2.4218,1.1874 0.9375,1.1876 0.9375,3.125 0,1.9376 -0.9375,3.125 -0.9375,1.1876 -2.4218,1.1876 -0.9063,0 -1.5625,-0.3594 Q 66.9233,27.5 66.5015,26.7656 Z m 4.5781,-2.8594 q 0,-1.4843 -0.6094,-2.3281 -0.6094,-0.8437 -1.6719,-0.8437 -1.0781,0 -1.6875,0.8437 -0.6093,0.8438 -0.6093,2.3281 0,1.4844 0.6093,2.3282 0.6094,0.8437 1.6875,0.8437 1.0625,0 1.6719,-0.8437 0.6094,-0.8438 0.6094,-2.3282 z m 3.6308,-7.2968 h 1.3594 V 28 h -1.3594 z m 4.1675,3.1875 h 1.3594 V 28 h -1.3594 z m 0,-3.1875 h 1.3594 v 1.7031 h -1.3594 z m 10.0738,3.5 v 1.2656 q -0.5625,-0.3125 -1.1407,-0.4688 -0.5781,-0.1718 -1.1562,-0.1718 -1.3125,0 -2.0469,0.8437 -0.7187,0.8281 -0.7187,2.3281 0,1.5 0.7187,2.3282 0.7344,0.8281 2.0469,0.8281 0.5781,0 1.1562,-0.1563 0.5782,-0.1562 1.1407,-0.4687 v 1.25 q -0.5625,0.2656 -1.1719,0.3906 -0.5938,0.1407 -1.2813,0.1407 -1.8437,0 -2.9375,-1.1563 -1.0937,-1.1719 -1.0937,-3.1563 0,-2 1.0937,-3.1562 1.1094,-1.1562 3.0313,-1.1562 0.625,0 1.2187,0.1406 0.5938,0.125 1.1407,0.375 z m 6.0752,3.7656 q -1.625,0 -2.2657,0.375 -0.625,0.375 -0.625,1.2812 0,0.7032 0.4688,1.125 0.4687,0.4219 1.2812,0.4219 1.125,0 1.7969,-0.7812 0.6875,-0.7969 0.6875,-2.125 V 23.875 Z m 2.6875,-0.5625 V 28 h -1.3438 v -1.25 q -0.4687,0.75 -1.1562,1.1094 -0.6875,0.3594 -1.6875,0.3594 -1.25,0 -2,-0.7032 -0.7344,-0.7187 -0.7344,-1.9062 0,-1.375 0.9219,-2.0782 0.9218,-0.7031 2.7656,-0.7031 h 1.8906 v -0.1406 q 0,-0.9219 -0.6094,-1.4375 -0.6093,-0.5156 -1.7187,-0.5156 -0.7031,0 -1.375,0.1718 -0.6719,0.1719 -1.2813,0.5157 v -1.25 q 0.7344,-0.2813 1.4375,-0.4219 0.7032,-0.1562 1.3594,-0.1562 1.7813,0 2.6563,0.9218 0.875,0.9219 0.875,2.7969 z m 4.1137,-5.8437 v 2.3281 h 2.7657 v 1.0469 h -2.7657 v 4.4531 q 0,1 0.2657,1.2969 0.2812,0.2812 1.125,0.2812 h 1.375 V 28 h -1.375 q -1.5626,0 -2.1563,-0.5781 -0.5937,-0.5938 -0.5937,-2.125 v -4.4531 h -0.9844 v -1.0469 h 0.9844 v -2.3281 z m 4.5376,2.3281 h 1.3594 V 28 h -1.3594 z m 0,-3.1875 h 1.3594 v 1.7031 h -1.3594 z m 7.355,4.125 q -1.0781,0 -1.7187,0.8594 -0.625,0.8437 -0.625,2.3124 0,1.4688 0.625,2.3126 0.625,0.8437 1.7187,0.8437 1.0781,0 1.7031,-0.8437 0.625,-0.8438 0.625,-2.3126 0,-1.4531 -0.625,-2.3124 -0.625,-0.8594 -1.7031,-0.8594 z m 0,-1.1406 q 1.75,0 2.75,1.1562 1.0156,1.1406 1.0156,3.1562 0,2.0157 -1.0156,3.1719 -1,1.1407 -2.75,1.1407 -1.7656,0 -2.7656,-1.1407 -1,-1.1562 -1,-3.1719 0,-2.0156 1,-3.1562 1,-1.1562 2.7656,-1.1562 z m 12.8179,3.4531 V 28 h -1.3438 v -4.9062 q 0,-1.1719 -0.4531,-1.75 -0.4531,-0.5782 -1.375,-0.5782 -1.0781,0 -1.7188,0.7032 -0.625,0.6874 -0.625,1.8906 V 28 h -1.3593 v -8.2031 h 1.3593 v 1.2812 q 0.4844,-0.75 1.1407,-1.1093 0.6562,-0.375 1.5156,-0.375 1.4062,0 2.125,0.875 0.7344,0.875 0.7344,2.5781 z"
         clip-path="url(#clipPath2)"
         stroke="none"
         id="path68"
         style="font-size:15px;stroke-linecap:butt;text-rendering:optimizeLegibility" />
      <path
         fill="#000000"
         d="m 51.6562,34.9062 v 1.5626 q -0.75,-0.7032 -1.5937,-1.0469 -0.8437,-0.3438 -1.7969,-0.3438 -1.875,0 -2.875,1.1563 -0.9844,1.1406 -0.9844,3.3125 0,2.1562 0.9844,3.3125 1,1.1406 2.875,1.1406 0.9532,0 1.7969,-0.3438 0.8437,-0.3437 1.5937,-1.0468 v 1.5468 q -0.7656,0.5313 -1.6406,0.7969 -0.8594,0.2657 -1.8281,0.2657 -2.4844,0 -3.9219,-1.5157 -1.4218,-1.5312 -1.4218,-4.1562 0,-2.6407 1.4218,-4.1563 1.4375,-1.5312 3.9219,-1.5312 0.9687,0 1.8437,0.2656 0.875,0.2656 1.625,0.7812 z m 5.4112,2.8282 q -1.0781,0 -1.7188,0.8594 -0.625,0.8437 -0.625,2.3124 0,1.4688 0.625,2.3126 0.625,0.8437 1.7188,0.8437 1.0781,0 1.7031,-0.8437 0.625,-0.8438 0.625,-2.3126 0,-1.4531 -0.625,-2.3124 -0.625,-0.8594 -1.7031,-0.8594 z m 0,-1.1406 q 1.75,0 2.75,1.1562 1.0156,1.1406 1.0156,3.1562 0,2.0157 -1.0156,3.1719 -1,1.1407 -2.75,1.1407 -1.7656,0 -2.7656,-1.1407 -1,-1.1562 -1,-3.1719 0,-2.0156 1,-3.1562 1,-1.1562 2.7656,-1.1562 z m 12.3804,1.7812 q 0.5156,-0.9062 1.2187,-1.3438 0.7031,-0.4374 1.6563,-0.4374 1.2812,0 1.9687,0.9062 0.7031,0.8906 0.7031,2.5469 V 45 h -1.3593 v -4.9062 q 0,-1.1876 -0.4219,-1.75 -0.4219,-0.5782 -1.2656,-0.5782 -1.0469,0 -1.6563,0.7032 -0.6094,0.6874 -0.6094,1.8906 V 45 h -1.3593 v -4.9062 q 0,-1.1876 -0.4219,-1.75 -0.4063,-0.5782 -1.2813,-0.5782 -1.0312,0 -1.6406,0.7032 -0.6094,0.7031 -0.6094,1.8906 V 45 h -1.3593 v -8.2031 h 1.3593 v 1.2812 q 0.4532,-0.7656 1.0938,-1.125 0.6562,-0.3593 1.5469,-0.3593 0.8906,0 1.5156,0.4531 0.625,0.4531 0.9219,1.3281 z m 9.5336,5.3906 V 48.125 H 77.6221 V 36.7969 h 1.3593 v 1.25 q 0.4219,-0.7344 1.0625,-1.0938 0.6563,-0.3593 1.5625,-0.3593 1.4844,0 2.4219,1.1874 0.9375,1.1876 0.9375,3.125 0,1.9376 -0.9375,3.125 -0.9375,1.1876 -2.4219,1.1876 -0.9062,0 -1.5625,-0.3594 Q 79.4033,44.5 78.9814,43.7656 Z m 4.5782,-2.8594 q 0,-1.4843 -0.6094,-2.3281 -0.6094,-0.8437 -1.6719,-0.8437 -1.0781,0 -1.6875,0.8437 -0.6094,0.8438 -0.6094,2.3281 0,1.4844 0.6094,2.3282 0.6094,0.8437 1.6875,0.8437 1.0625,0 1.6719,-0.8437 0.6094,-0.8438 0.6094,-2.3282 z m 6.8183,-3.1718 q -1.0781,0 -1.7187,0.8594 -0.625,0.8437 -0.625,2.3124 0,1.4688 0.625,2.3126 0.625,0.8437 1.7187,0.8437 1.0782,0 1.7032,-0.8437 0.625,-0.8438 0.625,-2.3126 0,-1.4531 -0.625,-2.3124 -0.625,-0.8594 -1.7032,-0.8594 z m 0,-1.1406 q 1.75,0 2.75,1.1562 1.0157,1.1406 1.0157,3.1562 0,2.0157 -1.0157,3.1719 -1,1.1407 -2.75,1.1407 -1.7656,0 -2.7656,-1.1407 -1,-1.1562 -1,-3.1719 0,-2.0156 1,-3.1562 1,-1.1562 2.7656,-1.1562 z m 12.8179,3.4531 V 45 h -1.3437 v -4.9062 q 0,-1.1719 -0.4532,-1.75 -0.4531,-0.5782 -1.375,-0.5782 -1.0781,0 -1.7187,0.7032 -0.625,0.6874 -0.625,1.8906 V 45 h -1.3594 v -8.2031 h 1.3594 v 1.2812 q 0.4844,-0.75 1.1406,-1.1093 0.6563,-0.375 1.5156,-0.375 1.4063,0 2.125,0.875 0.7344,0.875 0.7344,2.5781 z m 9.71,0.5156 v 0.6563 h -6.2032 q 0.0938,1.3906 0.8438,2.125 0.75,0.7187 2.0781,0.7187 0.7813,0 1.5,-0.1875 0.7344,-0.1875 1.4531,-0.5625 v 1.2656 q -0.7187,0.3125 -1.4843,0.4688 -0.7657,0.1719 -1.5469,0.1719 -1.9531,0 -3.1094,-1.1407 -1.1406,-1.1562 -1.1406,-3.0937 0,-2.0156 1.0781,-3.2032 1.0938,-1.1874 2.9375,-1.1874 1.6563,0 2.625,1.0781 0.9688,1.0625 0.9688,2.8906 z m -1.3594,-0.3906 q -0.0156,-1.1094 -0.625,-1.7657 -0.5938,-0.6718 -1.5938,-0.6718 -1.125,0 -1.8125,0.6406 -0.6718,0.6406 -0.7656,1.7969 z m 10.3848,-0.125 V 45 h -1.3438 v -4.9062 q 0,-1.1719 -0.4531,-1.75 -0.4531,-0.5782 -1.375,-0.5782 -1.0781,0 -1.7188,0.7032 -0.625,0.6874 -0.625,1.8906 V 45 h -1.3593 v -8.2031 h 1.3593 v 1.2812 q 0.4844,-0.75 1.1407,-1.1093 0.6562,-0.375 1.5156,-0.375 1.4062,0 2.125,0.875 0.7344,0.875 0.7344,2.5781 z m 4.0224,-5.5781 v 2.3281 h 2.7656 v 1.0469 h -2.7656 v 4.4531 q 0,1 0.2656,1.2969 0.2813,0.2812 1.125,0.2812 h 1.375 V 45 h -1.375 q -1.5625,0 -2.1562,-0.5781 -0.5938,-0.5938 -0.5938,-2.125 v -4.4531 h -0.9843 v -1.0469 h 0.9843 v -2.3281 z"
         clip-path="url(#clipPath2)"
         stroke="none"
         id="path70"
         style="font-size:15px;stroke-linecap:butt;text-rendering:optimizeLegibility" />
      <rect
         x="10"
         y="83"
         clip-path="url(#clipPath3)"
         fill="#8fbce6"
         width="133"
         rx="10"
         ry="10"
         height="54"
         stroke="none"
         id="rect72"
         style="font-size:15px;stroke-linecap:butt;text-rendering:optimizeLegibility" />
      <rect
         x="10"
         y="83"
         clip-path="url(#clipPath3)"
         fill="none"
         width="133"
         rx="10"
         ry="10"
         height="54"
         id="rect74"
         style="font-size:15px;stroke:#6483a1;stroke-linecap:butt;text-rendering:optimizeLegibility" />
      <rect
         x="123"
         y="90"
         clip-path="url(#clipPath3)"
         fill="none"
         width="16"
         rx="4"
         ry="4"
         height="9"
         stroke="#000000"
         id="rect76"
         style="font-size:15px;stroke-linecap:butt;text-rendering:optimizeLegibility" />
      <path
         fill="#000000"
         d="m 40.125,91.5156 -2,5.4532 h 4.0156 z m -0.8281,-1.4531 h 1.6719 L 45.1406,101 h -1.5468 l -0.9844,-2.8125 h -4.9375 l -1,2.8125 H 35.125 Z m 8.6831,9.7031 v 4.3594 H 46.6206 V 92.7969 H 47.98 v 1.25 q 0.4219,-0.7344 1.0625,-1.0938 0.6562,-0.3593 1.5625,-0.3593 1.4844,0 2.4219,1.1874 0.9375,1.1876 0.9375,3.125 0,1.9376 -0.9375,3.125 -0.9375,1.1876 -2.4219,1.1876 -0.9063,0 -1.5625,-0.3594 Q 48.4019,100.5 47.98,99.7656 Z m 4.5781,-2.8594 q 0,-1.4843 -0.6094,-2.3281 -0.6093,-0.8437 -1.6718,-0.8437 -1.0782,0 -1.6875,0.8437 -0.6094,0.8438 -0.6094,2.3281 0,1.4844 0.6094,2.3282 0.6093,0.8437 1.6875,0.8437 1.0625,0 1.6718,-0.8437 0.6094,-0.8438 0.6094,-2.3282 z m 4.9434,2.8594 v 4.3594 H 56.1421 V 92.7969 h 1.3594 v 1.25 q 0.4218,-0.7344 1.0625,-1.0938 0.6562,-0.3593 1.5625,-0.3593 1.4843,0 2.4218,1.1874 0.9375,1.1876 0.9375,3.125 0,1.9376 -0.9375,3.125 -0.9375,1.1876 -2.4218,1.1876 -0.9063,0 -1.5625,-0.3594 -0.6407,-0.3594 -1.0625,-1.0938 z m 4.5781,-2.8594 q 0,-1.4843 -0.6094,-2.3281 -0.6094,-0.8437 -1.6719,-0.8437 -1.0781,0 -1.6875,0.8437 -0.6093,0.8438 -0.6093,2.3281 0,1.4844 0.6093,2.3282 0.6094,0.8437 1.6875,0.8437 1.0625,0 1.6719,-0.8437 0.6094,-0.8438 0.6094,-2.3282 z m 3.6308,-7.2968 h 1.3594 V 101 h -1.3594 z m 4.1675,3.1875 h 1.3594 V 101 h -1.3594 z m 0,-3.1875 h 1.3594 v 1.7031 h -1.3594 z m 10.0738,3.5 v 1.2656 q -0.5625,-0.3125 -1.1407,-0.4688 -0.5781,-0.1718 -1.1562,-0.1718 -1.3125,0 -2.0469,0.8437 -0.7187,0.8281 -0.7187,2.3281 0,1.5 0.7187,2.3282 0.7344,0.8281 2.0469,0.8281 0.5781,0 1.1562,-0.1563 0.5782,-0.1562 1.1407,-0.4687 v 1.25 q -0.5625,0.2656 -1.1719,0.3906 -0.5938,0.1407 -1.2813,0.1407 -1.8437,0 -2.9375,-1.1563 -1.0937,-1.1719 -1.0937,-3.1563 0,-2 1.0937,-3.1562 1.1094,-1.1562 3.0313,-1.1562 0.625,0 1.2187,0.1406 0.5938,0.125 1.1407,0.375 z m 6.0752,3.7656 q -1.625,0 -2.2657,0.375 -0.625,0.375 -0.625,1.2812 0,0.7032 0.4688,1.125 0.4687,0.4219 1.2812,0.4219 1.125,0 1.7969,-0.7812 0.6875,-0.7969 0.6875,-2.125 V 96.875 Z m 2.6875,-0.5625 V 101 h -1.3438 v -1.25 q -0.4687,0.75 -1.1562,1.1094 -0.6875,0.3594 -1.6875,0.3594 -1.25,0 -2,-0.7032 -0.7344,-0.7187 -0.7344,-1.9062 0,-1.375 0.9219,-2.0782 0.9218,-0.7031 2.7656,-0.7031 h 1.8906 v -0.1406 q 0,-0.9219 -0.6094,-1.4375 -0.6093,-0.5156 -1.7187,-0.5156 -0.7031,0 -1.375,0.1718 -0.6719,0.1719 -1.2813,0.5157 v -1.25 q 0.7344,-0.2813 1.4375,-0.4219 0.7032,-0.1562 1.3594,-0.1562 1.7813,0 2.6563,0.9218 0.875,0.9219 0.875,2.7969 z m 4.1137,-5.8437 v 2.3281 h 2.7657 v 1.0469 h -2.7657 v 4.4531 q 0,1 0.2657,1.2969 0.2812,0.2812 1.125,0.2812 h 1.375 V 101 h -1.375 q -1.5626,0 -2.1563,-0.5781 -0.5937,-0.5938 -0.5937,-2.125 v -4.4531 h -0.9844 v -1.0469 h 0.9844 v -2.3281 z m 4.5376,2.3281 h 1.3594 V 101 h -1.3594 z m 0,-3.1875 h 1.3594 v 1.7031 h -1.3594 z m 7.355,4.125 q -1.0781,0 -1.7187,0.8594 -0.625,0.8437 -0.625,2.3124 0,1.4688 0.625,2.3126 0.625,0.8437 1.7187,0.8437 1.0781,0 1.7031,-0.8437 0.625,-0.8438 0.625,-2.3126 0,-1.4531 -0.625,-2.3124 -0.625,-0.8594 -1.7031,-0.8594 z m 0,-1.1406 q 1.75,0 2.75,1.1562 1.0156,1.1406 1.0156,3.1562 0,2.0157 -1.0156,3.1719 -1,1.1407 -2.75,1.1407 -1.7656,0 -2.7656,-1.1407 -1,-1.1562 -1,-3.1719 0,-2.0156 1,-3.1562 1,-1.1562 2.7656,-1.1562 z m 12.8179,3.4531 V 101 h -1.3438 v -4.9062 q 0,-1.1719 -0.4531,-1.75 -0.4531,-0.5782 -1.375,-0.5782 -1.0781,0 -1.7188,0.7032 -0.625,0.6874 -0.625,1.8906 V 101 h -1.3593 v -8.2031 h 1.3593 v 1.2812 q 0.4844,-0.75 1.1407,-1.1093 0.6562,-0.375 1.5156,-0.375 1.4062,0 2.125,0.875 0.7344,0.875 0.7344,2.5781 z"
         clip-path="url(#clipPath4)"
         stroke="none"
         id="path78"
         style="font-size:15px;stroke-linecap:butt;text-rendering:optimizeLegibility" />
      <path
         fill="#000000"
         d="m 57.0312,107.4219 v 1.4375 q -0.8437,-0.3906 -1.5937,-0.5938 -0.75,-0.2031 -1.4375,-0.2031 -1.2188,0 -1.875,0.4687 -0.6562,0.4688 -0.6562,1.3438 0,0.7188 0.4374,1.0938 0.4376,0.3593 1.6563,0.5937 l 0.8906,0.1875 q 1.6563,0.3125 2.4375,1.1094 0.7969,0.7968 0.7969,2.125 0,1.5937 -1.0625,2.4218 -1.0625,0.8126 -3.125,0.8126 -0.7812,0 -1.6562,-0.1876 -0.875,-0.1718 -1.8126,-0.5156 V 116 q 0.9063,0.5 1.7657,0.7656 0.8593,0.25 1.7031,0.25 1.2656,0 1.9531,-0.5 0.6875,-0.5 0.6875,-1.4218 0,-0.8126 -0.5,-1.2657 -0.4844,-0.4531 -1.6094,-0.6719 l -0.9062,-0.1874 q -1.6562,-0.3282 -2.4062,-1.0313 -0.7344,-0.7031 -0.7344,-1.9531 0,-1.4532 1.0156,-2.2813 1.0312,-0.8437 2.8281,-0.8437 0.7657,0 1.5625,0.1406 0.7969,0.1406 1.6406,0.4219 z m 9.9278,6.1406 v 0.6563 h -6.2031 q 0.0937,1.3906 0.8437,2.125 0.75,0.7187 2.0781,0.7187 0.7813,0 1.5,-0.1875 0.7344,-0.1875 1.4532,-0.5625 v 1.2656 q -0.7188,0.3125 -1.4844,0.4688 -0.7656,0.1719 -1.5469,0.1719 -1.9531,0 -3.1094,-1.1407 -1.1406,-1.1562 -1.1406,-3.0937 0,-2.0156 1.0781,-3.2032 1.0938,-1.1874 2.9375,-1.1874 1.6563,0 2.625,1.0781 0.9688,1.0625 0.9688,2.8906 z m -1.3594,-0.3906 q -0.0156,-1.1094 -0.625,-1.7657 -0.5937,-0.6718 -1.5937,-0.6718 -1.125,0 -1.8125,0.6406 -0.6719,0.6406 -0.7657,1.7969 z m 8.3223,-2.1094 q -0.2344,-0.1406 -0.5,-0.2031 -0.2657,-0.0625 -0.5938,-0.0625 -1.1406,0 -1.75,0.75 -0.6093,0.7343 -0.6093,2.125 V 118 h -1.3594 v -8.2031 h 1.3594 v 1.2812 q 0.4218,-0.75 1.0937,-1.1093 0.6875,-0.375 1.6719,-0.375 0.1406,0 0.2968,0.0312 0.1719,0.0156 0.375,0.0469 z m 0.4482,-1.2656 h 1.4219 l 2.5625,6.8906 2.5625,-6.8906 h 1.4375 L 79.2764,118 h -1.8438 z m 9.8301,0 h 1.3594 V 118 h -1.3594 z m 0,-3.1875 h 1.3594 v 1.7031 h -1.3594 z m 10.0737,3.5 v 1.2656 q -0.5625,-0.3125 -1.1406,-0.4688 -0.5781,-0.1718 -1.1562,-0.1718 -1.3125,0 -2.0469,0.8437 -0.7188,0.8281 -0.7188,2.3281 0,1.5 0.7188,2.3282 0.7344,0.8281 2.0469,0.8281 0.5781,0 1.1562,-0.1563 0.5781,-0.1562 1.1406,-0.4687 v 1.25 q -0.5625,0.2656 -1.1718,0.3906 -0.5938,0.1407 -1.2813,0.1407 -1.8437,0 -2.9375,-1.1563 -1.0937,-1.1719 -1.0937,-3.1563 0,-2 1.0937,-3.1562 1.1094,-1.1562 3.0313,-1.1562 0.625,0 1.2187,0.1406 0.5938,0.125 1.1406,0.375 z m 9.3721,3.4531 v 0.6563 h -6.2031 q 0.0937,1.3906 0.8437,2.125 0.75,0.7187 2.0781,0.7187 0.7813,0 1.5,-0.1875 0.7344,-0.1875 1.4532,-0.5625 v 1.2656 q -0.7188,0.3125 -1.4844,0.4688 -0.7656,0.1719 -1.5469,0.1719 -1.9531,0 -3.1094,-1.1407 -1.1406,-1.1562 -1.1406,-3.0937 0,-2.0156 1.0781,-3.2032 1.0938,-1.1874 2.9375,-1.1874 1.6563,0 2.625,1.0781 0.9688,1.0625 0.9688,2.8906 z m -1.3594,-0.3906 q -0.0156,-1.1094 -0.625,-1.7657 -0.5937,-0.6718 -1.5937,-0.6718 -1.125,0 -1.8125,0.6406 -0.6719,0.6406 -0.7657,1.7969 z"
         clip-path="url(#clipPath4)"
         stroke="none"
         id="path80"
         style="font-size:15px;stroke-linecap:butt;text-rendering:optimizeLegibility" />
      <rect
         x="10"
         y="155"
         clip-path="url(#clipPath5)"
         fill="#8fbce6"
         width="133"
         height="54"
         stroke="none"
         id="rect82"
         style="font-size:15px;stroke-linecap:butt;text-rendering:optimizeLegibility" />
      <line
         y2="167"
         fill="none"
         x1="10"
         clip-path="url(#clipPath5)"
         x2="143"
         y1="167"
         id="line84"
         style="font-size:15px;stroke:#6483a1;stroke-linecap:butt;text-rendering:optimizeLegibility" />
      <rect
         fill="none"
         x="10"
         width="133"
         height="54"
         y="155"
         clip-path="url(#clipPath5)"
         id="rect86"
         style="font-size:15px;stroke:#6483a1;stroke-linecap:butt;text-rendering:optimizeLegibility" />
      <path
         fill="#000000"
         d="m 34.9531,171.2812 v 8.5 h 1.7813 q 2.2656,0 3.3125,-1.0156 1.0625,-1.0312 1.0625,-3.25 0,-2.1875 -1.0625,-3.2031 Q 39,171.2812 36.7344,171.2812 Z m -1.4843,-1.2187 h 3.0468 q 3.1719,0 4.6563,1.3281 1.5,1.3125 1.5,4.125 0,2.8282 -1.5,4.1563 Q 39.6719,181 36.5156,181 h -3.0468 z m 15.2221,6.8125 q -1.625,0 -2.2656,0.375 -0.625,0.375 -0.625,1.2812 0,0.7032 0.4687,1.125 0.4688,0.4219 1.2813,0.4219 1.125,0 1.7969,-0.7812 0.6875,-0.7969 0.6875,-2.125 v -0.2969 z m 2.6875,-0.5625 V 181 h -1.3437 v -1.25 q -0.4688,0.75 -1.1563,1.1094 -0.6875,0.3594 -1.6875,0.3594 -1.25,0 -2,-0.7032 -0.7344,-0.7187 -0.7344,-1.9062 0,-1.375 0.9219,-2.0782 0.9219,-0.7031 2.7656,-0.7031 h 1.8907 v -0.1406 q 0,-0.9219 -0.6094,-1.4375 -0.6094,-0.5156 -1.7188,-0.5156 -0.7031,0 -1.375,0.1718 -0.6718,0.1719 -1.2812,0.5157 v -1.25 q 0.7344,-0.2813 1.4375,-0.4219 0.7031,-0.1562 1.3594,-0.1562 1.7812,0 2.6562,0.9218 0.875,0.9219 0.875,2.7969 z m 4.1138,-5.8437 v 2.3281 h 2.7656 v 1.0469 h -2.7656 v 4.4531 q 0,1 0.2656,1.2969 0.2813,0.2812 1.125,0.2812 h 1.375 V 181 h -1.375 q -1.5625,0 -2.1562,-0.5781 -0.5938,-0.5938 -0.5938,-2.125 v -4.4531 h -0.9844 v -1.0469 h 0.9844 v -2.3281 z m 8.272,6.4062 q -1.625,0 -2.2657,0.375 -0.625,0.375 -0.625,1.2812 0,0.7032 0.4688,1.125 0.4687,0.4219 1.2812,0.4219 1.125,0 1.7969,-0.7812 0.6875,-0.7969 0.6875,-2.125 v -0.2969 z m 2.6875,-0.5625 V 181 h -1.3438 v -1.25 q -0.4687,0.75 -1.1562,1.1094 -0.6875,0.3594 -1.6875,0.3594 -1.25,0 -2,-0.7032 -0.7344,-0.7187 -0.7344,-1.9062 0,-1.375 0.9219,-2.0782 0.9218,-0.7031 2.7656,-0.7031 h 1.8906 v -0.1406 q 0,-0.9219 -0.6094,-1.4375 -0.6093,-0.5156 -1.7187,-0.5156 -0.7031,0 -1.375,0.1718 -0.6719,0.1719 -1.2813,0.5157 v -1.25 q 0.7344,-0.2813 1.4375,-0.4219 0.7032,-0.1562 1.3594,-0.1562 1.7813,0 2.6563,0.9218 0.875,0.9219 0.875,2.7969 z m 12.038,-5.25 q -1.6093,0 -2.5625,1.2031 -0.9375,1.2032 -0.9375,3.2813 0,2.0625 0.9375,3.2656 0.9532,1.2031 2.5625,1.2031 1.6094,0 2.5469,-1.2031 0.9531,-1.2031 0.9531,-3.2656 0,-2.0781 -0.9531,-3.2813 -0.9375,-1.2031 -2.5469,-1.2031 z m 0,-1.2031 q 2.2969,0 3.6719,1.5468 1.3906,1.5469 1.3906,4.1407 0,2.5781 -1.3906,4.125 -1.375,1.5469 -3.6719,1.5469 -2.2968,0 -3.6875,-1.5313 -1.375,-1.5469 -1.375,-4.1406 0,-2.5938 1.375,-4.1407 1.3907,-1.5468 3.6875,-1.5468 z m 13.1973,7.0468 q 0,-1.4843 -0.6094,-2.3281 -0.6093,-0.8437 -1.6718,-0.8437 -1.0782,0 -1.6875,0.8437 -0.6094,0.8438 -0.6094,2.3281 0,1.4844 0.6094,2.3282 0.6093,0.8437 1.6875,0.8437 1.0625,0 1.6718,-0.8437 0.6094,-0.8438 0.6094,-2.3282 z m -4.5781,-2.8593 q 0.4219,-0.7344 1.0625,-1.0938 0.6562,-0.3593 1.5625,-0.3593 1.4844,0 2.4219,1.1874 0.9375,1.1876 0.9375,3.125 0,1.9376 -0.9375,3.125 -0.9375,1.1876 -2.4219,1.1876 -0.9063,0 -1.5625,-0.3594 -0.6406,-0.3594 -1.0625,-1.0938 V 181 h -1.3594 v -11.3906 h 1.3594 z m 8.209,-1.25 h 1.3593 v 8.3437 q 0,1.5782 -0.6093,2.2813 -0.5938,0.7031 -1.9219,0.7031 h -0.5 v -1.1406 h 0.3594 q 0.7656,0 1.0312,-0.3594 0.2813,-0.3594 0.2813,-1.4844 z m 0,-3.1875 h 1.3593 v 1.7031 h -1.3593 z m 11.1987,6.9531 v 0.6563 h -6.2031 q 0.0937,1.3906 0.8437,2.125 0.75,0.7187 2.0782,0.7187 0.7812,0 1.5,-0.1875 0.7343,-0.1875 1.4531,-0.5625 v 1.2656 q -0.7188,0.3125 -1.4844,0.4688 -0.7656,0.1719 -1.5469,0.1719 -1.9531,0 -3.1093,-1.1407 -1.1407,-1.1562 -1.1407,-3.0937 0,-2.0156 1.0782,-3.2032 1.0937,-1.1874 2.9375,-1.1874 1.6562,0 2.625,1.0781 0.9687,1.0625 0.9687,2.8906 z m -1.3594,-0.3906 q -0.0156,-1.1094 -0.625,-1.7657 -0.5937,-0.6718 -1.5937,-0.6718 -1.125,0 -1.8125,0.6406 -0.6719,0.6406 -0.7656,1.7969 z m 9.4629,-3.0625 v 1.2656 q -0.5625,-0.3125 -1.1406,-0.4688 -0.5781,-0.1718 -1.1563,-0.1718 -1.3125,0 -2.0468,0.8437 -0.7188,0.8281 -0.7188,2.3281 0,1.5 0.7188,2.3282 0.7343,0.8281 2.0468,0.8281 0.5782,0 1.1563,-0.1563 0.5781,-0.1562 1.1406,-0.4687 v 1.25 q -0.5625,0.2656 -1.1719,0.3906 -0.5937,0.1407 -1.2812,0.1407 -1.8438,0 -2.9375,-1.1563 -1.0938,-1.1719 -1.0938,-3.1563 0,-2 1.0938,-3.1562 1.1094,-1.1562 3.0312,-1.1562 0.625,0 1.2188,0.1406 0.5937,0.125 1.1406,0.375 z m 3.6846,-2.6406 v 2.3281 h 2.7656 v 1.0469 h -2.7656 v 4.4531 q 0,1 0.2656,1.2969 0.2813,0.2812 1.125,0.2812 h 1.375 V 181 h -1.375 q -1.5625,0 -2.1562,-0.5781 -0.5938,-0.5938 -0.5938,-2.125 v -4.4531 h -0.9844 v -1.0469 h 0.9844 v -2.3281 z"
         clip-path="url(#clipPath6)"
         stroke="none"
         id="path88"
         style="font-size:15px;stroke-linecap:butt;text-rendering:optimizeLegibility" />
      <rect
         x="10"
         y="227"
         clip-path="url(#clipPath7)"
         fill="#8fbce6"
         width="133"
         height="54"
         stroke="none"
         id="rect90"
         style="font-size:15px;stroke-linecap:butt;text-rendering:optimizeLegibility" />
      <rect
         fill="none"
         x="10"
         width="133"
         height="54"
         y="227"
         clip-path="url(#clipPath7)"
         id="rect92"
         style="font-size:15px;stroke:#6483a1;stroke-linecap:butt;text-rendering:optimizeLegibility" />
      <circle
         fill="none"
         r="5"
         clip-path="url(#clipPath7)"
         cx="135"
         cy="240"
         stroke="#000000"
         id="circle94"
         style="font-size:15px;stroke-linecap:butt;text-rendering:optimizeLegibility" />
      <line
         clip-path="url(#clipPath7)"
         fill="none"
         x1="130"
         x2="123"
         y1="240"
         y2="240"
         stroke="#000000"
         id="line96"
         style="font-size:15px;stroke-linecap:butt;text-rendering:optimizeLegibility" />
      <path
         fill="#000000"
         d="m 40.125,235.5156 -2,5.4532 h 4.0156 z m -0.8281,-1.4531 h 1.6719 L 45.1406,245 h -1.5468 l -0.9844,-2.8125 h -4.9375 l -1,2.8125 H 35.125 Z m 8.6831,9.7031 v 4.3594 H 46.6206 V 236.7969 H 47.98 v 1.25 q 0.4219,-0.7344 1.0625,-1.0938 0.6562,-0.3593 1.5625,-0.3593 1.4844,0 2.4219,1.1874 0.9375,1.1876 0.9375,3.125 0,1.9376 -0.9375,3.125 -0.9375,1.1876 -2.4219,1.1876 -0.9063,0 -1.5625,-0.3594 Q 48.4019,244.5 47.98,243.7656 Z m 4.5781,-2.8594 q 0,-1.4843 -0.6094,-2.3281 -0.6093,-0.8437 -1.6718,-0.8437 -1.0782,0 -1.6875,0.8437 -0.6094,0.8438 -0.6094,2.3281 0,1.4844 0.6094,2.3282 0.6093,0.8437 1.6875,0.8437 1.0625,0 1.6718,-0.8437 0.6094,-0.8438 0.6094,-2.3282 z m 4.9434,2.8594 v 4.3594 h -1.3594 v -11.3281 h 1.3594 v 1.25 q 0.4218,-0.7344 1.0625,-1.0938 0.6562,-0.3593 1.5625,-0.3593 1.4843,0 2.4218,1.1874 0.9375,1.1876 0.9375,3.125 0,1.9376 -0.9375,3.125 -0.9375,1.1876 -2.4218,1.1876 -0.9063,0 -1.5625,-0.3594 -0.6407,-0.3594 -1.0625,-1.0938 z m 4.5781,-2.8594 q 0,-1.4843 -0.6094,-2.3281 -0.6094,-0.8437 -1.6719,-0.8437 -1.0781,0 -1.6875,0.8437 -0.6093,0.8438 -0.6093,2.3281 0,1.4844 0.6093,2.3282 0.6094,0.8437 1.6875,0.8437 1.0625,0 1.6719,-0.8437 0.6094,-0.8438 0.6094,-2.3282 z m 3.6308,-7.2968 h 1.3594 V 245 h -1.3594 z m 4.1675,3.1875 h 1.3594 V 245 h -1.3594 z m 0,-3.1875 h 1.3594 v 1.7031 h -1.3594 z m 10.0738,3.5 v 1.2656 q -0.5625,-0.3125 -1.1407,-0.4688 -0.5781,-0.1718 -1.1562,-0.1718 -1.3125,0 -2.0469,0.8437 -0.7187,0.8281 -0.7187,2.3281 0,1.5 0.7187,2.3282 0.7344,0.8281 2.0469,0.8281 0.5781,0 1.1562,-0.1563 0.5782,-0.1562 1.1407,-0.4687 v 1.25 q -0.5625,0.2656 -1.1719,0.3906 -0.5938,0.1407 -1.2813,0.1407 -1.8437,0 -2.9375,-1.1563 -1.0937,-1.1719 -1.0937,-3.1563 0,-2 1.0937,-3.1562 1.1094,-1.1562 3.0313,-1.1562 0.625,0 1.2187,0.1406 0.5938,0.125 1.1407,0.375 z m 6.0752,3.7656 q -1.625,0 -2.2657,0.375 -0.625,0.375 -0.625,1.2812 0,0.7032 0.4688,1.125 0.4687,0.4219 1.2812,0.4219 1.125,0 1.7969,-0.7812 0.6875,-0.7969 0.6875,-2.125 v -0.2969 z m 2.6875,-0.5625 V 245 h -1.3438 v -1.25 q -0.4687,0.75 -1.1562,1.1094 -0.6875,0.3594 -1.6875,0.3594 -1.25,0 -2,-0.7032 -0.7344,-0.7187 -0.7344,-1.9062 0,-1.375 0.9219,-2.0782 0.9218,-0.7031 2.7656,-0.7031 h 1.8906 v -0.1406 q 0,-0.9219 -0.6094,-1.4375 -0.6093,-0.5156 -1.7187,-0.5156 -0.7031,0 -1.375,0.1718 -0.6719,0.1719 -1.2813,0.5157 v -1.25 q 0.7344,-0.2813 1.4375,-0.4219 0.7032,-0.1562 1.3594,-0.1562 1.7813,0 2.6563,0.9218 0.875,0.9219 0.875,2.7969 z m 4.1137,-5.8437 v 2.3281 h 2.7657 v 1.0469 h -2.7657 v 4.4531 q 0,1 0.2657,1.2969 0.2812,0.2812 1.125,0.2812 h 1.375 V 245 h -1.375 q -1.5626,0 -2.1563,-0.5781 -0.5937,-0.5938 -0.5937,-2.125 v -4.4531 h -0.9844 v -1.0469 h 0.9844 v -2.3281 z m 4.5376,2.3281 h 1.3594 V 245 h -1.3594 z m 0,-3.1875 h 1.3594 v 1.7031 h -1.3594 z m 7.355,4.125 q -1.0781,0 -1.7187,0.8594 -0.625,0.8437 -0.625,2.3124 0,1.4688 0.625,2.3126 0.625,0.8437 1.7187,0.8437 1.0781,0 1.7031,-0.8437 0.625,-0.8438 0.625,-2.3126 0,-1.4531 -0.625,-2.3124 -0.625,-0.8594 -1.7031,-0.8594 z m 0,-1.1406 q 1.75,0 2.75,1.1562 1.0156,1.1406 1.0156,3.1562 0,2.0157 -1.0156,3.1719 -1,1.1407 -2.75,1.1407 -1.7656,0 -2.7656,-1.1407 -1,-1.1562 -1,-3.1719 0,-2.0156 1,-3.1562 1,-1.1562 2.7656,-1.1562 z m 12.8179,3.4531 V 245 h -1.3438 v -4.9062 q 0,-1.1719 -0.4531,-1.75 -0.4531,-0.5782 -1.375,-0.5782 -1.0781,0 -1.7188,0.7032 -0.625,0.6874 -0.625,1.8906 V 245 h -1.3593 v -8.2031 h 1.3593 v 1.2812 q 0.4844,-0.75 1.1407,-1.1093 0.6562,-0.375 1.5156,-0.375 1.4062,0 2.125,0.875 0.7344,0.875 0.7344,2.5781 z"
         clip-path="url(#clipPath8)"
         stroke="none"
         id="path98"
         style="font-size:15px;stroke-linecap:butt;text-rendering:optimizeLegibility" />
      <path
         fill="#000000"
         d="m 45.4688,251.0625 h 1.4843 V 262 h -1.4843 z m 11.1894,5.9844 V 262 h -1.3437 v -4.9062 q 0,-1.1719 -0.4532,-1.75 -0.4531,-0.5782 -1.375,-0.5782 -1.0781,0 -1.7187,0.7032 -0.625,0.6874 -0.625,1.8906 V 262 h -1.3594 v -8.2031 h 1.3594 v 1.2812 q 0.4844,-0.75 1.1406,-1.1093 0.6563,-0.375 1.5156,-0.375 1.4063,0 2.125,0.875 0.7344,0.875 0.7344,2.5781 z m 4.0225,-5.5781 v 2.3281 h 2.7656 v 1.0469 h -2.7656 v 4.4531 q 0,1 0.2656,1.2969 0.2812,0.2812 1.125,0.2812 h 1.375 V 262 h -1.375 q -1.5625,0 -2.1563,-0.5781 -0.5937,-0.5938 -0.5937,-2.125 v -4.4531 h -0.9844 v -1.0469 h 0.9844 v -2.3281 z m 11.5688,6.0937 v 0.6563 h -6.2031 q 0.0937,1.3906 0.8437,2.125 0.75,0.7187 2.0782,0.7187 0.7812,0 1.5,-0.1875 0.7343,-0.1875 1.4531,-0.5625 v 1.2656 q -0.7188,0.3125 -1.4844,0.4688 -0.7656,0.1719 -1.5469,0.1719 -1.9531,0 -3.1093,-1.1407 -1.1407,-1.1562 -1.1407,-3.0937 0,-2.0156 1.0782,-3.2032 1.0937,-1.1874 2.9375,-1.1874 1.6562,0 2.625,1.0781 0.9687,1.0625 0.9687,2.8906 z m -1.3594,-0.3906 q -0.0156,-1.1094 -0.625,-1.7657 -0.5937,-0.6718 -1.5937,-0.6718 -1.125,0 -1.8125,0.6406 -0.6719,0.6406 -0.7656,1.7969 z m 8.3223,-2.1094 q -0.2344,-0.1406 -0.5,-0.2031 -0.2656,-0.0625 -0.5937,-0.0625 -1.1407,0 -1.75,0.75 -0.6094,0.7343 -0.6094,2.125 V 262 h -1.3594 v -8.2031 h 1.3594 v 1.2812 q 0.4219,-0.75 1.0937,-1.1093 0.6875,-0.375 1.6719,-0.375 0.1406,0 0.2969,0.0312 0.1719,0.0156 0.375,0.0469 z m 5.5576,-4.4531 v 1.1094 h -1.2812 q -0.7344,0 -1.0157,0.2968 -0.2812,0.2969 -0.2812,1.0625 v 0.7188 h 2.2187 v 1.0469 H 82.1919 V 262 h -1.3438 v -7.1562 h -1.2968 v -1.0469 h 1.2968 v -0.5781 q 0,-1.3594 0.625,-1.9844 0.6407,-0.625 2.0313,-0.625 z m 4.8589,7.2656 q -1.625,0 -2.2656,0.375 -0.625,0.375 -0.625,1.2812 0,0.7032 0.4687,1.125 0.4688,0.4219 1.2813,0.4219 1.125,0 1.7969,-0.7812 0.6875,-0.7969 0.6875,-2.125 v -0.2969 z m 2.6875,-0.5625 V 262 h -1.3437 v -1.25 q -0.4688,0.75 -1.1563,1.1094 -0.6875,0.3594 -1.6875,0.3594 -1.25,0 -2,-0.7032 -0.7344,-0.7187 -0.7344,-1.9062 0,-1.375 0.9219,-2.0782 0.9219,-0.7031 2.7656,-0.7031 h 1.8907 v -0.1406 q 0,-0.9219 -0.6094,-1.4375 -0.6094,-0.5156 -1.7188,-0.5156 -0.7031,0 -1.375,0.1718 -0.6718,0.1719 -1.2812,0.5157 v -1.25 q 0.7344,-0.2813 1.4375,-0.4219 0.7031,-0.1562 1.3594,-0.1562 1.7812,0 2.6562,0.9218 0.875,0.9219 0.875,2.7969 z m 8.6763,-3.2031 v 1.2656 q -0.5625,-0.3125 -1.1406,-0.4688 -0.5782,-0.1718 -1.1563,-0.1718 -1.3125,0 -2.0469,0.8437 -0.7187,0.8281 -0.7187,2.3281 0,1.5 0.7187,2.3282 0.7344,0.8281 2.0469,0.8281 0.5781,0 1.1563,-0.1563 0.5781,-0.1562 1.1406,-0.4687 v 1.25 q -0.5625,0.2656 -1.1719,0.3906 -0.5937,0.1407 -1.2812,0.1407 -1.8438,0 -2.9375,-1.1563 -1.0938,-1.1719 -1.0938,-3.1563 0,-2 1.0938,-3.1562 1.1093,-1.1562 3.0312,-1.1562 0.625,0 1.2188,0.1406 0.5937,0.125 1.1406,0.375 z m 9.372,3.4531 v 0.6563 h -6.2031 q 0.0938,1.3906 0.8438,2.125 0.75,0.7187 2.0781,0.7187 0.7812,0 1.5,-0.1875 0.7344,-0.1875 1.4531,-0.5625 v 1.2656 q -0.7187,0.3125 -1.4844,0.4688 -0.7656,0.1719 -1.5468,0.1719 -1.9532,0 -3.1094,-1.1407 -1.1406,-1.1562 -1.1406,-3.0937 0,-2.0156 1.0781,-3.2032 1.0937,-1.1874 2.9375,-1.1874 1.6562,0 2.625,1.0781 0.9687,1.0625 0.9687,2.8906 z m -1.3593,-0.3906 q -0.0157,-1.1094 -0.625,-1.7657 -0.5938,-0.6718 -1.5938,-0.6718 -1.125,0 -1.8125,0.6406 -0.6719,0.6406 -0.7656,1.7969 z"
         clip-path="url(#clipPath8)"
         stroke="none"
         id="path100"
         style="font-size:15px;stroke-linecap:butt;text-rendering:optimizeLegibility" />
      <rect
         x="10"
         y="299"
         clip-path="url(#clipPath9)"
         fill="#8fbce6"
         width="133"
         rx="10"
         ry="10"
         height="54"
         stroke="none"
         id="rect102"
         style="font-size:15px;stroke-linecap:butt;text-rendering:optimizeLegibility" />
      <rect
         x="10"
         y="299"
         clip-path="url(#clipPath9)"
         fill="none"
         width="133"
         rx="10"
         ry="10"
         height="54"
         id="rect104"
         style="font-size:15px;stroke:#6483a1;stroke-linecap:butt;text-rendering:optimizeLegibility" />
      <polygon
         fill="none"
         clip-path="url(#clipPath9)"
         points="126,318 126,309 132,304 138,309 138,318 132,312 "
         stroke="#000000"
         id="polygon106"
         style="font-size:15px;stroke-linecap:butt;text-rendering:optimizeLegibility" />
      <path
         fill="#000000"
         d="m 40.125,307.5156 -2,5.4532 h 4.0156 z m -0.8281,-1.4531 h 1.6719 L 45.1406,317 h -1.5468 l -0.9844,-2.8125 h -4.9375 l -1,2.8125 H 35.125 Z m 8.6831,9.7031 v 4.3594 H 46.6206 V 308.7969 H 47.98 v 1.25 q 0.4219,-0.7344 1.0625,-1.0938 0.6562,-0.3593 1.5625,-0.3593 1.4844,0 2.4219,1.1874 0.9375,1.1876 0.9375,3.125 0,1.9376 -0.9375,3.125 -0.9375,1.1876 -2.4219,1.1876 -0.9063,0 -1.5625,-0.3594 Q 48.4019,316.5 47.98,315.7656 Z m 4.5781,-2.8594 q 0,-1.4843 -0.6094,-2.3281 -0.6093,-0.8437 -1.6718,-0.8437 -1.0782,0 -1.6875,0.8437 -0.6094,0.8438 -0.6094,2.3281 0,1.4844 0.6094,2.3282 0.6093,0.8437 1.6875,0.8437 1.0625,0 1.6718,-0.8437 0.6094,-0.8438 0.6094,-2.3282 z m 4.9434,2.8594 v 4.3594 h -1.3594 v -11.3281 h 1.3594 v 1.25 q 0.4218,-0.7344 1.0625,-1.0938 0.6562,-0.3593 1.5625,-0.3593 1.4843,0 2.4218,1.1874 0.9375,1.1876 0.9375,3.125 0,1.9376 -0.9375,3.125 -0.9375,1.1876 -2.4218,1.1876 -0.9063,0 -1.5625,-0.3594 -0.6407,-0.3594 -1.0625,-1.0938 z m 4.5781,-2.8594 q 0,-1.4843 -0.6094,-2.3281 -0.6094,-0.8437 -1.6719,-0.8437 -1.0781,0 -1.6875,0.8437 -0.6093,0.8438 -0.6093,2.3281 0,1.4844 0.6093,2.3282 0.6094,0.8437 1.6875,0.8437 1.0625,0 1.6719,-0.8437 0.6094,-0.8438 0.6094,-2.3282 z m 3.6308,-7.2968 h 1.3594 V 317 h -1.3594 z m 4.1675,3.1875 h 1.3594 V 317 h -1.3594 z m 0,-3.1875 h 1.3594 v 1.7031 h -1.3594 z m 10.0738,3.5 v 1.2656 q -0.5625,-0.3125 -1.1407,-0.4688 -0.5781,-0.1718 -1.1562,-0.1718 -1.3125,0 -2.0469,0.8437 -0.7187,0.8281 -0.7187,2.3281 0,1.5 0.7187,2.3282 0.7344,0.8281 2.0469,0.8281 0.5781,0 1.1562,-0.1563 0.5782,-0.1562 1.1407,-0.4687 v 1.25 q -0.5625,0.2656 -1.1719,0.3906 -0.5938,0.1407 -1.2813,0.1407 -1.8437,0 -2.9375,-1.1563 -1.0937,-1.1719 -1.0937,-3.1563 0,-2 1.0937,-3.1562 1.1094,-1.1562 3.0313,-1.1562 0.625,0 1.2187,0.1406 0.5938,0.125 1.1407,0.375 z m 6.0752,3.7656 q -1.625,0 -2.2657,0.375 -0.625,0.375 -0.625,1.2812 0,0.7032 0.4688,1.125 0.4687,0.4219 1.2812,0.4219 1.125,0 1.7969,-0.7812 0.6875,-0.7969 0.6875,-2.125 v -0.2969 z m 2.6875,-0.5625 V 317 h -1.3438 v -1.25 q -0.4687,0.75 -1.1562,1.1094 -0.6875,0.3594 -1.6875,0.3594 -1.25,0 -2,-0.7032 -0.7344,-0.7187 -0.7344,-1.9062 0,-1.375 0.9219,-2.0782 0.9218,-0.7031 2.7656,-0.7031 h 1.8906 v -0.1406 q 0,-0.9219 -0.6094,-1.4375 -0.6093,-0.5156 -1.7187,-0.5156 -0.7031,0 -1.375,0.1718 -0.6719,0.1719 -1.2813,0.5157 v -1.25 q 0.7344,-0.2813 1.4375,-0.4219 0.7032,-0.1562 1.3594,-0.1562 1.7813,0 2.6563,0.9218 0.875,0.9219 0.875,2.7969 z m 4.1137,-5.8437 v 2.3281 h 2.7657 v 1.0469 h -2.7657 v 4.4531 q 0,1 0.2657,1.2969 0.2812,0.2812 1.125,0.2812 h 1.375 V 317 h -1.375 q -1.5626,0 -2.1563,-0.5781 -0.5937,-0.5938 -0.5937,-2.125 v -4.4531 h -0.9844 v -1.0469 h 0.9844 v -2.3281 z m 4.5376,2.3281 h 1.3594 V 317 h -1.3594 z m 0,-3.1875 h 1.3594 v 1.7031 h -1.3594 z m 7.355,4.125 q -1.0781,0 -1.7187,0.8594 -0.625,0.8437 -0.625,2.3124 0,1.4688 0.625,2.3126 0.625,0.8437 1.7187,0.8437 1.0781,0 1.7031,-0.8437 0.625,-0.8438 0.625,-2.3126 0,-1.4531 -0.625,-2.3124 -0.625,-0.8594 -1.7031,-0.8594 z m 0,-1.1406 q 1.75,0 2.75,1.1562 1.0156,1.1406 1.0156,3.1562 0,2.0157 -1.0156,3.1719 -1,1.1407 -2.75,1.1407 -1.7656,0 -2.7656,-1.1407 -1,-1.1562 -1,-3.1719 0,-2.0156 1,-3.1562 1,-1.1562 2.7656,-1.1562 z m 12.8179,3.4531 V 317 h -1.3438 v -4.9062 q 0,-1.1719 -0.4531,-1.75 -0.4531,-0.5782 -1.375,-0.5782 -1.0781,0 -1.7188,0.7032 -0.625,0.6874 -0.625,1.8906 V 317 h -1.3593 v -8.2031 h 1.3593 v 1.2812 q 0.4844,-0.75 1.1407,-1.1093 0.6562,-0.375 1.5156,-0.375 1.4062,0 2.125,0.875 0.7344,0.875 0.7344,2.5781 z"
         clip-path="url(#clipPath10)"
         stroke="none"
         id="path108"
         style="font-size:15px;stroke-linecap:butt;text-rendering:optimizeLegibility" />
      <path
         fill="#000000"
         d="M 45.4688,323.0625 H 51.75 v 1.25 h -4.7969 v 3.2187 h 4.3281 v 1.25 H 46.9531 V 334 h -1.4843 z m 8.4404,7.7031 v -4.9687 h 1.3437 v 4.9219 q 0,1.1562 0.4532,1.75 0.4531,0.5781 1.3593,0.5781 1.0938,0 1.7188,-0.6875 0.6406,-0.7032 0.6406,-1.9063 v -4.6562 h 1.3438 V 334 h -1.3438 v -1.2656 q -0.4844,0.75 -1.1406,1.125 -0.6406,0.3594 -1.5,0.3594 -1.4219,0 -2.1563,-0.875 -0.7187,-0.8907 -0.7187,-2.5782 z m 3.3906,-5.1718 z m 13.0693,3.4531 V 334 h -1.3437 v -4.9062 q 0,-1.1719 -0.4531,-1.75 -0.4532,-0.5782 -1.375,-0.5782 -1.0782,0 -1.7188,0.7032 -0.625,0.6874 -0.625,1.8906 V 334 h -1.3594 v -8.2031 h 1.3594 v 1.2812 q 0.4844,-0.75 1.1406,-1.1093 0.6563,-0.375 1.5157,-0.375 1.4062,0 2.125,0.875 0.7343,0.875 0.7343,2.5781 z m 8.585,-2.9375 v 1.2656 q -0.5625,-0.3125 -1.1406,-0.4688 -0.5781,-0.1718 -1.1563,-0.1718 -1.3125,0 -2.0468,0.8437 -0.7188,0.8281 -0.7188,2.3281 0,1.5 0.7188,2.3282 0.7343,0.8281 2.0468,0.8281 0.5782,0 1.1563,-0.1563 0.5781,-0.1562 1.1406,-0.4687 v 1.25 q -0.5625,0.2656 -1.1719,0.3906 -0.5937,0.1407 -1.2812,0.1407 -1.8438,0 -2.9375,-1.1563 -1.0938,-1.1719 -1.0938,-3.1563 0,-2 1.0938,-3.1562 1.1094,-1.1562 3.0312,-1.1562 0.625,0 1.2188,0.1406 0.5937,0.125 1.1406,0.375 z m 3.6846,-2.6406 v 2.3281 h 2.7656 v 1.0469 h -2.7656 v 4.4531 q 0,1 0.2656,1.2969 0.2812,0.2812 1.125,0.2812 h 1.375 V 334 h -1.375 q -1.5625,0 -2.1563,-0.5781 -0.5937,-0.5938 -0.5937,-2.125 v -4.4531 h -0.9844 v -1.0469 h 0.9844 v -2.3281 z m 4.5376,2.3281 h 1.3593 V 334 h -1.3593 z m 0,-3.1875 h 1.3593 v 1.7031 h -1.3593 z m 7.3549,4.125 q -1.0781,0 -1.7187,0.8594 -0.625,0.8437 -0.625,2.3124 0,1.4688 0.625,2.3126 0.625,0.8437 1.7187,0.8437 1.0782,0 1.7032,-0.8437 0.625,-0.8438 0.625,-2.3126 0,-1.4531 -0.625,-2.3124 -0.625,-0.8594 -1.7032,-0.8594 z m 0,-1.1406 q 1.75,0 2.75,1.1562 1.0157,1.1406 1.0157,3.1562 0,2.0157 -1.0157,3.1719 -1,1.1407 -2.75,1.1407 -1.7656,0 -2.7656,-1.1407 -1,-1.1562 -1,-3.1719 0,-2.0156 1,-3.1562 1,-1.1562 2.7656,-1.1562 z m 12.8179,3.4531 V 334 h -1.3437 v -4.9062 q 0,-1.1719 -0.4532,-1.75 -0.4531,-0.5782 -1.375,-0.5782 -1.0781,0 -1.7187,0.7032 -0.625,0.6874 -0.625,1.8906 V 334 h -1.3594 v -8.2031 h 1.3594 v 1.2812 q 0.4844,-0.75 1.1406,-1.1093 0.6563,-0.375 1.5156,-0.375 1.4063,0 2.125,0.875 0.7344,0.875 0.7344,2.5781 z"
         clip-path="url(#clipPath10)"
         stroke="none"
         id="path110"
         style="font-size:15px;stroke-linecap:butt;text-rendering:optimizeLegibility" />
      <rect
         x="10"
         y="371"
         clip-path="url(#clipPath11)"
         fill="#8fbce6"
         width="133"
         rx="10"
         ry="10"
         height="54"
         stroke="none"
         id="rect112"
         style="font-size:15px;stroke-linecap:butt;text-rendering:optimizeLegibility" />
      <rect
         x="10"
         y="371"
         clip-path="url(#clipPath11)"
         fill="none"
         width="133"
         rx="10"
         ry="10"
         height="54"
         id="rect114"
         style="font-size:15px;stroke:#6483a1;stroke-linecap:butt;text-rendering:optimizeLegibility" />
      <polygon
         fill="none"
         clip-path="url(#clipPath11)"
         points="126,386 126,382 134,382 134,379 140,384 134,389 134,386 "
         stroke="#000000"
         id="polygon116"
         style="font-size:15px;stroke-linecap:butt;text-rendering:optimizeLegibility" />
      <path
         fill="#000000"
         d="m 40.125,379.5156 -2,5.4532 h 4.0156 z m -0.8281,-1.4531 h 1.6719 L 45.1406,389 h -1.5468 l -0.9844,-2.8125 h -4.9375 l -1,2.8125 H 35.125 Z m 8.6831,9.7031 v 4.3594 H 46.6206 V 380.7969 H 47.98 v 1.25 q 0.4219,-0.7344 1.0625,-1.0938 0.6562,-0.3593 1.5625,-0.3593 1.4844,0 2.4219,1.1874 0.9375,1.1876 0.9375,3.125 0,1.9376 -0.9375,3.125 -0.9375,1.1876 -2.4219,1.1876 -0.9063,0 -1.5625,-0.3594 Q 48.4019,388.5 47.98,387.7656 Z m 4.5781,-2.8594 q 0,-1.4843 -0.6094,-2.3281 -0.6093,-0.8437 -1.6718,-0.8437 -1.0782,0 -1.6875,0.8437 -0.6094,0.8438 -0.6094,2.3281 0,1.4844 0.6094,2.3282 0.6093,0.8437 1.6875,0.8437 1.0625,0 1.6718,-0.8437 0.6094,-0.8438 0.6094,-2.3282 z m 4.9434,2.8594 v 4.3594 h -1.3594 v -11.3281 h 1.3594 v 1.25 q 0.4218,-0.7344 1.0625,-1.0938 0.6562,-0.3593 1.5625,-0.3593 1.4843,0 2.4218,1.1874 0.9375,1.1876 0.9375,3.125 0,1.9376 -0.9375,3.125 -0.9375,1.1876 -2.4218,1.1876 -0.9063,0 -1.5625,-0.3594 -0.6407,-0.3594 -1.0625,-1.0938 z m 4.5781,-2.8594 q 0,-1.4843 -0.6094,-2.3281 -0.6094,-0.8437 -1.6719,-0.8437 -1.0781,0 -1.6875,0.8437 -0.6093,0.8438 -0.6093,2.3281 0,1.4844 0.6093,2.3282 0.6094,0.8437 1.6875,0.8437 1.0625,0 1.6719,-0.8437 0.6094,-0.8438 0.6094,-2.3282 z m 3.6308,-7.2968 h 1.3594 V 389 h -1.3594 z m 4.1675,3.1875 h 1.3594 V 389 h -1.3594 z m 0,-3.1875 h 1.3594 v 1.7031 h -1.3594 z m 10.0738,3.5 v 1.2656 q -0.5625,-0.3125 -1.1407,-0.4688 -0.5781,-0.1718 -1.1562,-0.1718 -1.3125,0 -2.0469,0.8437 -0.7187,0.8281 -0.7187,2.3281 0,1.5 0.7187,2.3282 0.7344,0.8281 2.0469,0.8281 0.5781,0 1.1562,-0.1563 0.5782,-0.1562 1.1407,-0.4687 v 1.25 q -0.5625,0.2656 -1.1719,0.3906 -0.5938,0.1407 -1.2813,0.1407 -1.8437,0 -2.9375,-1.1563 -1.0937,-1.1719 -1.0937,-3.1563 0,-2 1.0937,-3.1562 1.1094,-1.1562 3.0313,-1.1562 0.625,0 1.2187,0.1406 0.5938,0.125 1.1407,0.375 z m 6.0752,3.7656 q -1.625,0 -2.2657,0.375 -0.625,0.375 -0.625,1.2812 0,0.7032 0.4688,1.125 0.4687,0.4219 1.2812,0.4219 1.125,0 1.7969,-0.7812 0.6875,-0.7969 0.6875,-2.125 v -0.2969 z m 2.6875,-0.5625 V 389 h -1.3438 v -1.25 q -0.4687,0.75 -1.1562,1.1094 -0.6875,0.3594 -1.6875,0.3594 -1.25,0 -2,-0.7032 -0.7344,-0.7187 -0.7344,-1.9062 0,-1.375 0.9219,-2.0782 0.9218,-0.7031 2.7656,-0.7031 h 1.8906 v -0.1406 q 0,-0.9219 -0.6094,-1.4375 -0.6093,-0.5156 -1.7187,-0.5156 -0.7031,0 -1.375,0.1718 -0.6719,0.1719 -1.2813,0.5157 v -1.25 q 0.7344,-0.2813 1.4375,-0.4219 0.7032,-0.1562 1.3594,-0.1562 1.7813,0 2.6563,0.9218 0.875,0.9219 0.875,2.7969 z m 4.1137,-5.8437 v 2.3281 h 2.7657 v 1.0469 h -2.7657 v 4.4531 q 0,1 0.2657,1.2969 0.2812,0.2812 1.125,0.2812 h 1.375 V 389 h -1.375 q -1.5626,0 -2.1563,-0.5781 -0.5937,-0.5938 -0.5937,-2.125 v -4.4531 h -0.9844 v -1.0469 h 0.9844 v -2.3281 z m 4.5376,2.3281 h 1.3594 V 389 h -1.3594 z m 0,-3.1875 h 1.3594 v 1.7031 h -1.3594 z m 7.355,4.125 q -1.0781,0 -1.7187,0.8594 -0.625,0.8437 -0.625,2.3124 0,1.4688 0.625,2.3126 0.625,0.8437 1.7187,0.8437 1.0781,0 1.7031,-0.8437 0.625,-0.8438 0.625,-2.3126 0,-1.4531 -0.625,-2.3124 -0.625,-0.8594 -1.7031,-0.8594 z m 0,-1.1406 q 1.75,0 2.75,1.1562 1.0156,1.1406 1.0156,3.1562 0,2.0157 -1.0156,3.1719 -1,1.1407 -2.75,1.1407 -1.7656,0 -2.7656,-1.1407 -1,-1.1562 -1,-3.1719 0,-2.0156 1,-3.1562 1,-1.1562 2.7656,-1.1562 z m 12.8179,3.4531 V 389 h -1.3438 v -4.9062 q 0,-1.1719 -0.4531,-1.75 -0.4531,-0.5782 -1.375,-0.5782 -1.0781,0 -1.7188,0.7032 -0.625,0.6874 -0.625,1.8906 V 389 h -1.3593 v -8.2031 h 1.3593 v 1.2812 q 0.4844,-0.75 1.1407,-1.1093 0.6562,-0.375 1.5156,-0.375 1.4062,0 2.125,0.875 0.7344,0.875 0.7344,2.5781 z"
         clip-path="url(#clipPath12)"
         stroke="none"
         id="path118"
         style="font-size:15px;stroke-linecap:butt;text-rendering:optimizeLegibility" />
      <path
         fill="#000000"
         d="m 50.9531,396.2812 v 4.1094 h 1.8594 q 1.0313,0 1.5937,-0.5312 0.5626,-0.5469 0.5626,-1.5313 0,-0.9843 -0.5626,-1.5156 -0.5624,-0.5313 -1.5937,-0.5313 z m -1.4843,-1.2187 h 3.3437 q 1.8437,0 2.7813,0.8437 0.9374,0.8282 0.9374,2.4219 0,1.625 -0.9374,2.4531 -0.9376,0.8282 -2.7813,0.8282 H 50.9531 V 406 h -1.4843 z m 13.7485,4 q -0.2344,-0.1406 -0.5,-0.2031 -0.2656,-0.0625 -0.5938,-0.0625 -1.1406,0 -1.75,0.75 -0.6093,0.7343 -0.6093,2.125 V 406 h -1.3594 v -8.2031 h 1.3594 v 1.2812 q 0.4218,-0.75 1.0937,-1.1093 0.6875,-0.375 1.6719,-0.375 0.1406,0 0.2969,0.0312 0.1718,0.0156 0.375,0.0469 z m 4.5889,-0.3281 q -1.0782,0 -1.7188,0.8594 -0.625,0.8437 -0.625,2.3124 0,1.4688 0.625,2.3126 0.625,0.8437 1.7188,0.8437 1.0781,0 1.7031,-0.8437 0.625,-0.8438 0.625,-2.3126 0,-1.4531 -0.625,-2.3124 -0.625,-0.8594 -1.7031,-0.8594 z m 0,-1.1406 q 1.75,0 2.75,1.1562 1.0156,1.1406 1.0156,3.1562 0,2.0157 -1.0156,3.1719 -1,1.1407 -2.75,1.1407 -1.7657,0 -2.7657,-1.1407 -1,-1.1562 -1,-3.1719 0,-2.0156 1,-3.1562 1,-1.1562 2.7657,-1.1562 z m 11.8959,0.5156 v 1.2656 q -0.5625,-0.3125 -1.1406,-0.4688 -0.5781,-0.1718 -1.1562,-0.1718 -1.3125,0 -2.0469,0.8437 -0.7188,0.8281 -0.7188,2.3281 0,1.5 0.7188,2.3282 0.7344,0.8281 2.0469,0.8281 0.5781,0 1.1562,-0.1563 0.5781,-0.1562 1.1406,-0.4687 v 1.25 q -0.5625,0.2656 -1.1718,0.3906 -0.5938,0.1407 -1.2813,0.1407 -1.8437,0 -2.9375,-1.1563 -1.0937,-1.1719 -1.0937,-3.1563 0,-2 1.0937,-3.1562 1.1094,-1.1562 3.0313,-1.1562 0.625,0 1.2187,0.1406 0.5938,0.125 1.1406,0.375 z m 9.3721,3.4531 v 0.6563 h -6.2031 q 0.0937,1.3906 0.8437,2.125 0.75,0.7187 2.0782,0.7187 0.7812,0 1.5,-0.1875 0.7343,-0.1875 1.4531,-0.5625 v 1.2656 q -0.7188,0.3125 -1.4844,0.4688 -0.7656,0.1719 -1.5469,0.1719 -1.9531,0 -3.1093,-1.1407 -1.1407,-1.1562 -1.1407,-3.0937 0,-2.0156 1.0782,-3.2032 1.0937,-1.1874 2.9375,-1.1874 1.6562,0 2.625,1.0781 0.9687,1.0625 0.9687,2.8906 z m -1.3594,-0.3906 q -0.0156,-1.1094 -0.625,-1.7657 -0.5937,-0.6718 -1.5937,-0.6718 -1.125,0 -1.8125,0.6406 -0.6719,0.6406 -0.7656,1.7969 z m 8.7911,-3.1407 v 1.2813 q -0.5625,-0.2969 -1.1875,-0.4375 -0.6094,-0.1406 -1.2657,-0.1406 -1.0156,0 -1.5156,0.3125 -0.5,0.2969 -0.5,0.9062 0,0.4688 0.3594,0.7344 0.3594,0.2656 1.4531,0.5156 l 0.4531,0.1094 q 1.4375,0.2969 2.0313,0.8594 0.6094,0.5625 0.6094,1.5625 0,1.1406 -0.9063,1.8125 -0.8906,0.6719 -2.4844,0.6719 -0.6562,0 -1.375,-0.1407 -0.7031,-0.125 -1.5,-0.375 v -1.3906 q 0.75,0.3906 1.4688,0.5781 0.7344,0.1875 1.4375,0.1875 0.9531,0 1.4687,-0.3125 0.5157,-0.3281 0.5157,-0.9218 0,-0.5469 -0.375,-0.8438 -0.375,-0.2969 -1.625,-0.5625 l -0.4688,-0.1094 q -1.25,-0.2656 -1.8125,-0.8125 -0.5469,-0.5468 -0.5469,-1.5 0,-1.1562 0.8125,-1.7812 0.8282,-0.6406 2.3282,-0.6406 0.75,0 1.4062,0.1093 0.6719,0.1094 1.2188,0.3281 z m 7.8149,0 v 1.2813 q -0.5625,-0.2969 -1.1875,-0.4375 -0.6094,-0.1406 -1.2656,-0.1406 -1.0156,0 -1.5156,0.3125 -0.5,0.2969 -0.5,0.9062 0,0.4688 0.3593,0.7344 0.3594,0.2656 1.4532,0.5156 l 0.4531,0.1094 q 1.4375,0.2969 2.0312,0.8594 0.6094,0.5625 0.6094,1.5625 0,1.1406 -0.9062,1.8125 -0.8907,0.6719 -2.4844,0.6719 -0.6563,0 -1.375,-0.1407 -0.7031,-0.125 -1.5,-0.375 v -1.3906 q 0.75,0.3906 1.4687,0.5781 0.7344,0.1875 1.4375,0.1875 0.9532,0 1.4688,-0.3125 0.5156,-0.3281 0.5156,-0.9218 0,-0.5469 -0.375,-0.8438 -0.375,-0.2969 -1.625,-0.5625 l -0.4687,-0.1094 q -1.25,-0.2656 -1.8125,-0.8125 -0.5469,-0.5468 -0.5469,-1.5 0,-1.1562 0.8125,-1.7812 0.8281,-0.6406 2.3281,-0.6406 0.75,0 1.4063,0.1093 0.6718,0.1094 1.2187,0.3281 z"
         clip-path="url(#clipPath12)"
         stroke="none"
         id="path120"
         style="font-size:15px;stroke-linecap:butt;text-rendering:optimizeLegibility" />
      <rect
         x="10"
         y="443"
         clip-path="url(#clipPath13)"
         fill="#8fbce6"
         width="133"
         rx="10"
         ry="10"
         height="54"
         stroke="none"
         id="rect122"
         style="font-size:15px;stroke-linecap:butt;text-rendering:optimizeLegibility" />
      <rect
         x="10"
         y="443"
         clip-path="url(#clipPath13)"
         fill="none"
         width="133"
         rx="10"
         ry="10"
         height="54"
         id="rect124"
         style="font-size:15px;stroke:#6483a1;stroke-linecap:butt;text-rendering:optimizeLegibility" />
      <path
         fill="none"
         d="m 124,459 c 5.332,0 5.332,-9 0,-9"
         clip-path="url(#clipPath13)"
         fill-rule="evenodd"
         stroke="#000000"
         id="path126"
         style="font-size:15px;stroke-linecap:butt;text-rendering:optimizeLegibility" />
      <path
         fill="none"
         d="m 136,459 c 5.332,0 5.332,-9 0,-9 m -12,0 h 12 m -12,9 h 12"
         clip-path="url(#clipPath13)"
         fill-rule="evenodd"
         stroke="#000000"
         id="path128"
         style="font-size:15px;stroke-linecap:butt;text-rendering:optimizeLegibility" />
      <path
         fill="#000000"
         d="m 40.125,451.5156 -2,5.4532 h 4.0156 z m -0.8281,-1.4531 h 1.6719 L 45.1406,461 h -1.5468 l -0.9844,-2.8125 h -4.9375 l -1,2.8125 H 35.125 Z m 8.6831,9.7031 v 4.3594 H 46.6206 V 452.7969 H 47.98 v 1.25 q 0.4219,-0.7344 1.0625,-1.0938 0.6562,-0.3593 1.5625,-0.3593 1.4844,0 2.4219,1.1874 0.9375,1.1876 0.9375,3.125 0,1.9376 -0.9375,3.125 -0.9375,1.1876 -2.4219,1.1876 -0.9063,0 -1.5625,-0.3594 Q 48.4019,460.5 47.98,459.7656 Z m 4.5781,-2.8594 q 0,-1.4843 -0.6094,-2.3281 -0.6093,-0.8437 -1.6718,-0.8437 -1.0782,0 -1.6875,0.8437 -0.6094,0.8438 -0.6094,2.3281 0,1.4844 0.6094,2.3282 0.6093,0.8437 1.6875,0.8437 1.0625,0 1.6718,-0.8437 0.6094,-0.8438 0.6094,-2.3282 z m 4.9434,2.8594 v 4.3594 h -1.3594 v -11.3281 h 1.3594 v 1.25 q 0.4218,-0.7344 1.0625,-1.0938 0.6562,-0.3593 1.5625,-0.3593 1.4843,0 2.4218,1.1874 0.9375,1.1876 0.9375,3.125 0,1.9376 -0.9375,3.125 -0.9375,1.1876 -2.4218,1.1876 -0.9063,0 -1.5625,-0.3594 -0.6407,-0.3594 -1.0625,-1.0938 z m 4.5781,-2.8594 q 0,-1.4843 -0.6094,-2.3281 -0.6094,-0.8437 -1.6719,-0.8437 -1.0781,0 -1.6875,0.8437 -0.6093,0.8438 -0.6093,2.3281 0,1.4844 0.6093,2.3282 0.6094,0.8437 1.6875,0.8437 1.0625,0 1.6719,-0.8437 0.6094,-0.8438 0.6094,-2.3282 z m 3.6308,-7.2968 h 1.3594 V 461 h -1.3594 z m 4.1675,3.1875 h 1.3594 V 461 h -1.3594 z m 0,-3.1875 h 1.3594 v 1.7031 h -1.3594 z m 10.0738,3.5 v 1.2656 q -0.5625,-0.3125 -1.1407,-0.4688 -0.5781,-0.1718 -1.1562,-0.1718 -1.3125,0 -2.0469,0.8437 -0.7187,0.8281 -0.7187,2.3281 0,1.5 0.7187,2.3282 0.7344,0.8281 2.0469,0.8281 0.5781,0 1.1562,-0.1563 0.5782,-0.1562 1.1407,-0.4687 v 1.25 q -0.5625,0.2656 -1.1719,0.3906 -0.5938,0.1407 -1.2813,0.1407 -1.8437,0 -2.9375,-1.1563 -1.0937,-1.1719 -1.0937,-3.1563 0,-2 1.0937,-3.1562 1.1094,-1.1562 3.0313,-1.1562 0.625,0 1.2187,0.1406 0.5938,0.125 1.1407,0.375 z m 6.0752,3.7656 q -1.625,0 -2.2657,0.375 -0.625,0.375 -0.625,1.2812 0,0.7032 0.4688,1.125 0.4687,0.4219 1.2812,0.4219 1.125,0 1.7969,-0.7812 0.6875,-0.7969 0.6875,-2.125 v -0.2969 z m 2.6875,-0.5625 V 461 h -1.3438 v -1.25 q -0.4687,0.75 -1.1562,1.1094 -0.6875,0.3594 -1.6875,0.3594 -1.25,0 -2,-0.7032 -0.7344,-0.7187 -0.7344,-1.9062 0,-1.375 0.9219,-2.0782 0.9218,-0.7031 2.7656,-0.7031 h 1.8906 v -0.1406 q 0,-0.9219 -0.6094,-1.4375 -0.6093,-0.5156 -1.7187,-0.5156 -0.7031,0 -1.375,0.1718 -0.6719,0.1719 -1.2813,0.5157 v -1.25 q 0.7344,-0.2813 1.4375,-0.4219 0.7032,-0.1562 1.3594,-0.1562 1.7813,0 2.6563,0.9218 0.875,0.9219 0.875,2.7969 z m 4.1137,-5.8437 v 2.3281 h 2.7657 v 1.0469 h -2.7657 v 4.4531 q 0,1 0.2657,1.2969 0.2812,0.2812 1.125,0.2812 h 1.375 V 461 h -1.375 q -1.5626,0 -2.1563,-0.5781 -0.5937,-0.5938 -0.5937,-2.125 v -4.4531 h -0.9844 v -1.0469 h 0.9844 v -2.3281 z m 4.5376,2.3281 h 1.3594 V 461 h -1.3594 z m 0,-3.1875 h 1.3594 v 1.7031 h -1.3594 z m 7.355,4.125 q -1.0781,0 -1.7187,0.8594 -0.625,0.8437 -0.625,2.3124 0,1.4688 0.625,2.3126 0.625,0.8437 1.7187,0.8437 1.0781,0 1.7031,-0.8437 0.625,-0.8438 0.625,-2.3126 0,-1.4531 -0.625,-2.3124 -0.625,-0.8594 -1.7031,-0.8594 z m 0,-1.1406 q 1.75,0 2.75,1.1562 1.0156,1.1406 1.0156,3.1562 0,2.0157 -1.0156,3.1719 -1,1.1407 -2.75,1.1407 -1.7656,0 -2.7656,-1.1407 -1,-1.1562 -1,-3.1719 0,-2.0156 1,-3.1562 1,-1.1562 2.7656,-1.1562 z m 12.8179,3.4531 V 461 h -1.3438 v -4.9062 q 0,-1.1719 -0.4531,-1.75 -0.4531,-0.5782 -1.375,-0.5782 -1.0781,0 -1.7188,0.7032 -0.625,0.6874 -0.625,1.8906 V 461 h -1.3593 v -8.2031 h 1.3593 v 1.2812 q 0.4844,-0.75 1.1407,-1.1093 0.6562,-0.375 1.5156,-0.375 1.4062,0 2.125,0.875 0.7344,0.875 0.7344,2.5781 z"
         clip-path="url(#clipPath14)"
         stroke="none"
         id="path130"
         style="font-size:15px;stroke-linecap:butt;text-rendering:optimizeLegibility" />
      <path
         fill="#000000"
         d="m 56.4688,467.0625 h 6.9218 v 1.25 h -5.4375 v 3.2344 h 5.2031 v 1.25 h -5.2031 v 3.9531 h 5.5625 V 478 h -7.0468 z m 8.4619,2.7344 h 1.4218 l 2.5625,6.8906 2.5625,-6.8906 H 72.915 L 69.8369,478 h -1.8437 z m 16.8613,3.7656 v 0.6563 h -6.2031 q 0.0937,1.3906 0.8437,2.125 0.75,0.7187 2.0781,0.7187 0.7813,0 1.5,-0.1875 0.7344,-0.1875 1.4532,-0.5625 v 1.2656 q -0.7188,0.3125 -1.4844,0.4688 -0.7656,0.1719 -1.5469,0.1719 -1.9531,0 -3.1094,-1.1407 -1.1406,-1.1562 -1.1406,-3.0937 0,-2.0156 1.0781,-3.2032 1.0938,-1.1874 2.9375,-1.1874 1.6563,0 2.625,1.0781 0.9688,1.0625 0.9688,2.8906 z m -1.3594,-0.3906 q -0.0156,-1.1094 -0.625,-1.7657 -0.5937,-0.6718 -1.5937,-0.6718 -1.125,0 -1.8125,0.6406 -0.6719,0.6406 -0.7657,1.7969 z m 10.3848,-0.125 V 478 h -1.3438 v -4.9062 q 0,-1.1719 -0.4531,-1.75 -0.4531,-0.5782 -1.375,-0.5782 -1.0781,0 -1.7187,0.7032 -0.625,0.6874 -0.625,1.8906 V 478 h -1.3594 v -8.2031 h 1.3594 v 1.2812 q 0.4843,-0.75 1.1406,-1.1093 0.6562,-0.375 1.5156,-0.375 1.4063,0 2.125,0.875 0.7344,0.875 0.7344,2.5781 z m 4.0224,-5.5781 v 2.3281 h 2.7657 v 1.0469 h -2.7657 v 4.4531 q 0,1 0.2657,1.2969 0.2812,0.2812 1.125,0.2812 h 1.375 V 478 h -1.375 q -1.5625,0 -2.1563,-0.5781 -0.5937,-0.5938 -0.5937,-2.125 v -4.4531 h -0.9844 v -1.0469 h 0.9844 v -2.3281 z"
         clip-path="url(#clipPath14)"
         stroke="none"
         id="path132"
         style="font-size:15px;stroke-linecap:butt;text-rendering:optimizeLegibility" />
    </g>
  </g>
</svg>
