<?xml version="1.0" encoding="UTF-8" standalone="no"?>
<svg
   xmlns:dc="http://purl.org/dc/elements/1.1/"
   xmlns:cc="http://creativecommons.org/ns#"
   xmlns:rdf="http://www.w3.org/1999/02/22-rdf-syntax-ns#"
   xmlns:svg="http://www.w3.org/2000/svg"
   xmlns="http://www.w3.org/2000/svg"
   version="1.1"
   id="svg2"
   xml:space="preserve"
   width="981.43994"
   height="569.27997"
   viewBox="0 0 981.43994 569.27997"><metadata
     id="metadata8"><rdf:RDF><cc:Work
         rdf:about=""><dc:format>image/svg+xml</dc:format><dc:type
           rdf:resource="http://purl.org/dc/dcmitype/StillImage" /></cc:Work></rdf:RDF></metadata><defs
     id="defs6"><clipPath
       clipPathUnits="userSpaceOnUse"
       id="clipPath18"><path
         d="M 0,0 H 3066.6665 V 1777.6473 H 0 Z"
         clip-rule="evenodd"
         id="path16" /></clipPath><clipPath
       clipPathUnits="userSpaceOnUse"
       id="clipPath30"><path
         d="M 0,0 H 3066.6665 V 1777.6473 H 0 Z"
         clip-rule="evenodd"
         id="path28" /></clipPath></defs><g
     id="g10"
     transform="matrix(0.31999998,0,0,0.31999998,0,1.7565333e-5)"><g
       id="g12"><g
         id="g14"
         clip-path="url(#clipPath18)"><g
           id="g20"
           transform="scale(2.997719)"><path
             d="M 0,0 H 1023 V 593 H 0 Z"
             style="fill:#ffffff;fill-opacity:1;fill-rule:nonzero;stroke:none"
             id="path22" /></g></g></g><g
       id="g24"><g
         id="g26"
         clip-path="url(#clipPath30)"><g
           id="g32"
           transform="matrix(2.997719,0,0,2.997719,1.4988595,1.4988595)"><path
             d="m 17,0.5 h 8 v 1 h -8 z m 16,0 h 8 v 1 h -8 z m 16,0 h 8 v 1 h -8 z m 16,0 h 8 v 1 h -8 z m 16,0 h 8 v 1 h -8 z m 16,0 h 8 v 1 h -8 z m 16,0 h 8 v 1 h -8 z m 16,0 h 8 v 1 h -8 z m 16,0 h 8 v 1 h -8 z m 16,0 h 8 v 1 h -8 z m 16,0 h 8 v 1 h -8 z m 16,0 h 8 v 1 h -8 z m 16,0 h 8 v 1 h -8 z m 16,0 h 8 v 1 h -8 z m 16,0 h 8 v 1 h -8 z m 16,0 h 8 v 1 h -8 z m 16,0 h 8 v 1 h -8 z m 16,0 h 8 v 1 h -8 z m 16,0 h 8 v 1 h -8 z m 16,0 h 8 v 1 h -8 z m 16,0 h 8 v 1 h -8 z m 16,0 h 8 v 1 h -8 z m 16,0 h 8 v 1 h -8 z m 16,0 h 8 v 1 h -8 z m 16,0 h 8 v 1 h -8 z m 16,0 h 8 v 1 h -8 z m 16,0 h 8 v 1 h -8 z m 16,0 h 8 v 1 h -8 z m 16,0 h 8 v 1 h -8 z m 16,0 h 8 v 1 h -8 z m 16,0 h 8 v 1 h -8 z m 16,0 h 8 v 1 h -8 z m 16,0 h 8 v 1 h -8 z m 16,0 h 8 v 1 h -8 z m 16,0 h 8 v 1 h -8 z m 16,0 h 8 v 1 h -8 z m 16,0 h 8 v 1 h -8 z m 16,0 h 8 v 1 h -8 z m 16,0 h 8 v 1 h -8 z m 16,0 h 8 v 1 h -8 z m 16,0 h 8 v 1 h -8 z m 16,0 h 8 v 1 h -8 z m 16,0 h 8 v 1 h -8 z m 16,0 h 8 v 1 h -8 z m 16,0 h 8 v 1 h -8 z m 16,0 h 8 v 1 h -8 z m 16,0 h 8 v 1 h -8 z m 16,0 h 8 v 1 h -8 z m 16,0 h 8 v 1 h -8 z m 16,0 h 8 v 1 h -8 z m 16,0 h 8 v 1 h -8 z m 16,0 h 8 v 1 h -8 z m 16,0 h 8 v 1 h -8 z m 16,0 h 8 v 1 h -8 z m 16,0 h 8 v 1 h -8 z m 16,0 h 8 v 1 h -8 z m 16,0 h 8 v 1 h -8 z m 16,0 h 8 v 1 h -8 z m 16,0 h 8 v 1 h -8 z m 16,0 h 8 v 1 h -8 z m 16,0 h 8 v 1 h -8 z m 16,0 h 8 v 1 h -8 z m 16,0 h 8 v 1 h -8 z m 12.5,4.5 v 8 h -1 V 5 Z m 0,16 v 8 h -1 v -8 z m 0,16 v 8 h -1 v -8 z m 0,16 v 7.999996 h -1 V 53 Z m 0,16 v 8 h -1 v -8 z m 0,16 v 8 h -1 v -8 z m 0,16 v 8 h -1 v -8 z m 0,16 v 8 h -1 v -8 z m 0,16 v 8 h -1 v -8 z m 0,16 v 8 h -1 v -8 z m 0,16 v 8 h -1 v -8 z m 0,16 v 8 h -1 v -8 z m 0,16 v 8 h -1 v -8 z m 0,16 v 8 h -1 v -8 z m 0,15.99998 V 237 h -1 v -8.00002 z m 0,16.00002 v 7.99998 h -1 V 245 Z m 0,16 v 8 h -1 v -8 z m 0,16 v 8 h -1 v -8 z m 0,16 v 8 h -1 v -8 z m 0,15.99997 V 317 h -1 v -8.00003 z m 0,16.00003 v 7.99997 h -1 V 325 Z m 0,16 v 8 h -1 v -8 z m 0,16.00003 V 365 h -1 v -7.99997 z m 0,15.99997 v 8.00003 h -1 V 373 Z m 0,16 v 8 h -1 v -8 z m 0,16 v 8 h -1 v -8 z m 0,16 v 8 h -1 v -8 z m 0,16 v 8 h -1 v -8 z m 0,16 v 8 h -1 v -8 z m 0,16 v 8 h -1 v -8 z m 0,16 v 8 h -1 v -8 z m 0,16 v 8 h -1 v -8 z m 0,16 v 8 h -1 v -8 z m 0,16 v 8 h -1 v -8 z m 0,16 v 8 h -1 v -8 z m 0,16 v 8 h -1 v -8 z m 0,16 v 8 h -1 v -8 z m -6.5,10.5 h -8 v -1 h 8 z m -16,0 h -8 v -1 h 8 z m -16,0 h -8 v -1 h 8 z m -16,0 h -8 v -1 h 8 z m -16,0 h -8 v -1 h 8 z m -16,0 h -8 v -1 h 8 z m -16,0 h -8 v -1 h 8 z m -16,0 h -8 v -1 h 8 z m -16,0 h -8 v -1 h 8 z m -16,0 h -8 v -1 h 8 z m -16,0 h -8 v -1 h 8 z m -16,0 h -8 v -1 h 8 z m -16,0 h -8 v -1 h 8 z m -16,0 h -8 v -1 h 8 z m -16,0 h -8 v -1 h 8 z m -16,0 h -8 v -1 h 8 z m -16,0 h -8 v -1 h 8 z m -16,0 h -8 v -1 h 8 z m -16,0 h -8 v -1 h 8 z m -16,0 h -8 v -1 h 8 z m -16,0 h -8 v -1 h 8 z m -16,0 h -8 v -1 h 8 z m -16,0 h -8 v -1 h 8 z m -16,0 h -8 v -1 h 8 z m -16,0 h -8 v -1 h 8 z m -16,0 h -8 v -1 h 8 z m -16,0 h -8 v -1 h 8 z m -16,0 h -8 v -1 h 8 z m -16,0 h -8 v -1 h 8 z m -16,0 h -8 v -1 h 8 z m -16,0 h -8 v -1 h 8 z m -16,0 h -8 v -1 h 8 z m -16,0 h -8 v -1 h 8 z m -16,0 h -8 v -1 h 8 z m -16,0 h -8 v -1 h 8 z m -16,0 h -8 v -1 h 8 z m -16,0 h -8 v -1 h 8 z m -16,0 h -8 v -1 h 8 z m -16,0 h -8 v -1 h 8 z m -16,0 h -8 v -1 h 8 z m -16,0 h -8 v -1 h 8 z m -16,0 h -8 v -1 h 8 z m -16,0 h -8 v -1 h 8 z m -16,0 h -8 v -1 h 8 z m -16,0 h -8 v -1 h 8 z m -16,0 h -8 v -1 h 8 z m -16,0 h -8 v -1 h 8 z m -16,0 h -8 v -1 h 8 z m -16,0 h -8 v -1 h 8 z m -16,0 h -8 v -1 h 8 z m -16,0 h -8 v -1 h 8 z m -16,0 h -8 v -1 h 8 z m -16,0 h -8 v -1 h 8 z m -16,0 h -8 v -1 h 8 z m -16,0 h -8 v -1 h 8 z m -16,0 h -8 v -1 h 8 z m -16,0 h -8 v -1 h 8 z m -16,0 h -8 v -1 h 8 z m -16,0 h -8 v -1 h 8 z m -16,0 h -8 v -1 h 8 z m -16,0 h -8 v -1 h 8 z m -16,0 h -8 v -1 h 8 z m -16,0 h -8 v -1 h 8 z m -16,0 H 0.5 V 589 h 1 v 2 H 1 v -0.5 H 7 Z M 0.5,581 v -8 h 1 v 8 z m 0,-16 v -8 h 1 v 8 z m 0,-16 v -8 h 1 v 8 z m 0,-16 v -8 h 1 v 8 z m 0,-16 v -8 h 1 v 8 z m 0,-16 v -8 h 1 v 8 z m 0,-16 v -8 h 1 v 8 z m 0,-16 v -8 h 1 v 8 z m 0,-16 v -8 h 1 v 8 z m 0,-16 v -8 h 1 v 8 z m 0,-16 v -8 h 1 v 8 z m 0,-16 v -8 h 1 v 8 z m 0,-16 v -8 h 1 v 8 z m 0,-16 v -8 h 1 v 8 z m 0,-16 v -8 h 1 v 8 z m 0,-16 v -8 h 1 v 8 z m 0,-16 v -8 h 1 v 8 z m 0,-16 v -8 h 1 v 8 z m 0,-16 v -8.00003 h 1 V 293 Z m 0,-16 v -8 h 1 v 8 z m 0,-16 v -8 h 1 v 8 z m 0,-16 v -8 h 1 v 8 z m 0,-16 v -8 h 1 v 8 z m 0,-16 v -8 h 1 v 8 z m 0,-16 v -8 h 1 v 8 z m 0,-16 v -8 h 1 v 8 z m 0,-16 v -8 h 1 v 8 z m 0,-16 v -8 h 1 v 8 z m 0,-16 v -8 h 1 v 8 z m 0,-16 v -8 h 1 v 8 z m 0,-16 v -8 h 1 v 8 z m 0,-16 v -8 h 1 v 8 z m 0,-16 v -8 h 1 v 8 z m 0,-16 v -8 h 1 v 8 z m 0,-16 v -8 h 1 v 8 z m 0,-16 v -8 h 1 v 8 z M 0.5,5 V 0.5 H 9 v 1 H 1 V 1 h 0.5 v 4 z"
             style="fill:#828282;fill-opacity:1;fill-rule:nonzero;stroke:none"
             id="path34" /></g><g
           id="g36"
           transform="scale(2.997719)"><text
             transform="translate(6,565)"
             style="font-variant:normal;font-weight:bold;font-size:16px;font-family:Arimo;-inkscape-font-specification:Arimo-Bold;writing-mode:lr-tb;fill:#000000;fill-opacity:1;fill-rule:nonzero;stroke:none"
             id="text40"><tspan
               x="0 11.554688 23.109375 33.78125 38.226562 49.78125 59.554688 73.78125 82.679688 87.125"
               y="0"
               id="tspan38">UCS Domain</tspan></text><text
             transform="translate(6,582)"
             style="font-variant:normal;font-weight:normal;font-size:14px;font-family:Arimo;-inkscape-font-specification:Arimo;writing-mode:lr-tb;fill:#000000;fill-opacity:1;fill-rule:nonzero;stroke:none"
             id="text44"><tspan
               x="0 3.8896484 14 21.786133 33.448242 41.234375 44.344727 52.130859"
               y="0"
               id="tspan42">[Domain]</tspan></text></g><g
           id="g46"
           transform="matrix(2.997719,0,0,2.997719,1.4988595,1.4988595)"><path
             d="m 873,235 h 98 c 1.01532,2e-5 2.02814,0.0498 3.03857,0.14928 1.01032,0.0995 2.01337,0.2483 3.00916,0.44638 0.99579,0.19807 1.97949,0.44449 2.95105,0.73921 0.9715,0.29471 1.92627,0.63632 2.86426,1.02486 0.93805,0.38853 1.85473,0.82211 2.75012,1.3007 0.89545,0.47862 1.7652,0.99996 2.60937,1.564 0.84418,0.56407 1.65876,1.16815 2.44361,1.81224 0.78485,0.6441 1.53619,1.3251 2.25409,2.04301 0.71795,0.71791 1.39892,1.46929 2.04303,2.25411 0.6441,0.78483 1.24817,1.59933 1.81219,2.44351 0.56409,0.84419 1.08545,1.71399 1.56403,2.60939 0.47864,0.8954 0.91217,1.8121 1.30066,2.75011 0.38866,0.93801 0.73026,1.8928 1.02506,2.86436 0.2947,0.97159 0.541,1.95526 0.7391,2.95102 0.1981,0.99579 0.3469,1.99887 0.4465,3.00928 0.099,1.0104 0.1493,2.02325 0.1492,3.03854 v 38 c 10e-5,1.01529 -0.05,2.02811 -0.1492,3.03851 -0.1,1.01041 -0.2484,2.01349 -0.4465,3.00925 -0.1981,0.99576 -0.4444,1.97943 -0.7391,2.95102 -0.2948,0.97159 -0.6364,1.92636 -1.02506,2.86435 -0.38849,0.93802 -0.82202,1.85473 -1.30066,2.75015 -0.47858,0.89542 -0.99994,1.7652 -1.56409,2.60935 -0.56403,0.8442 -1.16803,1.65872 -1.81213,2.44354 -0.64411,0.78482 -1.32508,1.53619 -2.04303,2.25409 -0.7179,0.71792 -1.46924,1.39895 -2.25409,2.04303 -0.78485,0.6441 -1.59943,1.2482 -2.44361,1.81225 -0.84417,0.56409 -1.71392,1.08542 -2.60931,1.564 -0.89545,0.47861 -1.81213,0.91217 -2.75018,1.30069 -0.93799,0.38852 -1.8927,0.73016 -2.8642,1.0249 -0.97162,0.29474 -1.95532,0.54114 -2.95111,0.7392 -0.99579,0.19806 -1.99884,0.34686 -3.00916,0.44638 C 973.02814,334.95023 972.01532,335 971,335 h -98 c -1.01526,0 -2.02808,-0.0498 -3.03851,-0.14929 -1.01044,-0.0995 -2.01355,-0.24832 -3.00934,-0.44638 -0.99579,-0.19806 -1.97943,-0.44446 -2.95099,-0.7392 -0.97162,-0.29474 -1.92645,-0.63638 -2.8645,-1.0249 -0.93799,-0.38852 -1.85468,-0.82208 -2.75012,-1.30069 -0.89539,-0.47858 -1.7652,-0.99991 -2.60938,-1.564 -0.84412,-0.56405 -1.65857,-1.16815 -2.44342,-1.81222 -0.78479,-0.64411 -1.53613,-1.32514 -2.25409,-2.04306 -0.71783,-0.7179 -1.39886,-1.46927 -2.04297,-2.25409 -0.6441,-0.78482 -1.24823,-1.59934 -1.81231,-2.44354 -0.56403,-0.84415 -1.08539,-1.71393 -1.56397,-2.60935 -0.47858,-0.89542 -0.91217,-1.81213 -1.30072,-2.75015 -0.38849,-0.93799 -0.7301,-1.89276 -1.02484,-2.86435 -0.29474,-0.97159 -0.5412,-1.95526 -0.73926,-2.95102 -0.19806,-0.99576 -0.3468,-1.99884 -0.44635,-3.00925 C 842.04974,306.02811 842,305.01529 842,304 v -38 c 0,-1.01529 0.0497,-2.02814 0.14923,-3.03854 0.0996,-1.01041 0.24829,-2.01349 0.44629,-3.00928 0.19812,-0.99576 0.44452,-1.97943 0.73926,-2.95099 0.29474,-0.97156 0.63635,-1.92636 1.02484,-2.86438 0.38855,-0.938 0.82214,-1.85472 1.30078,-2.75012 0.47858,-0.8954 0.99988,-1.7652 1.5639,-2.60939 0.56409,-0.84418 1.16822,-1.65868 1.81238,-2.44351 0.64411,-0.78482 1.32514,-1.5362 2.04297,-2.25411 0.71796,-0.71791 1.4693,-1.39891 2.25409,-2.043 0.78485,-0.64409 1.59937,-1.24818 2.44348,-1.81225 0.84418,-0.56404 1.71393,-1.08538 2.60938,-1.564 0.89538,-0.47859 1.81207,-0.91217 2.75006,-1.3007 0.93805,-0.38854 1.89282,-0.73015 2.86444,-1.02488 0.97156,-0.29472 1.9552,-0.54113 2.95099,-0.73921 0.99579,-0.19806 1.99896,-0.34685 3.0094,-0.44636 1.01043,-0.0995 2.02325,-0.14926 3.03851,-0.14928 z"
             style="fill:#7ab51d;fill-opacity:1;fill-rule:nonzero;stroke:none"
             id="path48" /><path
             d="m 873,235 h 98 c 1.01532,2e-5 2.02814,0.0498 3.03857,0.14928 1.01032,0.0995 2.01337,0.2483 3.00916,0.44638 0.99579,0.19807 1.97949,0.44449 2.95105,0.73921 0.9715,0.29471 1.92627,0.63632 2.86426,1.02486 0.93805,0.38853 1.85473,0.82211 2.75012,1.3007 0.89545,0.47862 1.7652,0.99996 2.60937,1.564 0.84418,0.56407 1.65876,1.16815 2.44361,1.81224 0.78485,0.6441 1.53619,1.3251 2.25409,2.04301 0.71795,0.71791 1.39892,1.46929 2.04303,2.25411 0.6441,0.78483 1.24817,1.59933 1.81219,2.44351 0.56409,0.84419 1.08545,1.71399 1.56403,2.60939 0.47864,0.8954 0.91217,1.8121 1.30066,2.75011 0.38866,0.93801 0.73026,1.8928 1.02506,2.86436 0.2947,0.97159 0.541,1.95526 0.7391,2.95102 0.1981,0.99579 0.3469,1.99887 0.4465,3.00928 0.099,1.0104 0.1493,2.02325 0.1492,3.03854 v 38 c 10e-5,1.01529 -0.05,2.02811 -0.1492,3.03851 -0.1,1.01041 -0.2484,2.01349 -0.4465,3.00925 -0.1981,0.99576 -0.4444,1.97943 -0.7391,2.95102 -0.2948,0.97159 -0.6364,1.92636 -1.02506,2.86435 -0.38849,0.93802 -0.82202,1.85473 -1.30066,2.75015 -0.47858,0.89542 -0.99994,1.7652 -1.56409,2.60935 -0.56403,0.8442 -1.16803,1.65872 -1.81213,2.44354 -0.64411,0.78482 -1.32508,1.53619 -2.04303,2.25409 -0.7179,0.71792 -1.46924,1.39895 -2.25409,2.04303 -0.78485,0.6441 -1.59943,1.2482 -2.44361,1.81225 -0.84417,0.56409 -1.71392,1.08542 -2.60931,1.564 -0.89545,0.47861 -1.81213,0.91217 -2.75018,1.30069 -0.93799,0.38852 -1.8927,0.73016 -2.8642,1.0249 -0.97162,0.29474 -1.95532,0.54114 -2.95111,0.7392 -0.99579,0.19806 -1.99884,0.34686 -3.00916,0.44638 C 973.02814,334.95023 972.01532,335 971,335 h -98 c -1.01526,0 -2.02808,-0.0498 -3.03851,-0.14929 -1.01044,-0.0995 -2.01355,-0.24832 -3.00934,-0.44638 -0.99579,-0.19806 -1.97943,-0.44446 -2.95099,-0.7392 -0.97162,-0.29474 -1.92645,-0.63638 -2.8645,-1.0249 -0.93799,-0.38852 -1.85468,-0.82208 -2.75012,-1.30069 -0.89539,-0.47858 -1.7652,-0.99991 -2.60938,-1.564 -0.84412,-0.56405 -1.65857,-1.16815 -2.44342,-1.81222 -0.78479,-0.64411 -1.53613,-1.32514 -2.25409,-2.04306 -0.71783,-0.7179 -1.39886,-1.46927 -2.04297,-2.25409 -0.6441,-0.78482 -1.24823,-1.59934 -1.81231,-2.44354 -0.56403,-0.84415 -1.08539,-1.71393 -1.56397,-2.60935 -0.47858,-0.89542 -0.91217,-1.81213 -1.30072,-2.75015 -0.38849,-0.93799 -0.7301,-1.89276 -1.02484,-2.86435 -0.29474,-0.97159 -0.5412,-1.95526 -0.73926,-2.95102 -0.19806,-0.99576 -0.3468,-1.99884 -0.44635,-3.00925 C 842.04974,306.02811 842,305.01529 842,304 v -38 c 0,-1.01529 0.0497,-2.02814 0.14923,-3.03854 0.0996,-1.01041 0.24829,-2.01349 0.44629,-3.00928 0.19812,-0.99576 0.44452,-1.97943 0.73926,-2.95099 0.29474,-0.97156 0.63635,-1.92636 1.02484,-2.86438 0.38855,-0.938 0.82214,-1.85472 1.30078,-2.75012 0.47858,-0.8954 0.99988,-1.7652 1.5639,-2.60939 0.56409,-0.84418 1.16822,-1.65868 1.81238,-2.44351 0.64411,-0.78482 1.32514,-1.5362 2.04297,-2.25411 0.71796,-0.71791 1.4693,-1.39891 2.25409,-2.043 0.78485,-0.64409 1.59937,-1.24818 2.44348,-1.81225 0.84418,-0.56404 1.71393,-1.08538 2.60938,-1.564 0.89538,-0.47859 1.81207,-0.91217 2.75006,-1.3007 0.93805,-0.38854 1.89282,-0.73015 2.86444,-1.02488 0.97156,-0.29472 1.9552,-0.54113 2.95099,-0.73921 0.99579,-0.19806 1.99896,-0.34685 3.0094,-0.44636 1.01043,-0.0995 2.02325,-0.14926 3.03851,-0.14928 z"
             style="fill:none;stroke:#336600;stroke-width:1;stroke-linecap:butt;stroke-linejoin:miter;stroke-miterlimit:10;stroke-dasharray:none;stroke-opacity:1"
             id="path50" /></g><g
           id="g52"
           transform="scale(2.997719)"><text
             transform="translate(902.54688,270)"
             style="font-variant:normal;font-weight:bold;font-size:14px;font-family:Arimo;-inkscape-font-specification:Arimo-Bold;writing-mode:lr-tb;fill:#ffffff;fill-opacity:1;fill-rule:nonzero;stroke:none"
             id="text56"><tspan
               x="0 10.110352 17.896484 25.682617 31.130859"
               y="0"
               id="tspan54">Users</tspan></text><text
             transform="translate(907.10938,285)"
             style="font-variant:normal;font-weight:normal;font-size:8px;font-family:Arimo;-inkscape-font-specification:Arimo;writing-mode:lr-tb;fill:#ffffff;fill-opacity:1;fill-rule:nonzero;stroke:none"
             id="text60"><tspan
               x="0 2.2226562 7.5585938 12.007812 14.671875 18.671875 23.121094 27.570312"
               y="0"
               id="tspan58">[Person]</tspan></text><text
             transform="translate(885.3125,311)"
             style="font-variant:normal;font-weight:normal;font-size:10px;font-family:Arimo;-inkscape-font-specification:Arimo;writing-mode:lr-tb;fill:#ffffff;fill-opacity:1;fill-rule:nonzero;stroke:none"
             id="text64"><tspan
               x="0 7.2216797 12.22168 17.783203 20.561523 23.339844 28.901367 34.462891 39.462891 42.241211 44.462891 50.024414 55.585938 61.147461 63.369141 65.59082 68.369141"
               y="0"
               id="tspan62">Use functionality</tspan></text></g><g
           id="g66"
           transform="matrix(2.997719,0,0,2.997719,1.4988595,1.4988595)"><path
             d="m 962,205 c 6e-5,1.31004 -0.0642,2.61694 -0.19257,3.92068 -0.12847,1.30373 -0.32049,2.59804 -0.57611,3.88291 -0.25555,1.28488 -0.57348,2.55414 -0.95373,3.80777 -0.38031,1.25365 -0.82111,2.48562 -1.32251,3.69595 -0.50128,1.21034 -1.06067,2.39318 -1.67822,3.54852 -0.61762,1.15539 -1.29035,2.2777 -2.01819,3.36696 -0.72779,1.08928 -1.50721,2.14026 -2.33826,3.15293 -0.83112,1.01269 -1.70984,1.98221 -2.63623,2.90854 -0.92627,0.92634 -1.89575,1.80506 -2.90845,2.63613 -1.01269,0.83111 -2.06372,1.61055 -3.15301,2.33835 -1.0893,0.72783 -2.21161,1.40053 -3.36695,2.0181 -1.15533,0.61755 -2.33819,1.17699 -3.54852,1.67831 -1.21033,0.50135 -2.44232,0.94216 -3.69592,1.32245 -1.2536,0.3803 -2.52289,0.69823 -3.8078,0.9538 -1.28485,0.25558 -2.5791,0.44759 -3.88288,0.57599 C 924.61694,244.93579 923.31006,245 922,245 c -1.31,0 -2.61688,-0.0642 -3.92065,-0.19261 -1.30378,-0.1284 -2.59809,-0.32041 -3.883,-0.57601 -1.28485,-0.25557 -2.55414,-0.5735 -3.80774,-0.95379 -1.25366,-0.3803 -2.48566,-0.82111 -3.69604,-1.32245 -1.21027,-0.50133 -2.39313,-1.06076 -3.54847,-1.67832 -1.15533,-0.61756 -2.27764,-1.29025 -3.36694,-2.01808 -1.08923,-0.7278 -2.1402,-1.50724 -3.15289,-2.33835 -1.0127,-0.83107 -1.98224,-1.70979 -2.90857,-2.63613 -0.92633,-0.92633 -1.80506,-1.89585 -2.63617,-2.90854 -0.83112,-1.01267 -1.61054,-2.06365 -2.33838,-3.15293 -0.72784,-1.08926 -1.40051,-2.21157 -2.01807,-3.36694 -0.61755,-1.15535 -1.177,-2.3382 -1.6784,-3.54854 -0.50128,-1.21033 -0.94208,-2.4423 -1.32233,-3.69594 -0.38031,-1.25363 -0.69824,-2.52288 -0.9538,-3.80777 -0.25555,-1.28488 -0.44751,-2.57919 -0.57586,-3.88292 C 882.06427,207.61694 882.00006,206.31004 882,205 c 6e-5,-1.31004 0.0643,-2.61694 0.19269,-3.92068 0.12835,-1.30375 0.32025,-2.59806 0.5758,-3.88295 0.25556,-1.28487 0.57355,-2.55413 0.95386,-3.80777 0.38025,-1.25365 0.82105,-2.48565 1.32233,-3.69597 0.5014,-1.21031 1.06085,-2.39316 1.6784,-3.54851 0.61756,-1.15538 1.29023,-2.2777 2.01801,-3.36697 0.72784,-1.08925 1.50732,-2.14023 2.33844,-3.15291 0.83111,-1.01268 1.70984,-1.98218 2.63617,-2.90853 0.92633,-0.92634 1.89587,-1.80505 2.90857,-2.63614 1.01269,-0.8311 2.06366,-1.61055 3.15283,-2.33837 1.08929,-0.72782 2.21167,-1.4005 3.367,-2.01806 1.15534,-0.61753 2.3382,-1.17698 3.54847,-1.67834 1.21038,-0.50133 2.44238,-0.94214 3.69598,-1.32242 1.25366,-0.38028 2.52295,-0.69821 3.8078,-0.9538 1.28491,-0.25556 2.57922,-0.44755 3.883,-0.57595 C 919.38312,165.06422 920.69,165.00001 922,165 c 1.31006,1e-5 2.61694,0.0642 3.92065,0.19263 1.30378,0.1284 2.59803,0.32039 3.88288,0.57595 1.28491,0.25559 2.5542,0.57352 3.80786,0.9538 1.2536,0.38028 2.48553,0.82109 3.69586,1.32242 1.21033,0.50136 2.39319,1.06081 3.54852,1.67834 1.15534,0.61756 2.27765,1.29024 3.36695,2.01806 1.08929,0.72782 2.14032,1.50727 3.15301,2.33836 1.0127,0.8311 1.98218,1.70981 2.90845,2.63615 0.92639,0.92635 1.80518,1.89586 2.63629,2.90854 0.83099,1.01268 1.61041,2.06365 2.3382,3.1529 0.72784,1.08927 1.40057,2.21159 2.01812,3.36695 0.61762,1.15537 1.17701,2.33822 1.67829,3.54853 0.5014,1.21032 0.94226,2.4423 1.32257,3.69595 0.38019,1.25365 0.69812,2.52292 0.95367,3.80779 0.25562,1.28489 0.44764,2.5792 0.57605,3.88296 0.12848,1.30373 0.19269,2.61063 0.19263,3.92067 z"
             style="fill:#7ab51d;fill-opacity:1;fill-rule:nonzero;stroke:none"
             id="path68" /><path
             d="m 962,205 c 6e-5,1.31004 -0.0642,2.61694 -0.19257,3.92068 -0.12847,1.30373 -0.32049,2.59804 -0.57611,3.88291 -0.25555,1.28488 -0.57348,2.55414 -0.95373,3.80777 -0.38031,1.25365 -0.82111,2.48562 -1.32251,3.69595 -0.50128,1.21034 -1.06067,2.39318 -1.67822,3.54852 -0.61762,1.15539 -1.29035,2.2777 -2.01819,3.36696 -0.72779,1.08928 -1.50721,2.14026 -2.33826,3.15293 -0.83112,1.01269 -1.70984,1.98221 -2.63623,2.90854 -0.92627,0.92634 -1.89575,1.80506 -2.90845,2.63613 -1.01269,0.83111 -2.06372,1.61055 -3.15301,2.33835 -1.0893,0.72783 -2.21161,1.40053 -3.36695,2.0181 -1.15533,0.61755 -2.33819,1.17699 -3.54852,1.67831 -1.21033,0.50135 -2.44232,0.94216 -3.69592,1.32245 -1.2536,0.3803 -2.52289,0.69823 -3.8078,0.9538 -1.28485,0.25558 -2.5791,0.44759 -3.88288,0.57599 C 924.61694,244.93579 923.31006,245 922,245 c -1.31,0 -2.61688,-0.0642 -3.92065,-0.19261 -1.30378,-0.1284 -2.59809,-0.32041 -3.883,-0.57601 -1.28485,-0.25557 -2.55414,-0.5735 -3.80774,-0.95379 -1.25366,-0.3803 -2.48566,-0.82111 -3.69604,-1.32245 -1.21027,-0.50133 -2.39313,-1.06076 -3.54847,-1.67832 -1.15533,-0.61756 -2.27764,-1.29025 -3.36694,-2.01808 -1.08923,-0.7278 -2.1402,-1.50724 -3.15289,-2.33835 -1.0127,-0.83107 -1.98224,-1.70979 -2.90857,-2.63613 -0.92633,-0.92633 -1.80506,-1.89585 -2.63617,-2.90854 -0.83112,-1.01267 -1.61054,-2.06365 -2.33838,-3.15293 -0.72784,-1.08926 -1.40051,-2.21157 -2.01807,-3.36694 -0.61755,-1.15535 -1.177,-2.3382 -1.6784,-3.54854 -0.50128,-1.21033 -0.94208,-2.4423 -1.32233,-3.69594 -0.38031,-1.25363 -0.69824,-2.52288 -0.9538,-3.80777 -0.25555,-1.28488 -0.44751,-2.57919 -0.57586,-3.88292 C 882.06427,207.61694 882.00006,206.31004 882,205 c 6e-5,-1.31004 0.0643,-2.61694 0.19269,-3.92068 0.12835,-1.30375 0.32025,-2.59806 0.5758,-3.88295 0.25556,-1.28487 0.57355,-2.55413 0.95386,-3.80777 0.38025,-1.25365 0.82105,-2.48565 1.32233,-3.69597 0.5014,-1.21031 1.06085,-2.39316 1.6784,-3.54851 0.61756,-1.15538 1.29023,-2.2777 2.01801,-3.36697 0.72784,-1.08925 1.50732,-2.14023 2.33844,-3.15291 0.83111,-1.01268 1.70984,-1.98218 2.63617,-2.90853 0.92633,-0.92634 1.89587,-1.80505 2.90857,-2.63614 1.01269,-0.8311 2.06366,-1.61055 3.15283,-2.33837 1.08929,-0.72782 2.21167,-1.4005 3.367,-2.01806 1.15534,-0.61753 2.3382,-1.17698 3.54847,-1.67834 1.21038,-0.50133 2.44238,-0.94214 3.69598,-1.32242 1.25366,-0.38028 2.52295,-0.69821 3.8078,-0.9538 1.28491,-0.25556 2.57922,-0.44755 3.883,-0.57595 C 919.38312,165.06422 920.69,165.00001 922,165 c 1.31006,1e-5 2.61694,0.0642 3.92065,0.19263 1.30378,0.1284 2.59803,0.32039 3.88288,0.57595 1.28491,0.25559 2.5542,0.57352 3.80786,0.9538 1.2536,0.38028 2.48553,0.82109 3.69586,1.32242 1.21033,0.50136 2.39319,1.06081 3.54852,1.67834 1.15534,0.61756 2.27765,1.29024 3.36695,2.01806 1.08929,0.72782 2.14032,1.50727 3.15301,2.33836 1.0127,0.8311 1.98218,1.70981 2.90845,2.63615 0.92639,0.92635 1.80518,1.89586 2.63629,2.90854 0.83099,1.01268 1.61041,2.06365 2.3382,3.1529 0.72784,1.08927 1.40057,2.21159 2.01812,3.36695 0.61762,1.15537 1.17701,2.33822 1.67829,3.54853 0.5014,1.21032 0.94226,2.4423 1.32257,3.69595 0.38019,1.25365 0.69812,2.52292 0.95367,3.80779 0.25562,1.28489 0.44764,2.5792 0.57605,3.88296 0.12848,1.30373 0.19269,2.61063 0.19263,3.92067 z"
             style="fill:none;stroke:#336600;stroke-width:1;stroke-linecap:butt;stroke-linejoin:miter;stroke-miterlimit:10;stroke-dasharray:none;stroke-opacity:1"
             id="path70" /><path
             d="m 863,245 h 98 c 1.01526,2e-5 2.02808,0.0498 3.03851,0.14929 1.01044,0.0995 2.01349,0.24832 3.00922,0.44638 0.99579,0.19808 1.97949,0.44448 2.95105,0.73918 0.97162,0.29473 1.92639,0.63634 2.86438,1.02486 0.93805,0.38854 1.85474,0.82211 2.75012,1.30072 0.89539,0.47861 1.76514,0.99994 2.60932,1.56398 0.84423,0.56409 1.65875,1.16817 2.4436,1.81226 0.78485,0.64409 1.53619,1.32509 2.25409,2.043 0.71795,0.71791 1.39892,1.4693 2.04303,2.25413 0.6441,0.78482 1.24817,1.59934 1.81213,2.44351 0.56403,0.84418 1.08539,1.71399 1.56403,2.60941 0.47857,0.89538 0.91217,1.81207 1.30066,2.75006 0.38861,0.93802 0.73028,1.89279 1.02502,2.86438 0.29474,0.97156 0.54108,1.95523 0.73914,2.95102 0.19806,0.99579 0.34686,1.99887 0.44641,3.00928 C 991.95026,273.97186 992,274.98471 992,276 v 38 c 0,1.01529 -0.0497,2.02814 -0.14929,3.03854 -0.0996,1.01041 -0.24835,2.01346 -0.44641,3.00922 -0.19806,0.99579 -0.4444,1.97946 -0.73914,2.95105 -0.29474,0.97159 -0.63641,1.92636 -1.02496,2.86435 -0.38849,0.93802 -0.82208,1.8547 -1.30066,2.75012 -0.47864,0.89539 -1,1.76517 -1.56409,2.60935 -0.56396,0.8442 -1.16803,1.65875 -1.81213,2.44357 -0.64411,0.78482 -1.32508,1.53619 -2.04303,2.25409 -0.7179,0.71792 -1.46924,1.39895 -2.25409,2.04303 -0.78485,0.64407 -1.59937,1.24814 -2.4436,1.81219 -0.84418,0.56409 -1.71393,1.08542 -2.60932,1.56403 -0.89538,0.47861 -1.81207,0.91217 -2.75012,1.30069 -0.93799,0.38855 -1.89276,0.73019 -2.86438,1.0249 -0.97156,0.29471 -1.95526,0.54111 -2.95105,0.73917 -0.99573,0.19809 -1.99878,0.34689 -3.00922,0.44641 C 963.02808,344.95023 962.01526,345 961,345 h -98 c -1.01526,0 -2.02808,-0.0498 -3.03845,-0.14929 -1.01044,-0.0995 -2.01355,-0.24832 -3.0094,-0.44641 -0.99579,-0.19806 -1.97943,-0.44446 -2.95105,-0.73917 -0.97156,-0.29471 -1.92633,-0.63635 -2.86438,-1.0249 -0.93799,-0.38852 -1.85468,-0.82208 -2.75012,-1.30069 -0.89545,-0.47861 -1.76526,-0.99994 -2.60944,-1.56403 -0.84418,-0.56405 -1.65863,-1.16812 -2.44342,-1.81219 -0.78485,-0.64408 -1.53625,-1.32511 -2.25415,-2.04303 -0.7179,-0.7179 -1.39886,-1.46927 -2.04297,-2.25409 -0.6441,-0.78482 -1.24823,-1.59937 -1.81232,-2.44357 -0.56402,-0.84418 -1.08538,-1.71396 -1.56396,-2.60935 -0.47858,-0.89542 -0.91217,-1.8121 -1.30072,-2.75012 -0.38849,-0.93799 -0.7301,-1.89276 -1.02484,-2.86435 -0.29474,-0.97159 -0.54114,-1.95526 -0.7392,-2.95105 -0.19806,-0.99576 -0.34686,-1.99881 -0.44635,-3.00922 C 832.0498,316.02814 832.00006,315.01529 832,314 v -38 c 6e-5,-1.01529 0.0498,-2.02814 0.14923,-3.03854 0.0995,-1.01041 0.24823,-2.01349 0.44629,-3.00928 0.19812,-0.99579 0.44452,-1.97946 0.73926,-2.95105 0.29474,-0.97156 0.63635,-1.92633 1.02484,-2.86435 0.38855,-0.93799 0.82214,-1.85468 1.30078,-2.75009 0.47858,-0.89542 0.99988,-1.7652 1.5639,-2.60938 0.56409,-0.84417 1.16822,-1.65869 1.81232,-2.44351 0.64411,-0.78483 1.32507,-1.53622 2.04297,-2.25413 0.7179,-0.71791 1.46924,-1.39891 2.25409,-2.043 0.78485,-0.64409 1.5993,-1.24817 2.44348,-1.81224 0.84418,-0.56404 1.71399,-1.08538 2.60944,-1.564 0.89544,-0.47861 1.81213,-0.91218 2.75012,-1.30072 0.93805,-0.38852 1.89282,-0.73015 2.86438,-1.02487 0.97162,-0.29471 1.95526,-0.54111 2.95105,-0.73918 0.99585,-0.19806 1.99896,-0.34685 3.0094,-0.44637 1.01037,-0.0995 2.02319,-0.14927 3.03845,-0.14929 z"
             style="fill:#7ab51d;fill-opacity:1;fill-rule:nonzero;stroke:none"
             id="path72" /><path
             d="m 863,245 h 98 c 1.01526,2e-5 2.02808,0.0498 3.03851,0.14929 1.01044,0.0995 2.01349,0.24832 3.00922,0.44638 0.99579,0.19808 1.97949,0.44448 2.95105,0.73918 0.97162,0.29473 1.92639,0.63634 2.86438,1.02486 0.93805,0.38854 1.85474,0.82211 2.75012,1.30072 0.89539,0.47861 1.76514,0.99994 2.60932,1.56398 0.84423,0.56409 1.65875,1.16817 2.4436,1.81226 0.78485,0.64409 1.53619,1.32509 2.25409,2.043 0.71795,0.71791 1.39892,1.4693 2.04303,2.25413 0.6441,0.78482 1.24817,1.59934 1.81213,2.44351 0.56403,0.84418 1.08539,1.71399 1.56403,2.60941 0.47857,0.89538 0.91217,1.81207 1.30066,2.75006 0.38861,0.93802 0.73028,1.89279 1.02502,2.86438 0.29474,0.97156 0.54108,1.95523 0.73914,2.95102 0.19806,0.99579 0.34686,1.99887 0.44641,3.00928 C 991.95026,273.97186 992,274.98471 992,276 v 38 c 0,1.01529 -0.0497,2.02814 -0.14929,3.03854 -0.0996,1.01041 -0.24835,2.01346 -0.44641,3.00922 -0.19806,0.99579 -0.4444,1.97946 -0.73914,2.95105 -0.29474,0.97159 -0.63641,1.92636 -1.02496,2.86435 -0.38849,0.93802 -0.82208,1.8547 -1.30066,2.75012 -0.47864,0.89539 -1,1.76517 -1.56409,2.60935 -0.56396,0.8442 -1.16803,1.65875 -1.81213,2.44357 -0.64411,0.78482 -1.32508,1.53619 -2.04303,2.25409 -0.7179,0.71792 -1.46924,1.39895 -2.25409,2.04303 -0.78485,0.64407 -1.59937,1.24814 -2.4436,1.81219 -0.84418,0.56409 -1.71393,1.08542 -2.60932,1.56403 -0.89538,0.47861 -1.81207,0.91217 -2.75012,1.30069 -0.93799,0.38855 -1.89276,0.73019 -2.86438,1.0249 -0.97156,0.29471 -1.95526,0.54111 -2.95105,0.73917 -0.99573,0.19809 -1.99878,0.34689 -3.00922,0.44641 C 963.02808,344.95023 962.01526,345 961,345 h -98 c -1.01526,0 -2.02808,-0.0498 -3.03845,-0.14929 -1.01044,-0.0995 -2.01355,-0.24832 -3.0094,-0.44641 -0.99579,-0.19806 -1.97943,-0.44446 -2.95105,-0.73917 -0.97156,-0.29471 -1.92633,-0.63635 -2.86438,-1.0249 -0.93799,-0.38852 -1.85468,-0.82208 -2.75012,-1.30069 -0.89545,-0.47861 -1.76526,-0.99994 -2.60944,-1.56403 -0.84418,-0.56405 -1.65863,-1.16812 -2.44342,-1.81219 -0.78485,-0.64408 -1.53625,-1.32511 -2.25415,-2.04303 -0.7179,-0.7179 -1.39886,-1.46927 -2.04297,-2.25409 -0.6441,-0.78482 -1.24823,-1.59937 -1.81232,-2.44357 -0.56402,-0.84418 -1.08538,-1.71396 -1.56396,-2.60935 -0.47858,-0.89542 -0.91217,-1.8121 -1.30072,-2.75012 -0.38849,-0.93799 -0.7301,-1.89276 -1.02484,-2.86435 -0.29474,-0.97159 -0.54114,-1.95526 -0.7392,-2.95105 -0.19806,-0.99576 -0.34686,-1.99881 -0.44635,-3.00922 C 832.0498,316.02814 832.00006,315.01529 832,314 v -38 c 6e-5,-1.01529 0.0498,-2.02814 0.14923,-3.03854 0.0995,-1.01041 0.24823,-2.01349 0.44629,-3.00928 0.19812,-0.99579 0.44452,-1.97946 0.73926,-2.95105 0.29474,-0.97156 0.63635,-1.92633 1.02484,-2.86435 0.38855,-0.93799 0.82214,-1.85468 1.30078,-2.75009 0.47858,-0.89542 0.99988,-1.7652 1.5639,-2.60938 0.56409,-0.84417 1.16822,-1.65869 1.81232,-2.44351 0.64411,-0.78483 1.32507,-1.53622 2.04297,-2.25413 0.7179,-0.71791 1.46924,-1.39891 2.25409,-2.043 0.78485,-0.64409 1.5993,-1.24817 2.44348,-1.81224 0.84418,-0.56404 1.71399,-1.08538 2.60944,-1.564 0.89544,-0.47861 1.81213,-0.91218 2.75012,-1.30072 0.93805,-0.38852 1.89282,-0.73015 2.86438,-1.02487 0.97162,-0.29471 1.95526,-0.54111 2.95105,-0.73918 0.99585,-0.19806 1.99896,-0.34685 3.0094,-0.44637 1.01037,-0.0995 2.02319,-0.14927 3.03845,-0.14929 z"
             style="fill:none;stroke:#336600;stroke-width:1;stroke-linecap:butt;stroke-linejoin:miter;stroke-miterlimit:10;stroke-dasharray:none;stroke-opacity:1"
             id="path74" /></g><g
           id="g76"
           transform="scale(2.997719)"><text
             transform="translate(892.54688,280)"
             style="font-variant:normal;font-weight:bold;font-size:14px;font-family:Arimo;-inkscape-font-specification:Arimo-Bold;writing-mode:lr-tb;fill:#ffffff;fill-opacity:1;fill-rule:nonzero;stroke:none"
             id="text80"><tspan
               x="0 10.110352 17.896484 25.682617 31.130859"
               y="0"
               id="tspan78">Users</tspan></text><text
             transform="translate(897.10938,295)"
             style="font-variant:normal;font-weight:normal;font-size:8px;font-family:Arimo;-inkscape-font-specification:Arimo;writing-mode:lr-tb;fill:#ffffff;fill-opacity:1;fill-rule:nonzero;stroke:none"
             id="text84"><tspan
               x="0 2.2226562 7.5585938 12.007812 14.671875 18.671875 23.121094 27.570312"
               y="0"
               id="tspan82">[Person]</tspan></text><text
             transform="translate(875.3125,321)"
             style="font-variant:normal;font-weight:normal;font-size:10px;font-family:Arimo;-inkscape-font-specification:Arimo;writing-mode:lr-tb;fill:#ffffff;fill-opacity:1;fill-rule:nonzero;stroke:none"
             id="text88"><tspan
               x="0 7.2216797 12.22168 17.783203 20.561523 23.339844 28.901367 34.462891 39.462891 42.241211 44.462891 50.024414 55.585938 61.147461 63.369141 65.59082 68.369141"
               y="0"
               id="tspan86">Use functionality</tspan></text></g><g
           id="g90"
           transform="matrix(2.997719,0,0,2.997719,1.4988595,1.4988595)"><path
             d="m 952,215 c 0,1.31004 -0.0642,2.61694 -0.19257,3.92068 -0.12847,1.30373 -0.32049,2.59804 -0.57611,3.88291 -0.25555,1.2849 -0.57342,2.55415 -0.95373,3.80778 -0.38031,1.25365 -0.82117,2.48563 -1.32257,3.69594 -0.50128,1.21034 -1.06067,2.39318 -1.67816,3.54852 -0.61762,1.15539 -1.29035,2.2777 -2.01819,3.36696 -0.72785,1.08928 -1.50727,2.14025 -2.33832,3.15293 -0.83106,1.01269 -1.70978,1.98221 -2.63611,2.90854 -0.92633,0.92634 -1.89587,1.80506 -2.90857,2.63615 -1.01269,0.83109 -2.06366,1.61053 -3.15295,2.33835 -1.08924,0.72783 -2.21155,1.40053 -3.36689,2.01806 -1.15533,0.61757 -2.33819,1.17701 -3.54858,1.67833 -1.21027,0.50135 -2.44226,0.94216 -3.69598,1.32245 -1.2536,0.3803 -2.52289,0.69823 -3.80774,0.9538 -1.28485,0.25558 -2.5791,0.44759 -3.88281,0.57599 C 914.61694,254.93579 913.31006,255 912,255 c -1.31,0 -2.61688,-0.0642 -3.92065,-0.19261 -1.30378,-0.1284 -2.59809,-0.32041 -3.883,-0.57601 -1.28485,-0.25557 -2.55414,-0.57348 -3.8078,-0.95378 -1.25366,-0.38029 -2.48566,-0.8211 -3.69598,-1.32245 -1.21027,-0.50132 -2.39313,-1.06076 -3.54847,-1.67831 -1.15533,-0.61755 -2.27764,-1.29025 -3.36694,-2.01808 -1.08929,-0.72782 -2.14026,-1.50726 -3.15295,-2.33835 -1.01264,-0.83109 -1.98218,-1.70981 -2.90851,-2.63615 -0.92633,-0.92633 -1.80499,-1.89585 -2.63605,-2.90854 -0.83111,-1.01268 -1.61066,-2.06365 -2.3385,-3.15293 -0.72778,-1.08926 -1.40045,-2.21157 -2.01801,-3.36694 -0.61761,-1.15535 -1.17706,-2.3382 -1.6784,-3.54854 -0.50128,-1.21031 -0.94202,-2.44229 -1.32233,-3.69594 -0.38025,-1.25361 -0.69818,-2.52287 -0.95379,-3.80777 -0.2555,-1.28488 -0.44745,-2.57919 -0.57593,-3.88292 C 872.06427,217.61694 872.00006,216.31004 872,215 c 6e-5,-1.31004 0.0643,-2.61694 0.19275,-3.9207 0.12842,-1.30373 0.32037,-2.59804 0.57593,-3.88293 0.25561,-1.28487 0.57354,-2.55411 0.95373,-3.80776 0.38031,-1.25365 0.82111,-2.48564 1.32239,-3.69598 0.5014,-1.21031 1.06085,-2.39316 1.67841,-3.54851 0.61749,-1.15537 1.29016,-2.27768 2.018,-3.36696 0.72785,-1.08925 1.50733,-2.14023 2.33844,-3.15291 0.83106,-1.01268 1.70972,-1.98219 2.63605,-2.90854 0.92633,-0.92634 1.89587,-1.80505 2.90857,-2.63614 1.01263,-0.8311 2.0636,-1.61055 3.15289,-2.33837 1.0893,-0.72782 2.21161,-1.4005 3.36701,-2.01806 1.15533,-0.61753 2.33813,-1.17698 3.5484,-1.67834 1.21032,-0.50133 2.44232,-0.94212 3.69598,-1.3224 1.25366,-0.3803 2.52295,-0.69823 3.8078,-0.9538 1.28491,-0.25557 2.57922,-0.44756 3.883,-0.57596 C 909.38312,175.06422 910.69,175.00002 912,175 c 1.31006,2e-5 2.61694,0.0642 3.92065,0.19264 1.30378,0.1284 2.59803,0.32039 3.88288,0.57596 1.28485,0.25557 2.55414,0.5735 3.8078,0.9538 1.25366,0.38028 2.48565,0.82107 3.69592,1.3224 1.21039,0.50136 2.39319,1.06081 3.54852,1.67836 1.1554,0.61754 2.27771,1.29022 3.36695,2.01804 1.08929,0.72782 2.14026,1.50727 3.15295,2.33836 1.0127,0.8311 1.98224,1.70981 2.90857,2.63615 0.92633,0.92635 1.80505,1.89586 2.63617,2.90854 0.83099,1.0127 1.61041,2.06368 2.33826,3.15293 0.72784,1.08926 1.40057,2.21157 2.01819,3.36694 0.61749,1.15535 1.17694,2.3382 1.67822,3.54851 0.5014,1.21034 0.9422,2.44233 1.32251,3.69598 0.38031,1.25365 0.69818,2.52289 0.95373,3.80776 0.25562,1.28489 0.44764,2.5792 0.57611,3.88295 C 951.93579,212.38306 952,213.68996 952,215 Z"
             style="fill:#7ab51d;fill-opacity:1;fill-rule:nonzero;stroke:none"
             id="path92" /><path
             d="m 952,215 c 0,1.31004 -0.0642,2.61694 -0.19257,3.92068 -0.12847,1.30373 -0.32049,2.59804 -0.57611,3.88291 -0.25555,1.2849 -0.57342,2.55415 -0.95373,3.80778 -0.38031,1.25365 -0.82117,2.48563 -1.32257,3.69594 -0.50128,1.21034 -1.06067,2.39318 -1.67816,3.54852 -0.61762,1.15539 -1.29035,2.2777 -2.01819,3.36696 -0.72785,1.08928 -1.50727,2.14025 -2.33832,3.15293 -0.83106,1.01269 -1.70978,1.98221 -2.63611,2.90854 -0.92633,0.92634 -1.89587,1.80506 -2.90857,2.63615 -1.01269,0.83109 -2.06366,1.61053 -3.15295,2.33835 -1.08924,0.72783 -2.21155,1.40053 -3.36689,2.01806 -1.15533,0.61757 -2.33819,1.17701 -3.54858,1.67833 -1.21027,0.50135 -2.44226,0.94216 -3.69598,1.32245 -1.2536,0.3803 -2.52289,0.69823 -3.80774,0.9538 -1.28485,0.25558 -2.5791,0.44759 -3.88281,0.57599 C 914.61694,254.93579 913.31006,255 912,255 c -1.31,0 -2.61688,-0.0642 -3.92065,-0.19261 -1.30378,-0.1284 -2.59809,-0.32041 -3.883,-0.57601 -1.28485,-0.25557 -2.55414,-0.57348 -3.8078,-0.95378 -1.25366,-0.38029 -2.48566,-0.8211 -3.69598,-1.32245 -1.21027,-0.50132 -2.39313,-1.06076 -3.54847,-1.67831 -1.15533,-0.61755 -2.27764,-1.29025 -3.36694,-2.01808 -1.08929,-0.72782 -2.14026,-1.50726 -3.15295,-2.33835 -1.01264,-0.83109 -1.98218,-1.70981 -2.90851,-2.63615 -0.92633,-0.92633 -1.80499,-1.89585 -2.63605,-2.90854 -0.83111,-1.01268 -1.61066,-2.06365 -2.3385,-3.15293 -0.72778,-1.08926 -1.40045,-2.21157 -2.01801,-3.36694 -0.61761,-1.15535 -1.17706,-2.3382 -1.6784,-3.54854 -0.50128,-1.21031 -0.94202,-2.44229 -1.32233,-3.69594 -0.38025,-1.25361 -0.69818,-2.52287 -0.95379,-3.80777 -0.2555,-1.28488 -0.44745,-2.57919 -0.57593,-3.88292 C 872.06427,217.61694 872.00006,216.31004 872,215 c 6e-5,-1.31004 0.0643,-2.61694 0.19275,-3.9207 0.12842,-1.30373 0.32037,-2.59804 0.57593,-3.88293 0.25561,-1.28487 0.57354,-2.55411 0.95373,-3.80776 0.38031,-1.25365 0.82111,-2.48564 1.32239,-3.69598 0.5014,-1.21031 1.06085,-2.39316 1.67841,-3.54851 0.61749,-1.15537 1.29016,-2.27768 2.018,-3.36696 0.72785,-1.08925 1.50733,-2.14023 2.33844,-3.15291 0.83106,-1.01268 1.70972,-1.98219 2.63605,-2.90854 0.92633,-0.92634 1.89587,-1.80505 2.90857,-2.63614 1.01263,-0.8311 2.0636,-1.61055 3.15289,-2.33837 1.0893,-0.72782 2.21161,-1.4005 3.36701,-2.01806 1.15533,-0.61753 2.33813,-1.17698 3.5484,-1.67834 1.21032,-0.50133 2.44232,-0.94212 3.69598,-1.3224 1.25366,-0.3803 2.52295,-0.69823 3.8078,-0.9538 1.28491,-0.25557 2.57922,-0.44756 3.883,-0.57596 C 909.38312,175.06422 910.69,175.00002 912,175 c 1.31006,2e-5 2.61694,0.0642 3.92065,0.19264 1.30378,0.1284 2.59803,0.32039 3.88288,0.57596 1.28485,0.25557 2.55414,0.5735 3.8078,0.9538 1.25366,0.38028 2.48565,0.82107 3.69592,1.3224 1.21039,0.50136 2.39319,1.06081 3.54852,1.67836 1.1554,0.61754 2.27771,1.29022 3.36695,2.01804 1.08929,0.72782 2.14026,1.50727 3.15295,2.33836 1.0127,0.8311 1.98224,1.70981 2.90857,2.63615 0.92633,0.92635 1.80505,1.89586 2.63617,2.90854 0.83099,1.0127 1.61041,2.06368 2.33826,3.15293 0.72784,1.08926 1.40057,2.21157 2.01819,3.36694 0.61749,1.15535 1.17694,2.3382 1.67822,3.54851 0.5014,1.21034 0.9422,2.44233 1.32251,3.69598 0.38031,1.25365 0.69818,2.52289 0.95373,3.80776 0.25562,1.28489 0.44764,2.5792 0.57611,3.88295 C 951.93579,212.38306 952,213.68996 952,215 Z"
             style="fill:none;stroke:#336600;stroke-width:1;stroke-linecap:butt;stroke-linejoin:miter;stroke-miterlimit:10;stroke-dasharray:none;stroke-opacity:1"
             id="path94" /><path
             d="m 853,255 h 98 c 1.01532,2e-5 2.02814,0.0498 3.03851,0.14928 1.01038,0.0995 2.01343,0.2483 3.00922,0.44636 0.99579,0.19808 1.97955,0.44449 2.95117,0.73923 0.9715,0.29471 1.92627,0.63632 2.86426,1.02484 0.93799,0.38855 1.85467,0.82211 2.75012,1.30072 0.89539,0.47861 1.76514,0.99994 2.60932,1.564 0.84417,0.56405 1.65875,1.16815 2.4436,1.81225 0.78485,0.64408 1.53619,1.32508 2.25409,2.043 0.71795,0.71793 1.39892,1.4693 2.04303,2.25415 0.6441,0.78479 1.24811,1.59928 1.81213,2.44348 0.56415,0.84421 1.08545,1.71399 1.56403,2.60938 0.4787,0.89541 0.91223,1.8121 1.30072,2.75009 0.38861,0.93802 0.73022,1.89279 1.02496,2.86438 0.29468,0.97159 0.54108,1.95526 0.73914,2.95102 0.19812,0.99582 0.34692,1.9989 0.44647,3.00928 0.0996,1.0104 0.14929,2.02325 0.14923,3.03854 v 38 c 6e-5,1.01529 -0.0497,2.02811 -0.14923,3.03851 -0.0996,1.01038 -0.24835,2.01346 -0.44647,3.00922 -0.19806,0.99579 -0.4444,1.97946 -0.73908,2.95105 -0.29474,0.97159 -0.63635,1.92636 -1.02496,2.86435 -0.38849,0.93802 -0.82208,1.85473 -1.30072,2.75015 -0.47858,0.89542 -0.99994,1.7652 -1.56409,2.60935 -0.56402,0.8442 -1.16803,1.65872 -1.81207,2.44357 -0.64411,0.78482 -1.32514,1.53619 -2.04309,2.25409 -0.7179,0.71792 -1.46924,1.39895 -2.25409,2.04303 -0.78485,0.64407 -1.59943,1.24814 -2.44367,1.81219 -0.84417,0.56406 -1.71392,1.08542 -2.60931,1.56403 -0.89539,0.47861 -1.81207,0.91217 -2.75012,1.30069 -0.93799,0.38858 -1.89276,0.73022 -2.86432,1.02493 -0.97156,0.29471 -1.95526,0.54108 -2.95105,0.73914 -0.99579,0.19809 -1.99884,0.34689 -3.00922,0.44641 C 953.02814,354.95023 952.01532,355 951,355 h -98 c -1.01526,0 -2.02808,-0.0498 -3.03851,-0.14929 -1.01044,-0.0995 -2.01355,-0.24832 -3.00934,-0.44641 -0.99579,-0.19806 -1.97943,-0.44443 -2.95099,-0.73914 -0.97162,-0.29471 -1.92639,-0.63635 -2.86444,-1.02493 -0.93805,-0.38852 -1.85474,-0.82208 -2.75018,-1.30069 -0.89545,-0.47861 -1.7652,-0.99997 -2.60938,-1.56403 -0.84412,-0.56405 -1.65863,-1.16812 -2.44348,-1.81219 -0.78479,-0.64408 -1.53613,-1.32511 -2.25409,-2.04303 -0.71783,-0.7179 -1.3988,-1.46927 -2.04291,-2.25409 -0.6441,-0.78485 -1.24817,-1.59937 -1.81231,-2.44357 -0.56403,-0.84415 -1.08533,-1.71393 -1.56403,-2.60935 -0.47858,-0.89542 -0.91211,-1.81213 -1.30072,-2.75015 -0.38849,-0.93799 -0.7301,-1.89276 -1.02472,-2.86435 -0.29474,-0.97159 -0.5412,-1.95526 -0.73932,-2.95105 -0.198,-0.99576 -0.34674,-1.99884 -0.44629,-3.00922 C 822.04974,326.02811 822,325.01529 822,324 v -38 c 0,-1.01529 0.0497,-2.02814 0.14929,-3.03854 0.0996,-1.01038 0.24829,-2.01346 0.44629,-3.00928 0.19812,-0.99576 0.44452,-1.97943 0.73926,-2.95102 0.29468,-0.97159 0.63629,-1.92636 1.02478,-2.86438 0.38861,-0.93799 0.82214,-1.85468 1.30072,-2.75009 0.4787,-0.89539 1,-1.76517 1.56403,-2.60938 0.56414,-0.8442 1.16821,-1.65869 1.81231,-2.44348 0.64411,-0.78485 1.32508,-1.53622 2.04291,-2.25415 0.71796,-0.71792 1.4693,-1.39892 2.25409,-2.043 0.78485,-0.6441 1.59936,-1.2482 2.44348,-1.81225 0.84418,-0.56406 1.71393,-1.08539 2.60938,-1.564 0.89544,-0.47861 1.81213,-0.91217 2.75018,-1.30072 0.93805,-0.38852 1.89282,-0.73013 2.86444,-1.02487 0.97156,-0.29471 1.9552,-0.54112 2.95099,-0.7392 0.99579,-0.19806 1.9989,-0.34685 3.00934,-0.44635 1.01043,-0.0995 2.02325,-0.14927 3.03851,-0.14929 z"
             style="fill:#7ab51d;fill-opacity:1;fill-rule:nonzero;stroke:none"
             id="path96" /><path
             d="m 853,255 h 98 c 1.01532,2e-5 2.02814,0.0498 3.03851,0.14928 1.01038,0.0995 2.01343,0.2483 3.00922,0.44636 0.99579,0.19808 1.97955,0.44449 2.95117,0.73923 0.9715,0.29471 1.92627,0.63632 2.86426,1.02484 0.93799,0.38855 1.85467,0.82211 2.75012,1.30072 0.89539,0.47861 1.76514,0.99994 2.60932,1.564 0.84417,0.56405 1.65875,1.16815 2.4436,1.81225 0.78485,0.64408 1.53619,1.32508 2.25409,2.043 0.71795,0.71793 1.39892,1.4693 2.04303,2.25415 0.6441,0.78479 1.24811,1.59928 1.81213,2.44348 0.56415,0.84421 1.08545,1.71399 1.56403,2.60938 0.4787,0.89541 0.91223,1.8121 1.30072,2.75009 0.38861,0.93802 0.73022,1.89279 1.02496,2.86438 0.29468,0.97159 0.54108,1.95526 0.73914,2.95102 0.19812,0.99582 0.34692,1.9989 0.44647,3.00928 0.0996,1.0104 0.14929,2.02325 0.14923,3.03854 v 38 c 6e-5,1.01529 -0.0497,2.02811 -0.14923,3.03851 -0.0996,1.01038 -0.24835,2.01346 -0.44647,3.00922 -0.19806,0.99579 -0.4444,1.97946 -0.73908,2.95105 -0.29474,0.97159 -0.63635,1.92636 -1.02496,2.86435 -0.38849,0.93802 -0.82208,1.85473 -1.30072,2.75015 -0.47858,0.89542 -0.99994,1.7652 -1.56409,2.60935 -0.56402,0.8442 -1.16803,1.65872 -1.81207,2.44357 -0.64411,0.78482 -1.32514,1.53619 -2.04309,2.25409 -0.7179,0.71792 -1.46924,1.39895 -2.25409,2.04303 -0.78485,0.64407 -1.59943,1.24814 -2.44367,1.81219 -0.84417,0.56406 -1.71392,1.08542 -2.60931,1.56403 -0.89539,0.47861 -1.81207,0.91217 -2.75012,1.30069 -0.93799,0.38858 -1.89276,0.73022 -2.86432,1.02493 -0.97156,0.29471 -1.95526,0.54108 -2.95105,0.73914 -0.99579,0.19809 -1.99884,0.34689 -3.00922,0.44641 C 953.02814,354.95023 952.01532,355 951,355 h -98 c -1.01526,0 -2.02808,-0.0498 -3.03851,-0.14929 -1.01044,-0.0995 -2.01355,-0.24832 -3.00934,-0.44641 -0.99579,-0.19806 -1.97943,-0.44443 -2.95099,-0.73914 -0.97162,-0.29471 -1.92639,-0.63635 -2.86444,-1.02493 -0.93805,-0.38852 -1.85474,-0.82208 -2.75018,-1.30069 -0.89545,-0.47861 -1.7652,-0.99997 -2.60938,-1.56403 -0.84412,-0.56405 -1.65863,-1.16812 -2.44348,-1.81219 -0.78479,-0.64408 -1.53613,-1.32511 -2.25409,-2.04303 -0.71783,-0.7179 -1.3988,-1.46927 -2.04291,-2.25409 -0.6441,-0.78485 -1.24817,-1.59937 -1.81231,-2.44357 -0.56403,-0.84415 -1.08533,-1.71393 -1.56403,-2.60935 -0.47858,-0.89542 -0.91211,-1.81213 -1.30072,-2.75015 -0.38849,-0.93799 -0.7301,-1.89276 -1.02472,-2.86435 -0.29474,-0.97159 -0.5412,-1.95526 -0.73932,-2.95105 -0.198,-0.99576 -0.34674,-1.99884 -0.44629,-3.00922 C 822.04974,326.02811 822,325.01529 822,324 v -38 c 0,-1.01529 0.0497,-2.02814 0.14929,-3.03854 0.0996,-1.01038 0.24829,-2.01346 0.44629,-3.00928 0.19812,-0.99576 0.44452,-1.97943 0.73926,-2.95102 0.29468,-0.97159 0.63629,-1.92636 1.02478,-2.86438 0.38861,-0.93799 0.82214,-1.85468 1.30072,-2.75009 0.4787,-0.89539 1,-1.76517 1.56403,-2.60938 0.56414,-0.8442 1.16821,-1.65869 1.81231,-2.44348 0.64411,-0.78485 1.32508,-1.53622 2.04291,-2.25415 0.71796,-0.71792 1.4693,-1.39892 2.25409,-2.043 0.78485,-0.6441 1.59936,-1.2482 2.44348,-1.81225 0.84418,-0.56406 1.71393,-1.08539 2.60938,-1.564 0.89544,-0.47861 1.81213,-0.91217 2.75018,-1.30072 0.93805,-0.38852 1.89282,-0.73013 2.86444,-1.02487 0.97156,-0.29471 1.9552,-0.54112 2.95099,-0.7392 0.99579,-0.19806 1.9989,-0.34685 3.00934,-0.44635 1.01043,-0.0995 2.02325,-0.14927 3.03851,-0.14929 z"
             style="fill:none;stroke:#336600;stroke-width:1;stroke-linecap:butt;stroke-linejoin:miter;stroke-miterlimit:10;stroke-dasharray:none;stroke-opacity:1"
             id="path98" /></g><g
           id="g100"
           transform="scale(2.997719)"><text
             transform="translate(876.96875,287)"
             style="font-variant:normal;font-weight:bold;font-size:18px;font-family:Arimo;-inkscape-font-specification:Arimo-Bold;writing-mode:lr-tb;fill:#000000;fill-opacity:1;fill-rule:nonzero;stroke:none"
             id="text104"><tspan
               x="0 12.999023 23.009766 33.020508 40.025391"
               y="0"
               id="tspan102">Users</tspan></text><text
             transform="translate(875.92188,305)"
             style="font-variant:normal;font-weight:normal;font-size:14px;font-family:Arimo;-inkscape-font-specification:Arimo;writing-mode:lr-tb;fill:#000000;fill-opacity:1;fill-rule:nonzero;stroke:none"
             id="text108"><tspan
               x="0 3.8896484 13.227539 21.013672 25.675781 32.675781 40.461914 48.248047"
               y="0"
               id="tspan106">[Person]</tspan></text><text
             transform="translate(843.29688,336)"
             style="font-variant:normal;font-weight:normal;font-size:16px;font-family:Arimo;-inkscape-font-specification:Arimo;writing-mode:lr-tb;fill:#000000;fill-opacity:1;fill-rule:nonzero;stroke:none"
             id="text112"><tspan
               x="0 11.554688 19.554688 28.453125 32.898438 37.34375 46.242188 55.140625 63.140625 67.585938 71.140625 80.039062 88.9375 97.835938 101.39062 104.94531 109.39062"
               y="0"
               id="tspan110">Use functionality</tspan></text></g><g
           id="g114"
           transform="matrix(2.997719,0,0,2.997719,1.4988595,1.4988595)"><path
             d="m 942,225 c 0,1.31006 -0.0642,2.61696 -0.19263,3.9207 -0.12835,1.30373 -0.32037,2.59802 -0.57605,3.88289 -0.25555,1.28488 -0.57342,2.55414 -0.95373,3.80778 -0.38031,1.25365 -0.82117,2.48563 -1.32257,3.69594 -0.50128,1.21034 -1.06073,2.39319 -1.67835,3.54856 -0.61749,1.15535 -1.29016,2.27766 -2.018,3.36691 -0.72773,1.08928 -1.50714,2.14026 -2.33826,3.15294 -0.83112,1.01269 -1.70984,1.98221 -2.63617,2.90854 -0.92633,0.92634 -1.89587,1.80506 -2.90857,2.63615 -1.01269,0.83109 -2.06366,1.61053 -3.15295,2.33835 -1.08924,0.72784 -2.21155,1.40054 -3.36689,2.0181 -1.15539,0.61755 -2.33825,1.177 -3.54858,1.67831 -1.21027,0.50134 -2.44226,0.94217 -3.69592,1.32245 -1.2536,0.38028 -2.52289,0.69821 -3.8078,0.95379 -1.28479,0.25559 -2.57904,0.44758 -3.88281,0.57599 C 904.61694,264.93579 903.31006,265 902,265 c -1.31006,0 -2.61694,-0.0642 -3.92072,-0.19263 -1.30377,-0.12838 -2.59808,-0.3204 -3.88299,-0.57599 -1.28485,-0.25558 -2.55408,-0.57351 -3.80768,-0.95379 -1.2536,-0.38028 -2.48559,-0.82111 -3.69598,-1.32245 -1.21027,-0.50131 -2.39313,-1.06073 -3.54853,-1.67828 -1.15533,-0.61756 -2.27764,-1.29026 -3.36694,-2.0181 -1.08923,-0.72782 -2.1402,-1.50726 -3.15283,-2.33835 -1.0127,-0.83109 -1.98224,-1.70981 -2.90863,-2.63615 -0.92633,-0.92633 -1.80499,-1.89585 -2.63611,-2.90854 -0.83112,-1.01268 -1.6106,-2.06366 -2.33844,-3.15294 -0.72778,-1.08925 -1.40045,-2.21156 -2.01807,-3.36693 -0.61755,-1.15535 -1.177,-2.3382 -1.6784,-3.54854 -0.50128,-1.21031 -0.94208,-2.44229 -1.32239,-3.69594 -0.38025,-1.25363 -0.69818,-2.52288 -0.95374,-3.80777 -0.25555,-1.28486 -0.44751,-2.57916 -0.57586,-3.8829 C 862.06427,227.61696 862.00006,226.31006 862,225 c 6e-5,-1.31004 0.0643,-2.61694 0.19269,-3.9207 0.12835,-1.30374 0.32031,-2.59805 0.57586,-3.88293 0.25556,-1.28487 0.57349,-2.55413 0.9538,-3.80777 0.38025,-1.25365 0.82105,-2.48563 1.32233,-3.69597 0.5014,-1.21031 1.06085,-2.39316 1.6784,-3.54851 0.61762,-1.15537 1.29029,-2.27768 2.01813,-3.36696 0.72785,-1.08926 1.50726,-2.14023 2.33838,-3.15291 0.83112,-1.01268 1.70978,-1.98219 2.63611,-2.90854 0.92639,-0.92633 1.89593,-1.80503 2.90857,-2.63614 1.01269,-0.8311 2.06366,-1.61055 3.15289,-2.33837 1.0893,-0.72782 2.21167,-1.4005 3.36701,-2.01806 1.15533,-0.61755 2.33819,-1.177 3.54846,-1.67834 1.21039,-0.50133 2.44238,-0.94212 3.69598,-1.3224 1.2536,-0.3803 2.52283,-0.69823 3.80768,-0.95381 1.28491,-0.25557 2.57922,-0.44756 3.88299,-0.57596 1.30378,-0.12841 2.61066,-0.19261 3.92072,-0.19263 1.31006,2e-5 2.61694,0.0642 3.92072,0.19263 1.30377,0.1284 2.59802,0.32039 3.88281,0.57596 1.28491,0.25558 2.5542,0.57351 3.8078,0.95381 1.25366,0.38028 2.48565,0.82107 3.69592,1.3224 1.21033,0.50134 2.39319,1.06079 3.54858,1.67836 1.15534,0.61754 2.27765,1.29022 3.36689,2.01804 1.08929,0.72782 2.14026,1.50727 3.15295,2.33837 1.0127,0.83111 1.98224,1.70981 2.90857,2.63614 0.92633,0.92635 1.80512,1.89586 2.63623,2.90854 0.83106,1.01268 1.61047,2.06365 2.33826,3.15291 0.72784,1.08928 1.40051,2.21159 2.018,3.36694 0.61762,1.15537 1.17707,2.33822 1.67835,3.54853 0.50134,1.21034 0.9422,2.44232 1.32251,3.69597 0.38031,1.25364 0.69818,2.5229 0.95373,3.80777 0.25568,1.28488 0.4477,2.57919 0.57605,3.88293 C 941.93579,222.38306 942,223.68996 942,225 Z"
             style="fill:#7ab51d;fill-opacity:1;fill-rule:nonzero;stroke:none"
             id="path116" /><path
             d="m 942,225 c 0,1.31006 -0.0642,2.61696 -0.19263,3.9207 -0.12835,1.30373 -0.32037,2.59802 -0.57605,3.88289 -0.25555,1.28488 -0.57342,2.55414 -0.95373,3.80778 -0.38031,1.25365 -0.82117,2.48563 -1.32257,3.69594 -0.50128,1.21034 -1.06073,2.39319 -1.67835,3.54856 -0.61749,1.15535 -1.29016,2.27766 -2.018,3.36691 -0.72773,1.08928 -1.50714,2.14026 -2.33826,3.15294 -0.83112,1.01269 -1.70984,1.98221 -2.63617,2.90854 -0.92633,0.92634 -1.89587,1.80506 -2.90857,2.63615 -1.01269,0.83109 -2.06366,1.61053 -3.15295,2.33835 -1.08924,0.72784 -2.21155,1.40054 -3.36689,2.0181 -1.15539,0.61755 -2.33825,1.177 -3.54858,1.67831 -1.21027,0.50134 -2.44226,0.94217 -3.69592,1.32245 -1.2536,0.38028 -2.52289,0.69821 -3.8078,0.95379 -1.28479,0.25559 -2.57904,0.44758 -3.88281,0.57599 C 904.61694,264.93579 903.31006,265 902,265 c -1.31006,0 -2.61694,-0.0642 -3.92072,-0.19263 -1.30377,-0.12838 -2.59808,-0.3204 -3.88299,-0.57599 -1.28485,-0.25558 -2.55408,-0.57351 -3.80768,-0.95379 -1.2536,-0.38028 -2.48559,-0.82111 -3.69598,-1.32245 -1.21027,-0.50131 -2.39313,-1.06073 -3.54853,-1.67828 -1.15533,-0.61756 -2.27764,-1.29026 -3.36694,-2.0181 -1.08923,-0.72782 -2.1402,-1.50726 -3.15283,-2.33835 -1.0127,-0.83109 -1.98224,-1.70981 -2.90863,-2.63615 -0.92633,-0.92633 -1.80499,-1.89585 -2.63611,-2.90854 -0.83112,-1.01268 -1.6106,-2.06366 -2.33844,-3.15294 -0.72778,-1.08925 -1.40045,-2.21156 -2.01807,-3.36693 -0.61755,-1.15535 -1.177,-2.3382 -1.6784,-3.54854 -0.50128,-1.21031 -0.94208,-2.44229 -1.32239,-3.69594 -0.38025,-1.25363 -0.69818,-2.52288 -0.95374,-3.80777 -0.25555,-1.28486 -0.44751,-2.57916 -0.57586,-3.8829 C 862.06427,227.61696 862.00006,226.31006 862,225 c 6e-5,-1.31004 0.0643,-2.61694 0.19269,-3.9207 0.12835,-1.30374 0.32031,-2.59805 0.57586,-3.88293 0.25556,-1.28487 0.57349,-2.55413 0.9538,-3.80777 0.38025,-1.25365 0.82105,-2.48563 1.32233,-3.69597 0.5014,-1.21031 1.06085,-2.39316 1.6784,-3.54851 0.61762,-1.15537 1.29029,-2.27768 2.01813,-3.36696 0.72785,-1.08926 1.50726,-2.14023 2.33838,-3.15291 0.83112,-1.01268 1.70978,-1.98219 2.63611,-2.90854 0.92639,-0.92633 1.89593,-1.80503 2.90857,-2.63614 1.01269,-0.8311 2.06366,-1.61055 3.15289,-2.33837 1.0893,-0.72782 2.21167,-1.4005 3.36701,-2.01806 1.15533,-0.61755 2.33819,-1.177 3.54846,-1.67834 1.21039,-0.50133 2.44238,-0.94212 3.69598,-1.3224 1.2536,-0.3803 2.52283,-0.69823 3.80768,-0.95381 1.28491,-0.25557 2.57922,-0.44756 3.88299,-0.57596 1.30378,-0.12841 2.61066,-0.19261 3.92072,-0.19263 1.31006,2e-5 2.61694,0.0642 3.92072,0.19263 1.30377,0.1284 2.59802,0.32039 3.88281,0.57596 1.28491,0.25558 2.5542,0.57351 3.8078,0.95381 1.25366,0.38028 2.48565,0.82107 3.69592,1.3224 1.21033,0.50134 2.39319,1.06079 3.54858,1.67836 1.15534,0.61754 2.27765,1.29022 3.36689,2.01804 1.08929,0.72782 2.14026,1.50727 3.15295,2.33837 1.0127,0.83111 1.98224,1.70981 2.90857,2.63614 0.92633,0.92635 1.80512,1.89586 2.63623,2.90854 0.83106,1.01268 1.61047,2.06365 2.33826,3.15291 0.72784,1.08928 1.40051,2.21159 2.018,3.36694 0.61762,1.15537 1.17707,2.33822 1.67835,3.54853 0.50134,1.21034 0.9422,2.44232 1.32251,3.69597 0.38031,1.25364 0.69818,2.5229 0.95373,3.80777 0.25568,1.28488 0.4477,2.57919 0.57605,3.88293 C 941.93579,222.38306 942,223.68996 942,225 Z"
             style="fill:none;stroke:#336600;stroke-width:1;stroke-linecap:butt;stroke-linejoin:miter;stroke-miterlimit:10;stroke-dasharray:none;stroke-opacity:1"
             id="path118" /><path
             d="M 536,105 H 679 V 305"
             style="fill:none;stroke:#000000;stroke-width:1;stroke-linecap:butt;stroke-linejoin:miter;stroke-miterlimit:10;stroke-dasharray:none;stroke-opacity:1"
             id="path120" /><path
             d="M 356,15 H 536 V 135 H 356 Z"
             style="fill:#f6aa42;fill-opacity:1;fill-rule:nonzero;stroke:none"
             id="path122" /><path
             d="M 356,15 H 536 V 135 H 356 Z"
             style="fill:none;stroke:#bf8533;stroke-width:1;stroke-linecap:butt;stroke-linejoin:miter;stroke-miterlimit:10;stroke-dasharray:none;stroke-opacity:1"
             id="path124" /></g><g
           id="g126"
           transform="scale(2.997719)"><text
             transform="translate(404.96875,54)"
             style="font-variant:normal;font-weight:bold;font-size:18px;font-family:Arimo;-inkscape-font-specification:Arimo-Bold;writing-mode:lr-tb;fill:#000000;fill-opacity:1;fill-rule:nonzero;stroke:none"
             id="text130"><tspan
               x="0 12.005859 22.016602 29.021484 39.032227 44.033203 54.043945 64.054688 69.055664"
               y="0"
               id="tspan128">Service A</tspan></text><text
             transform="translate(389.20313,73)"
             style="font-variant:normal;font-weight:normal;font-size:14px;font-family:Arimo;-inkscape-font-specification:Arimo;writing-mode:lr-tb;fill:#000000;fill-opacity:1;fill-rule:nonzero;stroke:none"
             id="text134"><tspan
               x="0 3.8896484 13.227539 21.013672 24.90332 28.792969 38.90332 46.689453 51.351562 59.137695 63.027344 72.365234 79.365234 86.365234 90.254883 98.041016 109.70312"
               y="0"
               id="tspan132">[Software System]</tspan></text><text
             transform="translate(360.95313,107)"
             style="font-variant:normal;font-weight:normal;font-size:18px;font-family:Arimo;-inkscape-font-specification:Arimo;writing-mode:lr-tb;fill:#000000;fill-opacity:1;fill-rule:nonzero;stroke:none"
             id="text138"><tspan
               x="0 12.005859 18 28.010742 37.010742 41.009766 51.020508 61.03125 70.03125 75.032227 80.033203 90.043945 100.05469 109.05469 114.05566 118.05469 128.06543 138.07617 148.08691 152.08594 156.08496 161.08594"
               y="0"
               id="tspan136">Provides functionality</tspan></text></g><g
           id="g140"
           transform="matrix(2.997719,0,0,2.997719,1.4988595,1.4988595)"><path
             d="M 181,75 H 349.63"
             style="fill:none;stroke:#000000;stroke-width:1;stroke-linecap:butt;stroke-linejoin:miter;stroke-miterlimit:10;stroke-dasharray:none;stroke-opacity:1"
             id="path142" /><path
             d="m 354.88,75 -7,3.5 1.75,-3.5 -1.75,-3.5 z"
             style="fill:#000000;fill-opacity:1;fill-rule:nonzero;stroke:none"
             id="path144" /><path
             d="m 354.88,75 -7,3.5 1.75,-3.5 -1.75,-3.5 z"
             style="fill:none;stroke:#000000;stroke-width:1;stroke-linecap:butt;stroke-linejoin:miter;stroke-miterlimit:10;stroke-dasharray:none;stroke-opacity:1"
             id="path146" /><path
             d="M 536,305 H 815.63"
             style="fill:none;stroke:#000000;stroke-width:1;stroke-linecap:butt;stroke-linejoin:miter;stroke-miterlimit:10;stroke-dasharray:none;stroke-opacity:1"
             id="path148" /><path
             d="m 820.88,305 -7,3.5 1.75,-3.5 -1.75,-3.5 z"
             style="fill:#000000;fill-opacity:1;fill-rule:nonzero;stroke:none"
             id="path150" /><path
             d="m 820.88,305 -7,3.5 1.75,-3.5 -1.75,-3.5 z"
             style="fill:none;stroke:#000000;stroke-width:1;stroke-linecap:butt;stroke-linejoin:miter;stroke-miterlimit:10;stroke-dasharray:none;stroke-opacity:1"
             id="path152" /><path
             d="M 536,505 H 679 V 305"
             style="fill:none;stroke:#000000;stroke-width:1;stroke-linecap:butt;stroke-linejoin:miter;stroke-miterlimit:10;stroke-dasharray:none;stroke-opacity:1"
             id="path154" /><path
             d="M 181,275 H 349.63"
             style="fill:none;stroke:#000000;stroke-width:1;stroke-linecap:butt;stroke-linejoin:miter;stroke-miterlimit:10;stroke-dasharray:none;stroke-opacity:1"
             id="path156" /><path
             d="m 354.88,275 -7,3.5 1.75,-3.5 -1.75,-3.5 z"
             style="fill:#000000;fill-opacity:1;fill-rule:nonzero;stroke:none"
             id="path158" /><path
             d="m 354.88,275 -7,3.5 1.75,-3.5 -1.75,-3.5 z"
             style="fill:none;stroke:#000000;stroke-width:1;stroke-linecap:butt;stroke-linejoin:miter;stroke-miterlimit:10;stroke-dasharray:none;stroke-opacity:1"
             id="path160" /><path
             d="M 181,475 H 349.63"
             style="fill:none;stroke:#000000;stroke-width:1;stroke-linecap:butt;stroke-linejoin:miter;stroke-miterlimit:10;stroke-dasharray:none;stroke-opacity:1"
             id="path162" /><path
             d="m 354.88,475 -7,3.5 1.75,-3.5 -1.75,-3.5 z"
             style="fill:#000000;fill-opacity:1;fill-rule:nonzero;stroke:none"
             id="path164" /><path
             d="m 354.88,475 -7,3.5 1.75,-3.5 -1.75,-3.5 z"
             style="fill:none;stroke:#000000;stroke-width:1;stroke-linecap:butt;stroke-linejoin:miter;stroke-miterlimit:10;stroke-dasharray:none;stroke-opacity:1"
             id="path166" /><path
             d="m 52,25 h 98 c 1.01529,0 2.02814,0.04976 3.03853,0.149275 1.01039,0.09952 2.01349,0.248308 3.00926,0.44638 0.99577,0.198075 1.97946,0.444474 2.95103,0.739195 0.97158,0.294722 1.92635,0.636349 2.86435,1.024882 0.93801,0.388536 1.85473,0.822105 2.75013,1.300708 0.8954,0.478604 1.76518,0.999938 2.60936,1.564 0.84419,0.564064 1.65869,1.168142 2.44352,1.812234 0.78484,0.644093 1.53621,1.3251 2.25412,2.043015 0.71791,0.717922 1.39893,1.469296 2.04302,2.254124 0.64409,0.784828 1.24815,1.599331 1.81222,2.443508 0.56406,0.844181 1.08539,1.713978 1.56401,2.609382 0.4786,0.895405 0.91216,1.812108 1.30069,2.750107 0.38854,0.938008 0.73017,1.892796 1.02489,2.864365 0.29472,0.971569 0.54111,1.955246 0.73918,2.951023 0.19808,0.995785 0.34688,1.998875 0.44641,3.00927 C 180.95024,53.97187 181,54.984715 181,56 v 38 c 0,1.015289 -0.0498,2.028137 -0.14928,3.038536 -0.0995,1.010399 -0.24833,2.013481 -0.44641,3.009254 -0.19807,0.99578 -0.44446,1.97946 -0.73918,2.95103 -0.29472,0.97156 -0.63635,1.92634 -1.0249,2.86435 -0.38854,0.93801 -0.8221,1.85471 -1.30069,2.75011 -0.47861,0.8954 -0.99994,1.76519 -1.56401,2.60937 -0.56406,0.84418 -1.16812,1.6587 -1.81221,2.44353 -0.64409,0.78482 -1.32511,1.5362 -2.04302,2.25412 -0.71791,0.71791 -1.46928,1.39892 -2.25412,2.04301 -0.78483,0.6441 -1.59933,1.24817 -2.44352,1.81223 -0.84418,0.56407 -1.71396,1.08541 -2.60936,1.56402 -0.8954,0.4786 -1.81212,0.91216 -2.75013,1.30069 -0.938,0.38854 -1.89277,0.73017 -2.86435,1.0249 -0.97157,0.29471 -1.95526,0.54111 -2.95103,0.73919 -0.99577,0.19808 -1.99887,0.34687 -3.00926,0.44639 C 152.02814,124.95024 151.01529,125 150,125 H 52 c -1.015285,0 -2.02813,-0.0498 -3.038528,-0.14928 -1.010403,-0.0995 -2.013493,-0.2483 -3.009274,-0.44638 -0.995777,-0.19808 -1.979454,-0.44448 -2.951023,-0.7392 -0.971569,-0.29473 -1.926357,-0.63636 -2.864361,-1.0249 -0.938003,-0.38852 -1.854706,-0.82209 -2.750111,-1.30069 -0.895404,-0.4786 -1.765197,-0.99994 -2.609378,-1.56401 -0.844181,-0.56406 -1.658688,-1.16813 -2.443516,-1.81223 -0.784828,-0.64409 -1.536202,-1.3251 -2.25412,-2.04301 -0.717916,-0.71792 -1.398922,-1.4693 -2.043013,-2.25412 -0.644092,-0.78483 -1.24817,-1.59935 -1.812234,-2.44353 -0.564064,-0.84418 -1.085398,-1.71397 -1.564002,-2.60938 -0.478605,-0.89539 -0.912174,-1.81209 -1.300708,-2.7501 -0.388533,-0.93801 -0.73016,-1.89279 -1.024882,-2.86435 -0.294723,-0.97157 -0.541122,-1.95525 -0.739195,-2.95103 C 21.397583,99.052017 21.248789,98.048935 21.149273,97.038536 21.049759,96.028137 21.000002,95.015289 21,94 V 56 c 2e-6,-1.015285 0.04976,-2.02813 0.149273,-3.038532 0.09952,-1.010395 0.24831,-2.013485 0.446382,-3.00927 0.198073,-0.995777 0.444472,-1.979454 0.739195,-2.951023 0.294722,-0.971569 0.636349,-1.926357 1.024882,-2.864365 0.388534,-0.937999 0.822103,-1.854702 1.300708,-2.750107 0.478604,-0.895404 0.999938,-1.765201 1.564,-2.609382 0.564066,-0.844177 1.168144,-1.65868 1.812234,-2.443508 0.644093,-0.784828 1.325099,-1.536202 2.043015,-2.254124 0.717918,-0.717915 1.469292,-1.398922 2.25412,-2.043015 0.784828,-0.64409 1.599331,-1.248168 2.443512,-1.812232 0.844181,-0.564063 1.713978,-1.085396 2.609382,-1.564 0.895405,-0.478605 1.812108,-0.912174 2.750111,-1.30071 0.938004,-0.388533 1.892792,-0.73016 2.864361,-1.024882 0.971569,-0.294721 1.955246,-0.54112 2.951023,-0.739195 0.995781,-0.198072 1.998871,-0.346864 3.009274,-0.44638 C 49.97187,25.049759 50.984715,25 52,25 Z"
             style="fill:#00acb6;fill-opacity:1;fill-rule:nonzero;stroke:none"
             id="path168" /><path
             d="m 52,25 h 98 c 1.01529,0 2.02814,0.04976 3.03853,0.149275 1.01039,0.09952 2.01349,0.248308 3.00926,0.44638 0.99577,0.198075 1.97946,0.444474 2.95103,0.739195 0.97158,0.294722 1.92635,0.636349 2.86435,1.024882 0.93801,0.388536 1.85473,0.822105 2.75013,1.300708 0.8954,0.478604 1.76518,0.999938 2.60936,1.564 0.84419,0.564064 1.65869,1.168142 2.44352,1.812234 0.78484,0.644093 1.53621,1.3251 2.25412,2.043015 0.71791,0.717922 1.39893,1.469296 2.04302,2.254124 0.64409,0.784828 1.24815,1.599331 1.81222,2.443508 0.56406,0.844181 1.08539,1.713978 1.56401,2.609382 0.4786,0.895405 0.91216,1.812108 1.30069,2.750107 0.38854,0.938008 0.73017,1.892796 1.02489,2.864365 0.29472,0.971569 0.54111,1.955246 0.73918,2.951023 0.19808,0.995785 0.34688,1.998875 0.44641,3.00927 C 180.95024,53.97187 181,54.984715 181,56 v 38 c 0,1.015289 -0.0498,2.028137 -0.14928,3.038536 -0.0995,1.010399 -0.24833,2.013481 -0.44641,3.009254 -0.19807,0.99578 -0.44446,1.97946 -0.73918,2.95103 -0.29472,0.97156 -0.63635,1.92634 -1.0249,2.86435 -0.38854,0.93801 -0.8221,1.85471 -1.30069,2.75011 -0.47861,0.8954 -0.99994,1.76519 -1.56401,2.60937 -0.56406,0.84418 -1.16812,1.6587 -1.81221,2.44353 -0.64409,0.78482 -1.32511,1.5362 -2.04302,2.25412 -0.71791,0.71791 -1.46928,1.39892 -2.25412,2.04301 -0.78483,0.6441 -1.59933,1.24817 -2.44352,1.81223 -0.84418,0.56407 -1.71396,1.08541 -2.60936,1.56402 -0.8954,0.4786 -1.81212,0.91216 -2.75013,1.30069 -0.938,0.38854 -1.89277,0.73017 -2.86435,1.0249 -0.97157,0.29471 -1.95526,0.54111 -2.95103,0.73919 -0.99577,0.19808 -1.99887,0.34687 -3.00926,0.44639 C 152.02814,124.95024 151.01529,125 150,125 H 52 c -1.015285,0 -2.02813,-0.0498 -3.038528,-0.14928 -1.010403,-0.0995 -2.013493,-0.2483 -3.009274,-0.44638 -0.995777,-0.19808 -1.979454,-0.44448 -2.951023,-0.7392 -0.971569,-0.29473 -1.926357,-0.63636 -2.864361,-1.0249 -0.938003,-0.38852 -1.854706,-0.82209 -2.750111,-1.30069 -0.895404,-0.4786 -1.765197,-0.99994 -2.609378,-1.56401 -0.844181,-0.56406 -1.658688,-1.16813 -2.443516,-1.81223 -0.784828,-0.64409 -1.536202,-1.3251 -2.25412,-2.04301 -0.717916,-0.71792 -1.398922,-1.4693 -2.043013,-2.25412 -0.644092,-0.78483 -1.24817,-1.59935 -1.812234,-2.44353 -0.564064,-0.84418 -1.085398,-1.71397 -1.564002,-2.60938 -0.478605,-0.89539 -0.912174,-1.81209 -1.300708,-2.7501 -0.388533,-0.93801 -0.73016,-1.89279 -1.024882,-2.86435 -0.294723,-0.97157 -0.541122,-1.95525 -0.739195,-2.95103 C 21.397583,99.052017 21.248789,98.048935 21.149273,97.038536 21.049759,96.028137 21.000002,95.015289 21,94 V 56 c 2e-6,-1.015285 0.04976,-2.02813 0.149273,-3.038532 0.09952,-1.010395 0.24831,-2.013485 0.446382,-3.00927 0.198073,-0.995777 0.444472,-1.979454 0.739195,-2.951023 0.294722,-0.971569 0.636349,-1.926357 1.024882,-2.864365 0.388534,-0.937999 0.822103,-1.854702 1.300708,-2.750107 0.478604,-0.895404 0.999938,-1.765201 1.564,-2.609382 0.564066,-0.844177 1.168144,-1.65868 1.812234,-2.443508 0.644093,-0.784828 1.325099,-1.536202 2.043015,-2.254124 0.717918,-0.717915 1.469292,-1.398922 2.25412,-2.043015 0.784828,-0.64409 1.599331,-1.248168 2.443512,-1.812232 0.844181,-0.564063 1.713978,-1.085396 2.609382,-1.564 0.895405,-0.478605 1.812108,-0.912174 2.750111,-1.30071 0.938004,-0.388533 1.892792,-0.73016 2.864361,-1.024882 0.971569,-0.294721 1.955246,-0.54112 2.951023,-0.739195 0.995781,-0.198072 1.998871,-0.346864 3.009274,-0.44638 C 49.97187,25.049759 50.984715,25 52,25 Z"
             style="fill:none;stroke:#005e63;stroke-width:1;stroke-linecap:butt;stroke-linejoin:miter;stroke-miterlimit:10;stroke-dasharray:none;stroke-opacity:1"
             id="path170" /></g><g
           id="g172"
           transform="scale(2.997719)"><text
             transform="translate(59.984375,57)"
             style="font-variant:normal;font-weight:bold;font-size:18px;font-family:Arimo;-inkscape-font-specification:Arimo-Bold;writing-mode:lr-tb;fill:#000000;fill-opacity:1;fill-rule:nonzero;stroke:none"
             id="text176"><tspan
               x="0 12.005859 22.016602 32.027344 38.021484 48.032227 64.037109 69.038086"
               y="0"
               id="tspan174">System A</tspan></text><text
             transform="translate(66.78125,75)"
             style="font-variant:normal;font-weight:normal;font-size:14px;font-family:Arimo;-inkscape-font-specification:Arimo;writing-mode:lr-tb;fill:#000000;fill-opacity:1;fill-rule:nonzero;stroke:none"
             id="text180"><tspan
               x="0 3.8896484 7.7792969 16.331055 20.220703 27.220703 34.220703 41.220703 45.110352 52.896484 64.558594"
               y="0"
               id="tspan178">[IT system]</tspan></text><text
             transform="translate(42.90625,106)"
             style="font-variant:normal;font-weight:normal;font-size:16px;font-family:Arimo;-inkscape-font-specification:Arimo;writing-mode:lr-tb;fill:#000000;fill-opacity:1;fill-rule:nonzero;stroke:none"
             id="text184"><tspan
               x="0 12.445312 16.601562 21.046875 29.945312 35.273438 43.273438 47.71875 58.390625 67.289062 72.617188 80.617188 84.171875 92.171875 101.07031 105.51562"
               y="0"
               id="tspan182">Offers Service A</tspan></text></g><g
           id="g186"
           transform="matrix(2.997719,0,0,2.997719,1.4988595,1.4988595)"><path
             d="m 52,225 h 98 c 1.01529,2e-5 2.02814,0.0498 3.03853,0.14929 1.01039,0.0995 2.01349,0.24829 3.00926,0.44637 0.99577,0.19807 1.97946,0.44449 2.95103,0.73921 0.97158,0.29471 1.92635,0.63632 2.86435,1.02484 0.93801,0.38854 1.85473,0.82211 2.75013,1.30072 0.8954,0.47859 1.76518,0.99992 2.60936,1.56398 0.84419,0.56407 1.65869,1.16817 2.44352,1.81226 0.78484,0.64409 1.53621,1.3251 2.25412,2.04301 0.71791,0.71793 1.39893,1.4693 2.04302,2.25414 0.64409,0.78482 1.24815,1.59932 1.81222,2.44349 0.56406,0.8442 1.08539,1.71398 1.56401,2.60938 0.4786,0.89541 0.91216,1.81212 1.30069,2.75011 0.38854,0.93801 0.73017,1.89282 1.02489,2.86439 0.29472,0.97157 0.54111,1.95523 0.73918,2.951 0.19808,0.99579 0.34688,1.99889 0.44641,3.00928 C 180.95024,253.97188 181,254.98473 181,256 v 38 c 0,1.01529 -0.0498,2.02814 -0.14928,3.03854 -0.0995,1.01041 -0.24833,2.01346 -0.44641,3.00922 -0.19807,0.99579 -0.44446,1.97946 -0.73918,2.95105 -0.29472,0.97159 -0.63635,1.92636 -1.0249,2.86435 -0.38854,0.93802 -0.8221,1.8547 -1.30069,2.75012 -0.47861,0.89539 -0.99994,1.76517 -1.56401,2.60935 -0.56406,0.8442 -1.16812,1.65872 -1.81221,2.44354 -0.64409,0.78485 -1.32511,1.53622 -2.04302,2.25412 -0.71791,0.71792 -1.46928,1.39895 -2.25412,2.04303 -0.78483,0.64407 -1.59933,1.24814 -2.44352,1.81219 -0.84418,0.56409 -1.71396,1.08542 -2.60936,1.56403 -0.8954,0.47861 -1.81212,0.91214 -2.75013,1.30066 -0.938,0.38855 -1.89277,0.73019 -2.86435,1.02493 -0.97157,0.29471 -1.95526,0.54111 -2.95103,0.7392 -0.99577,0.19809 -1.99887,0.34686 -3.00926,0.44638 C 152.02814,324.95023 151.01529,325 150,325 H 52 c -1.015285,0 -2.02813,-0.0498 -3.038528,-0.14929 -1.010403,-0.0995 -2.013493,-0.24829 -3.009274,-0.44638 -0.995777,-0.19809 -1.979454,-0.44449 -2.951023,-0.73923 -0.971569,-0.29471 -1.926357,-0.63635 -2.864361,-1.0249 -0.938003,-0.38852 -1.854706,-0.82205 -2.750111,-1.30066 -0.895404,-0.47861 -1.765197,-0.99994 -2.609378,-1.56403 -0.844181,-0.56405 -1.658688,-1.16812 -2.443516,-1.81219 -0.784828,-0.64408 -1.536202,-1.32511 -2.25412,-2.04303 -0.717916,-0.7179 -1.398922,-1.46927 -2.043013,-2.25412 -0.644092,-0.78482 -1.24817,-1.59934 -1.812234,-2.44354 -0.564064,-0.84418 -1.085398,-1.71396 -1.564002,-2.60935 -0.478605,-0.89542 -0.912174,-1.8121 -1.300708,-2.75012 -0.388533,-0.93799 -0.73016,-1.89276 -1.024882,-2.86435 -0.294723,-0.97159 -0.541122,-1.95526 -0.739195,-2.95105 -0.198072,-0.99576 -0.346866,-1.99881 -0.446382,-3.00922 C 21.049759,296.02814 21.000002,295.01529 21,294 v -38 c 2e-6,-1.01527 0.04976,-2.02812 0.149273,-3.03853 0.09952,-1.0104 0.24831,-2.0135 0.446382,-3.00929 0.198073,-0.99576 0.444472,-1.97943 0.739195,-2.95101 0.294722,-0.97157 0.636349,-1.92636 1.024882,-2.86437 0.388534,-0.93799 0.822103,-1.8547 1.300708,-2.75011 0.478604,-0.8954 0.999938,-1.7652 1.564,-2.60939 0.564066,-0.84418 1.168144,-1.65868 1.812234,-2.44351 0.644093,-0.78481 1.325099,-1.53618 2.043015,-2.25411 0.717918,-0.71791 1.469292,-1.39892 2.25412,-2.04301 0.784828,-0.64409 1.599331,-1.24819 2.443512,-1.81226 0.844181,-0.56406 1.713978,-1.08539 2.609382,-1.56399 0.895405,-0.4786 1.812108,-0.91217 2.750111,-1.30071 0.938004,-0.38852 1.892792,-0.73013 2.864361,-1.02486 0.971569,-0.29472 1.955246,-0.54112 2.951023,-0.73919 0.995781,-0.19808 1.998871,-0.34687 3.009274,-0.44637 C 49.97187,225.04977 50.984715,225.00002 52,225 Z"
             style="fill:#00acb6;fill-opacity:1;fill-rule:nonzero;stroke:none"
             id="path188" /><path
             d="m 52,225 h 98 c 1.01529,2e-5 2.02814,0.0498 3.03853,0.14929 1.01039,0.0995 2.01349,0.24829 3.00926,0.44637 0.99577,0.19807 1.97946,0.44449 2.95103,0.73921 0.97158,0.29471 1.92635,0.63632 2.86435,1.02484 0.93801,0.38854 1.85473,0.82211 2.75013,1.30072 0.8954,0.47859 1.76518,0.99992 2.60936,1.56398 0.84419,0.56407 1.65869,1.16817 2.44352,1.81226 0.78484,0.64409 1.53621,1.3251 2.25412,2.04301 0.71791,0.71793 1.39893,1.4693 2.04302,2.25414 0.64409,0.78482 1.24815,1.59932 1.81222,2.44349 0.56406,0.8442 1.08539,1.71398 1.56401,2.60938 0.4786,0.89541 0.91216,1.81212 1.30069,2.75011 0.38854,0.93801 0.73017,1.89282 1.02489,2.86439 0.29472,0.97157 0.54111,1.95523 0.73918,2.951 0.19808,0.99579 0.34688,1.99889 0.44641,3.00928 C 180.95024,253.97188 181,254.98473 181,256 v 38 c 0,1.01529 -0.0498,2.02814 -0.14928,3.03854 -0.0995,1.01041 -0.24833,2.01346 -0.44641,3.00922 -0.19807,0.99579 -0.44446,1.97946 -0.73918,2.95105 -0.29472,0.97159 -0.63635,1.92636 -1.0249,2.86435 -0.38854,0.93802 -0.8221,1.8547 -1.30069,2.75012 -0.47861,0.89539 -0.99994,1.76517 -1.56401,2.60935 -0.56406,0.8442 -1.16812,1.65872 -1.81221,2.44354 -0.64409,0.78485 -1.32511,1.53622 -2.04302,2.25412 -0.71791,0.71792 -1.46928,1.39895 -2.25412,2.04303 -0.78483,0.64407 -1.59933,1.24814 -2.44352,1.81219 -0.84418,0.56409 -1.71396,1.08542 -2.60936,1.56403 -0.8954,0.47861 -1.81212,0.91214 -2.75013,1.30066 -0.938,0.38855 -1.89277,0.73019 -2.86435,1.02493 -0.97157,0.29471 -1.95526,0.54111 -2.95103,0.7392 -0.99577,0.19809 -1.99887,0.34686 -3.00926,0.44638 C 152.02814,324.95023 151.01529,325 150,325 H 52 c -1.015285,0 -2.02813,-0.0498 -3.038528,-0.14929 -1.010403,-0.0995 -2.013493,-0.24829 -3.009274,-0.44638 -0.995777,-0.19809 -1.979454,-0.44449 -2.951023,-0.73923 -0.971569,-0.29471 -1.926357,-0.63635 -2.864361,-1.0249 -0.938003,-0.38852 -1.854706,-0.82205 -2.750111,-1.30066 -0.895404,-0.47861 -1.765197,-0.99994 -2.609378,-1.56403 -0.844181,-0.56405 -1.658688,-1.16812 -2.443516,-1.81219 -0.784828,-0.64408 -1.536202,-1.32511 -2.25412,-2.04303 -0.717916,-0.7179 -1.398922,-1.46927 -2.043013,-2.25412 -0.644092,-0.78482 -1.24817,-1.59934 -1.812234,-2.44354 -0.564064,-0.84418 -1.085398,-1.71396 -1.564002,-2.60935 -0.478605,-0.89542 -0.912174,-1.8121 -1.300708,-2.75012 -0.388533,-0.93799 -0.73016,-1.89276 -1.024882,-2.86435 -0.294723,-0.97159 -0.541122,-1.95526 -0.739195,-2.95105 -0.198072,-0.99576 -0.346866,-1.99881 -0.446382,-3.00922 C 21.049759,296.02814 21.000002,295.01529 21,294 v -38 c 2e-6,-1.01527 0.04976,-2.02812 0.149273,-3.03853 0.09952,-1.0104 0.24831,-2.0135 0.446382,-3.00929 0.198073,-0.99576 0.444472,-1.97943 0.739195,-2.95101 0.294722,-0.97157 0.636349,-1.92636 1.024882,-2.86437 0.388534,-0.93799 0.822103,-1.8547 1.300708,-2.75011 0.478604,-0.8954 0.999938,-1.7652 1.564,-2.60939 0.564066,-0.84418 1.168144,-1.65868 1.812234,-2.44351 0.644093,-0.78481 1.325099,-1.53618 2.043015,-2.25411 0.717918,-0.71791 1.469292,-1.39892 2.25412,-2.04301 0.784828,-0.64409 1.599331,-1.24819 2.443512,-1.81226 0.844181,-0.56406 1.713978,-1.08539 2.609382,-1.56399 0.895405,-0.4786 1.812108,-0.91217 2.750111,-1.30071 0.938004,-0.38852 1.892792,-0.73013 2.864361,-1.02486 0.971569,-0.29472 1.955246,-0.54112 2.951023,-0.73919 0.995781,-0.19808 1.998871,-0.34687 3.009274,-0.44637 C 49.97187,225.04977 50.984715,225.00002 52,225 Z"
             style="fill:none;stroke:#005e63;stroke-width:1;stroke-linecap:butt;stroke-linejoin:miter;stroke-miterlimit:10;stroke-dasharray:none;stroke-opacity:1"
             id="path190" /></g><g
           id="g192"
           transform="scale(2.997719)"><text
             transform="translate(59.984375,257)"
             style="font-variant:normal;font-weight:bold;font-size:18px;font-family:Arimo;-inkscape-font-specification:Arimo-Bold;writing-mode:lr-tb;fill:#000000;fill-opacity:1;fill-rule:nonzero;stroke:none"
             id="text196"><tspan
               x="0 12.005859 22.016602 32.027344 38.021484 48.032227 64.037109 69.038086"
               y="0"
               id="tspan194">System B</tspan></text><text
             transform="translate(66.78125,275)"
             style="font-variant:normal;font-weight:normal;font-size:14px;font-family:Arimo;-inkscape-font-specification:Arimo;writing-mode:lr-tb;fill:#000000;fill-opacity:1;fill-rule:nonzero;stroke:none"
             id="text200"><tspan
               x="0 3.8896484 7.7792969 16.331055 20.220703 27.220703 34.220703 41.220703 45.110352 52.896484 64.558594"
               y="0"
               id="tspan198">[IT system]</tspan></text><text
             transform="translate(42.90625,306)"
             style="font-variant:normal;font-weight:normal;font-size:16px;font-family:Arimo;-inkscape-font-specification:Arimo;writing-mode:lr-tb;fill:#000000;fill-opacity:1;fill-rule:nonzero;stroke:none"
             id="text204"><tspan
               x="0 12.445312 16.601562 21.046875 29.945312 35.273438 43.273438 47.71875 58.390625 67.289062 72.617188 80.617188 84.171875 92.171875 101.07031 105.51562"
               y="0"
               id="tspan202">Offers Service B</tspan></text></g><g
           id="g206"
           transform="matrix(2.997719,0,0,2.997719,1.4988595,1.4988595)"><path
             d="m 52,425 h 98 c 1.01529,3e-5 2.02814,0.0498 3.03853,0.14926 1.01039,0.0995 2.01349,0.24829 3.00926,0.44635 0.99577,0.19812 1.97946,0.44452 2.95103,0.73923 0.97158,0.29474 1.92635,0.63635 2.86435,1.02484 0.93801,0.38855 1.85473,0.82211 2.75013,1.30069 0.8954,0.47861 1.76518,0.99994 2.60936,1.564 0.84419,0.56408 1.65869,1.16818 2.44352,1.81225 0.78484,0.64411 1.53621,1.3251 2.25412,2.04303 0.71791,0.71793 1.39893,1.4693 2.04302,2.25412 0.64409,0.78482 1.24815,1.59934 1.81222,2.44348 0.56406,0.84421 1.08539,1.71399 1.56401,2.60938 0.4786,0.89541 0.91216,1.81213 1.30069,2.75012 0.38854,0.93802 0.73017,1.89282 1.02489,2.86438 0.29472,0.97159 0.54111,1.95529 0.73918,2.95105 0.19808,0.99582 0.34688,1.99893 0.44641,3.00934 C 180.95024,453.97192 181,454.98474 181,456 v 38 c 0,1.01529 -0.0498,2.02814 -0.14928,3.03851 -0.0995,1.01041 -0.24833,2.01349 -0.44641,3.00925 -0.19807,0.99576 -0.44446,1.97943 -0.73918,2.95102 -0.29472,0.97159 -0.63635,1.92636 -1.0249,2.86435 -0.38854,0.93802 -0.8221,1.8547 -1.30069,2.75012 -0.47861,0.89542 -0.99994,1.7652 -1.56401,2.60938 -0.56406,0.8442 -1.16812,1.65872 -1.81221,2.44357 -0.64409,0.78479 -1.32511,1.53613 -2.04302,2.25409 -0.71791,0.71795 -1.46928,1.39892 -2.25412,2.04297 -0.78483,0.64416 -1.59933,1.24823 -2.44352,1.81225 -0.84418,0.56409 -1.71396,1.08545 -2.60936,1.56409 -0.8954,0.47858 -1.81212,0.91217 -2.75013,1.30066 -0.938,0.38855 -1.89277,0.73016 -2.86435,1.0249 -0.97157,0.29474 -1.95526,0.54114 -2.95103,0.7392 -0.99577,0.19806 -1.99887,0.3468 -3.00926,0.44635 C 152.02814,524.95026 151.01529,525 150,525 H 52 c -1.015285,0 -2.02813,-0.0497 -3.038528,-0.14929 -1.010403,-0.0996 -2.013493,-0.24835 -3.009274,-0.44641 -0.995777,-0.19806 -1.979454,-0.44446 -2.951023,-0.7392 -0.971569,-0.29474 -1.926357,-0.63635 -2.864361,-1.0249 -0.938003,-0.38855 -1.854706,-0.82215 -2.750111,-1.30072 -0.895404,-0.47858 -1.765197,-0.99994 -2.609378,-1.56397 -0.844181,-0.56402 -1.658688,-1.16809 -2.443516,-1.81225 -0.784828,-0.64405 -1.536202,-1.32502 -2.25412,-2.04297 -0.717916,-0.71796 -1.398922,-1.4693 -2.043013,-2.25409 -0.644092,-0.78485 -1.24817,-1.59937 -1.812234,-2.44357 -0.564064,-0.84415 -1.085398,-1.71393 -1.564002,-2.60935 -0.478605,-0.89542 -0.912174,-1.8121 -1.300708,-2.75012 -0.388533,-0.93802 -0.73016,-1.89279 -1.024882,-2.86438 -0.294723,-0.97156 -0.541122,-1.95523 -0.739195,-2.95099 -0.198072,-0.99576 -0.346866,-1.99887 -0.446382,-3.00928 C 21.049759,496.02814 21.000002,495.01529 21,494 v -38 c 2e-6,-1.01526 0.04976,-2.02808 0.149273,-3.03848 0.09952,-1.01041 0.24831,-2.01352 0.446382,-3.00934 0.198073,-0.99576 0.444472,-1.97946 0.739195,-2.95105 0.294722,-0.97156 0.636349,-1.92636 1.024882,-2.86438 0.388534,-0.93799 0.822103,-1.85471 1.300708,-2.75012 0.478604,-0.89539 0.999938,-1.76517 1.564,-2.60938 0.564066,-0.84414 1.168144,-1.65866 1.812234,-2.44348 0.644093,-0.78482 1.325099,-1.53619 2.043015,-2.25412 0.717918,-0.71793 1.469292,-1.39892 2.25412,-2.04303 0.784828,-0.64407 1.599331,-1.24817 2.443512,-1.81225 0.844181,-0.56406 1.713978,-1.08539 2.609382,-1.564 0.895405,-0.47858 1.812108,-0.91214 2.750111,-1.30069 0.938004,-0.38849 1.892792,-0.73007 2.864361,-1.02478 0.971569,-0.29474 1.955246,-0.54117 2.951023,-0.73926 0.995781,-0.19806 1.998871,-0.34683 3.009274,-0.44635 C 49.97187,425.04977 50.984715,425.00003 52,425 Z"
             style="fill:#00acb6;fill-opacity:1;fill-rule:nonzero;stroke:none"
             id="path208" /><path
             d="m 52,425 h 98 c 1.01529,3e-5 2.02814,0.0498 3.03853,0.14926 1.01039,0.0995 2.01349,0.24829 3.00926,0.44635 0.99577,0.19812 1.97946,0.44452 2.95103,0.73923 0.97158,0.29474 1.92635,0.63635 2.86435,1.02484 0.93801,0.38855 1.85473,0.82211 2.75013,1.30069 0.8954,0.47861 1.76518,0.99994 2.60936,1.564 0.84419,0.56408 1.65869,1.16818 2.44352,1.81225 0.78484,0.64411 1.53621,1.3251 2.25412,2.04303 0.71791,0.71793 1.39893,1.4693 2.04302,2.25412 0.64409,0.78482 1.24815,1.59934 1.81222,2.44348 0.56406,0.84421 1.08539,1.71399 1.56401,2.60938 0.4786,0.89541 0.91216,1.81213 1.30069,2.75012 0.38854,0.93802 0.73017,1.89282 1.02489,2.86438 0.29472,0.97159 0.54111,1.95529 0.73918,2.95105 0.19808,0.99582 0.34688,1.99893 0.44641,3.00934 C 180.95024,453.97192 181,454.98474 181,456 v 38 c 0,1.01529 -0.0498,2.02814 -0.14928,3.03851 -0.0995,1.01041 -0.24833,2.01349 -0.44641,3.00925 -0.19807,0.99576 -0.44446,1.97943 -0.73918,2.95102 -0.29472,0.97159 -0.63635,1.92636 -1.0249,2.86435 -0.38854,0.93802 -0.8221,1.8547 -1.30069,2.75012 -0.47861,0.89542 -0.99994,1.7652 -1.56401,2.60938 -0.56406,0.8442 -1.16812,1.65872 -1.81221,2.44357 -0.64409,0.78479 -1.32511,1.53613 -2.04302,2.25409 -0.71791,0.71795 -1.46928,1.39892 -2.25412,2.04297 -0.78483,0.64416 -1.59933,1.24823 -2.44352,1.81225 -0.84418,0.56409 -1.71396,1.08545 -2.60936,1.56409 -0.8954,0.47858 -1.81212,0.91217 -2.75013,1.30066 -0.938,0.38855 -1.89277,0.73016 -2.86435,1.0249 -0.97157,0.29474 -1.95526,0.54114 -2.95103,0.7392 -0.99577,0.19806 -1.99887,0.3468 -3.00926,0.44635 C 152.02814,524.95026 151.01529,525 150,525 H 52 c -1.015285,0 -2.02813,-0.0497 -3.038528,-0.14929 -1.010403,-0.0996 -2.013493,-0.24835 -3.009274,-0.44641 -0.995777,-0.19806 -1.979454,-0.44446 -2.951023,-0.7392 -0.971569,-0.29474 -1.926357,-0.63635 -2.864361,-1.0249 -0.938003,-0.38855 -1.854706,-0.82215 -2.750111,-1.30072 -0.895404,-0.47858 -1.765197,-0.99994 -2.609378,-1.56397 -0.844181,-0.56402 -1.658688,-1.16809 -2.443516,-1.81225 -0.784828,-0.64405 -1.536202,-1.32502 -2.25412,-2.04297 -0.717916,-0.71796 -1.398922,-1.4693 -2.043013,-2.25409 -0.644092,-0.78485 -1.24817,-1.59937 -1.812234,-2.44357 -0.564064,-0.84415 -1.085398,-1.71393 -1.564002,-2.60935 -0.478605,-0.89542 -0.912174,-1.8121 -1.300708,-2.75012 -0.388533,-0.93802 -0.73016,-1.89279 -1.024882,-2.86438 -0.294723,-0.97156 -0.541122,-1.95523 -0.739195,-2.95099 -0.198072,-0.99576 -0.346866,-1.99887 -0.446382,-3.00928 C 21.049759,496.02814 21.000002,495.01529 21,494 v -38 c 2e-6,-1.01526 0.04976,-2.02808 0.149273,-3.03848 0.09952,-1.01041 0.24831,-2.01352 0.446382,-3.00934 0.198073,-0.99576 0.444472,-1.97946 0.739195,-2.95105 0.294722,-0.97156 0.636349,-1.92636 1.024882,-2.86438 0.388534,-0.93799 0.822103,-1.85471 1.300708,-2.75012 0.478604,-0.89539 0.999938,-1.76517 1.564,-2.60938 0.564066,-0.84414 1.168144,-1.65866 1.812234,-2.44348 0.644093,-0.78482 1.325099,-1.53619 2.043015,-2.25412 0.717918,-0.71793 1.469292,-1.39892 2.25412,-2.04303 0.784828,-0.64407 1.599331,-1.24817 2.443512,-1.81225 0.844181,-0.56406 1.713978,-1.08539 2.609382,-1.564 0.895405,-0.47858 1.812108,-0.91214 2.750111,-1.30069 0.938004,-0.38849 1.892792,-0.73007 2.864361,-1.02478 0.971569,-0.29474 1.955246,-0.54117 2.951023,-0.73926 0.995781,-0.19806 1.998871,-0.34683 3.009274,-0.44635 C 49.97187,425.04977 50.984715,425.00003 52,425 Z"
             style="fill:none;stroke:#005e63;stroke-width:1;stroke-linecap:butt;stroke-linejoin:miter;stroke-miterlimit:10;stroke-dasharray:none;stroke-opacity:1"
             id="path210" /></g><g
           id="g212"
           transform="scale(2.997719)"><text
             transform="translate(57.46875,457)"
             style="font-variant:normal;font-weight:bold;font-size:18px;font-family:Arimo;-inkscape-font-specification:Arimo-Bold;writing-mode:lr-tb;fill:#000000;fill-opacity:1;fill-rule:nonzero;stroke:none"
             id="text216"><tspan
               x="0 12.005859 22.016602 32.027344 38.021484 48.032227 64.037109 69.038086"
               y="0"
               id="tspan214">System </tspan></text><text
             transform="translate(66.765625,475)"
             style="font-variant:normal;font-weight:normal;font-size:14px;font-family:Arimo;-inkscape-font-specification:Arimo;writing-mode:lr-tb;fill:#000000;fill-opacity:1;fill-rule:nonzero;stroke:none"
             id="text220"><tspan
               x="0 3.8896484 7.7792969 16.331055 20.220703 27.220703 34.220703 41.220703 45.110352 52.896484 64.558594"
               y="0"
               id="tspan218">[IT system]</tspan></text><text
             transform="translate(40.234375,506)"
             style="font-variant:normal;font-weight:normal;font-size:16px;font-family:Arimo;-inkscape-font-specification:Arimo;writing-mode:lr-tb;fill:#000000;fill-opacity:1;fill-rule:nonzero;stroke:none"
             id="text224"><tspan
               x="0 12.445312 16.601562 21.046875 29.945312 35.273438 43.273438 47.71875 58.390625 67.289062 72.617188 80.617188 84.171875 92.171875 101.07031 105.51562"
               y="0"
               id="tspan222">Offers Service </tspan></text></g><g
           id="g226"
           transform="matrix(2.997719,0,0,2.997719,1.4988595,1.4988595)"><path
             d="M 356,215 H 536 V 335 H 356 Z"
             style="fill:#f6aa42;fill-opacity:1;fill-rule:nonzero;stroke:none"
             id="path228" /><path
             d="M 356,215 H 536 V 335 H 356 Z"
             style="fill:none;stroke:#bf8533;stroke-width:1;stroke-linecap:butt;stroke-linejoin:miter;stroke-miterlimit:10;stroke-dasharray:none;stroke-opacity:1"
             id="path230" /></g><g
           id="g232"
           transform="scale(2.997719)"><text
             transform="translate(404.96875,254)"
             style="font-variant:normal;font-weight:bold;font-size:18px;font-family:Arimo;-inkscape-font-specification:Arimo-Bold;writing-mode:lr-tb;fill:#000000;fill-opacity:1;fill-rule:nonzero;stroke:none"
             id="text236"><tspan
               x="0 12.005859 22.016602 29.021484 39.032227 44.033203 54.043945 64.054688 69.055664"
               y="0"
               id="tspan234">Service B</tspan></text><text
             transform="translate(389.20313,273)"
             style="font-variant:normal;font-weight:normal;font-size:14px;font-family:Arimo;-inkscape-font-specification:Arimo;writing-mode:lr-tb;fill:#000000;fill-opacity:1;fill-rule:nonzero;stroke:none"
             id="text240"><tspan
               x="0 3.8896484 13.227539 21.013672 24.90332 28.792969 38.90332 46.689453 51.351562 59.137695 63.027344 72.365234 79.365234 86.365234 90.254883 98.041016 109.70312"
               y="0"
               id="tspan238">[Software System]</tspan></text><text
             transform="translate(360.95313,307)"
             style="font-variant:normal;font-weight:normal;font-size:18px;font-family:Arimo;-inkscape-font-specification:Arimo;writing-mode:lr-tb;fill:#000000;fill-opacity:1;fill-rule:nonzero;stroke:none"
             id="text244"><tspan
               x="0 12.005859 18 28.010742 37.010742 41.009766 51.020508 61.03125 70.03125 75.032227 80.033203 90.043945 100.05469 109.05469 114.05566 118.05469 128.06543 138.07617 148.08691 152.08594 156.08496 161.08594"
               y="0"
               id="tspan242">Provides functionality</tspan></text></g><g
           id="g246"
           transform="matrix(2.997719,0,0,2.997719,1.4988595,1.4988595)"><path
             d="M 356,415 H 536 V 535 H 356 Z"
             style="fill:#f6aa42;fill-opacity:1;fill-rule:nonzero;stroke:none"
             id="path248" /><path
             d="M 356,415 H 536 V 535 H 356 Z"
             style="fill:none;stroke:#bf8533;stroke-width:1;stroke-linecap:butt;stroke-linejoin:miter;stroke-miterlimit:10;stroke-dasharray:none;stroke-opacity:1"
             id="path250" /></g><g
           id="g252"
           transform="scale(2.997719)"><text
             transform="translate(402.46875,454)"
             style="font-variant:normal;font-weight:bold;font-size:18px;font-family:Arimo;-inkscape-font-specification:Arimo-Bold;writing-mode:lr-tb;fill:#000000;fill-opacity:1;fill-rule:nonzero;stroke:none"
             id="text256"><tspan
               x="0 12.005859 22.016602 29.021484 39.032227 44.033203 54.043945 64.054688 69.055664"
               y="0"
               id="tspan254">Service </tspan></text><text
             transform="translate(389.20313,473)"
             style="font-variant:normal;font-weight:normal;font-size:14px;font-family:Arimo;-inkscape-font-specification:Arimo;writing-mode:lr-tb;fill:#000000;fill-opacity:1;fill-rule:nonzero;stroke:none"
             id="text260"><tspan
               x="0 3.8896484 13.227539 21.013672 24.90332 28.792969 38.90332 46.689453 51.351562 59.137695 63.027344 72.365234 79.365234 86.365234 90.254883 98.041016 109.70312"
               y="0"
               id="tspan258">[Software System]</tspan></text><text
             transform="translate(360.95313,507)"
             style="font-variant:normal;font-weight:normal;font-size:18px;font-family:Arimo;-inkscape-font-specification:Arimo;writing-mode:lr-tb;fill:#000000;fill-opacity:1;fill-rule:nonzero;stroke:none"
             id="text264"><tspan
               x="0 12.005859 18 28.010742 37.010742 41.009766 51.020508 61.03125 70.03125 75.032227 80.033203 90.043945 100.05469 109.05469 114.05566 118.05469 128.06543 138.07617 148.08691 152.08594 156.08496 161.08594"
               y="0"
               id="tspan262">Provides functionality</tspan></text></g></g></g></g></svg>
