<svg xmlns="http://www.w3.org/2000/svg" viewBox="0 0 150 150"><defs><style>.a{fill:#fff;}</style></defs><path class="a" d="M121.0293,104.77539h-5.17188v-5.1709a1.5,1.5,0,0,0-3,0v5.1709h-5.1709a1.5,1.5,0,0,0,0,3h5.1709v5.17188a1.5,1.5,0,0,0,3,0v-5.17188h5.17188a1.5,1.5,0,0,0,0-3Z"/><path class="a" d="M119.67761,30.28955h-87.355a2.00587,2.00587,0,0,0-2,2V50.655a2.00587,2.00587,0,0,0,2,2h87.355a2.00591,2.00591,0,0,0,2-2V32.28955A2.00591,2.00591,0,0,0,119.67761,30.28955ZM109.4021,46.886a5.41373,5.41373,0,1,1,5.4137-5.4137A5.41371,5.41371,0,0,1,109.4021,46.886Z"/><path class="a" d="M119.67761,60.0733h-87.355a2.00587,2.00587,0,0,0-2,2V80.43872a2.00587,2.00587,0,0,0,2,2h87.355a2.00591,2.00591,0,0,0,2-2V62.0733A2.00591,2.00591,0,0,0,119.67761,60.0733ZM109.4021,76.66974a5.4137,5.4137,0,1,1,5.4137-5.4137A5.41371,5.41371,0,0,1,109.4021,76.66974Z"/><path class="a" d="M90.648,106.27551A23.63562,23.63562,0,0,1,97.86151,89.269H32.32257a2.00587,2.00587,0,0,0-2,2V109.6344a2.00587,2.00587,0,0,0,2,2H91.26624A23.67481,23.67481,0,0,1,90.648,106.27551Z"/><path class="a" d="M114.35742,85.56543a20.71,20.71,0,1,0,20.71,20.71A20.73279,20.73279,0,0,0,114.35742,85.56543Zm0,38.41992a17.71,17.71,0,1,1,17.71-17.71A17.7295,17.7295,0,0,1,114.35742,123.98535Z"/></svg>