<svg xmlns="http://www.w3.org/2000/svg" viewBox="0 0 150 150"><defs><style>.a{fill:#fff;}</style></defs><path class="a" d="M92.50847,50.07521l5.17281-7.24194-5.66871-5.66871-7.24194,5.17281a19.74646,19.74646,0,0,0-4.275-1.77842l-1.47917-8.77668H71.00069L69.53862,40.559a19.83693,19.83693,0,0,0-4.275,1.77842l-7.24194-5.17281-5.68582,5.66872,5.17282,7.24194a19.74629,19.74629,0,0,0-1.77843,4.27505l-8.77668,1.47916v8.01573l8.77668,1.46206a19.74649,19.74649,0,0,0,1.77843,4.275l-5.17282,7.24194,5.66445,5.66872,7.24193-5.17282a19.87073,19.87073,0,0,0,4.27505,1.77843l1.48345,8.79378h8.01572l1.46207-8.77668a19.926,19.926,0,0,0,4.275-1.77842L91.99547,82.51l5.66871-5.66872-5.17281-7.24194a19.9599,19.9599,0,0,0,1.77843-4.275l8.77668-1.46207V55.82943L94.2698,54.36737A19.74653,19.74653,0,0,0,92.50847,50.07521Zm-17.49778,17.78a8.01573,8.01573,0,1,1,8.01572-8.01573h0A8.01572,8.01572,0,0,1,75.01069,67.85516Z"/><path class="a" d="M121.63916,101.2H28.36084a8.02353,8.02353,0,0,0-8,8v1.01776a8.02353,8.02353,0,0,0,8,8h93.27832a8.02353,8.02353,0,0,0,8-8V109.2A8.02353,8.02353,0,0,0,121.63916,101.2Zm-95.27832,9.01776V109.2a2.02679,2.02679,0,0,1,2-2H88.14343v5.01776H28.36084A2.02679,2.02679,0,0,1,26.36084,110.21771Z"/></svg>