<svg id="udm-saml-serviceprovider" xmlns="http://www.w3.org/2000/svg" viewBox="0 0 150 150"><path class="a" d="M71.78787,78.77965V91.78708l-4.76712,1.15773,1.63444,6.74207-7.01448,1.70255,1.54364,6.35616-15.5953,3.7683-2.61057-10.82818L63.97887,69.81292A23.82971,23.82971,0,0,0,71.78787,78.77965Zm4.42661,2.54246v32.57533l7.8544,7.8544,11.35029-11.35029-4.63091-4.63091,5.10763-5.10763-4.90333-4.90333,4.90333-4.90333V80.73189A24.2985,24.2985,0,0,1,76.21448,81.32211Zm28.807-22.31467a19.6133,19.6133,0,1,1-22.292-19.4317,12.00982,12.00982,0,1,0-20.317,12.66693,23.60684,23.60684,0,0,0-.95342,5.97025A16.865,16.865,0,1,1,88.01879,39.59845,19.54843,19.54843,0,0,1,105.02152,59.00744ZM90.26614,49.81371a4.86338,4.86338,0,0,0-1.38474-3.40509,12.472,12.472,0,0,1-1.06693,4.54011,4.28113,4.28113,0,0,1-4.38121-2.11115,9.585,9.585,0,0,0,.63562-3.7002,4.86081,4.86081,0,1,0,6.19726,4.67633Z"/></svg>
