<?xml version="1.0" encoding="UTF-8" standalone="no"?>
<svg
   xmlns:dc="http://purl.org/dc/elements/1.1/"
   xmlns:cc="http://web.resource.org/cc/"
   xmlns:rdf="http://www.w3.org/1999/02/22-rdf-syntax-ns#"
   xmlns:svg="http://www.w3.org/2000/svg"
   xmlns="http://www.w3.org/2000/svg"
   xmlns:sodipodi="http://sodipodi.sourceforge.net/DTD/sodipodi-0.dtd"
   xmlns:inkscape="http://www.inkscape.org/namespaces/inkscape"
   width="298.093"
   height="37.2812"
   id="svg43"
   sodipodi:version="0.32"
   inkscape:version="0.44.1"
   sodipodi:docname="univention_logo.svg"
   sodipodi:docbase="/home/steuwer/svn/dev/trunk/ucs/management/univention-admin-modules/modules/univention/admin/handlers/settings">
  <metadata
     id="metadata86">
    <rdf:RDF>
      <cc:Work
         rdf:about="">
        <dc:format>image/svg+xml</dc:format>
        <dc:type
           rdf:resource="http://purl.org/dc/dcmitype/StillImage" />
      </cc:Work>
    </rdf:RDF>
  </metadata>
  <sodipodi:namedview
     inkscape:window-height="578"
     inkscape:window-width="923"
     inkscape:pageshadow="2"
     inkscape:pageopacity="0.0"
     guidetolerance="10.0"
     gridtolerance="10.0"
     objecttolerance="10.0"
     borderopacity="1.0"
     bordercolor="#666666"
     pagecolor="#ffffff"
     id="base"
     inkscape:zoom="2.8078487"
     inkscape:cx="118.96024"
     inkscape:cy="2.6158849"
     inkscape:window-x="170"
     inkscape:window-y="328"
     inkscape:current-layer="svg43" />
  <defs
     id="defs45">
    <marker
       id="ArrowEnd"
       viewBox="0 0 10 10"
       refX="0"
       refY="5"
       markerUnits="strokeWidth"
       markerWidth="4"
       markerHeight="3"
       orient="auto">
      <path
         d="M 0 0 L 10 5 L 0 10 z"
         id="path48" />
    </marker>
    <marker
       id="ArrowStart"
       viewBox="0 0 10 10"
       refX="10"
       refY="5"
       markerUnits="strokeWidth"
       markerWidth="4"
       markerHeight="3"
       orient="auto">
      <path
         d="M 10 0 L 0 5 L 10 10 z"
         id="path51" />
    </marker>
  </defs>
  <g
     id="g3762">
    <path
       style="fill:#c03;fill-rule:evenodd;stroke:none;fill-opacity:1"
       d="M 30.4648,31.1875 C 30.4648,34.5546 27.7382,37.2812 24.3711,37.2812 L 6.09375,37.2812 C 2.73046,37.2812 0,34.5546 0,31.1875 L 0,12.9101 C 0,9.5468 2.73046,6.8164 6.09375,6.8164 L 24.3711,6.8164 C 27.7382,6.8164 30.4648,9.5468 30.4648,12.9101 L 30.4648,31.1875 z "
       id="path55" />
    <path
       style="fill:#c03;fill-rule:evenodd;stroke:none;fill-opacity:1"
       d="M 36.5585,25.0976 C 36.5585,28.4609 33.832,31.1875 30.4648,31.1875 L 12.1875,31.1875 C 8.82031,31.1875 6.09375,28.4609 6.09375,25.0976 L 6.09375,6.8164 C 6.09375,3.4531 8.82031,0.722599 12.1875,0.722599 L 30.4648,0.722599 C 33.832,0.722599 36.5585,3.4531 36.5585,6.8164 L 36.5585,25.0976 z "
       id="path57" />
    <path
       style="fill:white;fill-rule:evenodd;stroke:none"
       d="M 30.4414,12.3789 L 30.4414,12.3671 L 30.4414,12.3671 C 30.4179,12.1289 30.3828,11.9101 30.332,11.7031 C 29.5976,7.9101 25.6875,6.8984 24.9921,6.8359 L 24.9921,24.6992 C 24.1992,26.5703 21.0664,27.8203 17.7304,27.6093 C 13.6601,27.3515 11.6914,25.871 11.5742,24.5195 L 11.5742,6.8164 L 6.09375,6.8164 L 6.09375,25.0937 C 6.18359,28.5312 8.49609,31 12.1835,31.1875 L 21.1796,31.1875 C 22.5351,30.9257 24.1015,29.7617 24.9843,28.5351 L 24.9843,31.1875 L 25.7773,31.1875 L 30.4414,31.1875 L 30.4648,31.1875 L 30.4648,12.9101 C 30.4648,12.7226 30.4531,12.5468 30.4414,12.3789 z "
       id="path59" />
  </g>
  <path
     id="path61"
     d="M 286.605,6.9804 C 283.132,7.0859 281.07,6.9804 279.367,9.6679 C 278.121,7.6289 275.492,7.1132 273.933,7.0429 L 273.933,31.1835 L 279.488,31.1757 L 279.429,13.8203 C 279.519,11.8671 282.726,10.3437 286.554,10.5859 C 290.593,10.8398 292.547,12.3046 292.656,13.6445 L 292.656,31.1992 L 298.093,31.1992 L 298.093,13.0781 C 297.632,8.8242 295.953,6.6992 286.605,6.9804 z "
     style="fill:#c03;fill-rule:evenodd;stroke:none;fill-opacity:1" />
  <path
     id="path63"
     d="M 120.898,7.0156 C 121.289,7.8046 130.879,27.0898 131.57,28.2226 C 132.257,29.3593 134.109,30.9648 135.816,31.2109 C 136.609,31.3242 139.109,31.4375 140.004,31.1796 C 140.211,31.039 147.398,12.3437 147.547,11.8984 C 147.691,11.4531 147.941,9.2343 145.523,7.1132 C 142.269,15.2539 139.359,23.1914 137.39,27.875 C 134.035,21.2695 131.007,14.7617 128.316,10.2734 C 126.687,7.5585 124.269,7.0156 123.777,7.0156 C 123.285,7.0156 120.898,7.0156 120.898,7.0156 z "
     style="fill:#c03;fill-rule:evenodd;stroke:none;fill-opacity:1" />
  <path
     id="path65"
     d="M 93.0625,7.1171 C 89.5898,7.2226 87.5273,7.1171 85.8242,9.8007 C 84.582,7.7656 81.9492,7.2539 80.3906,7.1757 L 80.3906,31.3164 L 85.9453,31.3125 L 85.8867,13.957 C 85.9765,12.0039 89.1875,10.4765 93.0117,10.7226 C 97.0507,10.9765 99.0039,12.4414 99.1171,13.7851 L 99.1171,31.332 L 104.554,31.332 L 104.554,13.2109 C 104.093,8.9609 102.41,6.8359 93.0625,7.1171 z "
     style="fill:#c03;fill-rule:evenodd;stroke:none;fill-opacity:1" />
  <path
     id="path67"
     d="M 195.707,7.1171 C 192.242,7.2226 190.175,7.1171 188.468,9.8007 C 187.226,7.7656 184.597,7.2539 183.039,7.1757 L 183.039,31.3164 L 188.589,31.3125 L 188.535,13.957 C 188.625,12.0039 191.832,10.4765 195.66,10.7226 C 199.695,10.9765 201.648,12.4414 201.761,13.7851 L 201.761,31.332 L 207.199,31.332 L 207.199,13.2109 C 206.742,8.9609 205.054,6.8359 195.707,7.1171 z "
     style="fill:#c03;fill-rule:evenodd;stroke:none;fill-opacity:1" />
  <path
     id="path69"
     d="M 116.703,4.5312 C 116.703,5.0664 116.273,5.496 115.738,5.496 L 112.234,5.496 C 111.699,5.496 111.265,5.0664 111.265,4.5312 L 111.265,1.0273 C 111.265,0.4921 111.699,0.0585022 112.234,0.0585022 L 115.738,0.0585022 C 116.273,0.0585022 116.703,0.4921 116.703,1.0273 L 116.703,4.5312 z "
     style="fill:#c03;fill-rule:evenodd;stroke:none;fill-opacity:1" />
  <path
     id="path71"
     d="M 220.711,7.3085 L 220.711,0 L 218.675,0 L 218.675,1.3476 C 218.675,4.6835 215.972,7.3867 212.636,7.3867 L 211.629,7.3867 L 211.629,10.8632 L 215.316,10.8632 L 215.316,31.332 L 220.711,31.332 L 220.711,10.9335 L 226.73,10.9335 L 226.73,7.3085 L 220.711,7.3085 z "
     style="fill:#c03;fill-rule:evenodd;stroke:none;fill-opacity:1" />
  <path
     id="path73"
     d="M 261.418,7.1718 L 249.339,7.1718 C 246.007,7.1718 243.297,9.8789 243.297,13.2109 L 243.297,25.2929 C 243.297,28.6289 246.007,31.332 249.339,31.332 L 261.418,31.332 C 264.754,31.332 267.457,28.6289 267.457,25.2929 L 267.457,13.2109 C 267.457,9.8789 264.754,7.1718 261.418,7.1718 z M 262.023,24.082 C 262.023,26.0859 260.398,27.707 258.398,27.707 L 252.359,27.707 C 250.355,27.707 248.734,26.0859 248.734,24.082 L 248.734,14.4179 C 248.734,12.4179 250.355,10.7968 252.359,10.7968 L 258.398,10.7968 C 260.398,10.7968 262.023,12.4179 262.023,14.4179 L 262.023,24.082 z "
     style="fill:#c03;fill-rule:evenodd;stroke:none;fill-opacity:1" />
  <path
     id="path75"
     d="M 176.203,19.5156 L 176.203,19.5117 L 176.445,19.5117 L 176.445,13.1093 C 176.445,9.7734 173.742,7.0703 170.402,7.0703 L 158.324,7.0703 C 154.988,7.0703 152.285,9.7734 152.285,13.1093 L 152.285,25.1874 C 152.285,28.5234 154.406,31.621 163.812,31.4492 C 171.41,31.3085 176.113,30.832 176.429,25.621 L 170.734,25.621 C 170.351,26.3164 168.816,28.0468 163.859,27.8476 C 158.539,27.6289 157.664,25.8476 157.664,23.8437 L 157.664,19.5156 L 176.203,19.5156 z M 161.289,10.5585 L 167.328,10.5585 C 169.328,10.5585 170.953,12.1796 170.953,14.1835 L 170.953,16.0859 L 157.664,16.0859 L 157.664,14.1835 C 157.664,12.1796 159.289,10.5585 161.289,10.5585 z "
     style="fill:#c03;fill-rule:evenodd;stroke:none;fill-opacity:1" />
  <path
     id="path77"
     d="M 116.66,31.2929 L 116.66,13.0937 C 116.66,9.9296 114.3,7.3281 111.265,7 L 111.265,31.2929 L 116.66,31.2929 z "
     style="fill:#c03;fill-rule:evenodd;stroke:none;fill-opacity:1" />
  <path
     id="path79"
     d="M 68.2187,7 L 68.2187,24.7109 C 67.9101,26.5585 64.8046,27.9609 61.1211,27.7304 C 57.0859,27.4726 55.1328,26.0117 55.0234,24.6679 L 55.0234,7.1171 L 49.5859,7.1171 L 49.5859,25.2382 C 50.0429,29.4882 51.7304,31.6171 61.0742,31.332 C 64.4804,31.2304 66.5312,31.3164 68.2187,28.7773 L 68.2187,31.2929 L 73.6132,31.2929 L 73.6132,13.0937 C 73.6132,9.9296 71.25,7.3281 68.2187,7 z "
     style="fill:#c03;fill-rule:evenodd;stroke:none;fill-opacity:1" />
  <path
     id="path81"
     d="M 236.742,4.5312 C 236.742,5.0664 236.308,5.496 235.773,5.496 L 232.273,5.496 C 231.738,5.496 231.304,5.0664 231.304,4.5312 L 231.304,1.0273 C 231.304,0.4921 231.738,0.0585022 232.273,0.0585022 L 235.773,0.0585022 C 236.308,0.0585022 236.742,0.4921 236.742,1.0273 L 236.742,4.5312 z "
     style="fill:#c03;fill-rule:evenodd;stroke:none;fill-opacity:1" />
  <path
     id="path83"
     d="M 236.699,31.2929 L 236.699,13.0937 C 236.699,9.9296 234.339,7.3281 231.304,7 L 231.304,31.2929 L 236.699,31.2929 z "
     style="fill:#c03;fill-rule:evenodd;stroke:none;fill-opacity:1" />
</svg>
