/* XPM */
static char * ooo_template_xpm[] = {
"16 16 150 2",
"  	c None",
". 	c #ACC5E4",
"+ 	c #C9D9ED",
"@ 	c #E2EBF5",
"# 	c #E4ECF6",
"$ 	c #D6E2F0",
"% 	c #B6CCE7",
"& 	c #7FA5D6",
"* 	c #86AAD7",
"= 	c #CFDCEE",
"- 	c #EAEEF5",
"; 	c #EBEFF5",
"> 	c #DEE5F0",
", 	c #E4EAF3",
"' 	c #E9EDF5",
") 	c #E1E9F3",
"! 	c #A0BDE0",
"~ 	c #8AACD7",
"{ 	c #D8E1EE",
"] 	c #B1C2DA",
"^ 	c #819EC4",
"/ 	c #8EA9CC",
"( 	c #7D9AC2",
"_ 	c #BECCE0",
": 	c #EDEFF5",
"< 	c #ECEEF5",
"[ 	c #EBEEF4",
"} 	c #E7EBF4",
"| 	c #A5BFE1",
"1 	c #CAD8EB",
"2 	c #E6EBF3",
"3 	c #E5E9F1",
"4 	c #A3B6D0",
"5 	c #DADFE8",
"6 	c #E1E5EE",
"7 	c #E6EAF3",
"8 	c #E5EAF3",
"9 	c #E4E9F2",
"0 	c #E3E8F2",
"a 	c #DDE5F1",
"b 	c #84A8D4",
"c 	c #627386",
"d 	c #73777A",
"e 	c #878C90",
"f 	c #C5C9CF",
"g 	c #9A9EA2",
"h 	c #6D7174",
"i 	c #A5A9AE",
"j 	c #E5E7EF",
"k 	c #EAECF4",
"l 	c #E8EBF3",
"m 	c #E0E4EE",
"n 	c #D7DCEA",
"o 	c #AAC0DF",
"p 	c #B2C7E2",
"q 	c #E0E5EF",
"r 	c #9DA2A8",
"s 	c #373D3F",
"t 	c #70757A",
"u 	c #CCCFD5",
"v 	c #DADCDF",
"w 	c #DBDDE0",
"x 	c #D5D8DE",
"y 	c #D1D6DC",
"z 	c #D0D5DC",
"A 	c #CAD0D8",
"B 	c #B0C5E0",
"C 	c #E5E8F0",
"D 	c #E6E9F1",
"E 	c #DADCE4",
"F 	c #E7E9F1",
"G 	c #D2D3D7",
"H 	c #D4D6D4",
"I 	c #BABCBB",
"J 	c #CCCDCC",
"K 	c #E0E1DF",
"L 	c #F7F7F6",
"M 	c #FFFFFF",
"N 	c #E5E5E4",
"O 	c #AEC2DE",
"P 	c #DEE3EE",
"Q 	c #E1E5F0",
"R 	c #E4E7F1",
"S 	c #CCCED3",
"T 	c #D4D5D4",
"U 	c #BEBFBE",
"V 	c #DCDCDA",
"W 	c #E7E7E5",
"X 	c #FCFCFC",
"Y 	c #E2E3E1",
"Z 	c #A5BBD9",
"` 	c #E2E4EE",
" .	c #E3E5EE",
"..	c #E4E6F0",
"+.	c #E6E7F1",
"@.	c #C9CACF",
"#.	c #D2D4D3",
"$.	c #C3C4C3",
"%.	c #DEDFDD",
"&.	c #E1E1DE",
"*.	c #E8E8E6",
"=.	c #F5F5F4",
"-.	c #FDFDFD",
";.	c #DEDEDD",
">.	c #D9DEEA",
",.	c #DADEEB",
"'.	c #DDE0EC",
").	c #C3C5CB",
"!.	c #CACBC9",
"~.	c #DEDEDB",
"{.	c #E6E6E3",
"].	c #E4E4E2",
"^.	c #F8F8F7",
"/.	c #D9DAD8",
"(.	c #AABDD9",
"_.	c #DBDEEA",
":.	c #DCDEEA",
"<.	c #E1E2ED",
"[.	c #C6C7CC",
"}.	c #D7D7D6",
"|.	c #CCCCCA",
"1.	c #E5E5E2",
"2.	c #DDDEDB",
"3.	c #E3E3E0",
"4.	c #DCDCD9",
"5.	c #F1F1EF",
"6.	c #D3D4D1",
"7.	c #B2C3DB",
"8.	c #DBDFEB",
"9.	c #D9DDEA",
"0.	c #C0C4CA",
"a.	c #E2E2DF",
"b.	c #DBDCD8",
"c.	c #E7E7E4",
"d.	c #CECECC",
"e.	c #88A1C3",
"f.	c #CFD7E7",
"g.	c #C5C7CC",
"h.	c #DDDDDB",
"i.	c #DADAD7",
"j.	c #E0E0DC",
"k.	c #D8D8D5",
"l.	c #DFDFDB",
"m.	c #DEDEDA",
"n.	c #D9D9D6",
"o.	c #CACAC7",
"p.	c #748597",
"q.	c #E4E4E1",
"r.	c #E0E0DD",
"s.	c #C7C7C4",
"                                ",
"          . + @ # $ % &         ",
"      * = - ; - > , ' ) !       ",
"    ~ { ] ^ / ( _ : < [ } |     ",
"    1 2 2 3 4 5 6 7 8 9 0 a b   ",
"  c d e f g h i j k k l m n o   ",
"  p q r s t u v v v w x y z A   ",
"  B C D E F G H I J K L M M N   ",
"  O P m Q R S T U T V W X M Y   ",
"  Z `  ...+.@.#.$.%.&.*.=.-.;.  ",
"    P >.,.'.).T !.~.W {.].^./.  ",
"    (._.:.<.[.}.|.1.2.3.4.5.6.  ",
"      7.8.9.0./.2.a.b.&.&.c.d.  ",
"        e.f.g.h.i.j.k.l.m.n.o.  ",
"            p.*.1.q.1.a.&.r.s.  ",
"                                "};
