/* XPM */
static char * ooo_impress_xpm[] = {
"16 16 144 2",
"  	c None",
". 	c #ACC5E4",
"+ 	c #C9D9ED",
"@ 	c #E2EBF5",
"# 	c #E4ECF6",
"$ 	c #D6E2F0",
"% 	c #B6CCE7",
"& 	c #7FA5D6",
"* 	c #86AAD7",
"= 	c #CFDCEE",
"- 	c #EAEEF5",
"; 	c #EBEFF5",
"> 	c #DEE5F0",
", 	c #E4EAF3",
"' 	c #E9EDF5",
") 	c #E1E9F3",
"! 	c #A0BDE0",
"~ 	c #8AACD7",
"{ 	c #D8E1EE",
"] 	c #B1C2DA",
"^ 	c #819EC4",
"/ 	c #8EA9CC",
"( 	c #7D9AC2",
"_ 	c #BECCE0",
": 	c #EDEFF5",
"< 	c #ECEEF5",
"[ 	c #EBEEF4",
"} 	c #E7EBF4",
"| 	c #A5BFE1",
"1 	c #CAD8EB",
"2 	c #E6EBF3",
"3 	c #E5E9F1",
"4 	c #A3B6D0",
"5 	c #DADFE8",
"6 	c #E1E5EE",
"7 	c #E6EAF3",
"8 	c #E5EAF3",
"9 	c #E4E9F2",
"0 	c #E3E8F2",
"a 	c #DDE5F1",
"b 	c #84A8D4",
"c 	c #627386",
"d 	c #73777A",
"e 	c #878C90",
"f 	c #C5C9CF",
"g 	c #9A9EA2",
"h 	c #6D7174",
"i 	c #8A8E92",
"j 	c #B2B5B9",
"k 	c #B7BABE",
"l 	c #B6B9BE",
"m 	c #B6B9BD",
"n 	c #B1B5BB",
"o 	c #A8AEB7",
"p 	c #92A8C4",
"q 	c #B2C7E2",
"r 	c #E0E5EF",
"s 	c #9DA2A8",
"t 	c #373D3F",
"u 	c #70757A",
"v 	c #D6DAE2",
"w 	c #939597",
"x 	c #70716F",
"y 	c #868D92",
"z 	c #B0C5E0",
"A 	c #E5E8F0",
"B 	c #E6E9F1",
"C 	c #DADCE4",
"D 	c #E7E9F1",
"E 	c #E9EBF3",
"F 	c #C7C9CD",
"G 	c #D2D2D1",
"H 	c #CDB3B1",
"I 	c #CA9D9C",
"J 	c #E0DCDB",
"K 	c #D8D8D6",
"L 	c #E1E1E0",
"M 	c #C4C9D0",
"N 	c #AEC2DE",
"O 	c #DEE3EE",
"P 	c #E0E4EE",
"Q 	c #E1E5F0",
"R 	c #E4E7F1",
"S 	c #E5E8F1",
"T 	c #C7C9CE",
"U 	c #E3C0BF",
"V 	c #E05C5B",
"W 	c #D8797D",
"X 	c #C87E81",
"Y 	c #DDDDDB",
"Z 	c #E8E8E7",
"` 	c #C4CAD1",
" .	c #A5BBD9",
"..	c #E2E4EE",
"+.	c #E3E5EE",
"@.	c #E4E6F0",
"#.	c #E6E7F1",
"$.	c #E5E6F0",
"%.	c #C5C6CC",
"&.	c #DCA8A7",
"*.	c #E67271",
"=.	c #A1B693",
"-.	c #AB7980",
";.	c #DFDFDD",
">.	c #EAEAE8",
",.	c #AAB7C6",
"'.	c #D9DEEA",
").	c #DADEEB",
"!.	c #DDE0EC",
"~.	c #E1E3EE",
"{.	c #C6C7CD",
"].	c #F3F0EF",
"^.	c #CA8885",
"/.	c #B68173",
"(.	c #E2C9C7",
"_.	c #788EA9",
":.	c #AABDD9",
"<.	c #DBDEEA",
"[.	c #DCDEEA",
"}.	c #E1E2ED",
"|.	c #C8C9CE",
"1.	c #F4F4F3",
"2.	c #EEEEED",
"3.	c #B2C3DB",
"4.	c #DBDFEB",
"5.	c #D9DDEA",
"6.	c #DDE1ED",
"7.	c #D6D9E3",
"8.	c #C4C6CC",
"9.	c #C3C6CB",
"0.	c #A0A1A2",
"a.	c #969899",
"b.	c #B3BBC6",
"c.	c #88A1C3",
"d.	c #CFD7E7",
"e.	c #E2E5EF",
"f.	c #DFE1ED",
"g.	c #C1C4CC",
"h.	c #909396",
"i.	c #65707B",
"j.	c #708CB2",
"k.	c #98B0CE",
"l.	c #8B99A9",
"m.	c #52606F",
"                                ",
"          . + @ # $ % &         ",
"      * = - ; - > , ' ) !       ",
"    ~ { ] ^ / ( _ : < [ } |     ",
"    1 2 2 3 4 5 6 7 8 9 0 a b   ",
"  c d e f g h i j k l m n o p   ",
"  q r s t u v w x x x x x x y   ",
"  z A B C D E F G H I J K L M   ",
"  N O P Q R S T U V W X Y Z `   ",
"   ...+.@.#.$.%.&.*.=.-.;.>.,.  ",
"    O '.).!.~.{.].^./.(.;.>._.  ",
"    :.<.[.}.$.|.1.L L L L 2.    ",
"      3.4.5.6.7.8.9.0.a.b.      ",
"        c.d.e.f.f.g.h.i.        ",
"            j.k.l.m.            ",
"                                "};
