/* XPM */
static char * ooo_math_xpm[] = {
"16 16 150 2",
"  	c None",
". 	c #ACC5E4",
"+ 	c #C9D9ED",
"@ 	c #E2EBF5",
"# 	c #E4ECF6",
"$ 	c #D6E2F0",
"% 	c #B6CCE7",
"& 	c #7FA5D6",
"* 	c #86AAD7",
"= 	c #CFDCEE",
"- 	c #EAEEF5",
"; 	c #EBEFF5",
"> 	c #DEE5F0",
", 	c #E4EAF3",
"' 	c #E9EDF5",
") 	c #E1E9F3",
"! 	c #A0BDE0",
"~ 	c #8AACD7",
"{ 	c #D8E1EE",
"] 	c #B1C2DA",
"^ 	c #819EC4",
"/ 	c #8EA9CC",
"( 	c #7D9AC2",
"_ 	c #BECCE0",
": 	c #EDEFF5",
"< 	c #ECEEF5",
"[ 	c #EBEEF4",
"} 	c #E7EBF4",
"| 	c #A5BFE1",
"1 	c #CAD8EB",
"2 	c #E6EBF3",
"3 	c #E5E9F1",
"4 	c #A3B6D0",
"5 	c #DADFE8",
"6 	c #E1E5EE",
"7 	c #E6EAF3",
"8 	c #E5EAF3",
"9 	c #E4E9F2",
"0 	c #E3E8F2",
"a 	c #DDE5F1",
"b 	c #84A8D4",
"c 	c #627386",
"d 	c #73777A",
"e 	c #878C90",
"f 	c #C5C9CF",
"g 	c #9A9EA2",
"h 	c #6D7174",
"i 	c #A5A9AE",
"j 	c #E5E7EF",
"k 	c #EAECF4",
"l 	c #E8EBF3",
"m 	c #E0E4EE",
"n 	c #D7DCEA",
"o 	c #AAC0DF",
"p 	c #B2C7E2",
"q 	c #E0E5EF",
"r 	c #9DA2A8",
"s 	c #373D3F",
"t 	c #70757A",
"u 	c #D6DAE2",
"v 	c #E6E9F2",
"w 	c #E5E9F2",
"x 	c #DEE3EF",
"y 	c #D2D9E9",
"z 	c #CDD5E7",
"A 	c #CAD3E6",
"B 	c #CCD8EA",
"C 	c #B0C5E0",
"D 	c #E5E8F0",
"E 	c #E6E9F1",
"F 	c #DADCE4",
"G 	c #E7E9F1",
"H 	c #E9EBF3",
"I 	c #EAEBF4",
"J 	c #EAEBF3",
"K 	c #E2E4F0",
"L 	c #DDE0EE",
"M 	c #DBDFED",
"N 	c #DADDEB",
"O 	c #D7DBEA",
"P 	c #DCE2EF",
"Q 	c #AEC2DE",
"R 	c #DEE3EE",
"S 	c #E1E5F0",
"T 	c #E4E7F1",
"U 	c #E5E8F1",
"V 	c #E5E7F2",
"W 	c #CBD6EB",
"X 	c #C2D2E5",
"Y 	c #B9CCE4",
"Z 	c #BACDE4",
"` 	c #B9CDE4",
" .	c #C3D4E9",
"..	c #A5BBD9",
"+.	c #E2E4EE",
"@.	c #E3E5EE",
"#.	c #E4E6F0",
"$.	c #E6E7F1",
"%.	c #E5E6F0",
"&.	c #E3E3F0",
"*.	c #E4E4F1",
"=.	c #CBD6E9",
"-.	c #C5D3E8",
";.	c #DBDEEC",
">.	c #D8DCEB",
",.	c #C0CEE4",
"'.	c #D9DEEA",
").	c #DADEEB",
"!.	c #DDE0EC",
"~.	c #E1E3EE",
"{.	c #E5E6F1",
"].	c #E7E8F2",
"^.	c #E2E4F1",
"/.	c #BCCCE2",
"(.	c #C1CEE4",
"_.	c #D5DBEB",
":.	c #D5DBEA",
"<.	c #9BB3D5",
"[.	c #AABDD9",
"}.	c #DBDEEA",
"|.	c #DCDEEA",
"1.	c #E1E2ED",
"2.	c #E8E9F2",
"3.	c #E9EAF3",
"4.	c #CBD5E8",
"5.	c #ABBFD8",
"6.	c #D6DBEA",
"7.	c #C8D3E6",
"8.	c #B2C3DB",
"9.	c #DBDFEB",
"0.	c #D9DDEA",
"a.	c #DDE1ED",
"b.	c #E1E4EF",
"c.	c #E2E5F0",
"d.	c #E0E3EF",
"e.	c #ACBED8",
"f.	c #AEC0D9",
"g.	c #CCD6E7",
"h.	c #88A1C3",
"i.	c #CFD7E7",
"j.	c #E2E5EF",
"k.	c #DFE1ED",
"l.	c #B6C4DC",
"m.	c #99B0CF",
"n.	c #A2B6D2",
"o.	c #708CB2",
"p.	c #8CA7CB",
"q.	c #ACBED4",
"r.	c #7795BA",
"s.	c #91AAC8",
"                                ",
"          . + @ # $ % &         ",
"      * = - ; - > , ' ) !       ",
"    ~ { ] ^ / ( _ : < [ } |     ",
"    1 2 2 3 4 5 6 7 8 9 0 a b   ",
"  c d e f g h i j k k l m n o   ",
"  p q r s t u v v w x y z A B   ",
"  C D E F G H I J K L M N O P   ",
"  Q R m S T U V W X Y Z ` `  .  ",
"  ..+.@.#.$.%.&.*.=.-.L ;.>.,.  ",
"    R '.).!.~.{.].^./.(._.:.<.  ",
"    [.}.|.1.%.2.3.2.4.5.6.7.    ",
"      8.9.0.a.b.c.d.e.f.g.      ",
"        h.i.j.k.k.l.m.n.        ",
"            o.m.p.q.r.s.s.s.    ",
"                                "};
