/* XPM */
static char * ooo_draw_xpm[] = {
"16 16 159 2",
"  	c None",
". 	c #ACC5E4",
"+ 	c #C9D9ED",
"@ 	c #E2EBF5",
"# 	c #E4ECF6",
"$ 	c #D6E2F0",
"% 	c #B6CCE7",
"& 	c #7FA5D6",
"* 	c #86AAD7",
"= 	c #CFDCEE",
"- 	c #EAEEF5",
"; 	c #EBEFF5",
"> 	c #DEE5F0",
", 	c #E4EAF3",
"' 	c #E9EDF5",
") 	c #E1E9F3",
"! 	c #A0BDE0",
"~ 	c #8AACD7",
"{ 	c #D8E1EE",
"] 	c #B1C2DA",
"^ 	c #819EC4",
"/ 	c #8EA9CC",
"( 	c #7D9AC2",
"_ 	c #BECCE0",
": 	c #EDEFF5",
"< 	c #ECEEF5",
"[ 	c #EBEEF4",
"} 	c #E7EBF4",
"| 	c #A5BFE1",
"1 	c #CAD8EB",
"2 	c #E6EBF3",
"3 	c #E5E9F1",
"4 	c #A3B6D0",
"5 	c #DADFE8",
"6 	c #D5D3D5",
"7 	c #E2E4EB",
"8 	c #E5EAF3",
"9 	c #E4E9F2",
"0 	c #E3E8F2",
"a 	c #DDE5F1",
"b 	c #84A8D4",
"c 	c #627386",
"d 	c #73777A",
"e 	c #878C90",
"f 	c #C5C9CF",
"g 	c #9A9EA2",
"h 	c #6D7174",
"i 	c #A5A9AE",
"j 	c #B49E88",
"k 	c #B48F68",
"l 	c #EAECF4",
"m 	c #E8EBF3",
"n 	c #E0E4EE",
"o 	c #D7DCEA",
"p 	c #AAC0DF",
"q 	c #B2C7E2",
"r 	c #E0E5EF",
"s 	c #9DA2A8",
"t 	c #373D3F",
"u 	c #70757A",
"v 	c #D6DAE2",
"w 	c #E6E9F2",
"x 	c #D6D4D6",
"y 	c #AF6211",
"z 	c #BDB1A7",
"A 	c #D2D9E9",
"B 	c #CDD5E7",
"C 	c #CAD3E6",
"D 	c #CCD8EA",
"E 	c #B0C5E0",
"F 	c #E5E8F0",
"G 	c #E6E9F1",
"H 	c #DADCE4",
"I 	c #E7E9F1",
"J 	c #E9EBF3",
"K 	c #EAEBF4",
"L 	c #EAEBF3",
"M 	c #AD7842",
"N 	c #B46D23",
"O 	c #D2D1DA",
"P 	c #DADDEB",
"Q 	c #D7DBEA",
"R 	c #DCE2EF",
"S 	c #AEC2DE",
"T 	c #DEE3EE",
"U 	c #E1E5F0",
"V 	c #E4E7F1",
"W 	c #E5E8F1",
"X 	c #E5E7F2",
"Y 	c #DFE2EF",
"Z 	c #B4A398",
"` 	c #CD7110",
" .	c #A7815D",
"..	c #D3DAEA",
"+.	c #D0D7E8",
"@.	c #D7DFED",
"#.	c #A5BBD9",
"$.	c #E2E4EE",
"%.	c #E3E5EE",
"&.	c #E4E6F0",
"*.	c #E6E7F1",
"=.	c #E5E6F0",
"-.	c #E3E3F0",
";.	c #E4E4F1",
">.	c #DEDEE8",
",.	c #A1611C",
"'.	c #C26C10",
").	c #C3BAB9",
"!.	c #C0CEE4",
"~.	c #D9DEEA",
"{.	c #DADEEB",
"].	c #DDE0EC",
"^.	c #E1E3EE",
"/.	c #E5E6F1",
"(.	c #E7E8F2",
"_.	c #E4E6F2",
":.	c #AA917B",
"<.	c #B18655",
"[.	c #A1A09B",
"}.	c #D4DAE9",
"|.	c #9BB3D5",
"1.	c #AABDD9",
"2.	c #DBDEEA",
"3.	c #DCDEEA",
"4.	c #E1E2ED",
"5.	c #E8E9F2",
"6.	c #E9EAF3",
"7.	c #D9DBE4",
"8.	c #AEAFAE",
"9.	c #D6D7D6",
"0.	c #AFBAC8",
"a.	c #B2C3DB",
"b.	c #DBDFEB",
"c.	c #D9DDEA",
"d.	c #DDE1ED",
"e.	c #E1E4EF",
"f.	c #E2E5F0",
"g.	c #E0E3EF",
"h.	c #DCE0ED",
"i.	c #C3C7CF",
"j.	c #C2C2C2",
"k.	c #848688",
"l.	c #88A1C3",
"m.	c #CFD7E7",
"n.	c #E2E5EF",
"o.	c #DFE1ED",
"p.	c #E1E4EE",
"q.	c #A7B9D3",
"r.	c #474E55",
"s.	c #686868",
"t.	c #595959",
"u.	c #708CB2",
"v.	c #99B0CF",
"w.	c #9AB2D1",
"x.	c #8098B8",
"y.	c #1D1D1D",
"z.	c #2C2C2C",
"A.	c #333333",
"B.	c #050505",
"                                ",
"          . + @ # $ % &         ",
"      * = - ; - > , ' ) !       ",
"    ~ { ] ^ / ( _ : < [ } |     ",
"    1 2 2 3 4 5 6 7 8 9 0 a b   ",
"  c d e f g h i j k l m n o p   ",
"  q r s t u v w x y z A B C D   ",
"  E F G H I J K L M N O P Q R   ",
"  S T n U V W X Y Z `  ...+.@.  ",
"  #.$.%.&.*.=.-.;.>.,.'.).P !.  ",
"    T ~.{.].^./.(._.:.<.[.}.|.  ",
"    1.2.3.4.=.5.6.5.7.8.9.0.    ",
"      a.b.c.d.e.f.g.h.i.j.k.    ",
"        l.m.n.o.o.p.n q.r.s.t.  ",
"            u.v.w.x.    y.z.A.  ",
"                            B.  "};
