/* XPM */
static char * ooo_writer_xpm[] = {
"16 16 161 2",
"  	c None",
". 	c #ACC5E4",
"+ 	c #C9D9ED",
"@ 	c #E2EBF5",
"# 	c #E4ECF6",
"$ 	c #D6E2F0",
"% 	c #B6CCE7",
"& 	c #7FA5D6",
"* 	c #86AAD7",
"= 	c #CFDCEE",
"- 	c #EAEEF5",
"; 	c #EBEFF5",
"> 	c #DEE5F0",
", 	c #E4EAF3",
"' 	c #E9EDF5",
") 	c #E1E9F3",
"! 	c #A0BDE0",
"~ 	c #8AACD7",
"{ 	c #D8E1EE",
"] 	c #B1C2DA",
"^ 	c #819EC4",
"/ 	c #8EA9CC",
"( 	c #7D9AC2",
"_ 	c #BECCE0",
": 	c #EDEFF5",
"< 	c #ECEEF5",
"[ 	c #EBEEF4",
"} 	c #E7EBF4",
"| 	c #A5BFE1",
"1 	c #CAD8EB",
"2 	c #E6EBF3",
"3 	c #E5E9F1",
"4 	c #A3B6D0",
"5 	c #DADFE8",
"6 	c #E1E5EE",
"7 	c #E6EAF3",
"8 	c #E5EAF3",
"9 	c #E4E9F2",
"0 	c #E3E8F2",
"a 	c #DDE5F1",
"b 	c #84A8D4",
"c 	c #627386",
"d 	c #73777A",
"e 	c #878C90",
"f 	c #C5C9CF",
"g 	c #9A9EA2",
"h 	c #6D7174",
"i 	c #A5A9AE",
"j 	c #E5E7EF",
"k 	c #EAECF4",
"l 	c #E8EBF3",
"m 	c #E0E4EE",
"n 	c #D7DCEA",
"o 	c #AAC0DF",
"p 	c #B2C7E2",
"q 	c #E0E5EF",
"r 	c #9DA2A8",
"s 	c #373D3F",
"t 	c #70757A",
"u 	c #CCCFD5",
"v 	c #DADCDF",
"w 	c #DBDDDF",
"x 	c #DBDDE0",
"y 	c #DBDEE0",
"z 	c #D5D8DE",
"A 	c #D1D6DC",
"B 	c #D0D5DC",
"C 	c #CAD0D8",
"D 	c #B0C5E0",
"E 	c #E5E8F0",
"F 	c #E6E9F1",
"G 	c #DADCE4",
"H 	c #E7E9F1",
"I 	c #D2D3D7",
"J 	c #F4F4F2",
"K 	c #EEEEEC",
"L 	c #CFD0CD",
"M 	c #D9D9D7",
"N 	c #ECECEA",
"O 	c #ECECE9",
"P 	c #DFDFDD",
"Q 	c #AEC2DE",
"R 	c #DEE3EE",
"S 	c #E1E5F0",
"T 	c #E4E7F1",
"U 	c #CCCED3",
"V 	c #F3F3F2",
"W 	c #EDEDEB",
"X 	c #CACBC8",
"Y 	c #C9CAC7",
"Z 	c #C9C9C6",
"` 	c #D3D3D1",
" .	c #DBDBD9",
"..	c #A5BBD9",
"+.	c #E2E4EE",
"@.	c #E3E5EE",
"#.	c #E4E6F0",
"$.	c #E6E7F1",
"%.	c #C9CACF",
"&.	c #E5E5E4",
"*.	c #DDDEDC",
"=.	c #9EAABA",
"-.	c #9FACBB",
";.	c #CDCDCA",
">.	c #C7C7C5",
",.	c #D1D2CF",
"'.	c #D6D6D4",
").	c #D9DEEA",
"!.	c #DADEEB",
"~.	c #DDE0EC",
"{.	c #C3C5CB",
"].	c #F0F0EF",
"^.	c #E8E8E6",
"/.	c #A68B5F",
"(.	c #737A7E",
"_.	c #C6C6C3",
":.	c #B5B6B3",
"<.	c #C5C5C2",
"[.	c #AABDD9",
"}.	c #DBDEEA",
"|.	c #DCDEEA",
"1.	c #E1E2ED",
"2.	c #C6C7CC",
"3.	c #E3E3E1",
"4.	c #DADAD7",
"5.	c #A98852",
"6.	c #9D9076",
"7.	c #CECFCC",
"8.	c #C3C4C1",
"9.	c #CDCECA",
"0.	c #CCCCC9",
"a.	c #B2C3DB",
"b.	c #DBDFEB",
"c.	c #D9DDEA",
"d.	c #C0C4CA",
"e.	c #E4E4E1",
"f.	c #D3D3D0",
"g.	c #D2D3CF",
"h.	c #D2D2CF",
"i.	c #D1D1CE",
"j.	c #E0E0DC",
"k.	c #C8C9C6",
"l.	c #88A1C3",
"m.	c #CFD7E7",
"n.	c #C5C7CC",
"o.	c #E9E9E6",
"p.	c #E1E1DD",
"q.	c #B3B4B0",
"r.	c #B2B3B0",
"s.	c #B2B3AF",
"t.	c #C1C2BE",
"u.	c #C6C7C4",
"v.	c #748597",
"w.	c #EBEBE9",
"x.	c #E5E5E2",
"y.	c #D6D7D4",
"z.	c #D6D6D3",
"A.	c #D4D5D2",
"B.	c #D4D4D1",
"C.	c #D8D8D4",
"D.	c #C6C7C3",
"                                ",
"          . + @ # $ % &         ",
"      * = - ; - > , ' ) !       ",
"    ~ { ] ^ / ( _ : < [ } |     ",
"    1 2 2 3 4 5 6 7 8 9 0 a b   ",
"  c d e f g h i j k k l m n o   ",
"  p q r s t u v w x y z A B C   ",
"  D E F G H I J K L L M N O P   ",
"  Q R m S T U V W X Y Y Z `  .  ",
"  ..+.@.#.$.%.&.*.=.-.;.>.,.'.  ",
"    R ).!.~.{.].^./.(._.:.<.,.  ",
"    [.}.|.1.2.3.4.5.6.7.8.9.0.  ",
"      a.b.c.d.N e.f.g.h.i.j.k.  ",
"        l.m.n.o.p.q.r.s.s.t.u.  ",
"            v.w.x.y.z.A.B.C.D.  ",
"                                "};
