<svg xmlns="http://www.w3.org/2000/svg" viewBox="0 0 150 150"><defs><style>.a{fill:#fff;}</style></defs><path class="a" d="M62.95752,90.24316a2.99975,2.99975,0,0,1-2.12109-5.12109L85.564,60.39453a2.99985,2.99985,0,1,1,4.24219,4.24268L65.07861,89.36475A2.991,2.991,0,0,1,62.95752,90.24316Z"/><path class="a" d="M86.48389,92.19238A7.15039,7.15039,0,1,1,93.63428,85.042,7.15832,7.15832,0,0,1,86.48389,92.19238Zm0-10.30078A3.15039,3.15039,0,1,0,89.63428,85.042,3.15373,3.15373,0,0,0,86.48389,81.8916Z"/><path class="a" d="M64.38916,72.10693A7.14875,7.14875,0,1,1,70.397,68.85352h0A7.15057,7.15057,0,0,1,64.38916,72.10693Zm.01758-10.2998a3.17273,3.17273,0,0,0-.66113.06982,3.1505,3.1505,0,1,0,3.29687,4.79785h0a3.152,3.152,0,0,0-2.63574-4.86767Zm4.313,5.957h0Z"/><path class="a" d="M128.30865,73.06866h-.00006a53.35058,53.35058,0,1,0-53.30865,55.2887H75A53.35739,53.35739,0,0,0,128.35742,75C128.35742,74.35223,128.33148,73.71082,128.30865,73.06866ZM75,107.54266h-.00006a32.54266,32.54266,0,1,1,32.48077-34.474c.03748.63947.06189,1.28248.06189,1.93134A32.54261,32.54261,0,0,1,75,107.54266Zm36.89819-39.474a37.54334,37.54334,0,1,0-41.89825,44.14246v10.88965A48.35719,48.35719,0,1,1,122.851,68.06866Z"/></svg>