<?xml version="1.0" encoding="UTF-8" standalone="no"?>
<svg
   xmlns:dc="http://purl.org/dc/elements/1.1/"
   xmlns:cc="http://creativecommons.org/ns#"
   xmlns:rdf="http://www.w3.org/1999/02/22-rdf-syntax-ns#"
   xmlns:svg="http://www.w3.org/2000/svg"
   xmlns="http://www.w3.org/2000/svg"
   xmlns:sodipodi="http://sodipodi.sourceforge.net/DTD/sodipodi-0.dtd"
   xmlns:inkscape="http://www.inkscape.org/namespaces/inkscape"
   viewBox="0 0 16 16"
   version="1.1"
   id="svg16"
   sodipodi:docname="filesystem-quota.svg"
   inkscape:version="0.92.4 (unknown)">
  <metadata
     id="metadata20">
    <rdf:RDF>
      <cc:Work
         rdf:about="">
        <dc:format>image/svg+xml</dc:format>
        <dc:type
           rdf:resource="http://purl.org/dc/dcmitype/StillImage" />
      </cc:Work>
    </rdf:RDF>
  </metadata>
  <sodipodi:namedview
     pagecolor="#ffffff"
     bordercolor="#666666"
     borderopacity="1"
     objecttolerance="10"
     gridtolerance="10"
     guidetolerance="10"
     inkscape:pageopacity="0"
     inkscape:pageshadow="2"
     inkscape:window-width="1916"
     inkscape:window-height="1005"
     id="namedview18"
     showgrid="false"
     inkscape:zoom="14.75"
     inkscape:cx="-9.1864407"
     inkscape:cy="8"
     inkscape:window-x="0"
     inkscape:window-y="73"
     inkscape:window-maximized="0"
     inkscape:current-layer="svg16" />
  <defs
     id="defs4">
    <style
       id="style2">.cls-1{fill:#868681;}</style>
  </defs>
  <title
     id="title6">Element 2815</title>
  <g
     id="Ebene_2"
     data-name="Ebene 2"
     style="fill:#ffffff;fill-opacity:1">
    <g
       id="_1607_Icons"
       data-name="1607 Icons"
       style="fill:#ffffff;fill-opacity:1">
      <path
         class="cls-1"
         d="M8,0C3.58,0,0,1.12,0,2.5v2C0,5.88,3.58,7,8,7s8-1.12,8-2.5v-2C16,1.12,12.42,0,8,0Z"
         id="path8"
         style="fill:#ffffff;fill-opacity:1" />
      <path
         class="cls-1"
         d="M8,8.5C3.58,8.5,0,7.38,0,6V9c0,1.38,3.58,2.5,8,2.5s8-1.12,8-2.5V6C16,7.38,12.42,8.5,8,8.5Z"
         id="path10"
         style="fill:#ffffff;fill-opacity:1" />
      <path
         class="cls-1"
         d="M8,13c-4.42,0-8-1.12-8-2.5v3C0,14.88,3.58,16,8,16s8-1.12,8-2.5v-3C16,11.88,12.42,13,8,13Z"
         id="path12"
         style="fill:#ffffff;fill-opacity:1" />
    </g>
  </g>
</svg>
