<svg xmlns="http://www.w3.org/2000/svg" viewBox="0 0 16 16"><defs><style>.cls-1{fill:#868681;}</style></defs><title>Element 2815</title><g id="Ebene_2" data-name="Ebene 2"><g id="_1607_Icons" data-name="1607 Icons"><path class="cls-1" d="M8,0C3.58,0,0,1.12,0,2.5v2C0,5.88,3.58,7,8,7s8-1.12,8-2.5v-2C16,1.12,12.42,0,8,0Z"/><path class="cls-1" d="M8,8.5C3.58,8.5,0,7.38,0,6V9c0,1.38,3.58,2.5,8,2.5s8-1.12,8-2.5V6C16,7.38,12.42,8.5,8,8.5Z"/><path class="cls-1" d="M8,13c-4.42,0-8-1.12-8-2.5v3C0,14.88,3.58,16,8,16s8-1.12,8-2.5v-3C16,11.88,12.42,13,8,13Z"/></g></g></svg>