<?xml version="1.0" encoding="UTF-8" standalone="no"?>
<!-- Created with Inkscape (http://www.inkscape.org/) -->

<svg
   xmlns:dc="http://purl.org/dc/elements/1.1/"
   xmlns:cc="http://creativecommons.org/ns#"
   xmlns:rdf="http://www.w3.org/1999/02/22-rdf-syntax-ns#"
   xmlns:svg="http://www.w3.org/2000/svg"
   xmlns="http://www.w3.org/2000/svg"
   version="1.1"
   width="149"
   height="18.636425"
   id="svg4306">
  <defs
     id="defs4308" />
  <metadata
     id="metadata4311">
    <rdf:RDF>
      <cc:Work
         rdf:about="">
        <dc:format>image/svg+xml</dc:format>
        <dc:type
           rdf:resource="http://purl.org/dc/dcmitype/StillImage" />
        <dc:title></dc:title>
      </cc:Work>
    </rdf:RDF>
  </metadata>
  <g
     transform="matrix(0.79999678,0,0,0.79999678,-343.78403,-197.14213)"
     id="layer1">
    <g
       transform="matrix(1.25,0,0,-1.25,417.23214,1731.2714)"
       id="g3473">
      <g
         transform="translate(25.2267,1187.5117)"
         id="g156">
        <path
           d="m 0,0 -9.136,0 c -1.683,0 -3.045,-1.364 -3.045,-3.046 l 2.739,0 0,-8.848 c 0.057,-0.676 1.041,-1.415 3.077,-1.544 1.666,-0.105 3.233,0.52 3.629,1.454 l 0,8.929 c 0.349,-0.032 2.303,-0.538 2.67,-2.432 0.024,-0.104 0.043,-0.214 0.053,-0.333 l 10e-4,0 0,-0.005 C -0.005,-5.91 0,-5.998 0,-6.092 l 0,-9.136 -0.012,0 -2.332,0 -0.396,0 0,1.327 c -0.44,-0.614 -1.224,-1.197 -1.901,-1.327 l -4.496,0 c -1.844,0.095 -2.999,1.328 -3.046,3.046 l 0,9.136 c -1.681,-0.001 -3.044,-1.364 -3.044,-3.046 l 0,-9.136 c 0,-1.682 1.364,-3.046 3.045,-3.046 l 9.137,0 c 1.682,0 3.045,1.364 3.045,3.046 1.682,0 3.046,1.363 3.046,3.046 l 0,9.136 C 3.046,-1.364 1.682,0 0,0"
           id="path158"
           style="fill:#282828;fill-opacity:1;fill-rule:nonzero;stroke:none" />
      </g>
      <g
         transform="translate(153.2563,1184.3839)"
         id="g160">
        <path
           d="m 0,0 c -1.735,-0.052 -2.766,0 -3.618,-1.342 -0.622,1.018 -1.936,1.275 -2.717,1.312 l 0,-12.066 2.778,0.003 -0.029,8.675 c 0.045,0.976 1.649,1.738 3.561,1.616 2.019,-0.127 2.996,-0.859 3.05,-1.529 l 0,-8.774 2.719,0 0,9.058 C 5.513,-0.921 4.672,0.14 0,0"
           id="path162"
           style="fill:#282828;fill-opacity:1;fill-rule:nonzero;stroke:none" />
      </g>
      <g
         transform="translate(70.4286,1184.3662)"
         id="g164">
        <path
           d="m 0,0 c 0.197,-0.394 4.988,-10.032 5.334,-10.599 0.346,-0.568 1.27,-1.371 2.124,-1.493 0.395,-0.058 1.645,-0.114 2.092,0.013 0.104,0.072 3.697,9.417 3.771,9.638 0.073,0.223 0.196,1.332 -1.012,2.392 C 10.683,-4.117 9.228,-8.085 8.243,-10.426 6.567,-7.124 5.054,-3.871 3.708,-1.627 2.894,-0.271 1.687,0 1.439,0 L 0,0 z"
           id="path166"
           style="fill:#282828;fill-opacity:1;fill-rule:nonzero;stroke:none" />
      </g>
      <g
         transform="translate(56.5162,1184.316)"
         id="g168">
        <path
           d="m 0,0 c -1.736,-0.052 -2.767,0 -3.62,-1.341 -0.62,1.018 -1.935,1.274 -2.715,1.311 l 0,-12.067 2.778,0.003 -0.029,8.676 c 0.044,0.976 1.648,1.738 3.561,1.616 2.018,-0.128 2.994,-0.859 3.05,-1.531 l 0,-8.771 2.718,0 0,9.058 C 5.514,-0.921 4.671,0.14 0,0"
           id="path170"
           style="fill:#282828;fill-opacity:1;fill-rule:nonzero;stroke:none" />
      </g>
      <g
         transform="translate(107.8228,1184.316)"
         id="g172">
        <path
           d="m 0,0 c -1.733,-0.052 -2.766,0 -3.619,-1.341 -0.621,1.018 -1.936,1.274 -2.714,1.311 l 0,-12.067 2.776,0.003 -0.029,8.676 c 0.046,0.976 1.649,1.738 3.562,1.616 2.017,-0.128 2.994,-0.859 3.05,-1.531 l 0,-8.771 2.718,0 0,9.058 C 5.515,-0.921 4.671,0.14 0,0"
           id="path174"
           style="fill:#282828;fill-opacity:1;fill-rule:nonzero;stroke:none" />
      </g>
      <g
         transform="translate(68.3325,1185.6088)"
         id="g176">
        <path
           d="m 0,0 c 0,-0.267 -0.215,-0.482 -0.482,-0.482 l -1.752,0 c -0.267,0 -0.483,0.215 -0.483,0.482 l 0,1.751 c 0,0.268 0.216,0.485 0.483,0.485 l 1.752,0 C -0.215,2.236 0,2.019 0,1.751 L 0,0 z"
           id="path178"
           style="fill:#282828;fill-opacity:1;fill-rule:nonzero;stroke:none" />
      </g>
      <g
         transform="translate(120.3196,1184.2202)"
         id="g180">
        <path
           d="m 0,0 0,3.654 -1.017,0 0,-0.674 c 0,-1.669 -1.351,-3.02 -3.019,-3.02 l -0.503,0 0,-1.738 1.842,0 0,-10.23 2.697,0 0,10.196 3.009,0 L 3.009,0 0,0 z"
           id="path182"
           style="fill:#282828;fill-opacity:1;fill-rule:nonzero;stroke:none" />
      </g>
      <g
         transform="translate(140.9698,1175.8353)"
         id="g184">
        <path
           d="m 0,0 c 0,-1.001 -0.812,-1.812 -1.812,-1.812 l -3.018,0 c -1.001,0 -1.814,0.811 -1.814,1.812 l 0,4.831 c 0,1 0.813,1.811 1.814,1.811 l 3.018,0 C -0.812,6.642 0,5.831 0,4.831 L 0,0 z m -0.302,8.453 -6.039,0 c -1.666,0 -3.018,-1.352 -3.018,-3.018 l 0,-6.04 c 0,-1.667 1.352,-3.018 3.018,-3.018 l 6.039,0 c 1.668,0 3.019,1.351 3.019,3.018 l 0,6.04 c 0,1.666 -1.351,3.018 -3.019,3.018"
           id="path186"
           style="fill:#282828;fill-opacity:1;fill-rule:nonzero;stroke:none" />
      </g>
      <g
         transform="translate(90.6182,1182.5966)"
         id="g188">
        <path
           d="M 0,0 3.018,0 C 4.02,0 4.831,-0.81 4.831,-1.812 l 0,-0.952 -6.642,0 0,0.952 C -1.811,-0.81 -1,0 0,0 m 7.456,-4.477 0,0 0.119,0 0,3.201 c 0,1.667 -1.352,3.02 -3.019,3.02 l -6.038,0 C -3.15,1.744 -4.5,0.391 -4.5,-1.276 l 0,-6.037 c 0,-1.668 1.061,-3.216 5.761,-3.129 3.798,0.069 6.15,0.308 6.308,2.913 l -2.847,0 C 4.53,-7.878 3.764,-8.742 1.285,-8.643 c -2.66,0.109 -3.096,1.001 -3.096,2.001 l 0,2.165 9.267,0 z"
           id="path190"
           style="fill:#282828;fill-opacity:1;fill-rule:nonzero;stroke:none" />
      </g>
      <g
         transform="translate(68.3116,1172.2322)"
         id="g192">
        <path
           d="m 0,0 0,9.096 c 0,1.582 -1.18,2.883 -2.696,3.047 L -2.696,0 0,0 z"
           id="path194"
           style="fill:#282828;fill-opacity:1;fill-rule:nonzero;stroke:none" />
      </g>
      <g
         transform="translate(44.0969,1184.3748)"
         id="g196">
        <path
           d="m 0,0 0,-8.853 c -0.154,-0.923 -1.706,-1.625 -3.546,-1.508 -2.018,0.128 -2.994,0.858 -3.049,1.531 l 0,8.771 -2.718,0 0,-9.058 c 0.229,-2.124 1.071,-3.187 5.743,-3.045 1.702,0.05 2.728,0.008 3.57,1.277 l 0,-1.258 2.696,0 0,9.096 C 2.696,-1.465 1.516,-0.164 0,0"
           id="path198"
           style="fill:#282828;fill-opacity:1;fill-rule:nonzero;stroke:none" />
      </g>
      <g
         transform="translate(128.3316,1185.6088)"
         id="g200">
        <path
           d="m 0,0 c 0,-0.267 -0.214,-0.482 -0.482,-0.482 l -1.751,0 c -0.267,0 -0.484,0.215 -0.484,0.482 l 0,1.751 c 0,0.268 0.217,0.485 0.484,0.485 l 1.751,0 C -0.214,2.236 0,2.019 0,1.751 L 0,0 z"
           id="path202"
           style="fill:#282828;fill-opacity:1;fill-rule:nonzero;stroke:none" />
      </g>
      <g
         transform="translate(128.3124,1172.2322)"
         id="g204">
        <path
           d="m 0,0 0,9.096 c 0,1.582 -1.181,2.883 -2.698,3.047 L -2.698,0 0,0 z"
           id="path206"
           style="fill:#282828;fill-opacity:1;fill-rule:nonzero;stroke:none" />
      </g>
    </g>
  </g>
</svg>
