<?xml version="1.0" encoding="utf-8"?>
<!-- Generated by IcoMoon.io -->
<!DOCTYPE svg PUBLIC "-//W3C//DTD SVG 1.1//EN" "http://www.w3.org/Graphics/SVG/1.1/DTD/svg11.dtd">
<svg version="1.1" xmlns="http://www.w3.org/2000/svg" xmlns:xlink="http://www.w3.org/1999/xlink" width="30" height="30" viewBox="0 0 64 64">
<path d="M61.099 12.154c-2.124-0.607-4.338 0.623-4.945 2.747l-0.314 1.099h-37.309l-0.562-4.496c-0.25-2.002-1.952-3.504-3.969-3.504h-10c-2.209 0-4 1.791-4 4s1.791 4 4 4h6.469l3.562 28.496c0.25 2.002 1.952 3.504 3.969 3.504h34c1.786 0 3.355-1.184 3.846-2.901l8-28c0.607-2.124-0.623-4.338-2.747-4.945zM32 32v-4h8v4h-8zM40 36v4h-8v-4h8zM32 24v-4h8v4h-8zM19.031 20h8.969v4h-8.469l-0.5-4zM20.031 28h7.969v4h-7.469l-0.5-4zM21.031 36h6.969v4h-6.469l-0.5-4zM48.983 40h-4.983v-4h6.126l-1.143 4zM51.269 32h-7.269v-4h8.412l-1.143 4zM53.554 24h-9.554v-4h10.697l-1.143 4zM16 58c0-3.314 2.686-6 6-6s6 2.686 6 6c0 3.314-2.686 6-6 6s-6-2.686-6-6zM40 58c0-3.314 2.686-6 6-6s6 2.686 6 6c0 3.314-2.686 6-6 6s-6-2.686-6-6z" fill="#000000"></path>
</svg>
