<svg id="Ebene_1" data-name="Ebene 1" xmlns="http://www.w3.org/2000/svg" viewBox="0 0 47.51 47.7" width="30" height="30"><defs><style>.cls-1{fill:#fff;stroke:#000;stroke-miterlimit:10;stroke-width:0.39px;}</style></defs><title>App-Center-Badge-Detailsseite-sw</title><g id="Ebene_1-2" data-name="Ebene 1"><g id="Detailsseite"><path d="M39.7,0H15.9A7.92,7.92,0,0,0,8,7.9H8a8,8,0,0,0-8,8H0V39.7a8.07,8.07,0,0,0,7.9,8H31.7a7.92,7.92,0,0,0,7.9-7.9h0a7.92,7.92,0,0,0,7.9-7.9h0V8a7.73,7.73,0,0,0-7.8-8h0"/></g></g><polygon class="cls-1" points="32.15 37.18 9.3 33.26 9.3 8.62 32.15 6.9 32.15 37.18"/><polygon class="cls-1" points="38.17 39.37 32.15 38.88 32.15 6.9 38.6 8.02 38.17 39.37"/><polygon class="cls-1" points="14.56 41.65 9.3 39.2 9.3 8.69 15.85 9.11 14.54 10.15 14.56 41.65"/><polygon class="cls-1" points="38.45 39.44 14.56 41.65 14.56 10.15 38.64 8.07 38.45 39.44"/><path d="M34.91,18.48a2.36,2.36,0,0,0-2.32-2.4,3,3,0,0,0-.43,0l-8.25,1.12a3.29,3.29,0,0,0-2.79,3.14,3.35,3.35,0,0,0-2.82,3.18l-.08,8.5a2.38,2.38,0,0,0,2.26,2.49,2.55,2.55,0,0,0,.55,0l8.44-1.25A3.35,3.35,0,0,0,32.24,30,3.3,3.3,0,0,0,35,26.79ZM32.23,30l-2.13.3-.36.05V29.14A3.86,3.86,0,0,1,28,30.63l-4.14.6a2.35,2.35,0,0,1-2.8-2.44l.05-8.4L23.63,20l0,8.14c0,.61.95,1.18,2.82,1,1.53-.13,3-.9,3.3-1.83l0-8.16a2.53,2.53,0,0,1,2.43,1.88,2.43,2.43,0,0,1,0,.3h0a1,1,0,0,1,0,.24L32.21,30Z"/></svg>