<svg id="Ebene_1" data-name="Ebene 1" xmlns="http://www.w3.org/2000/svg" width="30" height="34.1" viewBox="0 0 30 34.1">
  <title>icon-vote-black-v2</title>
  <g>
    <path d="M28.9,4.3H19.3a4.3,4.3,0,0,0-8.6,0H1.1A1.1,1.1,0,0,0,0,5.4H0V33.2a1.1,1.1,0,0,0,1.1,1.1H28.9A1.1,1.1,0,0,0,30,33.2V5.4A1.1,1.1,0,0,0,28.9,4.3ZM15,2.1a2.1,2.1,0,1,1-2.1,2.1A2.1,2.1,0,0,1,15,2.1h0Zm12.9,30H2.1V6.4H6.4V9.6a1.1,1.1,0,0,0,1.1,1.1h15a1.1,1.1,0,0,0,1.1-1.1V6.4h4.3V32.1Z" transform="translate(0 -0.2)"/>
    <path d="M12.9,28.7L6,20.8l2-2,4.9,3.8,9.2-8.1,2,2Z" transform="translate(0 -0.2)"/>
  </g>
</svg>
