<?xml version="1.0" encoding="UTF-8" standalone="no"?>
<!-- Created with Inkscape (http://www.inkscape.org/) -->

<svg
   xmlns:dc="http://purl.org/dc/elements/1.1/"
   xmlns:cc="http://creativecommons.org/ns#"
   xmlns:rdf="http://www.w3.org/1999/02/22-rdf-syntax-ns#"
   xmlns:svg="http://www.w3.org/2000/svg"
   xmlns="http://www.w3.org/2000/svg"
   xmlns:sodipodi="http://sodipodi.sourceforge.net/DTD/sodipodi-0.dtd"
   xmlns:inkscape="http://www.inkscape.org/namespaces/inkscape"
   version="1.1"
   width="20"
   height="20"
   viewBox="0 0 20 20"
   id="svg2"
   xml:space="preserve"
   sodipodi:docname="warning2.svg"
   inkscape:version="0.92.4 (unknown)"><sodipodi:namedview
     pagecolor="#ffffff"
     bordercolor="#666666"
     borderopacity="1"
     objecttolerance="10"
     gridtolerance="10"
     guidetolerance="10"
     inkscape:pageopacity="0"
     inkscape:pageshadow="2"
     inkscape:window-width="1916"
     inkscape:window-height="1005"
     id="namedview1100"
     showgrid="false"
     inkscape:zoom="14.75"
     inkscape:cx="4.9085822"
     inkscape:cy="19.623665"
     inkscape:window-x="0"
     inkscape:window-y="73"
     inkscape:window-maximized="0"
     inkscape:current-layer="svg2" /><metadata
     id="metadata9"><rdf:RDF><cc:Work
         rdf:about=""><dc:format>image/svg+xml</dc:format><dc:type
           rdf:resource="http://purl.org/dc/dcmitype/StillImage" /><dc:title></dc:title></cc:Work></rdf:RDF></metadata><defs
     id="defs7" /><g
     transform="matrix(3.7795276,0,0,3.7795276,-1.3353019e-7,-1102.5197)"
     id="g1682"><path
       sodipodi:nodetypes="cccc"
       id="path1097-3"
       style="fill:#fac800;fill-opacity:1;stroke-width:0.01252275"
       d="m 2.6458338,292.12008 -2.57968802,4.46815 H 5.2255209 Z"
       inkscape:connector-curvature="0" /><path
       inkscape:connector-curvature="0"
       d="m 2.6378176,296.34436 c -0.1110528,0 -0.1980896,-0.0175 -0.2565755,-0.0882 -0.049948,-0.0596 -0.072176,-0.13765 -0.072176,-0.2245 0,-0.0965 0.020013,-0.18238 0.080181,-0.24055 0.061232,-0.0588 0.14614,-0.0802 0.2485701,-0.0802 0.1060495,0 0.1943424,0.0204 0.2565754,0.0802 0.060168,0.0582 0.088208,0.14407 0.088208,0.24055 0,0.10116 -0.029104,0.18461 -0.096234,0.24054 -0.063191,0.0523 -0.1483969,0.0722 -0.2485488,0.0722 z m -0.2164849,-0.87397 -0.00809,-0.0722 -0.056123,-2.08471 -0.00809,-0.0802 h 0.088208 0.4169378 0.080181 v 0.0802 l -0.056123,2.08471 v 0.0722 H 2.7980522 2.4933595 Z"
       id="path744-9"
       style="color:#000000;font-style:normal;font-variant:normal;font-weight:normal;font-stretch:normal;font-size:medium;line-height:normal;font-family:Sans;-inkscape-font-specification:Sans;text-indent:0;text-align:start;text-decoration:none;text-decoration-line:none;letter-spacing:normal;word-spacing:normal;text-transform:none;writing-mode:lr-tb;direction:ltr;baseline-shift:baseline;text-anchor:start;display:inline;overflow:visible;visibility:visible;fill:#ffffff;fill-opacity:1;fill-rule:nonzero;stroke:none;stroke-width:0.13172966;marker:none;enable-background:accumulate" /></g></svg>