<?xml version="1.0" encoding="UTF-8" standalone="no"?>
<!-- Created with Inkscape (http://www.inkscape.org/) -->
<svg id="svg5028" xmlns:rdf="http://www.w3.org/1999/02/22-rdf-syntax-ns#" xmlns="http://www.w3.org/2000/svg" height="70" width="70" version="1.1" xmlns:cc="http://creativecommons.org/ns#" xmlns:dc="http://purl.org/dc/elements/1.1/">
 <metadata id="metadata5033">
  <rdf:RDF>
   <cc:Work rdf:about="">
    <dc:format>image/svg+xml</dc:format>
    <dc:type rdf:resource="http://purl.org/dc/dcmitype/StillImage"/>
    <dc:title/>
   </cc:Work>
  </rdf:RDF>
 </metadata>
 <g id="g1264" transform="matrix(1 0 0 -1 47.216 46.379)">
  <path id="path1266" fill="#fff" d="m-2.5991-0.4721c0.944 2.593-0.393 5.459-2.986 6.403-0.847 0.308-1.722 0.369-2.551 0.226l-2.607 5.591 1.409 3.872c2.247-0.263 4.463 1.031 5.27 3.249 0.944 2.593-0.393 5.46-2.986 6.403-2.592 0.944-5.459-0.393-6.403-2.986-0.807-2.219 0.059-4.635 1.95-5.878l-1.408-3.871-5.604-2.613c-0.545 0.65-1.259 1.172-2.113 1.482-2.593 0.944-5.459-0.393-6.403-2.985-0.944-2.593 0.393-5.46 2.986-6.404 2.592-0.943 5.459 0.394 6.403 2.986 0.347 0.953 0.383 1.943 0.165 2.861l4.929 2.299 2.288-4.908c-0.765-0.563-1.378-1.35-1.728-2.31-0.944-2.592 0.393-5.459 2.986-6.403 2.593-0.943 5.459 0.393 6.403 2.986"/>
 </g>
</svg>
