<svg xmlns="http://www.w3.org/2000/svg" viewBox="0 0 150 150"><defs><style>.a{fill:#fff;}</style></defs><path class="a" d="M122.93772,88.221H98.81a8.13381,8.13381,0,0,0-8.11017,8.11016h7.23157v23.45191c.13517,1.75721,2.771,3.71716,8.11016,4.12268,4.393.27033,8.51568-1.3517,9.597-3.85234V96.26355c.94618.13518,6.015,1.3517,6.96122,6.42055,0,.27034.13517.54067.13517.811v24.8036h-7.164v-3.582a9.538,9.538,0,0,1-5.06886,3.582H98.53963c-4.93369-.27033-7.975-3.582-8.11017-8.11016v-23.925a7.92673,7.92673,0,0,0-7.63708,7.975V128.3663a8.13382,8.13382,0,0,0,8.11017,8.11017H115.0303a8.13381,8.13381,0,0,0,8.11017-8.11017,8.13381,8.13381,0,0,0,8.11016-8.11017V96.26355A8.34239,8.34239,0,0,0,122.93772,88.221Z"/><path class="a" d="M71.99213,57.661v11.17c0,1.3082-.40252,1.57654-1.64363,1.37529-8.31879-1.24111-16.73821-2.38159-25.12408-3.55562-1.50946-.20126-2.04615-.73795-2.04615-2.38159.13417-5.93719.06708-11.90794,0-17.91222,0-1.3082.40252-1.71072,1.71071-1.71072,8.58714.06708,17.0401.06708,25.45952.06708,1.37528,0,1.71072.5367,1.71072,1.77781-.13417,3.75687-.06709,7.44666-.06709,11.17Z"/><path class="a" d="M57.73614,42.56638c-4.22648,0-8.453-.06708-12.67944,0-1.3082,0-1.84489-.26835-1.84489-1.7778.06708-6.07138.06708-12.04212,0-18.04641,0-1.174.40252-1.57654,1.50945-1.7778,8.65423-1.24111,17.30845-2.44868,25.96267-3.75687,1.50946-.20126,1.24111.805,1.24111,1.64363,0,5.367.06709,10.83455,0,16.20151,0,1.97906-.06708,3.95813,0,5.9372.06709,1.24111-.40252,1.57654-1.57654,1.57654-4.15939-.06708-8.38588,0-12.61236,0Z"/><path class="a" d="M29.76086,44.8138h9.45927c1.0063,0,1.44237.33543,1.44237,1.37528V64.83927c0,1.07339-.46961,1.174-1.44237,1.07339q-9.40894-1.40883-18.78436-2.717c-1.24111-.20126-1.64363-.60378-1.64363-1.912.06709-4.96443.06709-9.92887,0-14.99394,0-1.24111.33544-1.57654,1.57655-1.57654,3.18663.10063,6.23909.10063,9.39217.10063Z"/><path class="a" d="M29.76086,42.56638H20.43577c-1.174,0-1.57654-.40252-1.57654-1.64363.06708-4.89735.06708-9.7947,0-14.7256,0-1.174.33543-1.57654,1.57654-1.7778q9.409-1.20758,18.78436-2.717c1.44237-.20127,1.57654.26834,1.57654,1.44237V40.98984c0,1.30819-.53669,1.50945-1.71071,1.50945-3.11955,0-6.27264.06709-9.3251.06709Z"/><path class="a" d="M118.4472,64.5528h-5.94366A24.22891,24.22891,0,0,0,88.31543,41.01758a1.5,1.5,0,0,0,0,3A21.21525,21.21525,0,0,1,109.48657,64.5528h-5.89288c-2.2,0-2.72723,1.27276-1.17157,2.82843l5.7699,5.76989a4.01181,4.01181,0,0,0,5.65686,0l5.76989-5.76989C121.17438,65.82556,120.64716,64.5528,118.4472,64.5528Z"/><path class="a" d="M68.314,106.42871A21.22,21.22,0,0,1,47.346,88.221h5.68982c2.2,0,2.72723-1.27277,1.17157-2.82843l-5.7699-5.7699a4.01183,4.01183,0,0,0-5.65686,0l-5.7699,5.7699c-1.5556,1.55566-1.02844,2.82843,1.17157,2.82843h6.1189A24.236,24.236,0,0,0,68.314,109.42871a1.5,1.5,0,0,0,0-3Z"/></svg>