<?xml version="1.0" encoding="utf-8"?>
<!-- Generator: Adobe Illustrator 22.1.0, SVG Export Plug-In . SVG Version: 6.00 Build 0)  -->
<svg version="1.1"
	 id="svg3851" xmlns:cc="http://creativecommons.org/ns#" xmlns:dc="http://purl.org/dc/elements/1.1/" xmlns:rdf="http://www.w3.org/1999/02/22-rdf-syntax-ns#" xmlns:svg="http://www.w3.org/2000/svg"
	 xmlns="http://www.w3.org/2000/svg" xmlns:xlink="http://www.w3.org/1999/xlink" x="0px" y="0px" viewBox="0 0 186.6 107.5"
	 style="enable-background:new 0 0 186.6 107.5;" xml:space="preserve">
<style type="text/css">
	.st0{fill:#868681;}
	.st1{fill:#7AB51D;}
	.st2{clip-path:url(#SVGID_2_);}
	.st3{clip-path:url(#SVGID_7_);}
	.st4{clip-path:url(#SVGID_8_);}
	.st5{clip-path:url(#SVGID_9_);}
	.st6{clip-path:url(#SVGID_10_);fill:#76B72A;}
	.st7{clip-path:url(#SVGID_10_);fill:#FFFFFF;}
</style>
<path id="path626" class="st0" d="M186.6,74.6l-37.9-37.9H133c-14.3-21.5-40.2-21.3-43.5-6.2c0,0,3.5,0.5,5.5-2.5s9.6-3,15.1-1.2
	c5.1,1.3,10.6,4.5,14.9,9.9h-7.1v30.8l37.9,37.9L186.6,74.6L186.6,74.6z M137.8,56.2c-3.6,3.6-9.7,1.7-10.8-3.2
	c5.3,0.4,8.4-3.2,7.9-7.5C139.6,46.7,141.3,52.7,137.8,56.2 M106.1,50.3L106.1,50.3c2,0.7,4.1,1.2,6.3,1.5v-6.5
	c-1.2-0.2-2.4-0.4-3.6-0.8l0,0l0,0v0.1c0,0.1-0.1,0.2-0.1,0.2c0.1-0.1,0.1-0.2,0.1-0.3c0,0.1-0.1,0.2-0.1,0.3l0,0l0,0
	c-0.2,0.6-0.4,1.2-0.7,1.8l0,0l0,0c0,0.1,0,0.1-0.1,0.1c-0.1,0.3-0.2,0.4,0,0c0,0,0-0.1,0.1-0.1C107.4,48,106.8,49.2,106.1,50.3"/>
<path id="path668" class="st1" d="M110.8,33.4c0-1.3-0.1-2.6-0.2-3.9c0,0,0-0.1-0.1-0.1c-0.1-0.9-0.2-1.8-0.4-2.6
	C104.6,25,97,25,95,28s-5.5,2.5-5.5,2.5c-7.8,1-12.5-8.5-6.9-14.1c3.2-3.2,8.3-3.2,11.6-0.1c3.1-1.4,6.7-2.2,10.5-2.2
	c-0.7-1-1.4-1.9-2.2-2.8c0,0,0-0.1-0.1-0.1c-1.7-1.9-3.5-3.5-5.6-5c-0.1,0-0.1-0.1-0.2-0.1c-0.9-0.7-1.9-1.3-2.9-1.8
	c-0.1,0-0.1-0.1-0.2-0.1c-1-0.5-2-1-3.1-1.5h-0.1c-1.1-0.4-2.1-0.8-3.3-1.2l0,0c-1.1-0.3-2.2-0.6-3.4-0.8h-0.1
	c-1.1-0.2-2.2-0.4-3.3-0.5c-0.1,0-0.2,0-0.3,0C79.2,0,78.3,0,77.4,0c-0.1,0-0.3,0-0.4,0c-0.6,0-1.1,0.1-1.7,0.1s-1.2,0.1-1.8,0.1
	c-0.6,0.1-1.1,0.2-1.7,0.3s-1.1,0.2-1.7,0.3S69,1.1,68.4,1.2c-0.5,0.1-1.1,0.3-1.6,0.5c-0.6,0.2-1.1,0.4-1.7,0.6
	c-0.5,0.2-1,0.4-1.5,0.6c-0.6,0.3-1.1,0.5-1.7,0.8c-0.5,0.2-0.9,0.5-1.4,0.8s-1,0.6-1.5,0.9s-1,0.7-1.5,1.1
	c-0.4,0.3-0.8,0.6-1.3,0.9c-0.8,0.7-1.6,1.3-2.3,2.1c-0.1,0.1-0.2,0.2-0.3,0.2c-0.2,0.2-0.5,0.5-0.7,0.8c-0.5,0.5-1,1.1-1.5,1.7
	c-0.4,0.5-0.7,0.9-1.1,1.4c-0.3,0.4-0.6,0.8-0.9,1.2c-0.3,0.5-0.6,1-1,1.6c-0.2,0.4-0.5,0.8-0.7,1.2c-0.3,0.5-0.5,1.1-0.8,1.6
	c-0.2,0.5-0.4,0.9-0.6,1.4c-0.2,0.5-0.4,1-0.6,1.5c-0.2,0.5-0.4,1-0.5,1.6c-0.2,0.5-0.3,1-0.4,1.5c-0.1,0.5-0.3,1.1-0.4,1.6
	c-0.1,0.6-0.2,1.2-0.3,1.8c-0.1,0.5-0.2,1-0.2,1.5c-0.1,1.1-0.2,2.2-0.2,3.3l0,0l0,0c0,1.1,0.1,2.2,0.2,3.3c0,0.5,0.1,0.9,0.2,1.4
	c0.1,0.6,0.2,1.2,0.3,1.8c0.1,0.5,0.3,1.1,0.4,1.6c0.1,0.5,0.3,1.1,0.4,1.6c0.2,0.5,0.3,1,0.5,1.5s0.4,1.1,0.6,1.6
	c0.2,0.4,0.4,0.9,0.6,1.3c0.3,0.6,0.5,1.1,0.8,1.7c0.2,0.4,0.4,0.7,0.7,1.1c0.3,0.6,0.7,1.1,1,1.7c0.2,0.4,0.5,0.7,0.8,1
	c0.4,0.5,0.8,1.1,1.2,1.6c0.3,0.4,0.7,0.8,1,1.1c0.4,0.4,0.7,0.9,1.1,1.3c0.7,0.7,1.5,1.4,2.3,2.1c0.1,0,0.1,0.1,0.2,0.1
	c6.1,5,13.5,7.5,20.9,7.5c0.1,0,0.2,0,0.2,0h0.1c1,0,1.9-0.1,2.9-0.1c0.3,0,0.5,0,0.8-0.1c0.8-0.1,1.7-0.2,2.5-0.4
	c0.3-0.1,0.6-0.1,1-0.2c0.8-0.2,1.6-0.4,2.4-0.6c0.3-0.1,0.6-0.2,0.9-0.3c0.7-0.2,1.4-0.5,2.1-0.8c0.2-0.1,0.4-0.2,0.7-0.3
	c0.8-0.3,1.6-0.7,2.3-1.1c0.2-0.1,0.3-0.2,0.5-0.2c0.8-0.5,1.6-1,2.4-1.5c0.1-0.1,0.2-0.1,0.3-0.2c0.8-0.6,1.6-1.1,2.4-1.8l0.1-0.1
	c0.7-0.6,1.4-1.2,2.1-1.9c0.1-0.1,0.2-0.2,0.3-0.3c0.6-0.6,1.2-1.3,1.8-1.9c0.2-0.3,0.4-0.5,0.7-0.8c0.3-0.4,0.7-0.9,1-1.4
	c0.4-0.6,0.8-1.2,1.2-1.8c0.1-0.2,0.2-0.4,0.3-0.5l0.1-0.1c0.7-1.2,1.3-2.4,1.9-3.6l0,0c0.3-0.6,0.5-1.2,0.7-1.8l0,0
	c0-0.1,0.1-0.2,0.1-0.2v-0.1c0-0.1,0.1-0.2,0.1-0.3c0.2-0.4,0.3-0.9,0.5-1.3C110.3,39.9,110.8,36.7,110.8,33.4L110.8,33.4
	 M108.8,44.7c0,0-0.1,0.1-0.1,0.3l0,0C108.7,44.9,108.7,44.8,108.8,44.7 M108,46.7L108,46.7C107.8,47.2,107.7,47.4,108,46.7
	 M39.2,49.4L0,88.6v18.9h27.3V96.4h12.3V84.6h11.8l12.2-12.2C52.3,68.5,43.6,60,39.2,49.4"/>
<g>
	<g>
		<g id="Bildmaterial_2_1_">
			<defs>
				
					<rect id="SVGID_1_" x="139.2" y="58.1" transform="matrix(0.7071 -0.7071 0.7071 0.7071 -7.1194 131.8016)" width="32.7" height="32.7"/>
			</defs>
			<clipPath id="SVGID_2_">
				<use xlink:href="#SVGID_1_"  style="overflow:visible;"/>
			</clipPath>
			<g class="st2">
				<g>
					<defs>
						
							<rect id="SVGID_3_" x="139.2" y="58.1" transform="matrix(0.7071 -0.7071 0.7071 0.7071 -7.1194 131.8016)" width="32.7" height="32.7"/>
					</defs>
					<defs>
						
							<rect id="SVGID_4_" x="139.2" y="58.1" transform="matrix(0.7071 -0.7071 0.7071 0.7071 -7.1194 131.8016)" width="32.7" height="32.7"/>
					</defs>
					<defs>
						
							<rect id="SVGID_5_" x="139.2" y="58.1" transform="matrix(0.7071 -0.7071 0.7071 0.7071 -7.1194 131.8016)" width="32.7" height="32.7"/>
					</defs>
					<defs>
						
							<rect id="SVGID_6_" x="139.2" y="58.1" transform="matrix(0.7071 -0.7071 0.7071 0.7071 -7.1194 131.8016)" width="32.7" height="32.7"/>
					</defs>
					<clipPath id="SVGID_7_">
						<use xlink:href="#SVGID_3_"  style="overflow:visible;"/>
					</clipPath>
					<clipPath id="SVGID_8_" class="st3">
						<use xlink:href="#SVGID_4_"  style="overflow:visible;"/>
					</clipPath>
					<clipPath id="SVGID_9_" class="st4">
						<use xlink:href="#SVGID_5_"  style="overflow:visible;"/>
					</clipPath>
					<clipPath id="SVGID_10_" class="st5">
						<use xlink:href="#SVGID_6_"  style="overflow:visible;"/>
					</clipPath>
					<path class="st6" d="M151.7,55.2l-11.6,11.6c-2.1,2.1-2.1,5.6,0,7.7l0,0l0,0c-2.1,2.1-2.1,5.6,0,7.7l11.6,11.6
						c2.1,2.1,5.6,2.1,7.7,0L171,82.2c2.1-2.1,2.1-5.6,0-7.7c2.1-2.1,2.1-5.6,0-7.7l-11.6-11.6C157.3,53.1,153.9,53.1,151.7,55.2"/>
					<path class="st7" d="M152.6,81.4c0.8,0.8,1.2,1.5,1.3,2.2c0.1,0.6-0.1,1.1-0.6,1.6s-1.1,0.7-1.7,0.6c-0.7-0.1-1.4-0.5-2.1-1.3
						l-7-7l-1.4,1.4l6.9,6.9c1.1,1.1,2.3,1.8,3.4,1.9c1.2,0.1,2.3-0.3,3.2-1.3c1.3-1.3,2.3-3.6-0.7-6.6L147,73l-1.4,1.4L152.6,81.4z
						"/>
					<path class="st7" d="M153.1,69.3c0.5-0.5,1-0.8,1.5-0.9l0.5-0.1l-0.5-1.8l-0.5,0.1c-0.8,0.2-1.6,0.7-2.3,1.4
						c-1.2,1.2-1.6,2.6-1.3,4.2s1.3,3.2,2.9,4.8c1.1,1.1,2.2,1.9,3.2,2.4c1.1,0.5,2.2,0.7,3.2,0.6s1.9-0.6,2.7-1.3
						c0.7-0.7,1.1-1.3,1.3-2l0.1-0.3l-1.3-1.3l-0.3,0.7c-0.2,0.5-0.5,1-1,1.5s-1,0.7-1.7,0.8c-0.7,0-1.4-0.1-2.2-0.5
						s-1.7-1.1-2.5-1.9c-1.3-1.3-2.1-2.5-2.4-3.7C152.2,70.8,152.4,70,153.1,69.3"/>
					<path class="st7" d="M165.4,66.2c-0.8-0.1-1.8,0.1-2.9,0.5c-1.2,0.4-1.8,0.5-2.1,0.4c-0.4,0-0.9-0.3-1.3-0.8
						c-0.4-0.4-0.7-0.9-0.7-1.4s0.2-1,0.7-1.4c0.5-0.5,1.1-0.9,1.9-1.2l0.5-0.2l-0.7-1.8l-0.4,0.1c-0.3,0.1-0.7,0.3-1.2,0.6
						s-0.9,0.6-1.3,1.1c-0.5,0.5-0.9,1.1-1.1,1.8c-0.2,0.7-0.2,1.4,0,2c0.2,0.7,0.5,1.3,1.1,1.8c0.5,0.5,1,0.8,1.5,1
						s1.1,0.3,1.7,0.3c0.6,0,1.2-0.2,2.1-0.5c1.2-0.4,1.8-0.5,2.1-0.5c0.5,0.1,0.9,0.3,1.4,0.8s0.7,1,0.8,1.6c0,0.6-0.2,1.1-0.6,1.6
						c-0.3,0.3-0.7,0.7-1.2,0.9c-0.4,0.3-0.8,0.5-1.1,0.6l-0.7,0.2l1.5,1.5l0.3-0.1c0.8-0.3,1.7-0.9,2.6-1.8
						c0.8-0.8,1.3-1.8,1.3-2.9s-0.5-2.1-1.3-3C167,66.7,166.3,66.3,165.4,66.2"/>
				</g>
			</g>
		</g>
	</g>
</g>
</svg>
