<?xml version="1.0" encoding="utf-8"?>
<!-- Generator: Adobe Illustrator 22.1.0, SVG Export Plug-In . SVG Version: 6.00 Build 0)  -->
<svg version="1.1"
	 id="svg5124" xmlns:cc="http://creativecommons.org/ns#" xmlns:dc="http://purl.org/dc/elements/1.1/" xmlns:rdf="http://www.w3.org/1999/02/22-rdf-syntax-ns#" xmlns:svg="http://www.w3.org/2000/svg"
	 xmlns="http://www.w3.org/2000/svg" xmlns:xlink="http://www.w3.org/1999/xlink" x="0px" y="0px" viewBox="0 0 144.4 144.7"
	 style="enable-background:new 0 0 144.4 144.7;" xml:space="preserve">
<style type="text/css">
	.st0{clip-path:url(#SVGID_2_);}
	.st1{clip-path:url(#SVGID_4_);fill:#76B72A;}
	.st2{clip-path:url(#SVGID_4_);fill:#FFFFFF;}
</style>
<g id="Bildmaterial_2_1_">
	<g>
		<defs>
			<rect id="SVGID_1_" x="9" y="9" width="126.8" height="126.8"/>
		</defs>
		<clipPath id="SVGID_2_">
			<use xlink:href="#SVGID_1_"  style="overflow:visible;"/>
		</clipPath>
		<g class="st0">
			<defs>
				<rect id="SVGID_3_" x="9" y="9" width="126.8" height="126.8"/>
			</defs>
			<clipPath id="SVGID_4_">
				<use xlink:href="#SVGID_3_"  style="overflow:visible;"/>
			</clipPath>
			<path class="st1" d="M114.6,9H51.2c-11.7,0-21.1,9.5-21.1,21.1h0v0C18.4,30.2,9,39.6,9,51.3v63.4c0,11.7,9.5,21.1,21.1,21.1h63.4
				c11.7,0,21.1-9.5,21.1-21.1c11.7,0,21.1-9.5,21.1-21.1V30.1C135.8,18.5,126.3,9,114.6,9"/>
			<path class="st2" d="M45.1,83.1c0,4.3-0.8,7.5-2.3,9.6c-1.4,1.9-3.4,2.8-6.1,2.8c-2.8,0-4.9-0.9-6.3-2.9
				c-1.6-2.1-2.4-5.2-2.4-9.4V45h-7.7v37.8c0,6.2,1.4,11.1,4.1,14.5c2.8,3.6,7,5.4,12.3,5.4c7.3,0,16-3.5,16-19.9V45h-7.6V83.1z"/>
			<path class="st2" d="M79.8,51.3c2.5,0,4.8,0.6,6.7,1.7l1.6,0.9l3.7-6.4l-1.6-0.9c-2.9-1.7-6.4-2.5-10.3-2.5
				c-6.4,0-11.4,2.7-15.1,8.1c-3.5,5.2-5.3,12.2-5.3,21.1c0,5.9,0.8,11,2.4,15.4c1.6,4.4,4,7.9,7.1,10.3c3.1,2.4,6.8,3.7,10.9,3.7
				c3.7,0,6.7-0.6,9.1-1.8l1-0.5V93l-2.6,1.2c-1.9,0.9-4.3,1.3-7.1,1.3c-2.5,0-4.7-0.8-6.6-2.5c-2-1.7-3.5-4.2-4.6-7.5
				c-1.1-3.4-1.7-7.5-1.7-12.2c0-7.1,1.2-12.7,3.6-16.6C73.1,53.1,76,51.3,79.8,51.3"/>
			<path class="st2" d="M122,76.4c-2-2.6-5.2-4.8-9.4-6.7c-4.4-2-6.2-3.6-7-4.6c-1-1.3-1.6-3.3-1.6-5.8c0-2.4,0.7-4.3,2.2-5.8
				c1.4-1.4,3.3-2.1,5.7-2.1c2.8,0,5.6,0.6,8.3,1.9l1.7,0.8l3-6.8l-1.6-0.8c-1.2-0.6-2.8-1.1-4.8-1.6c-2-0.5-4.2-0.7-6.6-0.7
				c-2.8,0-5.4,0.6-7.8,1.9c-2.4,1.3-4.3,3.1-5.7,5.5c-1.3,2.3-2,5-2,7.9c0,2.6,0.4,5,1.2,6.9c0.8,2,2.1,3.7,3.8,5.2
				c1.6,1.4,4,2.8,7.2,4.3c4.4,2,6.3,3.6,7.1,4.6c1.1,1.4,1.6,3.3,1.6,5.8c0,2.7-0.8,4.9-2.4,6.6c-1.6,1.7-3.5,2.5-6,2.5
				c-1.9,0-3.8-0.2-5.7-0.6c-1.9-0.4-3.5-0.9-4.7-1.5L95.9,92v8.1l1.1,0.5c3,1.3,7.1,2,12,2c4.6,0,8.5-1.6,11.5-4.6
				c3-3.1,4.5-7.1,4.5-11.9C125.1,82.4,124,79.1,122,76.4"/>
		</g>
	</g>
</g>
</svg>
