/* XPM */
static char * ooo_base_xpm[] = {
"16 16 146 2",
"  	c None",
". 	c #ACC5E4",
"+ 	c #C9D9ED",
"@ 	c #E2EBF5",
"# 	c #E4ECF6",
"$ 	c #D6E2F0",
"% 	c #B6CCE7",
"& 	c #7FA5D6",
"* 	c #86AAD7",
"= 	c #CFDCEE",
"- 	c #EAEEF5",
"; 	c #EBEFF5",
"> 	c #DEE5F0",
", 	c #E4EAF3",
"' 	c #E9EDF5",
") 	c #E1E9F3",
"! 	c #A0BDE0",
"~ 	c #8AACD7",
"{ 	c #D8E1EE",
"] 	c #B1C2DA",
"^ 	c #819EC4",
"/ 	c #8EA9CC",
"( 	c #7D9AC2",
"_ 	c #BECCE0",
": 	c #EDEFF5",
"< 	c #ECEEF5",
"[ 	c #EBEEF4",
"} 	c #E7EBF4",
"| 	c #A5BFE1",
"1 	c #CAD8EB",
"2 	c #E6EBF3",
"3 	c #E5E9F1",
"4 	c #A3B6D0",
"5 	c #DADFE8",
"6 	c #E1E5EE",
"7 	c #E6EAF3",
"8 	c #E5EAF3",
"9 	c #E4E9F2",
"0 	c #E3E8F2",
"a 	c #DDE5F1",
"b 	c #84A8D4",
"c 	c #627386",
"d 	c #73777A",
"e 	c #878C90",
"f 	c #C5C9CF",
"g 	c #9A9EA2",
"h 	c #6D7174",
"i 	c #A5A9AE",
"j 	c #E5E7EF",
"k 	c #EAECF4",
"l 	c #E8EBF3",
"m 	c #E0E4EE",
"n 	c #D7DCEA",
"o 	c #AAC0DF",
"p 	c #B2C7E2",
"q 	c #E0E5EF",
"r 	c #9DA2A8",
"s 	c #373D3F",
"t 	c #70757A",
"u 	c #D6DAE2",
"v 	c #E6E9F2",
"w 	c #DFE3EC",
"x 	c #BFC2C9",
"y 	c #ACB0BA",
"z 	c #B2B7C4",
"A 	c #C7D0E2",
"B 	c #CCD8EA",
"C 	c #B0C5E0",
"D 	c #E5E8F0",
"E 	c #E6E9F1",
"F 	c #DADCE4",
"G 	c #E7E9F1",
"H 	c #E9EBF3",
"I 	c #A9AAAE",
"J 	c #959595",
"K 	c #A9A9A9",
"L 	c #A8A8A8",
"M 	c #9C9C9C",
"N 	c #858585",
"O 	c #A7AAB0",
"P 	c #AEC2DE",
"Q 	c #DEE3EE",
"R 	c #E1E5F0",
"S 	c #E4E7F1",
"T 	c #E5E8F1",
"U 	c #BEC0C8",
"V 	c #8F8F8F",
"W 	c #A5A5A5",
"X 	c #9E9E9E",
"Y 	c #969696",
"Z 	c #8B8B8B",
"` 	c #7D7D7D",
" .	c #6D6D6D",
"..	c #A5BBD9",
"+.	c #E2E4EE",
"@.	c #E3E5EE",
"#.	c #E4E6F0",
"$.	c #E6E7F1",
"%.	c #E5E6F0",
"&.	c #AFB0B8",
"*.	c #898989",
"=.	c #929292",
"-.	c #828282",
";.	c #8E8E8E",
">.	c #717171",
",.	c #D9DEEA",
"'.	c #DADEEB",
").	c #DDE0EC",
"!.	c #E1E3EE",
"~.	c #B2B3BA",
"{.	c #818181",
"].	c #AEAEAE",
"^.	c #ABABAB",
"/.	c #989898",
"(.	c #787878",
"_.	c #6B6B6B",
":.	c #AABDD9",
"<.	c #DBDEEA",
"[.	c #DCDEEA",
"}.	c #E1E2ED",
"|.	c #B5B6BC",
"1.	c #868686",
"2.	c #707070",
"3.	c #B2C3DB",
"4.	c #DBDFEB",
"5.	c #D9DDEA",
"6.	c #DDE1ED",
"7.	c #AFB1B8",
"8.	c #8A8A8A",
"9.	c #838383",
"0.	c #757575",
"a.	c #747474",
"b.	c #88A1C3",
"c.	c #CFD7E7",
"d.	c #E2E5EF",
"e.	c #B2B4BC",
"f.	c #979797",
"g.	c #A2A2A2",
"h.	c #8D8D8D",
"i.	c #7E7E7E",
"j.	c #708CB2",
"k.	c #91A8C7",
"l.	c #5E6670",
"m.	c #A3A3A3",
"n.	c #939393",
"o.	c #626262",
"                                ",
"          . + @ # $ % &         ",
"      * = - ; - > , ' ) !       ",
"    ~ { ] ^ / ( _ : < [ } |     ",
"    1 2 2 3 4 5 6 7 8 9 0 a b   ",
"  c d e f g h i j k k l m n o   ",
"  p q r s t u v v w x y z A B   ",
"  C D E F G H H I J K L M N O   ",
"  P Q m R S T U V W X Y Z `  .  ",
"  ..+.@.#.$.%.&.*.L =.-.-.;.>.  ",
"    Q ,.'.).!.~.{.=.].^./.(._.  ",
"    :.<.[.}.%.|.1.J X J *.` 2.  ",
"      3.4.5.6.7.8.V X Y 9.0.a.  ",
"        b.c.d.e.Z f.g.Y h.i.(.  ",
"            j.k.l.Z K m.n.` o.  ",
"                                "};
