/* XPM */
static char * ooo_web_xpm[] = {
"16 16 152 2",
"  	c None",
". 	c #AAC4E4",
"+ 	c #C5D6EC",
"@ 	c #DAE6F3",
"# 	c #DEE8F4",
"$ 	c #D6E2F0",
"% 	c #B6CCE7",
"& 	c #7FA5D6",
"* 	c #86AAD7",
"= 	c #CADAED",
"- 	c #DFE8F3",
"; 	c #E4EBF4",
"> 	c #D2E0EF",
", 	c #D1DEED",
"' 	c #E4EAF3",
") 	c #E5EBF4",
"! 	c #D9E4F1",
"~ 	c #9FBCE0",
"{ 	c #8AACD7",
"] 	c #CAD9EB",
"^ 	c #ABBED9",
"/ 	c #7697C1",
"( 	c #8CA7CB",
"_ 	c #7897C1",
": 	c #BCCBE0",
"< 	c #E9ECF4",
"[ 	c #D8E3F0",
"} 	c #CADAEC",
"| 	c #C7D9EC",
"1 	c #A2BDE0",
"2 	c #C4D5EA",
"3 	c #C5D7EB",
"4 	c #C4D7EB",
"5 	c #CDDBEC",
"6 	c #A2B5CF",
"7 	c #DADFE8",
"8 	c #E1E5EE",
"9 	c #D4E0EE",
"0 	c #BDD2E8",
"a 	c #BBD0E8",
"b 	c #BAD0E7",
"c 	c #C4D6EA",
"d 	c #84A8D4",
"e 	c #627386",
"f 	c #677077",
"g 	c #727F8B",
"h 	c #AEBBC9",
"i 	c #999DA2",
"j 	c #6D7174",
"k 	c #A5A9AE",
"l 	c #E5E7EF",
"m 	c #D7E1EF",
"n 	c #CEDBEC",
"o 	c #A0BEDE",
"p 	c #82AAD5",
"q 	c #9FB9DC",
"r 	c #B2C6E2",
"s 	c #BDD1E7",
"t 	c #979FA7",
"u 	c #373D3F",
"v 	c #70757A",
"w 	c #D6DAE2",
"x 	c #E6E9F2",
"y 	c #DBE3EF",
"z 	c #AEC8E3",
"A 	c #99BADC",
"B 	c #80A8D3",
"C 	c #7EA6D2",
"D 	c #82A8D3",
"E 	c #AFC7E2",
"F 	c #AEC3DF",
"G 	c #C1D3E8",
"H 	c #D8E0ED",
"I 	c #DADCE4",
"J 	c #E7E9F1",
"K 	c #E9EBF3",
"L 	c #EAEBF4",
"M 	c #C2D3E8",
"N 	c #85ACD5",
"O 	c #729FCF",
"P 	c #8AAED6",
"Q 	c #86ABD4",
"R 	c #D9E0EE",
"S 	c #AEC2DE",
"T 	c #DDE3EE",
"U 	c #CFDAEA",
"V 	c #ACC5E2",
"W 	c #C9D6E9",
"X 	c #E5E8F1",
"Y 	c #E5E7F2",
"Z 	c #C6D3E8",
"` 	c #85AAD4",
" .	c #7BA5D2",
"..	c #74A0CF",
"+.	c #A5BDDC",
"@.	c #D7DFED",
"#.	c #A5BBD9",
"$.	c #E2E4EE",
"%.	c #CCD8E9",
"&.	c #98B9DC",
"*.	c #97B8DC",
"=.	c #B0C6E2",
"-.	c #DEE0EE",
";.	c #E4E4F1",
">.	c #E4E5F1",
",.	c #79A3D1",
"'.	c #D3D9E9",
").	c #C0CEE4",
"!.	c #DEE3EE",
"~.	c #CFD8E8",
"{.	c #89AED6",
"].	c #7FA8D3",
"^.	c #86ADD6",
"/.	c #E0E3EF",
"(.	c #E7E8F2",
"_.	c #E4E6F2",
":.	c #C5D2E8",
"<.	c #76A1D0",
"[.	c #81A8D3",
"}.	c #D5DBEA",
"|.	c #9BB3D5",
"1.	c #AABDD9",
"2.	c #DBDEEA",
"3.	c #B3C6E0",
"4.	c #83ABD5",
"5.	c #AEC5E1",
"6.	c #E8E9F2",
"7.	c #E9EAF3",
"8.	c #CFD9EB",
"9.	c #7DA6D3",
"0.	c #B6C8E1",
"a.	c #C8D3E6",
"b.	c #B2C3DB",
"c.	c #BDCEE4",
"d.	c #87ADD6",
"e.	c #D4DCEB",
"f.	c #E1E4EF",
"g.	c #E2E5F0",
"h.	c #DBE0ED",
"i.	c #A4BEDD",
"j.	c #C9D4E6",
"k.	c #859FC2",
"l.	c #C0CEE3",
"m.	c #E2E5EF",
"n.	c #DFE1ED",
"o.	c #E1E4EE",
"p.	c #E0E4EE",
"q.	c #A8BAD4",
"r.	c #708CB2",
"s.	c #99B0CF",
"t.	c #9AB2D1",
"u.	c #819ABB",
"                                ",
"          . + @ # $ % &         ",
"      * = - ; > , ' ) ! ~       ",
"    { ] ^ / ( _ : < [ } | 1     ",
"    2 3 4 5 6 7 8 9 0 a b c d   ",
"  e f g h i j k l ] m n o p q   ",
"  r s t u v w x y z A B C D E   ",
"  F G H I J K L M N O O P Q R   ",
"  S T U V W X Y Z `  .O ..+.@.  ",
"  #.$.%.&.*.=.-.;.>.r O ,.'.).  ",
"    !.~.{.].^./.(._.:.<.[.}.|.  ",
"    1.2.3.4.5.6.7.6.8.9.0.a.    ",
"      b.c.d.e.f.g./.h.i.j.      ",
"        k.l.m.n.n.o.p.q.        ",
"            r.s.t.u.            ",
"                                "};
