/* XPM */
static char * ooo_calc_xpm[] = {
"16 16 151 2",
"  	c None",
". 	c #ACC5E4",
"+ 	c #C9D9ED",
"@ 	c #E2EBF5",
"# 	c #E4ECF6",
"$ 	c #D6E2F0",
"% 	c #B6CCE7",
"& 	c #7FA5D6",
"* 	c #86AAD7",
"= 	c #CFDCEE",
"- 	c #EAEEF5",
"; 	c #EBEFF5",
"> 	c #DEE5F0",
", 	c #E4EAF3",
"' 	c #E9EDF5",
") 	c #E1E9F3",
"! 	c #A0BDE0",
"~ 	c #8AACD7",
"{ 	c #D8E1EE",
"] 	c #B1C2DA",
"^ 	c #819EC4",
"/ 	c #8EA9CC",
"( 	c #7D9AC2",
"_ 	c #BECCE0",
": 	c #EDEFF5",
"< 	c #ECEEF5",
"[ 	c #EBEEF4",
"} 	c #E7EBF4",
"| 	c #A5BFE1",
"1 	c #CAD8EB",
"2 	c #E6EBF3",
"3 	c #E5E9F1",
"4 	c #A3B6D0",
"5 	c #DADFE8",
"6 	c #E1E5EE",
"7 	c #E6EAF3",
"8 	c #E5EAF3",
"9 	c #E4E9F2",
"0 	c #E3E8F2",
"a 	c #DDE5F1",
"b 	c #84A8D4",
"c 	c #627386",
"d 	c #73777A",
"e 	c #878C90",
"f 	c #C5C9CF",
"g 	c #9A9EA2",
"h 	c #6D7174",
"i 	c #A5A9AE",
"j 	c #E5E7EF",
"k 	c #EAECF4",
"l 	c #E8EBF3",
"m 	c #E0E4EE",
"n 	c #D7DCEA",
"o 	c #AAC0DF",
"p 	c #B2C7E2",
"q 	c #E0E5EF",
"r 	c #9DA2A8",
"s 	c #373D3F",
"t 	c #70757A",
"u 	c #D6DAE2",
"v 	c #E6E9F2",
"w 	c #CCCED3",
"x 	c #C8CACE",
"y 	c #C6C9CD",
"z 	c #BCC0C9",
"A 	c #B9BEC7",
"B 	c #B7BDC6",
"C 	c #BAC2CD",
"D 	c #B0C5E0",
"E 	c #E5E8F0",
"F 	c #E6E9F1",
"G 	c #DADCE4",
"H 	c #E7E9F1",
"I 	c #E9EBF3",
"J 	c #EAEBF4",
"K 	c #B3B4B2",
"L 	c #9F9F9E",
"M 	c #AEC2DE",
"N 	c #DEE3EE",
"O 	c #E1E5F0",
"P 	c #E4E7F1",
"Q 	c #E5E8F1",
"R 	c #E5E7F2",
"S 	c #B4B4B2",
"T 	c #9D9D9C",
"U 	c #B8B8B7",
"V 	c #C0C0BE",
"W 	c #C3C3C1",
"X 	c #BEBFBC",
"Y 	c #A5BBD9",
"Z 	c #E2E4EE",
"` 	c #DCCFD8",
" .	c #CF8E93",
"..	c #D47E82",
"+.	c #D47C7F",
"@.	c #D0858B",
"#.	c #BD9C9A",
"$.	c #C6C6C4",
"%.	c #E1E1DF",
"&.	c #E8E8E6",
"*.	c #EBEBE9",
"=.	c #CDCDCA",
"-.	c #D1A4AB",
";.	c #DD5D5E",
">.	c #F47777",
",.	c #F57878",
"'.	c #F57A7A",
").	c #F57E7E",
"!.	c #E87070",
"~.	c #B25E5D",
"{.	c #D3D3D1",
"].	c #E2E3E0",
"^.	c #CACBC8",
"/.	c #CC4D51",
"(.	c #F35E5E",
"_.	c #F36060",
":.	c #F36363",
"<.	c #E76C6F",
"[.	c #E27177",
"}.	c #E3737A",
"|.	c #DF797E",
"1.	c #D9B0AF",
"2.	c #CECFCC",
"3.	c #CE5250",
"4.	c #F25252",
"5.	c #F14C4C",
"6.	c #EE534E",
"7.	c #84B34F",
"8.	c #729FCF",
"9.	c #73A0CF",
"0.	c #809BBA",
"a.	c #D5A2A0",
"b.	c #CCCDCA",
"c.	c #A52521",
"d.	c #CA726B",
"e.	c #E66B69",
"f.	c #D68A5F",
"g.	c #92DB49",
"h.	c #95AFA5",
"i.	c #6C8AA0",
"j.	c #71494D",
"k.	c #DDD4D2",
"l.	c #CFD0CD",
"m.	c #9B2B24",
"n.	c #974425",
"o.	c #8E5424",
"p.	c #733420",
"q.	c #8B5857",
"r.	c #CCBFBD",
"s.	c #D2D2D0",
"t.	c #BABBB8",
"                                ",
"          . + @ # $ % &         ",
"      * = - ; - > , ' ) !       ",
"    ~ { ] ^ / ( _ : < [ } |     ",
"    1 2 2 3 4 5 6 7 8 9 0 a b   ",
"  c d e f g h i j k k l m n o   ",
"  p q r s t u v w x y z A B C   ",
"  D E F G H I J K L L L L L K   ",
"  M N m O P Q R S T U V W V X   ",
"  Y Z `  ...+.@.#.$.%.&.*.&.=.  ",
"    -.;.>.,.'.).!.~.{.].&.].^.  ",
"    /.(._.:.<.[.}.|.1.&.*.&.2.  ",
"    3.4.5.6.7.8.9.0.a.].&.].b.  ",
"    c.d.e.f.g.h.i.j.k.&.*.&.l.  ",
"        m.n.o.p.q.r.s.s.s.s.t.  ",
"                                "};
