<svg xmlns="http://www.w3.org/2000/svg" viewBox="0 0 150 150"><defs><style>.a{fill:#fff;}</style></defs><path class="a" d="M111.98877,85.56592a20.70972,20.70972,0,1,0,20.70947,20.70947A20.73268,20.73268,0,0,0,111.98877,85.56592Zm0,38.41943a17.70972,17.70972,0,1,1,17.70947-17.71A17.72981,17.72981,0,0,1,111.98877,123.98535Z"/><path class="a" d="M51.29434,33.5151H98.70566V45.36793H51.29434Z"/><path class="a" d="M90.31036,116.48492a23.5191,23.5191,0,0,1-1.91931-5.92645H57.22076V80.92639H92.77924V92.01392a23.66239,23.66239,0,0,1,29.63208-6.883V57.22076a5.92637,5.92637,0,0,0-5.9264-5.92639H33.51514a5.92643,5.92643,0,0,0-5.92646,5.92639V86.85284a5.92643,5.92643,0,0,0,5.92646,5.9264H51.29437v23.70568ZM39.44153,69.07361a5.92643,5.92643,0,1,1,5.92639-5.92645A5.92642,5.92642,0,0,1,39.44153,69.07361Z"/><polygon class="a" points="109.071 94.834 109.071 97.677 119.196 97.677 119.196 111.392 122.411 111.392 122.411 94.834 109.071 94.834"/><path class="a" d="M103.9165,100.67676V116.6416h12.2793V100.67676Zm6.15039,11.22363h-2.66015a.75.75,0,0,1,0-1.5h2.66015a.75.75,0,0,1,0,1.5Zm2.66016-2.41162h-5.32031a.75.75,0,0,1,0-1.5h5.32031a.75.75,0,0,1,0,1.5Zm0-2.41162h-5.32031a.75.75,0,0,1,0-1.5h5.32031a.75.75,0,0,1,0,1.5Zm0-2.41162h-5.32031a.75.75,0,0,1,0-1.5h5.32031a.75.75,0,0,1,0,1.5Z"/></svg>