<svg xmlns="http://www.w3.org/2000/svg" viewBox="0 0 15.44 16"><defs><style>.cls-1{fill:#868681;}</style></defs><title>Element 2611</title><g id="Ebene_2" data-name="Ebene 2"><g id="_1607_Icons" data-name="1607 Icons"><path class="cls-1" d="M14.31,9.54a3.05,3.05,0,0,1,1.13-4.17L13.86,2.65a3,3,0,0,1-1.52.41A3.06,3.06,0,0,1,9.29,0H6.15a3.09,3.09,0,0,1-.41,1.54,3.06,3.06,0,0,1-4.17,1.1L0,5.36A3,3,0,0,1,1.12,6.48,3,3,0,0,1,0,10.64l1.58,2.72A3,3,0,0,1,3.1,13a3.06,3.06,0,0,1,3,3.05H9.28a3,3,0,0,1,.41-1.52,3,3,0,0,1,4.16-1.11l1.58-2.72A3.13,3.13,0,0,1,14.31,9.54Zm-6.59,1.7A3.24,3.24,0,1,1,11,8,3.24,3.24,0,0,1,7.72,11.24Z"/></g></g></svg>