<svg xmlns="http://www.w3.org/2000/svg" viewBox="0 0 150 150"><defs><style>.a{fill:#fff;}</style></defs><path class="a" d="M101.78709,60.0645l7.91415-11.07981-8.67286-8.67285L89.94858,48.226a30.21053,30.21053,0,0,0-6.54062-2.7209L81.14491,32.0772H68.88125L66.64436,45.50509a30.34886,30.34886,0,0,0-6.54062,2.7209l-11.0798-7.91415-8.699,8.67286,7.91415,11.07981a30.21066,30.21066,0,0,0-2.7209,6.54061L32.09028,68.86817V81.13183l13.42789,2.23689a30.21058,30.21058,0,0,0,2.7209,6.5406l-7.91415,11.07981,8.66632,8.67286,11.0798-7.91415a30.40055,30.40055,0,0,0,6.54062,2.7209l2.26959,13.45406H81.14491l2.23689-13.42789a30.485,30.485,0,0,0,6.54061-2.7209l11.07981,7.91415,8.67286-8.67286-7.91415-11.07981a30.5376,30.5376,0,0,0,2.7209-6.54061L117.90972,81.158V68.86817l-13.42789-2.23689A30.21065,30.21065,0,0,0,101.78709,60.0645ZM75.01635,87.26693A12.26366,12.26366,0,1,1,87.28,75.00327h0A12.26365,12.26365,0,0,1,75.01635,87.26693Z"/></svg>