<svg id="SvgjsSvg374561" width="180" height="120" xmlns="http://www.w3.org/2000/svg" version="1.1" xmlns:xlink="http://www.w3.org/1999/xlink" xmlns:svgjs="http://svgjs.com/svgjs" viewBox="740 320 180 120"><defs id="SvgjsDefs374562"></defs><svg id="SvgjsSvg374563" width="180" height="120" xmlns="http://www.w3.org/2000/svg" version="1.1" xmlns:xlink="http://www.w3.org/1999/xlink" xmlns:svgjs="http://svgjs.com/svgjs" viewBox="0 0 180 120" fill="#ffffff" opacity="1" x="740" y="320"><defs id="SvgjsDefs374564"></defs><svg version="1.1" xmlns="http://www.w3.org/2000/svg" xmlns:xlink="http://www.w3.org/1999/xlink" width="180" height="120"><g><path fill="#ffffff" stroke="none" paint-order="stroke fill markers" fill-rule="evenodd" d=" M 4.999963998794556 -0.000030517578125 C 4.999963998794556 -0.000030517578125 174.99982023239136 -0.000030517578125 174.99982023239136 -0.000030517578125 C 177.76493430137634 -0.000030517578125 179.99992299079895 2.234954833984375 179.99992299079895 4.9999847412109375 C 179.99992299079895 4.9999847412109375 179.99992299079895 115 179.99992299079895 115 C 179.99992299079895 117.76498413085938 177.76493430137634 119.99996948242188 174.99982023239136 119.99996948242188 C 174.99982023239136 119.99996948242188 4.999963998794556 119.99996948242188 4.999963998794556 119.99996948242188 C 2.2348499298095703 119.99996948242188 -0.00013875961303710938 117.76498413085938 -0.00013875961303710938 115 C -0.00013875961303710938 115 -0.00013875961303710938 4.9999847412109375 -0.00013875961303710938 4.9999847412109375 C -0.00013875961303710938 2.234954833984375 2.2348499298095703 -0.000030517578125 4.999963998794556 -0.000030517578125 Z"></path></g></svg></svg><svg id="SvgjsSvg374567" width="180" height="20" xmlns="http://www.w3.org/2000/svg" version="1.1" xmlns:xlink="http://www.w3.org/1999/xlink" xmlns:svgjs="http://svgjs.com/svgjs" viewBox="0 0 180 20" fill="#bdbdbb" opacity="1" x="740" y="320"><defs id="SvgjsDefs374568"></defs><svg version="1.1" xmlns="http://www.w3.org/2000/svg" xmlns:xlink="http://www.w3.org/1999/xlink" width="180" height="20"><g><path fill="#bdbdbb" stroke="none" paint-order="stroke fill markers" fill-rule="evenodd" d=" M 4.999963998794556 -0.000030517578125 C 4.999963998794556 -0.000030517578125 174.99982023239136 -0.000030517578125 174.99982023239136 -0.000030517578125 C 177.76493430137634 -0.000030517578125 179.99992299079895 2.234954833984375 179.99992299079895 4.9999847412109375 C 179.99992299079895 4.9999847412109375 179.99992299079895 19.999984741210938 179.99992299079895 19.999984741210938 C 179.99992299079895 19.999984741210938 179.99992299079895 19.999984741210938 179.99992299079895 19.999984741210938 C 179.99992299079895 19.999984741210938 -0.00013875961303710938 19.999984741210938 -0.00013875961303710938 19.999984741210938 C -0.00013875961303710938 19.999984741210938 -0.00013875961303710938 19.999984741210938 -0.00013875961303710938 19.999984741210938 C -0.00013875961303710938 19.999984741210938 -0.00013875961303710938 4.9999847412109375 -0.00013875961303710938 4.9999847412109375 C -0.00013875961303710938 2.234954833984375 2.2348499298095703 -0.000030517578125 4.999963998794556 -0.000030517578125 Z"></path></g></svg></svg><svg id="SvgjsSvg374571" width="61" height="60" xmlns="http://www.w3.org/2000/svg" version="1.1" xmlns:xlink="http://www.w3.org/1999/xlink" xmlns:svgjs="http://svgjs.com/svgjs" viewBox="799 360 61 60" x="799" y="360"><defs id="SvgjsDefs374572"></defs><svg id="SvgjsSvg374573" width="61" height="60" xmlns="http://www.w3.org/2000/svg" version="1.1" xmlns:xlink="http://www.w3.org/1999/xlink" xmlns:svgjs="http://svgjs.com/svgjs" viewBox="799 360 61 60" x="799" y="360"><defs id="SvgjsDefs374574"></defs><svg id="SvgjsSvg374575" width="61" height="60" xmlns="http://www.w3.org/2000/svg" version="1.1" xmlns:xlink="http://www.w3.org/1999/xlink" xmlns:svgjs="http://svgjs.com/svgjs" viewBox="0 0 61 60" fill="#7ab51d" opacity="1" x="799" y="360"><defs id="SvgjsDefs374576"></defs><svg version="1.1" xmlns="http://www.w3.org/2000/svg" xmlns:xlink="http://www.w3.org/1999/xlink" width="61" height="60"><g><path fill="#7ab51d" stroke="none" paint-order="stroke fill markers" fill-rule="evenodd" d=" M 50.99982452392578 0 C 50.99982452392578 0 20.99978232383728 0 20.99978232383728 0 C 15.486593246459961 0 10.999768257141113 4.4867706298828125 10.999768257141113 9.999984741210938 C 10.999768257141113 9.999984741210938 10.999768257141113 9.999984741210938 10.999768257141113 9.999984741210938 C 10.999768257141113 9.999984741210938 10.999768257141113 9.999984741210938 10.999768257141113 9.999984741210938 C 5.486579179763794 9.999984741210938 0.9997541904449463 14.486801147460938 0.9997541904449463 19.999969482421875 C 0.9997541904449463 19.999969482421875 0.9997541904449463 49.999969482421875 0.9997541904449463 49.999969482421875 C 0.9997541904449463 55.51318359375 5.486579179763794 59.99995422363281 10.999768257141113 59.99995422363281 C 10.999768257141113 59.99995422363281 40.999810457229614 59.99995422363281 40.999810457229614 59.99995422363281 C 46.512999534606934 59.99995422363281 50.99982452392578 55.51318359375 50.99982452392578 49.999969482421875 C 56.5130136013031 49.999969482421875 60.99983859062195 45.513153076171875 60.99983859062195 39.99998474121094 C 60.99983859062195 39.99998474121094 60.99983859062195 9.999984741210938 60.99983859062195 9.999984741210938 C 60.99983859062195 4.4574737548828125 56.5130136013031 0 50.99982452392578 0 Z"></path></g></svg></svg></svg><svg id="SvgjsSvg374579" width="15" height="29" xmlns="http://www.w3.org/2000/svg" version="1.1" xmlns:xlink="http://www.w3.org/1999/xlink" xmlns:svgjs="http://svgjs.com/svgjs" viewBox="0 0 15 29" fill="#ffffff" opacity="1" x="841" y="376"><defs id="SvgjsDefs374580"></defs><svg version="1.1" xmlns="http://www.w3.org/2000/svg" xmlns:xlink="http://www.w3.org/1999/xlink" width="15" height="29"><g><path fill="#ffffff" stroke="none" paint-order="stroke fill markers" fill-rule="evenodd" d=" M 12.460285425186157 15.906173706054688 C 11.521796941757202 14.674514770507812 10.026188611984253 13.6187744140625 8.032044172286987 12.738998413085938 C 5.950024127960205 11.771240234375 5.070119380950928 11.0087890625 4.718234062194824 10.568923950195312 C 4.219889402389526 9.953048706054688 3.9851715564727783 9.014633178710938 3.9851715564727783 7.81231689453125 C 3.9851715564727783 6.6685943603515625 4.307765007019043 5.759521484375 5.01153564453125 5.085052490234375 C 5.686014413833618 4.4105377197265625 6.595211029052734 4.0879974365234375 7.709450721740723 4.0879974365234375 C 9.02911639213562 4.0879974365234375 10.348782062530518 4.3812408447265625 11.609863996505737 4.9970703125 C 11.609863996505737 4.9970703125 12.430993556976318 5.3782958984375 12.430993556976318 5.3782958984375 C 12.430993556976318 5.3782958984375 13.867826700210571 2.1524810791015625 13.867826700210571 2.1524810791015625 C 13.867826700210571 2.1524810791015625 13.105472326278687 1.7712554931640625 13.105472326278687 1.7712554931640625 C 12.548161029815674 1.4780120849609375 11.785806655883789 1.243408203125 10.847318172454834 1.0088043212890625 C 9.908829689025879 0.7741546630859375 8.853173732757568 0.6568756103515625 7.709450721740723 0.6568756103515625 C 6.389785051345825 0.6568756103515625 5.128894567489624 0.9501190185546875 4.014463424682617 1.5659942626953125 C 2.8707404136657715 2.18182373046875 1.9617352485656738 3.032257080078125 1.3458402156829834 4.146636962890625 C 0.7006533145904541 5.2316741943359375 0.4075431823730469 6.49267578125 0.4075431823730469 7.900299072265625 C 0.4075431823730469 9.161300659179688 0.6127777099609375 10.246337890625 0.9939548969268799 11.155410766601562 C 1.3753235340118408 12.093826293945312 1.9910271167755127 12.914962768554688 2.8121566772460938 13.6187744140625 C 3.603994369506836 14.293243408203125 4.718234062194824 14.967758178710938 6.243134260177612 15.671524047851562 C 8.325345754623413 16.609939575195312 9.23435091972351 17.3724365234375 9.615719556808472 17.870986938476562 C 10.143547534942627 18.516159057617188 10.378073930740356 19.454574584960938 10.378073930740356 20.627548217773438 C 10.378073930740356 21.917892456054688 9.996896743774414 22.944290161132812 9.263834238052368 23.736083984375 C 8.530580282211304 24.527877807617188 7.592283248901367 24.909103393554688 6.419268369674683 24.909103393554688 C 5.539363622665405 24.909103393554688 4.630358457565308 24.821121215820312 3.7211618423461914 24.645156860351562 C 2.8414485454559326 24.469192504882812 2.0789027214050293 24.234588623046875 1.4924910068511963 23.94134521484375 C 1.4924910068511963 23.94134521484375 0.2021172046661377 23.296218872070312 0.2021172046661377 23.296218872070312 C 0.2021172046661377 23.296218872070312 0.2021172046661377 27.137863159179688 0.2021172046661377 27.137863159179688 C 0.2021172046661377 27.137863159179688 0.729945182800293 27.372421264648438 0.729945182800293 27.372421264648438 C 2.1669697761535645 28.017593383789062 4.0732386112213135 28.340179443359375 6.419268369674683 28.340179443359375 C 8.58935546875 28.340179443359375 10.436849117279053 27.607070922851562 11.873682260513306 26.140762329101562 C 13.310706853866577 24.703842163085938 14.014477491378784 22.79766845703125 14.014477491378784 20.510269165039062 C 13.955893754959106 18.69207763671875 13.45735764503479 17.167129516601562 12.460285425186157 15.906173706054688 Z"></path></g></svg></svg><svg id="SvgjsSvg374583" width="17" height="29" xmlns="http://www.w3.org/2000/svg" version="1.1" xmlns:xlink="http://www.w3.org/1999/xlink" xmlns:svgjs="http://svgjs.com/svgjs" viewBox="0 0 17 29" fill="#ffffff" opacity="1" x="823" y="376"><defs id="SvgjsDefs374584"></defs><svg version="1.1" xmlns="http://www.w3.org/2000/svg" xmlns:xlink="http://www.w3.org/1999/xlink" width="17" height="29"><g><path fill="#ffffff" stroke="none" paint-order="stroke fill markers" fill-rule="evenodd" d=" M 10.518841028213501 3.999969482421875 C 11.691855907440186 3.999969482421875 12.776995182037354 4.263916015625 13.686000347137451 4.82110595703125 C 13.686000347137451 4.82110595703125 14.448546171188354 5.2609710693359375 14.448546171188354 5.2609710693359375 C 14.448546171188354 5.2609710693359375 16.178680896759033 2.2404632568359375 16.178680896759033 2.2404632568359375 C 16.178680896759033 2.2404632568359375 15.416326522827148 1.8005523681640625 15.416326522827148 1.8005523681640625 C 14.037885665893555 1.008758544921875 12.395817995071411 0.627532958984375 10.548324346542358 0.627532958984375 C 7.527815818786621 0.627532958984375 5.123010873794556 1.917877197265625 3.392876148223877 4.46917724609375 C 1.721325159072876 6.9031982421875 0.8707122802734375 10.275634765625 0.8707122802734375 14.439865112304688 C 0.8707122802734375 17.22576904296875 1.2520809173583984 19.6597900390625 2.014435291290283 21.71258544921875 C 2.7769811153411865 23.824020385742188 3.9207041263580322 25.46624755859375 5.357537269592285 26.58062744140625 C 6.8238537311553955 27.72430419921875 8.554179906845093 28.310836791992188 10.518841028213501 28.310836791992188 C 12.249167203903198 28.310836791992188 13.715483665466309 28.017547607421875 14.800431489944458 27.431060791015625 C 14.800431489944458 27.431060791015625 15.269675731658936 27.196456909179688 15.269675731658936 27.196456909179688 C 15.269675731658936 27.196456909179688 15.269675731658936 23.736038208007812 15.269675731658936 23.736038208007812 C 15.269675731658936 23.736038208007812 14.008593797683716 24.293228149414062 14.008593797683716 24.293228149414062 C 13.099588632583618 24.70379638671875 11.955865621566772 24.9090576171875 10.665491819381714 24.9090576171875 C 9.46318507194519 24.9090576171875 8.436820983886719 24.52783203125 7.55710768699646 23.736038208007812 C 6.618619203567505 22.914947509765625 5.885556697845459 21.74188232421875 5.387020587921143 20.187637329101562 C 4.859001159667969 18.574752807617188 4.5658910274505615 16.6392822265625 4.5658910274505615 14.439865112304688 C 4.5658910274505615 11.067428588867188 5.1523027420043945 8.4281005859375 6.29602575302124 6.5806121826171875 C 7.351681709289551 4.85040283203125 8.730122566223145 3.999969482421875 10.518841028213501 3.999969482421875 Z"></path></g></svg></svg><svg id="SvgjsSvg374587" width="16" height="28" xmlns="http://www.w3.org/2000/svg" version="1.1" xmlns:xlink="http://www.w3.org/1999/xlink" xmlns:svgjs="http://svgjs.com/svgjs" viewBox="0 0 16 28" fill="#ffffff" opacity="1" x="805" y="377"><defs id="SvgjsDefs374588"></defs><svg version="1.1" xmlns="http://www.w3.org/2000/svg" xmlns:xlink="http://www.w3.org/1999/xlink" width="16" height="28"><g><path fill="#ffffff" stroke="none" paint-order="stroke fill markers" fill-rule="evenodd" d=" M 12.096632719039917 18.043960571289062 C 12.096632719039917 20.067413330078125 11.744747400283813 21.592315673828125 11.040976762771606 22.58941650390625 C 10.395789861679077 23.498489379882812 9.428009510040283 23.9383544921875 8.137635707855225 23.9383544921875 C 6.817970037460327 23.9383544921875 5.820897817611694 23.498489379882812 5.146419048309326 22.560073852539062 C 4.41335654258728 21.592315673828125 4.032179355621338 20.067413330078125 4.032179355621338 18.10260009765625 C 4.032179355621338 18.10260009765625 4.032179355621338 0.008758544921875 4.032179355621338 0.008758544921875 C 4.032179355621338 0.008758544921875 0.39577579498291016 0.008758544921875 0.39577579498291016 0.008758544921875 C 0.39577579498291016 0.008758544921875 0.39577579498291016 17.8973388671875 0.39577579498291016 17.8973388671875 C 0.39577579498291016 20.829864501953125 1.0409626960754395 23.146560668945312 2.360628366470337 24.759490966796875 C 3.7095859050750732 26.431015014648438 5.644955158233643 27.310791015625 8.166927576065063 27.310791015625 C 11.62738847732544 27.310791015625 15.762328147888184 25.668563842773438 15.762328147888184 17.8973388671875 C 15.762328147888184 17.8973388671875 15.762328147888184 0.008758544921875 15.762328147888184 0.008758544921875 C 15.762328147888184 0.008758544921875 12.096632719039917 0.008758544921875 12.096632719039917 0.008758544921875 C 12.096632719039917 0.008758544921875 12.096632719039917 18.043960571289062 12.096632719039917 18.043960571289062 Z"></path></g></svg></svg></svg><svg id="SvgjsSvg374591" width="143" height="10" xmlns="http://www.w3.org/2000/svg" version="1.1" xmlns:xlink="http://www.w3.org/1999/xlink" xmlns:svgjs="http://svgjs.com/svgjs" viewBox="0 0 143 10" fill="#ffffff" opacity="1" x="772" y="325"><defs id="SvgjsDefs374592"></defs><svg version="1.1" xmlns="http://www.w3.org/2000/svg" xmlns:xlink="http://www.w3.org/1999/xlink" width="143" height="10"><g><path fill="#ffffff" stroke="none" paint-order="stroke fill markers" fill-rule="evenodd" d=" M 2.499938488006592 -0.0000152587890625 C 2.499938488006592 -0.0000152587890625 140.49986457824707 -0.0000152587890625 140.49986457824707 -0.0000152587890625 C 141.88232588768005 -0.0000152587890625 142.99982023239136 1.1174774169921875 142.99982023239136 2.499969482421875 C 142.99982023239136 2.499969482421875 142.99982023239136 7.4999847412109375 142.99982023239136 7.4999847412109375 C 142.99982023239136 8.882476806640625 141.88232588768005 9.999969482421875 140.49986457824707 9.999969482421875 C 140.49986457824707 9.999969482421875 2.499938488006592 9.999969482421875 2.499938488006592 9.999969482421875 C 1.1174771785736084 9.999969482421875 -0.0000171661376953125 8.882476806640625 -0.0000171661376953125 7.4999847412109375 C -0.0000171661376953125 7.4999847412109375 -0.0000171661376953125 2.499969482421875 -0.0000171661376953125 2.499969482421875 C -0.0000171661376953125 1.1174774169921875 1.1174771785736084 -0.0000152587890625 2.499938488006592 -0.0000152587890625 Z"></path></g></svg></svg><svg id="SvgjsSvg374595" width="10" height="10" xmlns="http://www.w3.org/2000/svg" version="1.1" xmlns:xlink="http://www.w3.org/1999/xlink" xmlns:svgjs="http://svgjs.com/svgjs" viewBox="0 0 10 10" fill="#eeeeee" opacity="1" x="745" y="325"><defs id="SvgjsDefs374596"></defs><svg version="1.1" xmlns="http://www.w3.org/2000/svg" xmlns:xlink="http://www.w3.org/1999/xlink" width="10" height="10"><g><path fill="#eeeeee" stroke="none" paint-order="stroke fill markers" fill-rule="evenodd" d=" M 2.4999196529388428 -0.0000152587890625 C 2.4999196529388428 -0.0000152587890625 9.999978065490723 -0.0000152587890625 9.999978065490723 -0.0000152587890625 C 9.999978065490723 -0.0000152587890625 9.999978065490723 -0.0000152587890625 9.999978065490723 -0.0000152587890625 C 9.999978065490723 -0.0000152587890625 9.999978065490723 9.999969482421875 9.999978065490723 9.999969482421875 C 9.999978065490723 9.999969482421875 9.999978065490723 9.999969482421875 9.999978065490723 9.999969482421875 C 9.999978065490723 9.999969482421875 2.4999196529388428 9.999969482421875 2.4999196529388428 9.999969482421875 C 1.1174583435058594 9.999969482421875 -0.00003600120544433594 8.882476806640625 -0.00003600120544433594 7.4999847412109375 C -0.00003600120544433594 7.4999847412109375 -0.00003600120544433594 2.499969482421875 -0.00003600120544433594 2.499969482421875 C -0.00003600120544433594 1.1174774169921875 1.1174583435058594 -0.0000152587890625 2.4999196529388428 -0.0000152587890625 Z"></path></g></svg></svg><svg id="SvgjsSvg374599" width="10" height="10" xmlns="http://www.w3.org/2000/svg" version="1.1" xmlns:xlink="http://www.w3.org/1999/xlink" xmlns:svgjs="http://svgjs.com/svgjs" viewBox="0 0 10 10" fill="#eeeeee" opacity="1" x="757" y="325"><defs id="SvgjsDefs374600"></defs><svg version="1.1" xmlns="http://www.w3.org/2000/svg" xmlns:xlink="http://www.w3.org/1999/xlink" width="10" height="10"><g><path fill="#eeeeee" stroke="none" paint-order="stroke fill markers" fill-rule="evenodd" d=" M -0.00013399124145507812 -0.0000152587890625 C -0.00013399124145507812 -0.0000152587890625 7.499924421310425 -0.0000152587890625 7.499924421310425 -0.0000152587890625 C 8.882385730743408 -0.0000152587890625 9.999880075454712 1.1174774169921875 9.999880075454712 2.499969482421875 C 9.999880075454712 2.499969482421875 9.999880075454712 7.4999847412109375 9.999880075454712 7.4999847412109375 C 9.999880075454712 8.882476806640625 8.882385730743408 9.999969482421875 7.499924421310425 9.999969482421875 C 7.499924421310425 9.999969482421875 -0.00013399124145507812 9.999969482421875 -0.00013399124145507812 9.999969482421875 C -0.00013399124145507812 9.999969482421875 -0.00013399124145507812 9.999969482421875 -0.00013399124145507812 9.999969482421875 C -0.00013399124145507812 9.999969482421875 -0.00013399124145507812 -0.0000152587890625 -0.00013399124145507812 -0.0000152587890625 C -0.00013399124145507812 -0.0000152587890625 -0.00013399124145507812 -0.0000152587890625 -0.00013399124145507812 -0.0000152587890625 Z"></path></g></svg></svg></svg>