/* XPM */
static char * ooo_base_xpm[] = {
"32 32 428 2",
"  	c None",
". 	c #5889C8",
"+ 	c #5587C8",
"@ 	c #5285C7",
"# 	c #5788C8",
"$ 	c #83A8D6",
"% 	c #93B5DD",
"& 	c #BDD1EA",
"* 	c #D3E1F1",
"= 	c #D8E6F5",
"- 	c #DAE7F6",
"; 	c #D8E5F4",
"> 	c #CDDDEF",
", 	c #B5CBE7",
"' 	c #84AAD8",
") 	c #8BAED9",
"! 	c #7EA4D5",
"~ 	c #B3CBE8",
"{ 	c #D9E3F1",
"] 	c #E9EFF6",
"^ 	c #EBEFF6",
"/ 	c #EEF1F6",
"( 	c #F0F2F7",
"_ 	c #F1F3F7",
": 	c #EFF2F7",
"< 	c #EDF0F6",
"[ 	c #EAEEF6",
"} 	c #E6ECF5",
"| 	c #D1DEEF",
"1 	c #9FBDE2",
"2 	c #6D98CF",
"3 	c #6B97CF",
"4 	c #ACC6E5",
"5 	c #DCE6F3",
"6 	c #E8EDF5",
"7 	c #ECEFF6",
"8 	c #EBEFF5",
"9 	c #EAEFF5",
"0 	c #EAEEF5",
"a 	c #E1E9F3",
"b 	c #D7E4F2",
"c 	c #89ADDA",
"d 	c #6492CC",
"e 	c #729BD0",
"f 	c #B0C8E5",
"g 	c #D1DDED",
"h 	c #E4EAF2",
"i 	c #E9EEF5",
"j 	c #E9EDF4",
"k 	c #DFE5F0",
"l 	c #C4D1E4",
"m 	c #D6DEEC",
"n 	c #E8ECF4",
"o 	c #E7ECF4",
"p 	c #E5EAF3",
"q 	c #D1DFF0",
"r 	c #A6C2E2",
"s 	c #6D97CE",
"t 	c #C8D9EC",
"u 	c #C3D1E4",
"v 	c #93ACCE",
"w 	c #678AB9",
"x 	c #6A8DBB",
"y 	c #99B0D0",
"z 	c #CCD6E6",
"A 	c #D0DAE8",
"B 	c #A2B7D4",
"C 	c #6C8EBC",
"D 	c #7293BF",
"E 	c #BACADF",
"F 	c #EDF0F5",
"G 	c #EDEFF5",
"H 	c #ECEFF5",
"I 	c #ECEEF5",
"J 	c #ECEEF4",
"K 	c #EBEEF4",
"L 	c #DFE7F3",
"M 	c #A9C2E3",
"N 	c #6591CC",
"O 	c #AEC6E4",
"P 	c #DFE4EE",
"Q 	c #A9BAD3",
"R 	c #597FB1",
"S 	c #4C77AF",
"T 	c #517BB1",
"U 	c #4B75AC",
"V 	c #9AAFCC",
"W 	c #E1E5EE",
"X 	c #EBEEF5",
"Y 	c #EBEDF4",
"Z 	c #E9ECF3",
"` 	c #DBE4F2",
" .	c #90B0D9",
"..	c #97B5DB",
"+.	c #DDE5F1",
"@.	c #E6EBF3",
"#.	c #E7EBF3",
"$.	c #DFE3EC",
"%.	c #7C98BE",
"&.	c #6788B3",
"*.	c #CAD2DF",
"=.	c #E5E9F2",
"-.	c #E6EAF3",
";.	c #E4E9F2",
">.	c #E3E8F2",
",.	c #E2E8F2",
"'.	c #E1E7F1",
").	c #D8E3F2",
"!.	c #729ACE",
"~.	c #5887C4",
"{.	c #D2DFEF",
"].	c #E5EAF2",
"^.	c #E6EAF2",
"/.	c #D9E0EA",
"(.	c #D2D9E4",
"_.	c #E3E7EF",
":.	c #D5D9E2",
"<.	c #D3D8E0",
"[.	c #E3E8F0",
"}.	c #E5E9F3",
"|.	c #E2E7F1",
"1.	c #DDE4F0",
"2.	c #A6C1E1",
"3.	c #323D47",
"4.	c #4B5662",
"5.	c #5E6467",
"6.	c #828588",
"7.	c #B9BBBF",
"8.	c #D6D9DE",
"9.	c #EAEDF3",
"0.	c #E4E7ED",
"a.	c #CBCDD2",
"b.	c #9B9EA2",
"c.	c #6D7174",
"d.	c #5B6165",
"e.	c #878D92",
"f.	c #D6D9E0",
"g.	c #EAECF4",
"h.	c #E9EBF3",
"i.	c #E7EAF2",
"j.	c #E2E6F0",
"k.	c #DCE1ED",
"l.	c #D8DDEA",
"m.	c #CEDAED",
"n.	c #749BCD",
"o.	c #9FB2C9",
"p.	c #9A9CA0",
"q.	c #515658",
"r.	c #393F42",
"s.	c #555B5F",
"t.	c #90969A",
"u.	c #B0B4BA",
"v.	c #6E7378",
"w.	c #494F53",
"x.	c #373C3F",
"y.	c #74777B",
"z.	c #CBCDD3",
"A.	c #E8EAF1",
"B.	c #E6E8F2",
"C.	c #DFE2ED",
"D.	c #D9DDEB",
"E.	c #D4D9E8",
"F.	c #D3D9E8",
"G.	c #D7DFEC",
"H.	c #8EAED6",
"I.	c #8FADD6",
"J.	c #D3DEEE",
"K.	c #DDE2EB",
"L.	c #8E9297",
"M.	c #4C5153",
"N.	c #2E3436",
"O.	c #32383A",
"P.	c #555A5D",
"Q.	c #B3B7BD",
"R.	c #DEE1EA",
"S.	c #E6E9F2",
"T.	c #E4E8F2",
"U.	c #E1E6F0",
"V.	c #D6DCEC",
"W.	c #CFD7E8",
"X.	c #CCD5E7",
"Y.	c #CCD4E6",
"Z.	c #CAD3E6",
"`.	c #C9D2E6",
" +	c #CCD6E8",
".+	c #C4D4E9",
"++	c #7CA0CE",
"@+	c #E1E6EF",
"#+	c #DEE3EC",
"$+	c #BDC3CC",
"%+	c #51565A",
"&+	c #2F3537",
"*+	c #787D83",
"=+	c #C1C5CD",
"-+	c #E2E6EE",
";+	c #E4E7F1",
">+	c #CFD2DA",
",+	c #A6A7AD",
"'+	c #909196",
")+	c #86868B",
"!+	c #8F9095",
"~+	c #A1A4AD",
"{+	c #BFC6D6",
"]+	c #CBD3E6",
"^+	c #CBD4E6",
"/+	c #D5E0EF",
"(+	c #4D7DBC",
"_+	c #7B9FCD",
":+	c #E5E8F0",
"<+	c #E6E8F1",
"[+	c #E6E9F1",
"}+	c #E7E9F1",
"|+	c #D9DCE3",
"1+	c #C0C3CA",
"2+	c #E5E7EF",
"3+	c #E9EAF3",
"4+	c #EAEBF4",
"5+	c #E0E2E9",
"6+	c #B7B7BC",
"7+	c #7E7E7F",
"8+	c #818182",
"9+	c #A2A2A2",
"0+	c #ACACAC",
"a+	c #A9A9A9",
"b+	c #A1A1A1",
"c+	c #939393",
"d+	c #767676",
"e+	c #7D7D7F",
"f+	c #B4B5BD",
"g+	c #DCE3ED",
"h+	c #4678B7",
"i+	c #7A9ECC",
"j+	c #E4E7F0",
"k+	c #E6E8F0",
"l+	c #E8EAF2",
"m+	c #909195",
"n+	c #7C7C7D",
"o+	c #A5A5A5",
"p+	c #AFAFAF",
"q+	c #AAAAAA",
"r+	c #A6A6A6",
"s+	c #A3A3A3",
"t+	c #9F9F9F",
"u+	c #9D9D9D",
"v+	c #979797",
"w+	c #888888",
"x+	c #696A6C",
"y+	c #A0A5AA",
"z+	c #4274B5",
"A+	c #7D9FCC",
"B+	c #DEE3EE",
"C+	c #E0E4EF",
"D+	c #E1E5F0",
"E+	c #E3E7F0",
"F+	c #E5E8F1",
"G+	c #E6E8F3",
"H+	c #ACAEB4",
"I+	c #747474",
"J+	c #ABABAB",
"K+	c #A7A7A7",
"L+	c #A4A4A4",
"M+	c #A0A0A0",
"N+	c #9C9C9C",
"O+	c #999999",
"P+	c #959595",
"Q+	c #8E8E8E",
"R+	c #848484",
"S+	c #7D7D7D",
"T+	c #757575",
"U+	c #606161",
"V+	c #496790",
"W+	c #7B9DCA",
"X+	c #E0E6F1",
"Y+	c #DDE2ED",
"Z+	c #DEE2EE",
"`+	c #DFE3EE",
" @	c #E0E4EE",
".@	c #E1E4EF",
"+@	c #E2E5EF",
"@@	c #E3E6F0",
"#@	c #E5E7F1",
"$@	c #E4E6EF",
"%@	c #848589",
"&@	c #828282",
"*@	c #989898",
"=@	c #949494",
"-@	c #909090",
";@	c #868686",
">@	c #818181",
",@	c #7C7C7C",
"'@	c #797979",
")@	c #777777",
"!@	c #676767",
"~@	c #4F565E",
"{@	c #6B92C3",
"]@	c #D5DDEC",
"^@	c #E2E4EE",
"/@	c #E2E5EE",
"(@	c #E3E5EF",
"_@	c #E4E6F0",
":@	c #E5E7F0",
"<@	c #E7E8F1",
"[@	c #E7E8F2",
"}@	c #E6E7F1",
"|@	c #DDDEE9",
"1@	c #818286",
"2@	c #7E7E7E",
"3@	c #919191",
"4@	c #8D8D8D",
"5@	c #7A7A7A",
"6@	c #787878",
"7@	c #666666",
"8@	c #515254",
"9@	c #BCCDE3",
"0@	c #E1E4EE",
"a@	c #E3E5EE",
"b@	c #E3E6EF",
"c@	c #E5E6F0",
"d@	c #E6E7F0",
"e@	c #E4E5EF",
"f@	c #E2E3EF",
"g@	c #DDDDE9",
"h@	c #828386",
"i@	c #B7B7B7",
"j@	c #9E9E9E",
"k@	c #7F7F7F",
"l@	c #838383",
"m@	c #9B9B9B",
"n@	c #737373",
"o@	c #515152",
"p@	c #86A3CC",
"q@	c #DADFEC",
"r@	c #DBE0EC",
"s@	c #DDE1EC",
"t@	c #DDE0ED",
"u@	c #DEE1ED",
"v@	c #DEE0ED",
"w@	c #DFE1ED",
"x@	c #E2E3EE",
"y@	c #DEDFEA",
"z@	c #848487",
"A@	c #8C8C8C",
"B@	c #C0C0C0",
"C@	c #C1C1C1",
"D@	c #BDBDBD",
"E@	c #B2B2B2",
"F@	c #6B6B6B",
"G@	c #6A6A6A",
"H@	c #515151",
"I@	c #4976B3",
"J@	c #DDE4EE",
"K@	c #D5DBE9",
"L@	c #D6DBE9",
"M@	c #D6DAE9",
"N@	c #D8DCEA",
"O@	c #DADEEB",
"P@	c #DDE0EC",
"Q@	c #E1E3EE",
"R@	c #E3E4EF",
"S@	c #E2E3ED",
"T@	c #848488",
"U@	c #9A9A9A",
"V@	c #8A8A8A",
"W@	c #727272",
"X@	c #6E6E6E",
"Y@	c #84A2CB",
"Z@	c #D8DBE8",
"`@	c #DBDDEA",
" #	c #DDDFEB",
".#	c #E0E1ED",
"+#	c #E4E5F0",
"@#	c #858589",
"##	c #878787",
"$#	c #929292",
"%#	c #7B7B7B",
"&#	c #AABDD9",
"*#	c #E0E2EC",
"=#	c #E5E6EF",
"-#	c #86868A",
";#	c #ADADAD",
">#	c #A8A8A8",
",#	c #6C6C6C",
"'#	c #BAC9DF",
")#	c #DFE4EF",
"!#	c #DCDFEC",
"~#	c #DEE2ED",
"{#	c #838488",
"]#	c #8F8F8F",
"^#	c #5B82B6",
"/#	c #AEC0DA",
"(#	c #EBEDF3",
"_#	c #D7DCE9",
":#	c #DBDFEC",
"<#	c #DCE0ED",
"[#	c #D9DDE8",
"}#	c #7F8084",
"|#	c #858585",
"1#	c #6F6F6F",
"2#	c #505050",
"3#	c #7C98BD",
"4#	c #D4DCEA",
"5#	c #EAEBF2",
"6#	c #E1E3ED",
"7#	c #DCDEEB",
"8#	c #D7DAE5",
"9#	c #7D7E82",
"0#	c #898989",
"a#	c #4E4E4E",
"b#	c #5C7EAC",
"c#	c #95ADCF",
"d#	c #DCE3EE",
"e#	c #DADDE7",
"f#	c #999AA0",
"g#	c #B0B0B0",
"h#	c #AEAEAE",
"i#	c #376298",
"j#	c #6687B2",
"k#	c #95AAC6",
"l#	c #B3C3D9",
"m#	c #AAB9CE",
"n#	c #5F6977",
"o#	c #858789",
"p#	c #525252",
"q#	c #3B3D40",
"r#	c #B5B5B5",
"s#	c #B3B3B3",
"t#	c #646464",
"u#	c #4C4C4C",
"                                                                ",
"                            . + @ + #                           ",
"                      $ % & * = - ; > , ' )                     ",
"                  ! ~ { ] ^ / ( _ : < [ } | 1 2                 ",
"              3 4 5 6 7 7 7 ^ ^ ^ 8 9 0 0 0 a b c d             ",
"            e f g h 0 0 0 i j j k l m n n n o p q r             ",
"          s t u v w x y z A B C D E F G H I J J K L M N         ",
"          O n H J P Q R S T U V W I G H I X Y Y Y Z `  .        ",
"        ..+.@.@.#.#.#.$.%.&.*.=.@.@.-.-.p p ;.;.>.,.'.).!.      ",
"      ~.{.>.].^.^.-.-.@./.(._.:.<.[.-.}.}.=.;.>.>.|.'.1.2.      ",
"    3.4.5.6.7.8.9.Y 0.a.b.c.d.e.f.Y Y Y g.h.Z h.i.j.k.l.m.n.    ",
"      o.p.q.r.s.t.u.v.w.x.y.z.A.g.g.g.g.g.h.h.B.C.D.E.F.G.H.    ",
"    I.J.j.K.L.M.N.N.O.P.Q.R.S.=.=.S.=.T.T.U.V.W.X.Y.Z.`. +.+    ",
"    +++.@+U.#+$+%+&+*+=+-+S.S.=.=.S.;+>+,+'+)+)+!+~+{+]+^+/+(+  ",
"    _+@.:+<+[+}+|+1+2+3+h.h.4+g.5+6+7+8+9+0+0+a+b+c+d+e+f+g+h+  ",
"    i+@.j+:+k+<+}+}+l+l+l+h.h.3+m+n+o+p+0+q+r+s+t+u+v+w+x+y+z+  ",
"    A+'.B+B+C+C+D+j.E+;+F+F+G+H+I+s+J+K+L+M+N+O+P+Q+R+S+T+U+V+  ",
"    W+X+Y+Z+`+ @.@+@@@;+#@B.$@%@&@s+s+M+N+*@=@-@;@>@,@'@)@!@~@  ",
"    {@]@^@/@(@$@_@:@<+<@[@}@|@1@2@b+s+v+3@4@;@>@S+5@6@&@;@7@8@  ",
"      9@^@0@^@a@b@c@c@d@e@f@g@h@S+w+p+i@j@4@&@k@l@Q+L+m@n@7@o@  ",
"      p@^.q@r@s@t@u@u@v@w@x@y@z@>@>@A@N+i@B@C@D@E@9+&@I+F@G@H@  ",
"      I@J@q@K@L@M@N@O@P@Q@R@S@T@l@>@A@P+M+9+U@c+V@l@5@W@F@X@H@  ",
"        Y@@@Z@Z@`@ #.#Q@+#c@e@@###R+c+$#3@Q+R+S+5@'@%#,@X@W@H@  ",
"          &#@@Z@`@ #*#x@+#d@=#-#V@>@$#t+J+p+;#>#j@c+;@6@,#d+H@  ",
"            '#)#E.L@D.!#~#0@C.{#]#>@A@P+M+9+U@c+V@l@5@n@,#5@H@  ",
"            ^#/#(#_#L@N@:#<#[#}#$#R+Q+A@v+u+*@3@|#%#W@)@1#S+2#  ",
"                3#4#5#6#7#P@8#9#P+&@v+9+j@$#|#k@R+0#A@S+X@k@a#  ",
"                  b#c#d#X j+e#f#V@4@A@v+a+g#h#K+U@A@,@I+S+I+    ",
"                      i#j#k#l#m#n#o#u+t+L+s+U@c+A@0#0#A@6@p#    ",
"                                  q#G@;@a+r#s#;#s+=@5@t#        ",
"                                        u#H@p#p#H@u#            ",
"                                                                "};
