/* XPM */
static char * ooo_web_xpm[] = {
"32 32 497 2",
"  	c None",
". 	c #5889C8",
"+ 	c #5587C8",
"@ 	c #5285C7",
"# 	c #5788C8",
"$ 	c #83A8D6",
"% 	c #93B5DD",
"& 	c #BDD1EA",
"* 	c #D3E1F1",
"= 	c #D8E6F5",
"- 	c #D9E7F6",
"; 	c #D8E5F4",
"> 	c #CDDDEF",
", 	c #B5CBE7",
"' 	c #84AAD8",
") 	c #8BAED9",
"! 	c #7EA4D5",
"~ 	c #B3CBE8",
"{ 	c #D4E0F0",
"] 	c #DDE8F4",
"^ 	c #E5EBF4",
"/ 	c #E1EAF3",
"( 	c #DEE7F2",
"_ 	c #DEE8F3",
": 	c #E8EDF5",
"< 	c #EDF0F6",
"[ 	c #EAEEF6",
"} 	c #E6ECF5",
"| 	c #D1DEEF",
"1 	c #9FBDE2",
"2 	c #6D98CF",
"3 	c #6B97CF",
"4 	c #ABC5E5",
"5 	c #DAE5F3",
"6 	c #E0E9F3",
"7 	c #E9EEF5",
"8 	c #D3E1F0",
"9 	c #D2E0F0",
"0 	c #E2EAF3",
"a 	c #EAEFF5",
"b 	c #EAEEF5",
"c 	c #E9EDF5",
"d 	c #DFE8F2",
"e 	c #D7E4F2",
"f 	c #89ADDA",
"g 	c #6492CC",
"h 	c #729BD0",
"i 	c #B0C8E5",
"j 	c #CBD9EB",
"k 	c #D9E3F0",
"l 	c #DDE7F2",
"m 	c #DDE6F2",
"n 	c #E3EAF3",
"o 	c #E4EBF3",
"p 	c #CFDEEE",
"q 	c #D2E0EF",
"r 	c #D1DDED",
"s 	c #C0CFE3",
"t 	c #D6DEEC",
"u 	c #E8ECF4",
"v 	c #E6EBF4",
"w 	c #DBE5F1",
"x 	c #D6E1F0",
"y 	c #CEDEEF",
"z 	c #A6C1E2",
"A 	c #6D97CE",
"B 	c #C7D8EC",
"C 	c #BACCE3",
"D 	c #8BA7CC",
"E 	c #668AB9",
"F 	c #688BBB",
"G 	c #8FABCD",
"H 	c #C9D5E6",
"I 	c #CAD6E7",
"J 	c #91ACD0",
"K 	c #6B8DBC",
"L 	c #7293BF",
"M 	c #B3C5DD",
"N 	c #EDEFF5",
"O 	c #ECEFF5",
"P 	c #D5E1EF",
"Q 	c #D1DEEE",
"R 	c #D0DEEE",
"S 	c #CDDCED",
"T 	c #CADBEC",
"U 	c #D1DFEF",
"V 	c #A9C2E3",
"W 	c #6591CC",
"X 	c #AEC6E4",
"Y 	c #CCDCEE",
"Z 	c #E1E7F1",
"` 	c #DAE1ED",
" .	c #90ACCD",
"..	c #517BAF",
"+.	c #4C77AF",
"@.	c #517BB1",
"#.	c #4B75AC",
"$.	c #9AAFCC",
"%.	c #E1E5EE",
"&.	c #ECEEF5",
"*.	c #E5EBF3",
"=.	c #E4E9F2",
"-.	c #DDE6F1",
";.	c #DEE6F1",
">.	c #C8D9EC",
",.	c #C1D5EA",
"'.	c #C0D4E9",
").	c #C1D4EA",
"!.	c #90B0D9",
"~.	c #97B5DB",
"{.	c #D8E2F0",
"].	c #C6D8EC",
"^.	c #C8D6E6",
"/.	c #7895BC",
"(.	c #6788B3",
"_.	c #CAD2DF",
":.	c #E5E9F2",
"<.	c #E6EBF3",
"[.	c #DDE5F1",
"}.	c #BFD3E9",
"|.	c #BDD2E9",
"1.	c #BCD2E8",
"2.	c #BCD1E8",
"3.	c #BBD1E8",
"4.	c #D0DEF0",
"5.	c #729ACE",
"6.	c #5887C4",
"7.	c #D2DEEF",
"8.	c #D0DDEE",
"9.	c #C3D6EA",
"0.	c #C2D5EA",
"a.	c #D6DEEA",
"b.	c #D2D9E4",
"c.	c #E3E7EF",
"d.	c #D5D9E2",
"e.	c #D3D8E0",
"f.	c #E3E8F0",
"g.	c #C6D8EB",
"h.	c #BAD0E7",
"i.	c #B9CFE7",
"j.	c #B8CFE7",
"k.	c #B7CEE6",
"l.	c #B7CEE7",
"m.	c #C8D8EB",
"n.	c #A6C1E1",
"o.	c #323D47",
"p.	c #4B5662",
"q.	c #5B6266",
"r.	c #6F7A84",
"s.	c #96A7B7",
"t.	c #ADC1D5",
"u.	c #BED3E9",
"v.	c #CBDAEC",
"w.	c #E4E6ED",
"x.	c #CBCDD2",
"y.	c #9B9EA2",
"z.	c #6D7174",
"A.	c #5B6165",
"B.	c #878D92",
"C.	c #D6D9E0",
"D.	c #EBEDF4",
"E.	c #C3D5EA",
"F.	c #C4D5EA",
"G.	c #E2E8F2",
"H.	c #D2DEED",
"I.	c #C1D4E9",
"J.	c #B1CAE4",
"K.	c #A7C3E1",
"L.	c #98B9DC",
"M.	c #8EB1D8",
"N.	c #C8D6EB",
"O.	c #749BCD",
"P.	c #9FB2C9",
"Q.	c #8B959D",
"R.	c #485156",
"S.	c #373E42",
"T.	c #4D575D",
"U.	c #828D97",
"V.	c #ADB2B9",
"W.	c #6E7378",
"X.	c #494F53",
"Y.	c #373C3F",
"Z.	c #74777B",
"`.	c #CBCDD3",
" +	c #E8EAF1",
".+	c #EAECF4",
"++	c #D6E1EF",
"@+	c #C9D9EB",
"#+	c #DEE5F0",
"$+	c #E3E8F2",
"%+	c #DBE1EF",
"&+	c #ABC3E0",
"*+	c #7CA6D2",
"=+	c #729FCF",
"-+	c #B0C7E2",
";+	c #8EAED6",
">+	c #8FADD6",
",+	c #D3DEEE",
"'+	c #BDD1E8",
")+	c #B6CBE2",
"!+	c #808B94",
"~+	c #494F52",
"{+	c #2E3436",
"]+	c #32383A",
"^+	c #555A5D",
"/+	c #B3B7BD",
"(+	c #DEE1EA",
"_+	c #E6E9F2",
":+	c #B6CDE5",
"<+	c #AEC7E4",
"[+	c #ACC7E2",
"}+	c #A9C4E1",
"|+	c #90B3D8",
"1+	c #8CAED6",
"2+	c #7EA6D2",
"3+	c #739FCF",
"4+	c #76A2D0",
"5+	c #79A3D1",
"6+	c #91B3D9",
"7+	c #C1D2E8",
"8+	c #7CA0CE",
"9+	c #DAE3F0",
"0+	c #B6CDE6",
"a+	c #CCDAEB",
"b+	c #D9E0EB",
"c+	c #BAC1CB",
"d+	c #51565A",
"e+	c #2F3537",
"f+	c #787D83",
"g+	c #C1C5CD",
"h+	c #E2E6EE",
"i+	c #E4E8F2",
"j+	c #C5D6E9",
"k+	c #AAC5E2",
"l+	c #94B6DA",
"m+	c #87ABD5",
"n+	c #7FA7D3",
"o+	c #7DA6D2",
"p+	c #9CB7DA",
"q+	c #9BB8DA",
"r+	c #4D7DBC",
"s+	c #7B9FCD",
"t+	c #B5CCE5",
"u+	c #D3DEEC",
"v+	c #D9E1ED",
"w+	c #E7E9F1",
"x+	c #D9DCE3",
"y+	c #C0C3CA",
"z+	c #E5E7EF",
"A+	c #E9EAF3",
"B+	c #E9EBF3",
"C+	c #EAEBF4",
"D+	c #DEE4F0",
"E+	c #B1C9E4",
"F+	c #9FBDDE",
"G+	c #85ACD6",
"H+	c #98B6D9",
"I+	c #76A1D0",
"J+	c #CAD4E5",
"K+	c #E1E8F3",
"L+	c #4678B7",
"M+	c #7A9ECC",
"N+	c #CAD8EA",
"O+	c #B4CBE4",
"P+	c #BFD1E7",
"Q+	c #E1E5F0",
"R+	c #E8EAF2",
"S+	c #E9EBF4",
"T+	c #D8E1EE",
"U+	c #A1BFDE",
"V+	c #7DA6D3",
"W+	c #73A0CF",
"X+	c #A0BBDC",
"Y+	c #82A8D3",
"Z+	c #B0C4DF",
"`+	c #D5DAE9",
" @	c #E3EAF5",
".@	c #4274B5",
"+@	c #7D9FCC",
"@@	c #DEE3EE",
"#@	c #DDE2EE",
"$@	c #C8D6E9",
"%@	c #CCD8EA",
"&@	c #B7CCE5",
"*@	c #BBCEE6",
"=@	c #CCD9EA",
"-@	c #E3E6F1",
";@	c #E5E8F1",
">@	c #E6E8F3",
",@	c #DAE0EF",
"'@	c #96B5DA",
")@	c #88ACD5",
"!@	c #BECCE3",
"~@	c #CDD6E7",
"{@	c #E0E8F3",
"]@	c #4676B6",
"^@	c #7B9DCA",
"/@	c #E0E6F1",
"(@	c #DDE2ED",
"_@	c #DEE2EE",
":@	c #DBE1ED",
"<@	c #CDD9EA",
"[@	c #9FBEDE",
"}@	c #A8C3E1",
"|@	c #E5E7F1",
"1@	c #E6E8F2",
"2@	c #E2E4F0",
"3@	c #DFE2EE",
"4@	c #CAD5EA",
"5@	c #8EB0D7",
"6@	c #A1BCDD",
"7@	c #92B3D8",
"8@	c #77A2D0",
"9@	c #87ACD5",
"0@	c #C5D1E5",
"a@	c #D2D9E9",
"b@	c #DDE4F1",
"c@	c #4A79B6",
"d@	c #6B92C3",
"e@	c #D5DDEC",
"f@	c #E2E4EE",
"g@	c #E2E5EE",
"h@	c #E3E5EF",
"i@	c #C1D1E6",
"j@	c #9ABADD",
"k@	c #99BADD",
"l@	c #9BBBDC",
"m@	c #CBD7EA",
"n@	c #DDE2EF",
"o@	c #E3E4EF",
"p@	c #E2E3EF",
"q@	c #E3E4F0",
"r@	c #E3E4F1",
"s@	c #E4E4F1",
"t@	c #D2D9EB",
"u@	c #75A1D0",
"v@	c #BFCDE4",
"w@	c #D9DDEB",
"x@	c #BBCBE3",
"y@	c #BCCDE3",
"z@	c #E1E4EE",
"A@	c #DFE3EE",
"B@	c #AEC5E1",
"C@	c #97B8DB",
"D@	c #96B8DB",
"E@	c #96B7DB",
"F@	c #93B5DA",
"G@	c #88AED6",
"H@	c #91B2D8",
"I@	c #CFD7EA",
"J@	c #E4E5F1",
"K@	c #E4E5F2",
"L@	c #DEE1EF",
"M@	c #93B3D9",
"N@	c #8BAED6",
"O@	c #E0E5F0",
"P@	c #88A6CE",
"Q@	c #86A3CC",
"R@	c #E6EAF2",
"S@	c #DADFEC",
"T@	c #DBE0EC",
"U@	c #BDCEE4",
"V@	c #8FB3D9",
"W@	c #8BB0D8",
"X@	c #84ABD5",
"Y@	c #7CA6D3",
"Z@	c #83AAD4",
"`@	c #D0D8EA",
" #	c #E6E6F1",
".#	c #E7E7F1",
"+#	c #E7E7F2",
"@#	c #E5E6F2",
"##	c #E3E5F1",
"$#	c #E0E3F0",
"%#	c #A7BFDF",
"&#	c #74A1D0",
"*#	c #90B1D7",
"=#	c #D2D8EA",
"-#	c #D1D8E9",
";#	c #CFDBEB",
">#	c #6A8EC0",
",#	c #4976B3",
"'#	c #DDE4EE",
")#	c #D5DBE9",
"!#	c #D0D7E7",
"~#	c #7AA4D1",
"{#	c #7FA8D3",
"]#	c #83ABD5",
"^#	c #97B7DA",
"/#	c #E4E6F1",
"(#	c #E7E8F1",
"_#	c #E8E8F2",
":#	c #E8E8F3",
"<#	c #E6E7F2",
"[#	c #AAC2DF",
"}#	c #8FB1D7",
"|#	c #D2D8E9",
"1#	c #A9BDDA",
"2#	c #84A2CB",
"3#	c #E3E6F0",
"4#	c #D8DBE8",
"5#	c #CED6E6",
"6#	c #80A9D4",
"7#	c #85ACD5",
"8#	c #8BB0D7",
"9#	c #AAC2E0",
"0#	c #E7E8F2",
"a#	c #E8E9F3",
"b#	c #E9E9F3",
"c#	c #E8E9F2",
"d#	c #E5E6F1",
"e#	c #7EA7D3",
"f#	c #7AA4D2",
"g#	c #8CAFD7",
"h#	c #CED7E8",
"i#	c #E1E3EF",
"j#	c #DBE2EE",
"k#	c #AABDD9",
"l#	c #D6DAE8",
"m#	c #98B7D9",
"n#	c #82AAD4",
"o#	c #86ADD6",
"p#	c #A9C2E0",
"q#	c #D9DFED",
"r#	c #EAEBF3",
"s#	c #C5D3E8",
"t#	c #80A8D4",
"u#	c #7BA5D2",
"v#	c #A3BDDC",
"w#	c #E2E7F2",
"x#	c #82A0C9",
"y#	c #BAC9DF",
"z#	c #DFE4EF",
"A#	c #D3D9E8",
"B#	c #A0BBDB",
"C#	c #84ACD5",
"D#	c #C0CFE5",
"E#	c #E2E5F0",
"F#	c #E4E7F1",
"G#	c #E1E4F0",
"H#	c #DADFED",
"I#	c #84AAD5",
"J#	c #8CAFD6",
"K#	c #CAD5E8",
"L#	c #8BA6CB",
"M#	c #5B82B6",
"N#	c #AEC0DA",
"O#	c #99B7DB",
"P#	c #9CB9DB",
"Q#	c #D4DBEB",
"R#	c #DCE0ED",
"S#	c #DFE3EF",
"T#	c #DFE2EF",
"U#	c #DBDFED",
"V#	c #D9DEEC",
"W#	c #B6C9E2",
"X#	c #CAD6E8",
"Y#	c #E7EBF3",
"Z#	c #8FA9CC",
"`#	c #7C98BD",
" $	c #C8D5E7",
".$	c #BACEE5",
"+$	c #D5DCEA",
"@$	c #DCDEEB",
"#$	c #DDE0EC",
"$$	c #DEE0EC",
"%$	c #DFE1ED",
"&$	c #DFE2ED",
"*$	c #DEE1ED",
"=$	c #DEE0ED",
"-$	c #E5E6F0",
";$	c #EAECF3",
">$	c #C7D3E5",
",$	c #567AAA",
"'$	c #5C7EAC",
")$	c #95ADCF",
"!$	c #DBE3EE",
"~$	c #EBEEF5",
"{$	c #E4E7F0",
"]$	c #E0E3ED",
"^$	c #DDDFEC",
"/$	c #E7E9F2",
"($	c #EBEFF5",
"_$	c #D0DAE8",
":$	c #7594BD",
"<$	c #5379AB",
"[$	c #376298",
"}$	c #6687B2",
"|$	c #95AAC6",
"1$	c #B6C5DB",
"2$	c #BACAE0",
"3$	c #BBCBE1",
"4$	c #BACADF",
"5$	c #AEBFD6",
"6$	c #889FBD",
"7$	c #4D76AC",
"8$	c #325A8E",
"                                                                ",
"                            . + @ + #                           ",
"                      $ % & * = - ; > , ' )                     ",
"                  ! ~ { ] ^ / ( _ : < [ } | 1 2                 ",
"              3 4 5 6 / 7 6 8 9 8 0 a b b c d e f g             ",
"            h i j k l m n o p q r s t u v w x k y z             ",
"          A B C D E F G H I J K L M N O P Q R S T U V W         ",
"          X w Y Z `  ...+.@.#.$.%.&.*.=.-.;.>.,.'.).| !.        ",
"        ~.{.>.].B B >.^./.(._.:.<.<.[.S ).}.|.1.2.3.}.4.5.      ",
"      6.7.8.9.0.,.,.>.;.a.b.c.d.e.f.Z g.h.h.i.j.j.k.l.m.n.      ",
"    o.p.q.r.s.t.u.v.w.x.y.z.A.B.C.D.E.F.G.H.I.i.J.K.L.M.N.O.    ",
"      P.Q.R.S.T.U.V.W.X.Y.Z.`. +.+.+++@+v.#+$+%+&+*+=+=+-+;+    ",
"    >+,+'+)+!+~+{+{+]+^+/+(+_+:.:.#+:+<+[+}+|+1+2+3+4+5+6+7+    ",
"    8+9+0+a+b+c+d+e+f+g+h+_+_+:.i+j+k+k+l+*+=+=+m+n+o+p+q+8.r+  ",
"    s+[.t+u+v+w+x+y+z+A+B+B+C+.+D+E+F+G+=+=+=+=+n+H+=+I+J+K+L+  ",
"    M+*.N+O+P+Q+w+w+R+R+R+B+B+S+T+U+V+W+=+=+=+=+3+X+Y+Z+`+ @.@  ",
"    +@Z @@#@$@%@&@*@=@-@;@;@>@>@,@'@=+=+=+=+=+=+=+5+)@!@~@{@]@  ",
"    ^@/@(@_@:@<@[@[@}@%@|@1@1@2@3@4@5@6@7@8@=+=+=+=+9@0@a@b@c@  ",
"    d@e@f@g@h@i@j@j@k@l@m@n@o@p@q@r@s@r@t@9@=+=+=+u@v@w@_@x@    ",
"      y@f@z@A@B@C@D@E@F@G@H@I@q@J@J@K@J@L@M@=+=+=+N@w@w@O@P@    ",
"      Q@R@S@T@U@V@W@X@*+Y@Z@`@ #.#+#@###$#%#&#3+=+*#=#-#;#>#    ",
"      ,#'#S@)#!#5@~#*+{#]#^#/#(#_#:#<#/#2@[#~#4+=+}#|#@@1#      ",
"        2#3#4#4#5#}#6#7#8#9#0#a#A+b#c#0#d#&+e#f#g#h#i#j#        ",
"          k#3#4#l#m#n#o#p#q#c#A+r#A+c#0#|@s#t#u#v#w@w#x#        ",
"            y#z#A#B#6#C#D#z@E#/#|@F#E#G#3@H#I#J#K#$+L#          ",
"            M#N#B+O#Y@P#Q#R#_@3@S#T#_@_@U#V#W#X#Y#Z#            ",
"                `# $.$+$@$#$$$%$&$&$*$=$*$-$;$>$,$              ",
"                  '$)$!$~${$]$$$^$%$f@/$($_$:$<$                ",
"                      [$}$|$1$2$3$4$5$6$7$8$                    ",
"                                                                ",
"                                                                ",
"                                                                "};
