/* XPM */
static char * ooo_template_xpm[] = {
"32 32 450 2",
"  	c None",
". 	c #5889C8",
"+ 	c #5587C8",
"@ 	c #5285C7",
"# 	c #5788C8",
"$ 	c #83A8D6",
"% 	c #93B5DD",
"& 	c #BDD1EA",
"* 	c #D3E1F1",
"= 	c #D8E6F5",
"- 	c #DAE7F6",
"; 	c #D8E5F4",
"> 	c #CDDDEF",
", 	c #B5CBE7",
"' 	c #84AAD8",
") 	c #8BAED9",
"! 	c #7EA4D5",
"~ 	c #B3CBE8",
"{ 	c #D9E3F1",
"] 	c #E9EFF6",
"^ 	c #EBEFF6",
"/ 	c #EEF1F6",
"( 	c #F0F2F7",
"_ 	c #F1F3F7",
": 	c #EFF2F7",
"< 	c #EDF0F6",
"[ 	c #EAEEF6",
"} 	c #E6ECF5",
"| 	c #D1DEEF",
"1 	c #9FBDE2",
"2 	c #6D98CF",
"3 	c #6B97CF",
"4 	c #ACC6E5",
"5 	c #DCE6F3",
"6 	c #E8EDF5",
"7 	c #ECEFF6",
"8 	c #EBEFF5",
"9 	c #EAEFF5",
"0 	c #EAEEF5",
"a 	c #E1E9F3",
"b 	c #D7E4F2",
"c 	c #89ADDA",
"d 	c #6492CC",
"e 	c #729BD0",
"f 	c #B0C8E5",
"g 	c #D1DDED",
"h 	c #E4EAF2",
"i 	c #E9EEF5",
"j 	c #E9EDF4",
"k 	c #DFE5F0",
"l 	c #C4D1E4",
"m 	c #D6DEEC",
"n 	c #E8ECF4",
"o 	c #E7ECF4",
"p 	c #E5EAF3",
"q 	c #D1DFF0",
"r 	c #A6C2E2",
"s 	c #6D97CE",
"t 	c #C8D9EC",
"u 	c #C3D1E4",
"v 	c #93ACCE",
"w 	c #678AB9",
"x 	c #6A8DBB",
"y 	c #99B0D0",
"z 	c #CCD6E6",
"A 	c #D0DAE8",
"B 	c #A2B7D4",
"C 	c #6C8EBC",
"D 	c #7293BF",
"E 	c #BACADF",
"F 	c #EDF0F5",
"G 	c #EDEFF5",
"H 	c #ECEFF5",
"I 	c #ECEEF5",
"J 	c #ECEEF4",
"K 	c #EBEEF4",
"L 	c #DFE7F3",
"M 	c #A9C2E3",
"N 	c #6591CC",
"O 	c #AEC6E4",
"P 	c #DFE4EE",
"Q 	c #A9BAD3",
"R 	c #597FB1",
"S 	c #4C77AF",
"T 	c #517BB1",
"U 	c #4B75AC",
"V 	c #9AAFCC",
"W 	c #E1E5EE",
"X 	c #EBEEF5",
"Y 	c #EBEDF4",
"Z 	c #E9ECF3",
"` 	c #DBE4F2",
" .	c #90B0D9",
"..	c #97B5DB",
"+.	c #DDE5F1",
"@.	c #E6EBF3",
"#.	c #E7EBF3",
"$.	c #DFE3EC",
"%.	c #7C98BE",
"&.	c #6788B3",
"*.	c #CAD2DF",
"=.	c #E5E9F2",
"-.	c #E6EAF3",
";.	c #E4E9F2",
">.	c #E3E8F2",
",.	c #E2E8F2",
"'.	c #E1E7F1",
").	c #D8E3F2",
"!.	c #729ACE",
"~.	c #5887C4",
"{.	c #D2DFEF",
"].	c #E5EAF2",
"^.	c #E6EAF2",
"/.	c #D9E0EA",
"(.	c #D2D9E4",
"_.	c #E3E7EF",
":.	c #D5D9E2",
"<.	c #D3D8E0",
"[.	c #E3E8F0",
"}.	c #E5E9F3",
"|.	c #E2E7F1",
"1.	c #DDE4F0",
"2.	c #A6C1E1",
"3.	c #323D47",
"4.	c #4B5662",
"5.	c #5E6467",
"6.	c #828588",
"7.	c #B9BBBF",
"8.	c #D6D9DE",
"9.	c #EAEDF3",
"0.	c #E4E7ED",
"a.	c #CBCDD2",
"b.	c #9B9EA2",
"c.	c #6D7174",
"d.	c #5B6165",
"e.	c #878D92",
"f.	c #D6D9E0",
"g.	c #EAECF4",
"h.	c #E9EBF3",
"i.	c #E7EAF2",
"j.	c #E2E6F0",
"k.	c #DCE1ED",
"l.	c #D8DDEA",
"m.	c #CEDAED",
"n.	c #749BCD",
"o.	c #9FB2C9",
"p.	c #9A9CA0",
"q.	c #515658",
"r.	c #393F42",
"s.	c #555B5F",
"t.	c #90969A",
"u.	c #B0B4BA",
"v.	c #6E7378",
"w.	c #494F53",
"x.	c #373C3F",
"y.	c #74777B",
"z.	c #CBCDD3",
"A.	c #E8EAF1",
"B.	c #E6E8F2",
"C.	c #DFE2ED",
"D.	c #D9DDEB",
"E.	c #D4D9E8",
"F.	c #D3D9E8",
"G.	c #D7DFEC",
"H.	c #8EAED6",
"I.	c #8FADD6",
"J.	c #D3DEEE",
"K.	c #DDE2EB",
"L.	c #8E9297",
"M.	c #4C5153",
"N.	c #2E3436",
"O.	c #32383A",
"P.	c #555A5D",
"Q.	c #B3B7BD",
"R.	c #D5D9E0",
"S.	c #D0D4DA",
"T.	c #D0D5DA",
"U.	c #D1D4DB",
"V.	c #D1D5DB",
"W.	c #D0D5DC",
"X.	c #D0D5DB",
"Y.	c #C7CDD8",
"Z.	c #C0C8D4",
"`.	c #BDC6D3",
" +	c #BCC5D3",
".+	c #BBC4D2",
"++	c #BAC4D2",
"@+	c #BEC8D5",
"#+	c #BCCADB",
"$+	c #7CA0CE",
"%+	c #E1E6EF",
"&+	c #E1E6F0",
"*+	c #DEE3EC",
"=+	c #BDC3CC",
"-+	c #51565A",
";+	c #2F3537",
">+	c #787D83",
",+	c #C1C5CD",
"'+	c #E2E6EE",
")+	c #C5C7C9",
"!+	c #E4E5E4",
"~+	c #E3E3E2",
"{+	c #E3E4E3",
"]+	c #E4E4E3",
"^+	c #E5E5E4",
"/+	c #E5E6E5",
"(+	c #E6E6E5",
"_+	c #C8CAC9",
":+	c #4D7DBC",
"<+	c #7B9FCD",
"[+	c #E5E8F0",
"}+	c #E6E8F1",
"|+	c #E6E9F1",
"1+	c #E7E9F1",
"2+	c #D9DCE3",
"3+	c #C0C3CA",
"4+	c #E5E7EF",
"5+	c #E9EAF3",
"6+	c #BCBEBE",
"7+	c #ECECEC",
"8+	c #BDBFBD",
"9+	c #B9BBB9",
"0+	c #BABCBB",
"a+	c #C5C6C5",
"b+	c #D0D1CF",
"c+	c #E0E1DF",
"d+	c #CCCDCA",
"e+	c #F5F5F4",
"f+	c #FDFDFD",
"g+	c #FFFFFF",
"h+	c #FEFEFE",
"i+	c #CDCDCB",
"j+	c #4678B7",
"k+	c #7A9ECC",
"l+	c #E4E7F0",
"m+	c #E6E8F0",
"n+	c #E8EAF2",
"o+	c #B9BBBB",
"p+	c #BDBEBE",
"q+	c #C9CAC9",
"r+	c #D3D3D2",
"s+	c #E7E7E5",
"t+	c #EFEFED",
"u+	c #F0F0EE",
"v+	c #FAFAFA",
"w+	c #CBCCCA",
"x+	c #4274B5",
"y+	c #7D9FCC",
"z+	c #DEE3EE",
"A+	c #E0E4EF",
"B+	c #E1E5F0",
"C+	c #E3E7F0",
"D+	c #E4E7F1",
"E+	c #E5E8F1",
"F+	c #B4B7B7",
"G+	c #BABBBA",
"H+	c #C0C1C0",
"I+	c #CDCECD",
"J+	c #D8D9D7",
"K+	c #D9DAD7",
"L+	c #DADBD8",
"M+	c #E3E4E1",
"N+	c #ECECEB",
"O+	c #FCFCFC",
"P+	c #C7C8C5",
"Q+	c #4676B6",
"R+	c #7B9DCA",
"S+	c #E0E6F1",
"T+	c #DDE2ED",
"U+	c #DEE2EE",
"V+	c #DFE3EE",
"W+	c #E0E4EE",
"X+	c #E1E4EF",
"Y+	c #E2E5EF",
"Z+	c #E3E6F0",
"`+	c #E5E7F1",
" @	c #B2B4B4",
".@	c #EBECEB",
"+@	c #BBBDBC",
"@@	c #C4C5C3",
"#@	c #CFD0CE",
"$@	c #DEDFDE",
"%@	c #DDDEDB",
"&@	c #DDDDDB",
"*@	c #E4E4E1",
"=@	c #E8E9E7",
"-@	c #FAFAF9",
";@	c #FDFDFC",
">@	c #C4C5C2",
",@	c #4A79B6",
"'@	c #6B92C3",
")@	c #D5DDEC",
"!@	c #E2E4EE",
"~@	c #E2E5EE",
"{@	c #E3E5EF",
"]@	c #E4E6EF",
"^@	c #E4E6F0",
"/@	c #E5E7F0",
"(@	c #E7E8F1",
"_@	c #E7E8F2",
":@	c #AEB0B0",
"<@	c #C7C8C7",
"[@	c #D5D5D3",
"}@	c #E5E5E3",
"|@	c #EAEAE7",
"1@	c #E9E9E6",
"2@	c #E9E9E7",
"3@	c #C0C1BE",
"4@	c #BCCDE3",
"5@	c #E1E4EE",
"6@	c #E3E5EE",
"7@	c #E3E6EF",
"8@	c #E5E6F0",
"9@	c #E6E7F0",
"0@	c #E4E5EF",
"a@	c #AAACAC",
"b@	c #EAEBEB",
"c@	c #D9DAD8",
"d@	c #E8E8E6",
"e@	c #C8C9C5",
"f@	c #E8E8E5",
"g@	c #EEEEEC",
"h@	c #F7F7F6",
"i@	c #FBFBFB",
"j@	c #BDBDBB",
"k@	c #86A3CC",
"l@	c #DADFEC",
"m@	c #DBE0EC",
"n@	c #DDE1EC",
"o@	c #DDE0ED",
"p@	c #DEE1ED",
"q@	c #DEE0ED",
"r@	c #DFE1ED",
"s@	c #A6A8A9",
"t@	c #EAEBEA",
"u@	c #BDBEBC",
"v@	c #CDCECC",
"w@	c #D2D2CF",
"x@	c #D9D9D6",
"y@	c #EBEBE8",
"z@	c #E7E7E4",
"A@	c #E6E6E4",
"B@	c #CBCCC8",
"C@	c #F2F2F1",
"D@	c #F8F8F7",
"E@	c #B9BAB7",
"F@	c #4976B3",
"G@	c #DDE4EE",
"H@	c #D5DBE9",
"I@	c #D6DBE9",
"J@	c #D6DAE9",
"K@	c #D8DCEA",
"L@	c #DADEEB",
"M@	c #DDE0EC",
"N@	c #E1E3EE",
"O@	c #A6A8A8",
"P@	c #EBEBEA",
"Q@	c #BEC0BE",
"R@	c #D1D2D0",
"S@	c #E6E6E3",
"T@	c #E5E5E2",
"U@	c #EDEDEB",
"V@	c #F9F9F8",
"W@	c #FBFBFA",
"X@	c #B5B7B3",
"Y@	c #84A2CB",
"Z@	c #D8DBE8",
"`@	c #DBDDEA",
" #	c #DDDFEB",
".#	c #E0E1ED",
"+#	c #E4E5F0",
"@#	c #A7A9A9",
"##	c #C2C3C1",
"$#	c #C9CAC8",
"%#	c #D8D9D6",
"&#	c #E3E3E0",
"*#	c #F1F1EF",
"=#	c #F5F5F3",
"-#	c #B2B3AF",
";#	c #AABDD9",
">#	c #E0E2EC",
",#	c #E2E3EE",
"'#	c #C0C0BD",
")#	c #E2E2DF",
"!#	c #F2F2F0",
"~#	c #AEAFAB",
"{#	c #BAC9DF",
"]#	c #DFE4EF",
"^#	c #DCDFEC",
"/#	c #DEE2ED",
"(#	c #A5A8A8",
"_#	c #C7C8C6",
":#	c #D4D4D2",
"<#	c #D2D3D0",
"[#	c #E1E1DE",
"}#	c #ACADA9",
"|#	c #5B82B6",
"1#	c #AEC0DA",
"2#	c #EBEDF3",
"3#	c #D7DCE9",
"4#	c #DBDFEC",
"5#	c #A4A6A7",
"6#	c #CACBC8",
"7#	c #D8D8D4",
"8#	c #E0E0DD",
"9#	c #E0E0DC",
"0#	c #DFDFDC",
"a#	c #EEEEED",
"b#	c #ABACA9",
"c#	c #7C98BD",
"d#	c #D4DCEA",
"e#	c #EAEBF2",
"f#	c #E1E3ED",
"g#	c #DCDEEB",
"h#	c #EAEAE9",
"i#	c #CECECC",
"j#	c #D1D1CD",
"k#	c #E1E1DD",
"l#	c #DFDFDB",
"m#	c #DEDEDB",
"n#	c #D7D7D3",
"o#	c #DCDCD8",
"p#	c #EBEBE9",
"q#	c #AAACA8",
"r#	c #5C7EAC",
"s#	c #95ADCF",
"t#	c #DCE3EE",
"u#	c #A8AAA9",
"v#	c #E9E9E8",
"w#	c #D3D3D0",
"x#	c #D7D7D4",
"y#	c #C2C3BF",
"z#	c #DEDEDA",
"A#	c #DDDDDA",
"B#	c #DDDDD9",
"C#	c #DADAD7",
"D#	c #AAABA7",
"E#	c #376298",
"F#	c #6687B2",
"G#	c #838D95",
"H#	c #EAEAE8",
"I#	c #DBDBD8",
"J#	c #DBDBD7",
"K#	c #A9AAA6",
"L#	c #7A8183",
"M#	c #F0F0EF",
"N#	c #ECECEA",
"O#	c #898B86",
"P#	c #888A85",
"Q#	c #8D908A",
"                                                                ",
"                            . + @ + #                           ",
"                      $ % & * = - ; > , ' )                     ",
"                  ! ~ { ] ^ / ( _ : < [ } | 1 2                 ",
"              3 4 5 6 7 7 7 ^ ^ ^ 8 9 0 0 0 a b c d             ",
"            e f g h 0 0 0 i j j k l m n n n o p q r             ",
"          s t u v w x y z A B C D E F G H I J J K L M N         ",
"          O n H J P Q R S T U V W I G H I X Y Y Y Z `  .        ",
"        ..+.@.@.#.#.#.$.%.&.*.=.@.@.-.-.p p ;.;.>.,.'.).!.      ",
"      ~.{.>.].^.^.-.-.@./.(._.:.<.[.-.}.}.=.;.>.>.|.'.1.2.      ",
"    3.4.5.6.7.8.9.Y 0.a.b.c.d.e.f.Y Y Y g.h.Z h.i.j.k.l.m.n.    ",
"      o.p.q.r.s.t.u.v.w.x.y.z.A.g.g.g.g.g.h.h.B.C.D.E.F.G.H.    ",
"    I.J.j.K.L.M.N.N.O.P.Q.R.S.T.U.V.V.W.W.X.Y.Z.`. +.+++@+#+    ",
"    $++.%+&+*+=+-+;+>+,+'+)+!+!+!+~+{+]+^+/+(+(+(+(+(+(+(+_+:+  ",
"    <+@.[+}+|+1+2+3+4+5+h.6+7+8+9+0+a+b+c+d+e+f+g+g+g+g+h+i+j+  ",
"    k+@.l+[+m+}+1+1+n+n+n+o+7+8+9+p+q+r+s+t+u+v+h+g+g+g+h+w+x+  ",
"    y+'.z+z+A+A+B+j.C+D+E+F+7+8+G+H+I+J+K+L+M+N+O+h+g+g+g+P+Q+  ",
"    R+S+T+U+V+W+X+Y+Z+D+`+ @.@+@G+@@#@$@%@&@*@=@-@;@g+g+h+>@,@  ",
"    '@)@!@~@{@]@^@/@}+(@_@:@.@0+p+<@[@}@|@1@2@1@e+-@f+g+h+3@    ",
"      4@!@5@!@6@7@8@8@9@0@a@b@0+H+q+c@s+d@e@f@s+g@h@i@h+f+j@    ",
"      k@^.l@m@n@o@p@p@q@r@s@t@u@@@v@w@x@s+y@z@A@B@C@D@i@;@E@    ",
"      F@G@l@H@I@J@K@L@M@N@O@P@Q@P+R@A@s+S@}@T@T@s+U@e+V@W@X@    ",
"        Y@Z+Z@Z@`@ #.#N@+#@#P@##$#%#}@T@T@e@*@*@&#}@*#=#D@-#    ",
"          ;#Z+Z@`@ #>#,#+#@#P@@@v@'#*@*@&#S@&#)#)#>@N+!#e+~#    ",
"            {#]#E.I@D.^#/#(#t@_#:#z@&#&#)#<#)#[#[#S@T@U@C@}#    ",
"            |#1#2#3#I@K@4#5#t@6#x@)#)#[#[#7#8#8#9#0#[#1@a#b#    ",
"                c#d#e#f#g#5#h#i#j#[#k#8#8#0#0#0#l#m#n#o#p#q#    ",
"                  r#s#t#X u#v#w#x#9#0#0#l#y#z#z#A#B#x@C#f@D#    ",
"                      E#F#G#H#C#l#l#m#z#z#&#B#B#o#o#I#J#&#K#    ",
"                          L#M#p#N#p#y@H#2@1@f@s+z@S@T@T@A@K#    ",
"                            O#P#P#P#P#P#P#P#P#P#P#P#P#P#P#Q#    ",
"                                                                "};
