/* XPM */
static char * ooo_calc_xpm[] = {
"32 32 452 2",
"  	c None",
". 	c #5889C8",
"+ 	c #5587C8",
"@ 	c #5285C7",
"# 	c #5788C8",
"$ 	c #83A8D6",
"% 	c #93B5DD",
"& 	c #BDD1EA",
"* 	c #D3E1F1",
"= 	c #D8E6F5",
"- 	c #DAE7F6",
"; 	c #D8E5F4",
"> 	c #CDDDEF",
", 	c #B5CBE7",
"' 	c #84AAD8",
") 	c #8BAED9",
"! 	c #7EA4D5",
"~ 	c #B3CBE8",
"{ 	c #D9E3F1",
"] 	c #E9EFF6",
"^ 	c #EBEFF6",
"/ 	c #EEF1F6",
"( 	c #F0F2F7",
"_ 	c #F1F3F7",
": 	c #EFF2F7",
"< 	c #EDF0F6",
"[ 	c #EAEEF6",
"} 	c #E6ECF5",
"| 	c #D1DEEF",
"1 	c #9FBDE2",
"2 	c #6D98CF",
"3 	c #6B97CF",
"4 	c #ACC6E5",
"5 	c #DCE6F3",
"6 	c #E8EDF5",
"7 	c #ECEFF6",
"8 	c #EBEFF5",
"9 	c #EAEFF5",
"0 	c #EAEEF5",
"a 	c #E1E9F3",
"b 	c #D7E4F2",
"c 	c #89ADDA",
"d 	c #6492CC",
"e 	c #729BD0",
"f 	c #B0C8E5",
"g 	c #D1DDED",
"h 	c #E4EAF2",
"i 	c #E9EEF5",
"j 	c #E9EDF4",
"k 	c #DFE5F0",
"l 	c #C4D1E4",
"m 	c #D6DEEC",
"n 	c #E8ECF4",
"o 	c #E7ECF4",
"p 	c #E5EAF3",
"q 	c #D1DFF0",
"r 	c #A6C2E2",
"s 	c #6D97CE",
"t 	c #C8D9EC",
"u 	c #C3D1E4",
"v 	c #93ACCE",
"w 	c #678AB9",
"x 	c #6A8DBB",
"y 	c #99B0D0",
"z 	c #CCD6E6",
"A 	c #D0DAE8",
"B 	c #A2B7D4",
"C 	c #6C8EBC",
"D 	c #7293BF",
"E 	c #BACADF",
"F 	c #EDF0F5",
"G 	c #EDEFF5",
"H 	c #ECEFF5",
"I 	c #ECEEF5",
"J 	c #ECEEF4",
"K 	c #EBEEF4",
"L 	c #DFE7F3",
"M 	c #A9C2E3",
"N 	c #6591CC",
"O 	c #AEC6E4",
"P 	c #DFE4EE",
"Q 	c #A9BAD3",
"R 	c #597FB1",
"S 	c #4C77AF",
"T 	c #517BB1",
"U 	c #4B75AC",
"V 	c #9AAFCC",
"W 	c #E1E5EE",
"X 	c #EBEEF5",
"Y 	c #EBEDF4",
"Z 	c #E9ECF3",
"` 	c #DBE4F2",
" .	c #90B0D9",
"..	c #97B5DB",
"+.	c #DDE5F1",
"@.	c #E6EBF3",
"#.	c #E7EBF3",
"$.	c #DFE3EC",
"%.	c #7C98BE",
"&.	c #6788B3",
"*.	c #CAD2DF",
"=.	c #E5E9F2",
"-.	c #E6EAF3",
";.	c #E4E9F2",
">.	c #E3E8F2",
",.	c #E2E8F2",
"'.	c #E1E7F1",
").	c #D8E3F2",
"!.	c #729ACE",
"~.	c #5887C4",
"{.	c #D2DFEF",
"].	c #E5EAF2",
"^.	c #E6EAF2",
"/.	c #D9E0EA",
"(.	c #D2D9E4",
"_.	c #E3E7EF",
":.	c #D5D9E2",
"<.	c #D3D8E0",
"[.	c #E3E8F0",
"}.	c #E5E9F3",
"|.	c #E2E7F1",
"1.	c #DDE4F0",
"2.	c #A6C1E1",
"3.	c #323D47",
"4.	c #4B5662",
"5.	c #5E6467",
"6.	c #828588",
"7.	c #B9BBBF",
"8.	c #D6D9DE",
"9.	c #EAEDF3",
"0.	c #E4E7ED",
"a.	c #CBCDD2",
"b.	c #9B9EA2",
"c.	c #6D7174",
"d.	c #5B6165",
"e.	c #878D92",
"f.	c #D6D9E0",
"g.	c #EAECF4",
"h.	c #E9EBF3",
"i.	c #E7EAF2",
"j.	c #E2E6F0",
"k.	c #DCE1ED",
"l.	c #D8DDEA",
"m.	c #CEDAED",
"n.	c #749BCD",
"o.	c #9FB2C9",
"p.	c #9A9CA0",
"q.	c #515658",
"r.	c #393F42",
"s.	c #555B5F",
"t.	c #90969A",
"u.	c #B0B4BA",
"v.	c #6E7378",
"w.	c #494F53",
"x.	c #373C3F",
"y.	c #74777B",
"z.	c #CBCDD3",
"A.	c #E8EAF1",
"B.	c #E6E8F2",
"C.	c #DFE2ED",
"D.	c #D9DDEB",
"E.	c #D4D9E8",
"F.	c #D3D9E8",
"G.	c #D7DFEC",
"H.	c #8EAED6",
"I.	c #8FADD6",
"J.	c #D3DEEE",
"K.	c #DDE2EB",
"L.	c #8E9297",
"M.	c #4C5153",
"N.	c #2E3436",
"O.	c #32383A",
"P.	c #555A5D",
"Q.	c #B3B7BD",
"R.	c #DEE1EA",
"S.	c #E6E9F2",
"T.	c #E4E8F2",
"U.	c #E1E6F0",
"V.	c #D6DCEC",
"W.	c #CFD7E8",
"X.	c #CCD5E7",
"Y.	c #CCD4E6",
"Z.	c #CAD3E6",
"`.	c #C9D2E6",
" +	c #CCD6E8",
".+	c #C4D4E9",
"++	c #7CA0CE",
"@+	c #E1E6EF",
"#+	c #DEE3EC",
"$+	c #BDC3CC",
"%+	c #51565A",
"&+	c #2F3537",
"*+	c #787D83",
"=+	c #C1C5CD",
"-+	c #E2E6EE",
";+	c #B9BBBC",
">+	c #AAACAA",
",+	c #AAABAA",
"'+	c #A8A9A9",
")+	c #A6A7A8",
"!+	c #A6A7A7",
"~+	c #A5A7A7",
"{+	c #A5A7A8",
"]+	c #B0B6BA",
"^+	c #4D7DBC",
"/+	c #7B9FCD",
"(+	c #E5E8F0",
"_+	c #E6E8F1",
":+	c #E6E9F1",
"<+	c #E7E9F1",
"[+	c #D9DCE3",
"}+	c #C0C3CA",
"|+	c #E5E7EF",
"1+	c #E9EAF3",
"2+	c #EAEBF4",
"3+	c #ABACA9",
"4+	c #D6D6D5",
"5+	c #C9C9C8",
"6+	c #D7D7D5",
"7+	c #ABADA9",
"8+	c #4678B7",
"9+	c #7A9ECC",
"0+	c #E4E7F0",
"a+	c #E6E8F0",
"b+	c #E8EAF2",
"c+	c #E9EBF4",
"d+	c #ACAEAA",
"e+	c #A0A09E",
"f+	c #757574",
"g+	c #A0A09F",
"h+	c #4274B5",
"i+	c #7D9FCC",
"j+	c #DEE3EE",
"k+	c #E0E4EF",
"l+	c #E1E5F0",
"m+	c #E3E7F0",
"n+	c #E4E7F1",
"o+	c #E5E8F1",
"p+	c #E6E8F3",
"q+	c #BBBBB9",
"r+	c #9D9D9C",
"s+	c #4676B6",
"t+	c #7B9DCA",
"u+	c #E0E6F1",
"v+	c #DDE2ED",
"w+	c #DEE2EE",
"x+	c #DFE3EE",
"y+	c #E0E4EE",
"z+	c #E1E4EF",
"A+	c #E2E5EF",
"B+	c #E3E6F0",
"C+	c #E5E7F1",
"D+	c #E2E4F0",
"E+	c #ADAEAB",
"F+	c #BBBBBA",
"G+	c #B8B8B7",
"H+	c #EEEEEC",
"I+	c #E8E8E6",
"J+	c #DDDDDA",
"K+	c #E2E3E0",
"L+	c #E5E6E3",
"M+	c #4A79B6",
"N+	c #6B92C3",
"O+	c #D5DDEC",
"P+	c #E2E4EE",
"Q+	c #E2E5EE",
"R+	c #E3E5EF",
"S+	c #E4E6EF",
"T+	c #E2DCE4",
"U+	c #DCC3CA",
"V+	c #D7ADB3",
"W+	c #D5A4A9",
"X+	c #D4A1A7",
"Y+	c #D5A5AC",
"Z+	c #D6B2BA",
"`+	c #DAC5CF",
" @	c #AEADA9",
".@	c #C6C6C4",
"+@	c #D3D3D1",
"@@	c #EBEBE9",
"#@	c #ECECEA",
"$@	c #ADAFAB",
"%@	c #BCCDE3",
"&@	c #E1E4EE",
"*@	c #DFDAE4",
"=@	c #CC969D",
"-@	c #B94C50",
";@	c #C54D4F",
">@	c #CF5354",
",@	c #D45556",
"'@	c #D55656",
")@	c #D25555",
"!@	c #CC5153",
"~@	c #C24B4E",
"{@	c #AE4E4D",
"]@	c #C49D9D",
"^@	c #AEAFAB",
"/@	c #86A3CC",
"(@	c #CBABB6",
"_@	c #BF4447",
":@	c #D55050",
"<@	c #F37D7D",
"[@	c #F57E7E",
"}@	c #F57D7D",
"|@	c #F58080",
"1@	c #F58383",
"2@	c #F58686",
"3@	c #EC7979",
"4@	c #CC4848",
"5@	c #9C3F3F",
"6@	c #95807E",
"7@	c #E6E7E4",
"8@	c #AEAFAC",
"9@	c #4976B3",
"0@	c #CFB2BB",
"a@	c #C54C4E",
"b@	c #EB6E6E",
"c@	c #F47373",
"d@	c #F46F6F",
"e@	c #F47070",
"f@	c #F47272",
"g@	c #F47575",
"h@	c #F47676",
"i@	c #F57777",
"j@	c #F57979",
"k@	c #F57C7C",
"l@	c #F58181",
"m@	c #DD6767",
"n@	c #BC5150",
"o@	c #B9B6B4",
"p@	c #E7E7E5",
"q@	c #AEB0AC",
"r@	c #9C3645",
"s@	c #E86666",
"t@	c #F36262",
"u@	c #F36464",
"v@	c #F36565",
"w@	c #F36767",
"x@	c #F46868",
"y@	c #F46969",
"z@	c #F46B6B",
"A@	c #F46C6C",
"B@	c #F46E6E",
"C@	c #DD6262",
"D@	c #CD8E8D",
"E@	c #EDEDEB",
"F@	c #AFB0AC",
"G@	c #BB2E2F",
"H@	c #F26868",
"I@	c #F25959",
"J@	c #F25A5A",
"K@	c #F25B5B",
"L@	c #F25C5C",
"M@	c #F35E5E",
"N@	c #F35F5F",
"O@	c #E26A69",
"P@	c #D17380",
"Q@	c #D17481",
"R@	c #D17582",
"S@	c #D17683",
"T@	c #D17784",
"U@	c #D17986",
"V@	c #D78F99",
"W@	c #BC5756",
"X@	c #EDEDEC",
"Y@	c #AFB0AD",
"Z@	c #BB2D2D",
"`@	c #F07372",
" #	c #F24D4D",
".#	c #F24E4E",
"+#	c #F25050",
"@#	c #F25151",
"##	c #F25353",
"$#	c #F25554",
"%#	c #9BA73A",
"&#	c #7CA4A0",
"*#	c #729FCF",
"=#	c #7AA4D2",
"-#	c #8EA4C2",
";#	c #BD5150",
">#	c #AFB1AD",
",#	c #AD2623",
"'#	c #E0817E",
")#	c #F14848",
"!#	c #F14747",
"~#	c #F14A4A",
"{#	c #E45946",
"]#	c #78CD18",
"^#	c #83B44B",
"/#	c #75A1D0",
"(#	c #98B5D5",
"_#	c #5E707F",
":#	c #BA5B59",
"<#	c #E8E9E6",
"[#	c #B0B1AE",
"}#	c #9C0B0A",
"|#	c #AE4E46",
"1#	c #D98781",
"2#	c #EE817F",
"3#	c #F04948",
"4#	c #B68931",
"5#	c #75D219",
"6#	c #77D31C",
"7#	c #8AA990",
"8#	c #84ABD4",
"9#	c #95B3D7",
"0#	c #98AEC5",
"a#	c #526773",
"b#	c #5E2527",
"c#	c #C4A1A0",
"d#	c #A3110F",
"e#	c #AB4E45",
"f#	c #B77167",
"g#	c #CF7B74",
"h#	c #E67E7B",
"i#	c #EF8B84",
"j#	c #C3CA7E",
"k#	c #AEE579",
"l#	c #AFE277",
"m#	c #B2C785",
"n#	c #94A0AA",
"o#	c #537585",
"p#	c #30535F",
"q#	c #5B2A2C",
"r#	c #B76E6D",
"s#	c #D4D2D0",
"t#	c #9B0201",
"u#	c #A01814",
"v#	c #9E3930",
"w#	c #994437",
"x#	c #955439",
"y#	c #92823C",
"z#	c #888638",
"A#	c #807C35",
"B#	c #776830",
"C#	c #4C413A",
"D#	c #593034",
"E#	c #9D4343",
"F#	c #DDABAA",
"G#	c #F3F0EF",
"H#	c #F4F4F2",
"I#	c #F7F7F6",
"J#	c #970B09",
"K#	c #9A140D",
"L#	c #9C2512",
"M#	c #9A2912",
"N#	c #952511",
"O#	c #8E1B0D",
"P#	c #7C0B08",
"Q#	c #915D59",
"R#	c #A4918E",
"S#	c #939590",
"                                                                ",
"                            . + @ + #                           ",
"                      $ % & * = - ; > , ' )                     ",
"                  ! ~ { ] ^ / ( _ : < [ } | 1 2                 ",
"              3 4 5 6 7 7 7 ^ ^ ^ 8 9 0 0 0 a b c d             ",
"            e f g h 0 0 0 i j j k l m n n n o p q r             ",
"          s t u v w x y z A B C D E F G H I J J K L M N         ",
"          O n H J P Q R S T U V W I G H I X Y Y Y Z `  .        ",
"        ..+.@.@.#.#.#.$.%.&.*.=.@.@.-.-.p p ;.;.>.,.'.).!.      ",
"      ~.{.>.].^.^.-.-.@./.(._.:.<.[.-.}.}.=.;.>.>.|.'.1.2.      ",
"    3.4.5.6.7.8.9.Y 0.a.b.c.d.e.f.Y Y Y g.h.Z h.i.j.k.l.m.n.    ",
"      o.p.q.r.s.t.u.v.w.x.y.z.A.g.g.g.g.g.h.h.B.C.D.E.F.G.H.    ",
"    I.J.j.K.L.M.N.N.O.P.Q.R.S.=.=.S.=.T.T.U.V.W.X.Y.Z.`. +.+    ",
"    +++.@+U.#+$+%+&+*+=+-+S.S.=.;+>+>+,+,+'+)+)+)+!+!+~+{+]+^+  ",
"    /+@.(+_+:+<+[+}+|+1+h.h.2+g.3+4+5+5+5+5+5+5+5+5+5+5+6+7+8+  ",
"    9+@.0+(+a+_+<+<+b+b+b+h.h.c+d+e+f+f+f+f+f+f+f+f+f+f+g+d+h+  ",
"    i+'.j+j+k+k+l+j.m+n+o+o+p+p+d+q+r+r+r+r+r+r+r+r+r+r+q+d+s+  ",
"    t+u+v+w+x+y+z+A+B+n+C+B.B.D+E+F+r+r+G+H+I+J+K+H+I+J+L+E+M+  ",
"    N+O+P+Q+R+S+T+U+V+W+X+Y+Z+`+ @4+.@.@+@H+@@L+I+H+@@L+#@$@    ",
"      %@P+&@*@=@-@;@>@,@'@)@!@~@{@]@.@.@+@H+@@L+I+H+@@L+#@^@    ",
"      /@|+(@_@:@<@[@}@}@[@|@1@2@3@4@5@6@G+H+I+J+K+H+I+J+7@8@    ",
"      9@0@a@b@c@d@e@f@c@g@h@i@j@k@l@m@n@o@H+I+J+K+H+I+J+p@q@    ",
"        r@s@t@t@u@v@w@x@y@z@A@B@d@e@j@C@D@H+@@L+I+H+@@L+E@F@    ",
"        G@H@I@J@K@L@M@N@O@P@Q@R@S@T@U@V@W@H+@@L+I+H+@@L+X@Y@    ",
"        Z@`@ #.#+#@###$#%#&#*#*#*#*#=#-#;#H+I+J+K+H+I+J+I+>#    ",
"        ,#'#v@)#!#)#~#{#]#^#*#*#*#/#(#_#:#H+I+J+K+H+I+J+<#[#    ",
"        }#|#1#2#t@##3#4#5#6#7#8#9#0#a#b#c#H+@@L+I+H+@@L+H+[#    ",
"          d#e#f#g#h#i#j#k#l#m#n#o#p#q#r#s#H+@@L+I+H+@@L+H+[#    ",
"            t#u#v#w#x#y#z#A#B#C#D#E#F#G#H#H#H#H#H#H#H#H#I#Y@    ",
"                  J#K#L#M#N#O#P#Q#R#[#[#[#[#[#[#[#[#[#[#Y@S#    ",
"                                                                ",
"                                                                "};
