/* XPM */
static char * ooo_writer_xpm[] = {
"32 32 446 2",
"  	c None",
". 	c #5889C8",
"+ 	c #5587C8",
"@ 	c #5285C7",
"# 	c #5788C8",
"$ 	c #83A8D6",
"% 	c #93B5DD",
"& 	c #BDD1EA",
"* 	c #D3E1F1",
"= 	c #D8E6F5",
"- 	c #DAE7F6",
"; 	c #D8E5F4",
"> 	c #CDDDEF",
", 	c #B5CBE7",
"' 	c #84AAD8",
") 	c #8BAED9",
"! 	c #7EA4D5",
"~ 	c #B3CBE8",
"{ 	c #D9E3F1",
"] 	c #E9EFF6",
"^ 	c #EBEFF6",
"/ 	c #EEF1F6",
"( 	c #F0F2F7",
"_ 	c #F1F3F7",
": 	c #EFF2F7",
"< 	c #EDF0F6",
"[ 	c #EAEEF6",
"} 	c #E6ECF5",
"| 	c #D1DEEF",
"1 	c #9FBDE2",
"2 	c #6D98CF",
"3 	c #6B97CF",
"4 	c #ACC6E5",
"5 	c #DCE6F3",
"6 	c #E8EDF5",
"7 	c #ECEFF6",
"8 	c #EBEFF5",
"9 	c #EAEFF5",
"0 	c #EAEEF5",
"a 	c #E1E9F3",
"b 	c #D7E4F2",
"c 	c #89ADDA",
"d 	c #6492CC",
"e 	c #729BD0",
"f 	c #B0C8E5",
"g 	c #D1DDED",
"h 	c #E4EAF2",
"i 	c #E9EEF5",
"j 	c #E9EDF4",
"k 	c #DFE5F0",
"l 	c #C4D1E4",
"m 	c #D6DEEC",
"n 	c #E8ECF4",
"o 	c #E7ECF4",
"p 	c #E5EAF3",
"q 	c #D1DFF0",
"r 	c #A6C2E2",
"s 	c #6D97CE",
"t 	c #C8D9EC",
"u 	c #C3D1E4",
"v 	c #93ACCE",
"w 	c #678AB9",
"x 	c #6A8DBB",
"y 	c #99B0D0",
"z 	c #CCD6E6",
"A 	c #D0DAE8",
"B 	c #A2B7D4",
"C 	c #6C8EBC",
"D 	c #7293BF",
"E 	c #BACADF",
"F 	c #EDF0F5",
"G 	c #EDEFF5",
"H 	c #ECEFF5",
"I 	c #ECEEF5",
"J 	c #ECEEF4",
"K 	c #EBEEF4",
"L 	c #DFE7F3",
"M 	c #A9C2E3",
"N 	c #6591CC",
"O 	c #AEC6E4",
"P 	c #DFE4EE",
"Q 	c #A9BAD3",
"R 	c #597FB1",
"S 	c #4C77AF",
"T 	c #517BB1",
"U 	c #4B75AC",
"V 	c #9AAFCC",
"W 	c #E1E5EE",
"X 	c #EBEEF5",
"Y 	c #EBEDF4",
"Z 	c #E9ECF3",
"` 	c #DBE4F2",
" .	c #90B0D9",
"..	c #97B5DB",
"+.	c #DDE5F1",
"@.	c #E6EBF3",
"#.	c #E7EBF3",
"$.	c #DFE3EC",
"%.	c #7C98BE",
"&.	c #6788B3",
"*.	c #CAD2DF",
"=.	c #E5E9F2",
"-.	c #E6EAF3",
";.	c #E4E9F2",
">.	c #E3E8F2",
",.	c #E2E8F2",
"'.	c #E1E7F1",
").	c #D8E3F2",
"!.	c #729ACE",
"~.	c #5887C4",
"{.	c #D2DFEF",
"].	c #E5EAF2",
"^.	c #E6EAF2",
"/.	c #D9E0EA",
"(.	c #D2D9E4",
"_.	c #E3E7EF",
":.	c #D5D9E2",
"<.	c #D3D8E0",
"[.	c #E3E8F0",
"}.	c #E5E9F3",
"|.	c #E2E7F1",
"1.	c #DDE4F0",
"2.	c #A6C1E1",
"3.	c #323D47",
"4.	c #4B5662",
"5.	c #5E6467",
"6.	c #828588",
"7.	c #B9BBBF",
"8.	c #D6D9DE",
"9.	c #EAEDF3",
"0.	c #E4E7ED",
"a.	c #CBCDD2",
"b.	c #9B9EA2",
"c.	c #6D7174",
"d.	c #5B6165",
"e.	c #878D92",
"f.	c #D6D9E0",
"g.	c #EAECF4",
"h.	c #E9EBF3",
"i.	c #E7EAF2",
"j.	c #E2E6F0",
"k.	c #DCE1ED",
"l.	c #D8DDEA",
"m.	c #CEDAED",
"n.	c #749BCD",
"o.	c #9FB2C9",
"p.	c #9A9CA0",
"q.	c #515658",
"r.	c #393F42",
"s.	c #555B5F",
"t.	c #90969A",
"u.	c #B0B4BA",
"v.	c #6E7378",
"w.	c #494F53",
"x.	c #373C3F",
"y.	c #74777B",
"z.	c #CBCDD3",
"A.	c #E8EAF1",
"B.	c #E6E8F2",
"C.	c #DFE2ED",
"D.	c #D9DDEB",
"E.	c #D4D9E8",
"F.	c #D3D9E8",
"G.	c #D7DFEC",
"H.	c #8EAED6",
"I.	c #8FADD6",
"J.	c #D3DEEE",
"K.	c #DDE2EB",
"L.	c #8E9297",
"M.	c #4C5153",
"N.	c #2E3436",
"O.	c #32383A",
"P.	c #555A5D",
"Q.	c #B3B7BD",
"R.	c #D5D9E0",
"S.	c #D0D4DA",
"T.	c #D0D5DA",
"U.	c #D1D4DB",
"V.	c #D1D5DB",
"W.	c #D0D5DC",
"X.	c #D0D5DB",
"Y.	c #C7CDD8",
"Z.	c #C0C8D4",
"`.	c #BDC6D3",
" +	c #BCC5D3",
".+	c #BBC4D2",
"++	c #BAC4D2",
"@+	c #BEC8D5",
"#+	c #BCCADB",
"$+	c #7CA0CE",
"%+	c #E1E6EF",
"&+	c #E1E6F0",
"*+	c #DEE3EC",
"=+	c #BDC3CC",
"-+	c #51565A",
";+	c #2F3537",
">+	c #787D83",
",+	c #C1C5CD",
"'+	c #E2E6EE",
")+	c #C5C7C9",
"!+	c #E4E5E4",
"~+	c #E5E5E4",
"{+	c #E5E6E5",
"]+	c #E6E6E5",
"^+	c #C8CAC9",
"/+	c #4D7DBC",
"(+	c #7B9FCD",
"_+	c #E5E8F0",
":+	c #E6E8F1",
"<+	c #E6E9F1",
"[+	c #E7E9F1",
"}+	c #D9DCE3",
"|+	c #C0C3CA",
"1+	c #E5E7EF",
"2+	c #E9EAF3",
"3+	c #BCBEBE",
"4+	c #F9F9F9",
"5+	c #EEEEEC",
"6+	c #EDEDEB",
"7+	c #ECECEA",
"8+	c #F2F2F1",
"9+	c #CDCDCB",
"0+	c #4678B7",
"a+	c #7A9ECC",
"b+	c #E4E7F0",
"c+	c #E6E8F0",
"d+	c #E8EAF2",
"e+	c #B9BBBB",
"f+	c #B1B2AE",
"g+	c #B0B2AE",
"h+	c #D8D9D6",
"i+	c #EBEBE9",
"j+	c #F1F1F0",
"k+	c #CBCCCA",
"l+	c #4274B5",
"m+	c #7D9FCC",
"n+	c #DEE3EE",
"o+	c #E0E4EF",
"p+	c #E1E5F0",
"q+	c #E3E7F0",
"r+	c #E4E7F1",
"s+	c #E5E8F1",
"t+	c #B4B7B7",
"u+	c #DCDCDA",
"v+	c #DBDCD9",
"w+	c #DBDBD9",
"x+	c #DADBD8",
"y+	c #DADAD8",
"z+	c #DADAD7",
"A+	c #D9D9D7",
"B+	c #E4E4E2",
"C+	c #F0F0EE",
"D+	c #C7C8C5",
"E+	c #4676B6",
"F+	c #7B9DCA",
"G+	c #E0E6F1",
"H+	c #DDE2ED",
"I+	c #DEE2EE",
"J+	c #DFE3EE",
"K+	c #E0E4EE",
"L+	c #E1E4EF",
"M+	c #E2E5EF",
"N+	c #E3E6F0",
"O+	c #E5E7F1",
"P+	c #B2B4B4",
"Q+	c #F9F9F8",
"R+	c #B8B9B6",
"S+	c #B8B9B5",
"T+	c #B7B8B5",
"U+	c #D8D8D6",
"V+	c #EFEFED",
"W+	c #C4C5C2",
"X+	c #4A79B6",
"Y+	c #6B92C3",
"Z+	c #D5DDEC",
"`+	c #E2E4EE",
" @	c #E2E5EE",
".@	c #E3E5EF",
"+@	c #E4E6EF",
"@@	c #E4E6F0",
"#@	c #E5E7F0",
"$@	c #E7E8F1",
"%@	c #E7E8F2",
"&@	c #AEB0B0",
"*@	c #EBEBE8",
"=@	c #C9C9C6",
"-@	c #C8C9C6",
";@	c #C8C9C5",
">@	c #C7C8C4",
",@	c #DCDDDA",
"'@	c #C0C1BE",
")@	c #BCCDE3",
"!@	c #E1E4EE",
"~@	c #E3E5EE",
"{@	c #E3E6EF",
"]@	c #E5E6F0",
"^@	c #E6E7F0",
"/@	c #E4E5EF",
"(@	c #AAACAC",
"_@	c #F8F8F7",
":@	c #CCCCCB",
"<@	c #CACBC9",
"[@	c #E9E9E7",
"}@	c #738BAF",
"|@	c #728BAE",
"1@	c #7B92B3",
"2@	c #DDDDDA",
"3@	c #C7C7C4",
"4@	c #C6C7C4",
"5@	c #DCDCD9",
"6@	c #BDBDBB",
"7@	c #86A3CC",
"8@	c #DADFEC",
"9@	c #DBE0EC",
"0@	c #DDE1EC",
"a@	c #DDE0ED",
"b@	c #DEE1ED",
"c@	c #DEE0ED",
"d@	c #DFE1ED",
"e@	c #A6A8A9",
"f@	c #EAEAE8",
"g@	c #E8E8E6",
"h@	c #617286",
"i@	c #D49F50",
"j@	c #8B8373",
"k@	c #486D9F",
"l@	c #D6D7D4",
"m@	c #B6B7B4",
"n@	c #B6B7B3",
"o@	c #B5B6B3",
"p@	c #D5D5D2",
"q@	c #ECECE9",
"r@	c #B9BAB7",
"s@	c #4976B3",
"t@	c #DDE4EE",
"u@	c #D5DBE9",
"v@	c #D6DBE9",
"w@	c #D6DAE9",
"x@	c #D8DCEA",
"y@	c #DADEEB",
"z@	c #DDE0EC",
"A@	c #E1E3EE",
"B@	c #A6A8A8",
"C@	c #F7F7F6",
"D@	c #E8E8E5",
"E@	c #E7E7E5",
"F@	c #E7E7E4",
"G@	c #79766A",
"H@	c #ECA439",
"I@	c #AA864D",
"J@	c #51729B",
"K@	c #D5D6D3",
"L@	c #B5B6B2",
"M@	c #D4D4D1",
"N@	c #B5B7B3",
"O@	c #84A2CB",
"P@	c #D8DBE8",
"Q@	c #DBDDEA",
"R@	c #DDDFEB",
"S@	c #E0E1ED",
"T@	c #E4E5F0",
"U@	c #A7A9A9",
"V@	c #F6F6F5",
"W@	c #E6E6E3",
"X@	c #895B11",
"Y@	c #8F5902",
"Z@	c #8D5A07",
"`@	c #68727A",
" #	c #D4D5D1",
".#	c #B4B5B2",
"+#	c #D3D3D0",
"@#	c #E9E9E6",
"##	c #B2B3AF",
"$#	c #AABDD9",
"%#	c #E0E2EC",
"&#	c #E2E3EE",
"*#	c #F5F5F4",
"=#	c #CACAC8",
"-#	c #C8C9C7",
";#	c #E5E5E2",
">#	c #C5B79D",
",#	c #C8B697",
"'#	c #C6B599",
")#	c #BABEC0",
"!#	c #DEDEDB",
"~#	c #D3D3CF",
"{#	c #D2D2CF",
"]#	c #AEAFAB",
"^#	c #BAC9DF",
"/#	c #DFE4EF",
"(#	c #DCDFEC",
"_#	c #DEE2ED",
":#	c #A5A8A8",
"<#	c #F4F4F3",
"[#	c #E4E4E1",
"}#	c #D3D4D0",
"|#	c #D2D3D0",
"1#	c #D2D2CE",
"2#	c #E0E0DD",
"3#	c #E6E6E4",
"4#	c #ACADA9",
"5#	c #5B82B6",
"6#	c #AEC0DA",
"7#	c #EBEDF3",
"8#	c #D7DCE9",
"9#	c #DBDFEC",
"0#	c #A4A6A7",
"a#	c #F3F3F2",
"b#	c #E3E3E0",
"c#	c #E2E2DF",
"d#	c #D2D3CF",
"e#	c #D1D1CE",
"f#	c #D1D1CD",
"g#	c #D0D1CD",
"h#	c #DFDFDC",
"i#	c #DFDFDB",
"j#	c #ABACA9",
"k#	c #7C98BD",
"l#	c #D4DCEA",
"m#	c #EAEBF2",
"n#	c #E1E3ED",
"o#	c #DCDEEB",
"p#	c #E1E1DE",
"q#	c #B3B4B0",
"r#	c #B2B3B0",
"s#	c #D0D0CC",
"t#	c #AAACA8",
"u#	c #5C7EAC",
"v#	c #95ADCF",
"w#	c #DCE3EE",
"x#	c #A8AAA9",
"y#	c #E0E0DC",
"z#	c #B1B2AF",
"A#	c #CFCFCB",
"B#	c #AAABA7",
"C#	c #376298",
"D#	c #6687B2",
"E#	c #838D95",
"F#	c #C3C3BF",
"G#	c #C2C3BF",
"H#	c #C1C2BE",
"I#	c #A9AAA6",
"J#	c #7A8183",
"K#	c #898B86",
"L#	c #888A85",
"M#	c #8D908A",
"                                                                ",
"                            . + @ + #                           ",
"                      $ % & * = - ; > , ' )                     ",
"                  ! ~ { ] ^ / ( _ : < [ } | 1 2                 ",
"              3 4 5 6 7 7 7 ^ ^ ^ 8 9 0 0 0 a b c d             ",
"            e f g h 0 0 0 i j j k l m n n n o p q r             ",
"          s t u v w x y z A B C D E F G H I J J K L M N         ",
"          O n H J P Q R S T U V W I G H I X Y Y Y Z `  .        ",
"        ..+.@.@.#.#.#.$.%.&.*.=.@.@.-.-.p p ;.;.>.,.'.).!.      ",
"      ~.{.>.].^.^.-.-.@./.(._.:.<.[.-.}.}.=.;.>.>.|.'.1.2.      ",
"    3.4.5.6.7.8.9.Y 0.a.b.c.d.e.f.Y Y Y g.h.Z h.i.j.k.l.m.n.    ",
"      o.p.q.r.s.t.u.v.w.x.y.z.A.g.g.g.g.g.h.h.B.C.D.E.F.G.H.    ",
"    I.J.j.K.L.M.N.N.O.P.Q.R.S.T.U.V.V.W.W.X.Y.Z.`. +.+++@+#+    ",
"    $++.%+&+*+=+-+;+>+,+'+)+!+!+~+~+{+]+]+]+]+]+]+]+]+]+]+^+/+  ",
"    (+@._+:+<+[+}+|+1+2+h.3+4+5+5+5+5+5+5+5+5+5+6+6+7+7+8+9+0+  ",
"    a+@.b+_+c+:+[+[+d+d+d+e+4+5+5+5+f+f+f+g+g+h+7+i+i+i+j+k+l+  ",
"    m+'.n+n+o+o+p+j.q+r+s+t+4+5+6+6+u+v+w+w+x+y+y+z+A+B+C+D+E+  ",
"    F+G+H+I+J+K+L+M+N+r+O+P+Q+7+7+7+R+R+R+R+R+S+T+T+T+U+V+W+X+  ",
"    Y+Z+`+ @.@+@@@#@:+$@%@&@Q+A+U+*@=@-@-@;@D+D+D+D+>@,@5+'@    ",
"      )@`+!@`+~@{@]@]@^@/@(@_@:@<@[@}@|@|@1@2@3@3@4@4@5@6+6@    ",
"      7@^.8@9@0@a@b@b@c@d@e@_@*@f@g@h@i@j@k@l@m@n@n@o@p@q@r@    ",
"      s@t@8@u@v@w@x@y@z@A@B@C@D@E@F@G@H@I@J@K@o@o@L@L@M@f@N@    ",
"        O@N+P@P@Q@R@S@A@T@U@V@p@M@W@X@Y@Z@`@ #L@.#.#.#+#@###    ",
"          $#N+P@Q@R@%#&#T@U@*#=#-#;#>#,#'#)#!#+#+#~#{#5@D@]#    ",
"            ^#/#E.v@D.(#_#:#<#W@W@[#}#}#+#|#|#{#{#1#2#2#3#4#    ",
"            5#6#7#8#v@x@9#0#a#b#c#c#d#{#{#1#e#e#f#g#h#i#;#j#    ",
"                k#l#m#n#o#0#j+c#p#p#q#q#q#q#r#r#####q#s#b#t#    ",
"                  u#v#w#X x#C+2#2#y#r#r#########z#f+##A#c#B#    ",
"                      C#D#E#5+h#i#i#F#G#G#G#H#H#H#H#H#~#2#I#    ",
"                          J#j+7+7+i+*@f@[@@#D@E@F@W@;#;#W@I#    ",
"                            K#L#L#L#L#L#L#L#L#L#L#L#L#L#L#M#    ",
"                                                                "};
