<?xml version="1.0" encoding="UTF-8" standalone="no"?>
<!-- Created with Inkscape (http://www.inkscape.org/) -->

<svg
   xmlns:dc="http://purl.org/dc/elements/1.1/"
   xmlns:cc="http://creativecommons.org/ns#"
   xmlns:rdf="http://www.w3.org/1999/02/22-rdf-syntax-ns#"
   xmlns:svg="http://www.w3.org/2000/svg"
   xmlns="http://www.w3.org/2000/svg"
   xmlns:sodipodi="http://sodipodi.sourceforge.net/DTD/sodipodi-0.dtd"
   xmlns:inkscape="http://www.inkscape.org/namespaces/inkscape"
   width="104"
   height="36"
   viewBox="0 0 104 36"
   id="svg4593"
   version="1.1"
   inkscape:version="0.91 r13725"
   sodipodi:docname="editBar_entryOrder_white.svg">
  <defs
     id="defs4595" />
  <sodipodi:namedview
     id="base"
     pagecolor="#ffffff"
     bordercolor="#666666"
     borderopacity="1.0"
     inkscape:pageopacity="0.0"
     inkscape:pageshadow="2"
     inkscape:zoom="5.6"
     inkscape:cx="28.585252"
     inkscape:cy="27.583423"
     inkscape:document-units="px"
     inkscape:current-layer="layer1"
     showgrid="false"
     units="px"
     inkscape:window-width="1920"
     inkscape:window-height="1015"
     inkscape:window-x="0"
     inkscape:window-y="0"
     inkscape:window-maximized="1" />
  <metadata
     id="metadata4598">
    <rdf:RDF>
      <cc:Work
         rdf:about="">
        <dc:format>image/svg+xml</dc:format>
        <dc:type
           rdf:resource="http://purl.org/dc/dcmitype/StillImage" />
        <dc:title></dc:title>
      </cc:Work>
    </rdf:RDF>
  </metadata>
  <g
     inkscape:label="Layer 1"
     inkscape:groupmode="layer"
     id="layer1"
     transform="translate(0,-1016.3622)">
    <path
       style="fill:none;fill-opacity:1;fill-rule:evenodd;stroke:#ffffff;stroke-width:4.98329735;stroke-linecap:butt;stroke-linejoin:miter;stroke-miterlimit:4;stroke-dasharray:none;stroke-opacity:1"
       d="m 80.850286,1044.4912 c 0,0 -43.091051,12.3917 -55.144419,-4.5287"
       id="path5317-6-9-9-7"
       inkscape:connector-curvature="0"
       sodipodi:nodetypes="cc" />
    <path
       inkscape:connector-curvature="0"
       d="m 22.657958,1048.8571 3.238609,-0.043 -0.118353,-7.0488 2.239725,-2.3163 7.048607,-0.1183 -0.06567,-3.2384 -12.539773,0.2251 z"
       id="path4-1-3-3-2-36"
       style="fill:#ffffff;fill-opacity:1"
       sodipodi:nodetypes="cccccccc" />
    <path
       style="fill:#ffffff;fill-opacity:1"
       d="m 3.4637887,1043.2927 c -0.99714,-0.1746 -1.7958557,-0.9795 -2.1046956,-2.1211 l -0.07208,-0.2671 -0.00712,-4.882 c -0.00712,-3.6974 -6.941e-4,-4.9337 0.023315,-5.0948 0.1923197,-1.2995 1.1587234,-2.3332 2.2800543,-2.4387 0.1082087,-0.01 0.2114519,-0.032 0.2294986,-0.049 0.017975,-0.016 0.032747,-0.088 0.032747,-0.1599 0,-0.2034 0.075995,-0.6164 0.1591095,-0.8665 0.1190653,-0.3574 0.2989445,-0.6841 0.5319314,-0.9657 0.3598297,-0.435 0.7375814,-0.7 1.216583,-0.8534 l 0.2561771,-0.082 4.2489727,0 4.248973,0 0.234482,0.069 c 0.933496,0.2757 1.652746,1.1164 1.896305,2.2165 0.04307,0.1948 0.0461,0.5315 0.0461,5.1209 l 0,4.9125 -0.05677,0.2473 c -0.129922,0.5637 -0.344577,1.0043 -0.678049,1.391 -0.420003,0.4871 -0.98219,0.802 -1.530691,0.8573 -0.301863,0.031 -0.276822,0 -0.311082,0.355 -0.06816,0.7013 -0.342353,1.3361 -0.787663,1.8228 -0.313468,0.3426 -0.698481,0.5905 -1.133683,0.7299 l -0.222949,0.071 -4.183389,0 c -2.3008417,0 -4.2423877,-0.01 -4.3145209,-0.019 z"
       id="path3072-3-3-2-26-2"
       inkscape:connector-curvature="0"
       sodipodi:nodetypes="cscscccsssscccssscsssssscscc" />
    <path
       style="fill:#ffffff;fill-opacity:1"
       d="m 46.483134,1043.2927 c -0.99714,-0.1746 -1.795856,-0.9795 -2.104696,-2.1211 l -0.07208,-0.2671 -0.0071,-4.882 c -0.0071,-3.6974 -6.94e-4,-4.9337 0.02331,-5.0948 0.19232,-1.2995 1.158724,-2.3332 2.280055,-2.4387 0.108208,-0.01 0.211452,-0.032 0.229498,-0.049 0.01798,-0.016 0.03275,-0.088 0.03275,-0.1599 0,-0.2034 0.07599,-0.6164 0.159109,-0.8665 0.119065,-0.3574 0.298945,-0.6841 0.531932,-0.9657 0.359829,-0.435 0.737581,-0.7 1.216583,-0.8534 l 0.256177,-0.082 4.248972,0 4.248973,0 0.234482,0.069 c 0.933496,0.2757 1.652746,1.1164 1.896305,2.2165 0.04307,0.1948 0.0461,0.5315 0.0461,5.1209 l 0,4.9125 -0.05677,0.2473 c -0.129921,0.5637 -0.344577,1.0043 -0.678048,1.391 -0.420003,0.4871 -0.98219,0.802 -1.530691,0.8573 -0.301864,0.031 -0.276822,0 -0.311083,0.355 -0.06816,0.7013 -0.342352,1.3361 -0.787663,1.8228 -0.313467,0.3426 -0.69848,0.5905 -1.133682,0.7299 l -0.22295,0.071 -4.183389,0 c -2.300841,0 -4.242387,-0.01 -4.314521,-0.019 z"
       id="path3072-3-3-2-7-8-8"
       inkscape:connector-curvature="0"
       sodipodi:nodetypes="cscscccsssscccssscsssssscscc" />
    <g
       transform="matrix(-1.779749,0,0,1.779749,496.93725,731.85492)"
       id="g4897-7-3"
       style="fill:#ffffff;fill-opacity:1">
      <path
         sodipodi:nodetypes="cscscccsssscccssscsssssscscc"
         inkscape:connector-curvature="0"
         id="path3072-3-3-2-26-9-1"
         d="m 228.92821,174.98973 c 0.56027,-0.0981 1.00905,-0.55038 1.18258,-1.19183 l 0.0405,-0.15008 0.004,-2.74308 c 0.004,-2.07744 3.9e-4,-2.77211 -0.0131,-2.86264 -0.10806,-0.73017 -0.65106,-1.31093 -1.28111,-1.37021 -0.0608,-0.005 -0.11881,-0.0179 -0.12895,-0.0273 -0.0101,-0.009 -0.0184,-0.0497 -0.0184,-0.0898 0,-0.11432 -0.0427,-0.34638 -0.0894,-0.48689 -0.0669,-0.2008 -0.16797,-0.38435 -0.29888,-0.54262 -0.20218,-0.2444 -0.41443,-0.39329 -0.68357,-0.47947 l -0.14394,-0.046 -2.3874,0 -2.3874,0 -0.13175,0.0389 c -0.52451,0.1549 -0.92864,0.62727 -1.06549,1.24542 -0.0242,0.10943 -0.0259,0.29861 -0.0259,2.87731 l 0,2.7602 0.0319,0.13898 c 0.073,0.31673 0.19361,0.56427 0.38098,0.78157 0.23599,0.27367 0.55187,0.4506 0.86006,0.4817 0.16961,0.0171 0.15554,0.002 0.17479,0.19945 0.0383,0.39405 0.19236,0.75071 0.44257,1.02419 0.17613,0.19252 0.39246,0.33181 0.63699,0.41012 l 0.12527,0.0401 2.35055,0.002 c 1.29279,0.002 2.3837,-0.003 2.42423,-0.0106 z"
         style="fill:#ffffff;fill-opacity:1" />
    </g>
    <path
       style="fill:none;fill-rule:evenodd;stroke:#ffffff;stroke-width:4.98329735;stroke-linecap:butt;stroke-linejoin:miter;stroke-miterlimit:4;stroke-dasharray:none;stroke-opacity:1"
       d="m 23.149714,1024.2332 c 0,0 43.091051,-12.3917 55.144419,4.5287"
       id="path5317-6-9-9-7-8"
       inkscape:connector-curvature="0"
       sodipodi:nodetypes="cc" />
    <path
       inkscape:connector-curvature="0"
       d="m 81.342042,1019.8673 -3.238609,0.043 0.118353,7.0487 -2.239725,2.3163 -7.048607,0.1184 0.06567,3.2383 12.539773,-0.2251 z"
       id="path4-1-3-3-2-36-4"
       style="fill:#ffffff;fill-opacity:1"
       sodipodi:nodetypes="cccccccc" />
  </g>
</svg>
