<?xml version="1.0" encoding="UTF-8" standalone="no"?>
<!-- Created with Inkscape (http://www.inkscape.org/) -->

<svg
   xmlns:dc="http://purl.org/dc/elements/1.1/"
   xmlns:cc="http://creativecommons.org/ns#"
   xmlns:rdf="http://www.w3.org/1999/02/22-rdf-syntax-ns#"
   xmlns:svg="http://www.w3.org/2000/svg"
   xmlns="http://www.w3.org/2000/svg"
   xmlns:sodipodi="http://sodipodi.sourceforge.net/DTD/sodipodi-0.dtd"
   xmlns:inkscape="http://www.inkscape.org/namespaces/inkscape"
   width="90"
   height="36"
   viewBox="0 0 90 36.000001"
   id="svg4694"
   version="1.1"
   inkscape:version="0.91 r13725"
   sodipodi:docname="editBar_appearance_white.svg">
  <defs
     id="defs4696" />
  <sodipodi:namedview
     id="base"
     pagecolor="#ffffff"
     bordercolor="#666666"
     borderopacity="1.0"
     inkscape:pageopacity="0.0"
     inkscape:pageshadow="2"
     inkscape:zoom="5.6"
     inkscape:cx="58.535248"
     inkscape:cy="33.54636"
     inkscape:document-units="px"
     inkscape:current-layer="layer1"
     showgrid="false"
     units="px"
     inkscape:window-width="1920"
     inkscape:window-height="1015"
     inkscape:window-x="0"
     inkscape:window-y="0"
     inkscape:window-maximized="1" />
  <metadata
     id="metadata4699">
    <rdf:RDF>
      <cc:Work
         rdf:about="">
        <dc:format>image/svg+xml</dc:format>
        <dc:type
           rdf:resource="http://purl.org/dc/dcmitype/StillImage" />
        <dc:title></dc:title>
      </cc:Work>
    </rdf:RDF>
  </metadata>
  <g
     inkscape:label="Layer 1"
     inkscape:groupmode="layer"
     id="layer1"
     transform="translate(0,-1016.3622)">
    <g
       id="g4710"
       transform="translate(-5.9322165,0.4643)"
       style="fill:#ffffff;fill-opacity:1">
      <path
         style="fill:#ffffff;fill-opacity:1"
         id="path5316"
         d="m 16.774719,1027.2868 c 0,-1.5639 1.269332,-2.8333 2.83333,-2.8333 1.563998,0 2.833582,1.2694 2.833582,2.8333 0,1.5658 -1.269584,2.8333 -2.833582,2.8333 -1.563998,0 -2.83333,-1.2675 -2.83333,-2.8333 z m 16.999981,0.9444 -4.75798,7.5556 -4.686453,-3.7022 -7.555548,11.2577 26.444414,0 -9.444433,-15.1111 z m 15.111093,-7.5555 0,26.4444 -37.777733,0 0,-26.4444 37.777733,0 z m 3.777774,-3.7778 -45.3332809,0 0,34 45.3332809,0 0,-34 z"
         inkscape:connector-curvature="0" />
      <path
         style="fill:#ffffff;fill-opacity:1"
         id="path5929"
         d="m 88.867487,1033.8979 c -3.44961,5.0985 -5.666669,8.2874 -5.666669,11.3857 0,3.1026 2.535889,5.6143 5.666669,5.6143 3.13076,0 5.66666,-2.5117 5.66666,-5.6143 0,-3.0983 -2.21706,-6.2872 -5.66666,-11.3857 z m -0.0252,3.6267 c 0.33169,0.5143 0.7281,1.4081 0.7281,2.3515 0,2.7683 -2.83333,3.2217 -2.83333,1.537 0,-1.1572 1.40836,-2.8643 2.10523,-3.8885 z m -11.313429,7.5281 0,-23.9047 -5.666658,0 c -2.272457,0 -2.834842,2.5867 -2.834842,4.2499 l -2.831818,0 0,-8.5 28.331787,0 0.002,8.5 -2.80512,0 c 0,-1.6632 -0.52562,-4.2499 -2.86154,-4.2499 l -5.666663,0 0,16.2179 c -1.762456,2.8873 -2.833325,5.3111 -2.833325,7.9177 0,2.1561 0.824307,4.1195 2.165922,5.6143 l -9.249251,0 0,-2.8333 1.416671,0 c 1.664483,0 2.833325,-1.3487 2.833325,-3.0119 z"
         inkscape:connector-curvature="0" />
    </g>
  </g>
</svg>
