<?xml version="1.0" encoding="UTF-8" standalone="no"?>
<!-- Created with Inkscape (http://www.inkscape.org/) -->

<svg
   xmlns:dc="http://purl.org/dc/elements/1.1/"
   xmlns:cc="http://creativecommons.org/ns#"
   xmlns:rdf="http://www.w3.org/1999/02/22-rdf-syntax-ns#"
   xmlns:svg="http://www.w3.org/2000/svg"
   xmlns="http://www.w3.org/2000/svg"
   xmlns:sodipodi="http://sodipodi.sourceforge.net/DTD/sodipodi-0.dtd"
   xmlns:inkscape="http://www.inkscape.org/namespaces/inkscape"
   width="104"
   height="36"
   viewBox="0 0 104 36"
   id="svg4593"
   version="1.1"
   inkscape:version="0.91 r13725"
   sodipodi:docname="editBar_entryOrder.svg">
  <defs
     id="defs4595" />
  <sodipodi:namedview
     id="base"
     pagecolor="#ffffff"
     bordercolor="#666666"
     borderopacity="1.0"
     inkscape:pageopacity="0.0"
     inkscape:pageshadow="2"
     inkscape:zoom="5.6"
     inkscape:cx="57.424538"
     inkscape:cy="27.583423"
     inkscape:document-units="px"
     inkscape:current-layer="layer1"
     showgrid="false"
     units="px"
     inkscape:window-width="1920"
     inkscape:window-height="1015"
     inkscape:window-x="0"
     inkscape:window-y="0"
     inkscape:window-maximized="1" />
  <metadata
     id="metadata4598">
    <rdf:RDF>
      <cc:Work
         rdf:about="">
        <dc:format>image/svg+xml</dc:format>
        <dc:type
           rdf:resource="http://purl.org/dc/dcmitype/StillImage" />
        <dc:title></dc:title>
      </cc:Work>
    </rdf:RDF>
  </metadata>
  <g
     inkscape:label="Layer 1"
     inkscape:groupmode="layer"
     id="layer1"
     transform="translate(0,-1016.3622)">
    <g
       id="g5064"
       transform="matrix(1.779749,0,0,1.779749,-392.93725,802.99483)">
      <g
         id="g4789-0-7-9"
         transform="matrix(-1,0,0,-1,499.17777,279.86028)">
        <path
           style="fill:none;fill-rule:evenodd;stroke:#282828;stroke-width:2.79999995;stroke-linecap:butt;stroke-linejoin:miter;stroke-miterlimit:4;stroke-dasharray:none;stroke-opacity:1"
           d="m 232.96746,144.16901 c 0,0 24.21187,-6.96259 30.98438,2.5446"
           id="path5317-6-9-9-7"
           inkscape:connector-curvature="0"
           sodipodi:nodetypes="cc" />
        <path
           inkscape:connector-curvature="0"
           d="m 265.66439,141.71595 -1.8197,0.0244 0.0665,3.96052 -1.25845,1.30148 -3.96045,0.0665 0.0369,1.81955 7.04581,-0.12646 z"
           id="path4-1-3-3-2-36"
           style="fill:#282828;fill-opacity:1"
           sodipodi:nodetypes="cccccccc" />
      </g>
      <path
         sodipodi:nodetypes="cscscccsssscccssscsssssscscc"
         inkscape:connector-curvature="0"
         id="path3072-3-3-2-26-2"
         d="m 222.72862,135.01785 c -0.56027,-0.0981 -1.00905,-0.55038 -1.18258,-1.19183 l -0.0405,-0.15008 -0.004,-2.74308 c -0.004,-2.07744 -3.9e-4,-2.77211 0.0131,-2.86264 0.10806,-0.73017 0.65106,-1.31093 1.28111,-1.37021 0.0608,-0.005 0.11881,-0.0179 0.12895,-0.0273 0.0101,-0.009 0.0184,-0.0497 0.0184,-0.0898 0,-0.11432 0.0427,-0.34638 0.0894,-0.48689 0.0669,-0.2008 0.16797,-0.38435 0.29888,-0.54262 0.20218,-0.2444 0.41443,-0.39329 0.68357,-0.47947 l 0.14394,-0.046 2.3874,0 2.3874,0 0.13175,0.0389 c 0.52451,0.1549 0.92864,0.62727 1.06549,1.24542 0.0242,0.10943 0.0259,0.29861 0.0259,2.87731 l 0,2.7602 -0.0319,0.13898 c -0.073,0.31673 -0.19361,0.56427 -0.38098,0.78157 -0.23599,0.27367 -0.55187,0.4506 -0.86006,0.4817 -0.16961,0.0171 -0.15554,0.002 -0.17479,0.19945 -0.0383,0.39405 -0.19236,0.75071 -0.44257,1.02419 -0.17613,0.19252 -0.39246,0.33181 -0.63699,0.41012 l -0.12527,0.0401 -2.35055,0.002 c -1.29279,0.002 -2.3837,-0.003 -2.42423,-0.0106 z"
         style="fill:#282828;fill-opacity:1" />
      <path
         sodipodi:nodetypes="cscscccsssscccssscsssssscscc"
         inkscape:connector-curvature="0"
         id="path3072-3-3-2-7-8-8"
         d="m 246.9002,135.01785 c -0.56027,-0.0981 -1.00905,-0.55038 -1.18258,-1.19183 l -0.0405,-0.15008 -0.004,-2.74308 c -0.004,-2.07744 -3.9e-4,-2.77211 0.0131,-2.86264 0.10806,-0.73017 0.65106,-1.31093 1.28111,-1.37021 0.0608,-0.005 0.11881,-0.0179 0.12895,-0.0273 0.0101,-0.009 0.0184,-0.0497 0.0184,-0.0898 0,-0.11432 0.0427,-0.34638 0.0894,-0.48689 0.0669,-0.2008 0.16797,-0.38435 0.29888,-0.54262 0.20218,-0.2444 0.41443,-0.39329 0.68357,-0.47947 l 0.14394,-0.046 2.3874,0 2.3874,0 0.13175,0.0389 c 0.52451,0.1549 0.92864,0.62727 1.06549,1.24542 0.0242,0.10943 0.0259,0.29861 0.0259,2.87731 l 0,2.7602 -0.0319,0.13898 c -0.073,0.31673 -0.19361,0.56427 -0.38098,0.78157 -0.23599,0.27367 -0.55187,0.4506 -0.86006,0.4817 -0.16961,0.0171 -0.15554,0.002 -0.17479,0.19945 -0.0383,0.39405 -0.19236,0.75071 -0.44257,1.02419 -0.17613,0.19252 -0.39246,0.33181 -0.63699,0.41012 l -0.12527,0.0401 -2.35055,0.002 c -1.29279,0.002 -2.3837,-0.003 -2.42423,-0.0106 z"
         style="fill:#282828;fill-opacity:1" />
      <g
         id="g4897-7-3"
         transform="matrix(-1,0,0,1,500,-39.97188)">
        <path
           style="fill:#282828;fill-opacity:1"
           d="m 228.92821,174.98973 c 0.56027,-0.0981 1.00905,-0.55038 1.18258,-1.19183 l 0.0405,-0.15008 0.004,-2.74308 c 0.004,-2.07744 3.9e-4,-2.77211 -0.0131,-2.86264 -0.10806,-0.73017 -0.65106,-1.31093 -1.28111,-1.37021 -0.0608,-0.005 -0.11881,-0.0179 -0.12895,-0.0273 -0.0101,-0.009 -0.0184,-0.0497 -0.0184,-0.0898 0,-0.11432 -0.0427,-0.34638 -0.0894,-0.48689 -0.0669,-0.2008 -0.16797,-0.38435 -0.29888,-0.54262 -0.20218,-0.2444 -0.41443,-0.39329 -0.68357,-0.47947 l -0.14394,-0.046 -2.3874,0 -2.3874,0 -0.13175,0.0389 c -0.52451,0.1549 -0.92864,0.62727 -1.06549,1.24542 -0.0242,0.10943 -0.0259,0.29861 -0.0259,2.87731 l 0,2.7602 0.0319,0.13898 c 0.073,0.31673 0.19361,0.56427 0.38098,0.78157 0.23599,0.27367 0.55187,0.4506 0.86006,0.4817 0.16961,0.0171 0.15554,0.002 0.17479,0.19945 0.0383,0.39405 0.19236,0.75071 0.44257,1.02419 0.17613,0.19252 0.39246,0.33181 0.63699,0.41012 l 0.12527,0.0401 2.35055,0.002 c 1.29279,0.002 2.3837,-0.003 2.42423,-0.0106 z"
           id="path3072-3-3-2-26-9-1"
           inkscape:connector-curvature="0"
           sodipodi:nodetypes="cscscccsssscccssscsssssscscc" />
      </g>
      <g
         id="g4789-0-7-9-7"
         transform="translate(0.82223,-19.86028)">
        <path
           style="fill:none;fill-rule:evenodd;stroke:#282828;stroke-width:2.79999995;stroke-linecap:butt;stroke-linejoin:miter;stroke-miterlimit:4;stroke-dasharray:none;stroke-opacity:1"
           d="m 232.96746,144.16901 c 0,0 24.21187,-6.96259 30.98438,2.5446"
           id="path5317-6-9-9-7-8"
           inkscape:connector-curvature="0"
           sodipodi:nodetypes="cc" />
        <path
           inkscape:connector-curvature="0"
           d="m 265.66439,141.71595 -1.8197,0.0244 0.0665,3.96052 -1.25845,1.30148 -3.96045,0.0665 0.0369,1.81955 7.04581,-0.12646 z"
           id="path4-1-3-3-2-36-4"
           style="fill:#282828;fill-opacity:1"
           sodipodi:nodetypes="cccccccc" />
      </g>
    </g>
  </g>
</svg>
