<?xml version="1.0" encoding="UTF-8" standalone="no"?>
<!-- Created with Inkscape (http://www.inkscape.org/) -->

<svg
   xmlns:dc="http://purl.org/dc/elements/1.1/"
   xmlns:cc="http://creativecommons.org/ns#"
   xmlns:rdf="http://www.w3.org/1999/02/22-rdf-syntax-ns#"
   xmlns:svg="http://www.w3.org/2000/svg"
   xmlns="http://www.w3.org/2000/svg"
   xmlns:sodipodi="http://sodipodi.sourceforge.net/DTD/sodipodi-0.dtd"
   xmlns:inkscape="http://www.inkscape.org/namespaces/inkscape"
   width="90"
   height="36"
   viewBox="0 0 90 36"
   id="svg4593"
   version="1.1"
   inkscape:version="0.91 r13725"
   sodipodi:docname="editBar_entryOrder_white.svg">
  <defs
     id="defs4595" />
  <sodipodi:namedview
     id="base"
     pagecolor="#ffffff"
     bordercolor="#666666"
     borderopacity="1.0"
     inkscape:pageopacity="0.0"
     inkscape:pageshadow="2"
     inkscape:zoom="5.6568542"
     inkscape:cx="55.039075"
     inkscape:cy="53.181919"
     inkscape:document-units="px"
     inkscape:current-layer="layer1"
     showgrid="false"
     units="px"
     inkscape:window-width="1920"
     inkscape:window-height="1015"
     inkscape:window-x="0"
     inkscape:window-y="0"
     inkscape:window-maximized="1"
     inkscape:snap-bbox="true"
     inkscape:bbox-nodes="true"
     inkscape:snap-bbox-edge-midpoints="true"
     inkscape:snap-bbox-midpoints="true"
     inkscape:object-paths="true"
     inkscape:snap-intersection-paths="true"
     inkscape:object-nodes="true"
     inkscape:snap-smooth-nodes="true"
     inkscape:snap-object-midpoints="true"
     inkscape:snap-center="true"
     inkscape:snap-midpoints="true"
     inkscape:snap-global="false" />
  <metadata
     id="metadata4598">
    <rdf:RDF>
      <cc:Work
         rdf:about="">
        <dc:format>image/svg+xml</dc:format>
        <dc:type
           rdf:resource="http://purl.org/dc/dcmitype/StillImage" />
        <dc:title></dc:title>
      </cc:Work>
    </rdf:RDF>
  </metadata>
  <g
     inkscape:label="Layer 1"
     inkscape:groupmode="layer"
     id="layer1"
     transform="translate(0,-1016.3622)">
    <path
       style="fill:#ffffff;fill-opacity:1;stroke:none;stroke-opacity:1"
       d="M 36.412109 5 C 35.539141 5 34.835937 5.7030719 34.835938 6.5761719 L 34.835938 7.0488281 L 34.363281 7.0488281 C 33.490313 7.0488281 32.787109 7.7502469 32.787109 8.6230469 L 32.787109 14.199219 L 36.587891 14.199219 L 36.587891 9.8007812 C 36.587891 9.2467812 37.033891 8.8007812 37.587891 8.8007812 L 52.412109 8.8007812 C 52.96611 8.8007812 53.412109 9.2467812 53.412109 9.8007812 L 53.412109 14.199219 L 57.212891 14.199219 L 57.212891 6.5761719 C 57.212891 5.7030719 56.509688 5 55.636719 5 L 36.412109 5 z M 32.787109 21.800781 L 32.787109 29.423828 C 32.787109 30.296928 33.490313 31 34.363281 31 L 53.587891 31 C 54.460859 31 55.164062 30.296928 55.164062 29.423828 L 55.164062 28.951172 L 55.636719 28.951172 C 56.509688 28.951172 57.212891 28.248 57.212891 27.375 L 57.212891 21.800781 L 53.412109 21.800781 L 53.412109 26.199219 C 53.412109 26.753219 52.96611 27.199219 52.412109 27.199219 L 37.587891 27.199219 C 37.033891 27.199219 36.587891 26.753219 36.587891 26.199219 L 36.587891 21.800781 L 32.787109 21.800781 z "
       transform="translate(0,1016.3622)"
       id="rect6266-3-37-2" />
    <rect
       style="fill:#ffff00;fill-opacity:1;stroke:none;stroke-opacity:1"
       id="rect6283"
       width="155"
       height="165"
       x="-394.03052"
       y="1046.4612" />
    <path
       inkscape:connector-curvature="0"
       d="m 75.554755,1028.5477 -1.479893,1.5201 3.319516,3.2099 0.03547,2.1102 -3.209842,3.3193 1.530314,1.4695 5.703664,-5.9121 z"
       id="path4-1-3-3-2-36-4"
       style="fill:#ffffff;fill-opacity:1"
       sodipodi:nodetypes="cccccccc" />
    <rect
       style="fill:#ffffff;fill-opacity:1;stroke:none;stroke-width:1.89999998;stroke-miterlimit:4;stroke-dasharray:7.5999999, 1.89999998000000003;stroke-dashoffset:0;stroke-opacity:1"
       id="rect8181"
       width="68.116096"
       height="3.8"
       x="10.546017"
       y="1032.4622" />
    <path
       style="fill:#ffffff;fill-opacity:1;stroke:none;stroke-opacity:1"
       d="M 4.625 5 C 3.752032 5 3.0488281 5.7030719 3.0488281 6.5761719 L 3.0488281 7.0488281 L 2.5761719 7.0488281 C 1.7032039 7.0488281 1 7.7502469 1 8.6230469 L 1 29.423828 C 1 30.296928 1.7032039 31 2.5761719 31 L 21.800781 31 C 22.673749 31 23.376953 30.296928 23.376953 29.423828 L 23.376953 28.951172 L 23.849609 28.951172 C 24.722578 28.951172 25.425781 28.248 25.425781 27.375 L 25.425781 21.800781 L 21.625 21.800781 L 21.625 26.199219 C 21.625 26.753219 21.179001 27.199219 20.625 27.199219 L 5.8007812 27.199219 C 5.2467812 27.199219 4.8007813 26.753219 4.8007812 26.199219 L 4.8007812 9.8007812 C 4.8007812 9.2467812 5.2467812 8.8007812 5.8007812 8.8007812 L 20.625 8.8007812 C 21.179001 8.8007812 21.625 9.2467812 21.625 9.8007812 L 21.625 14.199219 L 25.425781 14.199219 L 25.425781 6.5761719 C 25.425781 5.7030719 24.722578 5 23.849609 5 L 4.625 5 z "
       transform="translate(0,1016.3622)"
       id="rect6266-3-37" />
    <path
       style="fill:#ffffff;fill-opacity:1;stroke:none;stroke-opacity:1"
       d="M 68.199219 5 C 67.326243 5 66.623047 5.7030719 66.623047 6.5761719 L 66.623047 7.0488281 L 66.150391 7.0488281 C 65.277415 7.0488281 64.574219 7.7502469 64.574219 8.6230469 L 64.574219 14.199219 L 68.375 14.199219 L 68.375 9.8007812 C 68.375 9.2467812 68.820995 8.8007812 69.375 8.8007812 L 72.986328 8.8007812 L 72.986328 5 L 68.199219 5 z M 80.587891 5 L 80.587891 8.8007812 L 84.199219 8.8007812 C 84.753225 8.8007812 85.199219 9.2467814 85.199219 9.8007812 L 85.199219 14.199219 L 89 14.199219 L 89 6.5761719 C 89 5.7030719 88.296807 5 87.423828 5 L 80.587891 5 z M 64.574219 21.800781 L 64.574219 29.423828 C 64.574219 30.296928 65.277415 31 66.150391 31 L 72.986328 31 L 72.986328 27.199219 L 69.375 27.199219 C 68.820995 27.199219 68.375 26.753219 68.375 26.199219 L 68.375 21.800781 L 64.574219 21.800781 z M 85.199219 21.800781 L 85.199219 26.199219 C 85.199219 26.753219 84.753225 27.199219 84.199219 27.199219 L 80.587891 27.199219 L 80.587891 31 L 85.375 31 C 86.247976 31 86.951172 30.296928 86.951172 29.423828 L 86.951172 28.951172 L 87.423828 28.951172 C 88.296807 28.951172 89 28.248 89 27.375 L 89 21.800781 L 85.199219 21.800781 z "
       transform="translate(0,1016.3622)"
       id="rect6266-3-37-28" />
  </g>
</svg>
