<?xml version="1.0" encoding="UTF-8" standalone="no"?>
<!-- Created with Inkscape (http://www.inkscape.org/) -->

<svg
   xmlns:dc="http://purl.org/dc/elements/1.1/"
   xmlns:cc="http://creativecommons.org/ns#"
   xmlns:rdf="http://www.w3.org/1999/02/22-rdf-syntax-ns#"
   xmlns:svg="http://www.w3.org/2000/svg"
   xmlns="http://www.w3.org/2000/svg"
   xmlns:sodipodi="http://sodipodi.sourceforge.net/DTD/sodipodi-0.dtd"
   xmlns:inkscape="http://www.inkscape.org/namespaces/inkscape"
   width="27.96076mm"
   height="27.962248mm"
   viewBox="0 0 99.073559 99.078831"
   id="svg10394"
   version="1.1"
   inkscape:version="0.91 r13725"
   sodipodi:docname="portal-logo-dummy.svg">
  <defs
     id="defs10396" />
  <sodipodi:namedview
     id="base"
     pagecolor="#ffffff"
     bordercolor="#666666"
     borderopacity="1.0"
     inkscape:pageopacity="0.0"
     inkscape:pageshadow="2"
     inkscape:zoom="2.8"
     inkscape:cx="40.273728"
     inkscape:cy="42.237729"
     inkscape:document-units="px"
     inkscape:current-layer="g10361"
     showgrid="false"
     fit-margin-top="0"
     fit-margin-left="0"
     fit-margin-right="0"
     fit-margin-bottom="0"
     inkscape:window-width="1920"
     inkscape:window-height="1031"
     inkscape:window-x="0"
     inkscape:window-y="25"
     inkscape:window-maximized="1" />
  <metadata
     id="metadata10399">
    <rdf:RDF>
      <cc:Work
         rdf:about="">
        <dc:format>image/svg+xml</dc:format>
        <dc:type
           rdf:resource="http://purl.org/dc/dcmitype/StillImage" />
        <dc:title />
      </cc:Work>
    </rdf:RDF>
  </metadata>
  <g
     inkscape:label="Ebene 1"
     inkscape:groupmode="layer"
     id="layer1"
     transform="translate(-456.17751,-337.10852)">
    <g
       transform="matrix(1.25,0,0,-1.25,-331.99492,1216.8701)"
       style="display:inline;opacity:1"
       id="g10361">
      <g
         transform="matrix(2.1094628,0,0,-2.1094628,630.53773,2842.1369)"
         id="g9515"
         style="display:inline;opacity:1;fill:#d3d3d3;fill-opacity:1;stroke:none">
        <path
           inkscape:connector-curvature="0"
           d="m 31.311102,1013.682 -18.787,0 c -3.4570001,0 -6.2570001,2.801 -6.2620001,6.257 l -0.006,0 0,0.01 c -3.457,0 -6.25599998855,2.804 -6.25599998855,6.261 l 0,18.787 c 0,3.46 2.80399998855,6.263 6.26199998855,6.263 l 18.7870001,0 c 3.459,0 6.262,-2.803 6.262,-6.263 3.458,0 6.262,-2.803 6.262,-6.263 l 0,-18.786 c 0,-3.459 -2.804,-6.263 -6.262,-6.263"
           id="path9527"
           style="color:#000000;clip-rule:nonzero;display:inline;overflow:visible;visibility:visible;opacity:1;isolation:auto;mix-blend-mode:normal;color-interpolation:sRGB;color-interpolation-filters:linearRGB;solid-color:#000000;solid-opacity:1;fill:#d3d3d3;fill-opacity:1;fill-rule:nonzero;stroke:none;stroke-width:0.62565035;stroke-linecap:butt;stroke-linejoin:miter;stroke-miterlimit:4;stroke-dasharray:none;stroke-dashoffset:0;stroke-opacity:1;color-rendering:auto;image-rendering:auto;shape-rendering:auto;text-rendering:auto;enable-background:accumulate" />
      </g>
      <path
         inkscape:connector-curvature="0"
         d="m 675.77855,643.68488 c 0,-2.97686 -2.40737,-5.39286 -5.3907,-5.39286 -2.97254,0 -5.3907,2.416 -5.3907,5.39286 0,2.97686 2.41816,5.39285 5.3907,5.39285 2.98333,0 5.3907,-2.41383 5.3907,-5.39285 z m -5.2203,46.37857 c -8.69112,0 -15.22942,-5.80919 -15.22942,-17.25714 l 8.5315,0 c 0,4.97005 1.95437,9.03627 6.5232,9.03627 2.68995,0 5.54385,-1.78612 5.78977,-5.20088 0.26533,-3.5938 -1.65453,-5.41658 -4.08131,-7.72688 -6.30748,-5.99686 -6.07452,-8.73428 -6.07452,-15.5228 l 8.50561,0 c 0,3.13217 -0.33867,5.41012 3.96483,10.05012 2.87116,3.09766 6.44124,6.95032 6.51673,12.8199 0.10144,8.54877 -5.9343,13.80141 -14.44639,13.80141 z"
         id="path6219"
         style="fill:#ffffff;fill-opacity:1" />
    </g>
  </g>
</svg>
