<?xml version="1.0" encoding="UTF-8" standalone="no"?>
<!-- The icon can be used freely in both personal and commercial projects with no attribution required, but always appreciated. 
You may NOT sub-license, resell, rent, redistribute or otherwise transfer the icon without express written permission from iconmonstr.com -->

<svg
   xmlns:dc="http://purl.org/dc/elements/1.1/"
   xmlns:cc="http://creativecommons.org/ns#"
   xmlns:rdf="http://www.w3.org/1999/02/22-rdf-syntax-ns#"
   xmlns:svg="http://www.w3.org/2000/svg"
   xmlns="http://www.w3.org/2000/svg"
   xmlns:sodipodi="http://sodipodi.sourceforge.net/DTD/sodipodi-0.dtd"
   xmlns:inkscape="http://www.inkscape.org/namespaces/inkscape"
   version="1.1"
   x="0px"
   y="0px"
   width="512px"
   height="512px"
   viewBox="0 0 512 512"
   enable-background="new 0 0 512 512"
   xml:space="preserve"
   id="svg2"
   inkscape:version="0.48.3.1 r9886"
   sodipodi:docname="umc-menu-settings.svg"><metadata
   id="metadata9"><rdf:RDF><cc:Work
       rdf:about=""><dc:format>image/svg+xml</dc:format><dc:type
         rdf:resource="http://purl.org/dc/dcmitype/StillImage" /><dc:title /></cc:Work></rdf:RDF></metadata><defs
   id="defs7" /><sodipodi:namedview
   pagecolor="#58585a"
   bordercolor="#666666"
   borderopacity="1"
   objecttolerance="10"
   gridtolerance="10"
   guidetolerance="10"
   inkscape:pageopacity="1"
   inkscape:pageshadow="2"
   inkscape:window-width="1172"
   inkscape:window-height="649"
   id="namedview5"
   showgrid="false"
   inkscape:zoom="0.5"
   inkscape:cx="-79"
   inkscape:cy="256"
   inkscape:window-x="250"
   inkscape:window-y="217"
   inkscape:window-maximized="0"
   inkscape:current-layer="svg2" />

<path
   style="fill:#ffffff"
   d="M 233.15625 78 L 224.3125 102.84375 C 217.62722 123.64582 191.97411 135.05608 172.03125 126.15625 C 163.40336 122.24674 154.87436 118.02367 146.28125 114 L 114 146.28125 C 120.20304 161.34077 131.9019 176.02944 128.65625 193.25 C 126.39553 209.59036 112.98859 222.54404 97.1875 226.3125 L 78 233.15625 L 78 278.84375 C 93.035291 285.08562 111.7538 287.2723 121.625 301.6875 C 131.51306 314.83581 131.1956 333.5152 122.71875 347.3125 L 113.96875 365.71875 L 146.28125 398 C 161.34077 391.79696 176.02944 380.0981 193.25 383.34375 C 209.58802 385.6127 222.55135 399.00791 226.3125 414.8125 L 233.15625 434 L 278.84375 434 C 285.02973 418.9355 287.37556 400.19727 301.75 390.375 C 314.7455 380.52028 333.38551 380.69437 347.125 389.15625 L 365.71875 398 L 398 365.71875 C 391.7849 350.67396 380.10548 335.97272 383.34375 318.75 C 385.58652 302.44299 399.01698 289.44572 414.8125 285.6875 L 434 278.84375 L 434 233.15625 C 418.95546 226.89937 400.28354 224.7505 390.375 210.3125 C 380.4818 197.16714 380.78731 178.48576 389.25 164.6875 L 398 146.28125 L 365.71875 114 C 350.65923 120.20304 335.97056 131.9019 318.75 128.65625 C 302.40663 126.39441 289.44493 112.97754 285.6875 97.1875 L 278.84375 78 L 233.15625 78 z M 256 172 C 302.39192 172 340 209.60808 340 256 C 340 302.39192 302.39192 340 256 340 C 209.60808 340 172 302.39192 172 256 C 172 209.60808 209.60808 172 256 172 z "
   id="gear-icon" />

</svg>