<?xml version="1.0" encoding="UTF-8" standalone="no"?>
<!-- The icon can be used freely in both personal and commercial projects with no attribution required, but always appreciated. 
You may NOT sub-license, resell, rent, redistribute or otherwise transfer the icon without express written permission from iconmonstr.com -->

<svg
   xmlns:dc="http://purl.org/dc/elements/1.1/"
   xmlns:cc="http://creativecommons.org/ns#"
   xmlns:rdf="http://www.w3.org/1999/02/22-rdf-syntax-ns#"
   xmlns:svg="http://www.w3.org/2000/svg"
   xmlns="http://www.w3.org/2000/svg"
   xmlns:sodipodi="http://sodipodi.sourceforge.net/DTD/sodipodi-0.dtd"
   xmlns:inkscape="http://www.inkscape.org/namespaces/inkscape"
   version="1.1"
   x="0px"
   y="0px"
   width="512px"
   height="512px"
   viewBox="0 0 512 512"
   enable-background="new 0 0 512 512"
   xml:space="preserve"
   id="svg2"
   inkscape:version="0.48.3.1 r9886"
   sodipodi:docname="umc-menu-logout.svg"
   inkscape:export-filename="/home/aklaeser/svn/ucs31/management/univention-management-console-frontend/icons/umc-menu-settings.png"
   inkscape:export-xdpi="43.950001"
   inkscape:export-ydpi="43.950001"><metadata
   id="metadata9"><rdf:RDF><cc:Work
       rdf:about=""><dc:format>image/svg+xml</dc:format><dc:type
         rdf:resource="http://purl.org/dc/dcmitype/StillImage" /><dc:title /></cc:Work></rdf:RDF></metadata><defs
   id="defs7" /><sodipodi:namedview
   pagecolor="#58585a"
   bordercolor="#666666"
   borderopacity="1"
   objecttolerance="10"
   gridtolerance="10"
   guidetolerance="10"
   inkscape:pageopacity="1"
   inkscape:pageshadow="2"
   inkscape:window-width="1191"
   inkscape:window-height="649"
   id="namedview5"
   showgrid="false"
   inkscape:zoom="0.53417969"
   inkscape:cx="-28.29639"
   inkscape:cy="264.32795"
   inkscape:window-x="156"
   inkscape:window-y="262"
   inkscape:window-maximized="0"
   inkscape:current-layer="svg2"><inkscape:grid
     type="xygrid"
     id="grid3876"
     empspacing="5"
     visible="true"
     enabled="true"
     snapvisiblegridlinesonly="true" /></sodipodi:namedview>



<g
   id="g3842"
   transform="matrix(0.9080189,0,0,0.9080189,19.715874,12.636941)"><path
     style="fill:#ffffff;fill-opacity:1;stroke-width:5;stroke-miterlimit:4;stroke-dasharray:none"
     d="m 218.125,112.78125 c -63.20611,17.19631 -111.9783,78.13511 -113.46875,143.8125 -2.82858,64.50092 38.14054,128.86048 99.21141,151.11717 52.34757,20.44435 115.73242,10.6085 157.88234,-27.17967 41.10909,-35.27507 62.55902,-93.44768 51.3125,-146.875 C 402.61242,177.849 359.97429,129.46843 305.25,113.8125 c -6.37559,-3.61332 -2.07009,6.99428 -3.3125,10.25 0.0167,12.0836 -0.0286,24.16735 -0.1875,36.25 48.48405,19.08562 79.04766,75.66514 66.21468,126.72486 -10.49417,47.35412 -54.83949,85.59846 -103.93297,85.96168 -44.93917,1.74772 -89.78296,-26.14397 -105.94531,-68.36056 -16.55594,-39.78937 -7.62604,-89.32397 23.62071,-119.37684 10.44524,-10.63121 23.09121,-19.12246 36.85539,-24.79289 -0.0471,-15.93672 0.77341,-31.88193 0.0312,-47.8125 l -0.46875,0.125 z"
     id="path3060"
     inkscape:connector-curvature="0" /><path
     style="fill:#ffffff;fill-opacity:1;stroke-width:5;stroke-miterlimit:4;stroke-dasharray:none"
     d="m 277,64.5 c -12.95211,1.679964 -26.3065,-1.914449 -39,1.46875 -3.72389,6.255482 0.13438,13.912659 -1.29216,20.749897 0.43431,49.581953 -0.98932,99.182723 0.76091,148.750103 6.29902,4.47361 14.52598,0.40302 21.65625,1.5 7.78165,-0.35389 17.17776,2.64684 23.875,-1.96875 2.74724,-7.29712 -0.8172,-15.24284 0.7363,-22.7812 C 283.25791,163.58957 284.85962,114.74075 282.875,66.25 281.3742,64.731005 279.06523,64.268787 277,64.5 z"
     id="rect3833"
     inkscape:connector-curvature="0" /></g></svg>