<?xml version="1.0" encoding="UTF-8" standalone="no"?>
<!-- The icon can be used freely in both personal and commercial projects with no attribution required, but always appreciated. 
You may NOT sub-license, resell, rent, redistribute or otherwise transfer the icon without express written permission from iconmonstr.com -->

<svg
   xmlns:dc="http://purl.org/dc/elements/1.1/"
   xmlns:cc="http://creativecommons.org/ns#"
   xmlns:rdf="http://www.w3.org/1999/02/22-rdf-syntax-ns#"
   xmlns:svg="http://www.w3.org/2000/svg"
   xmlns="http://www.w3.org/2000/svg"
   xmlns:sodipodi="http://sodipodi.sourceforge.net/DTD/sodipodi-0.dtd"
   xmlns:inkscape="http://www.inkscape.org/namespaces/inkscape"
   version="1.1"
   x="0px"
   y="0px"
   width="4096"
   height="512"
   viewBox="0 0 4096 512"
   enable-background="new 0 0 512 512"
   xml:space="preserve"
   id="svg2"
   inkscape:version="0.48.3.1 r9886"
   sodipodi:docname="umc-menu.svg"><metadata
   id="metadata9"><rdf:RDF><cc:Work
       rdf:about=""><dc:format>image/svg+xml</dc:format><dc:type
         rdf:resource="http://purl.org/dc/dcmitype/StillImage" /><dc:title /></cc:Work></rdf:RDF></metadata><defs
   id="defs7" /><sodipodi:namedview
   pagecolor="#58585a"
   bordercolor="#666666"
   borderopacity="1"
   objecttolerance="10"
   gridtolerance="10"
   guidetolerance="10"
   inkscape:pageopacity="0"
   inkscape:pageshadow="2"
   inkscape:window-width="1172"
   inkscape:window-height="649"
   id="namedview5"
   showgrid="false"
   inkscape:zoom="0.25000001"
   inkscape:cx="2635.4266"
   inkscape:cy="-2.5447476"
   inkscape:window-x="460"
   inkscape:window-y="172"
   inkscape:window-maximized="0"
   inkscape:current-layer="text7524"
   fit-margin-top="0"
   fit-margin-left="0"
   fit-margin-right="0"
   fit-margin-bottom="0" />



<g
   id="g7110"
   transform="translate(2048,0)"><rect
     y="0"
     x="0"
     height="512"
     width="512"
     id="rect3781"
     style="fill:#58585a;fill-opacity:1;stroke-width:5;stroke-miterlimit:4;stroke-dasharray:none" /><rect
     style="fill:#7e7e81;fill-opacity:1;stroke-width:5;stroke-miterlimit:4;stroke-dasharray:none"
     id="rect3783"
     width="512"
     height="512"
     x="512"
     y="0" /><path
     style="fill:#ffffff;fill-opacity:1;stroke-width:5;stroke-miterlimit:4;stroke-dasharray:none"
     d="m 253.5499,86.573548 c -29.6037,-0.19536 -60.9762,10.17489 -79.3437,34.343752 -15.9722,20.45619 -22.5129,47.03635 -23.7188,72.75 18.7188,0 37.4375,0 56.1563,0 1.5831,-19.26944 8.8058,-41.08448 27.5937,-49.84375 21.8909,-9.80693 52.5545,-3.25681 63.7813,19.1875 8.1006,15.83103 6.8339,36.26528 -4.3125,50.3125 -16.6517,23.34038 -45.4181,36.24373 -57.5938,63.09375 -6.5808,13.9447 -7.9426,29.61466 -7.625,44.9375 19.25,0 38.5,0 57.75,0 -1.5361,-17.04807 7.0741,-32.76242 18.6407,-44.52181 19.4496,-20.29379 43.4696,-38.86414 52.1718,-66.85319 12.1359,-36.73644 -1.0395,-80.9755 -32.7187,-103.375 C 304.052,91.694498 278.3666,86.219398 253.5499,86.573548 z m 4.3438,267.875002 c -21.0888,-0.0257 -38.2933,20.94222 -34,41.6875 3.0082,20.46145 26.0168,34.31325 45.5312,27.59375 19.7616,-5.56628 30.7457,-29.90101 21.7188,-48.46875 -5.6866,-12.76614 -19.0466,-21.31141 -33.25,-20.8125 z"
     id="path2986"
     inkscape:connector-curvature="0" /><path
     inkscape:connector-curvature="0"
     id="path3945"
     d="m 765.5499,86.573548 c -29.6037,-0.19536 -60.9762,10.17489 -79.3437,34.343752 -15.9722,20.45619 -22.5129,47.03635 -23.7188,72.75 18.7188,0 37.4375,0 56.1563,0 1.5831,-19.26944 8.8058,-41.08448 27.5937,-49.84375 21.8909,-9.80693 52.5545,-3.25681 63.7813,19.1875 8.1006,15.83103 6.8339,36.26528 -4.3125,50.3125 -16.6517,23.34038 -45.4181,36.24373 -57.5938,63.09375 -6.5808,13.9447 -7.9426,29.61466 -7.625,44.9375 19.25,0 38.5,0 57.75,0 -1.5361,-17.04807 7.0741,-32.76242 18.6407,-44.52181 19.4496,-20.29379 43.4696,-38.86414 52.1718,-66.85319 12.1359,-36.73644 -1.0395,-80.9755 -32.7187,-103.375 C 816.052,91.694498 790.3666,86.219398 765.5499,86.573548 z m 4.3438,267.875002 c -21.0888,-0.0257 -38.2933,20.94222 -34,41.6875 3.0082,20.46145 26.0168,34.31325 45.5312,27.59375 19.7616,-5.56628 30.7457,-29.90101 21.7188,-48.46875 -5.6866,-12.76614 -19.0466,-21.31141 -33.25,-20.8125 z"
     style="fill:#ffffff;fill-opacity:1;stroke-width:5;stroke-miterlimit:4;stroke-dasharray:none" /></g><g
   id="g7116"
   transform="translate(2048,0)"><rect
   style="fill:#58585a;fill-opacity:1;stroke-width:5;stroke-miterlimit:4;stroke-dasharray:none"
   id="rect7040"
   width="512"
   height="512"
   x="1024"
   y="0" /><rect
   y="0"
   x="1536"
   height="512"
   width="512"
   id="rect7042"
   style="fill:#7e7e81;fill-opacity:1;stroke-width:5;stroke-miterlimit:4;stroke-dasharray:none" /><g
   style="font-size:455.53408813px;font-style:normal;font-variant:normal;font-weight:500;font-stretch:normal;line-height:125%;letter-spacing:0px;word-spacing:0px;writing-mode:tb-rl;fill:#ffffff;fill-opacity:1;stroke:none;display:inline;font-family:Century Schoolbook L;-inkscape-font-specification:Century Schoolbook L Medium"
   id="text7524"><path
     d="m 1315.7593,208.3967 -107.0505,3.18873 0,23.23224 6.3775,0 c 27.7875,0 29.1542,2.27771 29.1542,42.82021 l 0,80.62953 0,20.95457 c 0,18.22134 -5.0109,21.4101 -33.7096,21.4101 l -1.8221,0 0,23.23224 142.5822,0 0,-23.23224 -2.7332,0 c -27.7876,0 -32.7985,-3.18876 -32.7985,-20.95457 l 0,-21.4101 0,-149.87071 M 1278.8611,88.135696 c -22.3212,0 -40.5426,18.221384 -40.5426,40.087004 0,21.86561 18.2214,40.54253 39.6315,40.54253 22.7767,0 40.9981,-17.76585 40.9981,-40.54253 0,-21.86562 -18.2214,-40.087004 -40.087,-40.087004"
     style="font-weight:bold;writing-mode:lr-tb;-inkscape-font-specification:Century Schoolbook L Bold"
     id="path3011" /></g>
<g
   style="font-size:455.53408813px;font-style:normal;font-variant:normal;font-weight:500;font-stretch:normal;line-height:125%;letter-spacing:0px;word-spacing:0px;writing-mode:tb-rl;fill:#ffffff;fill-opacity:1;stroke:none;display:inline;font-family:Century Schoolbook L;-inkscape-font-specification:Century Schoolbook L Medium"
   id="text7524-1"><path
     d="m 1827.7593,208.3967 -107.0505,3.18873 0,23.23224 6.3775,0 c 27.7875,0 29.1542,2.27771 29.1542,42.82021 l 0,80.62953 0,20.95457 c 0,18.22134 -5.0109,21.4101 -33.7096,21.4101 l -1.8221,0 0,23.23224 142.5822,0 0,-23.23224 -2.7332,0 c -27.7876,0 -32.7985,-3.18876 -32.7985,-20.95457 l 0,-21.4101 0,-149.87071 M 1790.8611,88.135696 c -22.3212,0 -40.5426,18.221384 -40.5426,40.087004 0,21.86561 18.2214,40.54253 39.6315,40.54253 22.7767,0 40.9981,-17.76585 40.9981,-40.54253 0,-21.86562 -18.2214,-40.087004 -40.087,-40.087004"
     style="font-weight:bold;writing-mode:lr-tb;-inkscape-font-specification:Century Schoolbook L Bold"
     id="path3014" /></g>
</g><g
   id="g3890"
   transform="translate(1024,0)"><g
     id="g3875"><rect
       style="fill:#58585a;fill-opacity:1;stroke-width:5;stroke-miterlimit:4;stroke-dasharray:none"
       id="rect2995"
       width="512"
       height="512"
       x="0"
       y="0" /><rect
       y="0"
       x="512"
       height="512"
       width="512"
       id="rect2997"
       style="fill:#7e7e81;fill-opacity:1;stroke-width:5;stroke-miterlimit:4;stroke-dasharray:none" /></g><path
     inkscape:connector-curvature="0"
     id="gear-icon"
     d="m 233.15625,78 -8.84375,24.84375 c -6.68528,20.80207 -32.33839,32.21233 -52.28125,23.3125 -8.62789,-3.90951 -17.15689,-8.13258 -25.75,-12.15625 L 114,146.28125 c 6.20304,15.05952 17.9019,29.74819 14.65625,46.96875 -2.26072,16.34036 -15.66766,29.29404 -31.46875,33.0625 L 78,233.15625 l 0,45.6875 c 15.035291,6.24187 33.7538,8.42855 43.625,22.84375 9.88806,13.14831 9.5706,31.8277 1.09375,45.625 l -8.75,18.40625 L 146.28125,398 c 15.05952,-6.20304 29.74819,-17.9019 46.96875,-14.65625 16.33802,2.26895 29.30135,15.66416 33.0625,31.46875 l 6.84375,19.1875 45.6875,0 c 6.18598,-15.0645 8.53181,-33.80273 22.90625,-43.625 12.9955,-9.85472 31.63551,-9.68063 45.375,-1.21875 L 365.71875,398 398,365.71875 c -6.2151,-15.04479 -17.89452,-29.74603 -14.65625,-46.96875 2.24277,-16.30701 15.67323,-29.30428 31.46875,-33.0625 L 434,278.84375 l 0,-45.6875 c -15.04454,-6.25688 -33.71646,-8.40575 -43.625,-22.84375 -9.8932,-13.14536 -9.58769,-31.82674 -1.125,-45.625 L 398,146.28125 365.71875,114 C 350.65923,120.20304 335.97056,131.9019 318.75,128.65625 302.40663,126.39441 289.44493,112.97754 285.6875,97.1875 L 278.84375,78 233.15625,78 z M 256,172 c 46.39192,0 84,37.60808 84,84 0,46.39192 -37.60808,84 -84,84 -46.39192,0 -84,-37.60808 -84,-84 0,-46.39192 37.60808,-84 84,-84 z"
     style="fill:#ffffff" /><path
     style="fill:#ffffff"
     d="m 745.15625,78 -8.84375,24.84375 c -6.68528,20.80207 -32.33839,32.21233 -52.28125,23.3125 -8.62789,-3.90951 -17.15689,-8.13258 -25.75,-12.15625 L 626,146.28125 c 6.20304,15.05952 17.9019,29.74819 14.65625,46.96875 -2.26072,16.34036 -15.66766,29.29404 -31.46875,33.0625 L 590,233.15625 l 0,45.6875 c 15.03529,6.24187 33.7538,8.42855 43.625,22.84375 9.88806,13.14831 9.5706,31.8277 1.09375,45.625 l -8.75,18.40625 L 658.28125,398 c 15.05952,-6.20304 29.74819,-17.9019 46.96875,-14.65625 16.33802,2.26895 29.30135,15.66416 33.0625,31.46875 l 6.84375,19.1875 45.6875,0 c 6.18598,-15.0645 8.53181,-33.80273 22.90625,-43.625 12.9955,-9.85472 31.63551,-9.68063 45.375,-1.21875 L 877.71875,398 910,365.71875 c -6.2151,-15.04479 -17.89452,-29.74603 -14.65625,-46.96875 2.24277,-16.30701 15.67323,-29.30428 31.46875,-33.0625 L 946,278.84375 l 0,-45.6875 c -15.04454,-6.25688 -33.71646,-8.40575 -43.625,-22.84375 -9.8932,-13.14536 -9.58769,-31.82674 -1.125,-45.625 L 910,146.28125 877.71875,114 C 862.65923,120.20304 847.97056,131.9019 830.75,128.65625 814.40663,126.39441 801.44493,112.97754 797.6875,97.1875 L 790.84375,78 745.15625,78 z M 768,172 c 46.39192,0 84,37.60808 84,84 0,46.39192 -37.60808,84 -84,84 -46.39192,0 -84,-37.60808 -84,-84 0,-46.39192 37.60808,-84 84,-84 z"
     id="path3767"
     inkscape:connector-curvature="0" /></g><g
   id="g3879"
   transform="translate(-1024,0)"><rect
     style="fill:#58585a;fill-opacity:1;stroke-width:5;stroke-miterlimit:4;stroke-dasharray:none"
     id="rect3775"
     width="512"
     height="512"
     x="1024"
     y="0" /><rect
     y="0"
     x="1536"
     height="512"
     width="512"
     id="rect3777"
     style="fill:#7e7e81;fill-opacity:1;stroke-width:5;stroke-miterlimit:4;stroke-dasharray:none" /><g
     id="g7945"
     transform="translate(0,531.99999)"><path
       sodipodi:nodetypes="cccccccc"
       style="fill:#ffffff;fill-opacity:1;stroke:none"
       d="m 1429.6186,289.19257 0,47.748 83.917,-83.769 -83.917,-83.77 0,47.746 -149.859,0 0,72.045 z"
       id="logout-icon"
       inkscape:connector-curvature="0" /><path
       inkscape:connector-curvature="0"
       id="path7943"
       d="m 1397.1398,322.021 0,83.979 -234.2795,0 0,-300 234.2795,0 0,83.977 -40,0 0,-43.977 -154.2795,0 0,220 154.2795,0 0,-43.979 z"
       style="fill:#ffffff;fill-opacity:1;stroke:none"
       sodipodi:nodetypes="ccccccccccccc" /></g><g
     id="g7951"
     transform="translate(512,531.99999)"><path
       inkscape:connector-curvature="0"
       id="path7953"
       d="m 1429.6186,289.19257 0,47.748 83.917,-83.769 -83.917,-83.77 0,47.746 -149.859,0 0,72.045 z"
       style="fill:#ffffff;fill-opacity:1;stroke:none"
       sodipodi:nodetypes="cccccccc" /><path
       sodipodi:nodetypes="ccccccccccccc"
       style="fill:#ffffff;fill-opacity:1;stroke:none"
       d="m 1397.1398,322.021 0,83.979 -234.2795,0 0,-300 234.2795,0 0,83.977 -40,0 0,-43.977 -154.2795,0 0,220 154.2795,0 0,-43.979 z"
       id="path7955"
       inkscape:connector-curvature="0" /></g><path
     style="fill:#ffffff;fill-opacity:1"
     d="m 1267.8377,370.71606 v -75.55561 h 134.7218 v -37.52923 l 75.4405,75.30839 -75.4405,75.30838 v -37.53103 h -134.7218 z m 54.1983,-102.5244 h 35.9596 V 103.75202 H 1122 v 269.69697 l 99.2889,-76.33503 V 139.71162 h 100.7462 v 128.48004 z"
     id="path7974"
     inkscape:connector-curvature="0" /><path
     inkscape:connector-curvature="0"
     id="path7976"
     d="m 1779.8377,370.71606 v -75.55561 h 134.7218 v -37.52923 l 75.4405,75.30839 -75.4405,75.30838 v -37.53103 h -134.7218 z m 54.1983,-102.5244 h 35.9596 V 103.75202 H 1634 v 269.69697 l 99.2889,-76.33503 V 139.71162 h 100.7462 v 128.48004 z"
     style="fill:#ffffff;fill-opacity:1" /></g></svg>