<?xml version="1.0" encoding="UTF-8" standalone="no"?>
<!-- The icon can be used freely in both personal and commercial projects with no attribution required, but always appreciated. 
You may NOT sub-license, resell, rent, redistribute or otherwise transfer the icon without express written permission from iconmonstr.com -->

<svg
   xmlns:dc="http://purl.org/dc/elements/1.1/"
   xmlns:cc="http://creativecommons.org/ns#"
   xmlns:rdf="http://www.w3.org/1999/02/22-rdf-syntax-ns#"
   xmlns:svg="http://www.w3.org/2000/svg"
   xmlns="http://www.w3.org/2000/svg"
   xmlns:sodipodi="http://sodipodi.sourceforge.net/DTD/sodipodi-0.dtd"
   xmlns:inkscape="http://www.inkscape.org/namespaces/inkscape"
   version="1.1"
   x="0px"
   y="0px"
   width="512px"
   height="512px"
   viewBox="0 0 512 512"
   enable-background="new 0 0 512 512"
   xml:space="preserve"
   id="svg2"
   inkscape:version="0.48.3.1 r9886"
   sodipodi:docname="umc-menu-help.svg"
   inkscape:export-filename="/home/aklaeser/svn/ucs31/management/univention-management-console-frontend/icons/umc-menu-help.png"
   inkscape:export-xdpi="43.950001"
   inkscape:export-ydpi="43.950001"><metadata
   id="metadata9"><rdf:RDF><cc:Work
       rdf:about=""><dc:format>image/svg+xml</dc:format><dc:type
         rdf:resource="http://purl.org/dc/dcmitype/StillImage" /><dc:title /></cc:Work></rdf:RDF></metadata><defs
   id="defs7" /><sodipodi:namedview
   pagecolor="#58585a"
   bordercolor="#666666"
   borderopacity="1"
   objecttolerance="10"
   gridtolerance="10"
   guidetolerance="10"
   inkscape:pageopacity="1"
   inkscape:pageshadow="2"
   inkscape:window-width="1063"
   inkscape:window-height="610"
   id="namedview5"
   showgrid="false"
   inkscape:zoom="0.32593203"
   inkscape:cx="62.573242"
   inkscape:cy="163.24469"
   inkscape:window-x="342"
   inkscape:window-y="269"
   inkscape:window-maximized="0"
   inkscape:current-layer="svg2" />

<path
   style="fill:#ffffff;fill-opacity:1;stroke-width:5;stroke-miterlimit:4;stroke-dasharray:none"
   d="m 253.625,89.625 c -29.60373,-0.195356 -60.97617,10.174893 -79.34375,34.34375 -15.97217,20.45619 -22.5129,47.03635 -23.71875,72.75 18.71875,0 37.4375,0 56.15625,0 1.58316,-19.26944 8.80583,-41.08448 27.59375,-49.84375 21.89086,-9.80693 52.55452,-3.25681 63.78125,19.1875 8.10067,15.83103 6.83394,36.26528 -4.3125,50.3125 -16.65161,23.34038 -45.41802,36.24373 -57.59375,63.09375 -6.5808,13.9447 -7.94262,29.61466 -7.625,44.9375 19.25,0 38.5,0 57.75,0 -1.53606,-17.04807 7.07414,-32.76242 18.64074,-44.52181 19.44954,-20.29379 43.46959,-38.86414 52.17176,-66.85319 12.13588,-36.73644 -1.03951,-80.9755 -32.71875,-103.375 C 304.12707,94.745953 278.44167,89.270852 253.625,89.625 z m 4.34375,267.875 c -21.08872,-0.0257 -38.2933,20.94222 -34,41.6875 3.0082,20.46145 26.01681,34.31325 45.53125,27.59375 19.76161,-5.56628 30.74565,-29.90101 21.71875,-48.46875 -5.68653,-12.76614 -19.04653,-21.31141 -33.25,-20.8125 z"
   id="path2986"
   inkscape:connector-curvature="0" />

</svg>