<?xml version="1.0" encoding="UTF-8" standalone="no"?>
<!-- Created with Inkscape (http://www.inkscape.org/) -->

<svg
   xmlns:dc="http://purl.org/dc/elements/1.1/"
   xmlns:cc="http://creativecommons.org/ns#"
   xmlns:rdf="http://www.w3.org/1999/02/22-rdf-syntax-ns#"
   xmlns:svg="http://www.w3.org/2000/svg"
   xmlns="http://www.w3.org/2000/svg"
   xmlns:xlink="http://www.w3.org/1999/xlink"
   xmlns:sodipodi="http://sodipodi.sourceforge.net/DTD/sodipodi-0.dtd"
   xmlns:inkscape="http://www.inkscape.org/namespaces/inkscape"
   version="1.1"
   width="101.2095"
   height="157.56129"
   id="svg3802"
   inkscape:version="0.91 r13725"
   sodipodi:docname="credentials.svg">
  <sodipodi:namedview
     pagecolor="#ffffff"
     bordercolor="#666666"
     borderopacity="1"
     objecttolerance="10"
     gridtolerance="10"
     guidetolerance="10"
     inkscape:pageopacity="0"
     inkscape:pageshadow="2"
     inkscape:window-width="1263"
     inkscape:window-height="661"
     id="namedview56"
     showgrid="false"
     inkscape:zoom="2.1182512"
     inkscape:cx="66.348928"
     inkscape:cy="86.766589"
     inkscape:window-x="330"
     inkscape:window-y="125"
     inkscape:window-maximized="0"
     inkscape:current-layer="svg3802" />
  <defs
     id="defs3804">
    <linearGradient
       id="linearGradient3956">
      <stop
         id="stop3958"
         style="stop-color:#929292;stop-opacity:1"
         offset="0" />
      <stop
         id="stop3960"
         style="stop-color:#787878;stop-opacity:1"
         offset="1" />
    </linearGradient>
    <linearGradient
       id="linearGradient3947">
      <stop
         id="stop3949"
         style="stop-color:#ff00ff;stop-opacity:0.66666669"
         offset="0" />
      <stop
         id="stop3951"
         style="stop-color:#ff00ff;stop-opacity:1"
         offset="1" />
    </linearGradient>
    <clipPath
       id="clipPath620">
      <path
         d="m 0,0 1600,0 0,1200 L 0,1200 0,0 z"
         id="path622" />
    </clipPath>
    <mask
       id="mask638">
      <g
         id="g640">
        <g
           clip-path="url(#clipPath628)"
           id="g642">
          <g
             id="g644">
            <g
               id="g646">
              <path
                 d="m -32763.3,32767 65530.3,0 0,-64152.4 -65530.3,0 0,64152.4 z"
                 id="path648"
                 style="fill:url(#linearGradient632);stroke:none" />
            </g>
          </g>
        </g>
      </g>
    </mask>
    <clipPath
       id="clipPath628">
      <path
         d="m -32763.3,32767 65530.3,0 0,-64152.4 -65530.3,0 0,64152.4 z"
         id="path630" />
    </clipPath>
    <linearGradient
       x1="0"
       y1="0"
       x2="1"
       y2="0"
       id="linearGradient632"
       gradientUnits="userSpaceOnUse"
       gradientTransform="matrix(0,50.483902,50.483902,0,448.66217,823.51617)"
       spreadMethod="pad">
      <stop
         id="stop634"
         style="stop-color:#ffffff;stop-opacity:1"
         offset="0" />
      <stop
         id="stop636"
         style="stop-color:#ffffff;stop-opacity:0.80000001"
         offset="1" />
    </linearGradient>
    <clipPath
       id="clipPath654">
      <path
         d="m 447.662,875 58.803,0 0,-52.484 -58.803,0 0,52.484 z"
         id="path656" />
    </clipPath>
    <mask
       id="mask680">
      <g
         id="g682">
        <g
           clip-path="url(#clipPath670)"
           id="g684">
          <g
             id="g686">
            <g
               id="g688">
              <path
                 d="m -32768,32767 65517.5,0 0,-64238.3 -65517.5,0 0,64238.3 z"
                 id="path690"
                 style="fill:url(#linearGradient674);stroke:none" />
            </g>
          </g>
        </g>
      </g>
    </mask>
    <clipPath
       id="clipPath670">
      <path
         d="m -32768,32767 65517.5,0 0,-64238.3 -65517.5,0 0,64238.3 z"
         id="path672" />
    </clipPath>
    <linearGradient
       x1="0"
       y1="0"
       x2="1"
       y2="0"
       id="linearGradient674"
       gradientUnits="userSpaceOnUse"
       gradientTransform="matrix(0,138.4558,138.4558,0,466.52438,716.43945)"
       spreadMethod="pad">
      <stop
         id="stop676"
         style="stop-color:#ffffff;stop-opacity:1"
         offset="0" />
      <stop
         id="stop678"
         style="stop-color:#ffffff;stop-opacity:0.80000001"
         offset="1" />
    </linearGradient>
    <clipPath
       id="clipPath696">
      <path
         d="m 465.524,855.895 68.081,0 0,-140.456 -68.081,0 0,140.456 z"
         id="path698" />
    </clipPath>
    <mask
       id="mask722">
      <g
         id="g724">
        <g
           clip-path="url(#clipPath712)"
           id="g726">
          <g
             id="g728">
            <g
               id="g730">
              <path
                 d="m -32768,32767 65517.5,0 0,-64238.3 -65517.5,0 0,64238.3 z"
                 id="path732"
                 style="fill:url(#linearGradient716);stroke:none" />
            </g>
          </g>
        </g>
      </g>
    </mask>
    <clipPath
       id="clipPath712">
      <path
         d="m -32768,32767 65517.5,0 0,-64238.3 -65517.5,0 0,64238.3 z"
         id="path714" />
    </clipPath>
    <linearGradient
       x1="0"
       y1="0"
       x2="1"
       y2="0"
       id="linearGradient716"
       gradientUnits="userSpaceOnUse"
       gradientTransform="matrix(0,70.230606,70.230606,0,431.39499,733.70483)"
       spreadMethod="pad">
      <stop
         id="stop718"
         style="stop-color:#ffffff;stop-opacity:1"
         offset="0" />
      <stop
         id="stop720"
         style="stop-color:#ffffff;stop-opacity:0.80000001"
         offset="1" />
    </linearGradient>
    <clipPath
       id="clipPath738">
      <path
         d="m 430.395,804.935 47.212,0 0,-72.23 -47.212,0 0,72.23 z"
         id="path740" />
    </clipPath>
    <linearGradient
       x1="46.028431"
       y1="0.53956437"
       x2="46.028431"
       y2="47.941509"
       id="linearGradient3953"
       xlink:href="#linearGradient3947"
       gradientUnits="userSpaceOnUse" />
    <linearGradient
       x1="57.813385"
       y1="20.498827"
       x2="57.813385"
       y2="151.75839"
       id="linearGradient3962"
       xlink:href="#linearGradient3956"
       gradientUnits="userSpaceOnUse" />
  </defs>
  <metadata
     id="metadata3807">
    <rdf:RDF>
      <cc:Work
         rdf:about="">
        <dc:format>image/svg+xml</dc:format>
        <dc:type
           rdf:resource="http://purl.org/dc/dcmitype/StillImage" />
        <dc:title />
      </cc:Work>
    </rdf:RDF>
  </metadata>
  <path
     d="M 72.51,19.08 C 72.319,18.548 72.121,18.034 71.909,17.542 67.639,7.249 57.513,0 45.676,0 29.986,0 17.267,12.72 17.267,28.411 c 0,8.913 4.107,16.865 10.53,22.073 0.115,-3.476 0.676,-6.841 1.621,-10.043 -2.497,-3.366 -3.976,-7.528 -3.976,-12.03 0,-11.158 9.076,-20.235 20.234,-20.235 2.153,0 4.223,0.349 6.171,0.975 5.217,1.654 9.577,5.268 11.758,9.63 2.87,5.741 2.974,9.67 1.418,15.221 -0.043,0.241 -0.102,0.485 -0.2,0.741 1.245,2.461 5.082,4.171 7.781,3.605 0.247,-0.866 0.441,-1.7 0.622,-2.525 0.061,-0.282 0.126,-0.567 0.179,-0.845 0.126,-0.641 0.228,-1.265 0.317,-1.881 0.07,-0.496 0.126,-0.983 0.175,-1.464 0.511,-5.03 -0.168,-9.185 -1.358,-12.524 -0.007,-0.001 -0.013,-0.003 -0.019,-0.004 -0.003,-0.008 -0.007,-0.017 -0.01,-0.025"
     id="path664"
     style="fill:url(#linearGradient3953);fill-opacity:1;fill-rule:nonzero;stroke:none" />
  <path
     d="M 32.022,70.0649 0,122.0659 l 4.412,18.23 26.285,-6.365 -2.589,-10.697 11.835,-2.864 -2.749,-11.352 8.017,-1.94 0,-21.898 c -5.562,-3.843 -10.117,-9.043 -13.189,-15.115 m 69.1875,-18.2136 c 0,-16.772 -12.5,-30.616 -28.69,-32.746 l 0,0 c 0.007,0.001 0.013,0.002 0.019,0.003 1.102,3.091 1.753,6.891 1.44,11.427 0.019,0.067 0.03,0.105 0.03,0.105 1.444,1.478 2.338,3.498 2.338,5.728 0,4.526 -3.668,8.194 -8.193,8.195 -4.525,0 -8.195,-3.669 -8.196,-8.195 10e-4,-3.747 2.519,-6.9 5.952,-7.876 0,0.036 0.032,0.053 0.081,0.059 0.148,-3.007 -0.506,-5.874 -2.215,-9.398 l -0.129,-0.026 c -16.106,2.206 -28.518,16.012 -28.518,32.724 10e-4,18.248 14.793,33.04 33.04,33.041 18.248,0 33.041,-14.793 33.041,-33.041 m -48.555,37.584 -10e-4,54.863 13.263,13.263 19.123,-19.124 -7.782,-7.783 8.611,-8.609 -8.259,-8.258 8.259,-8.259 0,-17.057 c -10.653,5.089 -22.747,5.245 -33.214,0.964"
     id="path748"
     style="fill:url(#linearGradient3962);fill-opacity:1;fill-rule:nonzero;stroke:none" />
</svg>
