/* XPM */
static char * ooo_base_xpm[] = {
"48 48 670 2",
"  	c None",
". 	c #5386C7",
"+ 	c #5989C8",
"@ 	c #5688C8",
"# 	c #5486C8",
"$ 	c #5184C7",
"% 	c #5789C7",
"& 	c #6291CC",
"* 	c #99B7DE",
"= 	c #BCD1EA",
"- 	c #CADCEF",
"; 	c #D1E2F4",
"> 	c #D2E3F5",
", 	c #D2E4F6",
"' 	c #5385C6",
") 	c #5888C9",
"! 	c #9FBBE0",
"~ 	c #CCDCF0",
"{ 	c #D1E3F5",
"] 	c #D3E1F0",
"^ 	c #D9E4F1",
"/ 	c #DEE7F2",
"( 	c #E4EBF4",
"_ 	c #E7EDF5",
": 	c #EAEFF6",
"< 	c #E6ECF5",
"[ 	c #E3EAF3",
"} 	c #E0E9F3",
"| 	c #D4E2F1",
"1 	c #A7C1E3",
"2 	c #DDE8F4",
"3 	c #ECEEF5",
"4 	c #F4F5F8",
"5 	c #F5F5F8",
"6 	c #F4F4F8",
"7 	c #F4F4F7",
"8 	c #D1E3F4",
"9 	c #78A0D3",
"0 	c #CEDFF2",
"a 	c #D3E1F2",
"b 	c #E8EDF5",
"c 	c #E7ECF5",
"d 	c #E6ECF4",
"e 	c #E5ECF4",
"f 	c #E5EBF4",
"g 	c #DDE6F1",
"h 	c #D0E1F1",
"i 	c #CADDF1",
"j 	c #5386C5",
"k 	c #A6C0E1",
"l 	c #D3E4F5",
"m 	c #E9ECF4",
"n 	c #F3F3F7",
"o 	c #D3E5F5",
"p 	c #5587C6",
"q 	c #BACFE8",
"r 	c #C8D9EE",
"s 	c #C8D5E8",
"t 	c #D3DDEB",
"u 	c #E4EBF3",
"v 	c #E4EAF3",
"w 	c #E0E6F1",
"x 	c #BCCDE2",
"y 	c #A3B9D6",
"z 	c #B9C9E0",
"A 	c #E2E8F3",
"B 	c #E2E9F3",
"C 	c #E1E9F3",
"D 	c #E1E8F3",
"E 	c #E1E8F2",
"F 	c #DAE3F0",
"G 	c #D1E1F3",
"H 	c #BAD0E9",
"I 	c #5384C6",
"J 	c #BCD1E9",
"K 	c #C8D7EA",
"L 	c #AABDD7",
"M 	c #819EC6",
"N 	c #4571AB",
"O 	c #3A69A6",
"P 	c #6287B8",
"Q 	c #9EB4D3",
"R 	c #E1E6EF",
"S 	c #EBEDF3",
"T 	c #ACBED8",
"U 	c #698CBB",
"V 	c #3C6BA8",
"W 	c #6B8EBC",
"X 	c #C5D1E3",
"Y 	c #F3F3F6",
"Z 	c #F2F2F6",
"` 	c #F0F0F5",
" .	c #D9E5F3",
"..	c #BDD1EA",
"+.	c #5384C5",
"@.	c #AEC5E3",
"#.	c #D3E2F2",
"$.	c #DFE7F1",
"%.	c #E2E8F2",
"&.	c #DCE3ED",
"*.	c #A7BAD5",
"=.	c #5F84B6",
"-.	c #3465A4",
";.	c #3667A5",
">.	c #688CBA",
",.	c #A7BCD8",
"'.	c #7D9DC5",
").	c #3E6DA8",
"!.	c #4D78AF",
"~.	c #AFC0D8",
"{.	c #E0E6F0",
"].	c #E0E7F2",
"^.	c #DFE6F1",
"/.	c #D2E0F2",
"(.	c #AFC5E4",
"_.	c #84A8D3",
":.	c #D9E6F4",
"<.	c #EFF0F4",
"[.	c #ECECF0",
"}.	c #A9B8CF",
"|.	c #4C76AC",
"1.	c #3767A5",
"2.	c #8AA2C3",
"3.	c #E2E3E8",
"4.	c #F1F1F5",
"5.	c #F1F1F6",
"6.	c #EDEEF4",
"7.	c #D7E5F4",
"8.	c #84A7D3",
"9.	c #5688C4",
"0.	c #D1E0F2",
"a.	c #D7E1EE",
"b.	c #E2E9F2",
"c.	c #D0D6E2",
"d.	c #6586B2",
"e.	c #4571A9",
"f.	c #A5B4C9",
"g.	c #DBE1EA",
"h.	c #E1E7F2",
"i.	c #E0E7F1",
"j.	c #DEE6F1",
"k.	c #DDE5F1",
"l.	c #DDE5F0",
"m.	c #DCE4F0",
"n.	c #D4E0EE",
"o.	c #CFDFF2",
"p.	c #5383C2",
"q.	c #B9CBE5",
"r.	c #E8E8EE",
"s.	c #91A3BE",
"t.	c #C7CAD2",
"u.	c #EEEEF3",
"v.	c #F0F0F6",
"w.	c #EFEFF5",
"x.	c #EFEFF4",
"y.	c #E2EAF3",
"z.	c #B8CBE7",
"A.	c #5B89C5",
"B.	c #DAE2EF",
"C.	c #E1E8F1",
"D.	c #DFE5F0",
"E.	c #E1E7F1",
"F.	c #D4DBE5",
"G.	c #C1C7D1",
"H.	c #BDC4CD",
"I.	c #E0E6F2",
"J.	c #DEE5F0",
"K.	c #DBE3EF",
"L.	c #DAE3EF",
"M.	c #D9E2EF",
"N.	c #D7E0EE",
"O.	c #D7E7F4",
"P.	c #2E3537",
"Q.	c #2E3435",
"R.	c #313941",
"S.	c #454D54",
"T.	c #646A6E",
"U.	c #8D9093",
"V.	c #BBBDC1",
"W.	c #ECECF1",
"X.	c #F0F0F4",
"Y.	c #ADAFB3",
"Z.	c #7B7E82",
"`.	c #494E51",
" +	c #32383A",
".+	c #75797C",
"++	c #C2C3C8",
"@+	c #EEEEF4",
"#+	c #EDEDF4",
"$+	c #EAEAF1",
"%+	c #E6E6EE",
"&+	c #E0E6F3",
"*+	c #B4C8E5",
"=+	c #4E80BF",
"-+	c #446998",
";+	c #747D84",
">+	c #3B4245",
",+	c #2E3436",
"'+	c #3C4245",
")+	c #787E84",
"!+	c #B9C0C9",
"~+	c #DFE6F0",
"{+	c #DEE4EF",
"]+	c #ACB3BB",
"^+	c #6A7074",
"/+	c #33393C",
"(+	c #303638",
"_+	c #71787D",
":+	c #C9CFD9",
"<+	c #DEE5F1",
"[+	c #DDE4F0",
"}+	c #D2DCEB",
"|+	c #C6D2E6",
"1+	c #BCCBE2",
"2+	c #BBCBE2",
"3+	c #BECFE5",
"4+	c #D9E5F4",
"5+	c #4D7EBE",
"6+	c #739BCC",
"7+	c #E1EAF6",
"8+	c #E3E3E7",
"9+	c #9B9EA2",
"0+	c #464B4D",
"a+	c #4F5456",
"b+	c #9DA0A3",
"c+	c #95989C",
"d+	c #515558",
"e+	c #B8BABF",
"f+	c #E6E6EB",
"g+	c #EEEEF5",
"h+	c #E9E9F1",
"i+	c #E3E3ED",
"j+	c #E1E1EC",
"k+	c #E0E0EB",
"l+	c #E0E0EA",
"m+	c #DFE9F5",
"n+	c #749ACC",
"o+	c #B0C5E2",
"p+	c #D9E3F1",
"q+	c #DCE3EF",
"r+	c #D2D9E4",
"s+	c #7B8187",
"t+	c #353B3C",
"u+	c #373D40",
"v+	c #83898F",
"w+	c #C7CDD6",
"x+	c #DCE1EB",
"y+	c #E1E6F1",
"z+	c #DFE5F1",
"A+	c #D5DDED",
"B+	c #C8D3E7",
"C+	c #C4D0E5",
"D+	c #C1CEE4",
"E+	c #C2CFE4",
"F+	c #C0CDE3",
"G+	c #BFCCE3",
"H+	c #BECCE2",
"I+	c #BCCBE3",
"J+	c #BBCAE2",
"K+	c #D1DEEF",
"L+	c #B1C6E2",
"M+	c #4E7EBD",
"N+	c #D1DDEE",
"O+	c #E9ECF3",
"P+	c #EDEDF2",
"Q+	c #EDEDF3",
"R+	c #CECED4",
"S+	c #5D6163",
"T+	c #54585B",
"U+	c #B9BABF",
"V+	c #E0E0E6",
"W+	c #E6E6F0",
"X+	c #E2E2EE",
"Y+	c #E2E2ED",
"Z+	c #E1E5F0",
"`+	c #D0DEEE",
" @	c #4C7DBB",
".@	c #D8E1EE",
"+@	c #DAE2EE",
"@@	c #DBE2EE",
"#@	c #DCE3EE",
"$@	c #DDE4EF",
"%@	c #D9E0EC",
"&@	c #7C8187",
"*@	c #2F3537",
"=@	c #7D8288",
"-@	c #C9CFD8",
";@	c #DCE1EC",
">@	c #E2E7F1",
",@	c #E1E6F2",
"'@	c #D9DEEA",
")@	c #B2B6BD",
"!@	c #8B8E94",
"~@	c #6F7175",
"{@	c #5F6062",
"]@	c #58595A",
"^@	c #565657",
"/@	c #59595B",
"(@	c #717479",
"_@	c #898E98",
":@	c #A5AFBF",
"<@	c #C0CDE2",
"[@	c #C0CDE4",
"}@	c #C4D1E6",
"|@	c #DEE8F4",
"1@	c #4678B8",
"2@	c #E8EFF8",
"3@	c #EBECF2",
"4@	c #ECECF2",
"5@	c #ECECF3",
"6@	c #ACAEB2",
"7@	c #B4B5BA",
"8@	c #EDEDF5",
"9@	c #D3D3D9",
"0@	c #858587",
"a@	c #585858",
"b@	c #737374",
"c@	c #959595",
"d@	c #A8A8A8",
"e@	c #ADADAD",
"f@	c #AEAEAE",
"g@	c #A4A4A4",
"h@	c #989898",
"i@	c #878787",
"j@	c #6B6B6B",
"k@	c #929296",
"l@	c #D4D4DD",
"m@	c #E1E2ED",
"n@	c #E6EEF8",
"o@	c #4779B8",
"p@	c #4375B6",
"q@	c #E9F1F9",
"r@	c #D7E0EC",
"s@	c #D8E0ED",
"t@	c #D9E1ED",
"u@	c #DAE1EE",
"v@	c #DDE3EF",
"w@	c #DEE3EF",
"x@	c #E0E5F0",
"y@	c #DFE4F0",
"z@	c #E2E6F1",
"A@	c #E3E6F1",
"B@	c #E2E7F2",
"C@	c #DFE4EE",
"D@	c #929398",
"E@	c #595959",
"F@	c #7F7F7F",
"G@	c #AAAAAA",
"H@	c #B3B3B3",
"I@	c #B1B1B1",
"J@	c #AFAFAF",
"K@	c #ABABAB",
"L@	c #A6A6A6",
"M@	c #A2A2A2",
"N@	c #A0A0A0",
"O@	c #9D9D9D",
"P@	c #929292",
"Q@	c #6E6E6F",
"R@	c #969EAC",
"S@	c #E8F1F9",
"T@	c #4274B5",
"U@	c #EBF3FB",
"V@	c #EAEBF1",
"W@	c #EBEBF1",
"X@	c #EBEBF2",
"Y@	c #EBEBF3",
"Z@	c #7F7F81",
"`@	c #636363",
" #	c #B0B0B0",
".#	c #A9A9A9",
"+#	c #A7A7A7",
"@#	c #A5A5A5",
"##	c #A3A3A3",
"$#	c #A1A1A1",
"%#	c #9E9E9E",
"&#	c #9C9C9C",
"*#	c #9A9A9A",
"=#	c #979797",
"-#	c #8B8B8B",
";#	c #707070",
">#	c #59595A",
",#	c #A3A7AB",
"'#	c #4575B5",
")#	c #EAF2F9",
"!#	c #D7DFEC",
"~#	c #D9E0ED",
"{#	c #DAE1ED",
"]#	c #DBE1EE",
"^#	c #DFE4EF",
"/#	c #E0E5EF",
"(#	c #E1E5F1",
"_#	c #E1E6F0",
":#	c #E2E6F0",
"<#	c #E3E6F2",
"[#	c #E3E7F2",
"}#	c #A8AAB0",
"|#	c #616162",
"1#	c #898989",
"2#	c #9F9F9F",
"3#	c #969696",
"4#	c #818181",
"5#	c #7D7D7D",
"6#	c #7B7B7B",
"7#	c #696969",
"8#	c #5A5B5B",
"9#	c #466DA3",
"0#	c #4978B7",
"a#	c #E8EFF7",
"b#	c #E9EAF1",
"c#	c #EAEAF0",
"d#	c #EAEAF2",
"e#	c #ECECF4",
"f#	c #5C5C5D",
"g#	c #717171",
"h#	c #999999",
"i#	c #8A8A8A",
"j#	c #828282",
"k#	c #7C7C7C",
"l#	c #7A7A7A",
"m#	c #787878",
"n#	c #6D6D6D",
"o#	c #5D5D5D",
"p#	c #4E5B6B",
"q#	c #4979B6",
"r#	c #D9E3EF",
"s#	c #DCE3F0",
"t#	c #D6DEEC",
"u#	c #D8DFEC",
"v#	c #DCE1ED",
"w#	c #DCE1EE",
"x#	c #DCE2EE",
"y#	c #DEE3EE",
"z#	c #E0E4EF",
"A#	c #E2E5F0",
"B#	c #E4E7F2",
"C#	c #E4E7F1",
"D#	c #D6D9E4",
"E#	c #565656",
"F#	c #767676",
"G#	c #939393",
"H#	c #909090",
"I#	c #838383",
"J#	c #808080",
"K#	c #7E7E7E",
"L#	c #797979",
"M#	c #777777",
"N#	c #606060",
"O#	c #505357",
"P#	c #4274B3",
"Q#	c #B9CAE2",
"R#	c #EDEEF5",
"S#	c #E8E8EF",
"T#	c #E8E8F0",
"U#	c #E9E9F0",
"V#	c #EAEAF3",
"W#	c #E7E7F1",
"X#	c #D2D2DC",
"Y#	c #5A5A5B",
"Z#	c #8F8F8F",
"`#	c #949494",
" $	c #848484",
".$	c #757575",
"+$	c #5F5F5F",
"@$	c #515255",
"#$	c #7699C7",
"$$	c #EFF2F8",
"%$	c #D4DCEA",
"&$	c #D6DDEB",
"*$	c #D7DEEC",
"=$	c #D9DFEC",
"-$	c #DBE1ED",
";$	c #DDE2EE",
">$	c #DEE2EF",
",$	c #E1E4EF",
"'$	c #DDE0ED",
")$	c #DEE0ED",
"!$	c #CDCFDC",
"~$	c #BDBDBD",
"{$	c #919191",
"]$	c #8D8D8D",
"^$	c #858585",
"/$	c #686868",
"($	c #626262",
"_$	c #505153",
":$	c #4373B1",
"<$	c #F1F4F8",
"[$	c #E7E7EF",
"}$	c #E7E7F0",
"|$	c #E8E8F1",
"1$	c #E5E5F0",
"2$	c #E4E4EE",
"3$	c #E4E4F0",
"4$	c #D3D3DE",
"5$	c #5B5B5B",
"6$	c #C7C7C7",
"7$	c #9B9B9B",
"8$	c #8C8C8C",
"9$	c #BABABA",
"0$	c #B8B8B8",
"a$	c #6C6C6C",
"b$	c #666666",
"c$	c #515151",
"d$	c #4472B1",
"e$	c #C1CFE4",
"f$	c #E6EAF2",
"g$	c #D3DCEA",
"h$	c #D4DCEB",
"i$	c #D6DDEA",
"j$	c #D9DFEB",
"k$	c #D9DEEC",
"l$	c #DBDFEC",
"m$	c #DCE0ED",
"n$	c #DBDFED",
"o$	c #DADEEC",
"p$	c #DEE0EC",
"q$	c #E0E2ED",
"r$	c #E1E3F0",
"s$	c #D2D3DD",
"t$	c #5C5C5C",
"u$	c #CBCBCB",
"v$	c #D1D1D1",
"w$	c #D4D4D4",
"x$	c #D5D5D5",
"y$	c #CACACA",
"z$	c #8E8E8E",
"A$	c #727272",
"B$	c #6A6A6A",
"C$	c #527DB6",
"D$	c #F7F9FB",
"E$	c #E5E5EE",
"F$	c #E6E6EF",
"G$	c #E5E5EF",
"H$	c #E4E4ED",
"I$	c #DADAE2",
"J$	c #6E6E6E",
"K$	c #4573B1",
"L$	c #C9D5E6",
"M$	c #E7EBF3",
"N$	c #CCD5E6",
"O$	c #CDD6E6",
"P$	c #CDD4E6",
"Q$	c #CDD5E6",
"R$	c #D0D6E7",
"S$	c #D3DAE9",
"T$	c #D5DBE9",
"U$	c #D8DCEA",
"V$	c #DEE1EE",
"W$	c #DFE3EE",
"X$	c #E2E4EF",
"Y$	c #E3E5F0",
"Z$	c #DDDEE9",
"`$	c #575758",
" %	c #888888",
".%	c #747474",
"+%	c #4A77B3",
"@%	c #F7F8FA",
"#%	c #DFDFE9",
"$%	c #DFDFEA",
"%%	c #E1E1EB",
"&%	c #E3E3EC",
"*%	c #E9E9F2",
"=%	c #585859",
"-%	c #89A4CB",
";%	c #F7F8FB",
">%	c #CBD5E6",
",%	c #C9D3E4",
"'%	c #CAD3E5",
")%	c #CED5E6",
"!%	c #D1D7E7",
"~%	c #D4DAE9",
"{%	c #D7DCEA",
"]%	c #D8DDEA",
"^%	c #DADFEC",
"/%	c #E0E3EF",
"(%	c #E3E6F0",
"_%	c #DDDEE8",
":%	c #6F6F6F",
"<%	c #545454",
"[%	c #575757",
"}%	c #656565",
"|%	c #737373",
"1%	c #4270AC",
"2%	c #BFCDE1",
"3%	c #F7F7FA",
"4%	c #E2E2EC",
"5%	c #E2E2EA",
"6%	c #5A5A5A",
"7%	c #B4B4B4",
"8%	c #C4C4C4",
"9%	c #CECECE",
"0%	c #D8D8D8",
"a%	c #CDCDCD",
"b%	c #BEBEBE",
"c%	c #ACACAC",
"d%	c #3F6EAB",
"e%	c #D6DEEB",
"f%	c #F1F3F8",
"g%	c #CCD4E5",
"h%	c #CBD4E6",
"i%	c #D0D7E7",
"j%	c #D1D8E8",
"k%	c #D6DBEB",
"l%	c #D9DEEB",
"m%	c #DADFEB",
"n%	c #DFE3EF",
"o%	c #D8DCE7",
"p%	c #3E6DAA",
"q%	c #F9F9FB",
"r%	c #DEDEE7",
"s%	c #3C6BA7",
"t%	c #B7C7DE",
"u%	c #FAFBFC",
"v%	c #DBE0ED",
"w%	c #CFD7E7",
"x%	c #D0D7E8",
"y%	c #D3D9E8",
"z%	c #D5DCEB",
"A%	c #D6DCEB",
"B%	c #D7DDEB",
"C%	c #C8CCD8",
"D%	c #505050",
"E%	c #3A66A1",
"F%	c #7796C0",
"G%	c #F5F7FA",
"H%	c #F6F6F9",
"I%	c #D1D1DA",
"J%	c #4F4F4F",
"K%	c #2C5486",
"L%	c #3E6BA8",
"M%	c #B8C6DE",
"N%	c #F9FAFC",
"O%	c #EEF1F7",
"P%	c #CED6E7",
"Q%	c #CFD6E7",
"R%	c #C1C7D6",
"S%	c #5A5B5C",
"T%	c #4D4D4D",
"U%	c #355F94",
"V%	c #406DA9",
"W%	c #AEBFD8",
"X%	c #EFF2F7",
"Y%	c #FCFCFD",
"Z%	c #D5D5DD",
"`%	c #919197",
" &	c #2D5384",
".&	c #3C69A2",
"+&	c #567DB1",
"@&	c #A5BAD4",
"#&	c #EEF0F6",
"$&	c #F0F0F2",
"%&	c #DDDEDF",
"&&	c #4B4B4B",
"*&	c #254975",
"=&	c #385F95",
"-&	c #3E69A0",
";&	c #3A68A5",
">&	c #35619C",
",&	c #2E588D",
"'&	c #465364",
")&	c #5E5F61",
"!&	c #B7B7B7",
"~&	c #474747",
"{&	c #262626",
"]&	c #4A4A4A",
"^&	c #B6B6B6",
"/&	c #C0C0C0",
"(&	c #C1C1C1",
"_&	c #BCBCBC",
":&	c #4C4C4C",
"<&	c #353535",
"                                                                                                ",
"                                                                                                ",
"                                        . + @ # $ # @ + .                                       ",
"                                  % & * = - ; > , > ; - = * & %                                 ",
"                            ' ) ! ~ { ] ^ / ( _ : < [ } ^ | > ~ ! ) '                           ",
"                          @ 1 ; 2 3 4 5 5 5 5 5 5 5 5 5 5 6 7 3 2 8 1 @                         ",
"                      # 9 0 a / b _ b b _ _ _ c c < d d e e e f f g h i 9 #                     ",
"                    j k l m 7 6 7 7 7 7 6 7 7 7 7 7 7 7 7 n n n n n n m o k j                   ",
"                  p q r s t [ e f f f ( u v v v w x y z A B B B B C D E F G H p                 ",
"                I J K L M N O P Q R n n n S T U V W X n Y Z Z Z Z Z Z Z Z `  ...I               ",
"              +.@.#.$.B %.&.*.=.-.;.>.,.'.).-.!.~.{.B B %.E E ].].^.$.^.^.g F /.(.+.            ",
"              _.:.<.Z Z Z Z Z [.}.|.-.-.-.1.2.3.4.Z 5.Z Z Z Z 5.5.5.5.5.5.` ` 6.7.8.            ",
"            9.0.a.E E E %.%.%.%.b.c.d.-.e.f.g.%.E E E h.h.].i.].$.^.j.k.l.m.m.m.n.o.9.          ",
"          p.q.%.4.4.4.4.4.4.5.5.4.5.r.s.t.u.5.5.5.5.5.5.5.v.v.` ` ` ` ` ` ` w.w.x.y.z.p.        ",
"          A.7.B.i.$.i.i.i.i.i.i.h.E C.D.E.E.F.G.H.F.h.i.w I.^.^.^.J.k.m.m.m.K.L.M.N.O.A.        ",
"    P.Q.R.S.T.U.V.W.X.X.` ` ` ` ` ` 3.Y.Z.`. +.+++v.` ` ` ` ` w.w.w.w.w.x.@+@+#+$+%+&+*+=+      ",
"        -+;+>+,+,+'+)+!+~+{.w {+]+^+/+,+(+_+:+i.i.w w w w i.w <+[+J.[+m.K.}+|+1+2+z 3+4+5+      ",
"        6+7+8+9+0+,+,+,+a+b+c+0+,+,+,+d+e+f+@+` w.w.w.w.w.w.w.w.w.w.g+h+i+j+j+k+k+k+l+m+n+      ",
"        o+p+q+q+r+s+t+,+,+,+,+,+,+u+v+w+x+y+E.E.y+y+y+y+w z+z+J.J.A+B+C+D+E+F+G+H+I+J+K+L+      ",
"      M+N+O+P+Q+Q+Q+R+S+,+,+,+,+T+U+V+@+w.w.g+g+g+w.w.w.w.g+g+#+W+X+Y+Y+Y+Y+j+j+j+k+k+Z+`+M+    ",
"       @m+.@+@@@#@#@$@%@&@*@(+=@-@;@{.y+y+>@y+y+y+y+y+,@'@)@!@~@{@]@^@/@{@(@_@:@<@[@H+}@|@ @    ",
"      1@2@3@4@4@4@4@4@5@5@6@7@f+#+#+#+#+#+8@g+g+@+g+9@0@a@b@c@d@e@f@e@d@g@h@i@j@a@k@l@m@n@o@    ",
"      p@q@r@s@t@u@@@#@v@{+{+w@x@y@x@y+z@>@z@A@B@C@D@E@F@G@H@I@J@e@K@d@L@g@M@N@O@P@Q@^@R@S@p@    ",
"      T@U@V@$+W@W@W@X@X@5@4@X@5@5@5@5@5@#+#+8@Y@Z@`@c@I@ #f@K@.#+#@###$#%#&#*#=#c@-#;#>#,#T@    ",
"      '#)#!#r@s@~#{#]#]#v@v@{+^#/#(#_#z@:#<#[#}#|#1#J@e@K@d@L@g@$#2#O@*#h@3#P@-#4#5#6#7#8#9#    ",
"      0#a#b#c#c#h+$+$+$+d#d#X@X@Y@Y@Y@5@5@e#e#f#g#h#.#d@@###$#%#&#*#3#c@P@i#j#F@k#l#m#n#o#p#    ",
"      q#r#s#t#!#u#%@~#v#w#x#y#w@z#Z+A#A@B#C#D#E#F#N@@#$#2#O@*#h@c@G#H#-#I#J#K#6#L#M#M#6#N#O#    ",
"      P#Q#R#S#T#U#U#U#U#h+h+$+$+d#d#V#Y@V#W#X#Y#m#Z#I@&#h@3#`#P@Z#i# $4#F@5#l#m#.$.$Z#M#+$@$    ",
"        #$$$%$&$&$*$u#=${#-$;$>$^#,$A#z#'$)$!$8#6#k#L@~$$#{$]$1#^$j#J#K#6#L#M#.$ $L@{$/$($_$    ",
"        :$<$U#[$[$}$[$S#T#T#h+|$h+|$1$2$3$1$4$5$F@k#I#N@6$6$e@7$8$ $K#F@ $Z#2#9$0$8$a$/$b$c$    ",
"        d$e$f$g$h$&$i$j$k$l$v#m$n$o$o$p$q$r$s$t$j#k#I#i#{$L@~$u$v$w$x$v$y$~$K@z$M#A$a$/$B$c$    ",
"          C$D$%+E$%+F$[$G$H$i+Y+2$2$G$W+W+W#I$5$^$k#I#i#{$=#%#@#$#&#3#{$8$i@4#k#M#A$a$7#J$c$    ",
"          K$L$M$N$O$P$Q$Q$R$S$T$U$l$V$W$X$Y$Z$`$ %k#I#i#H#=#%#@#$#&#3#{$8$i@4#k#.%;#a$7#g#c$    ",
"            +%@%E$#%$%$%%%j+&%2$2$F$}$W#|$*%l+=%8$k#-#P@ % %Z#h#*#h#c@z$^$k#.%n#A$5#g#B$.$c$    ",
"              -%;%>%,%'%)%!%~%{%]%^%V$/%,$(%_%=%Z#k#I#c@.#g@c@^$:%N#<%[%}%|% $`#H#l#a$j@L#c$    ",
"              1%2%3%l+$%k+4%i+H$E$F$}$|$h+*%5%6%P@k#I#i#P@$#7%8%9%x$0%a%b%c%=# $M#A$a$j@k#c$    ",
"                d%e%f%g%h%i%j%~%k%l%m%v#W$n%o%a@h@k#I#i#{$=#%#@#$#&#3#{$8$i@4#k#M#A$a$j@J#c$    ",
"                  p%%$q%&%k+4%i+i+E$G$F$}$|$r%`$7$k#I#i#H#=#%#@#$#&#3#{$8$i@4#k#.%;#a$a$I#c$    ",
"                    s%t%u%v%O$w%x%y%z%A%B%=$C%[%%#k#-#P@ % %Z#h#*#h#c@z$^$k#.%n#A$5#g#:%^$D%    ",
"                      E%F%G%H%%+j+4%Y+2$2$2$I%<%M@k#I#c@.#g@c@^$:%N#<%[%}%|% $`#H#l#a$;# %J%    ",
"                        K%L%M%N%O%~#P%Q%i%w%R%S%O@ $I#i#P@$#7%8%9%x$0%a%b%c%=# $M#A$a$l#F@T%    ",
"                            U%V%W%X%Y%6 5@U#Z%`%|%+# %i#{$=#%#@#$#&#3#{$8$i@4#k#M#A$L#h@5$      ",
"                                 &.&+&@&u##&$&%&:%6#f@%#G#=#%#@#$#&#3#{$8$i@4#k#k#{$%#}%&&      ",
"                                      *&=&-&;&>&,&'&)&=#!&I@c%c%M@&#3#{$H#P@3#N@L@^$[%~&        ",
"                                                    {&]&a@6#$#^&/&(&_&9$I@$#]$:%<%:&            ",
"                                                          <&]&c$c$c$<%c$c$c$]&                  ",
"                                                                                                ",
"                                                                                                "};
