/* XPM */
static char * ooo_calc_xpm[] = {
"48 48 675 2",
"  	c None",
". 	c #5386C7",
"+ 	c #5989C8",
"@ 	c #5688C8",
"# 	c #5486C8",
"$ 	c #5184C7",
"% 	c #5789C7",
"& 	c #6291CC",
"* 	c #99B7DE",
"= 	c #BCD1EA",
"- 	c #CADCEF",
"; 	c #D1E2F4",
"> 	c #D2E3F5",
", 	c #D2E4F6",
"' 	c #5385C6",
") 	c #5888C9",
"! 	c #9FBBE0",
"~ 	c #CCDCF0",
"{ 	c #D1E3F5",
"] 	c #D3E1F0",
"^ 	c #D9E4F1",
"/ 	c #DEE7F2",
"( 	c #E4EBF4",
"_ 	c #E7EDF5",
": 	c #EAEFF6",
"< 	c #E6ECF5",
"[ 	c #E3EAF3",
"} 	c #E0E9F3",
"| 	c #D4E2F1",
"1 	c #A7C1E3",
"2 	c #DDE8F4",
"3 	c #ECEEF5",
"4 	c #F4F5F8",
"5 	c #F5F5F8",
"6 	c #F4F4F8",
"7 	c #F4F4F7",
"8 	c #D1E3F4",
"9 	c #78A0D3",
"0 	c #CEDFF2",
"a 	c #D3E1F2",
"b 	c #E8EDF5",
"c 	c #E7ECF5",
"d 	c #E6ECF4",
"e 	c #E5ECF4",
"f 	c #E5EBF4",
"g 	c #DDE6F1",
"h 	c #D0E1F1",
"i 	c #CADDF1",
"j 	c #5386C5",
"k 	c #A6C0E1",
"l 	c #D3E4F5",
"m 	c #E9ECF4",
"n 	c #F3F3F7",
"o 	c #D3E5F5",
"p 	c #5587C6",
"q 	c #BACFE8",
"r 	c #C8D9EE",
"s 	c #C8D5E8",
"t 	c #D3DDEB",
"u 	c #E4EBF3",
"v 	c #E4EAF3",
"w 	c #E0E6F1",
"x 	c #BCCDE2",
"y 	c #A3B9D6",
"z 	c #B9C9E0",
"A 	c #E2E8F3",
"B 	c #E2E9F3",
"C 	c #E1E9F3",
"D 	c #E1E8F3",
"E 	c #E1E8F2",
"F 	c #DAE3F0",
"G 	c #D1E1F3",
"H 	c #BAD0E9",
"I 	c #5384C6",
"J 	c #BCD1E9",
"K 	c #C8D7EA",
"L 	c #AABDD7",
"M 	c #819EC6",
"N 	c #4571AB",
"O 	c #3A69A6",
"P 	c #6287B8",
"Q 	c #9EB4D3",
"R 	c #E1E6EF",
"S 	c #EBEDF3",
"T 	c #ACBED8",
"U 	c #698CBB",
"V 	c #3C6BA8",
"W 	c #6B8EBC",
"X 	c #C5D1E3",
"Y 	c #F3F3F6",
"Z 	c #F2F2F6",
"` 	c #F0F0F5",
" .	c #D9E5F3",
"..	c #BDD1EA",
"+.	c #5384C5",
"@.	c #AEC5E3",
"#.	c #D3E2F2",
"$.	c #DFE7F1",
"%.	c #E2E8F2",
"&.	c #DCE3ED",
"*.	c #A7BAD5",
"=.	c #5F84B6",
"-.	c #3465A4",
";.	c #3667A5",
">.	c #688CBA",
",.	c #A7BCD8",
"'.	c #7D9DC5",
").	c #3E6DA8",
"!.	c #4D78AF",
"~.	c #AFC0D8",
"{.	c #E0E6F0",
"].	c #E0E7F2",
"^.	c #DFE6F1",
"/.	c #D2E0F2",
"(.	c #AFC5E4",
"_.	c #84A8D3",
":.	c #D9E6F4",
"<.	c #EFF0F4",
"[.	c #ECECF0",
"}.	c #A9B8CF",
"|.	c #4C76AC",
"1.	c #3767A5",
"2.	c #8AA2C3",
"3.	c #E2E3E8",
"4.	c #F1F1F5",
"5.	c #F1F1F6",
"6.	c #EDEEF4",
"7.	c #D7E5F4",
"8.	c #84A7D3",
"9.	c #5688C4",
"0.	c #D1E0F2",
"a.	c #D7E1EE",
"b.	c #E2E9F2",
"c.	c #D0D6E2",
"d.	c #6586B2",
"e.	c #4571A9",
"f.	c #A5B4C9",
"g.	c #DBE1EA",
"h.	c #E1E7F2",
"i.	c #E0E7F1",
"j.	c #DEE6F1",
"k.	c #DDE5F1",
"l.	c #DDE5F0",
"m.	c #DCE4F0",
"n.	c #D4E0EE",
"o.	c #CFDFF2",
"p.	c #5383C2",
"q.	c #B9CBE5",
"r.	c #E8E8EE",
"s.	c #91A3BE",
"t.	c #C7CAD2",
"u.	c #EEEEF3",
"v.	c #F0F0F6",
"w.	c #EFEFF5",
"x.	c #EFEFF4",
"y.	c #E2EAF3",
"z.	c #B8CBE7",
"A.	c #5B89C5",
"B.	c #DAE2EF",
"C.	c #E1E8F1",
"D.	c #DFE5F0",
"E.	c #E1E7F1",
"F.	c #D4DBE5",
"G.	c #C1C7D1",
"H.	c #BDC4CD",
"I.	c #E0E6F2",
"J.	c #DEE5F0",
"K.	c #DBE3EF",
"L.	c #DAE3EF",
"M.	c #D9E2EF",
"N.	c #D7E0EE",
"O.	c #D7E7F4",
"P.	c #2E3537",
"Q.	c #2E3435",
"R.	c #313941",
"S.	c #454D54",
"T.	c #646A6E",
"U.	c #8D9093",
"V.	c #BBBDC1",
"W.	c #ECECF1",
"X.	c #F0F0F4",
"Y.	c #ADAFB3",
"Z.	c #7B7E82",
"`.	c #494E51",
" +	c #32383A",
".+	c #75797C",
"++	c #C2C3C8",
"@+	c #EEEEF4",
"#+	c #EDEDF4",
"$+	c #EAEAF1",
"%+	c #E6E6EE",
"&+	c #E0E6F3",
"*+	c #B4C8E5",
"=+	c #4E80BF",
"-+	c #446998",
";+	c #747D84",
">+	c #3B4245",
",+	c #2E3436",
"'+	c #3C4245",
")+	c #787E84",
"!+	c #B9C0C9",
"~+	c #DFE6F0",
"{+	c #DEE4EF",
"]+	c #ACB3BB",
"^+	c #6A7074",
"/+	c #33393C",
"(+	c #303638",
"_+	c #71787D",
":+	c #C9CFD9",
"<+	c #DEE5F1",
"[+	c #DDE4F0",
"}+	c #D2DCEB",
"|+	c #C6D2E6",
"1+	c #BCCBE2",
"2+	c #BBCBE2",
"3+	c #BECFE5",
"4+	c #D9E5F4",
"5+	c #4D7EBE",
"6+	c #739BCC",
"7+	c #E1EAF6",
"8+	c #E3E3E7",
"9+	c #9B9EA2",
"0+	c #464B4D",
"a+	c #4F5456",
"b+	c #9DA0A3",
"c+	c #95989C",
"d+	c #515558",
"e+	c #B8BABF",
"f+	c #E6E6EB",
"g+	c #EEEEF5",
"h+	c #E9E9F1",
"i+	c #E3E3ED",
"j+	c #E1E1EC",
"k+	c #E0E0EB",
"l+	c #E0E0EA",
"m+	c #DFE9F5",
"n+	c #749ACC",
"o+	c #B0C5E2",
"p+	c #D9E3F1",
"q+	c #DCE3EF",
"r+	c #D2D9E4",
"s+	c #7B8187",
"t+	c #353B3C",
"u+	c #373D40",
"v+	c #83898F",
"w+	c #C7CDD6",
"x+	c #DCE1EB",
"y+	c #E1E6F1",
"z+	c #DFE5F1",
"A+	c #D5DDED",
"B+	c #C8D3E7",
"C+	c #C4D0E5",
"D+	c #C1CEE4",
"E+	c #C2CFE4",
"F+	c #C0CDE3",
"G+	c #BFCCE3",
"H+	c #BECCE2",
"I+	c #BCCBE3",
"J+	c #BBCAE2",
"K+	c #D1DEEF",
"L+	c #B1C6E2",
"M+	c #4E7EBD",
"N+	c #D1DDEE",
"O+	c #E9ECF3",
"P+	c #EDEDF2",
"Q+	c #EDEDF3",
"R+	c #CECED4",
"S+	c #5D6163",
"T+	c #54585B",
"U+	c #B9BABF",
"V+	c #E0E0E6",
"W+	c #E6E6F0",
"X+	c #E2E2EE",
"Y+	c #E2E2ED",
"Z+	c #E1E5F0",
"`+	c #D0DEEE",
" @	c #4C7DBB",
".@	c #D8E1EE",
"+@	c #DAE2EE",
"@@	c #DBE2EE",
"#@	c #DCE3EE",
"$@	c #DDE4EF",
"%@	c #D9E0EC",
"&@	c #7C8187",
"*@	c #2F3537",
"=@	c #7D8288",
"-@	c #C9CFD8",
";@	c #DCE1EC",
">@	c #E2E7F1",
",@	c #A9ACAC",
"'@	c #888A85",
")@	c #A8ADAC",
"!@	c #4678B8",
"~@	c #E8EFF8",
"{@	c #EBECF2",
"]@	c #ECECF2",
"^@	c #ECECF3",
"/@	c #ACAEB2",
"(@	c #B4B5BA",
"_@	c #EDEDF5",
":@	c #F0F0EF",
"<@	c #F3F3F2",
"[@	c #F1F1EF",
"}@	c #4779B8",
"|@	c #4375B6",
"1@	c #E9F1F9",
"2@	c #D7E0EC",
"3@	c #D8E0ED",
"4@	c #D9E1ED",
"5@	c #DAE1EE",
"6@	c #DDE3EF",
"7@	c #DEE3EF",
"8@	c #E0E5F0",
"9@	c #DFE4F0",
"0@	c #E2E6F1",
"a@	c #E3E6F1",
"b@	c #E2E7F2",
"c@	c #F4F4F3",
"d@	c #757574",
"e@	c #4274B5",
"f@	c #EBF3FB",
"g@	c #EAEBF1",
"h@	c #EBEBF1",
"i@	c #EBEBF2",
"j@	c #F5F5F3",
"k@	c #F5F5F4",
"l@	c #4575B5",
"m@	c #EAF2F9",
"n@	c #D7DFEC",
"o@	c #D9E0ED",
"p@	c #DAE1ED",
"q@	c #DBE1EE",
"r@	c #DFE4EF",
"s@	c #E0E5EF",
"t@	c #E1E5F1",
"u@	c #E1E6F0",
"v@	c #E2E6F0",
"w@	c #E3E6F2",
"x@	c #E3E7F2",
"y@	c #E4E7F2",
"z@	c #4575B6",
"A@	c #4978B7",
"B@	c #E8EFF7",
"C@	c #E9EAF1",
"D@	c #EAEAF0",
"E@	c #EAEAF2",
"F@	c #EBEBF3",
"G@	c #ECECF4",
"H@	c #EBEBF4",
"I@	c #F6F6F5",
"J@	c #EEEEEC",
"K@	c #4979B6",
"L@	c #D9E3EF",
"M@	c #DCE3F0",
"N@	c #D6DEEC",
"O@	c #D8DFEC",
"P@	c #DCE1ED",
"Q@	c #DCE1EE",
"R@	c #DCE2EE",
"S@	c #DEE3EE",
"T@	c #E0E4EF",
"U@	c #E2E5F0",
"V@	c #E4E7F1",
"W@	c #E2E5F1",
"X@	c #DBDFED",
"Y@	c #F7F7F6",
"Z@	c #D4D5D1",
"`@	c #4B7AB6",
" #	c #4274B3",
".#	c #B9CAE2",
"+#	c #EDEEF5",
"@#	c #E8E8EF",
"##	c #E8E8F0",
"$#	c #E9E9F0",
"%#	c #EAEAF3",
"&#	c #E7E7F1",
"*#	c #E4E4EF",
"=#	c #E4E4F0",
"-#	c #F8F8F7",
";#	c #7699C7",
">#	c #EFF2F8",
",#	c #D4DCEA",
"'#	c #D6DDEB",
")#	c #D7DEEC",
"!#	c #D9DFEC",
"~#	c #D8D6E2",
"{#	c #C9969E",
"]#	c #BE666B",
"^#	c #B43D41",
"/#	c #AC1F21",
"(#	c #A91314",
"_#	c #A70B0B",
":#	c #A81314",
"<#	c #AB1F21",
"[#	c #B43D40",
"}#	c #BE656C",
"|#	c #CC969F",
"1#	c #8A847F",
"2#	c #4373B1",
"3#	c #F1F4F8",
"4#	c #E7E7EF",
"5#	c #E7E7F0",
"6#	c #DBBBC1",
"7#	c #BA4D50",
"8#	c #A70A0B",
"9#	c #B82222",
"0#	c #CD4444",
"a#	c #DB5D5D",
"b#	c #E56F6F",
"c#	c #EA7777",
"d#	c #ED7B7B",
"e#	c #B82323",
"f#	c #A40707",
"g#	c #C05353",
"h#	c #E0C0BF",
"i#	c #F9F9F8",
"j#	c #4472B1",
"k#	c #C1CFE4",
"l#	c #E6EAF2",
"m#	c #D3DCEA",
"n#	c #D1D0DE",
"o#	c #B75157",
"p#	c #AD1111",
"q#	c #D24D4D",
"r#	c #F17F7F",
"s#	c #F68585",
"t#	c #F58282",
"u#	c #F58181",
"v#	c #F58080",
"w#	c #F58383",
"x#	c #F58686",
"y#	c #F58888",
"z#	c #F68B8B",
"A#	c #F18585",
"B#	c #D25252",
"C#	c #AC1111",
"D#	c #932B2B",
"E#	c #786F6E",
"F#	c #FAFAF9",
"G#	c #527DB6",
"H#	c #F7F9FB",
"I#	c #DFCDD4",
"J#	c #C93F3F",
"K#	c #F38181",
"L#	c #F57D7D",
"M#	c #F47575",
"N#	c #F47474",
"O#	c #F57676",
"P#	c #F57777",
"Q#	c #F57878",
"R#	c #F57979",
"S#	c #F57A7A",
"T#	c #F57B7B",
"U#	c #F68989",
"V#	c #F38D8D",
"W#	c #C94646",
"X#	c #AE2221",
"Y#	c #E6D4D2",
"Z#	c #FAFAFA",
"`#	c #4573B1",
" $	c #C7CDDD",
".$	c #B0292B",
"+$	c #D65454",
"@$	c #F68080",
"#$	c #F46E6E",
"$$	c #F46C6C",
"%$	c #F46D6D",
"&$	c #F46F6F",
"*$	c #F47070",
"=$	c #F47171",
"-$	c #F47272",
";$	c #F47373",
">$	c #F68E8E",
",$	c #D75D5D",
"'$	c #9C1514",
")$	c #76706F",
"!$	c #FBFBFB",
"~$	c #753F5E",
"{$	c #C33232",
"]$	c #F57F7F",
"^$	c #F36464",
"/$	c #F36565",
"($	c #F36666",
"_$	c #F36767",
":$	c #F36868",
"<$	c #F46A6A",
"[$	c #F46B6B",
"}$	c #C43838",
"|$	c #CD8281",
"1$	c #FCFCFB",
"2$	c #9B0A10",
"3$	c #E87272",
"4$	c #F35D5D",
"5$	c #F35E5E",
"6$	c #F35F5F",
"7$	c #F36060",
"8$	c #F36161",
"9$	c #F36262",
"0$	c #F36363",
"a$	c #E97F7F",
"b$	c #9C1615",
"c$	c #FCFCFC",
"d$	c #A40000",
"e$	c #F48C8C",
"f$	c #F25656",
"g$	c #F25757",
"h$	c #F25858",
"i$	c #F25959",
"j$	c #F25A5A",
"k$	c #F25B5B",
"l$	c #F35C5C",
"m$	c #E7675C",
"n$	c #BF798A",
"o$	c #C07A8D",
"p$	c #C07B8E",
"q$	c #C07C8F",
"r$	c #C07D90",
"s$	c #C07F92",
"t$	c #D3A6B3",
"u$	c #A60707",
"v$	c #FDFDFD",
"w$	c #F08C8B",
"x$	c #F24F4F",
"y$	c #F25050",
"z$	c #F25151",
"A$	c #F25252",
"B$	c #F25353",
"C$	c #F25454",
"D$	c #F25555",
"E$	c #B29537",
"F$	c #92A16C",
"G$	c #729FCF",
"H$	c #7DA6D3",
"I$	c #A5B2CD",
"J$	c #FEFEFE",
"K$	c #A30000",
"L$	c #DB817C",
"M$	c #F68484",
"N$	c #F14A4A",
"O$	c #F14949",
"P$	c #F14B4B",
"Q$	c #F14C4C",
"R$	c #F14D4D",
"S$	c #F14E4E",
"T$	c #F14F4F",
"U$	c #F15150",
"V$	c #84C01E",
"W$	c #7BC91B",
"X$	c #7C9DB8",
"Y$	c #74A0D0",
"Z$	c #A1BFDF",
"`$	c #677A8E",
" %	c #A60706",
".%	c #FFFFFF",
"+%	c #A10000",
"@%	c #B76A61",
"#%	c #EB8C8A",
"$%	c #F24C4C",
"%%	c #F14444",
"&%	c #F14545",
"*%	c #F14646",
"=%	c #F14747",
"-%	c #F14848",
";%	c #D4693D",
">%	c #73D216",
",%	c #91AC3C",
"'%	c #79A4D1",
")%	c #A5C2E0",
"!%	c #9EA9BF",
"~%	c #293B40",
"{%	c #940000",
"]%	c #A92622",
"^%	c #B77F72",
"/%	c #E48783",
"(%	c #F89E9E",
"_%	c #F03F3F",
":%	c #F04040",
"<%	c #F04141",
"[%	c #F04242",
"}%	c #A59928",
"|%	c #74D116",
"1%	c #8B9B85",
"2%	c #77A2D1",
"3%	c #96B7DB",
"4%	c #BACFE6",
"5%	c #979DAF",
"6%	c #114049",
"7%	c #6C1F1E",
"8%	c #CC807F",
"9%	c #A00000",
"0%	c #A93A34",
"a%	c #AD776A",
"b%	c #C5756C",
"c%	c #EC8E8C",
"d%	c #F9AAAA",
"e%	c #F35B5B",
"f%	c #EE504B",
"g%	c #81CC24",
"h%	c #77D31D",
"i%	c #7AD421",
"j%	c #7FD62A",
"k%	c #98C946",
"l%	c #9CB9D6",
"m%	c #AFC8E4",
"n%	c #C4D4E8",
"o%	c #B0B0C3",
"p%	c #4B636F",
"q%	c #0E3D47",
"r%	c #472F30",
"s%	c #9C1212",
"t%	c #77706F",
"u%	c #A62520",
"v%	c #A56457",
"w%	c #A3695B",
"x%	c #AF6357",
"y%	c #D0726B",
"z%	c #E68784",
"A%	c #F19897",
"B%	c #E6BFA4",
"C%	c #C8EDA4",
"D%	c #CAEEA7",
"E%	c #C7E79C",
"F%	c #C2D68B",
"G%	c #B7AC90",
"H%	c #738090",
"I%	c #24515F",
"J%	c #10424D",
"K%	c #133C47",
"L%	c #5E2525",
"M%	c #AD1E1E",
"N%	c #960000",
"O%	c #A40504",
"P%	c #A12D26",
"Q%	c #9C5044",
"R%	c #995B4B",
"S%	c #965747",
"T%	c #935443",
"U%	c #957741",
"V%	c #91963F",
"W%	c #8A9039",
"X%	c #858438",
"Y%	c #7E8137",
"Z%	c #777A34",
"`%	c #6A6537",
" &	c #134755",
".&	c #204149",
"+&	c #4E2D2F",
"@&	c #940908",
"#&	c #BD5151",
"$&	c #E9DFDD",
"%&	c #980000",
"&&	c #A10D0B",
"*&	c #9D211A",
"=&	c #982D23",
"-&	c #945A31",
";&	c #8E7B38",
">&	c #897A36",
",&	c #827935",
"'&	c #7D6C30",
")&	c #7F5D2A",
"!&	c #803C22",
"~&	c #841414",
"{&	c #A40303",
"]&	c #BF4E4E",
"^&	c #EBC7C7",
"/&	c #F8F8F8",
"(&	c #878984",
"_&	c #910000",
":&	c #9A0000",
"<&	c #A20000",
"[&	c #990000",
"}&	c #8C0000",
"|&	c #6F0000",
"1&	c #817770",
"2&	c #868882",
"                                                                                                ",
"                                                                                                ",
"                                        . + @ # $ # @ + .                                       ",
"                                  % & * = - ; > , > ; - = * & %                                 ",
"                            ' ) ! ~ { ] ^ / ( _ : < [ } ^ | > ~ ! ) '                           ",
"                          @ 1 ; 2 3 4 5 5 5 5 5 5 5 5 5 5 6 7 3 2 8 1 @                         ",
"                      # 9 0 a / b _ b b _ _ _ c c < d d e e e f f g h i 9 #                     ",
"                    j k l m 7 6 7 7 7 7 6 7 7 7 7 7 7 7 7 n n n n n n m o k j                   ",
"                  p q r s t [ e f f f ( u v v v w x y z A B B B B C D E F G H p                 ",
"                I J K L M N O P Q R n n n S T U V W X n Y Z Z Z Z Z Z Z Z `  ...I               ",
"              +.@.#.$.B %.&.*.=.-.;.>.,.'.).-.!.~.{.B B %.E E ].].^.$.^.^.g F /.(.+.            ",
"              _.:.<.Z Z Z Z Z [.}.|.-.-.-.1.2.3.4.Z 5.Z Z Z Z 5.5.5.5.5.5.` ` 6.7.8.            ",
"            9.0.a.E E E %.%.%.%.b.c.d.-.e.f.g.%.E E E h.h.].i.].$.^.j.k.l.m.m.m.n.o.9.          ",
"          p.q.%.4.4.4.4.4.4.5.5.4.5.r.s.t.u.5.5.5.5.5.5.5.v.v.` ` ` ` ` ` ` w.w.x.y.z.p.        ",
"          A.7.B.i.$.i.i.i.i.i.i.h.E C.D.E.E.F.G.H.F.h.i.w I.^.^.^.J.k.m.m.m.K.L.M.N.O.A.        ",
"    P.Q.R.S.T.U.V.W.X.X.` ` ` ` ` ` 3.Y.Z.`. +.+++v.` ` ` ` ` w.w.w.w.w.x.@+@+#+$+%+&+*+=+      ",
"        -+;+>+,+,+'+)+!+~+{.w {+]+^+/+,+(+_+:+i.i.w w w w i.w <+[+J.[+m.K.}+|+1+2+z 3+4+5+      ",
"        6+7+8+9+0+,+,+,+a+b+c+0+,+,+,+d+e+f+@+` w.w.w.w.w.w.w.w.w.w.g+h+i+j+j+k+k+k+l+m+n+      ",
"        o+p+q+q+r+s+t+,+,+,+,+,+,+u+v+w+x+y+E.E.y+y+y+y+w z+z+J.J.A+B+C+D+E+F+G+H+I+J+K+L+      ",
"      M+N+O+P+Q+Q+Q+R+S+,+,+,+,+T+U+V+@+w.w.g+g+g+w.w.w.w.g+g+#+W+X+Y+Y+Y+Y+j+j+j+k+k+Z+`+M+    ",
"       @m+.@+@@@#@#@$@%@&@*@(+=@-@;@{.y+y+>@y+y+,@'@'@'@'@'@'@'@'@'@'@'@'@'@'@'@'@'@'@'@)@ @    ",
"      !@~@{@]@]@]@]@]@^@^@/@(@f+#+#+#+#+#+_@g+g+'@:@<@<@<@<@<@<@<@<@<@<@<@<@<@<@<@<@<@[@'@}@    ",
"      |@1@2@3@4@5@@@#@6@{+{+7@8@9@8@y+0@>@0@a@b@'@c@d@d@d@d@d@d@d@d@d@d@d@d@d@d@d@d@d@c@'@|@    ",
"      e@f@g@$+h@h@h@i@i@^@]@i@^@^@^@^@^@#+#+_@_@'@j@d@d@d@d@d@d@d@d@d@d@d@d@d@d@d@d@d@k@'@e@    ",
"      l@m@n@2@3@o@p@q@q@6@6@{+r@s@t@u@0@v@w@x@y@'@k@d@d@d@d@d@d@d@d@d@d@d@d@d@d@d@d@d@k@'@z@    ",
"      A@B@C@D@D@h+$+$+$+E@E@i@i@F@F@F@^@^@G@G@H@'@I@J@J@J@J@J@J@J@J@J@J@J@J@J@J@J@J@J@I@'@A@    ",
"      K@L@M@N@n@O@%@o@P@Q@R@S@7@T@Z+U@a@y@V@W@X@'@Y@d@d@d@d@d@J@J@J@Z@Z@Z@J@J@J@Z@Z@Z@Y@'@`@    ",
"       #.#+#@###$#$#$#$#h+h+$+$+E@E@%#F@%#&#*#=#'@Y@J@J@J@J@J@J@J@J@J@J@J@J@J@J@J@J@J@-#'@ #    ",
"        ;#>#,#'#'#)#O@!#~#{#]#^#/#(#_#:#<#[#}#|#1#-#d@d@d@d@d@J@J@J@Z@Z@Z@J@J@J@Z@Z@Z@-#'@      ",
"        2#3#$#4#4#5#6#7#8#9#0#a#b#c#d#c#b#a#0#e#f#g#h#J@J@J@J@J@J@J@J@J@J@J@J@J@J@J@J@i#'@      ",
"        j#k#l#m#n#o#p#q#r#s#t#u#v#v#v#u#w#x#y#z#A#B#C#D#E#d@d@J@J@J@Z@Z@Z@J@J@J@Z@Z@Z@F#'@      ",
"          G#H#I#/#J#K#L#M#N#M#O#P#Q#R#S#T#T#L#L#v#U#V#W#X#Y#J@J@J@J@J@J@J@J@J@J@J@J@J@Z#'@      ",
"          `# $.$+$@$#$$$$$%$#$&$*$=$-$;$N#M#O#P#Q#R#L#>$,$'$)$J@J@J@Z@Z@Z@J@J@J@Z@Z@Z@!$'@      ",
"            ~${$]$^$^$/$($_$:$:$<$[$[$$$%$#$&$*$=$-$;$M#>$}$|$J@J@J@J@J@J@J@J@J@J@J@J@1$'@      ",
"            2$3$^$4$4$5$6$7$8$9$0$^$/$($_$_$:$<$<$[$$$%$O#a$b$J@J@J@Z@Z@Z@J@J@J@Z@Z@Z@c$'@      ",
"            d$e$f$f$g$h$i$i$j$k$l$4$m$n$o$o$p$p$q$r$r$r$s$t$u$J@J@J@J@J@J@J@J@J@J@J@J@v$'@      ",
"            d$w$k$x$y$z$A$B$C$D$f$g$E$F$G$G$G$G$G$G$G$G$H$I$d$J@J@J@Z@Z@Z@J@J@J@Z@Z@Z@J$'@      ",
"            K$L$M$N$O$N$P$Q$R$S$T$U$V$W$X$G$G$G$G$G$G$Y$Z$`$ %J@J@J@J@J@J@J@J@J@J@J@J@.%'@      ",
"            +%@%#%x#$%%%&%&%*%=%-%;%>%>%,%G$G$G$G$G$'%)%!%~%b$J@J@J@Z@Z@Z@J@J@J@Z@Z@Z@.%'@      ",
"            {%]%^%/%(%#$&%_%:%<%[%}%>%>%|%1%G$G$2%3%4%5%6%7%8%J@J@J@J@J@J@J@J@J@J@J@J@.%'@      ",
"              9%0%a%b%c%d%>$&$e%f%g%h%i%j%k%l%m%n%o%p%q%r%s%t%J@J@J@Z@Z@Z@J@J@J@Z@Z@Z@.%'@      ",
"                9%u%v%w%x%y%z%A%B%C%D%C%E%F%G%H%I%J%K%L%M%Y#J@J@J@J@J@J@J@J@J@J@J@J@J@.%'@      ",
"                  N%O%P%Q%R%S%T%U%V%W%X%Y%Z%`% &.&+&@&#&$&J@J@J@J@J@J@J@J@J@J@J@J@J@J@.%'@      ",
"                      %&d$&&*&=&-&;&>&,&'&)&!&~&{&]&^&.%.%.%.%.%.%.%.%.%.%.%.%.%.%.%.%/&(&      ",
"                            _&:&9%<&d$<&9%[&}&|&1&'@'@'@'@'@'@'@'@'@'@'@'@'@'@'@'@'@'@'@2&      ",
"                                                                                                ",
"                                                                                                ",
"                                                                                                "};
