/* XPM */
static char * ooo_math_xpm[] = {
"48 48 740 2",
"  	c None",
". 	c #5386C7",
"+ 	c #5989C8",
"@ 	c #5688C8",
"# 	c #5486C8",
"$ 	c #5184C7",
"% 	c #5789C7",
"& 	c #6291CC",
"* 	c #99B7DE",
"= 	c #BCD1EA",
"- 	c #CADCEF",
"; 	c #D1E2F4",
"> 	c #D2E3F5",
", 	c #D2E4F6",
"' 	c #5385C6",
") 	c #5888C9",
"! 	c #9FBBE0",
"~ 	c #CCDCF0",
"{ 	c #D1E3F5",
"] 	c #D3E1F0",
"^ 	c #D9E4F1",
"/ 	c #DEE7F2",
"( 	c #E4EBF4",
"_ 	c #E7EDF5",
": 	c #EAEFF6",
"< 	c #E6ECF5",
"[ 	c #E3EAF3",
"} 	c #E0E9F3",
"| 	c #D4E2F1",
"1 	c #A7C1E3",
"2 	c #DDE8F4",
"3 	c #ECEEF5",
"4 	c #F4F5F8",
"5 	c #F5F5F8",
"6 	c #F4F4F8",
"7 	c #F4F4F7",
"8 	c #D1E3F4",
"9 	c #78A0D3",
"0 	c #CEDFF2",
"a 	c #D3E1F2",
"b 	c #E8EDF5",
"c 	c #E7ECF5",
"d 	c #E6ECF4",
"e 	c #E5ECF4",
"f 	c #E5EBF4",
"g 	c #DDE6F1",
"h 	c #D0E1F1",
"i 	c #CADDF1",
"j 	c #5386C5",
"k 	c #A6C0E1",
"l 	c #D3E4F5",
"m 	c #E9ECF4",
"n 	c #F3F3F7",
"o 	c #D3E5F5",
"p 	c #5587C6",
"q 	c #BACFE8",
"r 	c #C8D9EE",
"s 	c #C8D5E8",
"t 	c #D3DDEB",
"u 	c #E4EBF3",
"v 	c #E4EAF3",
"w 	c #E0E6F1",
"x 	c #BCCDE2",
"y 	c #A3B9D6",
"z 	c #B9C9E0",
"A 	c #E2E8F3",
"B 	c #E2E9F3",
"C 	c #E1E9F3",
"D 	c #E1E8F3",
"E 	c #E1E8F2",
"F 	c #DAE3F0",
"G 	c #D1E1F3",
"H 	c #BAD0E9",
"I 	c #5384C6",
"J 	c #BCD1E9",
"K 	c #C8D7EA",
"L 	c #AABDD7",
"M 	c #819EC6",
"N 	c #4571AB",
"O 	c #3A69A6",
"P 	c #6287B8",
"Q 	c #9EB4D3",
"R 	c #E1E6EF",
"S 	c #EBEDF3",
"T 	c #ACBED8",
"U 	c #698CBB",
"V 	c #3C6BA8",
"W 	c #6B8EBC",
"X 	c #C5D1E3",
"Y 	c #F3F3F6",
"Z 	c #F2F2F6",
"` 	c #F0F0F5",
" .	c #D9E5F3",
"..	c #BDD1EA",
"+.	c #5384C5",
"@.	c #AEC5E3",
"#.	c #D3E2F2",
"$.	c #DFE7F1",
"%.	c #E2E8F2",
"&.	c #DCE3ED",
"*.	c #A7BAD5",
"=.	c #5F84B6",
"-.	c #3465A4",
";.	c #3667A5",
">.	c #688CBA",
",.	c #A7BCD8",
"'.	c #7D9DC5",
").	c #3E6DA8",
"!.	c #4D78AF",
"~.	c #AFC0D8",
"{.	c #E0E6F0",
"].	c #E0E7F2",
"^.	c #DFE6F1",
"/.	c #D2E0F2",
"(.	c #AFC5E4",
"_.	c #84A8D3",
":.	c #D9E6F4",
"<.	c #EFF0F4",
"[.	c #ECECF0",
"}.	c #A9B8CF",
"|.	c #4C76AC",
"1.	c #3767A5",
"2.	c #8AA2C3",
"3.	c #E2E3E8",
"4.	c #F1F1F5",
"5.	c #F1F1F6",
"6.	c #EDEEF4",
"7.	c #D7E5F4",
"8.	c #84A7D3",
"9.	c #5688C4",
"0.	c #D1E0F2",
"a.	c #D7E1EE",
"b.	c #E2E9F2",
"c.	c #D0D6E2",
"d.	c #6586B2",
"e.	c #4571A9",
"f.	c #A5B4C9",
"g.	c #DBE1EA",
"h.	c #E1E7F2",
"i.	c #E0E7F1",
"j.	c #DEE6F1",
"k.	c #DDE5F1",
"l.	c #DDE5F0",
"m.	c #DCE4F0",
"n.	c #D4E0EE",
"o.	c #CFDFF2",
"p.	c #5383C2",
"q.	c #B9CBE5",
"r.	c #E8E8EE",
"s.	c #91A3BE",
"t.	c #C7CAD2",
"u.	c #EEEEF3",
"v.	c #F0F0F6",
"w.	c #EFEFF5",
"x.	c #EFEFF4",
"y.	c #E2EAF3",
"z.	c #B8CBE7",
"A.	c #5B89C5",
"B.	c #DAE2EF",
"C.	c #E1E8F1",
"D.	c #DFE5F0",
"E.	c #E1E7F1",
"F.	c #D4DBE5",
"G.	c #C1C7D1",
"H.	c #BDC4CD",
"I.	c #E0E6F2",
"J.	c #DEE5F0",
"K.	c #DBE3EF",
"L.	c #DAE3EF",
"M.	c #D9E2EF",
"N.	c #D7E0EE",
"O.	c #D7E7F4",
"P.	c #2E3537",
"Q.	c #2E3435",
"R.	c #313941",
"S.	c #454D54",
"T.	c #646A6E",
"U.	c #8D9093",
"V.	c #BBBDC1",
"W.	c #ECECF1",
"X.	c #F0F0F4",
"Y.	c #ADAFB3",
"Z.	c #7B7E82",
"`.	c #494E51",
" +	c #32383A",
".+	c #75797C",
"++	c #C2C3C8",
"@+	c #EEEEF4",
"#+	c #EDEDF4",
"$+	c #EAEAF1",
"%+	c #E6E6EE",
"&+	c #E0E6F3",
"*+	c #B4C8E5",
"=+	c #4E80BF",
"-+	c #446998",
";+	c #747D84",
">+	c #3B4245",
",+	c #2E3436",
"'+	c #3C4245",
")+	c #787E84",
"!+	c #B9C0C9",
"~+	c #DFE6F0",
"{+	c #DEE4EF",
"]+	c #ACB3BB",
"^+	c #6A7074",
"/+	c #33393C",
"(+	c #303638",
"_+	c #71787D",
":+	c #C9CFD9",
"<+	c #DEE5F1",
"[+	c #DDE4F0",
"}+	c #D2DCEB",
"|+	c #C6D2E6",
"1+	c #BCCBE2",
"2+	c #BBCBE2",
"3+	c #BECFE5",
"4+	c #D9E5F4",
"5+	c #4D7EBE",
"6+	c #739BCC",
"7+	c #E1EAF6",
"8+	c #E3E3E7",
"9+	c #9B9EA2",
"0+	c #464B4D",
"a+	c #4F5456",
"b+	c #9DA0A3",
"c+	c #95989C",
"d+	c #515558",
"e+	c #B8BABF",
"f+	c #E6E6EB",
"g+	c #EEEEF5",
"h+	c #E9E9F1",
"i+	c #E3E3ED",
"j+	c #E1E1EC",
"k+	c #E0E0EB",
"l+	c #E0E0EA",
"m+	c #DFE9F5",
"n+	c #749ACC",
"o+	c #B0C5E2",
"p+	c #D9E3F1",
"q+	c #DCE3EF",
"r+	c #D2D9E4",
"s+	c #7B8187",
"t+	c #353B3C",
"u+	c #373D40",
"v+	c #83898F",
"w+	c #C7CDD6",
"x+	c #DCE1EB",
"y+	c #E1E6F1",
"z+	c #DFE5F1",
"A+	c #D5DDED",
"B+	c #C8D3E7",
"C+	c #C4D0E5",
"D+	c #C1CEE4",
"E+	c #C2CFE4",
"F+	c #C0CDE3",
"G+	c #BFCCE3",
"H+	c #BECCE2",
"I+	c #BCCBE3",
"J+	c #BBCAE2",
"K+	c #D1DEEF",
"L+	c #B1C6E2",
"M+	c #4E7EBD",
"N+	c #D1DDEE",
"O+	c #E9ECF3",
"P+	c #EDEDF2",
"Q+	c #EDEDF3",
"R+	c #CECED4",
"S+	c #5D6163",
"T+	c #54585B",
"U+	c #B9BABF",
"V+	c #E0E0E6",
"W+	c #E6E6F0",
"X+	c #E2E2EE",
"Y+	c #E2E2ED",
"Z+	c #E1E5F0",
"`+	c #D0DEEE",
" @	c #4C7DBB",
".@	c #D8E1EE",
"+@	c #DAE2EE",
"@@	c #DBE2EE",
"#@	c #DCE3EE",
"$@	c #DDE4EF",
"%@	c #D9E0EC",
"&@	c #7C8187",
"*@	c #2F3537",
"=@	c #7D8288",
"-@	c #C9CFD8",
";@	c #DCE1EC",
">@	c #E2E7F1",
",@	c #E1E6F2",
"'@	c #E0E5F1",
")@	c #D8E0ED",
"!@	c #CCD6E8",
"~@	c #CAD5E8",
"{@	c #CAD4E7",
"]@	c #C8D3E6",
"^@	c #C8D2E7",
"/@	c #C6D1E6",
"(@	c #C1CEE3",
"_@	c #C0CDE4",
":@	c #C4D1E6",
"<@	c #DEE8F4",
"[@	c #4678B8",
"}@	c #E8EFF8",
"|@	c #EBECF2",
"1@	c #ECECF2",
"2@	c #ECECF3",
"3@	c #ACAEB2",
"4@	c #B4B5BA",
"5@	c #EDEDF5",
"6@	c #E7E7F1",
"7@	c #E4E4EF",
"8@	c #E3E3EF",
"9@	c #E3E3EE",
"0@	c #E1E1EB",
"a@	c #E1E2ED",
"b@	c #E6EEF8",
"c@	c #4779B8",
"d@	c #4375B6",
"e@	c #E9F1F9",
"f@	c #D7E0EC",
"g@	c #D9E1ED",
"h@	c #DAE1EE",
"i@	c #DDE3EF",
"j@	c #DEE3EF",
"k@	c #E0E5F0",
"l@	c #DFE4F0",
"m@	c #E2E6F1",
"n@	c #E3E6F1",
"o@	c #E2E7F2",
"p@	c #E3E7F1",
"q@	c #DFE3F0",
"r@	c #D3DBEB",
"s@	c #D1D8EA",
"t@	c #D0D9EB",
"u@	c #D0D8E9",
"v@	c #CED6E9",
"w@	c #CDD5E9",
"x@	c #CCD5E8",
"y@	c #C6D2E5",
"z@	c #C5D1E5",
"A@	c #C3CFE4",
"B@	c #BFCDE3",
"C@	c #E8F1F9",
"D@	c #4274B5",
"E@	c #EBF3FB",
"F@	c #EAEBF1",
"G@	c #EBEBF1",
"H@	c #EBEBF2",
"I@	c #EAEAF3",
"J@	c #E4E4F0",
"K@	c #E1E2EC",
"L@	c #EAF2FB",
"M@	c #4575B5",
"N@	c #EAF2F9",
"O@	c #D7DFEC",
"P@	c #D9E0ED",
"Q@	c #DAE1ED",
"R@	c #DBE1EE",
"S@	c #DFE4EF",
"T@	c #E0E5EF",
"U@	c #E1E5F1",
"V@	c #E1E6F0",
"W@	c #E2E6F0",
"X@	c #E3E6F2",
"Y@	c #E3E7F2",
"Z@	c #E4E7F2",
"`@	c #B3C8E5",
" #	c #9EBBE0",
".#	c #9FBCE0",
"+#	c #A1BDE1",
"@#	c #A0BDE0",
"##	c #A3BDE1",
"$#	c #B8CAE4",
"%#	c #4575B6",
"&#	c #4978B7",
"*#	c #E8EFF7",
"=#	c #E9EAF1",
"-#	c #EAEAF0",
";#	c #EAEAF2",
">#	c #EBEBF3",
",#	c #ECECF4",
"'#	c #EBEBF4",
")#	c #E6E6F1",
"!#	c #E1E3EF",
"~#	c #A7C1E2",
"{#	c #D6DFE9",
"]#	c #EEEEEC",
"^#	c #E9EAEB",
"/#	c #E7EAEB",
"(#	c #E3E7EB",
"_#	c #D2DCE8",
":#	c #ABC3E3",
"<#	c #E8EEF7",
"[#	c #4979B6",
"}#	c #D9E3EF",
"|#	c #DCE3F0",
"1#	c #D6DEEC",
"2#	c #D8DFEC",
"3#	c #DCE1ED",
"4#	c #DCE1EE",
"5#	c #DCE2EE",
"6#	c #DEE3EE",
"7#	c #E0E4EF",
"8#	c #E2E5F0",
"9#	c #E4E7F1",
"0#	c #E2E5F1",
"a#	c #DBDFED",
"b#	c #DCE0ED",
"c#	c #DBDFEE",
"d#	c #CDD7EC",
"e#	c #ECECEB",
"f#	c #B6CAE3",
"g#	c #A3BFE1",
"h#	c #A5BFE1",
"i#	c #A9C2E1",
"j#	c #A8C1E1",
"k#	c #A2BDE0",
"l#	c #B9CCE5",
"m#	c #D9E2F0",
"n#	c #4B7AB6",
"o#	c #4274B3",
"p#	c #B9CAE2",
"q#	c #EDEEF5",
"r#	c #E8E8EF",
"s#	c #E8E8F0",
"t#	c #E9E9F0",
"u#	c #E5E5F0",
"v#	c #E5E5F1",
"w#	c #C4D1E9",
"x#	c #B6CBE3",
"y#	c #E3E7EA",
"z#	c #A4BFE1",
"A#	c #D4DBED",
"B#	c #E4E4F1",
"C#	c #E1E2EF",
"D#	c #E0E1EF",
"E#	c #E0E1EE",
"F#	c #DEE0EE",
"G#	c #DEE0ED",
"H#	c #DDDFED",
"I#	c #DDDFEC",
"J#	c #DDDFEB",
"K#	c #EBEEF5",
"L#	c #B9C9E3",
"M#	c #7699C7",
"N#	c #EFF2F8",
"O#	c #D4DCEA",
"P#	c #D6DDEB",
"Q#	c #D7DEEC",
"R#	c #D9DFEC",
"S#	c #DBE1ED",
"T#	c #DDE2EE",
"U#	c #DEE2EF",
"V#	c #E1E4EF",
"W#	c #DDE0ED",
"X#	c #DEE0EF",
"Y#	c #DFE1EF",
"Z#	c #E0E2EF",
"`#	c #E0E2F0",
" $	c #DEE0F0",
".$	c #AEC4E4",
"+$	c #CCD8E7",
"@$	c #D3DDE8",
"#$	c #A6BFE2",
"$$	c #D4DAEC",
"%$	c #D5DBEC",
"&$	c #D3DAEB",
"*$	c #D1D9EA",
"=$	c #D0D9EA",
"-$	c #CDD6E7",
";$	c #C9D3E8",
">$	c #C9D3E6",
",$	c #C8D2E6",
"'$	c #C5D0E5",
")$	c #ECF1F9",
"!$	c #779AC6",
"~$	c #4373B1",
"{$	c #F1F4F8",
"]$	c #E7E7EF",
"^$	c #E7E7F0",
"/$	c #E8E8F1",
"($	c #E4E4EE",
"_$	c #E6E6F2",
":$	c #E7E7F3",
"<$	c #E0E3F0",
"[$	c #A4BEE0",
"}$	c #DEE4EA",
"|$	c #B9CCE3",
"1$	c #B1C5E2",
"2$	c #E4E5EF",
"3$	c #EFF3F9",
"4$	c #4373B2",
"5$	c #4472B1",
"6$	c #C1CFE4",
"7$	c #E6EAF2",
"8$	c #D3DCEA",
"9$	c #D4DCEB",
"0$	c #D6DDEA",
"a$	c #D9DFEB",
"b$	c #D9DEEC",
"c$	c #DBDFEC",
"d$	c #DADEEC",
"e$	c #DEE0EC",
"f$	c #E0E2ED",
"g$	c #E1E3F0",
"h$	c #E4E5F0",
"i$	c #E5E6F1",
"j$	c #E6E7F1",
"k$	c #E4E6F1",
"l$	c #E2E4F1",
"m$	c #C9D5EA",
"n$	c #A1BBDD",
"o$	c #E6E9EB",
"p$	c #9EB9DB",
"q$	c #B9C9E4",
"r$	c #D5DBEB",
"s$	c #D3D9E9",
"t$	c #CFD7E9",
"u$	c #CCD5E7",
"v$	c #CBD4E8",
"w$	c #C9D3E7",
"x$	c #527DB6",
"y$	c #F7F9FB",
"z$	c #E5E5EE",
"A$	c #E6E6EF",
"B$	c #E5E5EF",
"C$	c #E4E4ED",
"D$	c #E8E8F2",
"E$	c #E9E9F2",
"F$	c #E9E9F3",
"G$	c #E8E8F3",
"H$	c #B2C5E2",
"I$	c #B1C5DE",
"J$	c #DBE1E8",
"K$	c #8FADD4",
"L$	c #D6DBEB",
"M$	c #F7F8FC",
"N$	c #537EB6",
"O$	c #4573B1",
"P$	c #C9D5E6",
"Q$	c #E7EBF3",
"R$	c #CCD5E6",
"S$	c #CDD6E6",
"T$	c #CDD4E6",
"U$	c #CDD5E6",
"V$	c #D0D6E7",
"W$	c #D3DAE9",
"X$	c #D5DBE9",
"Y$	c #D8DCEA",
"Z$	c #DEE1EE",
"`$	c #DFE3EE",
" %	c #E2E4EF",
".%	c #E3E5F0",
"+%	c #E6E7F2",
"@%	c #E7E8F1",
"#%	c #E7E8F2",
"$%	c #E7E8F3",
"%%	c #E5E6F2",
"&%	c #E4E6F2",
"*%	c #E1E4F0",
"=%	c #DDE1EF",
"-%	c #94B1D6",
";%	c #CAD6E2",
">%	c #BECDDF",
",%	c #8FADD3",
"'%	c #D0D7EA",
")%	c #D0D8EA",
"!%	c #CDD5E8",
"~%	c #E5EBF3",
"{%	c #CAD5E7",
"]%	c #4A77B3",
"^%	c #F7F8FA",
"/%	c #DFDFE9",
"(%	c #DFDFEA",
"_%	c #E3E3EC",
":%	c #EAEAF4",
"<%	c #D7DCEC",
"[%	c #87A7CF",
"}%	c #DFE4E8",
"|%	c #9BB4D4",
"1%	c #A4BADA",
"2%	c #F6F7FA",
"3%	c #89A4CB",
"4%	c #F7F8FB",
"5%	c #CBD5E6",
"6%	c #C9D3E4",
"7%	c #CAD3E5",
"8%	c #CED5E6",
"9%	c #D1D7E7",
"0%	c #D4DAE9",
"a%	c #D7DCEA",
"b%	c #D8DDEA",
"c%	c #DADFEC",
"d%	c #E0E3EF",
"e%	c #E3E6F0",
"f%	c #E5E7F1",
"g%	c #E6E8F2",
"h%	c #E7E9F2",
"i%	c #E1E4F1",
"j%	c #ADC1DD",
"k%	c #8FACD0",
"l%	c #7C9DC9",
"m%	c #B4C4DE",
"n%	c #CDD6E8",
"o%	c #CBD5E7",
"p%	c #CDD7E9",
"q%	c #8AA5CC",
"r%	c #4270AC",
"s%	c #BFCDE1",
"t%	c #F7F7FA",
"u%	c #E2E2EC",
"v%	c #A4B9D9",
"w%	c #91ACD0",
"x%	c #E5E8E9",
"y%	c #7699C6",
"z%	c #D0D6E8",
"A%	c #F8F8FB",
"B%	c #4270AD",
"C%	c #3F6EAB",
"D%	c #D6DEEB",
"E%	c #F1F3F8",
"F%	c #CCD4E5",
"G%	c #CBD4E6",
"H%	c #D0D7E7",
"I%	c #D1D8E8",
"J%	c #D9DEEB",
"K%	c #DADFEB",
"L%	c #DFE3EF",
"M%	c #E0E4F0",
"N%	c #DDE2EF",
"O%	c #DBE0EE",
"P%	c #BCCAE2",
"Q%	c #7396C4",
"R%	c #E0E4E7",
"S%	c #86A4CA",
"T%	c #A2B8D8",
"U%	c #CED7E8",
"V%	c #3E6DAA",
"W%	c #F9F9FB",
"X%	c #DEE1EC",
"Y%	c #7093C3",
"Z%	c #C4D0DE",
"`%	c #AABED5",
" &	c #85A2CA",
".&	c #E2E3EE",
"+&	c #D4DDEA",
"@&	c #3C6BA7",
"#&	c #B7C7DE",
"$&	c #FAFBFC",
"%&	c #DBE0ED",
"&&	c #CFD7E7",
"*&	c #D0D7E8",
"=&	c #D3D9E8",
"-&	c #D5DCEB",
";&	c #D6DCEB",
">&	c #D7DDEB",
",&	c #DADFEE",
"'&	c #DADEED",
")&	c #DAE0EC",
"!&	c #D8DEED",
"~&	c #86A3CC",
"{&	c #98B0CE",
"]&	c #CFD8E1",
"^&	c #648BBD",
"/&	c #C4D0E3",
"(&	c #FBFCFD",
"_&	c #B8C7DE",
":&	c #3D6BA9",
"<&	c #3A66A1",
"[&	c #7796C0",
"}&	c #F5F7FA",
"|&	c #F6F6F9",
"1&	c #B1C0DB",
"2&	c #6D91BF",
"3&	c #E1E4E8",
"4&	c #698DBD",
"5&	c #B9C7DE",
"6&	c #7897C1",
"7&	c #3C68A1",
"8&	c #2C5486",
"9&	c #3E6BA8",
"0&	c #B8C6DE",
"a&	c #F9FAFC",
"b&	c #EEF1F7",
"c&	c #CED6E7",
"d&	c #CFD6E7",
"e&	c #D0D8E8",
"f&	c #D2D9E9",
"g&	c #D3DAEA",
"h&	c #D1D9E9",
"i&	c #C1CDE2",
"j&	c #5B84B9",
"k&	c #D0D8E2",
"l&	c #8DA7C8",
"m&	c #8DA9CD",
"n&	c #FBFBFD",
"o&	c #355F94",
"p&	c #406DA9",
"q&	c #AEBFD8",
"r&	c #EFF2F7",
"s&	c #FCFCFD",
"t&	c #7194C0",
"u&	c #A2B7D1",
"v&	c #B9C7D9",
"w&	c #6086B9",
"x&	c #ABBDD6",
"y&	c #366094",
"z&	c #2D5384",
"A&	c #3C69A2",
"B&	c #567DB1",
"C&	c #A5BAD4",
"D&	c #EEF0F6",
"E&	c #FAFAFC",
"F&	c #FCFDFE",
"G&	c #FFFFFF",
"H&	c #FDFDFE",
"I&	c #9CB4D3",
"J&	c #7092BD",
"K&	c #DCE1E5",
"L&	c #4F79B0",
"M&	c #3D6AA4",
"N&	c #254975",
"O&	c #385F95",
"P&	c #3E69A0",
"Q&	c #3A68A5",
"R&	c #3867A5",
"S&	c #3B69A7",
"T&	c #4C77AF",
"U&	c #DBE0E5",
"V&	c #6B8EBB",
"W&	c #3A6AA7",
"X&	c #3969A6",
"Y&	c #3566A4",
"Z&	c #3866A1",
"`&	c #B8C7D8",
" *	c #D1D9E1",
".*	c #3465A3",
"+*	c #2F5D96",
"@*	c #3365A4",
"                                                                                                ",
"                                                                                                ",
"                                        . + @ # $ # @ + .                                       ",
"                                  % & * = - ; > , > ; - = * & %                                 ",
"                            ' ) ! ~ { ] ^ / ( _ : < [ } ^ | > ~ ! ) '                           ",
"                          @ 1 ; 2 3 4 5 5 5 5 5 5 5 5 5 5 6 7 3 2 8 1 @                         ",
"                      # 9 0 a / b _ b b _ _ _ c c < d d e e e f f g h i 9 #                     ",
"                    j k l m 7 6 7 7 7 7 6 7 7 7 7 7 7 7 7 n n n n n n m o k j                   ",
"                  p q r s t [ e f f f ( u v v v w x y z A B B B B C D E F G H p                 ",
"                I J K L M N O P Q R n n n S T U V W X n Y Z Z Z Z Z Z Z Z `  ...I               ",
"              +.@.#.$.B %.&.*.=.-.;.>.,.'.).-.!.~.{.B B %.E E ].].^.$.^.^.g F /.(.+.            ",
"              _.:.<.Z Z Z Z Z [.}.|.-.-.-.1.2.3.4.Z 5.Z Z Z Z 5.5.5.5.5.5.` ` 6.7.8.            ",
"            9.0.a.E E E %.%.%.%.b.c.d.-.e.f.g.%.E E E h.h.].i.].$.^.j.k.l.m.m.m.n.o.9.          ",
"          p.q.%.4.4.4.4.4.4.5.5.4.5.r.s.t.u.5.5.5.5.5.5.5.v.v.` ` ` ` ` ` ` w.w.x.y.z.p.        ",
"          A.7.B.i.$.i.i.i.i.i.i.h.E C.D.E.E.F.G.H.F.h.i.w I.^.^.^.J.k.m.m.m.K.L.M.N.O.A.        ",
"    P.Q.R.S.T.U.V.W.X.X.` ` ` ` ` ` 3.Y.Z.`. +.+++v.` ` ` ` ` w.w.w.w.w.x.@+@+#+$+%+&+*+=+      ",
"        -+;+>+,+,+'+)+!+~+{.w {+]+^+/+,+(+_+:+i.i.w w w w i.w <+[+J.[+m.K.}+|+1+2+z 3+4+5+      ",
"        6+7+8+9+0+,+,+,+a+b+c+0+,+,+,+d+e+f+@+` w.w.w.w.w.w.w.w.w.w.g+h+i+j+j+k+k+k+l+m+n+      ",
"        o+p+q+q+r+s+t+,+,+,+,+,+,+u+v+w+x+y+E.E.y+y+y+y+w z+z+J.J.A+B+C+D+E+F+G+H+I+J+K+L+      ",
"      M+N+O+P+Q+Q+Q+R+S+,+,+,+,+T+U+V+@+w.w.g+g+g+w.w.w.w.g+g+#+W+X+Y+Y+Y+Y+j+j+j+k+k+Z+`+M+    ",
"       @m+.@+@@@#@#@$@%@&@*@(+=@-@;@{.y+y+>@y+y+y+y+y+,@'@w )@!@~@{@]@^@/@C+C+(@D+_@H+:@<@ @    ",
"      [@}@|@1@1@1@1@1@2@2@3@4@f+#+#+#+#+#+5@g+g+@+g+g+g+g+6@7@8@8@8@9@9@X+Y+Y+Y+j+j+0@a@b@c@    ",
"      d@e@f@)@g@h@@@#@i@{+{+j@k@l@k@y+m@>@m@n@o@o@p@n@q@r@s@t@u@v@w@x@~@{@B+y@z@A@(@_@B@C@d@    ",
"      D@E@F@$+G@G@G@H@H@2@1@H@2@2@2@2@2@#+#+5@5@#+5@I@J@J@J@J@J@J@7@7@8@9@9@X+Y+Y+j+j+K@L@D@    ",
"      M@N@O@f@)@P@Q@R@R@i@i@{+S@T@U@V@m@W@X@Y@Z@Y@`@ # # # # # #.#+#+#+#+#@#@#@#@#@###$#e@%#    ",
"      &#*#=#-#-#h+$+$+$+;#;#H@H@>#>#>#2@2@,#,#'#)#!#~#{#]#^#^#^#/#(#(#(#(#(#(#(#(#(#_#:#<#&#    ",
"      [#}#|#1#O@2#%@P@3#4#5#6#j@7#Z+8#n@Z@9#0#a#b#c#d#k e#f#g#g#h#i#i#i#i#i#i#i#i#j#k#l#m#n#    ",
"      o#p#q#r#s#t#t#t#t#h+h+$+$+;#;#I@>#I@6@7@J@u#v#v#w#x#y#z#A#B#C#D#D#E#F#G#H#I#I#J#K#L#o#    ",
"        M#N#O#P#P#Q#2#R#Q@S#T#U#S@V#8#7#W#G#X#Y#Z#`#`# $.$+$@$#$$$%$&$*$=$w@-$;$>$,$'$)$!$      ",
"        ~${$t#]$]$^$]$r#s#s#h+/$h+/$u#($J@u#v#v#)#_$_$:$<$[$}$|$1$u#J@J@7@8@9@X+Y+Y+2$3$4$      ",
"        5$6$7$8$9$P#0$a$b$c$3#b#a#d$d$e$f$g$h$i$6@j$i$k$l$m$n$o$p$q$r$s$s@t$u$v$w$]@B 6$5$      ",
"          x$y$%+z$%+A$]$B$C$i+Y+($($B$W+W+6@/$D$D$E$F$G$G$G$H$I$J$K$L$7@8@9@9@X+Y+($M$N$        ",
"          O$P$Q$R$S$T$U$U$V$W$X$Y$c$Z$`$ %.%+%@%D$#%$%%%&%*%=%-%;%>%,%'%)%t$!%{@>$~%{%O$        ",
"            ]%^%z$/%(%(%0@j+_%($($A$^$6@/$E$F$I@I@:%I@I@I@I@D$<%[%}%|%1%($9@X+Y+/$2%]%          ",
"              3%4%5%6%7%8%9%0%a%b%c%Z$d%V#e%f%g%h%h%g%9#0#i%<$=%j%k%]#l%m%n%o%p%y$q%            ",
"              r%s%t%l+(%k+u%i+C$z$A$^$/$h+E$>#>#,#'#>#>#I@;#E$/$v%w%x%y%z%Y+9@A%(@B%            ",
"                C%D%E%F%G%H%I%0%L$J%K%3#`$L%M%W@n@W@U@M%q@N%O%P%Q%R%S%T%U%n%E%Q#C%              ",
"                  V%O#W%_%k+u%i+i+z$B$A$^$/$/$D$E$E$E$/$/$/$X%Y%Z%`% &.&B$W%+&V%                ",
"                    @&#&$&%&S$&&*&=&-&;&>&R#d$%&%&,&'&)&R#!&~&{&]&^&/&i@(&_&:&                  ",
"                      <&[&}&|&%+j+u%Y+($($($B$A$A$A$B$B$B$1&2&3&4&5&t%2%6&7&                    ",
"                        8&9&0&a&b&P@c&d&H%e&f&f&f&g&g&h&i&j&k&l&m&n&5&9&8&                      ",
"                            o&p&q&r&s&6 2@t#z$9@Y+9@z$]$t&u&v&w&x&p&y&                          ",
"                                z&A&B&C&2#D&E&F&G&H&E&I&J&K&L&M&z&                              ",
"                                      N&O&P&Q&R&-.R&S&T&U&V&W&X&1.Y&-.-.-.-.-.-.-.-.-.          ",
"                                                    Z&`&]#]#]#]#]#]#]#]#]#]#]#]#]#]# *.*        ",
"                                                  +*-.-.-.-.-.-.-.-.-.-.-.-.-.-.-.-.-.@*        ",
"                                                                                                ",
"                                                                                                "};
